<svg fill="none" xmlns="http://www.w3.org/2000/svg" viewBox="0 0 143 64">
  <path fill-rule="evenodd" clip-rule="evenodd" d="M26 18c-.7 0-1.5.2-2 .7L1.4 41.2c-.8.7-1 2-.6 3A3 3 0 003.4 46h12.2a2.8 2.8 0 000-5.6h-5.5l13.2-12.9V43c0 1.5 1.2 2.8 2.7 2.8h10.2a14 14 0 0014.1-13.9c0-7.6-6.4-14-14.1-14a2.8 2.8 0 000 5.6c4.6 0 8.5 3.7 8.5 8.4 0 4.6-3.8 8.4-8.5 8.4h-7.3V20.7c0-1.1-.6-2.2-1.7-2.5l-1.2-.3z" fill="#A87BFF"/>
  <path fill-rule="evenodd" clip-rule="evenodd" d="M107.4 24.4c1 0 1.8.9 1.8 1.9 0 1-.8 2-1.8 2a2 2 0 01-2-2c0-1 .8-2 2-2zM77.2 40.9c-2.2 0-4.4-1.5-4.4-5.6 0-4 2.2-5.6 4.4-5.6 1.6 0 2.3.7 2.8 1.2v-6c0-.3 0-.4.3-.4h3.2c.2-.1.3.1.3.4v13.4c0 .5.2.7.4.7v.3c0 .7-.2 1.8-2.1 1.8-1.1 0-1.9-.4-2.1-1.2-.4.4-1 1-2.8 1zm-14.5-.1c.2 0 .4-.1.5-.4l.5-1.5h4l.5 1.5c0 .3.2.4.5.4h3c.2 0 .4-.1.4-.4l-.1-.3-.2-.6-4.1-13c-.1-.3-.3-.3-.6-.3h-3c-.2 0-.4 0-.4.4l-4.1 13-.2.4v.4c0 .3 0 .4.3.4h3zm3.1-9.2l.6 2.8.4 1.3h-2.2l.3-1.3.7-2.8v-.2h.2v.2zm14 1.7v4c-.3.2-.8.3-1.3.2-1.2 0-1.8-.5-1.8-2.3 0-1.8.6-2.3 1.8-2.3.5 0 1 .1 1.3.4zm6.7-3c0-.3 0-.4.3-.4h1.5c1 0 2 .3 2 1.5.7-.6 1.7-1.7 3.2-1.7 1.5 0 2.3.7 2.8 1.8a4 4 0 013.4-1.8c2.5 0 3.2 1.7 3.2 3.9v6.8c0 .3-.2.4-.4.4h-3.1c-.3 0-.4-.1-.4-.4v-6c0-.8-.5-1.1-.9-1.1-.6 0-1.4.4-1.4.4v6.7c0 .3-.1.4-.4.4h-3c-.3 0-.5-.1-.5-.4v-6c0-.8-.5-1.1-.8-1.1-.7 0-1.4.4-1.4.4v6.7c0 .3-.1.4-.4.4h-3.1c-.5 0-.6-.1-.6-.4V30.2zm19.2-.4c-.2 0-.3 0-.3.3v10.2c0 .3 0 .4.3.4h3.2c.2 0 .3-.1.3-.4V30.2c0-.2 0-.3-.3-.3h-3.2zm5.7 2.4h1v6c0 1.9 1.2 2.6 2.7 2.6 1.4 0 2.3-.1 2.9-.7.1-.2.2-.5.2-1.2v-.6c0-.5-.2-.7-.5-.5h-.4l-.4.1c-.4 0-.5-.3-.5-.8v-5h1.3c.3 0 .4 0 .4-.3v-1.7c0-.2-.1-.3-.4-.3h-1.5v-2.2c0-.3 0-.4-.3-.4h-3.2c-.2 0-.3.1-.3.4v2.2h-1c-.3 0-.4 0-.4.3V32c0 .3.1.4.4.4zm11.7 8.6c-1.8 0-3.5-.9-3.5-3.4 0-2.4 1.9-3.4 4.2-3.4a6 6 0 011.8.2v-.2c0-1 0-1.4-1.2-1.4-1.1 0-1.9.2-2.4.4a7 7 0 01-.4 0c-.3.2-.7.3-1 .3-.2 0-.4-.1-.4-.6v-1.4c0-.5.3-.9 1-1.2.8-.5 2.7-.6 4-.6 3 0 4.3 1.2 4.3 4v4.7c0 .5.1.7.4.7v.3c0 .7-.3 1.8-2.1 1.8-1.2 0-1.8-.4-2.2-1-.2.3-.8.8-2.5.8zm2.7-5v2.4l-1 .3c-1 0-1.3-.3-1.3-1.4 0-1 .5-1.4 1.3-1.4.5 0 .7 0 1 .2zm10 5c-2.3 0-4.4-1.5-4.4-5.6 0-4 2.1-5.6 4.4-5.6 1.6 0 2.2.7 2.7 1.2v-6c0-.3.1-.4.4-.4h3.1c.3 0 .4.1.4.4v13.4c0 .5.1.7.4.7v.3c0 .7-.3 1.8-2.2 1.8-1 0-1.8-.4-2-1.2-.3.4-1 1-2.8 1zm2.7-7.6v4c-.4.2-.9.3-1.4.2-1 0-1.7-.5-1.7-2.3 0-1.8.6-2.3 1.7-2.3.5 0 1 .1 1.4.4z" fill="#6B31BD"/>
</svg>
