<svg width="144" height="64" viewBox="0 0 144 64" fill="none" xmlns="http://www.w3.org/2000/svg">
<g clip-path="url(#clip0)">
<path fill-rule="evenodd" clip-rule="evenodd" d="M26.3608 18.127C25.61 18.127 24.8592 18.3774 24.3587 18.8782L1.71022 41.0407C0.959445 41.7919 0.709185 43.0441 1.08457 44.0457C1.58509 45.0474 2.58613 45.6735 3.7123 45.6735H15.975C17.4766 45.6735 18.7279 44.4213 18.7279 42.9188C18.7279 41.4163 17.4766 40.1642 15.975 40.1642H10.4693L23.608 27.5178V42.7936C23.608 44.2962 24.8592 45.5483 26.3608 45.5483H36.4963C44.2544 45.5483 50.636 39.4129 50.636 31.9002C50.636 24.3875 44.2544 18.127 36.4963 18.127C34.9948 18.127 33.7435 19.3791 33.7435 20.8816C33.7435 22.3841 34.9948 23.6363 36.4963 23.6363C41.1262 23.6363 45.0052 27.2674 45.0052 31.9002C45.0052 36.4078 41.2513 40.1642 36.4963 40.1642H29.2388V20.8816C29.2388 19.7547 28.6131 18.753 27.487 18.3774C27.1116 18.2522 26.7362 18.127 26.3608 18.127Z" fill="#A87BFF"/>
<path fill-rule="evenodd" clip-rule="evenodd" d="M107.694 24.5117C108.695 24.5117 109.571 25.3882 109.571 26.3899C109.571 27.3915 108.695 28.2681 107.694 28.2681C106.693 28.2681 105.817 27.3915 105.817 26.3899C105.817 25.3882 106.568 24.5117 107.694 24.5117ZM77.5381 40.7892C75.2858 40.7892 73.1586 39.2866 73.1586 35.2799C73.1586 31.2732 75.2858 29.7706 77.5381 29.7706C79.1648 29.7706 79.7904 30.3967 80.2909 30.8975V25.0126C80.2909 24.7621 80.416 24.6369 80.6663 24.6369H83.7945C84.0448 24.5117 84.1699 24.7621 84.1699 25.0126V38.1598C84.1699 38.6606 84.2951 38.911 84.5453 38.911V39.1615C84.5453 39.9127 84.2951 40.9144 82.4181 40.9144C81.2919 40.9144 80.5412 40.5387 80.2909 39.7876C79.9156 40.1631 79.2899 40.7892 77.5381 40.7892ZM63.023 40.664C63.2733 40.664 63.3984 40.5387 63.5235 40.2884L64.024 38.7858H68.0282L68.5287 40.2884C68.5287 40.5387 68.779 40.664 69.0293 40.664H72.0324C72.2826 40.664 72.4078 40.5387 72.4078 40.2884C72.4078 40.2257 72.3765 40.1319 72.3295 39.991V39.9909C72.2826 39.8501 72.2201 39.6623 72.1575 39.4119L68.0282 26.6404C67.9031 26.2647 67.7779 26.2647 67.4026 26.2647H64.3994C64.2743 26.2647 64.024 26.2647 64.024 26.6404L59.8947 39.4119C59.8383 39.638 59.7818 39.7876 59.7368 39.9066C59.6821 40.0512 59.6445 40.151 59.6445 40.2884C59.6445 40.5387 59.7696 40.664 60.0199 40.664H63.023ZM66.1513 31.6488C66.1513 31.8992 66.6518 33.9026 66.7769 34.4034L67.1523 35.6556H64.8999L65.2753 34.4034C65.4005 33.9026 65.901 31.8992 65.901 31.6488C65.901 31.5235 65.901 31.3983 66.0261 31.3983C66.0745 31.3983 66.1042 31.3983 66.1223 31.4128C66.1513 31.4358 66.1513 31.4952 66.1513 31.6488ZM80.1658 33.2765V37.1581C79.7904 37.4085 79.2899 37.5337 78.7894 37.4085C77.6633 37.4085 77.0376 36.9077 77.0376 35.1547C77.0376 33.4017 77.6633 32.9009 78.7894 32.9009C79.2899 32.9009 79.7904 33.0261 80.1658 33.2765ZM86.7977 30.2714C86.7977 30.021 86.9228 29.8959 87.1731 29.8959H88.6746C89.6757 29.8959 90.5515 30.2714 90.6765 31.3983C91.3025 30.7723 92.3035 29.7706 93.8045 29.7706C95.3065 29.7706 96.1825 30.3967 96.6825 31.5235C97.3085 30.5219 98.5595 29.7706 100.061 29.7706C102.564 29.7706 103.189 31.3983 103.189 33.5269V40.2884C103.189 40.5387 103.064 40.664 102.814 40.664H99.6864C99.4355 40.664 99.3105 40.5387 99.3105 40.2884V34.2782C99.3105 33.5269 98.8104 33.2765 98.4345 33.2765C97.8094 33.2765 97.0585 33.6522 97.0585 33.6522V40.2884C97.0585 40.5387 96.9334 40.664 96.6825 40.664H93.5545C93.3045 40.664 93.1795 40.5387 93.1795 40.2884V34.2782C93.1795 33.5269 92.6785 33.2765 92.3035 33.2765C91.6775 33.2765 90.9265 33.6522 90.9265 33.6522V40.2884C90.9265 40.5387 90.8015 40.664 90.5515 40.664H87.4233C86.9228 40.664 86.7977 40.5387 86.7977 40.2884V30.2714ZM106.067 29.8959C105.817 29.8959 105.692 30.021 105.692 30.2714V40.2884C105.692 40.5387 105.817 40.664 106.067 40.664H109.196C109.446 40.664 109.571 40.5387 109.571 40.2884V30.2714C109.571 30.021 109.446 29.8959 109.196 29.8959H106.067ZM111.698 32.2748H112.699V38.285C112.699 40.0379 113.95 40.7892 115.452 40.7892C116.828 40.7892 117.704 40.664 118.33 40.0379C118.455 39.9127 118.58 39.5371 118.58 38.911V38.285C118.58 37.7842 118.33 37.6589 118.08 37.7842C117.892 37.7842 117.767 37.8155 117.642 37.8467C117.517 37.878 117.392 37.9093 117.204 37.9093C116.828 37.9093 116.703 37.6589 116.703 37.1581V32.2748H118.08C118.33 32.2748 118.455 32.1496 118.455 31.8992V30.2714C118.455 30.021 118.33 29.8959 118.08 29.8959H116.578V27.7672C116.578 27.5168 116.453 27.3915 116.203 27.3915H113.075C112.824 27.3915 112.699 27.5168 112.699 27.7672V29.8959H111.698C111.448 29.8959 111.323 30.021 111.323 30.2714V31.8992C111.323 32.1496 111.448 32.2748 111.698 32.2748ZM123.46 40.7892C121.583 40.7892 119.957 39.9127 119.957 37.4085C119.957 35.0295 121.834 34.0278 124.086 34.0278C124.962 34.0278 125.588 34.153 125.963 34.2782V34.0278C125.963 33.0261 125.838 32.6504 124.712 32.6504C123.617 32.6504 122.839 32.8883 122.314 33.0486C122.18 33.0897 122.062 33.1257 121.959 33.1513C121.583 33.2765 121.208 33.4017 120.958 33.4017C120.708 33.4017 120.582 33.2765 120.582 32.7757V31.3983C120.582 30.8975 120.833 30.5219 121.458 30.2714C122.334 29.7706 124.211 29.6454 125.462 29.6454C128.466 29.6454 129.842 30.7723 129.842 33.5269V38.1598C129.842 38.6606 129.967 38.911 130.217 38.911V39.1615C130.217 39.9127 129.967 40.9144 128.09 40.9144C126.964 40.9144 126.338 40.5387 125.963 39.9127C125.713 40.2884 125.087 40.7892 123.46 40.7892ZM126.088 35.9059V38.1598C125.838 38.285 125.463 38.4102 125.087 38.5354V38.5354C124.211 38.5354 123.836 38.1598 123.836 37.1581C123.836 36.1564 124.336 35.7808 125.087 35.7808C125.588 35.7808 125.838 35.7808 126.088 35.9059ZM136.099 40.7892C133.846 40.7892 131.719 39.2866 131.719 35.2799C131.719 31.2732 133.846 29.7706 136.099 29.7706C137.725 29.7706 138.351 30.3967 138.851 30.8975V25.0126C138.851 24.7621 138.977 24.6369 139.227 24.6369H142.355C142.605 24.6369 142.73 24.7621 142.73 25.0126V38.1598C142.73 38.6606 142.856 38.911 143.106 38.911V39.1615C143.106 39.9127 142.856 40.9144 140.979 40.9144C139.852 40.9144 139.102 40.5387 138.851 39.7876C138.601 40.1631 137.85 40.7892 136.099 40.7892ZM138.851 33.2765V37.1581C138.476 37.4085 137.976 37.5337 137.475 37.4085C136.349 37.4085 135.723 36.9077 135.723 35.1547C135.723 33.4017 136.349 32.9009 137.475 32.9009C137.976 32.9009 138.476 33.0261 138.851 33.2765Z" fill="#6B31BD"/>
</g>
<defs>
<clipPath id="clip0">
<rect width="143" height="63" fill="white" transform="translate(0.333008 0.5)"/>
</clipPath>
</defs>
</svg>
