<svg width="144" height="64" viewBox="0 0 144 64" fill="none" xmlns="http://www.w3.org/2000/svg">
<g clip-path="url(#clip0)">
<path d="M18.3662 5.67871C21.9605 5.67871 23.0899 8.21316 24.0339 10.7472C24.4349 11.821 33.7705 36.9862 34.0486 37.7412C34.127 37.9499 34.0757 38.2981 33.7455 38.4218C33.4149 38.544 28.5639 40.4021 28.2962 40.5016C28.028 40.6003 27.7261 40.4534 27.6274 40.1911C27.528 39.9303 25.517 34.4439 25.2902 33.8307C24.6215 33.8307 12.1264 33.8307 11.4589 33.8307C11.2309 34.4439 9.19927 39.9412 9.10578 40.1911C9.01349 40.4436 8.72149 40.6117 8.43824 40.5016C8.1538 40.3908 3.28092 38.5322 2.9929 38.4218C2.71443 38.3169 2.58593 38.0044 2.68578 37.7412C3.02791 36.7974 12.2215 12.0379 12.6921 10.7472C13.6023 8.2535 14.7731 5.67871 18.3662 5.67871ZM1.94584 50.7036C1.65583 50.7036 1.42191 50.9413 1.42191 51.2331V57.1126C1.42191 57.4063 1.65623 57.6405 1.94584 57.6405H34.787C35.0746 57.6405 35.3065 57.4063 35.3065 57.1126V51.2331C35.3065 50.9417 35.0746 50.7036 34.787 50.7036H1.94584ZM18.3388 13.8957L13.6608 27.7193H23.0899L18.396 13.8957H18.3388ZM80.4669 36.5597C79.7791 36.7915 79.3248 36.8479 78.7822 36.8479C77.6643 36.8479 77.0421 36.412 77.0421 35.2822C77.0421 34.1066 77.833 33.7104 79.3813 33.7104C79.7545 33.7104 80.1308 33.7648 80.3042 33.8243V34.6655C80.3042 35.5755 80.3528 36.172 80.4669 36.5597ZM84.4408 37.9107C83.6165 36.6748 83.4013 35.9472 83.4013 34.3894V31.2335C83.4013 29.5292 83.2008 28.9171 82.7417 28.2949C82.1075 27.4165 81.0494 27.0359 79.0984 27.0359C77.7216 27.0359 76.3818 27.1835 75.0869 27.507L75.5499 29.7548C76.4287 29.6345 77.3469 29.5292 77.9949 29.5292C80.0659 29.5292 80.305 29.8256 80.305 31.3533V31.9246C79.8448 31.8036 79.3256 31.7163 78.7249 31.7163C75.6092 31.7163 73.9642 33.2161 73.9642 35.6985C73.9642 38.0282 75.7198 39.2977 77.8632 39.2977C78.666 39.2977 79.5003 39.1525 80.1614 38.8893C80.56 38.7158 80.7335 38.6163 81.253 38.2843C81.5609 38.7327 82.1879 39.1877 82.4421 39.2696L84.4408 37.9107ZM115.262 36.5597C114.572 36.7915 114.121 36.8479 113.576 36.8479C112.457 36.8479 111.824 36.412 111.824 35.2822C111.824 34.1066 112.625 33.7104 114.176 33.7104C114.55 33.7104 114.924 33.7648 115.095 33.8243V34.6655C115.094 35.5755 115.145 36.172 115.262 36.5597ZM119.236 37.9107C118.407 36.6748 118.194 35.9472 118.194 34.3894V31.2335C118.194 29.5292 117.994 28.9171 117.533 28.2949C116.9 27.4165 115.842 27.0359 113.89 27.0359C112.511 27.0359 111.16 27.1835 109.868 27.507L110.329 29.7548C111.207 29.6345 112.129 29.5292 112.791 29.5292C114.855 29.5292 115.095 29.8256 115.095 31.3533V31.9246C114.637 31.8036 114.121 31.7163 113.516 31.7163C110.39 31.7163 108.743 33.2161 108.743 35.6985C108.743 38.0282 110.501 39.2977 112.656 39.2977C113.458 39.2977 114.293 39.1525 114.952 38.8893C115.355 38.7158 115.525 38.6163 116.042 38.2843C116.354 38.7327 116.982 39.1877 117.235 39.2696L119.236 37.9107ZM143.498 39.035C143.498 39.035 141.792 35.4502 141.376 34.6377C140.904 33.7174 140.47 33.0818 139.506 32.8586V32.8034C140.151 32.6832 140.665 32.2978 141.217 31.1262C141.756 29.9823 141.912 29.736 142.223 29.4662C142.532 29.192 142.951 29.2942 142.951 29.2942L143.111 27.1772C142.662 27.1193 142.166 27.1177 141.654 27.1467C140.808 27.1964 140.368 27.4333 139.952 27.8488C139.629 28.1656 139.406 28.6383 139.133 29.1795C138.84 29.7716 138.609 30.2494 138.311 30.8532C138.013 31.4692 137.864 31.7461 137.055 31.7461H136.53V22.3883H133.404V39.0346H136.53V34.2492L136.954 34.2402C137.85 34.2402 138.005 34.4583 138.477 35.3868C139.033 36.4958 140.09 39.035 140.09 39.035H143.498ZM55.6148 39.035H59.2163L53.7721 22.6691C53.2008 22.4792 52.488 22.3605 51.7309 22.3605C50.9043 22.3605 50.6106 22.469 49.9626 22.6691L44.2042 39.035H47.6569C47.6569 39.035 48.1215 37.6001 48.6737 35.8179H54.6426C55.1776 37.5986 55.6148 39.035 55.6148 39.035ZM49.5509 33.0736C49.5509 33.0736 50.5442 29.7908 50.6978 29.277C51.1004 27.9553 51.7007 25.8524 51.7007 25.8524H51.8009C51.8009 25.8524 52.3547 28.0321 52.7195 29.2574C52.8579 29.7414 53.8107 33.0736 53.8107 33.0736H49.5509ZM89.7568 31.2049C88.6544 31.2049 87.7606 32.0879 87.7606 33.1731C87.7606 34.2629 88.6541 35.1393 89.7568 35.1393C90.858 35.1393 91.7507 34.2629 91.7507 33.1731C91.7507 32.0879 90.8576 31.2049 89.7568 31.2049ZM63.492 22.3883H60.3652V39.0346H63.492V22.3883ZM125.636 29.6807C127.361 29.7195 127.573 30.0684 127.573 31.4978V39.035H130.672V31.2331C130.672 29.5288 130.471 28.9167 130.012 28.2945C129.378 27.4161 128.124 27.0355 126.012 27.0355C123.921 27.0355 122.591 27.2544 120.875 27.7568V39.0346H124.005V29.8256C124.83 29.7082 124.971 29.6807 125.636 29.6807ZM71.2252 22.0931C69.2743 22.0931 68.2137 22.4714 67.5808 23.3501C67.1217 23.972 66.9204 24.6005 66.9204 26.3059V27.7568H65.3666V30.2451H66.9204V39.0346H70.0178L70.0107 30.2451H73.1049V27.7568H70.0107L70.0178 26.4226C70.0178 24.8969 70.2581 24.6009 72.3284 24.6009C72.5508 24.6009 72.8022 24.6126 73.0719 24.633L73.5608 22.243C72.7942 22.1412 72.0125 22.0931 71.2252 22.0931ZM96.114 22.2466C97.1781 22.1859 99.5535 22.0985 101.05 22.0985C101.315 22.0985 101.595 22.1009 101.881 22.1134C104.819 22.1134 106.499 24.2187 106.499 26.6866C106.499 28.365 105.718 29.4791 103.888 30.1444C106.045 30.6136 107.174 32.2704 107.174 34.2934C107.174 35.7796 106.743 36.9583 105.959 37.7642C104.948 38.7487 103.416 39.2977 101.376 39.297C99.5531 39.297 97.2756 39.2433 96.1135 39.1752L96.114 22.2466ZM101.05 24.976C100.526 24.976 99.892 24.9843 99.2547 25.007C99.2547 25.2787 99.2547 28.7331 99.2547 29.0041C99.5117 29.0041 101.053 29.0041 101.053 29.0041C101.757 29.0041 102.332 28.809 102.724 28.4327C103.092 28.0807 103.283 27.579 103.283 26.9838C103.283 25.708 102.582 24.9819 101.277 24.976C101.169 24.976 101.122 24.976 101.05 24.976ZM101.109 36.4296C101.157 36.4296 101.206 36.4296 101.254 36.4296C102.87 36.4296 103.874 35.5767 103.884 33.8603C103.865 33.2408 103.628 32.6742 103.201 32.2634C102.727 31.7982 102.061 31.555 101.282 31.555C101.282 31.555 99.5169 31.555 99.2543 31.555C99.2543 31.8303 99.2543 36.134 99.2543 36.4101C99.826 36.4222 100.455 36.4269 101.109 36.4296Z" fill="#EE3424"/>
</g>
<defs>
<clipPath id="clip0">
<rect width="143" height="63" fill="white" transform="translate(0.666992 0.5)"/>
</clipPath>
</defs>
</svg>
