<svg fill="none" xmlns="http://www.w3.org/2000/svg" viewBox="0 0 143 64">
  <path d="M17.7 5.3c3.6 0 4.7 2.5 5.7 5.1l10 27.4c0 .2 0 .6-.3.7l-5.5 2.1c-.2.1-.5 0-.6-.3L24.6 34H10.8l-2.4 6.4c0 .3-.3.4-.6.3-.3 0-5.2-2-5.5-2a.5.5 0 01-.3-.8c.4-1 9.6-26 10-27.4 1-2.5 2.1-5.1 5.7-5.1zM1.3 51c-.3 0-.5.2-.5.5v6c0 .3.2.5.5.5H34c.3 0 .5-.2.5-.5v-6c0-.3-.2-.5-.5-.5H1.3zm16.4-37.4l-4.7 14h9.4l-4.7-14zm62.1 23c-.7.3-1.1.3-1.7.3-1.1 0-1.7-.4-1.7-1.6 0-1.2.8-1.6 2.3-1.6.4 0 .8 0 1 .2v.8l.1 2zm4 1.4c-.9-1.3-1-2-1-3.6v-3.2c0-1.7-.3-2.3-.7-3-.7-.9-1.7-1.2-3.7-1.2-1.3 0-2.7.1-4 .4l.5 2.3a20 20 0 012.4-.2c2.1 0 2.3.3 2.3 1.8v.6a6 6 0 00-1.5-.2c-3.2 0-4.8 1.5-4.8 4 0 2.4 1.8 3.7 3.9 3.7.8 0 1.6-.1 2.3-.4l1-.6c.4.4 1 .9 1.3 1l2-1.4zm30.8-1.4c-.7.3-1.1.3-1.7.3-1.1 0-1.7-.4-1.7-1.6 0-1.2.8-1.6 2.3-1.6.4 0 .8 0 1 .2v2.8zm4 1.4c-.9-1.3-1-2-1-3.6v-3.2c0-1.7-.3-2.3-.7-3-.7-.9-1.7-1.2-3.7-1.2-1.4 0-2.7.1-4 .4l.5 2.3a20 20 0 012.4-.2c2 0 2.3.3 2.3 1.8v.6a6 6 0 00-1.6-.2c-3 0-4.7 1.5-4.7 4 0 2.4 1.7 3.7 3.9 3.7.8 0 1.6-.1 2.3-.4a6 6 0 001-.6c.4.4 1 .9 1.3 1l2-1.4zm24.2 1.1l-2-4.4c-.6-1-1-1.6-2-1.8.7-.2 1.2-.6 1.8-1.8.5-1.1.6-1.4 1-1.7.3-.3.7-.1.7-.1l.1-2.2H141c-.9 0-1.3.3-1.7.7l-.8 1.3-.9 1.7c-.3.7-.4 1-1.2 1h-.5v-9.6h-3.2v17h3.2v-5h.4c.9 0 1 .3 1.5 1.2l1.6 3.7h3.4zm-87.9 0h3.6l-5.4-16.6c-.6-.2-1.3-.3-2-.3-.9 0-1.2.1-1.8.3l-5.8 16.6H47l1-3.2h6l1 3.2zm-6-6l1.1-3.9 1-3.4h.1a119.6 119.6 0 002 7.3H49zM89 31a2 2 0 100 4 2 2 0 000-4zm-26.3-8.9h-3.1v17h3.1v-17zm62.2 7.4c1.7 0 2 .4 2 1.9V39h3v-7.9c0-1.7-.2-2.3-.7-3-.6-.9-1.8-1.2-4-1.2-2 0-3.4.2-5 .7V39h3v-9.3l1.7-.2zM70.6 22c-2 0-3 .4-3.7 1.3-.4.6-.6 1.3-.6 3v1.5h-1.6v2.5h1.6v9h3v-9h3.1v-2.5h-3v-1.4c0-1.5.2-1.8 2.3-1.8h.7l.5-2.4-2.3-.2zm24.8.2a108.2 108.2 0 015.8-.1c3 0 4.6 2 4.6 4.6 0 1.7-.7 2.8-2.6 3.5 2.2.5 3.3 2.2 3.3 4.2a5 5 0 01-1.2 3.6c-1 1-2.6 1.5-4.6 1.5l-5.3-.1V22zm5 2.8h-1.8v4h1.8c.7 0 1.3-.1 1.7-.5.3-.4.5-.9.5-1.5 0-1.3-.7-2-2-2h-.2zm0 11.6h.2c1.6 0 2.6-.9 2.6-2.6 0-.6-.2-1.2-.7-1.6-.4-.5-1.1-.8-1.9-.8h-2v5h1.8z" fill="#EE3424"/>
</svg>
