<svg width="68" height="15" viewBox="0 0 68 15" fill="none" xmlns="http://www.w3.org/2000/svg">
<path d="M11.2048 0C9.12104 0.0750859 7.36955 1.206 6.38056 2.92614L0 14.7239L4.82831 14.7199L5.95982 12.1666H9.57084L9.43196 14.7239H14.2644L13.7047 9.25573e-06H11.2048V0ZM18.8639 0L15.1508 14.7239H19.3378L23.0632 0H18.8639ZM25.0443 0.145901L22.0256 12.0166C21.704 13.2137 21.8007 13.9857 22.3115 14.3389C22.7665 14.6853 23.6316 14.8493 24.9095 14.8374C25.6457 14.8374 26.4351 14.802 27.2787 14.732L27.9078 12.2557H27.2093C26.5118 12.2643 26.2315 11.9716 26.376 11.3803L27.7117 6.06302H29.4682L30.0932 3.56243H28.349L29.2395 0.145901H25.0443ZM10.0692 3.20173L9.72607 9.34176H7.20979L10.0692 3.20173ZM58.1317 3.25442C56.5958 3.25442 55.4009 3.81006 54.5452 4.92013H54.4962L54.8312 3.55838H50.5992L47.7766 14.7199H51.9758L53.8385 7.35588C54.069 6.46168 54.5897 6.021 55.399 6.03466C56.2013 6.021 56.4813 6.46402 56.2405 7.35993L54.3778 14.7199H58.5647L60.4274 7.35588C60.6622 6.46168 61.1939 6.021 62.0246 6.03466C62.8347 6.021 63.1129 6.46168 62.8661 7.35588L61.0116 14.7199H62.862C64.1752 14.7199 65.4241 13.8581 65.7173 12.6772L67.3309 6.29809C67.6121 5.12829 67.488 4.31563 66.9591 3.85829C66.413 3.44873 65.6451 3.2493 64.6553 3.25442C63.9888 3.25442 63.337 3.38368 62.6945 3.63538C62.0298 3.89733 61.4418 4.34376 60.9258 4.97687C60.8226 4.39837 60.5575 3.96431 60.1292 3.67591C59.6932 3.39519 59.027 3.25442 58.1317 3.25442ZM31.6414 3.56648L28.831 14.7239H33.0139L35.8365 3.56648H31.6414ZM37.7401 3.56648L35.616 11.9964C35.3425 13.161 35.4837 13.9596 36.0367 14.3794C36.5544 14.8086 37.2948 15.0114 38.2589 14.9995C39.7862 14.9995 40.9714 14.4611 41.8168 13.3784H41.8658L41.5349 14.728H45.7178L48.5282 3.56648H44.3372L42.4744 10.9305C42.2423 11.8247 41.7205 12.2683 40.9018 12.2598C40.1106 12.2683 39.835 11.8247 40.0766 10.9305L41.9352 3.56648H37.7401Z" fill="black"/>
</svg>
