<svg viewBox="0 0 30 31" fill="none" xmlns="http://www.w3.org/2000/svg">
  <path fill-rule="evenodd" clip-rule="evenodd" d="M15.7545 11.8281C20.6377 11.8281 20.607 19.6212 15.838 19.6212C10.616 19.6209 10.8521 11.8281 15.7545 11.8281ZM25.1948 26.7753C24.9356 27.019 24.6592 27.2175 24.3705 27.3836L24.0902 25.5617C24.1014 25.5517 24.1139 25.543 24.1251 25.5327C25.3878 24.3462 25.4256 22.3335 24.6976 20.0383C22.4851 21.3074 19.7788 22.2823 17.0806 22.8793C16.528 23.0016 15.9686 23.1055 15.4073 23.1981C16.462 24.0631 17.5254 24.796 18.5481 25.3348C18.926 24.6517 19.6182 24.151 20.6108 24.151C23.7318 24.151 23.712 29.1313 20.664 29.1313C19.1283 29.1313 18.3331 28.0765 18.2256 26.9378C16.5776 26.1353 14.8803 24.9174 13.28 23.4725C11.8473 23.6045 10.4355 23.6289 9.11739 23.5196C9.44315 26.1874 10.5504 27.78 11.9657 28.2616C13.1894 28.6781 14.5113 28.1396 15.7948 26.9114L17.1088 27.8164C15.376 29.6159 13.4387 30.5203 11.47 29.8505C8.94555 28.9919 7.80379 26.4535 7.55323 23.3178C4.55995 22.7823 2.29051 21.4247 1.78811 18.9491C1.71547 18.5912 1.68155 18.2406 1.67899 17.8973C-0.511728 16.9611 -0.0608476 13.1219 2.69019 13.1219C5.60827 13.1219 5.78011 17.4745 3.29915 18.0407C3.30491 18.2309 3.31611 18.42 3.35323 18.6029C3.67579 20.1924 5.22619 21.2148 7.49819 21.6834C7.51451 20.2673 7.68283 18.775 7.95835 17.2907C4.84091 12.5998 3.23355 7.41033 6.05243 4.76293C7.64539 3.26761 9.69435 3.13191 11.8576 3.8388L11.2147 5.3495C9.43707 4.86621 8.02491 5.15832 7.12251 6.00558C5.36283 7.65799 6.10779 11.2208 8.44155 15.1152C8.58171 14.5708 8.73115 14.0313 8.89531 13.5053C10.0812 9.70278 12.078 5.72483 14.4822 3.38091C14.0617 1.93606 14.8611 0.086792 16.7705 0.086792C19.8912 0.086792 19.8716 5.06708 16.8236 5.06708C16.2566 5.06708 15.7926 4.92102 15.4246 4.68238C13.3811 6.72517 11.5398 10.3271 10.3904 14.0139C10.0713 15.037 9.81947 16.0009 9.61691 16.917C10.2172 17.7663 10.8841 18.6196 11.6092 19.4618C12.31 20.276 13.0496 21.0561 13.8073 21.7803C14.7625 21.6627 15.7488 21.4952 16.7542 21.2726C19.446 20.6771 22.0806 19.7269 24.1337 18.5383C23.9648 18.148 23.7792 17.7533 23.576 17.3562L24.5225 15.7867C24.8684 16.4113 25.1792 17.0407 25.4572 17.6677C27.3145 16.298 28.392 14.6944 28.046 12.9875C27.6963 11.2639 26.0681 10.2238 23.8256 9.73018C23.7657 12.3244 23.2336 15.2041 22.4006 17.8996L20.5619 18.4448C20.671 18.1256 20.7779 17.8034 20.8803 17.4752C21.7267 14.7609 22.2531 11.9247 22.3001 9.48553C19.9049 9.23018 17.0668 9.45913 14.3804 10.0537C14.1888 10.0962 14.0137 10.1446 13.8275 10.1891L14.3622 8.38259C16.9376 7.84148 19.7478 7.60786 22.2524 7.85184C22.0995 6.02396 21.5974 4.54535 20.654 3.70745L20.9401 1.88993C22.7545 2.94642 23.615 5.25124 23.7952 8.07443C26.7782 8.65097 29.0867 10.0547 29.6115 12.6416C30.1222 15.1597 28.5811 17.395 26.0524 19.1774C27.0844 22.1841 27.0883 24.9972 25.1948 26.7753ZM10.4409 20.5597C10.0243 20.0761 9.61883 19.5765 9.22747 19.0658C9.08507 20.0945 9.01723 21.044 9.02139 21.9053C9.85915 21.9825 10.7638 22.0002 11.7168 21.9591C11.2784 21.5043 10.8515 21.037 10.4409 20.5597Z" fill="#96969C"/>
</svg>