<svg width="30" height="31" viewBox="0 0 30 31" fill="none" xmlns="http://www.w3.org/2000/svg">
<path fill-rule="evenodd" clip-rule="evenodd" d="M15.754 12.5192C20.6372 12.5192 20.6065 20.3123 15.8375 20.3123C10.6155 20.3119 10.8516 12.5192 15.754 12.5192ZM25.1943 27.4664C24.9351 27.71 24.6587 27.9085 24.37 28.0746L24.0897 26.2528C24.1009 26.2428 24.1134 26.2341 24.1246 26.2237C25.3873 25.0372 25.4251 23.0245 24.6971 20.7294C22.4846 21.9984 19.7783 22.9734 17.0801 23.5703C16.5275 23.6926 15.9681 23.7966 15.4068 23.8892C16.4615 24.7541 17.5249 25.4871 18.5476 26.0259C18.9255 25.3427 19.6177 24.842 20.6103 24.842C23.7313 24.842 23.7115 29.8223 20.6635 29.8223C19.1278 29.8223 18.3326 28.7675 18.2251 27.6288C16.5771 26.8263 14.8798 25.6084 13.2795 24.1636C11.8468 24.2956 10.435 24.32 9.11691 24.2107C9.44267 26.8785 10.5499 28.471 11.9652 28.9527C13.1889 29.3691 14.5108 28.8307 15.7943 27.6024L17.1083 28.5075C15.3755 30.3069 13.4382 31.2113 11.4695 30.5416C8.94507 29.6829 7.80331 27.1445 7.55275 24.0088C4.55946 23.4734 2.29002 22.1158 1.78762 19.6402C1.71498 19.2822 1.68106 18.9316 1.6785 18.5883C-0.512216 17.6522 -0.0613359 13.8129 2.6897 13.8129C5.60778 13.8129 5.77962 18.1656 3.29866 18.7317C3.30442 18.9219 3.31562 19.1111 3.35275 19.2939C3.6753 20.8835 5.2257 21.9059 7.4977 22.3744C7.51403 20.9583 7.68234 19.466 7.95786 17.9817C4.84043 13.2909 3.23306 8.10137 6.05194 5.45397C7.6449 3.95865 9.69387 3.82295 11.8571 4.52984L11.2142 6.04054C9.43659 5.55725 8.02443 5.84936 7.12203 6.69662C5.36234 8.34903 6.1073 11.9119 8.44106 15.8063C8.58122 15.2618 8.73067 14.7224 8.89482 14.1963C10.0807 10.3938 12.0775 6.41587 14.4817 4.07195C14.0612 2.6271 14.8606 0.777832 16.77 0.777832C19.8907 0.777832 19.8711 5.75812 16.8231 5.75812C16.2561 5.75812 15.7921 5.61206 15.4241 5.37343C13.3806 7.41621 11.5393 11.0181 10.3899 14.705C10.0708 15.728 9.81898 16.692 9.61642 17.6081C10.2167 18.4573 10.8836 19.3106 11.6087 20.1529C12.3095 20.967 13.0491 21.7471 13.8068 22.4714C14.762 22.3537 15.7483 22.1863 16.7537 21.9637C19.4455 21.3681 22.0801 20.4179 24.1332 19.2294C23.9643 18.839 23.7787 18.4443 23.5755 18.0472L24.522 16.4777C24.8679 17.1024 25.1787 17.7317 25.4567 18.3587C27.314 16.9891 28.3915 15.3855 28.0455 13.6786C27.6958 11.955 26.0676 10.9149 23.8251 10.4212C23.7652 13.0155 23.2331 15.8952 22.4001 18.5907L20.5614 19.1358C20.6705 18.8166 20.7774 18.4944 20.8798 18.1662C21.7262 15.452 22.2526 12.6157 22.2996 10.1766C19.9044 9.92122 17.0663 10.1502 14.3799 10.7448C14.1883 10.7872 14.0132 10.8357 13.827 10.8801L14.3617 9.07363C16.9371 8.53252 19.7473 8.2989 22.2519 8.54288C22.099 6.715 21.5969 5.23639 20.6535 4.39849L20.9396 2.58097C22.754 3.63746 23.6145 5.94228 23.7947 8.76547C26.7777 9.34201 29.0862 10.7458 29.611 13.3327C30.1217 15.8507 28.5806 18.086 26.0519 19.8684C27.0839 22.8751 27.0878 25.6883 25.1943 27.4664ZM10.4404 21.2508C10.0238 20.7672 9.61835 20.2675 9.22698 19.7568C9.08459 20.7855 9.01674 21.7351 9.0209 22.5964C9.85866 22.6736 10.7633 22.6913 11.7163 22.6502C11.2779 22.1953 10.851 21.7281 10.4404 21.2508Z" fill="#111111"/>
</svg>
