<svg fill="none" xmlns="http://www.w3.org/2000/svg" viewBox="0 0 40 40"><path d="M2.79 31.87c-1.38 0-2.79 1.1-2.79 3.04 0 1.76 1.24 3 2.79 3 1.28 0 1.84-.85 1.84-.85v.37c0 .18.17.38.38.38h.92V32h-1.3v.73s-.57-.87-1.84-.87zm.23 1.19c1.13 0 1.73 1 1.73 1.85 0 .94-.7 1.84-1.73 1.84-.85 0-1.7-.69-1.7-1.86 0-1.05.73-1.83 1.7-1.83zM7.73 37.8a.36.36 0 01-.37-.37v-5.42h1.3v.71c.29-.44.86-.85 1.74-.85 1.44 0 2.2 1.15 2.2 2.22v3.72h-.9a.4.4 0 01-.39-.4v-3.03c0-.6-.36-1.32-1.2-1.32-.91 0-1.46.86-1.46 1.67v3.08h-.92zM16.39 31.87c-1.38 0-2.8 1.1-2.8 3.04 0 1.76 1.25 3 2.8 3 1.27 0 1.84-.85 1.84-.85v.37c0 .18.17.38.38.38h.92v-8.7h-1.3v3.63s-.57-.87-1.84-.87zm.23 1.19c1.13 0 1.72 1 1.72 1.85 0 .94-.7 1.84-1.72 1.84-.85 0-1.7-.69-1.7-1.86 0-1.05.73-1.83 1.7-1.83zM21.33 37.8a.36.36 0 01-.37-.37v-5.42h1.3v.96a1.6 1.6 0 011.55-1.03c.24 0 .46.04.46.04v1.34s-.28-.1-.61-.1c-.91 0-1.4.85-1.4 1.66v2.92h-.93zM32.14 37.8a.36.36 0 01-.38-.37v-5.42h1.3v5.8h-.92zM36.86 31.87c-1.38 0-2.8 1.1-2.8 3.04 0 1.76 1.25 3 2.8 3 1.28 0 1.84-.85 1.84-.85v.37c0 .18.17.38.38.38H40v-8.7h-1.3v3.63s-.57-.87-1.84-.87zm.23 1.19c1.13 0 1.73 1 1.73 1.85 0 .94-.7 1.84-1.73 1.84-.85 0-1.7-.69-1.7-1.86 0-1.05.73-1.83 1.7-1.83zM32.4 30.76a.86.86 0 100-1.72.86.86 0 000 1.72zM27.69 31.87a2.98 2.98 0 00-3.02 3.03 2.95 2.95 0 003.02 3.02 3 3 0 003.06-3.01c0-1.66-1.3-3.04-3.06-3.04zm0 1.21c1 0 1.74.8 1.74 1.82 0 1.03-.78 1.83-1.73 1.83-.88 0-1.74-.72-1.74-1.81 0-1.12.82-1.84 1.73-1.84z" fill="#000"/><path d="M29.76 9.75l3.32-5.74a.67.67 0 00-.25-.92.66.66 0 00-.9.25l-3.37 5.81a20.49 20.49 0 00-8.55-1.82c-3.1 0-5.99.65-8.55 1.82L8.1 3.34a.67.67 0 00-.92-.25.67.67 0 00-.24.92l3.31 5.74A19.8 19.8 0 00.02 25.41H40A19.8 19.8 0 0029.76 9.75zM10.83 19.8a1.68 1.68 0 110-3.35 1.68 1.68 0 010 3.35zm18.35 0a1.68 1.68 0 110-3.35 1.68 1.68 0 010 3.35z" fill="#32DE84"/></svg>