<svg width="26" height="26" viewBox="0 0 26 26" fill="none" xmlns="http://www.w3.org/2000/svg">
<path d="M1.81329 20.7183C0.919279 20.7183 0 21.4347 0 22.6886C0 23.835 0.808261 24.6447 1.81329 24.6447C2.64289 24.6447 3.01263 24.0878 3.01263 24.0878V24.3306C3.01263 24.4453 3.1211 24.5733 3.25535 24.5733H3.85503V20.8039H3.01263V21.2822C3.01263 21.2822 2.63979 20.7183 1.81329 20.7183ZM1.96335 21.489C2.69931 21.489 3.08536 22.1363 3.08536 22.6883C3.08536 23.3032 2.627 23.8872 1.96491 23.8872C1.41145 23.8872 0.857032 23.439 0.857032 22.6802C0.857032 21.9953 1.33414 21.489 1.96335 21.489Z" fill="#D7DDE1"/>
<path d="M5.02593 24.5732C4.8965 24.5732 4.7832 24.4804 4.7832 24.3305V20.8039H5.62559V21.2703C5.81648 20.9834 6.18942 20.717 6.76184 20.717C7.69743 20.717 8.19562 21.4628 8.19562 22.1603V24.5732H7.61022C7.45673 24.5732 7.35322 24.4447 7.35322 24.3162V22.3459C7.35322 21.9593 7.11637 21.4898 6.5686 21.4898C5.97754 21.4898 5.62559 22.0484 5.62559 22.5743V24.5732H5.02593Z" fill="#D7DDE1"/>
<path d="M10.6512 20.7182C9.75717 20.7182 8.83789 21.4346 8.83789 22.6885C8.83789 23.8349 9.64615 24.6446 10.6512 24.6446C11.4808 24.6446 11.8505 24.0878 11.8505 24.0878V24.3305C11.8505 24.4452 11.959 24.5732 12.0932 24.5732H12.6929V18.9192H11.8505V21.2822C11.8505 21.2822 11.4777 20.7182 10.6512 20.7182ZM10.8012 21.489C11.5372 21.489 11.9232 22.1362 11.9232 22.6883C11.9232 23.3032 11.4649 23.8872 10.8028 23.8872C10.2493 23.8872 9.69493 23.4389 9.69493 22.6802C9.69493 21.9952 10.172 21.489 10.8012 21.489Z" fill="#D7DDE1"/>
<path d="M13.8638 24.5732C13.7344 24.5732 13.6211 24.4804 13.6211 24.3305V20.8038H14.4635V21.432C14.6085 21.0801 14.9214 20.761 15.4772 20.761C15.6322 20.761 15.7771 20.7895 15.7771 20.7895V21.6605C15.7771 21.6605 15.5961 21.5891 15.3773 21.5891C14.7862 21.5891 14.4635 22.1477 14.4635 22.6736V24.5732H13.8638Z" fill="#D7DDE1"/>
<path d="M20.8882 24.5733C20.7588 24.5733 20.6455 24.4805 20.6455 24.3306V20.804H21.4879V24.5733H20.8882Z" fill="#D7DDE1"/>
<path d="M23.9578 20.7182C23.0638 20.7182 22.1445 21.4346 22.1445 22.6885C22.1445 23.8349 22.9528 24.6446 23.9578 24.6446C24.7874 24.6446 25.1572 24.0878 25.1572 24.0878V24.3305C25.1572 24.4452 25.2656 24.5732 25.3999 24.5732H25.9996V18.9192H25.1572V21.2822C25.1572 21.2822 24.7843 20.7182 23.9578 20.7182ZM24.1079 21.489C24.8438 21.489 25.2299 22.1362 25.2299 22.6883C25.2299 23.3032 24.7715 23.8872 24.1094 23.8872C23.556 23.8872 23.0016 23.4389 23.0016 22.6802C23.0016 21.9952 23.4787 21.489 24.1079 21.489Z" fill="#D7DDE1"/>
<path d="M21.0601 19.9908C21.3678 19.9908 21.6173 19.7413 21.6173 19.4336C21.6173 19.1259 21.3678 18.8765 21.0601 18.8765C20.7524 18.8765 20.5029 19.1259 20.5029 19.4336C20.5029 19.7413 20.7524 19.9908 21.0601 19.9908Z" fill="#D7DDE1"/>
<path d="M17.9991 20.7168C17.0628 20.7168 16.0342 21.4157 16.0342 22.6817C16.0342 23.8354 16.9103 24.6446 17.997 24.6446C19.3363 24.6446 19.9903 23.568 19.9903 22.689C19.9903 21.6104 19.1482 20.7168 17.9991 20.7168ZM18.0021 21.5035C18.6496 21.5035 19.1326 22.0253 19.1326 22.6841C19.1326 23.3543 18.6199 23.8714 18.0041 23.8714C17.4324 23.8714 16.8767 23.4062 16.8767 22.6953C16.8767 21.9726 17.4053 21.5035 18.0021 21.5035Z" fill="#D7DDE1"/>
<path d="M19.3456 6.33989L21.5009 2.60627C21.6226 2.39696 21.549 2.13108 21.3425 2.00946C21.1361 1.88783 20.8674 1.95854 20.7486 2.16785L18.5649 5.94956C16.899 5.18869 15.0237 4.76442 13.0069 4.76442C10.9902 4.76442 9.11492 5.18869 7.44893 5.94956L5.26533 2.16785C5.1437 1.95854 4.87782 1.88783 4.66851 2.00946C4.4592 2.13108 4.38849 2.39696 4.51012 2.60627L6.66544 6.33989C2.94878 8.35379 0.431414 12.1157 0.015625 16.5197H25.9983C25.5825 12.1157 23.0651 8.35379 19.3456 6.33989ZM7.04163 12.8709C6.43915 12.8709 5.95265 12.3816 5.95265 11.7819C5.95265 11.1795 6.44198 10.693 7.04163 10.693C7.6441 10.693 8.1306 11.1823 8.1306 11.7819C8.13344 12.3816 7.6441 12.8709 7.04163 12.8709ZM18.9694 12.8709C18.367 12.8709 17.8804 12.3816 17.8804 11.7819C17.8804 11.1795 18.3698 10.693 18.9694 10.693C19.5719 10.693 20.0584 11.1823 20.0584 11.7819C20.0612 12.3816 19.5719 12.8709 18.9694 12.8709Z" fill="#32DE84"/>
</svg>
