<svg width="24" height="24" viewBox="0 0 24 24" fill="none" xmlns="http://www.w3.org/2000/svg">
<path d="M9.46536 0.91117C5.38336 1.78217 1.93837 5.17517 0.950366 9.29617C0.625366 10.6482 0.599366 12.8842 0.898366 14.3142C1.73037 18.3702 4.95436 21.7112 9.14036 22.8682C10.3494 23.2062 13.4044 23.2062 14.6654 22.8682C19.9694 21.4642 23.4794 16.6412 23.1414 11.2332C23.0374 9.66017 22.7644 8.59417 22.1274 7.21617C20.6194 3.96617 17.6944 1.61317 14.2104 0.88517C13.0404 0.63817 10.6744 0.65117 9.46536 0.91117ZM12.7024 5.39617C12.8844 5.69517 17.2264 16.0952 17.3954 16.6412C17.4994 16.9922 16.9664 17.5902 16.5504 17.5902C16.4074 17.5902 15.0164 16.5762 13.3264 15.2112C11.7014 13.8982 10.3104 12.7932 10.2194 12.7412C10.1284 12.6762 9.76436 13.4432 9.11436 15.0552L8.16536 17.4602H6.41036L6.61836 16.9792C6.72236 16.7062 7.84036 14.0152 9.10136 10.9862C10.3624 7.95717 11.4674 5.39617 11.5714 5.29217C11.8704 5.00617 12.4814 5.05817 12.7024 5.39617Z" fill="#96969C"/>
<path d="M11.3763 9.40026C10.9993 10.3363 10.7003 11.1423 10.7003 11.2073C10.7003 11.3373 14.7303 14.5223 14.8083 14.4443C14.8603 14.3793 12.2993 7.97026 12.1433 7.80126C12.0913 7.74926 11.7403 8.46426 11.3763 9.40026Z" fill="#96969C"/>
</svg>
