<svg width="26" height="26" viewBox="0 0 26 26" fill="none" xmlns="http://www.w3.org/2000/svg">
<g clip-path="url(#clip0)">
<path d="M23.3915 20.2621C22.9983 21.1705 22.5329 22.0066 21.9936 22.7754C21.2586 23.8234 20.6567 24.5488 20.1929 24.9516C19.4739 25.6128 18.7036 25.9515 17.8787 25.9707C17.2865 25.9707 16.5723 25.8022 15.741 25.4604C14.9069 25.1201 14.1404 24.9516 13.4396 24.9516C12.7045 24.9516 11.9162 25.1201 11.073 25.4604C10.2285 25.8022 9.54821 25.9804 9.02806 25.998C8.23701 26.0317 7.44853 25.6834 6.6615 24.9516C6.15917 24.5135 5.53086 23.7624 4.77816 22.6984C3.97059 21.5621 3.30665 20.2445 2.7865 18.7423C2.22945 17.1198 1.9502 15.5486 1.9502 14.0275C1.9502 12.285 2.3267 10.7822 3.08084 9.52286C3.67352 8.5113 4.462 7.71334 5.44885 7.12756C6.43569 6.54178 7.50198 6.24327 8.65027 6.22417C9.27859 6.22417 10.1025 6.41852 11.1265 6.80048C12.1475 7.18373 12.8031 7.37808 13.0905 7.37808C13.3054 7.37808 14.0337 7.15083 15.2683 6.69777C16.4359 6.27761 17.4213 6.10364 18.2286 6.17217C20.416 6.34871 22.0594 7.21101 23.1523 8.76455C21.196 9.94992 20.2282 11.6102 20.2475 13.74C20.2652 15.399 20.867 16.7795 22.0498 17.8757C22.5858 18.3844 23.1844 18.7776 23.8505 19.0569C23.706 19.4757 23.5536 19.877 23.3915 20.2621ZM18.3746 0.520392C18.3746 1.82069 17.8996 3.03477 16.9527 4.15851C15.81 5.49442 14.4279 6.26638 12.9291 6.14457C12.91 5.98857 12.8989 5.82439 12.8989 5.65186C12.8989 4.40358 13.4423 3.06767 14.4073 1.97538C14.8891 1.42234 15.5019 0.962491 16.2449 0.595661C16.9864 0.234304 17.6877 0.0344656 18.3473 0.000244141C18.3666 0.174073 18.3746 0.347914 18.3746 0.520375V0.520392Z" fill="#D7DDE1"/>
</g>
<defs>
<clipPath id="clip0">
<rect width="26" height="26" fill="white"/>
</clipPath>
</defs>
</svg>
