<svg width="49" height="15" viewBox="0 0 49 15" fill="none" xmlns="http://www.w3.org/2000/svg">
<path d="M11.0193 0.395284H14.3004V14.5631H11.0193V13.086C9.57486 14.7711 7.82084 15 6.80971 15C2.47626 15 0 11.3592 0 7.46879C0 2.85021 3.13659 0.0208044 6.85098 0.0208044C7.88275 0.0208044 9.69867 0.291262 11.0193 2.03883V0.395284ZM3.36358 7.55201C3.36358 9.98613 4.89061 12.0666 7.26369 12.0666C9.32723 12.0666 11.2463 10.5478 11.2463 7.59362C11.2463 4.49376 9.34787 3.01664 7.26369 3.01664C4.89061 2.99584 3.36358 5.03467 3.36358 7.55201ZM18.2005 0.395284H21.4815V1.66435C21.853 1.22746 22.3895 0.74896 22.8435 0.478502C23.4832 0.104022 24.1022 0 24.8451 0C25.6499 0 26.5166 0.124827 27.4245 0.665742L26.0832 3.66158C25.3404 3.18308 24.7419 3.16227 24.4118 3.16227C23.7102 3.16227 23.0086 3.2663 22.3689 3.93204C21.4609 4.90985 21.4609 6.26214 21.4609 7.19833V14.5631H18.1799L18.2005 0.395284ZM29.5294 0.395284H32.8104V1.70596C33.9041 0.353675 35.2041 0.0208044 36.2772 0.0208044C37.7423 0.0208044 39.1249 0.728155 39.909 2.10125C41.0852 0.416089 42.8392 0.0208044 44.0774 0.0208044C45.7901 0.0208044 47.2759 0.832177 48.0807 2.24688C48.3489 2.72538 48.8235 3.7656 48.8235 5.82524V14.5839H45.5425V6.80305C45.5425 5.22191 45.3774 4.57698 45.233 4.28571C45.0266 3.7448 44.5313 3.03745 43.3551 3.03745C42.5503 3.03745 41.8487 3.47434 41.4154 4.07767C40.8376 4.88904 40.7757 6.0957 40.7757 7.30236V14.6047H37.4947V6.80305C37.4947 5.22191 37.3296 4.57698 37.1851 4.28571C36.9788 3.7448 36.4835 3.03745 35.3073 3.03745C34.5025 3.03745 33.8009 3.47434 33.3676 4.07767C32.7898 4.88904 32.7279 6.0957 32.7279 7.30236V14.6047H29.5294V0.395284Z" fill="#0091BD"/>
</svg>
