<svg width="144" height="63" viewBox="0 0 144 63" fill="none" xmlns="http://www.w3.org/2000/svg">
<g clip-path="url(#clip0)">
<path d="M20.4201 54.2598C20.4561 55.7341 21.4015 56.3385 22.5113 56.3385C23.0901 56.3565 23.6661 56.2504 24.1991 56.0274L24.3866 56.8088C23.7449 57.0713 23.0543 57.1979 22.3597 57.1806C20.4843 57.1806 19.3643 55.9667 19.3643 54.146C19.3643 52.3252 20.4561 50.9268 22.2184 50.9268C24.2094 50.9268 24.736 52.6489 24.736 53.7515C24.7344 53.9206 24.7224 54.0895 24.7 54.2572L20.4201 54.2598ZM23.6673 53.4784C23.6673 52.7855 23.377 51.7082 22.1259 51.7082C21.0058 51.7082 20.5152 52.7197 20.4278 53.4784H23.6673Z" fill="#101113"/>
<path d="M31.1201 48.2617V55.5094C31.1201 56.043 31.1201 56.6499 31.1689 57.0596H30.1748L30.1259 56.0177H30.1003C29.9012 56.3864 29.6007 56.6926 29.2332 56.901C28.8656 57.1094 28.4458 57.2117 28.0219 57.1961C26.5499 57.1961 25.417 55.9696 25.417 54.1463C25.417 52.1536 26.663 50.9271 28.1478 50.9271C29.0804 50.9271 29.7098 51.3596 29.9872 51.8426H30.0103V48.2617H31.1201ZM30.0103 53.504C30.0126 53.3517 29.9962 53.1998 29.9615 53.0514C29.8827 52.6923 29.6809 52.3708 29.39 52.1406C29.0992 51.9104 28.7368 51.7856 28.3636 51.7869C27.2179 51.7869 26.5371 52.7782 26.5371 54.1034C26.5371 55.3172 27.1408 56.3211 28.3354 56.3211C28.7164 56.3194 29.0854 56.1892 29.3808 55.9522C29.6762 55.7153 29.8803 55.3858 29.959 55.0188C29.9957 54.8647 30.0121 54.7066 30.0078 54.5484L30.0103 53.504Z" fill="#101113"/>
<path d="M33.3225 54.2601C33.3481 55.7344 34.3038 56.3414 35.4136 56.3414C35.9917 56.3595 36.5668 56.2533 37.0989 56.0303L37.289 56.8117C36.6472 57.0739 35.9567 57.2005 35.262 57.1835C33.3867 57.1835 32.2666 55.9696 32.2666 54.1489C32.2666 52.3281 33.3481 50.917 35.1233 50.917C37.1117 50.917 37.6409 52.6391 37.6409 53.7417C37.6387 53.9109 37.6259 54.0798 37.6024 54.2475L33.3225 54.2601ZM36.5697 53.4787C36.5825 52.7858 36.2819 51.7085 35.0283 51.7085C33.9082 51.7085 33.4175 52.7201 33.3276 53.4787H36.5697Z" fill="#101113"/>
<path d="M38.7604 52.6851C38.7604 52.0655 38.7475 51.5572 38.709 51.0615H39.6929L39.7546 52.0529H39.7803C39.9802 51.7026 40.2734 51.4128 40.6283 51.2145C40.9832 51.0162 41.3864 50.917 41.7943 50.9275C42.637 50.9275 43.9471 51.4333 43.9471 53.4791V57.06H42.8399V53.603C42.8399 52.637 42.4725 51.8328 41.4295 51.8328C41.0059 51.8506 40.6059 52.03 40.3143 52.333C40.0228 52.6361 39.8625 53.039 39.8676 53.4564V57.0625H38.7604V52.6851Z" fill="#101113"/>
<path d="M46.7779 49.3389V51.061H48.3655V51.893H46.7779V55.1249C46.7779 55.8683 46.9937 56.2907 47.6103 56.2907C47.8266 56.2929 48.0424 56.2683 48.2525 56.2173L48.3013 57.0341C47.9863 57.1428 47.6536 57.1934 47.32 57.1833C47.0991 57.1959 46.8782 57.1615 46.672 57.0825C46.4659 57.0035 46.2795 56.8818 46.1254 56.7256C45.8094 56.4019 45.6964 55.8683 45.6964 55.1628V51.893H44.751V51.061H45.6964V49.6246L46.7779 49.3389Z" fill="#101113"/>
<path d="M50.5937 49.377C50.5937 49.5561 50.5215 49.7278 50.3928 49.8544C50.2642 49.981 50.0898 50.0522 49.9078 50.0522C49.7259 50.0522 49.5515 49.981 49.4228 49.8544C49.2942 49.7278 49.2219 49.5561 49.2219 49.377C49.2194 49.287 49.2356 49.1974 49.2695 49.1138C49.3033 49.0302 49.3541 48.9542 49.4188 48.8905C49.4835 48.8269 49.5607 48.7769 49.6456 48.7435C49.7306 48.7102 49.8216 48.6943 49.913 48.6967C50.0042 48.6934 50.095 48.7089 50.1798 48.742C50.2646 48.7752 50.3414 48.8254 50.4055 48.8893C50.4695 48.9533 50.5193 49.0297 50.5517 49.1137C50.5841 49.1976 50.5984 49.2873 50.5937 49.377ZM49.3606 57.0596V51.0612H50.4679V57.0596H49.3606Z" fill="#101113"/>
<path d="M53.3883 49.3389V51.061H54.9733V51.893H53.3883V55.1249C53.3883 55.8683 53.6015 56.2907 54.218 56.2907C54.4344 56.2931 54.6502 56.2685 54.8603 56.2173L54.9117 57.0341C54.5957 57.1425 54.2622 57.1931 53.9277 57.1833C53.7069 57.1959 53.4859 57.1615 53.2798 57.0825C53.0737 57.0035 52.8873 56.8818 52.7332 56.7256C52.4172 56.4019 52.3041 55.8683 52.3041 55.1628V51.893H51.3613V51.061H52.3119V49.6246L53.3883 49.3389Z" fill="#101113"/>
<path d="M56.4838 51.0607L57.8171 54.6011C57.9558 54.9956 58.1074 55.4685 58.2076 55.8276H58.2333C58.3463 55.4685 58.4722 55.0082 58.6238 54.5758L59.8312 51.0557H61.0026L59.3405 55.3269C58.5493 57.3828 58.0072 58.4374 57.2519 59.0797C56.8691 59.4279 56.4007 59.6719 55.8929 59.7878L55.6155 58.8698C55.9703 58.7551 56.2992 58.5739 56.584 58.3362C56.987 58.009 57.3064 57.5932 57.5165 57.1224C57.5598 57.0435 57.5893 56.958 57.6039 56.8695C57.5934 56.772 57.5683 56.6765 57.5294 56.5862L55.2764 51.0582L56.4838 51.0607Z" fill="#101113"/>
<path d="M69.4363 48.2617V55.5094C69.4363 56.043 69.4363 56.6499 69.4876 57.0596H68.496L68.4472 56.0177H68.4215C68.2234 56.3866 67.9235 56.693 67.5562 56.9015C67.189 57.11 66.7694 57.2121 66.3458 57.1961C64.8712 57.1961 63.7383 55.9696 63.7383 54.1463C63.7383 52.1536 64.9842 50.9271 66.4717 50.9271C67.4016 50.9271 68.031 51.3596 68.3085 51.8426H68.3342V48.2617H69.4363ZM68.329 53.504C68.331 53.3491 68.3138 53.1945 68.2777 53.0438C68.1988 52.6847 67.997 52.3632 67.7062 52.133C67.4153 51.9028 67.053 51.778 66.6798 51.7793C65.534 51.7793 64.8532 52.7706 64.8532 54.0958C64.8532 55.3096 65.4595 56.3136 66.6515 56.3136C67.0327 56.3123 67.4019 56.1823 67.6974 55.9452C67.9929 55.7082 68.1969 55.3785 68.2751 55.0112C68.3127 54.8572 68.33 54.6991 68.3265 54.5408L68.329 53.504Z" fill="#101113"/>
<path d="M72.2578 49.377C72.2578 49.5561 72.1856 49.7278 72.0569 49.8544C71.9283 49.981 71.7538 50.0522 71.5719 50.0522C71.39 50.0522 71.2155 49.981 71.0869 49.8544C70.9583 49.7278 70.886 49.5561 70.886 49.377C70.8835 49.287 70.8997 49.1974 70.9335 49.1138C70.9674 49.0302 71.0182 48.9542 71.0829 48.8905C71.1476 48.8269 71.2247 48.7769 71.3097 48.7435C71.3947 48.7102 71.4856 48.6943 71.577 48.6967C71.6682 48.6934 71.7591 48.7089 71.8439 48.742C71.9287 48.7752 72.0055 48.8254 72.0696 48.8893C72.1336 48.9533 72.1834 49.0297 72.2158 49.1137C72.2482 49.1976 72.2625 49.2873 72.2578 49.377ZM71.0221 57.0596V51.0612H72.1319V57.0596H71.0221Z" fill="#101113"/>
<path d="M78.9655 51.061C78.9399 51.4959 78.9167 51.9789 78.9167 52.7098V56.192C78.9167 57.5677 78.6393 58.4098 78.0484 58.9307C77.4575 59.4517 76.5995 59.6489 75.8314 59.6489C75.1218 59.6629 74.4216 59.4882 73.8045 59.1431L74.0819 58.3137C74.6261 58.6301 75.2482 58.7929 75.8802 58.784C77.0131 58.784 77.8429 58.2024 77.8429 56.6902V56.02H77.8172C77.6146 56.3427 77.3284 56.6065 76.988 56.7842C76.6476 56.962 76.2652 57.0474 75.8802 57.0316C74.3696 57.0316 73.2881 55.7671 73.2881 54.1082C73.2881 52.0851 74.6342 50.9244 76.0318 50.9244C76.4162 50.902 76.7992 50.9878 77.1359 51.1719C77.4725 51.3559 77.749 51.6306 77.9328 51.9638H77.9559L78.0073 51.0584L78.9655 51.061ZM77.8198 53.428C77.8267 53.2572 77.8059 53.0865 77.7581 52.9222C77.6651 52.5905 77.4638 52.2981 77.1852 52.0901C76.9066 51.8822 76.5663 51.7703 76.2167 51.7716C75.1609 51.7716 74.4184 52.6491 74.4184 54.0475C74.4184 55.226 75.0221 56.2046 76.2167 56.2046C76.5606 56.2037 76.8953 56.0952 77.1724 55.8947C77.4494 55.6942 77.6546 55.4122 77.7581 55.0894C77.8183 54.9013 77.8478 54.705 77.8455 54.5078L77.8198 53.428Z" fill="#101113"/>
<path d="M81.6601 49.377C81.6601 49.5561 81.5879 49.7278 81.4592 49.8544C81.3306 49.981 81.1562 50.0522 80.9742 50.0522C80.7923 50.0522 80.6179 49.981 80.4892 49.8544C80.3606 49.7278 80.2883 49.5561 80.2883 49.377C80.2859 49.287 80.302 49.1974 80.3359 49.1138C80.3697 49.0302 80.4206 48.9542 80.4852 48.8905C80.5499 48.8269 80.6271 48.7769 80.712 48.7435C80.797 48.7102 80.888 48.6943 80.9794 48.6967C81.0705 48.6934 81.1614 48.7089 81.2462 48.742C81.331 48.7752 81.4078 48.8254 81.4719 48.8893C81.5359 48.9533 81.5857 49.0297 81.6181 49.1137C81.6505 49.1976 81.6648 49.2873 81.6601 49.377ZM80.4271 57.0596V51.0612H81.5343V57.0596H80.4271Z" fill="#101113"/>
<path d="M84.4547 49.3389V51.061H86.0397V51.893H84.4547V55.1249C84.4547 55.8683 84.6679 56.2907 85.2844 56.2907C85.5008 56.2931 85.7166 56.2685 85.9267 56.2173L85.9781 57.0341C85.6621 57.1425 85.3286 57.1931 84.9941 57.1833C84.7733 57.1959 84.5523 57.1615 84.3462 57.0825C84.1401 57.0035 83.9537 56.8818 83.7996 56.7256C83.4836 56.4019 83.3705 55.8683 83.3705 55.1628V51.893H82.4277V51.061H83.3705V49.6246L84.4547 49.3389Z" fill="#101113"/>
<path d="M90.4075 57.0592L90.3202 56.3005H90.2817C90.0655 56.5842 89.7839 56.8131 89.46 56.9684C89.1361 57.1236 88.7793 57.2007 88.4192 57.1932C87.186 57.1932 86.5566 56.3384 86.5566 55.471C86.5566 54.0195 87.8668 53.228 90.22 53.2406V53.1167C90.22 52.6109 90.0813 51.7284 88.8353 51.7284C88.2747 51.7307 87.7255 51.8847 87.2477 52.1734L86.9908 51.4552C87.5948 51.0986 88.2878 50.9147 88.992 50.9242C90.8545 50.9242 91.3041 52.1734 91.3041 53.3772V55.6177C91.2964 56.0993 91.3299 56.5806 91.4043 57.0566L90.4075 57.0592ZM90.2457 53.9993C89.0357 53.974 87.6639 54.1839 87.6639 55.3497C87.6524 55.4881 87.6715 55.6274 87.7198 55.758C87.7682 55.8885 87.8446 56.0072 87.9439 56.1059C88.0433 56.2047 88.1631 56.2811 88.2952 56.3299C88.4274 56.3788 88.5687 56.399 88.7094 56.389C89.0324 56.3972 89.3494 56.3034 89.6143 56.1214C89.8792 55.9393 90.0779 55.6787 90.1815 55.3775C90.2214 55.2661 90.2431 55.1491 90.2457 55.031V53.9993Z" fill="#101113"/>
<path d="M92.8506 48.2617H93.9578V57.0596H92.8506V48.2617Z" fill="#101113"/>
<path d="M97.8343 55.9441C98.274 56.2134 98.7785 56.3626 99.2961 56.3766C100.1 56.3766 100.478 55.9821 100.478 55.4864C100.478 54.9908 100.164 54.6797 99.3449 54.3838C98.2505 53.9995 97.7342 53.4026 97.7342 52.6845C97.7342 51.7184 98.528 50.9143 99.8356 50.9143C100.359 50.9083 100.875 51.0364 101.333 51.286L101.058 52.0775C100.684 51.8507 100.252 51.7308 99.8125 51.7311C99.1574 51.7311 98.7849 52.1028 98.7849 52.5479C98.7849 53.0537 99.1497 53.2686 99.9409 53.5594C100.999 53.9565 101.541 54.4774 101.541 55.3676C101.541 56.4221 100.709 57.1656 99.2627 57.1656C98.6661 57.1764 98.0767 57.0353 97.5518 56.7559L97.8343 55.9441Z" fill="#101113"/>
<path d="M108.233 54.0119C108.233 56.2297 106.671 57.1958 105.199 57.1958C103.55 57.1958 102.278 56.0047 102.278 54.1106C102.278 52.1027 103.612 50.9268 105.299 50.9268C107.049 50.9268 108.233 52.176 108.233 54.0119ZM103.398 54.0726C103.398 55.3851 104.169 56.3764 105.248 56.3764C106.327 56.3764 107.1 55.3978 107.1 54.0474C107.1 53.0358 106.587 51.7436 105.274 51.7436C103.961 51.7436 103.398 52.9321 103.398 54.0625V54.0726Z" fill="#101113"/>
<path d="M109.38 48.2617H110.487V57.0596H109.38V48.2617Z" fill="#101113"/>
<path d="M117.194 55.4238C117.194 56.0434 117.207 56.5896 117.245 57.06H116.264L116.2 56.0813H116.174C115.969 56.4263 115.674 56.7115 115.321 56.9075C114.967 57.1034 114.566 57.2032 114.16 57.1965C113.204 57.1965 112.059 56.6756 112.059 54.569V51.0615H113.166V54.3844C113.166 55.5224 113.52 56.2912 114.527 56.2912C114.843 56.2856 115.149 56.1885 115.409 56.0122C115.668 55.8359 115.869 55.5881 115.987 55.2999C116.053 55.1216 116.087 54.9333 116.087 54.7435V51.0615H117.194V55.4238Z" fill="#101113"/>
<path d="M120.115 49.3389V51.061H121.7V51.893H120.115V55.1249C120.115 55.8683 120.329 56.2907 120.945 56.2907C121.161 56.2931 121.377 56.2685 121.587 56.2173L121.639 57.0341C121.324 57.1426 120.991 57.1932 120.657 57.1833C120.436 57.1963 120.215 57.1621 120.008 57.0831C119.801 57.0041 119.615 56.8822 119.46 56.7256C119.147 56.4019 119.034 55.8683 119.034 55.1628V51.893H118.078V51.061H119.024V49.6246L120.115 49.3389Z" fill="#101113"/>
<path d="M123.93 49.377C123.93 49.5561 123.857 49.7278 123.729 49.8544C123.6 49.981 123.426 50.0522 123.244 50.0522C123.062 50.0522 122.887 49.981 122.759 49.8544C122.63 49.7278 122.558 49.5561 122.558 49.377C122.555 49.287 122.572 49.1974 122.605 49.1138C122.639 49.0302 122.69 48.9542 122.755 48.8905C122.819 48.8269 122.897 48.7769 122.982 48.7435C123.067 48.7102 123.158 48.6943 123.249 48.6967C123.34 48.6934 123.431 48.7089 123.516 48.742C123.601 48.7752 123.677 48.8254 123.741 48.8893C123.805 48.9533 123.855 49.0297 123.888 49.1137C123.92 49.1976 123.934 49.2873 123.93 49.377ZM122.702 57.0596V51.0612H123.809V57.0596H122.702Z" fill="#101113"/>
<path d="M130.903 54.0119C130.903 56.2297 129.343 57.1958 127.869 57.1958C126.222 57.1958 124.95 56.0047 124.95 54.1106C124.95 52.1027 126.284 50.9268 127.971 50.9268C129.721 50.9268 130.903 52.176 130.903 54.0119ZM126.07 54.0726C126.07 55.3851 126.841 56.3764 127.92 56.3764C128.999 56.3764 129.77 55.3978 129.77 54.0474C129.77 53.0358 129.256 51.7436 127.946 51.7436C126.635 51.7436 126.07 52.9321 126.07 54.0625V54.0726Z" fill="#101113"/>
<path d="M132.048 52.6851C132.048 52.0655 132.035 51.5572 131.999 51.0615H132.978L133.039 52.0529H133.065C133.265 51.7026 133.558 51.4128 133.913 51.2145C134.268 51.0162 134.671 50.917 135.079 50.9275C135.922 50.9275 137.232 51.4333 137.232 53.4791V57.06H136.125V53.603C136.125 52.637 135.76 51.8328 134.714 51.8328C134.291 51.8506 133.891 52.03 133.599 52.333C133.308 52.6361 133.147 53.039 133.152 53.4564V57.0625H132.045L132.048 52.6851Z" fill="#101113"/>
<path d="M138.63 55.9441C139.069 56.2134 139.572 56.3627 140.089 56.3766C140.896 56.3766 141.273 55.9821 141.273 55.4864C141.273 54.9908 140.957 54.6797 140.14 54.3838C139.046 53.9995 138.53 53.4026 138.53 52.6845C138.53 51.7184 139.321 50.9143 140.631 50.9143C141.155 50.9083 141.671 51.0364 142.129 51.286L141.851 52.0775C141.477 51.85 141.045 51.73 140.605 51.7311C139.95 51.7311 139.578 52.1028 139.578 52.5479C139.578 53.0537 139.943 53.2686 140.736 53.5594C141.795 53.9565 142.334 54.4774 142.334 55.3676C142.334 56.4221 141.505 57.1656 140.058 57.1656C139.461 57.176 138.871 57.0349 138.345 56.7559L138.63 55.9441Z" fill="#101113"/>
<path fill-rule="evenodd" clip-rule="evenodd" d="M45.0752 7.74724C43.67 7.58287 42.6758 6.73571 42.8171 5.93659C42.9584 5.13748 44.1247 4.69999 45.4554 4.85678C46.7862 5.01356 47.8086 5.7798 47.729 6.5511C47.6725 7.38309 46.4779 7.93185 45.0752 7.74724Z" fill="#00ABC7"/>
<path fill-rule="evenodd" clip-rule="evenodd" d="M32.9546 27.5477C32.5917 27.5235 32.2379 27.4249 31.9159 27.2584C31.5938 27.0919 31.3106 26.8611 31.0843 26.5808C30.858 26.3004 30.6936 25.9767 30.6016 25.6302C30.5096 25.2838 30.4921 24.9223 30.5501 24.5687C30.807 23.0944 32.2739 22.0399 33.8332 22.1689C35.3926 22.2978 36.5024 23.6154 36.284 25.0947C36.1462 25.8438 35.7249 26.5136 35.1051 26.9688C34.4853 27.4241 33.7131 27.631 32.9444 27.5477H32.9546Z" fill="#00ABC7"/>
<path fill-rule="evenodd" clip-rule="evenodd" d="M34.5679 17.9231C33.0651 17.8068 32.0221 16.6587 32.297 15.4094C32.5718 14.1602 33.9719 13.2726 35.4697 13.356C36.9674 13.4395 38.0001 14.542 37.7663 15.7938C37.5326 17.0456 36.1196 18.047 34.5679 17.9231Z" fill="#00ABC7"/>
<path fill-rule="evenodd" clip-rule="evenodd" d="M36.1994 9.93489C34.7557 9.86662 33.8051 8.98152 34.0723 8.03826C34.3395 7.095 35.6548 6.4375 37.0112 6.48808C38.3677 6.53866 39.3567 7.34789 39.182 8.28356C38.9534 9.27234 37.6227 10.0234 36.1994 9.93489Z" fill="#00ABC7"/>
<path fill-rule="evenodd" clip-rule="evenodd" d="M37.6688 4.10562C36.3843 4.07275 35.5494 3.50123 35.7806 2.92465C36.0118 2.34808 37.1833 1.96875 38.4061 1.96875C39.6675 2.00415 40.5589 2.47452 40.3586 3.03845C40.207 3.66308 38.9816 4.1562 37.6688 4.1031V4.10562Z" fill="#00ABC7"/>
<path fill-rule="evenodd" clip-rule="evenodd" d="M21.7924 42.0816C20.3204 41.8768 19.2953 40.4606 19.4957 38.9003C19.6961 37.34 21.0525 36.2121 22.5297 36.3714C24.0069 36.5308 25.0987 37.9747 24.8906 39.5578C24.6825 41.1409 23.2927 42.2839 21.7924 42.0866V42.0816Z" fill="#00ABC7"/>
<path fill-rule="evenodd" clip-rule="evenodd" d="M23.1743 31.8398C21.6972 31.7158 20.7364 30.368 21.0035 28.8785C21.2707 27.389 22.6503 26.294 24.0992 26.3951C25.5481 26.4963 26.5962 27.8062 26.3419 29.3261C26.0876 30.8459 24.6721 31.9839 23.1743 31.8398Z" fill="#00ABC7"/>
<path fill-rule="evenodd" clip-rule="evenodd" d="M24.9757 21.9767C23.5345 21.9211 22.6482 20.7527 22.9642 19.4479C23.2802 18.143 24.6726 17.1188 26.0855 17.134C27.4985 17.1491 28.4516 18.2745 28.1407 19.6198C27.8299 20.9652 26.4375 22.05 24.9629 21.9868L24.9757 21.9767Z" fill="#00ABC7"/>
<path fill-rule="evenodd" clip-rule="evenodd" d="M27.0464 13.399C25.6874 13.399 24.8756 12.4987 25.2147 11.4492C25.5538 10.3998 26.8897 9.57283 28.2358 9.5172C29.582 9.46156 30.4066 10.3239 30.1292 11.3835C29.8363 12.4911 28.4362 13.4066 27.0464 13.4066V13.399Z" fill="#00ABC7"/>
<path fill-rule="evenodd" clip-rule="evenodd" d="M29.2195 6.73046C27.9736 6.79621 27.2594 6.19688 27.6267 5.46604C27.9941 4.7352 29.1913 4.16874 30.409 4.06253C31.6267 3.95632 32.4102 4.47979 32.0968 5.2081C31.8142 5.98445 30.5271 6.67483 29.2195 6.7254V6.73046Z" fill="#00ABC7"/>
<path fill-rule="evenodd" clip-rule="evenodd" d="M13.1759 46.223C11.935 46.0157 11.0436 44.6324 11.1798 43.153C11.3159 41.6736 12.4463 40.6115 13.7051 40.8037C15.005 40.9833 15.9478 42.3716 15.7885 43.9117C15.6292 45.4517 14.4629 46.4759 13.1759 46.223Z" fill="#00ABC7"/>
<path fill-rule="evenodd" clip-rule="evenodd" d="M14.3039 36.1843C13.04 36.0478 12.2231 34.7353 12.4697 33.266C12.7163 31.7968 13.9212 30.7069 15.18 30.7928C16.485 30.8814 17.3662 32.1609 17.1144 33.6783C16.8627 35.1956 15.6116 36.3158 14.3039 36.1843Z" fill="#00ABC7"/>
<path fill-rule="evenodd" clip-rule="evenodd" d="M16.0579 26.3643C14.7965 26.339 14.0721 25.1783 14.3983 23.8355C14.7246 22.4926 15.9706 21.4583 17.2037 21.4406C18.4368 21.4229 19.2743 22.5356 18.9583 23.9164C18.6423 25.2971 17.3552 26.4048 16.0579 26.3668V26.3643Z" fill="#00ABC7"/>
<path fill-rule="evenodd" clip-rule="evenodd" d="M18.2731 17.5592C17.0811 17.6047 16.444 16.6893 16.8422 15.5665C17.074 14.9928 17.4563 14.4899 17.95 14.1092C18.4438 13.7284 19.0313 13.4835 19.6526 13.3992C20.8729 13.2956 21.5742 14.1402 21.194 15.2984C20.8138 16.4566 19.5242 17.501 18.2654 17.5592H18.2731Z" fill="#00ABC7"/>
<path fill-rule="evenodd" clip-rule="evenodd" d="M20.9033 10.2941C19.7524 10.4535 19.1975 9.84148 19.647 9.00949C20.0966 8.1775 21.3169 7.40873 22.3882 7.22412C23.5288 7.03952 24.1299 7.57057 23.7369 8.41774C23.3515 9.31295 22.0799 10.1576 20.911 10.2941H20.9033Z" fill="#00ABC7"/>
<path fill-rule="evenodd" clip-rule="evenodd" d="M6.4375 49.5562C5.48698 49.2654 4.75995 47.9655 4.80363 46.6202C4.8473 45.2748 5.66681 44.3569 6.63531 44.5592C7.66291 44.7716 8.4336 46.1094 8.36424 47.5129C8.29488 48.9164 7.42913 49.8166 6.4375 49.5562Z" fill="#00ABC7"/>
<path fill-rule="evenodd" clip-rule="evenodd" d="M7.00571 40.2375C6.02436 40.0858 5.37954 38.834 5.55937 37.4558C5.7392 36.0775 6.67945 35.0306 7.67365 35.0989C8.70124 35.2152 9.42313 36.4467 9.21504 37.8806C9.00695 39.3145 8.02817 40.369 6.99544 40.2223L7.00571 40.2375Z" fill="#00ABC7"/>
<path fill-rule="evenodd" clip-rule="evenodd" d="M8.42312 30.8232C7.42636 30.8055 6.88173 29.6802 7.18744 28.3627C7.49315 27.0452 8.51304 26.0033 9.49953 25.9577C10.5271 25.9249 11.1488 27.0274 10.8457 28.393C10.5425 29.7586 9.45843 30.8713 8.42056 30.8232H8.42312Z" fill="#00ABC7"/>
<path fill-rule="evenodd" clip-rule="evenodd" d="M10.5662 22.0626C9.61049 22.1259 9.17633 21.2155 9.56682 20.0876C9.9573 18.9598 11.0234 17.9684 11.9688 17.8117C12.9784 17.6599 13.5102 18.4995 13.1094 19.6982C12.7087 20.8968 11.5886 21.9741 10.5662 22.05V22.0626Z" fill="#00ABC7"/>
<path fill-rule="evenodd" clip-rule="evenodd" d="M13.2939 14.5623C12.3793 14.752 12.0248 14.1425 12.5 13.2498C13.053 12.3023 13.9283 11.5777 14.9714 11.204C15.9399 10.9511 16.333 11.5024 15.8911 12.4305C15.4569 13.399 14.2906 14.36 13.2939 14.5623Z" fill="#00ABC7"/>
<path fill-rule="evenodd" clip-rule="evenodd" d="M1.90075 52.0652C1.2919 51.7314 0.752417 50.5581 0.675348 49.3746C0.598278 48.1911 1.06326 47.3869 1.70294 47.6524C2.38629 47.9053 2.98743 49.1343 3.02597 50.4013C3.0645 51.6682 2.56355 52.3738 1.90846 52.0652H1.90075Z" fill="#00ABC7"/>
<path fill-rule="evenodd" clip-rule="evenodd" d="M1.75483 43.75C1.10745 43.5477 0.657876 42.387 0.745222 41.1352C0.832567 39.8834 1.44655 38.9503 2.10422 39.0413C2.82353 39.1677 3.34247 40.3436 3.22686 41.6991C3.11126 43.0546 2.47415 43.9472 1.75483 43.75Z" fill="#00ABC7"/>
<path fill-rule="evenodd" clip-rule="evenodd" d="M2.62217 35.0557C1.9491 35.0127 1.59458 33.9581 1.85148 32.7266C2.10838 31.495 2.83283 30.4506 3.4982 30.4506C4.23807 30.4051 4.65167 31.4622 4.40248 32.7696C4.15329 34.077 3.37489 35.1164 2.63502 35.0455L2.62217 35.0557Z" fill="#00ABC7"/>
<path fill-rule="evenodd" clip-rule="evenodd" d="M4.4285 26.6553C3.75285 26.7514 3.5088 25.8966 3.8813 24.7713C4.25381 23.6459 5.09643 22.6066 5.76694 22.4321C6.43744 22.2576 6.79453 23.0997 6.42974 24.2883C6.06494 25.4768 5.16836 26.5642 4.4285 26.6553Z" fill="#00ABC7"/>
<path fill-rule="evenodd" clip-rule="evenodd" d="M13.2192 54.9096C12.0144 54.8085 11.0459 53.5314 11.0587 52.0748C11.0716 50.6182 12.0632 49.4929 13.2835 49.5788C14.5037 49.6648 15.5596 50.9267 15.5313 52.4415C15.5031 53.9563 14.4703 55.0437 13.2192 54.9096Z" fill="#00ABC7"/>
<path fill-rule="evenodd" clip-rule="evenodd" d="M44.0916 15.0706C42.4808 14.8784 41.3428 13.6924 41.5226 12.4735C41.7024 11.2546 43.0948 10.4504 44.6722 10.6426C46.2495 10.8348 47.3722 11.9627 47.2411 13.1715C47.1101 14.3802 45.6997 15.2653 44.0941 15.0656L44.0916 15.0706Z" fill="#00ABC7"/>
<path fill-rule="evenodd" clip-rule="evenodd" d="M7.46481 57.5249C6.53998 57.4111 5.65111 56.3389 5.461 55.0922C5.2709 53.8455 5.86947 52.8668 6.79431 52.8921C7.77052 52.9199 8.72362 54.0199 8.8906 55.3248C9.05758 56.6297 8.42048 57.6008 7.46481 57.5249Z" fill="#00ABC7"/>
<path fill-rule="evenodd" clip-rule="evenodd" d="M52.5995 12.1957C51.1891 12.0263 50.1898 10.9894 50.3414 9.91973C50.4929 8.85003 51.7183 8.14954 53.103 8.31391C54.4877 8.47829 55.469 9.47212 55.3612 10.5342C55.2533 11.5964 53.997 12.3702 52.5995 12.1957Z" fill="#00ABC7"/>
<path fill-rule="evenodd" clip-rule="evenodd" d="M53.4115 6.14129C52.0757 5.9845 51.1226 5.2385 51.2485 4.54812C51.3743 3.85775 52.479 3.48601 53.7481 3.63521C55.0172 3.78441 55.9908 4.45708 55.924 5.12723C55.8778 5.85048 54.7474 6.31578 53.4115 6.13876V6.14129Z" fill="#00ABC7"/>
<path fill-rule="evenodd" clip-rule="evenodd" d="M46.3825 3.52399C45.0441 3.36973 44.0704 2.87661 44.1578 2.4644C44.2451 2.0522 45.3344 1.87265 46.6035 2.01933C47.8725 2.166 48.8744 2.61361 48.8359 3.03087C48.7974 3.44812 47.7184 3.69848 46.3825 3.53663V3.52399Z" fill="#00ABC7"/>
<path fill-rule="evenodd" clip-rule="evenodd" d="M59.8573 9.30242C58.5728 8.92562 57.7558 8.038 57.9973 7.37291C58.2388 6.70783 59.3923 6.52828 60.6177 6.88485C61.8431 7.24141 62.6883 8.07087 62.5085 8.72079C62.3389 9.42381 61.1443 9.69439 59.8573 9.30242Z" fill="#00ABC7"/>
<path fill-rule="evenodd" clip-rule="evenodd" d="M65.4141 12.8103C64.3223 12.4183 63.6621 11.6268 63.8984 11.1033C64.1348 10.5798 65.129 10.5014 66.1643 10.8732C67.1996 11.2449 67.8932 11.9833 67.7057 12.5068C67.531 13.0733 66.4957 13.2174 65.409 12.8103H65.4141Z" fill="#00ABC7"/>
<path d="M100.079 45.8369H74.3483V42.9363H100.079C100.681 42.94 101.277 42.8221 101.831 42.5899C102.916 42.133 103.779 41.2826 104.244 40.2153C104.479 39.67 104.597 39.083 104.593 38.4906C104.596 37.8926 104.478 37.3 104.244 36.7482C104.02 36.2141 103.697 35.726 103.29 35.3093C102.881 34.898 102.39 34.5728 101.849 34.3534C101.289 34.1224 100.687 34.0045 100.079 34.007H80.3443C79.3546 34.0111 78.3745 33.8158 77.4645 33.4329C76.5738 33.0611 75.7617 32.5285 75.0702 31.8625C74.3662 31.1816 73.8082 30.3686 73.4292 29.4716C73.0501 28.5746 72.8577 27.6119 72.8634 26.6404C72.8577 24.6756 73.6417 22.7884 75.0445 21.3906C75.7296 20.7212 76.5344 20.182 77.4182 19.7999C78.3389 19.4031 79.3341 19.2015 80.3391 19.2082H106.073V22.1189H80.3443C79.7334 22.1107 79.1282 22.235 78.5717 22.483C78.0506 22.7177 77.5764 23.0423 77.1716 23.4415C76.7651 23.8427 76.4415 24.3175 76.2185 24.8399C75.9818 25.3863 75.8494 25.971 75.828 26.5646C75.8973 27.7672 76.3938 28.9075 77.2307 29.7863C77.6261 30.2084 78.1082 30.5429 78.6451 30.7674C79.1819 30.992 79.7611 31.1015 80.3443 31.0887H100.079C101.082 31.081 102.075 31.2764 102.998 31.6627C104.788 32.4053 106.214 33.8074 106.969 35.5698C107.354 36.4806 107.552 37.4573 107.552 38.4438C107.552 39.4303 107.354 40.407 106.969 41.3179C106.591 42.1949 106.049 42.9943 105.371 43.6747C104.681 44.366 103.858 44.9139 102.948 45.2857C102.039 45.6576 101.064 45.8459 100.079 45.8394V45.8369Z" fill="#101113"/>
<path d="M108.254 27.3302C108.247 26.2364 108.493 25.1553 108.973 24.1692C109.439 23.2069 110.088 22.3415 110.885 21.6201C112.537 20.1326 114.698 19.3119 116.937 19.3214H135.154C136.269 19.3159 137.374 19.5309 138.404 19.9536C139.407 20.3616 140.324 20.9518 141.106 21.6934C141.886 22.4354 142.52 23.3124 142.976 24.2805C143.437 25.2793 143.675 26.3636 143.675 27.4605C143.675 28.5574 143.437 29.6416 142.976 30.6405C142.518 31.612 141.869 32.4851 141.068 33.2098C140.257 33.9406 139.321 34.5237 138.303 34.932C137.254 35.3562 136.129 35.5711 134.995 35.5642H111.214V39.2057C111.293 39.8146 111.527 40.3939 111.894 40.8899C112.247 41.354 112.69 41.745 113.197 42.0405C113.74 42.3567 114.332 42.5831 114.949 42.7107C115.601 42.8526 116.267 42.9238 116.935 42.9231H141.612V45.8338H116.739C115.729 45.8296 114.725 45.6745 113.762 45.3736C112.795 45.0843 111.882 44.6446 111.057 44.0712C110.261 43.5189 109.586 42.8155 109.071 42.0026C108.545 41.161 108.262 40.1939 108.254 39.2057V27.3302ZM116.935 22.2346C116.294 22.2481 115.661 22.3775 115.067 22.6165C114.392 22.8712 113.761 23.2269 113.197 23.671C112.628 24.1176 112.146 24.6627 111.776 25.2793C111.403 25.8999 111.208 26.609 111.214 27.3302V32.656H135.151C135.872 32.6574 136.585 32.5208 137.253 32.2539C137.917 31.995 138.526 31.6178 139.051 31.1412C139.565 30.6758 139.982 30.1167 140.279 29.4949C140.581 28.8523 140.733 28.1518 140.726 27.444C140.731 26.7285 140.572 26.0212 140.258 25.3754C139.953 24.7434 139.521 24.179 138.987 23.7165C138.444 23.2528 137.824 22.8842 137.155 22.6266C136.468 22.3584 135.734 22.2219 134.995 22.2245L116.935 22.2346Z" fill="#101113"/>
<path d="M72.1551 37.8127C72.1617 38.9067 71.9148 39.9878 71.4332 40.9738C70.9696 41.9365 70.3215 42.8021 69.5245 43.5229C67.872 45.0104 65.7112 45.8311 63.4719 45.8216H45.2553C44.1399 45.827 43.0349 45.612 42.0055 45.1894C41.0007 44.7785 40.0832 44.1857 39.3003 43.4419C38.5221 42.6994 37.8891 41.8226 37.4327 40.8549C36.9706 39.8565 36.7314 38.7721 36.7314 37.6749C36.7314 36.5777 36.9706 35.4933 37.4327 34.4949C37.8899 33.5225 38.5387 32.6492 39.3414 31.9256C40.1509 31.1941 41.086 30.6101 42.1031 30.2009C43.1531 29.7781 44.2775 29.5633 45.412 29.5687H69.1956V25.9347C69.1147 25.3255 68.8807 24.7458 68.5149 24.248C68.1608 23.7855 67.7183 23.3955 67.2124 23.0999C66.6701 22.7826 66.078 22.5562 65.4603 22.4298C64.8091 22.2877 64.1441 22.2165 63.4771 22.2173H38.7943V19.3066H63.6697C64.6803 19.3095 65.6844 19.4648 66.6472 19.7669C67.6135 20.0568 68.5267 20.4964 69.3523 21.0692C70.147 21.6217 70.8213 22.325 71.3356 23.1378C71.8637 23.9787 72.1472 24.9462 72.1551 25.9347V37.8127ZM63.4745 42.9084C64.1156 42.8949 64.7487 42.7655 65.3422 42.5265C66.0162 42.2718 66.6461 41.9161 67.2098 41.472C67.7799 41.0266 68.2616 40.4813 68.6305 39.8636C69.0057 39.2437 69.2012 38.5344 69.1956 37.8127V32.487H45.2553C44.535 32.4861 43.8213 32.6227 43.1538 32.8891C42.4904 33.1477 41.8809 33.524 41.3555 33.9992C40.8417 34.4648 40.4254 35.025 40.1301 35.648C39.8284 36.2905 39.6757 36.9911 39.6831 37.6989C39.6767 38.4145 39.8367 39.1221 40.1507 39.7675C40.4534 40.3955 40.8836 40.9557 41.4146 41.4138C41.9557 41.8791 42.5746 42.2488 43.2437 42.5063C43.9314 42.7742 44.6647 42.9107 45.4043 42.9084H63.4745Z" fill="#101113"/>
</g>
<defs>
<clipPath id="clip0">
<rect width="143" height="63" fill="white" transform="translate(0.666992)"/>
</clipPath>
</defs>
</svg>
