<svg fill="none" xmlns="http://www.w3.org/2000/svg" viewBox="0 0 143 64">
  <g clip-path="url(#clip0)">
    <path d="M19.8 55.1c0 1.5 1 2.1 2 2.1a4 4 0 001.7-.3l.2.8a5 5 0 01-2 .4c-1.9 0-3-1.2-3-3 0-2 1-3.4 2.9-3.4 2 0 2.5 1.8 2.5 3v.4h-4.3zm3.2-.8c0-.7-.3-1.8-1.5-1.8s-1.7 1-1.7 1.8H23zM30.5 49v9h-1v-1a2.3 2.3 0 01-2.1 1.1c-1.5 0-2.6-1.2-2.6-3 0-2.1 1.2-3.4 2.7-3.4 1 0 1.5.5 1.8 1V49h1.2zm-1.2 5.4v-.5a1.6 1.6 0 00-1.6-1.3c-1.1 0-1.8 1-1.8 2.4 0 1.2.6 2.2 1.8 2.2a1.7 1.7 0 001.6-1.3v-1.5zM32.7 55.1c0 1.5 1 2.1 2 2.1a4 4 0 001.7-.3l.2.8a5 5 0 01-2 .4c-1.9 0-3-1.2-3-3 0-2 1-3.4 2.9-3.4 2 0 2.5 1.8 2.5 2.9v.5h-4.3zm3.2-.8c0-.7-.3-1.8-1.5-1.8s-1.6 1-1.7 1.8h3.2zM38 53.5V52h1v1h.1a2.2 2.2 0 012-1.2c.9 0 2.2.5 2.2 2.6V58h-1.1v-3.5c0-1-.4-1.8-1.4-1.8a1.6 1.6 0 00-1.6 1.6V58h-1.1v-4.5zM46.1 50.1V52h1.6v.8h-1.6V56c0 .8.2 1.2.8 1.2h.7v.7c-.3.2-.6.2-1 .2a1.5 1.5 0 01-1.1-.5c-.4-.3-.5-.8-.5-1.6v-3.3h-1V52h1v-1.5l1.1-.3zM50 50.2a.7.7 0 01-1.4 0 .7.7 0 01.6-.7.7.7 0 01.7.7zM48.6 58v-6.1h1.1v6h-1.1zM52.7 50.1V52h1.6v.8h-1.6V56c0 .8.2 1.2.9 1.2h.6v.7a2.7 2.7 0 01-1.6 0c-.2 0-.4-.1-.5-.3-.3-.3-.5-.8-.5-1.6v-3.3h-1V52h1v-1.5l1.1-.3zM55.8 51.9l1.4 3.6.3 1.2.5-1.3 1.2-3.5h1.1l-1.6 4.3c-.8 2-1.4 3.2-2.1 3.8a3 3 0 01-1.4.7l-.3-.9 1-.5a3.3 3.3 0 001-1.5v-.3l-2.3-5.6h1.2zM68.8 49v9h-1v-1a2.2 2.2 0 01-2.1 1.1c-1.5 0-2.6-1.2-2.6-3 0-2.1 1.2-3.4 2.7-3.4 1 0 1.6.5 1.8 1V49h1.2zm-1.1 5.4v-.5a1.6 1.6 0 00-1.7-1.3c-1.1 0-1.8 1-1.8 2.4 0 1.2.6 2.2 1.8 2.2a1.7 1.7 0 001.6-1.3v-1.5zM71.6 50.2a.7.7 0 01-1.4 0 .7.7 0 01.7-.7.7.7 0 01.7.7zM70.4 58v-6.1h1v6h-1zM78.3 51.9V57c0 1.4-.3 2.2-1 2.8-.5.5-1.4.7-2.1.7a4 4 0 01-2-.5l.2-.9c.6.4 1.2.5 1.8.5 1.1 0 2-.6 2-2.1v-.7a2.2 2.2 0 01-2 1c-1.5 0-2.6-1.2-2.6-3 0-2 1.4-3.2 2.8-3.2a2 2 0 011.9 1V52h1zm-1.1 2.4a1.6 1.6 0 00-.7-1.4c-.3-.2-.6-.3-1-.3-1 0-1.7.9-1.7 2.3 0 1.2.6 2.2 1.7 2.2a1.6 1.6 0 001.6-1.1V54.3zM81 50.2a.7.7 0 11-1.4 0 .7.7 0 01.7-.7.7.7 0 01.7.7zM79.8 58v-6.1h1v6h-1zM83.8 50.1V52h1.6v.8h-1.6V56c0 .8.2 1.2.8 1.2h.7v.7a2.7 2.7 0 01-1.6 0l-.6-.3c-.3-.3-.4-.8-.4-1.6v-3.3h-1V52h1v-1.5l1-.3zM89.7 58v-.8a2.3 2.3 0 01-2 .9c-1.2 0-1.8-.9-1.8-1.7 0-1.5 1.3-2.3 3.7-2.3V54c0-.6-.2-1.5-1.4-1.5a3 3 0 00-1.6.5l-.3-.7c.6-.4 1.3-.6 2-.6 1.9 0 2.3 1.3 2.3 2.5v2.3l.1 1.5h-1zm-.1-3.1c-1.2 0-2.6.1-2.6 1.3a1 1 0 001 1 1.5 1.5 0 001.5-1V55zM92.2 49h1v9h-1v-9zM97.2 56.8c.4.3 1 .5 1.4.5.8 0 1.2-.4 1.2-1 0-.4-.3-.8-1.1-1-1.1-.4-1.6-1-1.6-1.8 0-1 .8-1.8 2-1.8.6 0 1.1.1 1.6.4l-.3.8c-.4-.2-.8-.3-1.3-.3-.6 0-1 .3-1 .8s.4.7 1.2 1c1 .4 1.6 1 1.6 1.8 0 1.1-.9 1.9-2.3 1.9-.6 0-1.2-.2-1.7-.4l.3-.9zM107.6 54.9c0 2.2-1.6 3.2-3 3.2-1.7 0-3-1.2-3-3.1 0-2 1.3-3.3 3-3.3 1.8 0 3 1.3 3 3.2zm-4.9 0c0 1.4.8 2.4 1.9 2.4 1 0 1.8-1 1.8-2.4 0-1-.5-2.3-1.8-2.3s-1.9 1.2-1.9 2.3zM108.7 49h1.1v9h-1v-9zM116.5 56.3V58h-.9v-1a2.3 2.3 0 01-2.1 1.1c-1 0-2.1-.5-2.1-2.7V52h1.1v3.3c0 1.2.4 2 1.4 2a1.6 1.6 0 001.4-1l.1-.6V52h1.1v4.4zM119.4 50.1V52h1.6v.8h-1.6V56c0 .8.3 1.2.9 1.2h.6v.7l-1 .2a1.5 1.5 0 01-1.1-.5c-.3-.3-.4-.8-.4-1.6v-3.3h-1V52h1v-1.5l1-.3zM123.3 50.2a.7.7 0 11-1.4 0 .7.7 0 01.4-.7h.3a.7.7 0 01.7.7zM122 58v-6.1h1.1v6h-1zM130.2 54.9c0 2.2-1.5 3.2-3 3.2-1.6 0-3-1.2-3-3.1 0-2 1.4-3.3 3.1-3.3 1.8 0 3 1.3 3 3.2zm-4.8 0c0 1.4.8 2.4 1.9 2.4 1 0 1.8-1 1.8-2.4 0-1-.5-2.3-1.8-2.3s-1.9 1.2-1.9 2.3zM131.4 53.5V52h1v1a2.2 2.2 0 012-1.2c.9 0 2.2.5 2.2 2.6V58h-1.1v-3.5c0-1-.4-1.8-1.5-1.8a1.6 1.6 0 00-1.5 1.6V58h-1.1v-4.5zM138 56.8c.4.3 1 .5 1.4.5.8 0 1.2-.4 1.2-1 0-.4-.3-.8-1.1-1-1.1-.4-1.6-1-1.6-1.8 0-1 .8-1.8 2-1.8.6 0 1.1.1 1.6.4l-.3.8c-.4-.2-.8-.3-1.3-.3-.6 0-1 .3-1 .8s.4.7 1.2 1c1 .4 1.6 1 1.6 1.8 0 1.1-.9 1.9-2.3 1.9-.6 0-1.2-.2-1.7-.4l.3-.9z" fill="#DFDFDF"/>
    <path fill-rule="evenodd" clip-rule="evenodd" d="M44.4 7.9C43 7.7 42 6.9 42.2 6c0-.8 1.3-1.2 2.6-1C46 5 47 5.8 47 6.6c0 .8-1.3 1.4-2.7 1.2zM32.3 28a2.6 2.6 0 01-2.4-3 3 3 0 013.3-2.5c1.5.2 2.6 1.5 2.4 3a3 3 0 01-3.3 2.5zM33.9 18.2c-1.5-.1-2.5-1.3-2.3-2.5.3-1.3 1.7-2.2 3.2-2.1 1.5 0 2.5 1.2 2.3 2.4-.2 1.3-1.6 2.3-3.2 2.2zM35.5 10c-1.4 0-2.4-.9-2-1.8.2-1 1.5-1.7 2.8-1.6 1.4 0 2.4.9 2.2 1.8-.2 1-1.5 1.8-3 1.7zM37 4.2c-1.3 0-2.1-.6-1.9-1.2.2-.6 1.4-1 2.6-1 1.3 0 2.2.5 2 1-.2.7-1.4 1.2-2.7 1.2zM21.1 42.7c-1.4-.2-2.5-1.6-2.3-3.2.2-1.6 1.6-2.7 3-2.6 1.5.2 2.6 1.7 2.4 3.3-.2 1.6-1.6 2.8-3 2.6zM22.5 32.3c-1.5 0-2.4-1.5-2.2-3a3 3 0 013.1-2.5c1.5.1 2.5 1.4 2.3 3a3 3 0 01-3.2 2.5zM24.3 22.3c-1.4 0-2.3-1.2-2-2.5a3.3 3.3 0 013.1-2.4c1.4 0 2.4 1.2 2 2.5a3.2 3.2 0 01-3.1 2.4zM26.4 13.6c-1.4 0-2.2-.9-1.9-2 .4-1 1.7-1.9 3-2 1.4 0 2.2.9 2 2-.3 1-1.7 2-3.1 2zM28.6 6.8c-1.3.1-2-.5-1.6-1.2.3-.8 1.5-1.4 2.7-1.5 1.3 0 2 .5 1.7 1.2-.3.8-1.5 1.5-2.8 1.5zM12.5 47c-1.2-.3-2.1-1.7-2-3.2.1-1.5 1.3-2.5 2.5-2.3 1.3.1 2.3 1.5 2.1 3.1-.1 1.6-1.3 2.6-2.6 2.4zM13.6 36.8c-1.2-.2-2-1.5-1.8-3 .2-1.5 1.5-2.6 2.7-2.5 1.3 0 2.2 1.4 2 3-.3 1.5-1.6 2.6-2.9 2.5zM15.4 26.8c-1.3 0-2-1.2-1.7-2.6.4-1.4 1.6-2.4 2.8-2.4 1.3 0 2.1 1 1.8 2.5-.3 1.4-1.6 2.5-3 2.5zM17.6 17.8c-1.2 0-1.8-.8-1.4-2a3.5 3.5 0 012.8-2.2c1.2 0 2 .8 1.5 2a3.5 3.5 0 01-2.9 2.2zM20.2 10.5c-1.1.1-1.7-.5-1.2-1.3.4-.9 1.7-1.7 2.7-1.9 1.2-.1 1.8.4 1.4 1.3-.4.9-1.7 1.7-2.9 1.9zM5.8 50.3c-1-.3-1.7-1.6-1.7-3 0-1.3.9-2.2 1.9-2 1 .2 1.8 1.5 1.7 3 0 1.4-1 2.3-2 2zM6.3 40.9c-1-.2-1.6-1.4-1.4-2.8C5 36.7 6 35.6 7 35.7c1 0 1.8 1.3 1.5 2.8-.2 1.4-1.1 2.5-2.2 2.4zM7.8 31.3c-1 0-1.6-1.1-1.3-2.5.3-1.3 1.3-2.4 2.3-2.4 1 0 1.7 1 1.4 2.4-.3 1.4-1.4 2.6-2.4 2.5zM9.9 22.4c-1 0-1.4-.8-1-2 .4-1.1 1.5-2.1 2.4-2.3 1-.2 1.5.7 1.1 2-.4 1.1-1.5 2.2-2.5 2.3zM12.6 14.8c-.9.2-1.2-.4-.8-1.3.6-1 1.5-1.7 2.5-2.1 1-.3 1.4.3 1 1.2-.5 1-1.7 2-2.7 2.2zM1.2 52.9C.6 52.6.1 51.4 0 50.2c0-1.2.4-2 1-1.8.7.3 1.3 1.5 1.4 2.8 0 1.3-.5 2-1.2 1.7zM1 44.4c-.6-.2-1-1.3-1-2.6.2-1.3.8-2.2 1.4-2.1.8 0 1.3 1.3 1.2 2.7-.2 1.3-.8 2.2-1.5 2zM2 35.6c-.7 0-1-1.1-.8-2.4.2-1.2 1-2.3 1.6-2.3.8 0 1.2 1 1 2.4-.3 1.3-1 2.4-1.8 2.3zM3.8 27c-.7.2-1-.7-.6-1.8.4-1.2 1.2-2.2 1.9-2.4.7-.2 1 .7.7 1.9-.4 1.2-1.3 2.3-2 2.4zM12.6 55.8c-1.3-.1-2.2-1.4-2.2-2.9s1-2.6 2.2-2.5c1.2 0 2.3 1.3 2.3 2.9 0 1.5-1.1 2.6-2.3 2.5zM43.4 15.3c-1.6-.2-2.7-1.4-2.5-2.6.1-1.3 1.5-2 3.1-1.9 1.6.2 2.7 1.4 2.6 2.6-.2 1.2-1.6 2.1-3.2 1.9zM6.8 58.4c-1 0-1.8-1.2-2-2.4-.2-1.3.4-2.3 1.3-2.3 1 0 2 1.2 2.1 2.5.2 1.3-.4 2.3-1.4 2.2zM52 12.4c-1.5-.2-2.5-1.2-2.3-2.3.1-1.1 1.4-1.8 2.7-1.7 1.4.2 2.4 1.2 2.3 2.3-.1 1-1.4 1.9-2.8 1.7zM52.7 6.2c-1.3-.1-2.2-.9-2.1-1.6.1-.7 1.2-1 2.5-1 1.3.2 2.2 1 2.2 1.6 0 .7-1.2 1.2-2.6 1zM45.7 3.6c-1.3-.2-2.3-.7-2.2-1.1 0-.4 1.2-.6 2.4-.4 1.3.1 2.3.6 2.3 1s-1.1.7-2.5.5zM59.2 9.4c-1.3-.3-2.1-1.2-1.9-2 .3-.6 1.4-.8 2.7-.4 1.2.4 2 1.2 1.8 1.9-.1.7-1.3 1-2.6.5zM64.7 13c-1-.4-1.7-1.2-1.5-1.7.3-.6 1.3-.6 2.3-.3 1 .4 1.7 1.2 1.5 1.7-.1.6-1.2.7-2.3.3z" fill="#00ABC7"/>
    <path d="M99.4 46.6H73.7v-3h25.7l1.8-.3a4.6 4.6 0 002.7-4.2 4.5 4.5 0 00-1.3-3.2c-.4-.4-.9-.8-1.4-1-.6-.2-1.2-.4-1.8-.4H79.7c-1 0-2-.1-2.9-.5a7.8 7.8 0 01-4-4 7.6 7.6 0 017-10.4h25.6v2.9H79.7c-.6 0-1.2 0-1.8.3l-1.4 1-1 1.4a5 5 0 00-.3 1.8c0 1.2.5 2.4 1.4 3.3a4.1 4.1 0 003 1.3h19.8a7.5 7.5 0 016.9 10.4 7.8 7.8 0 01-4 4c-1 .4-1.9.6-2.9.6zM107.6 27.8c0-1.1.2-2.2.7-3.2.5-1 1.1-1.9 2-2.6a9 9 0 016-2.4h18.2a8.3 8.3 0 016 2.4c.7.8 1.4 1.7 1.8 2.7a7.8 7.8 0 01-1.9 9 9.3 9.3 0 01-6 2.4h-23.9v3.7c.1.6.4 1.2.7 1.7.4.5.8 1 1.3 1.2.6.3 1.2.6 1.8.7l2 .2h24.6v3h-24.8a10 10 0 01-5.7-1.8 7.3 7.3 0 01-2-2.1c-.5-.9-.8-1.9-.8-2.9v-12zm8.7-5.2c-.7 0-1.3.1-1.9.4a7 7 0 00-1.9 1c-.5.5-1 1-1.4 1.7a4 4 0 00-.6 2v5.5h24a5.8 5.8 0 005.1-3.2 4.8 4.8 0 000-4.2c-.3-.7-.7-1.2-1.3-1.7a6.3 6.3 0 00-4-1.5h-18zM71.5 38.4c0 1.1-.3 2.2-.7 3.2-.5 1-1.1 1.9-2 2.6a9 9 0 01-6 2.3H44.6a8.3 8.3 0 01-6-2.4 8.9 8.9 0 01-1.8-2.6 7.8 7.8 0 011.9-9 9.3 9.3 0 016-2.5h23.8v-3.7c0-.6-.3-1.2-.7-1.7a5.7 5.7 0 00-3-1.8c-.7-.2-1.3-.2-2-.2H38.1v-3H63a9.9 9.9 0 015.7 1.8c.8.6 1.5 1.3 2 2.1.5.9.8 1.8.8 2.8v12.1zm-8.7 5.2c.6 0 1.3-.2 1.9-.4a7 7 0 001.8-1c.6-.5 1-1 1.5-1.7a4 4 0 00.5-2V33h-24a5.8 5.8 0 00-3.9 1.5c-.4.5-.8 1-1.1 1.7a4.8 4.8 0 000 4.2c.3.6.7 1.2 1.2 1.7a6.2 6.2 0 004 1.5h18.1z" fill="#DFDFDF"/>
  </g>
  <defs>
    <clipPath id="clip0">
      <path fill="#fff" d="M0 0h143v64H0z"/>
    </clipPath>
  </defs>
</svg>
