<svg width="76" height="29" viewBox="0 0 76 29" fill="none" xmlns="http://www.w3.org/2000/svg">
<path d="M3.64022 24.8171C3.44674 24.6115 3.21094 24.4483 2.95096 24.3334C2.69098 24.2185 2.41286 24.1641 2.12869 24.1641C1.84452 24.158 1.5664 24.2185 1.30642 24.3273C1.04643 24.4422 0.810634 24.6055 0.617158 24.811C0.417636 25.0105 0.260437 25.2463 0.157653 25.5063C0.0548693 25.7724 0.000454218 26.0505 0.000454218 26.3286C-0.0055919 26.6128 0.0488232 26.8909 0.157653 27.1509C0.266483 27.4109 0.423682 27.6467 0.623204 27.8462C0.816737 28.0518 1.05126 28.2146 1.31163 28.3239C1.57199 28.4333 1.8524 28.4868 2.13473 28.481C2.41647 28.4826 2.6956 28.4271 2.95536 28.318C3.21512 28.2089 3.45013 28.0484 3.64626 27.8462C3.85183 27.6527 4.00903 27.4169 4.11786 27.1569C4.22669 26.8969 4.28111 26.6188 4.28111 26.3346C4.28111 26.0505 4.22669 25.7724 4.11786 25.5124C4.00298 25.2463 3.84579 25.0105 3.64022 24.8171ZM28.9432 19.9076C28.913 21.262 28.9795 22.6223 29.1367 23.9706H29.0641C28.8949 23.6381 28.52 23.0214 27.9456 22.1205L14.1605 0.481445H9.97655V28.1062H13.1931V8.13583C13.2294 6.87219 13.1749 5.60855 13.0419 4.34492H13.1629C13.3926 4.94953 13.6889 5.52995 14.0395 6.07411L28.1996 28.1062H32.1598V0.481445H28.9432V19.9076ZM53.9681 25.071H42.6014V15.5H52.5473V12.5858H42.6014V3.40777H53.2728V0.481445H39.3063V28.1062H53.95L53.9681 25.071ZM56.4289 0.481445V3.40777H64.3493V28.1062H67.5658V3.40777H75.5769V0.481445H56.4289Z" fill="#621EE5"/>
</svg>
