<svg width="40" height="25" viewBox="0 0 40 25" fill="none" xmlns="http://www.w3.org/2000/svg">
<g clip-path="url(#clip0)">
<path d="M11.3684 9.23745C11.3684 9.72537 11.421 10.121 11.5132 10.4111C11.6184 10.7012 11.75 11.0177 11.9342 11.3605C12 11.466 12.0263 11.5715 12.0263 11.6638C12.0263 11.7957 11.9474 11.9276 11.7763 12.0594L10.9474 12.6133C10.8289 12.6924 10.7105 12.732 10.6053 12.732C10.4737 12.732 10.3421 12.666 10.2105 12.5473C10.0263 12.3495 9.86842 12.1386 9.73684 11.9276C9.60526 11.7034 9.47368 11.4528 9.32894 11.1495C8.30263 12.3627 7.01315 12.9693 5.46052 12.9693C4.35526 12.9693 3.47368 12.6528 2.82894 12.0199C2.18421 11.3869 1.85526 10.5429 1.85526 9.488C1.85526 8.36713 2.25 7.45723 3.05263 6.77152C3.85526 6.08581 4.92105 5.74295 6.27631 5.74295C6.72368 5.74295 7.18421 5.78251 7.67105 5.84844C8.15789 5.91438 8.65789 6.01987 9.18421 6.13855V5.17592C9.18421 4.17372 8.97368 3.47482 8.56578 3.06603C8.14473 2.65723 7.43421 2.45943 6.42105 2.45943C5.96052 2.45943 5.48684 2.51218 5 2.63086C4.51315 2.74954 4.03947 2.8946 3.57894 3.07921C3.36842 3.17152 3.21052 3.22427 3.11842 3.25064C3.02631 3.27701 2.96052 3.2902 2.90789 3.2902C2.72368 3.2902 2.63157 3.15833 2.63157 2.88141V2.23526C2.63157 2.02427 2.65789 1.86603 2.72368 1.77372C2.78947 1.68141 2.90789 1.5891 3.0921 1.49679C3.55263 1.25943 4.10526 1.06163 4.75 0.903388C5.39473 0.731959 6.07894 0.652838 6.80263 0.652838C8.36842 0.652838 9.51315 1.00888 10.25 1.72097C10.9737 2.43306 11.3421 3.51438 11.3421 4.96493V9.23745H11.3684ZM6.02631 11.2418C6.46052 11.2418 6.90789 11.1627 7.38157 11.0045C7.85526 10.8462 8.27631 10.5561 8.63157 10.1605C8.8421 9.90998 9 9.63306 9.07894 9.31658C9.15789 9.00009 9.21052 8.61767 9.21052 8.16932V7.61548C8.82894 7.52317 8.42105 7.44405 7.99999 7.3913C7.57894 7.33855 7.17105 7.31218 6.76315 7.31218C5.88157 7.31218 5.23684 7.48361 4.80263 7.83965C4.36842 8.1957 4.15789 8.6968 4.15789 9.35614C4.15789 9.97592 4.31578 10.4375 4.64473 10.7539C4.96052 11.0836 5.42105 11.2418 6.02631 11.2418ZM16.5921 12.666C16.3553 12.666 16.1974 12.6265 16.0921 12.5342C15.9868 12.455 15.8947 12.2704 15.8158 12.0199L12.7237 1.82646C12.6447 1.56273 12.6053 1.3913 12.6053 1.29899C12.6053 1.088 12.7105 0.969322 12.921 0.969322H14.2105C14.4605 0.969322 14.6316 1.00888 14.7237 1.10119C14.8289 1.18031 14.9079 1.36493 14.9868 1.61548L17.1974 10.3451L19.25 1.61548C19.3158 1.35174 19.3947 1.18031 19.5 1.10119C19.6053 1.02207 19.7895 0.969322 20.0263 0.969322H21.0789C21.3289 0.969322 21.5 1.00888 21.6053 1.10119C21.7105 1.18031 21.8026 1.36493 21.8553 1.61548L23.9342 10.4506L26.2105 1.61548C26.2895 1.35174 26.3816 1.18031 26.4737 1.10119C26.5789 1.02207 26.75 0.969322 26.9868 0.969322H28.2105C28.421 0.969322 28.5395 1.07482 28.5395 1.29899C28.5395 1.36493 28.5263 1.43086 28.5132 1.50998C28.5 1.5891 28.4737 1.6946 28.421 1.83965L25.25 12.0331C25.171 12.2968 25.0789 12.4682 24.9737 12.5473C24.8684 12.6265 24.6974 12.6792 24.4737 12.6792H23.3421C23.0921 12.6792 22.921 12.6397 22.8158 12.5473C22.7105 12.455 22.6184 12.2836 22.5658 12.0199L20.5263 3.51438L18.5 12.0067C18.4342 12.2704 18.3553 12.4419 18.25 12.5342C18.1447 12.6265 17.9605 12.666 17.7237 12.666H16.5921ZM33.5 13.0221C32.8158 13.0221 32.1316 12.9429 31.4737 12.7847C30.8158 12.6265 30.3026 12.455 29.9605 12.2572C29.75 12.1386 29.6053 12.0067 29.5526 11.888C29.5 11.7693 29.4737 11.6375 29.4737 11.5188V10.8462C29.4737 10.5693 29.5789 10.4375 29.7763 10.4375C29.8553 10.4375 29.9342 10.4506 30.0132 10.477C30.0921 10.5034 30.2105 10.5561 30.3421 10.6089C30.7895 10.8067 31.2763 10.9649 31.7895 11.0704C32.3158 11.1759 32.8289 11.2287 33.3553 11.2287C34.1842 11.2287 34.8289 11.0836 35.2763 10.7935C35.7237 10.5034 35.9605 10.0814 35.9605 9.54075C35.9605 9.17152 35.8421 8.86822 35.6053 8.61767C35.3684 8.36713 34.921 8.14295 34.2763 7.93196L32.3684 7.33855C31.4079 7.03526 30.6974 6.58691 30.2632 5.9935C29.8289 5.41328 29.6053 4.76712 29.6053 4.08141C29.6053 3.52756 29.7237 3.03965 29.9605 2.61767C30.1974 2.1957 30.5131 1.82646 30.9079 1.53636C31.3026 1.23306 31.75 1.00888 32.2763 0.850641C32.8026 0.692399 33.3553 0.626465 33.9342 0.626465C34.2237 0.626465 34.5263 0.639652 34.8158 0.679212C35.1184 0.718773 35.3947 0.77152 35.671 0.824267C35.9342 0.890201 36.1842 0.956135 36.421 1.03526C36.6579 1.11438 36.8421 1.1935 36.9737 1.27262C37.1579 1.37811 37.2895 1.48361 37.3684 1.60229C37.4474 1.70778 37.4868 1.85284 37.4868 2.03745V2.65723C37.4868 2.93416 37.3816 3.07921 37.1842 3.07921C37.0789 3.07921 36.9079 3.02646 36.6842 2.92097C35.9342 2.57811 35.0921 2.40668 34.1579 2.40668C33.4079 2.40668 32.8158 2.52537 32.4079 2.77592C32 3.02646 31.7895 3.40888 31.7895 3.94954C31.7895 4.31877 31.921 4.63526 32.1842 4.88581C32.4474 5.13636 32.9342 5.38691 33.6316 5.61108L35.5 6.20449C36.4474 6.50778 37.1316 6.92976 37.5395 7.47042C37.9474 8.01108 38.1447 8.63086 38.1447 9.31658C38.1447 9.88361 38.0263 10.3979 37.8026 10.8462C37.5658 11.2946 37.25 11.6902 36.8421 12.0067C36.4342 12.3364 35.9474 12.5737 35.3816 12.7451C34.7895 12.9298 34.171 13.0221 33.5 13.0221Z" fill="#252F3E"/>
<path fill-rule="evenodd" clip-rule="evenodd" d="M35.9868 19.4307C31.6579 22.6351 25.3684 24.3362 19.9605 24.3362C12.3816 24.3362 5.55263 21.5274 0.394736 16.8592C-0.0131583 16.49 0.355263 15.9889 0.842105 16.279C6.42105 19.523 13.3026 21.4878 20.421 21.4878C25.2237 21.4878 30.5 20.4856 35.3553 18.4285C36.0789 18.0988 36.6974 18.9032 35.9868 19.4307Z" fill="#FF9900"/>
<path fill-rule="evenodd" clip-rule="evenodd" d="M37.7895 17.3736C37.2368 16.6615 34.1316 17.0307 32.7237 17.2021C32.3026 17.2549 32.2368 16.8857 32.6184 16.6087C35.0921 14.8681 39.1579 15.3692 39.6316 15.9494C40.1053 16.5428 39.5 20.6175 37.1842 22.5692C36.8289 22.8725 36.4868 22.7142 36.6447 22.3186C37.1711 21.0131 38.3421 18.0725 37.7895 17.3736Z" fill="#FF9900"/>
</g>
<defs>
<clipPath id="clip0">
<rect width="40" height="24" fill="white" transform="translate(0 0.481445)"/>
</clipPath>
</defs>
</svg>
