<svg width="26" height="26" viewBox="0 0 26 26" fill="none" xmlns="http://www.w3.org/2000/svg">
<g clip-path="url(#clip0)">
<path d="M7.5855 16.3724L5.20433 17.4016L7.41 18.3495L9.96667 17.4016L7.5855 16.3724ZM4.00508 17.6583L3.92492 22.2896L7.41 23.8333V19.0255L4.00508 17.6583ZM11.1659 17.6583L8.01775 18.8641V23.4L11.167 22.1141V17.6583H11.1659ZM14.9251 3.25L12.5266 4.27917L14.7485 5.22817L17.3062 4.27917L14.924 3.25H14.9251ZM11.5992 4.61717V9.24842L14.573 10.1172L14.6694 5.90308L11.5992 4.61717ZM18.2509 4.875L15.4364 6.08075V10.6308L18.2498 9.34483V4.875H18.2509ZM3.6595 9.76842L1.27833 10.7976L3.484 11.7466L6.04067 10.7976L3.6595 9.76842ZM0.0801667 11.0543L0 15.6867L3.48508 17.2304V12.4226L0.0801667 11.0543ZM7.241 11.0543L4.09283 12.2612V16.7949L7.24208 15.509V11.0543H7.241ZM11.3349 9.59725L8.95267 10.6264L11.1583 11.5754L13.7161 10.6264L11.3349 9.59725ZM7.75342 10.8843L7.67325 15.5155L11.1583 17.0592V12.2514L7.75342 10.8843ZM14.9153 10.8843L11.7661 12.09V16.6248L14.9153 15.3378V10.8843ZM22.4185 3.25L20.0373 4.27917L22.243 5.22817L24.8007 4.27917L22.4185 3.25ZM18.8392 4.53592L18.759 9.16717L22.2441 10.7109V5.90417L18.8392 4.53592ZM26.0011 4.53592L22.8518 5.74275V10.2776L26 8.99058V4.53592H26.0011Z" fill="#F7A80D"/>
</g>
<defs>
<clipPath id="clip0">
<rect width="26" height="26" fill="white"/>
</clipPath>
</defs>
</svg>
