<svg width="26" height="26" viewBox="0 0 26 26" fill="none" xmlns="http://www.w3.org/2000/svg">
<path d="M26 0H0V26H26V0Z" fill="#FCD100"/>
<path d="M12.9495 9.83504C12.7293 9.98726 12.4795 10.1436 12.2 10.2958L12.2042 10.3411C12.2212 10.3411 12.2466 10.3287 12.2804 10.3081C12.3143 10.304 12.3313 10.3205 12.3355 10.3493L12.3821 10.3246H12.4032V10.3452C12.4075 10.3699 12.2296 10.5015 11.8824 10.7401L11.9078 10.7895H11.8866L11.8316 10.7689C11.8316 10.7854 11.8104 10.7977 11.7596 10.8018V10.8224L11.8146 10.8882C11.7977 10.8882 11.7681 10.8841 11.7342 10.8676C11.6199 10.8759 11.5098 10.9581 11.3997 11.1062L11.4251 11.1515C11.5225 11.0651 11.5775 11.0199 11.5944 11.0199L11.5987 11.0898C11.5817 11.0898 11.5563 11.1021 11.5225 11.1227L11.586 11.2091C11.7003 11.0857 11.8273 10.9828 11.9629 10.8964C12.0306 10.917 12.0687 10.9376 12.0687 10.9581L12.1195 10.954C12.5006 10.6825 12.8733 10.4892 13.2417 10.3699L13.2459 10.4151C13.1782 10.5138 13.1316 10.5632 13.1062 10.5673C13.1104 10.6002 13.1189 10.629 13.1358 10.6578C13.14 10.7195 12.9749 11.1309 12.6361 11.892C11.8612 13.6569 11.2133 14.9651 10.6883 15.8126C10.6883 15.829 10.701 15.8537 10.7221 15.8825C10.8534 15.8537 10.9339 15.8208 10.9677 15.792H10.9889L10.9931 15.8373L11.0482 15.8331L11.0948 15.8085C11.0948 15.8208 11.1117 15.829 11.1456 15.8249L11.1498 15.8743C11.1541 15.9195 11.1244 15.9895 11.0694 16.0882C11.0143 16.1458 10.955 16.2692 10.8958 16.4543L10.9 16.479L10.9508 16.4749C11.1625 16.2445 11.3192 16.0224 11.4293 15.8002C12.0433 15.6233 12.5091 15.4547 12.8352 15.286C13.1655 15.2572 13.4111 15.1749 13.5804 15.0392L13.5762 15.0145L13.4492 15.0515L13.4238 15.0556L13.4195 15.0309C13.6609 14.998 13.826 14.9445 13.915 14.8746C14.3808 14.5249 14.7322 14.2781 14.9736 14.1341C15.7104 13.6075 16.0576 13.1056 16.0153 12.6202C16.0111 12.5708 15.8501 12.3733 15.5283 12.0278C15.5241 11.9619 15.6342 11.8673 15.8586 11.7439L16.5023 11.2009C16.6462 11.024 16.7309 10.736 16.7563 10.3369L16.7479 10.2464C16.7225 9.9708 16.515 9.74865 16.1254 9.57586C15.8925 9.42365 15.4775 9.34137 14.8804 9.32491C14.3977 9.35782 13.7498 9.53061 12.9495 9.83504ZM16.3964 9.86795L16.371 9.91732L15.6596 9.62523C16.1381 9.6458 16.3837 9.72396 16.3964 9.86795ZM13.5085 11.7933C13.5593 11.5341 13.6143 11.3901 13.6736 11.3572L14.2114 10.1888C14.2071 10.1189 14.3172 10.0613 14.5501 10.0202L14.6264 10.0119L14.6306 10.0819C14.8593 10.0448 14.999 10.0243 15.0583 10.0202C15.4817 9.98314 15.7019 10.0695 15.7189 10.267L15.7697 10.2629L15.7612 10.1518L15.812 10.1477C15.9348 10.2135 15.9984 10.2917 16.0068 10.3863C16.0111 10.4521 15.9772 10.5344 15.9052 10.6331C15.8713 10.6373 15.8544 10.6126 15.8501 10.5673L15.7993 10.5714L15.7824 10.7113C15.5664 11.0281 15.414 11.1885 15.3166 11.1967C15.2319 11.3119 15.1769 11.3695 15.1515 11.3695C15.0837 11.4477 14.9016 11.5835 14.601 11.7686C14.4993 11.7768 14.1309 11.9167 13.4915 12.1882C13.4619 12.1759 13.4238 12.1717 13.3899 12.1759L13.3857 12.1306C13.3772 12.0442 13.4195 11.9331 13.5085 11.7933ZM16.4642 10.3534L16.4684 10.4028C16.443 10.4028 16.3964 10.3287 16.3202 10.1806L16.3159 10.1354C16.3625 10.1312 16.4133 10.2053 16.4642 10.3534ZM11.7787 10.9129L11.7832 10.9629C11.7652 10.9629 11.7381 10.9879 11.702 11.0212H11.6794L11.6749 10.9296L11.7787 10.9129ZM13.3368 10.8759L13.3415 10.9458C13.3133 10.9458 13.2803 10.9828 13.2379 11.0445L13.2332 10.9993C13.2803 10.9458 13.3039 10.9047 13.3039 10.8759H13.3368ZM13.1246 11.3613L13.1463 11.4649L13.0813 11.4696L13.0596 11.366L13.1246 11.3613ZM13.0451 11.53C13.04 11.6081 13.0142 11.6493 12.9677 11.6534L12.9368 11.6575C12.9729 11.604 12.9884 11.5629 12.9832 11.5341L13.0451 11.53ZM12.9261 11.7727L12.9308 11.7987L12.8837 11.8767L12.8272 11.881L12.8225 11.855C12.879 11.8507 12.9072 11.8247 12.9025 11.7727H12.9261ZM12.8715 11.9907L12.8321 12.11H12.7829L12.7632 11.9907H12.8715ZM15.4182 12.0771L15.5241 12.1388C15.5283 12.1676 15.5114 12.1882 15.4775 12.1882C15.4309 12.1594 15.3971 12.1471 15.3716 12.1512V12.0812L15.4182 12.0771ZM13.3796 12.3404L13.3839 12.4321L13.2799 12.4488L13.2756 12.3571L13.3796 12.3404ZM15.0244 12.5091C15.0964 12.5423 15.1303 12.5714 15.1345 12.5963V12.6171C15.0668 12.6212 15.0032 12.588 14.944 12.5132L15.0244 12.5091ZM12.9029 13.0151C13.1909 12.9904 13.644 12.8588 14.2664 12.6202L14.4231 12.6078C14.7365 12.5831 14.9694 12.6407 15.126 12.7847L15.1345 12.8752C15.0202 13.1961 14.8931 13.3854 14.7534 13.443L14.114 13.9449C13.6355 14.2493 13.3772 14.4015 13.3348 14.4056C12.5726 14.8129 12.0984 15.0227 11.912 15.0392L11.8866 15.0433C11.9036 14.9569 12.2423 14.2822 12.9029 13.0151ZM13.5955 12.7477L13.5998 12.8127L13.4958 12.8344L13.4915 12.7694L13.5955 12.7477ZM15.9065 12.6448L15.9246 12.8341C15.8975 12.8793 15.875 12.904 15.8479 12.9081L15.8163 12.5873C15.875 12.6037 15.9065 12.6243 15.9065 12.6448ZM11.9966 14.2575C11.9614 14.4138 11.9262 14.4961 11.891 14.4961V14.4755C11.8778 14.4015 11.913 14.3274 11.9966 14.2575ZM12.6319 15.1379C12.8182 15.105 13.3306 14.8458 14.169 14.3562L14.1733 14.4015C14.1733 14.4221 14.1055 14.4838 13.9573 14.5825C13.5339 14.7882 13.2798 14.924 13.2036 14.9939C12.742 15.1502 12.5133 15.249 12.5176 15.286C12.1068 15.4423 11.84 15.5575 11.7088 15.6316C11.6791 15.6357 11.6326 15.6233 11.5775 15.5945C11.569 15.5123 11.6072 15.4505 11.6876 15.4012C11.7596 15.3971 11.8273 15.4053 11.8909 15.43C11.9671 15.393 12.0984 15.3518 12.2889 15.3024L12.2847 15.2572L12.128 15.2695C12.1449 15.2407 12.2931 15.1749 12.5684 15.068L12.6446 15.0597V15.0803C12.5133 15.0926 12.4414 15.1297 12.4244 15.1955C12.4286 15.2243 12.4456 15.2407 12.4795 15.2366C12.5853 15.1873 12.6319 15.1502 12.6319 15.1379ZM11.8962 14.5743V14.6044C11.9051 14.6525 11.8695 14.6826 11.7982 14.6826L11.7892 14.6465C11.7892 14.6164 11.8249 14.5863 11.8962 14.5743ZM13.0427 14.8952C12.9834 14.8993 12.869 14.9486 12.6997 15.0392L12.6743 15.0433L12.67 14.998C12.7928 14.9857 12.9029 14.9404 12.9876 14.8581C13.0215 14.854 13.0384 14.8664 13.0427 14.8952ZM11.7977 15.2398L11.8739 15.2243L11.8782 15.2707C11.8612 15.2707 11.8358 15.2939 11.8019 15.3249L11.7511 15.3326C11.7469 15.2862 11.7638 15.2552 11.7977 15.2398ZM11.2853 15.5081L11.3361 15.5287C11.3192 15.6727 11.2726 15.7467 11.2049 15.7509C11.1456 15.7262 11.0948 15.7138 11.0482 15.718L11.044 15.648C11.0397 15.6233 11.0567 15.6069 11.0905 15.5986C11.1244 15.5945 11.1414 15.6192 11.1456 15.6645C11.2303 15.5616 11.2769 15.5081 11.2853 15.5081ZM2.98142 9.62934C2.69347 9.83504 2.36318 10.0366 1.99477 10.2341L1.99901 10.2958C2.02442 10.2958 2.05406 10.2793 2.0964 10.2588C2.13875 10.2547 2.16416 10.2711 2.16416 10.3123L2.23191 10.2752L2.26578 10.2711L2.27002 10.2999C2.27425 10.3287 2.04135 10.5056 1.57979 10.8224L1.6179 10.88L1.58402 10.8841L1.51204 10.8594C1.51204 10.88 1.4824 10.8923 1.41464 10.8964L1.41888 10.9293L1.4951 11.0116C1.46969 11.0116 1.43582 11.0075 1.39347 10.9911C1.24526 11.0034 1.09705 11.1104 0.95308 11.3078L0.991191 11.3654C1.11823 11.2543 1.19021 11.1967 1.21139 11.1967L1.21986 11.2873C1.19868 11.2873 1.16481 11.3037 1.12246 11.3243L1.20292 11.4395C1.35536 11.279 1.52051 11.1433 1.70683 11.0322C1.79999 11.0569 1.84657 11.0816 1.84657 11.1145L1.91432 11.1104C2.40976 10.7524 2.90096 10.4974 3.38793 10.3369L3.39217 10.3986C3.30324 10.5303 3.23972 10.5961 3.20585 10.6002C3.21008 10.6455 3.22702 10.6825 3.25243 10.7195C3.2609 10.8018 3.0407 11.3407 2.59184 12.3445C1.56709 14.673 0.711712 16.3926 0.0214844 17.5116C0.0214844 17.5322 0.0384225 17.5651 0.0595951 17.6021C0.228976 17.561 0.339074 17.524 0.385654 17.4828L0.423764 17.4787L0.427999 17.5404L0.491517 17.5363L0.559269 17.4993C0.559269 17.5198 0.584677 17.5281 0.627022 17.524L0.631256 17.5857C0.635491 17.6474 0.601615 17.742 0.521159 17.8695C0.449172 17.9477 0.377185 18.1081 0.296729 18.3509L0.300963 18.3797L0.364481 18.3755C0.639725 18.0752 0.851452 17.779 0.995426 17.4911C1.80422 17.2607 2.41823 17.0344 2.84591 16.8123C3.2736 16.7752 3.60389 16.6683 3.82409 16.4873L3.81986 16.4543L3.65894 16.4996L3.62083 16.5037L3.6166 16.4708C3.92995 16.4255 4.15015 16.3556 4.26871 16.2651C4.88272 15.8043 5.34428 15.4793 5.65764 15.286C6.62735 14.5949 7.08467 13.9284 7.02963 13.2949C7.02539 13.229 6.80943 12.9698 6.39021 12.5173C6.38174 12.4309 6.52995 12.3075 6.82637 12.143L7.66904 11.423C7.85536 11.1885 7.96969 10.81 8.0078 10.2876L7.9951 10.1642C7.96122 9.79801 7.69021 9.50181 7.1736 9.27555C6.86871 9.07396 6.32246 8.967 5.53484 8.95466C4.88696 9.01226 4.03158 9.23441 2.98142 9.62934ZM7.52083 9.68283L7.49542 9.74453L6.55536 9.36194C7.18207 9.38662 7.50389 9.49358 7.52083 9.68283ZM3.71823 12.217C3.78174 11.8797 3.85373 11.6863 3.93419 11.6411L4.63712 10.1066C4.62865 10.0119 4.77686 9.93789 5.08598 9.88852L5.18761 9.88029L5.19608 9.96669C5.50096 9.92143 5.68728 9.89675 5.75927 9.88852C6.31823 9.84327 6.60617 9.95023 6.63158 10.2176L6.6951 10.2135L6.68239 10.0572L6.75015 10.0531C6.91529 10.1395 7.00422 10.2464 7.01269 10.374C7.02116 10.4604 6.97458 10.5673 6.86871 10.6949C6.82637 10.699 6.80096 10.6702 6.79673 10.6085L6.72897 10.6126L6.71204 10.7977C6.42832 11.2091 6.22507 11.4189 6.09803 11.4312C5.9837 11.5835 5.91171 11.6616 5.88207 11.6657C5.79314 11.7686 5.55178 11.9455 5.15373 12.1923C5.02246 12.2047 4.53549 12.3857 3.69282 12.7436C3.65047 12.723 3.60813 12.7189 3.55731 12.723L3.55308 12.6654C3.54461 12.5461 3.59543 12.398 3.71823 12.217ZM7.60976 10.3246L7.61399 10.3822C7.58011 10.3863 7.5166 10.2876 7.42344 10.0901L7.4192 10.0325C7.47849 10.0243 7.542 10.123 7.60976 10.3246ZM1.42735 11.0569L1.43158 11.1015C1.41041 11.1015 1.37653 11.127 1.33419 11.1588L1.30031 11.1652L1.29608 11.076L1.42735 11.0569ZM3.47262 11.0075L3.48109 11.098C3.45145 11.1021 3.40911 11.1433 3.35829 11.2297L3.35406 11.168C3.41334 11.098 3.44298 11.0445 3.44298 11.0075H3.47262ZM3.20418 11.6493L3.23373 11.7727L3.15494 11.7768L3.12539 11.6534L3.20418 11.6493ZM3.07881 11.8714C3.07034 11.9743 3.04494 12.0278 2.98989 12.0319L2.95601 12.036C2.99412 11.9661 3.0153 11.9167 3.01106 11.8797L3.07881 11.8714ZM2.93907 12.1923L2.94331 12.2211L2.88402 12.3199L2.82051 12.324L2.81627 12.2952C2.87979 12.2911 2.90943 12.2581 2.9052 12.1964L2.93907 12.1923ZM2.83992 12.4803L2.81103 12.6325L2.75325 12.6366L2.73158 12.4844L2.83992 12.4803ZM6.2293 12.5914L6.36904 12.6736C6.37327 12.7148 6.3521 12.7395 6.30976 12.7436C6.25047 12.7066 6.20389 12.6901 6.17002 12.6901L6.16155 12.5996L6.2293 12.5914ZM3.54038 12.9411L3.54461 13.0303L3.41334 13.0494L3.40911 12.9602L3.54038 12.9411ZM5.70845 13.155C5.80161 13.1961 5.84819 13.2373 5.85243 13.2702L5.85666 13.299C5.76774 13.3072 5.68728 13.2619 5.61106 13.1632L5.70845 13.155ZM2.91367 13.8214C3.29477 13.7885 3.89608 13.6157 4.71334 13.3031L4.91236 13.2866C5.32735 13.2537 5.63647 13.3278 5.83972 13.517L5.85243 13.6404C5.69998 14.0683 5.5306 14.3151 5.34852 14.3933L4.50161 15.0474C3.87067 15.4505 3.53191 15.6521 3.48109 15.6562C2.47751 16.1952 1.8508 16.4708 1.60943 16.4914L1.57132 16.4955C1.6052 16.3803 2.04982 15.4917 2.91367 13.8214ZM3.82832 13.4717L3.83256 13.5476L3.69705 13.5801L3.69282 13.5042L3.82832 13.4717ZM6.86871 13.3401L6.88989 13.5828C6.86025 13.6486 6.8306 13.6816 6.79673 13.6816L6.75862 13.2537C6.8306 13.2825 6.86448 13.3113 6.86871 13.3401ZM1.7153 15.4629C1.67295 15.6727 1.62637 15.7797 1.57979 15.7838L1.57556 15.755C1.56709 15.648 1.61367 15.5534 1.7153 15.4629ZM2.5622 16.623C2.8078 16.5778 3.48109 16.2322 4.5863 15.5945L4.59054 15.6521C4.59477 15.6768 4.49738 15.755 4.30683 15.8907C3.74363 16.1581 3.41334 16.3433 3.31595 16.4379C2.70617 16.6436 2.40552 16.7711 2.40976 16.8205C1.86774 17.0303 1.51204 17.1825 1.34266 17.2771C1.30455 17.2812 1.24526 17.2648 1.16904 17.2319C1.16057 17.1249 1.20715 17.0385 1.31725 16.9686C1.41041 16.9604 1.50357 16.9727 1.58826 17.0097C1.68989 16.9604 1.8635 16.9028 2.11334 16.8452L2.10911 16.7835L1.91008 16.7999C1.93549 16.767 2.12604 16.6806 2.49021 16.5366L2.59184 16.5284L2.59608 16.5572C2.4267 16.5695 2.3293 16.623 2.30813 16.7094C2.31236 16.7464 2.33354 16.767 2.37588 16.7629C2.49868 16.6806 2.5622 16.6354 2.5622 16.623ZM1.56103 15.8784L1.56813 15.91C1.57524 15.9551 1.53972 15.9822 1.46869 15.9867L1.46158 15.9551C1.45448 15.9145 1.49 15.8874 1.56103 15.8784ZM3.10422 16.298C3.02376 16.3062 2.87556 16.368 2.65113 16.4914L2.61725 16.4955L2.61301 16.4338C2.77393 16.4214 2.91367 16.3597 3.028 16.2486C3.07458 16.2404 3.09999 16.261 3.10422 16.298ZM1.46122 16.7461L1.56285 16.7341L1.56709 16.7822C1.54168 16.7822 1.51204 16.8063 1.46969 16.8364L1.40617 16.8424C1.40194 16.8003 1.41888 16.7642 1.46122 16.7461ZM0.787934 17.1085L0.859921 17.1373C0.834514 17.3224 0.779465 17.417 0.682071 17.4252C0.605849 17.3923 0.538097 17.38 0.474579 17.3841L0.46611 17.2936C0.461875 17.2566 0.483048 17.236 0.529628 17.2236C0.571973 17.2195 0.59738 17.2483 0.601615 17.31C0.715947 17.1743 0.779465 17.1085 0.787934 17.1085ZM19.5723 9.0246L19.5172 9.00403L18.6153 9.13979C18.5814 9.12333 18.5391 9.1151 18.4925 9.11922C18.4417 9.12333 18.3655 9.13979 18.2511 9.16858L17.815 9.34548L17.8488 9.39896C17.87 9.39896 17.8997 9.38662 17.9378 9.36605L18.0902 9.3784L18.069 9.51827C17.9293 9.57998 17.8446 9.67048 17.8234 9.78979C17.6117 9.88029 17.5058 9.94612 17.5058 9.98726L17.5101 10.0119L17.544 10.0078L17.6032 9.97903L17.671 10.0572L17.6795 10.1642C17.6837 10.1971 17.3238 10.9335 16.6039 12.3692C15.9814 13.7515 15.6554 14.5085 15.6215 14.6442C15.4098 14.7018 15.2827 14.7882 15.2488 14.8993C15.2531 14.9363 15.3166 14.9569 15.4394 14.9692L15.4436 15.0227L15.3886 15.1132L15.3971 15.2202C15.4013 15.2778 15.558 15.3189 15.8629 15.3518C15.8629 15.3312 15.8713 15.323 15.8925 15.3189C15.8967 15.3847 15.8798 15.5164 15.8332 15.7138L15.8671 15.7097C15.9941 15.5411 16.0534 15.4259 16.0492 15.36L16.0746 15.3559C16.1042 15.3518 16.1381 15.3888 16.1762 15.4629C16.1381 15.4793 16.0026 15.7755 15.7739 16.3556L15.8078 16.4091L15.8417 16.405C16.1254 15.7097 16.3032 15.323 16.3752 15.249C16.7479 15.2161 17.3873 15.1543 18.3019 15.0597L18.357 15.0268C18.357 15.0474 18.3697 15.0556 18.3909 15.0515L18.4501 15.0474L18.5052 15.0145C18.5052 15.035 18.5179 15.0433 18.5391 15.0392L19.2293 14.9816C19.4114 14.9651 19.5003 14.9116 19.4918 14.8211C19.4876 14.7964 19.5977 14.7676 19.8179 14.7388C19.8391 14.7388 19.8687 14.743 19.9111 14.7553C19.9111 14.7388 20.0169 14.7224 20.2371 14.7018C20.2414 14.5907 20.2795 14.529 20.3472 14.5249L20.343 14.4714C20.2837 14.4755 20.2117 14.492 20.1313 14.5167C19.9873 14.5085 19.8941 14.5002 19.856 14.4838C19.8179 14.5043 19.7883 14.5167 19.7671 14.5167L19.2843 14.5331L19.2251 14.5619C19.2251 14.5455 19.2124 14.5373 19.1912 14.5414L19.1658 14.5455L19.1023 14.5743C19.1023 14.5578 19.0514 14.5455 18.9498 14.5331L18.8905 14.5661L18.772 14.5743L18.7677 14.5455C19.386 14.4797 19.6951 14.3974 19.6866 14.2986C19.7247 14.2945 19.7459 14.3151 19.7501 14.3521L19.9322 14.3069L19.928 14.2534L18.4459 14.2945C18.4459 14.3151 18.4374 14.3233 18.4163 14.3274L18.2342 14.311C18.1876 14.3151 18.1495 14.3274 18.1199 14.3521L18.0521 14.3274C17.8658 14.3439 17.726 14.3645 17.6329 14.3933C17.5058 14.385 17.3661 14.385 17.2094 14.3974L16.8749 14.4262L16.7225 14.4097C16.714 14.3151 16.9045 13.8461 17.2984 13.0028C17.4127 12.7189 17.5185 12.542 17.6159 12.4762C17.6371 12.4762 17.6668 12.4803 17.7091 12.4967L17.9462 12.4186L18.069 12.4392C18.2723 12.4227 18.5094 12.3651 18.7804 12.2705C18.8482 12.2664 18.899 12.2705 18.9329 12.2828L19.115 12.2417L19.6528 12.1964C19.8814 12.1759 20.1313 12.1265 20.398 12.0483L20.3938 11.9949C20.2922 12.0031 20.2414 11.9866 20.2371 11.9496C20.2286 11.8755 20.1567 11.8467 20.0169 11.8591L20.0127 11.8056L20.1609 11.7645L20.5505 11.7316L20.5462 11.6781C20.5293 11.6781 20.4531 11.6781 20.3049 11.674L20.3006 11.6164L20.4531 11.604C20.4912 11.5999 20.5124 11.5793 20.5081 11.5464C20.3049 11.5505 20.2032 11.5423 20.2032 11.5176C18.7931 11.5835 18.0902 11.5958 18.086 11.5547C18.0648 11.5547 18.0352 11.567 17.997 11.5917L17.9589 11.5341C18.3316 10.7648 18.5518 10.374 18.6153 10.3699C18.6195 10.3986 18.6026 10.448 18.5687 10.5138L18.5729 10.5385L18.6322 10.5344C18.7804 10.1888 18.9032 10.0119 19.0091 10.0037C19.4495 9.96669 18.9456 9.93789 19.8941 9.7939C19.9322 9.81036 19.9619 9.81858 19.9788 9.81447C20.3514 9.74042 20.8681 9.66637 21.5329 9.5882L21.5286 9.53472L21.1729 9.56764L21.1687 9.51415C21.2111 9.51004 21.2449 9.4977 21.2746 9.47301L21.2788 9.50181C21.3 9.50181 21.3254 9.48947 21.3593 9.46479C21.4185 9.46067 21.4651 9.46479 21.499 9.48124C21.6218 9.44833 21.7192 9.43188 21.7954 9.42365L22.0156 9.40308C22.0707 9.37017 22.0961 9.34137 22.0918 9.31257V9.28789C22.0368 9.292 21.9733 9.28789 21.897 9.27555C21.8928 9.24675 21.9098 9.22618 21.9479 9.21795L22.3586 9.18093L22.5492 9.13567C22.5492 9.15624 22.5619 9.16447 22.5746 9.16447C22.5957 9.16447 22.6212 9.15213 22.655 9.12745C22.7524 9.13979 22.8117 9.1439 22.8244 9.13979C22.9006 9.06985 22.9896 9.01226 23.087 8.97523C23.0446 8.93409 23.0234 8.90118 23.0192 8.87238L22.744 8.89707C22.744 8.8765 22.7313 8.85181 22.7143 8.81479C22.7143 8.7901 22.7736 8.76542 22.9006 8.74074L22.9557 8.76131L23.0065 8.73251C23.0065 8.74896 23.0192 8.75719 23.0361 8.75308L23.087 8.72428C23.087 8.74074 23.0997 8.74896 23.1166 8.74485L23.142 8.74074L23.1378 8.68726C23.0997 8.69137 22.998 8.69137 22.8371 8.68726L22.7863 8.72017L22.7821 8.69137C21.4905 8.79422 20.758 8.85181 20.5843 8.86827C20.5632 8.86827 20.47 8.86827 20.3133 8.86415C20.3133 8.88472 20.2964 8.89707 20.2583 8.89707L20.2032 8.87238L20.0127 8.91764C19.9703 8.92175 19.8941 8.91764 19.7883 8.90941C19.7586 8.92998 19.7247 8.94643 19.6824 8.95055C19.64 8.95466 20.7071 8.89295 20.6733 8.8765L20.5081 8.92175L20.4827 8.92586C20.415 8.92998 20.3303 8.92998 20.2286 8.91764C20.199 8.9382 20.1567 8.95466 20.0931 8.95877C20.0508 8.96289 20.0127 8.95466 19.983 8.93821C19.9365 8.95055 19.801 8.98346 19.5723 9.0246ZM19.64 9.18915C19.64 9.21082 19.6612 9.21949 19.6951 9.21515L19.6993 9.27149L19.6443 9.27582C19.6019 9.28015 19.5638 9.27149 19.5342 9.25415C19.5045 9.28015 19.4664 9.29315 19.4283 9.29749H19.4453L19.2928 9.28015L19.2886 9.25415C19.4749 9.24115 19.5342 9.21949 19.64 9.18915ZM19.794 9.17992L19.8319 9.1727L19.8373 9.26659L19.729 9.28103C19.729 9.23048 19.7452 9.19436 19.794 9.17992ZM20.1058 9.1439L20.1101 9.18182C20.0466 9.18723 19.9661 9.2089 19.8687 9.24682L19.8391 9.25223L19.8645 9.1764L20.1058 9.1439ZM17.7011 9.45793L17.8047 9.44349L17.8 9.3496L17.6964 9.36404L17.7011 9.45793ZM18.3655 9.35452L18.3993 9.3496L18.4628 9.37914C18.4671 9.42346 18.4459 9.44808 18.4078 9.44808L18.3146 9.45793L18.3104 9.42346C18.3062 9.38899 18.3273 9.36929 18.3655 9.35452ZM20.4954 9.47301V9.53802L20.3049 9.58135V9.51635L20.4954 9.47301ZM19.9492 9.55118L19.9534 9.62701L19.8433 9.64868L19.8391 9.57285L19.9492 9.55118ZM20.4742 9.59232L20.8554 9.53061L21.0501 9.53884L21.0544 9.56764C20.9612 9.57586 20.8808 9.59232 20.813 9.617C20.813 9.59643 20.7749 9.57998 20.6987 9.57175L20.398 9.65403C20.3387 9.62112 20.3091 9.59643 20.3091 9.57998L20.4742 9.59232ZM20.0974 9.67499C20.1355 9.66828 20.1524 9.69511 20.1567 9.75548L19.9957 9.78231L19.9915 9.69511L20.0974 9.67499ZM19.7628 9.67909L19.7671 9.72122L20.758 9.65502L20.7537 9.61289L19.7628 9.67909ZM19.8221 9.73219V9.79128L19.6062 9.84053V9.78143L19.8221 9.73219ZM18.4036 10.8224L18.4087 10.8512L18.4861 10.8471C18.4861 10.8265 18.4913 10.7977 18.5119 10.7607L18.5067 10.7072C18.4655 10.7113 18.4294 10.7483 18.4036 10.8224ZM16.2633 13.8996L16.2704 13.9305C16.2775 13.977 16.242 14.0028 16.171 14.0079L16.1639 13.977C16.1568 13.9357 16.1923 13.9151 16.2633 13.8996ZM16.1677 14.0148C16.172 14.0683 16.1339 14.1999 16.0576 14.4138L15.9645 14.4221C15.9602 14.385 16.0111 14.2534 16.1085 14.023L16.1677 14.0148ZM17.1883 14.8746C17.1925 14.9076 17.1417 14.9452 17.0443 14.9829L16.858 14.9688L16.7987 14.9735L16.7944 14.9123L17.1883 14.8746ZM17.3703 14.8911L17.3746 14.9561L17.2221 14.9886L17.2179 14.9236L17.3703 14.8911ZM23.0446 8.967C22.9769 9.26732 22.8668 9.48947 22.7185 9.63757L22.6127 9.57175C22.727 9.28789 22.7821 9.12333 22.7778 9.08219L22.7482 9.03694C22.7101 9.04105 22.6593 9.13979 22.5957 9.33726L22.5407 9.34137C22.5365 9.30434 22.528 9.27555 22.5111 9.24675L22.4856 9.25086C21.986 10.6043 21.7615 11.2338 21.3 12.2746C21.2153 12.542 21.1433 12.6901 21.0798 12.7189C21.084 12.7477 21.101 12.7642 21.1348 12.76C21.1475 12.8917 21.1137 13.0192 21.0417 13.1467C20.8257 13.7433 20.686 14.0724 20.614 14.13L20.6606 14.4138C20.6648 14.4426 20.6479 14.4632 20.614 14.4632L20.5632 14.4673C20.5547 14.3892 20.5251 14.3521 20.4742 14.3562L20.4488 14.3604C20.3853 14.4591 20.3345 14.5743 20.3006 14.7059L20.3514 14.7018C20.4192 14.6607 20.4488 14.6113 20.4446 14.5496L20.5462 14.5414L20.6013 14.5619C20.5547 14.6319 20.5335 14.6895 20.5378 14.7306L20.5632 14.7759L20.4997 14.924L20.5039 14.9486C20.5632 14.9445 20.6267 14.961 20.6944 15.0021C20.741 14.998 20.7918 14.9774 20.8469 14.9445C20.9062 14.9404 21.1179 14.9363 21.4905 14.9363L21.6769 14.8746C21.9055 14.8705 21.9394 14.8787 22.1384 14.8623L22.2189 14.854L22.2612 14.8252L22.2655 14.8499C22.4687 14.8335 22.4856 14.8458 22.6466 14.8664L22.6508 14.8911L22.5365 14.8993L22.5407 14.9445C22.5746 14.9404 22.6042 14.9322 22.6296 14.9116C22.6593 14.9075 22.6762 14.924 22.6804 14.9569C22.6339 14.961 22.583 14.9733 22.5238 14.9898L22.4729 14.9733C22.3925 14.9939 22.4094 14.998 22.3586 15.0021L22.2782 14.9857C22.2782 14.998 22.2739 15.0062 22.2612 15.0104C22.2655 15.0392 22.2782 15.0556 22.3078 15.0515L22.4052 15.0433L22.3628 15.0268C22.3628 15.0392 22.3713 15.0474 22.3883 15.0474L22.8075 15.0104L22.9684 14.9774C22.9684 14.9898 22.9769 14.998 22.9896 14.998L23.0658 14.9692L23.2098 14.9569C23.3241 14.9486 23.3198 14.9404 23.5612 14.9034C23.5612 14.8911 23.5655 14.8828 23.5782 14.8828V14.9034C24.0397 14.8293 23.9974 14.8335 24.0948 14.8005L24.0736 14.7512C23.9423 14.78 23.9466 14.7635 23.8788 14.7717L23.5273 14.7882L23.5231 14.7635L23.7179 14.7388L23.7899 14.7347L23.828 14.7059L23.8322 14.7306C24.1075 14.7059 24.2049 14.7759 25.4879 14.5126C25.5557 14.5085 25.5514 14.4509 25.5938 14.3357C25.5684 14.3357 25.5472 14.3316 25.526 14.3192C25.4202 14.3604 25.3651 14.3398 25.1619 14.3727C25.1449 14.3727 25.1322 14.3604 25.1238 14.3274V14.3069L25.3185 14.3151C25.3524 14.311 25.4286 14.3069 25.5303 14.2493C25.5514 14.2616 25.5133 14.274 25.5345 14.2698L25.5684 14.2657C25.5896 14.2657 25.598 14.2493 25.598 14.2164L25.5769 14.1711C25.4456 14.1835 25.3821 14.1876 25.2762 14.2452L25.272 14.2205L25.1111 14.2369C25.1068 14.1876 25.0941 14.167 25.0729 14.167L24.9883 14.1752C24.8909 14.1835 24.8443 14.1793 24.7977 14.2164C24.7977 14.1999 24.7892 14.1917 24.7808 14.1917L24.6876 14.1999L24.6326 14.2287C24.6326 14.2123 24.6241 14.204 24.6156 14.204L24.5817 14.2328L24.5775 14.2081L24.4505 14.1999L24.4208 14.204L24.4251 14.2493L24.4928 14.2657L24.5521 14.2616C24.5733 14.274 24.5987 14.2781 24.6241 14.2781L24.6791 14.2534V14.274C24.3785 14.348 24.3785 14.3316 24.171 14.3686C24.1456 14.3521 24.1286 14.348 24.1202 14.348C24.099 14.3686 24.1456 14.3521 24.1329 14.3521C24.099 14.3562 24.0821 14.3398 24.0778 14.311L24.1837 14.2986C24.1922 14.2986 24.1964 14.3069 24.2557 14.3192C24.3404 14.2781 24.3446 14.2616 24.3912 14.2575L24.387 14.2123C24.0905 14.2698 24.2091 14.2328 23.8365 14.2616H23.8195L23.8153 14.2164C24.2938 14.1588 24.1329 14.1917 24.2938 14.1464C24.2938 14.1629 24.3023 14.1711 24.3107 14.1711C24.3277 14.1547 24.3531 14.1423 24.3785 14.1423L24.4124 14.1382C24.5775 14.1259 24.6368 14.1588 24.9671 14.0683V14.0888L25.0221 14.0642L25.0729 14.06C25.0687 14.0107 25.1449 14.0066 25.1661 14.0024L25.1619 13.9531C24.5817 14.0683 24.4293 14.0354 24.2684 14.0806V14.06C24.1159 14.0888 24.1117 14.0724 24.0736 14.0765C24.0609 14.0765 24.044 14.0888 24.027 14.1053C24.027 14.0888 24.0185 14.0806 24.0058 14.0806C23.9804 14.0806 23.9931 14.0888 23.972 14.1094L24.0058 14.0806L23.5019 14.1588C23.5019 14.1464 23.4935 14.1382 23.4808 14.1382C23.2267 14.1917 23.2944 14.1999 22.9514 14.2287C22.9345 14.2287 22.9133 14.2369 22.8879 14.2534C22.8879 14.2411 22.8795 14.2328 22.8625 14.2328L22.6508 14.2493L22.5111 14.2822C22.5111 14.2698 22.5026 14.2616 22.4856 14.2616C22.4052 14.2822 22.3374 14.2945 22.2824 14.2986H22.2782C22.2443 14.3028 22.2951 14.2904 22.2697 14.2781L22.2273 14.3028C22.1638 14.3069 22.1977 14.2986 21.986 14.3028C21.6133 14.348 21.6557 14.3521 21.6133 14.3562L21.4736 14.348C21.4736 14.3604 21.4694 14.3686 21.4524 14.3727C21.2957 14.3521 21.2153 14.3274 21.2111 14.2986C21.2322 14.1547 21.2661 14.0806 21.3212 14.0724L21.3466 14.0683L21.3212 14.1176L21.3466 14.1135C21.3974 14.0888 21.4185 14.0642 21.4185 14.0395L21.4143 13.9901L21.3635 13.9942L21.3593 13.949C21.355 13.9119 21.3593 13.8831 21.372 13.8543L21.4863 13.6774L21.4905 13.7227L21.5456 13.7186L21.5413 13.6733L21.5117 13.6281C21.5498 13.5952 21.5837 13.5746 21.6091 13.5746L21.6049 13.5499L21.5329 13.554L21.5286 13.4841C21.6726 13.1879 21.7446 13.0151 21.7404 12.9699L21.7912 12.9904C21.8251 12.9863 21.842 12.9699 21.8378 12.9369L21.787 12.9411V12.9205C21.7827 12.8835 21.7912 12.8505 21.8039 12.8217C21.8843 12.7436 21.9182 12.6613 21.9098 12.5749C21.9267 12.5749 21.9352 12.5831 21.9352 12.5996C22.0029 12.5626 22.0537 12.4638 22.0918 12.2993C22.2104 12.0895 22.3798 11.6699 22.6 11.0445C23.0234 9.93789 23.0065 9.81858 23.0658 9.55941L23.015 9.56352C23.0192 9.59643 23.0107 9.62934 22.9938 9.65814C22.9599 9.6458 22.9303 9.63757 22.9133 9.63757V9.617C22.9049 9.52238 22.9472 9.40719 23.0404 9.27143H23.0615L23.1039 9.43188L23.1547 9.42776C23.1547 9.41542 23.1674 9.35371 23.1928 9.23441C23.1886 9.20972 23.1716 9.19738 23.1335 9.19327L23.087 9.22207C23.0827 9.18915 23.087 9.10276 23.0912 8.95877L23.0446 8.967ZM22.4399 9.67876L22.4669 9.6746C22.4263 9.74126 22.3947 9.77876 22.3631 9.78293L22.3586 9.7121C22.3812 9.70793 22.4083 9.6996 22.4399 9.67876ZM22.2231 10.1724C22.2739 9.9708 22.3247 9.85561 22.3713 9.82681L22.3756 9.8515C22.3501 10.0407 22.3078 10.1354 22.2485 10.1436L22.257 10.2629C22.2104 10.3246 22.1892 10.374 22.1935 10.411L22.1681 10.4151L22.1554 10.2505C22.1808 10.2464 22.2062 10.2217 22.2231 10.1724ZM22.1656 10.4398C22.171 10.4686 22.1441 10.5344 22.0956 10.6331L22.0633 10.6373L22.058 10.5673C22.0956 10.485 22.1333 10.4439 22.1656 10.4398ZM20.7495 13.4439L20.7853 13.5101C20.839 13.5041 20.8629 13.4801 20.8569 13.4379L20.851 13.4018L20.8152 13.4078L20.7495 13.4439ZM21.4185 13.9695V13.9901C21.4567 13.986 21.4948 13.9202 21.5286 13.7926L21.4778 13.7762C21.4355 13.8873 21.4185 13.949 21.4185 13.9695ZM25.7131 14.1163V14.1389L25.6615 14.1931L25.7596 14.1615H25.7699L25.7647 14.1118H25.7441L25.708 14.1389C25.708 14.1253 25.8163 14.0983 25.7338 14.0847C25.7183 14.1073 25.7596 14.1118 25.7131 14.1163ZM25.869 14.3247L25.9834 14.305C25.9791 14.2361 25.9071 14.2164 25.8817 14.2164H25.8648L25.869 14.3247ZM23.8449 14.3028L23.8788 14.3705C23.8788 14.3502 23.883 14.3366 23.8957 14.3366L23.9212 14.4111L23.8153 14.3908C23.8068 14.3366 23.8195 14.3095 23.8449 14.3028ZM23.4977 14.3402C23.5358 14.332 23.5612 14.3816 23.5612 14.4477H23.4427V14.4064C23.4554 14.3981 23.4765 14.3816 23.4977 14.3402ZM23.7751 14.3274L23.7796 14.3924L23.6758 14.4141L23.6713 14.3491L23.7751 14.3274ZM22.7863 14.4281C22.7863 14.4416 22.7948 14.4505 22.8117 14.4505C22.9684 14.4191 22.9514 14.4146 23.0277 14.4057C23.0531 14.4012 23.0658 14.4191 23.07 14.4505L22.6339 14.4909L22.6762 14.5133L22.672 14.4864L22.5068 14.4999L22.5026 14.4729L22.6508 14.4595L22.7863 14.4281ZM23.2352 14.3892V14.4384C23.2225 14.4384 23.2775 14.4482 23.2521 14.4975C23.1589 14.4778 23.1547 14.4581 23.087 14.4679V14.4187L23.2352 14.3892ZM23.3731 14.3768V14.431L23.2648 14.4526V14.3985L23.3731 14.3768ZM20.6843 14.7964L20.6927 14.9038C20.6427 14.9101 20.601 14.8849 20.5843 14.8343V14.8027L20.6843 14.7964ZM24.2599 14.7347L24.2642 14.78L24.3488 14.7717L24.315 14.7512L24.3192 14.7759L24.4039 14.743C24.984 14.6812 25.0518 14.7059 25.0433 14.6401V14.6195C24.4589 14.7471 24.3827 14.7224 24.2599 14.7347ZM25.167 14.6907L25.2702 14.7196L25.265 14.6402L25.1619 14.6113L25.167 14.6907ZM22.6593 14.8201C22.6847 14.8418 22.6296 14.8634 22.6635 14.8562L22.9599 14.8129L22.9641 14.8562C22.8795 14.8707 22.8244 14.8923 22.8075 14.9212C22.8075 14.8923 22.799 14.8779 22.7821 14.8779L22.655 14.8996L22.6508 14.8562C22.6847 14.849 22.6339 14.849 22.6593 14.8201ZM24.0313 14.7976L24.0567 14.8677C24.1541 14.8359 24.099 14.8422 24.1244 14.8104C24.1244 14.8359 24.1329 14.8486 24.1413 14.8486L24.2091 14.8423L24.2049 14.7658L24.027 14.7594L24.0313 14.7976ZM22.3874 15.0241H22.344L22.3332 14.9157H22.3765L22.3874 15.0241ZM21.029 15.1184L21.0332 15.1434L21.8124 15.0809L21.8081 15.035L21.1856 15.085L21.0544 15.0684L21.029 15.1184ZM21.9036 15.1351H21.9253L21.9145 15.0268H21.8928L21.9036 15.1351ZM10.0404 11.098C9.48989 11.7357 9.20617 12.0854 9.185 12.1553C8.96057 12.3816 8.85047 12.5173 8.86318 12.5626C8.80389 12.5996 8.77849 12.6366 8.78696 12.6778C8.77002 12.6819 8.75731 12.6736 8.75308 12.6572C8.65569 12.8094 8.51595 12.904 8.32539 12.9493L8.12637 12.9945C8.10096 12.9986 8.08826 13.0192 8.08826 13.0521L8.09249 13.0768L8.16871 13.0604L8.17295 13.0809L8.00357 13.1426L7.70292 13.2085L7.54624 13.2167C7.52507 13.2373 7.66904 13.2126 7.61399 13.229L7.4192 13.2743C7.30064 13.3031 7.23288 13.2907 7.22441 13.2455L7.20324 13.2496C7.21595 13.2949 7.20324 13.3236 7.16937 13.3319L7.20748 13.3236L7.19054 13.2537L6.83484 13.336L6.87295 13.3524C6.86871 13.336 6.85178 13.3319 6.8179 13.3401L6.77132 13.3771L6.71627 13.3648C6.66546 13.3936 6.63158 13.41 6.62311 13.41L6.56806 13.3977C6.41985 13.48 6.52995 13.48 6.52148 13.48L6.53419 13.5252L6.61888 13.5047L6.75015 13.4964L6.73744 13.5499C6.25471 13.6733 6.60617 13.6034 6.4749 13.6322L6.4495 13.6363L6.4622 13.6816L6.53842 13.6651L6.54266 13.6898C6.44526 13.7104 6.39021 13.7309 6.37327 13.7515L6.36904 13.7268C6.242 13.7556 6.11497 13.8502 5.98793 14.0066C6.00911 14.0971 5.73386 14.2081 7.02963 13.9161C7.11855 13.9119 7.16937 13.9119 7.18207 13.9078C7.17783 13.8914 7.1863 13.8831 7.20324 13.879C7.34722 13.8626 7.27946 13.8873 7.36839 13.8667L7.64787 13.805L7.58858 13.8379C7.58435 13.8255 7.59282 13.8173 7.60552 13.8132C7.6394 13.8214 7.67327 13.8173 7.71138 13.8091L7.72832 13.879L6.62311 15.5822L6.37751 15.8784L6.25894 16.2692L6.28011 16.2651L6.39868 16.2157L6.36057 16.368L6.37327 16.4132L6.40715 16.4543C6.39021 16.4585 6.38598 16.4667 6.39021 16.4831L6.39445 16.5078L6.44526 16.4955C6.51725 16.4338 6.54689 16.3762 6.53842 16.3268C6.61888 16.3392 6.66969 16.3433 6.6951 16.3392L6.69933 16.3638C6.65275 16.3762 6.62735 16.4132 6.62311 16.4749L6.62735 16.4996L6.65275 16.4955C7.05503 16.0717 8.03321 14.6195 8.82083 13.6322C8.79542 13.5252 9.20617 13.3771 10.0531 13.1879L10.0785 13.1838C10.1081 13.3113 10.0446 13.624 9.8837 14.1217C9.77783 14.4221 9.73126 14.5866 9.73549 14.6113C9.59999 15.0104 9.53647 15.2243 9.54494 15.2572L9.24428 16.2116C9.0495 16.7012 8.90129 17.2154 8.79966 17.7585C8.8166 17.7543 8.84624 17.7585 8.88012 17.7667L8.92246 17.7297C8.92669 17.7461 8.93516 17.7502 8.95634 17.7502L8.9394 17.6803L9.07067 17.6762C9.10878 17.668 9.14266 17.6186 9.16806 17.5322C9.16383 17.4047 9.18924 17.3347 9.24852 17.3183C9.32897 17.0138 9.37979 16.8575 9.39673 16.8534C9.47295 16.549 9.528 16.3762 9.56611 16.3309C9.68044 15.936 9.7609 15.7303 9.81594 15.718L9.82865 15.7673L9.74819 15.9771C9.60422 16.5983 9.45601 17.092 9.3078 17.454L9.35015 17.635L9.37556 17.6309C9.73549 16.8822 10.2479 15.4012 10.9212 13.1879C10.9423 12.9945 11.0355 12.8423 11.2091 12.7354L11.171 12.6983L11.1668 12.6778C11.243 12.6613 11.298 12.6325 11.3277 12.5914C11.3234 12.5749 11.2557 12.5502 11.1244 12.5173L11.5225 10.8635C11.641 10.3699 11.7215 9.93789 11.7638 9.55941L11.7596 9.53472C11.6791 9.48536 11.5987 9.41542 11.5267 9.32491V9.22618L11.5225 9.20561L11.5013 9.20972C11.2557 9.57175 10.7645 10.2012 10.0404 11.098ZM10.6036 11.4724C10.6247 11.5588 10.5909 11.7192 10.5062 11.9537C10.4808 12.2499 10.3707 12.4186 10.1801 12.4638L10.1759 12.4392L10.0065 12.5009L9.93028 12.5173C9.89217 12.5255 9.85829 12.5255 9.82442 12.5132L9.80748 12.4474C9.80324 12.4227 10.0446 12.0936 10.5443 11.4642L10.6036 11.4724ZM10.214 12.5009L10.269 12.4885L10.2817 12.5338C10.015 12.6119 9.86676 12.6531 9.83712 12.6613C9.82018 12.6654 9.79477 12.6778 9.76513 12.7024C9.7609 12.686 9.72702 12.686 9.65927 12.6983C9.64656 12.6531 9.83288 12.5873 10.214 12.5009ZM7.59076 13.2386L7.67998 13.217L7.66086 13.1303L7.57165 13.152L7.59076 13.2386ZM8.35927 12.9945L8.37197 13.0862L8.24494 13.1029L8.2407 13.0529L8.35927 12.9945ZM6.89964 13.4676L6.90506 13.5326L6.80214 13.576L6.79673 13.511L6.89964 13.4676ZM6.72897 13.7737L6.73321 13.8229L6.63582 13.8722L6.62311 13.7638L6.72897 13.7737ZM6.96187 13.7186L6.96611 13.7547L6.78826 13.8269L6.78402 13.7908L6.96187 13.7186ZM7.27099 13.6692L7.27523 13.6939L6.80943 13.7967L6.79673 13.7515C7.06774 13.7062 7.03809 13.7227 7.27099 13.6692ZM9.60422 13.1426L9.64233 13.1838C9.58728 13.1961 9.54494 13.2126 9.52376 13.2331L9.46871 13.2249C9.38402 13.2578 9.3078 13.2825 9.24852 13.2949L9.1977 13.3072C9.16806 13.3154 9.14689 13.3031 9.13419 13.2743L9.48565 13.1961L9.60422 13.1426ZM9.85406 13.0892L10.1039 13.0316L10.1081 13.0562C9.97262 13.085 9.86676 13.118 9.79054 13.155L9.7863 13.1303C9.80748 13.1262 9.82865 13.1097 9.85406 13.0892ZM7.22865 13.7803L7.34722 13.7556L7.35992 13.8009C7.3091 13.8132 7.34722 13.8132 7.2837 13.842C7.1609 13.8543 7.1863 13.8379 6.99152 13.8831L6.98728 13.8585L7.22865 13.7803ZM7.55047 13.7289C7.58435 13.7137 7.60552 13.7365 7.60976 13.7976L7.53777 13.8281C7.50813 13.8434 7.48695 13.8205 7.47425 13.7594L7.55047 13.7289ZM6.22615 16.3451L6.2362 16.3776C6.31654 16.3667 6.34666 16.3451 6.32658 16.3017L6.31654 16.2692C6.24624 16.28 6.21611 16.3017 6.22615 16.3451ZM6.32669 16.7519C6.33588 16.7887 6.35424 16.8045 6.39096 16.794C6.42768 16.7835 6.44145 16.7624 6.43227 16.7204L6.42768 16.6888L6.3726 16.7046L6.32669 16.7519ZM9.03213 17.4467C9.06981 17.4356 9.08865 17.4522 9.09807 17.4909L9.10278 17.524L8.99445 17.5516C9.00387 17.5074 9.00387 17.4743 8.99916 17.4522L9.03213 17.4467Z" fill="black"/>
</svg>
