<svg width="26" height="26" viewBox="0 0 26 26" fill="none" xmlns="http://www.w3.org/2000/svg">
<g clip-path="url(#clip0)">
<path d="M11.8437 25.994C10.3892 26.0424 8.97523 25.8025 7.60966 25.3228C3.88819 24.0153 2.04099 21.2126 1.50908 17.4505C0.946215 13.4621 1.52068 9.61683 3.20927 5.95339C3.62513 5.05204 4.19186 4.24353 4.82049 3.4679C6.10095 1.88763 7.89012 1.50271 9.76053 1.29188C10.6174 1.19517 11.4781 1.13714 12.335 1.0501C12.9288 0.99014 13.5574 1.19324 13.9656 0.409869C14.1725 0.0152853 14.8843 -0.135585 15.3679 0.139076C17.0565 1.09459 18.9037 1.73676 20.4665 2.95339C24.658 6.21451 26.2499 10.4698 25.3795 15.6381C24.54 20.6304 21.335 23.5801 16.7315 25.2029C15.159 25.76 13.5226 26.0327 11.8437 25.994ZM2.90366 14.2029C2.92107 15.319 2.9849 16.435 3.20153 17.5356C3.62513 19.7019 4.51488 21.6807 6.50908 22.7329C8.87078 23.9785 11.4781 24.4195 14.1745 24.1758C16.304 23.9843 18.2209 23.2899 19.8031 21.8296C22.1803 19.6342 23.4452 16.8683 23.8031 13.6787C24.2731 9.50078 22.4897 5.9766 18.9598 4.05204C18.689 3.90503 18.4027 3.58975 18.0893 3.75416C17.217 4.21258 16.5671 3.7 15.8611 3.34991C15.3195 3.08105 14.7818 2.77157 14.2054 2.61683C11.9559 2.00561 9.86691 2.69614 7.78954 3.48144C6.17252 4.09072 5.07774 5.32863 4.4201 6.77737C3.36401 9.10039 2.83209 11.6072 2.90366 14.2029Z" fill="#D7DDE1"/>
<path d="M13.4341 19.4737C10.9873 19.4002 8.8248 18.6691 7.19231 16.7368C6.65846 16.1062 6.42441 15.3519 6.35672 14.5395C6.33737 14.3229 6.23486 14.0231 6.52306 13.9766C6.68167 13.9515 6.87896 14.1643 6.97761 14.3964C7.33737 15.2552 7.8306 15.938 8.70488 16.4447C10.2561 17.3461 11.8616 17.8103 13.643 17.7793C15.612 17.7445 17.2639 17.0134 18.6198 15.5975C18.8364 15.3712 19.0356 15.0192 19.3954 15.2629C19.7532 15.5047 19.4805 15.8393 19.3741 16.1101C18.7532 17.6826 17.5347 18.5917 15.966 19.0675C15.1459 19.3171 14.3122 19.5298 13.4341 19.4737Z" fill="#D7DDE1"/>
<path d="M18.1612 10.818C18.0316 11.3673 17.9117 11.994 17.1477 11.9804C16.3546 11.9669 16.2038 11.3634 16.1844 10.7193C16.1612 9.99205 16.6293 9.65356 17.256 9.6729C17.8846 9.69225 18.2386 10.1062 18.1612 10.818Z" fill="#D7DDE1"/>
<path d="M10.1554 10.7754C9.95426 11.1197 10.0877 11.8122 9.30822 11.8025C8.5558 11.7928 8.14381 11.4118 8.11673 10.6478C8.09352 9.99786 8.33723 9.43307 9.04517 9.52591C9.60029 9.59941 10.1206 9.97659 10.1554 10.7754Z" fill="#D7DDE1"/>
</g>
<defs>
<clipPath id="clip0">
<rect width="26" height="26" fill="white"/>
</clipPath>
</defs>
</svg>
