<svg width="26" height="26" viewBox="0 0 26 26" fill="none" xmlns="http://www.w3.org/2000/svg">
<path d="M23.961 14.95H18.3276C18.1492 14.9473 17.9759 15.0065 17.8399 15.1165C17.7038 15.2266 17.6143 15.38 17.5881 15.5483C17.4299 16.6024 16.8793 17.5669 16.0368 18.2654C15.1943 18.9639 14.1163 19.3497 13 19.3523L14.5255 26C17.2034 25.6669 19.6785 24.4616 21.532 22.588C23.3854 20.7144 24.5034 18.2876 24.6967 15.7182C24.7064 15.6206 24.6946 15.5222 24.662 15.4292C24.6295 15.3363 24.5768 15.2509 24.5075 15.1785C24.4382 15.1061 24.3538 15.0484 24.2596 15.009C24.1655 14.9697 24.0638 14.9496 23.961 14.95Z" fill="#2684FF"/>
<path d="M14.2308 14.7802L22.4883 8.01644C22.5703 7.95012 22.6362 7.86753 22.6814 7.77441C22.7266 7.68128 22.75 7.57987 22.75 7.47722C22.75 7.37457 22.7266 7.27315 22.6814 7.18003C22.6362 7.08691 22.5703 7.00431 22.4883 6.938L14.2308 0.174243C14.1236 0.0851894 13.992 0.0273515 13.8514 0.00757771C13.7109 -0.0121961 13.5674 0.00692246 13.4379 0.0626695C13.3084 0.118416 13.1984 0.208457 13.1207 0.32213C13.0431 0.435804 13.0012 0.568348 13 0.70407V14.2316C12.9991 14.3682 13.0393 14.5022 13.1157 14.6177C13.1922 14.7332 13.3017 14.8253 13.4313 14.8831C13.5609 14.9408 13.7051 14.9619 13.8468 14.9436C13.9885 14.9254 14.1218 14.8687 14.2308 14.7802Z" fill="#2684FF"/>
<path d="M1.9502 16.3874C2.30786 19.0467 3.62505 21.4867 5.65724 23.2546C7.68943 25.0224 10.2985 25.9979 13.0002 26V19.31C12.4227 19.3109 11.8506 19.1989 11.3166 18.9803C10.7827 18.7617 10.2973 18.4408 9.88825 18.036C9.47918 17.6311 9.15443 17.1502 8.93252 16.6207C8.71061 16.0912 8.5959 15.5235 8.59493 14.95L1.9502 16.3874Z" fill="url(#paint0_linear)"/>
<path d="M1.9502 14.8366V14.95H8.63787C8.63981 13.7124 9.10038 12.5262 9.91837 11.6522C10.7364 10.7781 11.8448 10.2877 13.0002 10.2888L11.5656 3.25C8.92924 3.6179 6.50533 4.99229 4.73897 7.12077C2.97262 9.24924 1.98241 11.9889 1.9502 14.8366Z" fill="url(#paint1_linear)"/>
<defs>
<linearGradient id="paint0_linear" x1="7.4752" y1="4.09015" x2="7.4752" y2="19.1746" gradientUnits="userSpaceOnUse">
<stop stop-color="#0052CC"/>
<stop offset="1" stop-color="#2684FF"/>
</linearGradient>
<linearGradient id="paint1_linear" x1="277.206" y1="169.741" x2="277.206" y2="652.249" gradientUnits="userSpaceOnUse">
<stop stop-color="#0052CC"/>
<stop offset="1" stop-color="#2684FF"/>
</linearGradient>
</defs>
</svg>
