<svg fill="none" xmlns="http://www.w3.org/2000/svg" viewBox="0 0 135 63">
  <path d="M99 0H36v63h63V0z" fill="url(#paint0_linear)"/>
  <path d="M52.5 50.4H68.8a14.3 14.3 0 000-28.7 16 16 0 00-4.9.7v-9.9H52.5v37.9z" fill="#FFBF0B"/>
  <path d="M68.8 50.7H52.5a.3.3 0 01-.4-.3V12.5c0-.2.2-.3.4-.3h11.4c.2 0 .3.1.3.3V22a14.7 14.7 0 114.6 28.8zm-16-.6h16a14 14 0 000-28.1c-1.6 0-3.4.3-4.8.7-.2.1-.4 0-.4-.2v-9.7H52.8v37.3z" fill="#000"/>
  <path d="M61.6 25.9V14.7H55v33.5h6.7v-2" fill="#fff"/>
  <path d="M61.6 48.5H55a.3.3 0 01-.4-.3V14.7c0-.2.2-.3.4-.3h6.7c.2 0 .4.1.4.3v11.2h-.7V15h-6.1V48h6v-1.7h.7v2c0 .2-.1.3-.3.3z" fill="#000"/>
  <path d="M81.3 36a12.4 12.4 0 11-25 0 12.4 12.4 0 0125 0z" fill="#fff"/>
  <path d="M68.9 48.8a12.8 12.8 0 010-25.6 12.8 12.8 0 010 25.6zm0-25a12.1 12.1 0 000 24.3 12.1 12.1 0 000-24.3z" fill="#000"/>
  <path d="M68.9 47a11 11 0 010-22.1 11 11 0 010 22.1zm0-21.4a10.4 10.4 0 000 20.8 10.4 10.4 0 000-20.8z" fill="#000"/>
  <path d="M69 35.8l-.5.4L80.1 48l.5-.5L69 35.8z" fill="#000"/>
  <path d="M80.5 47l.6.6v.2l-.6.6h-.2l-.7-.6v-.2l.7-.7h.2z" fill="#000"/>
  <path d="M80.4 48.8c-.2 0-.3 0-.4-.2l-.6-.6-.2-.3c0-.2 0-.3.2-.4l.6-.6.4-.2s.2 0 .3.2l.6.6c.2.2.2.5 0 .7l-.6.6-.3.2zm-.4-1.1l.4.3.3-.3-.3-.4-.4.4zM79.7 24.3l.6-.7h.2l.6.7c.1 0 .1.1 0 .2l-.6.6h-.2l-.6-.6v-.2z" fill="#000"/>
  <path d="M80.4 25.5c-.1 0-.2 0-.3-.2l-.7-.6-.1-.3.1-.4.7-.6c.2-.2.5-.2.7 0l.6.6.1.4-.1.3-.6.6-.4.2zm-.4-1.1l.4.3.4-.3-.4-.4-.4.4z" fill="#000"/>
  <path d="M80.2 24.1L68.6 35.7l.5.5 11.5-11.6-.4-.5z" fill="#000"/>
  <path d="M72.3 36a3.5 3.5 0 11-7 0 3.5 3.5 0 017 0z" fill="#FFBF0B"/>
  <path d="M68.9 39.8a3.8 3.8 0 010-7.7 3.8 3.8 0 010 7.7zm0-7a3.2 3.2 0 000 6.3c1.7 0 3.1-1.4 3.1-3.1 0-1.8-1.4-3.2-3.1-3.2z" fill="#000"/>
  <path d="M70.5 36a1.7 1.7 0 11-3.3 0 1.7 1.7 0 113.3 0z" fill="#fff"/>
  <path d="M68.9 38a2 2 0 010-4 2 2 0 010 4zm0-3.3a1.3 1.3 0 000 2.6c.7 0 1.3-.6 1.3-1.3 0-.8-.6-1.3-1.3-1.3z" fill="#000"/>
  <path d="M71.6 34l-5.7 3.6.3.6 5.7-3.7-.3-.5z" fill="#000"/>
  <path d="M66.2 34l-.3.5 5.7 3.7.3-.6-5.7-3.6z" fill="#000"/>
  <path d="M63.8 41V31h5v-3.3h-4.7v-1.5h-7.7v2.3H60v15h-3.7v2.2H64v-1.5H69V41h-5z" fill="#FFBF0B"/>
  <path d="M64.1 46h-7.7a.3.3 0 01-.4-.3v-2.3c0-.2.2-.3.4-.3h3.4V28.8h-3.4a.3.3 0 01-.4-.3v-2.3c0-.2.2-.3.4-.3H64c.2 0 .4.1.4.3v1.2h4.4c.2 0 .3.1.3.3v3.2c0 .2-.1.4-.3.4h-4.7v9.3h4.7c.1 0 .3.2.3.4v3.2c0 .2-.2.4-.3.4h-4.4v1c0 .3-.2.4-.4.4zm-7.4-.7h7.1v-1c0-.3.1-.4.3-.4h4.4v-2.6h-4.7a.3.3 0 01-.3-.3V31c0-.2.1-.4.3-.4h4.7V28h-4.4a.3.3 0 01-.3-.3v-1.1h-7V28H60c.2 0 .3.2.3.4v15c0 .1-.1.3-.3.3h-3.4v1.5z" fill="#000"/>
  <path d="M69.2 27.7h-.7v16.5h.7V27.7z" fill="#000"/>
  <defs>
    <linearGradient id="paint0_linear" x1="67.5" y1="0" x2="67.5" y2="63" gradientUnits="userSpaceOnUse">
      <stop stop-color="#FFBF0B"/>
      <stop offset="1" stop-color="#FF9D0B"/>
    </linearGradient>
  </defs>
</svg>
