<svg width="26" height="26" viewBox="0 0 26 26" fill="none" xmlns="http://www.w3.org/2000/svg">
<g clip-path="url(#clip0)">
<path d="M23.4328 15.9095C22.8772 15.9095 22.4451 15.4762 22.3834 14.919C22.013 9.59524 19.1115 2.10476 13.7407 2.10476C9.29597 2.10476 5.9624 5.2 3.80174 11.3286C3.61655 11.8857 2.99922 12.1952 2.44362 11.9476C1.88802 11.7619 1.57936 11.1429 1.82629 10.6476C4.29561 3.59048 8.30825 0 13.7407 0C20.84 0 24.1119 9.0381 24.4823 14.7952C24.544 15.3524 24.1119 15.9095 23.4945 15.9095H23.4328Z" fill="black"/>
<path opacity="0.4" d="M25.9022 17.9525L7.38235 25.6287L0.0361328 7.80008L3.36971 6.43817L18.6177 0.185791L25.9022 17.9525Z" fill="#FFE000"/>
<path d="M25.0378 19.9952L5.40675 24.0809L1.51758 5.19997L4.78942 4.51902L21.1486 1.11426L25.0378 19.9952Z" fill="#FFE000"/>
<path d="M13.4939 19.8095C9.91337 19.8095 6.45632 18.2619 4.04874 15.5381C3.74007 15.2905 3.67834 14.8571 3.80181 14.4857C4.48087 12.6905 6.27112 8.54286 8.55524 8.48095C9.72817 8.48095 10.5924 9.40952 11.2715 10.1524C11.4567 10.4 11.7654 10.7095 12.0123 10.8952C12.5679 10.3381 13.6173 8.60476 14.4199 6.80952C14.6668 6.25238 15.2841 6.06667 15.8397 6.31429C16.3953 6.56191 16.5805 7.18095 16.3336 7.7381C13.8643 13.1238 12.5679 13.1238 12.074 13.1238C11.0863 13.1238 10.4072 12.381 9.72817 11.6381C9.4195 11.3286 8.80217 10.6476 8.55524 10.6476C7.99965 10.7095 6.82672 12.6286 6.02419 14.6714C8.06138 16.7143 10.8394 17.8286 13.6791 17.7667C16.1484 17.7667 20.5314 17.3333 22.3217 14.6714C21.8278 9.34762 18.9264 2.16667 13.6791 2.16667C13.1235 2.16667 12.6296 1.67143 12.6296 1.11429C12.6296 0.557143 13.1235 0 13.7408 0C20.8401 0 24.1119 9.0381 24.4823 14.7952C24.4823 14.981 24.4206 15.2286 24.3589 15.4143C22.6921 18.2619 18.9264 19.8714 13.7408 19.8714C13.6791 19.8095 13.5556 19.8095 13.4939 19.8095Z" fill="black"/>
</g>
<defs>
<clipPath id="clip0">
<rect width="25.9278" height="26" fill="white" transform="translate(0.0361328)"/>
</clipPath>
</defs>
</svg>
