<svg viewBox="0 0 41 36" fill="none" xmlns="http://www.w3.org/2000/svg"><path fill-rule="evenodd" clip-rule="evenodd" d="M21.18 4.116c-9.943 0-15.09 8.429-17.943 16.518a1.623 1.623 0 01-3.06-1.08C3.067 11.363 8.922.871 21.18.871c6.373 0 10.959 4.213 13.947 9.342 2.994 5.14 4.594 11.516 4.955 16.664.022.322-.052.644-.213.923-1.705 2.959-4.547 4.899-7.816 6.093-3.261 1.192-7.05 1.682-10.86 1.683a22.51 22.51 0 01-4.77-.438h-.001a22.284 22.284 0 01-4.58-1.449h-.001a22.323 22.323 0 01-4.165-2.393 22.266 22.266 0 01-3.56-3.227 1.623 1.623 0 01-.31-1.642l1.522.563c-1.522-.563-1.521-.563-1.521-.564l.003-.01.01-.024a15.289 15.289 0 01.155-.4c.106-.27.26-.65.455-1.106.389-.909.947-2.13 1.616-3.364.661-1.218 1.468-2.517 2.37-3.534.83-.938 2.07-2.014 3.623-2.025h.01c1.101 0 2.016.504 2.694 1.009.683.508 1.307 1.157 1.82 1.7l.172.183c.473.501.848.899 1.206 1.198.125.104.222.174.294.22.15-.134.343-.339.574-.626.562-.697 1.187-1.67 1.787-2.701a60.441 60.441 0 002.143-4.077l.007-.017.002-.004a1.622 1.622 0 112.938 1.378l-1.469-.689a572.4 572.4 0 011.469.69l-.004.007-.01.02-.035.076-.134.278a64.906 64.906 0 01-2.102 3.969c-.628 1.08-1.35 2.22-2.066 3.107-.356.44-.752.873-1.174 1.208-.377.3-1.01.716-1.808.716-1.076 0-1.939-.602-2.492-1.065-.518-.433-1.037-.985-1.484-1.46a90.226 90.226 0 00-.173-.183c-.527-.558-.973-1.008-1.398-1.325-.42-.313-.652-.365-.75-.367-.08.004-.491.12-1.212.933-.663.748-1.333 1.8-1.947 2.93a37.83 37.83 0 00-1.682 3.562 19.032 19.032 0 004.093 3.156l.003.002a19.049 19.049 0 003.76 1.651 19.044 19.044 0 004.027.812c.684.062 1.37.088 2.057.077h.025c3.568 0 6.958-.462 9.76-1.486 2.613-.954 4.624-2.361 5.865-4.254-.4-4.656-1.88-10.277-4.482-14.745-2.706-4.644-6.415-7.73-11.143-7.73zm-3.147 16.311l.016-.008a.078.078 0 01-.016.008z" fill="#244850"/></svg>