<svg width="392" height="555" viewBox="0 0 392 555" fill="none" xmlns="http://www.w3.org/2000/svg">
<g filter="url(#filter0_i)">
<g clip-path="url(#clip0)">
<path d="M0 4.70396C0 2.10602 2.10605 0 4.704 0H390.955C391.532 0 392 0.468012 392 1.04533V552.981C392 553.559 391.532 554.027 390.955 554.027H3.65866C1.63803 554.027 0 552.389 0 550.368V4.70396Z" fill="#CFCFD0"/>
<g filter="url(#filter1_i)">
<rect width="392" height="554.027" fill="#EC1C24"/>
<path d="M135.819 133.582C135.819 138.811 134.619 143.611 132.219 147.982C129.819 152.268 126.133 155.74 121.162 158.397C116.19 161.054 110.018 162.383 102.647 162.383H89.0177V194.784H67.0312V104.524H102.647C109.847 104.524 115.933 105.767 120.905 108.252C125.876 110.738 129.605 114.167 132.091 118.539C134.577 122.91 135.819 127.925 135.819 133.582ZM100.975 144.897C105.175 144.897 108.304 143.911 110.361 141.939C112.419 139.968 113.447 137.182 113.447 133.582C113.447 129.982 112.419 127.196 110.361 125.224C108.304 123.253 105.175 122.267 100.975 122.267H89.0177V144.897H100.975Z" fill="white"/>
<path d="M189.833 194.784L171.061 160.711H165.79V194.784H143.803V104.524H180.704C187.819 104.524 193.862 105.767 198.834 108.252C203.891 110.738 207.662 114.167 210.148 118.539C212.634 122.824 213.877 127.625 213.877 132.939C213.877 138.939 212.163 144.297 208.734 149.011C205.391 153.725 200.419 157.068 193.819 159.04L214.648 194.784H189.833ZM165.79 145.154H179.419C183.447 145.154 186.447 144.168 188.419 142.196C190.476 140.225 191.505 137.439 191.505 133.839C191.505 130.41 190.476 127.71 188.419 125.739C186.447 123.767 183.447 122.782 179.419 122.782H165.79V145.154Z" fill="white"/>
<path d="M246.203 104.524V194.784H224.216V104.524H246.203Z" fill="white"/>
<path d="M254.945 149.525C254.945 140.611 256.873 132.682 260.731 125.739C264.588 118.71 269.945 113.267 276.803 109.41C283.746 105.467 291.589 103.495 300.332 103.495C311.047 103.495 320.218 106.324 327.847 111.981C335.476 117.638 340.576 125.353 343.148 135.125H318.975C317.175 131.353 314.604 128.482 311.261 126.51C308.004 124.539 304.275 123.553 300.075 123.553C293.303 123.553 287.817 125.91 283.617 130.625C279.417 135.339 277.317 141.639 277.317 149.525C277.317 157.411 279.417 163.712 283.617 168.426C287.817 173.14 293.303 175.498 300.075 175.498C304.275 175.498 308.004 174.512 311.261 172.54C314.604 170.569 317.175 167.697 318.975 163.926H343.148C340.576 173.698 335.476 181.412 327.847 187.07C320.218 192.641 311.047 195.427 300.332 195.427C291.589 195.427 283.746 193.498 276.803 189.641C269.945 185.698 264.588 180.255 260.731 173.312C256.873 166.369 254.945 158.44 254.945 149.525Z" fill="white"/>
<path d="M89.0177 205.524V295.784H67.0312V205.524H89.0177Z" fill="white"/>
<path d="M182.234 295.784H160.248L123.475 240.111V295.784H101.488V205.524H123.475L160.248 261.454V205.524H182.234V295.784Z" fill="white"/>
<path d="M254.625 234.068C252.997 231.067 250.639 228.796 247.554 227.253C244.554 225.624 240.996 224.81 236.882 224.81C229.767 224.81 224.067 227.167 219.781 231.882C215.495 236.511 213.352 242.725 213.352 250.525C213.352 258.84 215.581 265.354 220.038 270.069C224.581 274.698 230.796 277.012 238.682 277.012C244.082 277.012 248.625 275.641 252.311 272.898C256.083 270.155 258.826 266.212 260.54 261.069H232.639V244.868H280.469V265.312C278.84 270.797 276.055 275.898 272.112 280.612C268.254 285.327 263.326 289.141 257.325 292.055C251.325 294.97 244.554 296.427 237.01 296.427C228.096 296.427 220.124 294.498 213.095 290.641C206.152 286.698 200.709 281.255 196.766 274.312C192.909 267.369 190.98 259.44 190.98 250.525C190.98 241.611 192.909 233.682 196.766 226.739C200.709 219.71 206.152 214.267 213.095 210.41C220.038 206.467 227.967 204.495 236.882 204.495C247.682 204.495 256.768 207.109 264.14 212.338C271.597 217.567 276.526 224.81 278.926 234.068H254.625Z" fill="white"/>
<path d="M85.1557 383.882C80.9165 383.882 77.1178 383.194 73.7594 381.817C70.4011 380.441 67.7035 378.404 65.6665 375.706C63.6845 373.009 62.6385 369.76 62.5284 365.962H77.5582C77.7784 368.109 78.5216 369.76 79.7879 370.917C81.0541 372.018 82.7058 372.568 84.7428 372.568C86.8348 372.568 88.4865 372.1 89.6976 371.164C90.9088 370.173 91.5144 368.825 91.5144 367.118C91.5144 365.686 91.0189 364.503 90.028 363.567C89.0921 362.631 87.9084 361.86 86.477 361.255C85.1006 360.649 83.1187 359.961 80.5311 359.19C76.7874 358.034 73.7319 356.878 71.3646 355.722C68.9973 354.565 66.9603 352.859 65.2536 350.602C63.5469 348.344 62.6936 345.399 62.6936 341.765C62.6936 336.37 64.648 332.158 68.5568 329.13C72.4657 326.047 77.5582 324.506 83.8344 324.506C90.2207 324.506 95.3682 326.047 99.2771 329.13C103.186 332.158 105.278 336.398 105.553 341.848H90.2757C90.1656 339.976 89.4774 338.517 88.2112 337.471C86.9449 336.37 85.3208 335.819 83.3389 335.819C81.6322 335.819 80.2558 336.287 79.2098 337.223C78.1638 338.104 77.6408 339.398 77.6408 341.105C77.6408 342.977 78.5216 344.435 80.2834 345.482C82.0451 346.528 84.7978 347.656 88.5415 348.867C92.2852 350.134 95.3132 351.345 97.6255 352.501C99.9928 353.657 102.03 355.336 103.736 357.538C105.443 359.741 106.296 362.576 106.296 366.044C106.296 369.348 105.443 372.348 103.736 375.046C102.085 377.743 99.6625 379.89 96.4693 381.487C93.2762 383.084 89.505 383.882 85.1557 383.882Z" fill="#111111"/>
<path d="M153.228 325.332V336.645H137.868V383.304H123.746V336.645H108.386V325.332H153.228Z" fill="#111111"/>
<path d="M186.416 383.304L174.36 361.42H170.974V383.304H156.852V325.332H180.553C185.123 325.332 189.004 326.13 192.197 327.727C195.445 329.323 197.868 331.525 199.464 334.333C201.061 337.086 201.859 340.169 201.859 343.582C201.859 347.436 200.758 350.877 198.556 353.905C196.409 356.933 193.216 359.08 188.976 360.346L202.355 383.304H186.416ZM170.974 351.427H179.727C182.315 351.427 184.242 350.794 185.508 349.528C186.829 348.262 187.49 346.472 187.49 344.16C187.49 341.958 186.829 340.224 185.508 338.958C184.242 337.691 182.315 337.058 179.727 337.058H170.974V351.427Z" fill="#111111"/>
<path d="M243.349 373.064H221.713L218.244 383.304H203.462L224.438 325.332H240.789L261.765 383.304H246.818L243.349 373.064ZM239.715 362.163L232.531 340.94L225.429 362.163H239.715Z" fill="#111111"/>
<path d="M306.39 325.332V336.645H291.029V383.304H276.908V336.645H261.548V325.332H306.39Z" fill="#111111"/>
<path d="M324.135 336.645V348.372H343.047V359.273H324.135V371.99H345.524V383.304H310.014V325.332H345.524V336.645H324.135Z" fill="#111111"/>
<path d="M102.663 415.665C101.617 413.738 100.103 412.279 98.1209 411.288C96.194 410.242 93.9093 409.719 91.2667 409.719C86.6972 409.719 83.0361 411.233 80.2834 414.261C77.5307 417.234 76.1543 421.225 76.1543 426.235C76.1543 431.575 77.5857 435.76 80.4485 438.788C83.3664 441.76 87.3578 443.247 92.4228 443.247C95.8913 443.247 98.8091 442.366 101.176 440.604C103.599 438.843 105.361 436.31 106.462 433.007H88.5415V422.602H119.262V435.732C118.216 439.255 116.426 442.531 113.894 445.559C111.417 448.587 108.251 451.037 104.397 452.909C100.543 454.781 96.194 455.717 91.3493 455.717C85.6236 455.717 80.5036 454.478 75.9891 452.001C71.5298 449.468 68.0338 445.972 65.5013 441.513C63.0239 437.053 61.7852 431.961 61.7852 426.235C61.7852 420.509 63.0239 415.417 65.5013 410.958C68.0338 406.443 71.5298 402.947 75.9891 400.47C80.4485 397.937 85.5411 396.671 91.2667 396.671C98.2035 396.671 104.039 398.35 108.774 401.708C113.564 405.067 116.729 409.719 118.271 415.665H102.663Z" fill="#111111"/>
<path d="M137.743 397.332V455.304H123.621V397.332H137.743Z" fill="#111111"/>
<path d="M158.635 408.645V420.372H177.546V431.273H158.635V443.99H180.023V455.304H144.513V397.332H180.023V408.645H158.635Z" fill="#111111"/>
<path d="M206.704 455.882C202.465 455.882 198.666 455.194 195.308 453.817C191.95 452.441 189.252 450.404 187.215 447.706C185.233 445.009 184.187 441.76 184.077 437.962H199.107C199.327 440.109 200.07 441.76 201.336 442.917C202.603 444.018 204.254 444.568 206.291 444.568C208.383 444.568 210.035 444.1 211.246 443.164C212.457 442.173 213.063 440.825 213.063 439.118C213.063 437.686 212.568 436.503 211.577 435.567C210.641 434.631 209.457 433.86 208.026 433.255C206.649 432.649 204.667 431.961 202.08 431.19C198.336 430.034 195.281 428.878 192.913 427.722C190.546 426.565 188.509 424.859 186.802 422.602C185.095 420.344 184.242 417.399 184.242 413.765C184.242 408.37 186.197 404.158 190.105 401.13C194.014 398.047 199.107 396.506 205.383 396.506C211.769 396.506 216.917 398.047 220.826 401.13C224.735 404.158 226.827 408.398 227.102 413.848H211.824C211.714 411.976 211.026 410.517 209.76 409.471C208.494 408.37 206.869 407.819 204.887 407.819C203.181 407.819 201.804 408.287 200.758 409.223C199.712 410.104 199.189 411.398 199.189 413.105C199.189 414.977 200.07 416.435 201.832 417.482C203.594 418.528 206.346 419.656 210.09 420.867C213.834 422.134 216.862 423.345 219.174 424.501C221.541 425.657 223.578 427.336 225.285 429.538C226.992 431.741 227.845 434.576 227.845 438.044C227.845 441.348 226.992 444.348 225.285 447.046C223.633 449.743 221.211 451.89 218.018 453.487C214.825 455.084 211.054 455.882 206.704 455.882Z" fill="#111111"/>
<path d="M67.8711 66.1422C67.8711 65.2 68.0749 64.362 68.4826 63.6281C68.8903 62.8852 69.4565 62.31 70.1813 61.9023C70.9151 61.4855 71.7441 61.2772 72.6681 61.2772C73.8006 61.2772 74.7699 61.5761 75.5762 62.1741C76.3825 62.772 76.9216 63.5874 77.1934 64.6202H74.6386C74.4483 64.2215 74.1765 63.918 73.8232 63.7097C73.479 63.5013 73.0849 63.3971 72.6409 63.3971C71.9252 63.3971 71.3454 63.6463 70.9015 64.1445C70.4576 64.6428 70.2356 65.3087 70.2356 66.1422C70.2356 66.9756 70.4576 67.6415 70.9015 68.1398C71.3454 68.6381 71.9252 68.8872 72.6409 68.8872C73.0849 68.8872 73.479 68.783 73.8232 68.5747C74.1765 68.3663 74.4483 68.0628 74.6386 67.6642H77.1934C76.9216 68.697 76.3825 69.5123 75.5762 70.1102C74.7699 70.6991 73.8006 70.9936 72.6681 70.9936C71.7441 70.9936 70.9151 70.7897 70.1813 70.382C69.4565 69.9653 68.8903 69.39 68.4826 68.6562C68.0749 67.9224 67.8711 67.0844 67.8711 66.1422Z" fill="#111111"/>
<path d="M80.8994 61.3859V67.0934C80.8994 67.6642 81.0399 68.1036 81.3207 68.4116C81.6016 68.7196 82.0138 68.8736 82.5573 68.8736C83.1009 68.8736 83.5177 68.7196 83.8076 68.4116C84.0975 68.1036 84.2424 67.6642 84.2424 67.0934V61.3859H86.5662V67.0798C86.5662 67.9314 86.385 68.6517 86.0226 69.2405C85.6602 69.8294 85.171 70.2733 84.555 70.5723C83.948 70.8712 83.2685 71.0207 82.5166 71.0207C81.7646 71.0207 81.0897 70.8758 80.4918 70.5859C79.9029 70.2869 79.4363 69.843 79.0921 69.2541C78.7478 68.6562 78.5757 67.9314 78.5757 67.0798V61.3859H80.8994Z" fill="#111111"/>
<path d="M91.6497 71.0207C90.9521 71.0207 90.327 70.9075 89.7743 70.681C89.2217 70.4545 88.7778 70.1193 88.4426 69.6754C88.1164 69.2315 87.9443 68.697 87.9262 68.0718H90.3994C90.4357 68.4252 90.558 68.697 90.7664 68.8872C90.9747 69.0684 91.2465 69.159 91.5817 69.159C91.926 69.159 92.1978 69.082 92.3971 68.928C92.5964 68.7649 92.696 68.5429 92.696 68.2621C92.696 68.0265 92.6145 67.8318 92.4514 67.6778C92.2974 67.5237 92.1026 67.3969 91.8671 67.2973C91.6406 67.1976 91.3145 67.0844 90.8887 66.9575C90.2726 66.7673 89.7698 66.577 89.3802 66.3868C88.9907 66.1965 88.6555 65.9157 88.3746 65.5442C88.0938 65.1728 87.9534 64.6881 87.9534 64.0902C87.9534 63.2023 88.275 62.5093 88.9182 62.011C89.5614 61.5037 90.3995 61.25 91.4322 61.25C92.4831 61.25 93.3302 61.5037 93.9734 62.011C94.6167 62.5093 94.9609 63.2069 95.0062 64.1038H92.4922C92.4741 63.7957 92.3608 63.5557 92.1525 63.3835C91.9441 63.2023 91.6768 63.1117 91.3507 63.1117C91.0699 63.1117 90.8434 63.1887 90.6712 63.3428C90.4991 63.4877 90.413 63.7006 90.413 63.9815C90.413 64.2895 90.558 64.5296 90.8479 64.7017C91.1378 64.8738 91.5908 65.0595 92.2068 65.2589C92.8229 65.4672 93.3212 65.6665 93.7017 65.8568C94.0912 66.047 94.4264 66.3234 94.7073 66.6857C94.9881 67.0481 95.1285 67.5147 95.1285 68.0854C95.1285 68.629 94.9881 69.1228 94.7073 69.5667C94.4355 70.0106 94.0369 70.3639 93.5114 70.6266C92.986 70.8894 92.3654 71.0207 91.6497 71.0207Z" fill="#111111"/>
<path d="M103.421 61.3859V63.2476H100.894V70.9256H98.5698V63.2476H96.0422V61.3859H103.421Z" fill="#111111"/>
<path d="M109.099 71.0207C108.202 71.0207 107.378 70.8124 106.626 70.3956C105.883 69.9789 105.29 69.3991 104.846 68.6562C104.411 67.9042 104.193 67.0617 104.193 66.1286C104.193 65.1954 104.411 64.3574 104.846 63.6145C105.29 62.8717 105.883 62.2918 106.626 61.8751C107.378 61.4584 108.202 61.25 109.099 61.25C109.996 61.25 110.816 61.4584 111.559 61.8751C112.311 62.2918 112.9 62.8717 113.325 63.6145C113.76 64.3574 113.978 65.1954 113.978 66.1286C113.978 67.0617 113.76 67.9042 113.325 68.6562C112.891 69.3991 112.302 69.9789 111.559 70.3956C110.816 70.8124 109.996 71.0207 109.099 71.0207ZM109.099 68.9008C109.86 68.9008 110.467 68.6471 110.92 68.1398C111.382 67.6325 111.613 66.962 111.613 66.1286C111.613 65.286 111.382 64.6156 110.92 64.1173C110.467 63.61 109.86 63.3563 109.099 63.3563C108.329 63.3563 107.713 63.6055 107.251 64.1038C106.798 64.602 106.571 65.277 106.571 66.1286C106.571 66.9711 106.798 67.646 107.251 68.1534C107.713 68.6517 108.329 68.9008 109.099 68.9008Z" fill="#111111"/>
<path d="M126.074 61.3859V70.9256H123.75V65.2045L121.617 70.9256H119.741L117.594 65.1909V70.9256H115.27V61.3859H118.016L120.693 67.9903L123.343 61.3859H126.074Z" fill="#111111"/>
<path d="M134.077 71.0207C133.379 71.0207 132.754 70.9075 132.201 70.681C131.649 70.4545 131.205 70.1193 130.869 69.6754C130.543 69.2315 130.371 68.697 130.353 68.0718H132.826C132.863 68.4252 132.985 68.697 133.193 68.8872C133.402 69.0684 133.673 69.159 134.009 69.159C134.353 69.159 134.625 69.082 134.824 68.928C135.023 68.7649 135.123 68.5429 135.123 68.2621C135.123 68.0265 135.041 67.8318 134.878 67.6778C134.724 67.5237 134.53 67.3969 134.294 67.2973C134.067 67.1976 133.741 67.0844 133.316 66.9575C132.699 66.7673 132.197 66.577 131.807 66.3868C131.418 66.1965 131.082 65.9157 130.801 65.5442C130.521 65.1728 130.38 64.6881 130.38 64.0902C130.38 63.2023 130.702 62.5093 131.345 62.011C131.988 61.5037 132.826 61.25 133.859 61.25C134.91 61.25 135.757 61.5037 136.4 62.011C137.044 62.5093 137.388 63.2069 137.433 64.1038H134.919C134.901 63.7957 134.788 63.5557 134.579 63.3835C134.371 63.2023 134.104 63.1117 133.778 63.1117C133.497 63.1117 133.27 63.1887 133.098 63.3428C132.926 63.4877 132.84 63.7006 132.84 63.9815C132.84 64.2895 132.985 64.5296 133.275 64.7017C133.565 64.8738 134.018 65.0595 134.634 65.2589C135.25 65.4672 135.748 65.6665 136.129 65.8568C136.518 66.047 136.853 66.3234 137.134 66.6857C137.415 67.0481 137.555 67.5147 137.555 68.0854C137.555 68.629 137.415 69.1228 137.134 69.5667C136.862 70.0106 136.464 70.3639 135.938 70.6266C135.413 70.8894 134.792 71.0207 134.077 71.0207Z" fill="#111111"/>
<path d="M143.497 71.0207C142.6 71.0207 141.776 70.8124 141.024 70.3956C140.281 69.9789 139.688 69.3991 139.244 68.6562C138.809 67.9042 138.591 67.0617 138.591 66.1286C138.591 65.1954 138.809 64.3574 139.244 63.6145C139.688 62.8717 140.281 62.2918 141.024 61.8751C141.776 61.4584 142.6 61.25 143.497 61.25C144.394 61.25 145.214 61.4584 145.957 61.8751C146.709 62.2918 147.298 62.8717 147.723 63.6145C148.158 64.3574 148.376 65.1954 148.376 66.1286C148.376 67.0617 148.158 67.9042 147.723 68.6562C147.289 69.3991 146.7 69.9789 145.957 70.3956C145.214 70.8124 144.394 71.0207 143.497 71.0207ZM143.497 68.9008C144.258 68.9008 144.865 68.6471 145.318 68.1398C145.78 67.6325 146.011 66.962 146.011 66.1286C146.011 65.286 145.78 64.6156 145.318 64.1173C144.865 63.61 144.258 63.3563 143.497 63.3563C142.727 63.3563 142.111 63.6055 141.649 64.1038C141.196 64.602 140.969 65.277 140.969 66.1286C140.969 66.9711 141.196 67.646 141.649 68.1534C142.111 68.6517 142.727 68.9008 143.497 68.9008Z" fill="#111111"/>
<path d="M155.879 61.3859V63.2476H151.992V65.2589H154.9V67.0662H151.992V70.9256H149.668V61.3859H155.879Z" fill="#111111"/>
<path d="M163.963 61.3859V63.2476H161.435V70.9256H159.111V63.2476H156.584V61.3859H163.963Z" fill="#111111"/>
<path d="M178.256 61.3859L175.769 70.9256H172.956L171.434 64.6473L169.858 70.9256H167.045L164.626 61.3859H167.113L168.486 68.33L170.184 61.3859H172.739L174.37 68.33L175.756 61.3859H178.256Z" fill="#111111"/>
<path d="M185.36 69.2405H181.8L181.229 70.9256H178.797L182.248 61.3859H184.939L188.391 70.9256H185.931L185.36 69.2405ZM184.762 67.4467L183.58 63.9543L182.411 67.4467H184.762Z" fill="#111111"/>
<path d="M194.306 70.9256L192.322 67.3244H191.765V70.9256H189.441V61.3859H193.341C194.093 61.3859 194.732 61.5173 195.257 61.78C195.792 62.0427 196.191 62.4051 196.453 62.8671C196.716 63.3201 196.847 63.8274 196.847 64.3891C196.847 65.0233 196.666 65.5895 196.304 66.0878C195.95 66.5861 195.425 66.9394 194.727 67.1478L196.929 70.9256H194.306ZM191.765 65.6801H193.205C193.631 65.6801 193.948 65.5759 194.157 65.3676C194.374 65.1592 194.483 64.8648 194.483 64.4843C194.483 64.1219 194.374 63.8365 194.157 63.6281C193.948 63.4198 193.631 63.3156 193.205 63.3156H191.765V65.6801Z" fill="#111111"/>
<path d="M200.63 63.2476V65.1773H203.742V66.9711H200.63V69.0639H204.149V70.9256H198.306V61.3859H204.149V63.2476H200.63Z" fill="#111111"/>
<path d="M212.112 61.3859C213.117 61.3859 213.996 61.5852 214.748 61.9838C215.5 62.3824 216.08 62.9441 216.488 63.6689C216.904 64.3846 217.113 65.2136 217.113 66.1557C217.113 67.0889 216.904 67.9178 216.488 68.6426C216.08 69.3674 215.496 69.9291 214.735 70.3277C213.983 70.7263 213.108 70.9256 212.112 70.9256H208.538V61.3859H212.112ZM211.962 68.9144C212.841 68.9144 213.525 68.6743 214.014 68.1941C214.504 67.714 214.748 67.0345 214.748 66.1557C214.748 65.277 214.504 64.593 214.014 64.1038C213.525 63.6145 212.841 63.3699 211.962 63.3699H210.862V68.9144H211.962Z" fill="#111111"/>
<path d="M220.735 63.2476V65.1773H223.847V66.9711H220.735V69.0639H224.255V70.9256H218.411V61.3859H224.255V63.2476H220.735Z" fill="#111111"/>
<path d="M234.719 61.3859L231.335 70.9256H228.427L225.043 61.3859H227.516L229.881 68.5882L232.259 61.3859H234.719Z" fill="#111111"/>
<path d="M238.014 63.2476V65.1773H241.126V66.9711H238.014V69.0639H241.533V70.9256H235.69V61.3859H241.533V63.2476H238.014Z" fill="#111111"/>
<path d="M245.366 69.1318H248.41V70.9256H243.042V61.3859H245.366V69.1318Z" fill="#111111"/>
<path d="M254.03 71.0207C253.133 71.0207 252.309 70.8124 251.557 70.3956C250.814 69.9789 250.22 69.3991 249.776 68.6562C249.342 67.9042 249.124 67.0617 249.124 66.1286C249.124 65.1954 249.342 64.3574 249.776 63.6145C250.22 62.8717 250.814 62.2918 251.557 61.8751C252.309 61.4584 253.133 61.25 254.03 61.25C254.927 61.25 255.747 61.4584 256.49 61.8751C257.241 62.2918 257.83 62.8717 258.256 63.6145C258.691 64.3574 258.908 65.1954 258.908 66.1286C258.908 67.0617 258.691 67.9042 258.256 68.6562C257.821 69.3991 257.232 69.9789 256.49 70.3956C255.747 70.8124 254.927 71.0207 254.03 71.0207ZM254.03 68.9008C254.791 68.9008 255.398 68.6471 255.851 68.1398C256.313 67.6325 256.544 66.962 256.544 66.1286C256.544 65.286 256.313 64.6156 255.851 64.1173C255.398 63.61 254.791 63.3563 254.03 63.3563C253.26 63.3563 252.644 63.6055 252.182 64.1038C251.729 64.602 251.502 65.277 251.502 66.1286C251.502 66.9711 251.729 67.646 252.182 68.1534C252.644 68.6517 253.26 68.9008 254.03 68.9008Z" fill="#111111"/>
<path d="M267.472 64.4571C267.472 65.0097 267.345 65.5171 267.091 65.9791C266.837 66.4321 266.448 66.799 265.922 67.0798C265.397 67.3607 264.745 67.5011 263.965 67.5011H262.525V70.9256H260.201V61.3859H263.965C264.727 61.3859 265.37 61.5173 265.895 61.78C266.421 62.0427 266.815 62.4051 267.077 62.8671C267.34 63.3292 267.472 63.8592 267.472 64.4571ZM263.789 65.6529C264.233 65.6529 264.563 65.5488 264.781 65.3404C264.998 65.132 265.107 64.8376 265.107 64.4571C265.107 64.0766 264.998 63.7821 264.781 63.5738C264.563 63.3654 264.233 63.2612 263.789 63.2612H262.525V65.6529H263.789Z" fill="#111111"/>
<path d="M279.485 61.3859V70.9256H277.161V65.2045L275.028 70.9256H273.152L271.005 65.1909V70.9256H268.681V61.3859H271.426L274.103 67.9903L276.753 61.3859H279.485Z" fill="#111111"/>
<path d="M283.48 63.2476V65.1773H286.592V66.9711H283.48V69.0639H286.999V70.9256H281.156V61.3859H286.999V63.2476H283.48Z" fill="#111111"/>
<path d="M297.042 70.9256H294.718L290.832 65.0414V70.9256H288.508V61.3859H290.832L294.718 67.2973V61.3859H297.042V70.9256Z" fill="#111111"/>
<path d="M305.589 61.3859V63.2476H303.061V70.9256H300.738V63.2476H298.21V61.3859H305.589Z" fill="#111111"/>
<path d="M79.0691 507.136V516.676H76.7454V510.954L74.6118 516.676H72.7365L70.5894 510.941V516.676H68.2656V507.136H71.0107L73.6878 513.74L76.3377 507.136H79.0691Z" fill="white"/>
<path d="M86.6787 514.991H83.1183L82.5476 516.676H80.1151L83.5668 507.136H86.2575L89.7092 516.676H87.2495L86.6787 514.991ZM86.0808 513.197L84.8985 509.704L83.7299 513.197H86.0808Z" fill="white"/>
<path d="M94.3337 507.136C95.3393 507.136 96.2181 507.335 96.97 507.734C97.722 508.132 98.3018 508.694 98.7094 509.419C99.1262 510.135 99.3346 510.964 99.3346 511.906C99.3346 512.839 99.1262 513.668 98.7094 514.393C98.3018 515.117 97.7174 515.679 96.9564 516.078C96.2045 516.476 95.3302 516.676 94.3337 516.676H90.7597V507.136H94.3337ZM94.1842 514.664C95.063 514.664 95.747 514.424 96.2362 513.944C96.7254 513.464 96.97 512.785 96.97 511.906C96.97 511.027 96.7254 510.343 96.2362 509.854C95.747 509.365 95.063 509.12 94.1842 509.12H93.0835V514.664H94.1842Z" fill="white"/>
<path d="M104.207 507.136C105.213 507.136 106.092 507.335 106.844 507.734C107.595 508.132 108.175 508.694 108.583 509.419C109 510.135 109.208 510.964 109.208 511.906C109.208 512.839 109 513.668 108.583 514.393C108.175 515.117 107.591 515.679 106.83 516.078C106.078 516.476 105.204 516.676 104.207 516.676H100.633V507.136H104.207ZM104.058 514.664C104.936 514.664 105.62 514.424 106.11 513.944C106.599 513.464 106.844 512.785 106.844 511.906C106.844 511.027 106.599 510.343 106.11 509.854C105.62 509.365 104.936 509.12 104.058 509.12H102.957V514.664H104.058Z" fill="white"/>
<path d="M112.83 508.998V510.927H115.942V512.721H112.83V514.814H116.35V516.676H110.507V507.136H116.35V508.998H112.83Z" fill="white"/>
<path d="M126.814 507.136L123.43 516.676H120.522L117.138 507.136H119.612L121.976 514.338L124.354 507.136H126.814Z" fill="white"/>
<path d="M131.237 516.771C130.539 516.771 129.914 516.657 129.362 516.431C128.809 516.205 128.365 515.869 128.03 515.425C127.704 514.981 127.532 514.447 127.514 513.822H129.987C130.023 514.175 130.145 514.447 130.354 514.637C130.562 514.818 130.834 514.909 131.169 514.909C131.513 514.909 131.785 514.832 131.984 514.678C132.184 514.515 132.283 514.293 132.283 514.012C132.283 513.777 132.202 513.582 132.039 513.428C131.885 513.274 131.69 513.147 131.454 513.047C131.228 512.948 130.902 512.834 130.476 512.708C129.86 512.517 129.357 512.327 128.968 512.137C128.578 511.947 128.243 511.666 127.962 511.294C127.681 510.923 127.541 510.438 127.541 509.84C127.541 508.952 127.862 508.259 128.506 507.761C129.149 507.254 129.987 507 131.02 507C132.07 507 132.918 507.254 133.561 507.761C134.204 508.259 134.548 508.957 134.594 509.854H132.08C132.061 509.546 131.948 509.306 131.74 509.134C131.531 508.952 131.264 508.862 130.938 508.862C130.657 508.862 130.431 508.939 130.259 509.093C130.086 509.238 130 509.451 130 509.731C130 510.039 130.145 510.28 130.435 510.452C130.725 510.624 131.178 510.81 131.794 511.009C132.41 511.217 132.908 511.417 133.289 511.607C133.679 511.797 134.014 512.073 134.295 512.436C134.575 512.798 134.716 513.265 134.716 513.835C134.716 514.379 134.575 514.873 134.295 515.317C134.023 515.761 133.624 516.114 133.099 516.377C132.573 516.639 131.953 516.771 131.237 516.771Z" fill="white"/>
<path d="M137.233 516.784C136.825 516.784 136.49 516.667 136.227 516.431C135.974 516.186 135.847 515.887 135.847 515.534C135.847 515.172 135.974 514.868 136.227 514.624C136.49 514.379 136.825 514.257 137.233 514.257C137.632 514.257 137.958 514.379 138.212 514.624C138.474 514.868 138.606 515.172 138.606 515.534C138.606 515.887 138.474 516.186 138.212 516.431C137.958 516.667 137.632 516.784 137.233 516.784Z" fill="white"/>
<path d="M142.305 507.136V516.676H139.981V507.136H142.305Z" fill="white"/>
<path d="M148.501 516.771C147.604 516.771 146.779 516.562 146.027 516.146C145.285 515.729 144.691 515.149 144.247 514.406C143.812 513.654 143.595 512.812 143.595 511.879C143.595 510.945 143.812 510.107 144.247 509.365C144.691 508.622 145.285 508.042 146.027 507.625C146.779 507.208 147.604 507 148.501 507C149.398 507 150.217 507.208 150.96 507.625C151.712 508.042 152.301 508.622 152.727 509.365C153.162 510.107 153.379 510.945 153.379 511.879C153.379 512.812 153.162 513.654 152.727 514.406C152.292 515.149 151.703 515.729 150.96 516.146C150.217 516.562 149.398 516.771 148.501 516.771ZM148.501 514.651C149.262 514.651 149.869 514.397 150.322 513.89C150.784 513.382 151.015 512.712 151.015 511.879C151.015 511.036 150.784 510.366 150.322 509.867C149.869 509.36 149.262 509.106 148.501 509.106C147.731 509.106 147.115 509.355 146.653 509.854C146.2 510.352 145.973 511.027 145.973 511.879C145.973 512.721 146.2 513.396 146.653 513.903C147.115 514.402 147.731 514.651 148.501 514.651Z" fill="white"/>
<path fill-rule="evenodd" clip-rule="evenodd" d="M365.018 493.092L357.507 496.507L349.996 493.092C349.469 492.807 348.742 493.216 348.742 493.947V508.209C348.742 508.755 349.071 509.201 349.517 509.215C349.537 509.217 349.558 509.217 349.578 509.215H349.623L354.546 508.706L353.613 507.382C353.206 506.816 353.7 506.324 354.222 506.516C354.327 506.554 354.441 506.503 354.544 506.53L353.309 502.382C353.304 502.368 353.3 502.353 353.296 502.339L353.286 502.308V502.298C353.252 502.13 353.281 501.955 353.367 501.806C353.453 501.657 353.59 501.544 353.753 501.488C353.916 501.433 354.094 501.437 354.254 501.502C354.413 501.567 354.544 501.687 354.622 501.84V501.846C354.633 501.87 356.038 505.321 356.038 505.321C356.071 505.146 356.166 504.989 356.305 504.877C356.444 504.765 356.618 504.706 356.797 504.711C356.975 504.715 357.147 504.783 357.28 504.903C357.412 505.022 357.498 505.184 357.522 505.36C357.546 505.179 357.637 505.012 357.776 504.893C357.916 504.773 358.094 504.708 358.278 504.71C358.646 504.71 358.93 505.033 358.994 505.382L359.829 503.038C359.887 502.882 359.998 502.75 360.143 502.667C360.289 502.583 360.459 502.553 360.624 502.582C360.789 502.61 360.939 502.696 361.048 502.823C361.156 502.951 361.216 503.112 361.218 503.279V503.301L360.474 508.701L365.391 509.21H365.435C365.456 509.212 365.477 509.212 365.497 509.21C365.943 509.196 366.247 508.753 366.247 508.206V493.944C366.246 493.213 365.545 492.807 365.018 493.092Z" fill="white"/>
<path d="M362.926 511.751H361.382C361.283 511.751 361.187 511.79 361.117 511.86C361.046 511.931 361.007 512.026 361.007 512.125V517.608C361.007 517.707 361.046 517.802 361.117 517.872C361.187 517.942 361.283 517.981 361.382 517.981H362.926C365.228 517.981 366.388 516.735 366.388 514.879C366.388 513.023 365.228 511.751 362.926 511.751ZM363.413 516.085H363.011C362.944 516.085 362.881 516.059 362.834 516.012C362.787 515.965 362.76 515.902 362.76 515.836V513.87C362.76 513.803 362.787 513.74 362.834 513.693C362.881 513.647 362.944 513.62 363.011 513.62H363.386C363.914 513.62 364.262 514.06 364.262 514.879C364.262 515.698 363.944 516.086 363.416 516.086L363.413 516.085ZM348.993 517.981H350.119C350.219 517.981 350.314 517.942 350.385 517.872C350.455 517.802 350.495 517.707 350.495 517.608V515.863L351.059 517.025C351.091 517.087 351.139 517.14 351.199 517.177C351.259 517.214 351.328 517.233 351.399 517.232H351.414C351.482 517.233 351.549 517.215 351.607 517.18C351.666 517.146 351.714 517.096 351.746 517.036L352.372 515.864V517.608C352.372 517.707 352.412 517.803 352.482 517.873C352.552 517.943 352.648 517.982 352.747 517.982H353.874C353.923 517.982 353.972 517.972 354.018 517.954C354.063 517.935 354.105 517.907 354.139 517.873C354.174 517.838 354.202 517.797 354.221 517.751C354.24 517.706 354.249 517.657 354.249 517.608V512.125C354.249 512.076 354.24 512.027 354.221 511.982C354.202 511.936 354.174 511.895 354.139 511.86C354.105 511.826 354.063 511.798 354.018 511.779C353.972 511.761 353.923 511.751 353.874 511.751H352.656C352.588 511.751 352.521 511.769 352.463 511.804C352.404 511.84 352.357 511.89 352.325 511.95L351.371 513.745L350.416 511.95C350.384 511.89 350.336 511.84 350.278 511.805C350.219 511.77 350.153 511.752 350.084 511.752H348.993C348.893 511.752 348.798 511.791 348.727 511.861C348.657 511.931 348.617 512.026 348.617 512.126V517.608C348.617 517.707 348.657 517.802 348.727 517.872C348.798 517.942 348.893 517.981 348.993 517.981ZM358.63 517.38L358.725 517.711C358.747 517.789 358.794 517.858 358.859 517.907C358.924 517.956 359.004 517.982 359.085 517.982H360.128C360.187 517.982 360.245 517.969 360.297 517.943C360.349 517.917 360.395 517.879 360.43 517.832C360.464 517.785 360.488 517.731 360.498 517.674C360.508 517.616 360.505 517.557 360.488 517.502C360.113 516.262 359.124 512.989 358.836 512.032C358.813 511.955 358.765 511.888 358.701 511.84C358.636 511.793 358.558 511.767 358.477 511.767H356.78C356.7 511.767 356.621 511.793 356.557 511.841C356.492 511.889 356.444 511.956 356.421 512.033L354.77 517.502C354.752 517.558 354.748 517.618 354.758 517.676C354.768 517.733 354.791 517.788 354.826 517.835C354.861 517.882 354.907 517.921 354.959 517.947C355.012 517.973 355.07 517.987 355.129 517.987H356.218C356.299 517.987 356.379 517.96 356.444 517.911C356.509 517.862 356.556 517.794 356.579 517.716L356.673 517.385C356.696 517.307 356.743 517.238 356.808 517.189C356.873 517.141 356.953 517.114 357.034 517.114H358.269C358.35 517.114 358.429 517.139 358.494 517.188C358.559 517.236 358.607 517.303 358.63 517.38ZM357.127 515.666L357.627 513.922L358.128 515.666H357.127ZM350.495 519.102H348.993C348.893 519.102 348.798 519.141 348.727 519.211C348.657 519.281 348.617 519.376 348.617 519.476V523.463C348.617 523.563 348.657 523.658 348.727 523.728C348.798 523.798 348.893 523.837 348.993 523.837H350.62C352.343 523.837 353.123 522.856 353.123 521.47C353.123 520.083 352.217 519.102 350.495 519.102ZM350.62 522.341H350.369C350.336 522.341 350.304 522.328 350.281 522.305C350.257 522.281 350.244 522.25 350.244 522.217V520.721C350.244 520.688 350.257 520.656 350.281 520.633C350.304 520.61 350.336 520.596 350.369 520.596H350.62C351.106 520.596 351.371 520.856 351.371 521.469C351.371 522.082 351.105 522.343 350.62 522.343V522.341ZM365.617 521.202C365.455 521.094 365.11 520.973 364.579 520.839L364.317 520.774C364.299 520.77 364.272 520.763 364.236 520.753C363.837 520.653 363.638 520.528 363.638 520.378C363.635 520.332 363.644 520.287 363.664 520.246C363.684 520.205 363.714 520.17 363.752 520.144C363.858 520.086 363.979 520.059 364.1 520.068C364.243 520.059 364.385 520.093 364.508 520.166C364.604 520.232 364.775 520.341 364.797 520.475H365.753C365.791 520.475 365.828 520.466 365.862 520.45C365.896 520.434 365.926 520.41 365.949 520.381C365.973 520.351 365.989 520.317 365.998 520.281C366.006 520.244 366.006 520.206 365.997 520.169C365.93 519.866 365.755 519.597 365.504 519.412C365.102 519.124 364.618 518.972 364.123 518.978C363.62 518.97 363.128 519.128 362.724 519.428C362.384 519.684 362.168 519.988 362.168 520.437C362.178 520.662 362.238 520.882 362.343 521.082C362.435 521.261 362.57 521.415 362.737 521.53C362.873 521.613 363.019 521.68 363.171 521.728C363.369 521.799 363.636 521.878 363.972 521.964L364.16 522.01C364.569 522.113 364.774 522.246 364.775 522.41C364.775 522.46 364.762 522.509 364.736 522.551C364.71 522.594 364.672 522.629 364.628 522.651C364.504 522.716 364.365 522.746 364.225 522.739C364.021 522.739 363.868 522.703 363.765 522.632C363.662 522.563 363.584 522.383 363.545 522.217H362.46C362.423 522.217 362.386 522.225 362.352 522.241C362.319 522.256 362.289 522.28 362.265 522.308C362.242 522.337 362.225 522.371 362.216 522.407C362.207 522.443 362.206 522.48 362.214 522.516C362.29 522.881 362.449 523.198 362.728 523.409C363.082 523.678 363.52 523.836 364.122 523.836C364.777 523.836 365.319 523.678 365.67 523.409C366.021 523.141 366.174 522.717 366.174 522.216C366.174 521.984 366.15 521.824 366.058 521.654C365.95 521.469 365.799 521.314 365.617 521.202ZM361.546 519.102H360.482C360.394 519.102 360.309 519.132 360.241 519.188C360.174 519.245 360.128 519.322 360.112 519.408L359.668 521.843L359.224 519.408C359.208 519.322 359.162 519.245 359.095 519.188C359.028 519.132 358.942 519.102 358.855 519.102H357.789C357.731 519.102 357.674 519.115 357.622 519.141C357.569 519.167 357.524 519.204 357.489 519.251C357.454 519.297 357.43 519.351 357.42 519.408C357.409 519.465 357.412 519.524 357.428 519.579L358.588 523.567C358.61 523.645 358.658 523.713 358.723 523.762C358.788 523.81 358.867 523.837 358.948 523.837H360.386C360.468 523.837 360.547 523.81 360.612 523.762C360.677 523.713 360.725 523.645 360.747 523.567L361.906 519.579C361.923 519.524 361.926 519.465 361.915 519.408C361.905 519.351 361.881 519.297 361.846 519.251C361.811 519.205 361.766 519.167 361.714 519.141C361.662 519.115 361.604 519.102 361.546 519.102ZM356.627 519.102H353.873C353.824 519.102 353.775 519.111 353.73 519.13C353.684 519.149 353.643 519.176 353.608 519.211C353.573 519.246 353.545 519.287 353.526 519.332C353.507 519.378 353.498 519.426 353.498 519.476V523.463C353.498 523.563 353.537 523.658 353.608 523.728C353.678 523.798 353.774 523.837 353.873 523.837H356.627C356.726 523.837 356.822 523.798 356.892 523.728C356.963 523.658 357.002 523.563 357.002 523.463V522.84C357.002 522.774 356.976 522.711 356.929 522.664C356.882 522.617 356.818 522.591 356.752 522.591H355.125C355.092 522.591 355.06 522.578 355.036 522.555C355.013 522.531 355 522.5 355 522.467V522.217C355 522.184 355.013 522.153 355.036 522.129C355.06 522.106 355.092 522.093 355.125 522.093H356.376C356.409 522.093 356.442 522.086 356.472 522.074C356.503 522.061 356.53 522.043 356.553 522.02C356.577 521.996 356.595 521.969 356.608 521.939C356.62 521.909 356.627 521.876 356.627 521.843V521.096C356.627 521.03 356.6 520.966 356.553 520.919C356.506 520.873 356.443 520.846 356.376 520.846H355.125C355.092 520.846 355.06 520.833 355.036 520.81C355.013 520.787 355 520.755 355 520.722V520.473C355 520.439 355.013 520.408 355.036 520.384C355.06 520.361 355.092 520.348 355.125 520.348H356.753C356.785 520.348 356.818 520.341 356.848 520.329C356.879 520.316 356.906 520.298 356.93 520.275C356.953 520.252 356.971 520.224 356.984 520.194C356.996 520.164 357.003 520.131 357.003 520.099V519.476C357.003 519.426 356.993 519.378 356.974 519.332C356.955 519.287 356.928 519.246 356.893 519.211C356.858 519.176 356.816 519.149 356.771 519.13C356.725 519.111 356.676 519.102 356.627 519.102Z" fill="white"/>
</g>
<rect width="394.091" height="554.027" fill="url(#paint0_linear)" fill-opacity="0.75" style="mix-blend-mode:overlay"/>
<rect x="14.6328" width="14.112" height="554.027" fill="url(#paint1_linear)" style="mix-blend-mode:soft-light"/>
<rect width="14.112" height="554.027" fill="url(#paint2_linear)" style="mix-blend-mode:soft-light"/>
</g>
</g>
<defs>
<filter id="filter0_i" x="-1.568" y="-1.568" width="393.568" height="555.595" filterUnits="userSpaceOnUse" color-interpolation-filters="sRGB">
<feFlood flood-opacity="0" result="BackgroundImageFix"/>
<feBlend mode="normal" in="SourceGraphic" in2="BackgroundImageFix" result="shape"/>
<feColorMatrix in="SourceAlpha" type="matrix" values="0 0 0 0 0 0 0 0 0 0 0 0 0 0 0 0 0 0 127 0" result="hardAlpha"/>
<feOffset dx="-1.568" dy="-1.568"/>
<feGaussianBlur stdDeviation="1.04533"/>
<feComposite in2="hardAlpha" operator="arithmetic" k2="-1" k3="1"/>
<feColorMatrix type="matrix" values="0 0 0 0 0 0 0 0 0 0 0 0 0 0 0 0 0 0 0.5 0"/>
<feBlend mode="overlay" in2="shape" result="effect1_innerShadow"/>
</filter>
<filter id="filter1_i" x="-1.568" y="-1.568" width="393.568" height="555.595" filterUnits="userSpaceOnUse" color-interpolation-filters="sRGB">
<feFlood flood-opacity="0" result="BackgroundImageFix"/>
<feBlend mode="normal" in="SourceGraphic" in2="BackgroundImageFix" result="shape"/>
<feColorMatrix in="SourceAlpha" type="matrix" values="0 0 0 0 0 0 0 0 0 0 0 0 0 0 0 0 0 0 127 0" result="hardAlpha"/>
<feOffset dx="-1.568" dy="-1.568"/>
<feGaussianBlur stdDeviation="1.04533"/>
<feComposite in2="hardAlpha" operator="arithmetic" k2="-1" k3="1"/>
<feColorMatrix type="matrix" values="0 0 0 0 0 0 0 0 0 0 0 0 0 0 0 0 0 0 0.5 0"/>
<feBlend mode="overlay" in2="shape" result="effect1_innerShadow"/>
</filter>
<linearGradient id="paint0_linear" x1="0" y1="0" x2="395.078" y2="553.321" gradientUnits="userSpaceOnUse">
<stop stop-opacity="0"/>
<stop offset="1"/>
</linearGradient>
<linearGradient id="paint1_linear" x1="14.6328" y1="76.1787" x2="28.7448" y2="76.1787" gradientUnits="userSpaceOnUse">
<stop stop-opacity="0"/>
<stop offset="0.442708" stop-color="white"/>
<stop offset="0.567708" stop-color="white"/>
<stop offset="1" stop-opacity="0"/>
</linearGradient>
<linearGradient id="paint2_linear" x1="-5.87484e-08" y1="76.1787" x2="14.112" y2="76.1787" gradientUnits="userSpaceOnUse">
<stop stop-opacity="0"/>
<stop offset="0.234375" stop-color="white"/>
<stop offset="0.40625" stop-color="white"/>
<stop offset="1" stop-opacity="0"/>
</linearGradient>
<clipPath id="clip0">
<path d="M0 4.70396C0 2.10602 2.10605 0 4.704 0H390.955C391.532 0 392 0.468012 392 1.04533V552.981C392 553.559 391.532 554.027 390.955 554.027H3.65866C1.63803 554.027 0 552.389 0 550.368V4.70396Z" fill="white"/>
</clipPath>
</defs>
</svg>
