<svg width="198" height="241" viewBox="0 0 198 241" fill="none" xmlns="http://www.w3.org/2000/svg">
<g filter="url(#filter0_i)">
<g clip-path="url(#clip0)">
<path d="M54.5559 4.64834C54.9544 2.08113 57.3585 0.322994 59.9257 0.721426L196.797 21.964C197.368 22.0525 197.758 22.5868 197.67 23.1572L166.711 222.632C166.623 223.202 166.089 223.593 165.518 223.504L27.6136 202.101C25.6169 201.791 24.2494 199.922 24.5593 197.925L54.5559 4.64834Z" fill="#CFCFD0"/>
<g clip-path="url(#clip1)" filter="url(#filter1_i)">
<rect width="144.259" height="203.953" transform="translate(55.2773) rotate(8.82195)" fill="#EC1C24"/>
<path d="M97.1251 56.2588C96.8299 58.1609 96.1225 59.8393 95.0029 61.2941C93.8881 62.7177 92.3518 63.7726 90.3938 64.4586C88.4358 65.1447 86.1165 65.2796 83.4357 64.8636L78.4794 64.0944L76.6501 75.8811L68.6546 74.6401L73.7505 41.8058L86.7023 43.8159C89.3207 44.2223 91.4637 45.0179 93.1313 46.2028C94.7989 47.3877 95.9613 48.8454 96.6185 50.576C97.2757 52.3065 97.4445 54.2008 97.1251 56.2588ZM83.8151 58.4082C85.3425 58.6452 86.5359 58.4632 87.3953 57.8622C88.2548 57.2611 88.7861 56.3057 88.9894 54.9961C89.1926 53.6865 88.9758 52.615 88.339 51.7817C87.7022 50.9484 86.6201 50.4133 85.0927 50.1762L80.7443 49.5013L79.4667 57.7333L83.8151 58.4082Z" fill="white"/>
<path d="M113.312 81.571L108.409 68.1168L106.492 67.8193L104.569 80.214L96.5731 78.9731L101.669 46.1388L115.088 48.2215C117.676 48.623 119.803 49.4162 121.471 50.6011C123.169 51.7908 124.347 53.2509 125.005 54.9815C125.667 56.6809 125.848 58.4972 125.547 60.4304C125.209 62.6132 124.283 64.4653 122.77 65.9867C121.288 67.5131 119.291 68.4486 116.78 68.7932L122.336 82.9716L113.312 81.571ZM107.371 62.1598L112.327 62.929C113.792 63.1564 114.939 62.9671 115.767 62.3612C116.626 61.7602 117.158 60.8048 117.361 59.4952C117.554 58.2479 117.333 57.2076 116.696 56.3743C116.09 55.5459 115.055 55.018 113.59 54.7906L108.634 54.0214L107.371 62.1598Z" fill="white"/>
<path d="M138.907 51.9182L133.811 84.7525L125.816 83.5116L130.912 50.6773L138.907 51.9182Z" fill="white"/>
<path d="M139.546 68.7819C140.049 65.539 141.198 62.7636 142.993 60.4556C144.792 58.1164 147.048 56.4387 149.759 55.4226C152.507 54.3801 155.47 54.1056 158.65 54.599C162.546 55.2037 165.722 56.7504 168.177 59.2389C170.631 61.7275 172.051 64.8217 172.434 68.5216L163.644 67.1573C163.202 65.6837 162.429 64.494 161.325 63.5881C160.251 62.6871 158.951 62.1181 157.424 61.881C154.961 61.4988 152.833 62.0467 151.039 63.5246C149.246 65.0026 148.127 67.1759 147.681 70.0446C147.236 72.9133 147.644 75.3237 148.905 77.2758C150.167 79.2278 152.028 80.3949 154.491 80.7771C156.018 81.0142 157.43 80.866 158.726 80.3327C160.053 79.8042 161.15 78.9047 162.018 77.6343L170.808 78.9986C169.321 82.4082 167.031 84.9267 163.937 86.5541C160.848 88.1504 157.356 88.6461 153.459 88.0414C150.28 87.5479 147.537 86.4037 145.229 84.6086C142.958 82.7872 141.317 80.5048 140.307 77.7614C139.296 75.018 139.042 72.0248 139.546 68.7819Z" fill="white"/>
<path d="M76.0438 79.7879L70.9479 112.622L62.9524 111.381L68.0483 78.5469L76.0438 79.7879Z" fill="white"/>
<path d="M104.847 117.883L96.851 116.642L86.6216 94.3144L83.4784 114.567L75.4829 113.326L80.5788 80.4917L88.5743 81.7326L98.7892 104.154L101.947 83.808L109.942 85.0489L104.847 117.883Z" fill="white"/>
<path d="M134.656 99.5182C134.233 98.3349 133.504 97.3755 132.469 96.6401C131.47 95.8783 130.223 95.3813 128.726 95.1491C126.139 94.7476 123.933 95.2833 122.108 96.7564C120.289 98.1984 119.158 100.338 118.718 103.176C118.249 106.2 118.691 108.696 120.046 110.662C121.437 112.603 123.566 113.795 126.434 114.24C128.398 114.545 130.127 114.303 131.622 113.513C133.149 112.728 134.369 111.448 135.283 109.674L125.136 108.099L126.051 102.206L143.445 104.906L142.291 112.343C141.389 114.246 140.088 115.944 138.388 117.437C136.719 118.934 134.711 120.043 132.364 120.765C130.018 121.486 127.473 121.634 124.73 121.209C121.488 120.706 118.698 119.554 116.36 117.754C114.057 115.928 112.385 113.641 111.343 110.892C110.333 108.149 110.079 105.156 110.582 101.913C111.086 98.6701 112.235 95.8946 114.029 93.5866C115.86 91.2522 118.147 89.5794 120.889 88.5681C123.637 87.5256 126.632 87.2559 129.873 87.759C133.801 88.3686 136.958 89.8325 139.343 92.1506C141.76 94.4736 143.143 97.3866 143.493 100.89L134.656 99.5182Z" fill="white"/>
<path d="M64.5724 144.453C63.0308 144.213 61.6882 143.749 60.5446 143.058C59.4011 142.368 58.535 141.475 57.9466 140.379C57.3781 139.285 57.1811 138.045 57.3556 136.657L62.8212 137.505C62.7801 138.298 62.9571 138.941 63.3523 139.433C63.7506 139.905 64.3202 140.199 65.0609 140.314C65.8217 140.432 66.4488 140.355 66.9421 140.083C67.4385 139.791 67.7349 139.334 67.8312 138.713C67.912 138.192 67.7987 137.734 67.4911 137.338C67.2036 136.944 66.8167 136.597 66.3303 136.296C65.864 135.998 65.1821 135.636 64.2847 135.209C62.9885 134.578 61.9426 133.984 61.147 133.43C60.3514 132.876 59.707 132.14 59.2138 131.223C58.7206 130.305 58.5765 129.186 58.7817 127.864C59.0863 125.901 60.0348 124.48 61.6272 123.599C63.2228 122.698 65.1617 122.424 67.4441 122.779C69.7665 123.139 71.5514 123.99 72.7988 125.332C74.0493 126.655 74.5708 128.315 74.3632 130.313L68.8074 129.451C68.8731 128.764 68.7052 128.194 68.3038 127.742C67.9054 127.27 67.3459 126.978 66.6252 126.866C66.0045 126.77 65.4776 126.862 65.0443 127.144C64.6142 127.405 64.351 127.846 64.2546 128.467C64.1489 129.148 64.3869 129.729 64.9685 130.209C65.5501 130.689 66.4874 131.254 67.7805 131.906C69.0704 132.578 70.1032 133.19 70.8788 133.741C71.6744 134.295 72.3203 135.021 72.8167 135.918C73.313 136.816 73.4632 137.895 73.2674 139.157C73.0809 140.359 72.6012 141.402 71.8282 142.287C71.0753 143.175 70.0732 143.819 68.8218 144.22C67.5705 144.621 66.154 144.698 64.5724 144.453Z" fill="#111111"/>
<path d="M92.6328 126.996L91.994 131.111L86.4082 130.244L83.774 147.217L78.6387 146.42L81.2729 129.447L75.6871 128.58L76.3258 124.465L92.6328 126.996Z" fill="#111111"/>
<path d="M101.429 149.957L98.28 141.316L97.0487 141.125L95.8132 149.086L90.6778 148.289L93.9508 127.2L102.57 128.538C104.231 128.796 105.598 129.305 106.669 130.066C107.76 130.83 108.517 131.768 108.939 132.88C109.364 133.971 109.48 135.138 109.287 136.379C109.07 137.781 108.475 138.971 107.503 139.948C106.552 140.928 105.269 141.529 103.656 141.751L107.225 150.857L101.429 149.957ZM97.6128 137.49L100.796 137.984C101.737 138.13 102.474 138.009 103.006 137.619C103.558 137.233 103.899 136.62 104.029 135.779C104.154 134.978 104.011 134.309 103.602 133.774C103.213 133.242 102.548 132.903 101.607 132.757L98.4241 132.263L97.6128 137.49Z" fill="#111111"/>
<path d="M122.711 149.446L114.843 148.224L113.003 151.754L107.628 150.919L118.529 131.015L124.475 131.937L128.83 154.21L123.394 153.366L122.711 149.446ZM122.005 145.275L120.591 137.149L116.81 144.469L122.005 145.275Z" fill="#111111"/>
<path d="M148.331 135.64L147.692 139.756L142.106 138.889L139.472 155.862L134.337 155.065L136.971 138.092L131.385 137.225L132.024 133.109L148.331 135.64Z" fill="#111111"/>
<path d="M154.145 140.757L153.483 145.023L160.361 146.09L159.745 150.056L152.868 148.988L152.15 153.615L159.928 154.822L159.289 158.937L146.376 156.933L149.649 135.844L162.562 137.849L161.924 141.964L154.145 140.757Z" fill="#111111"/>
<path d="M69.1446 157.002C68.873 156.242 68.4048 155.626 67.74 155.154C67.0983 154.665 66.297 154.345 65.336 154.196C63.6742 153.938 62.2574 154.283 61.0854 155.229C59.9165 156.155 59.1906 157.529 58.9078 159.352C58.6063 161.294 58.8906 162.897 59.7607 164.16C60.654 165.406 62.0216 166.172 63.8635 166.458C65.1248 166.654 66.2356 166.498 67.196 165.991C68.1763 165.487 68.96 164.665 69.5469 163.525L63.0301 162.514L63.6176 158.729L74.7892 160.463L74.0479 165.239C73.4685 166.462 72.6329 167.553 71.541 168.511C70.4691 169.473 69.1796 170.185 67.6725 170.649C66.1654 171.112 64.5309 171.207 62.769 170.934C60.6869 170.611 58.8949 169.871 57.3931 168.715C55.9144 167.542 54.8404 166.073 54.1712 164.308C53.5221 162.546 53.3591 160.623 53.6824 158.541C54.0056 156.458 54.7436 154.675 55.8963 153.193C57.0721 151.693 58.5408 150.619 60.3024 149.97C62.067 149.3 63.9904 149.127 66.0726 149.45C68.5952 149.841 70.6226 150.782 72.1548 152.27C73.707 153.762 74.5956 155.633 74.8204 157.883L69.1446 157.002Z" fill="#111111"/>
<path d="M82.9365 152.313L79.6635 173.402L74.5282 172.605L77.8012 151.516L82.9365 152.313Z" fill="#111111"/>
<path d="M89.8954 157.608L89.2333 161.874L96.1104 162.941L95.495 166.907L88.6179 165.839L87.8999 170.466L95.6779 171.673L95.0392 175.788L82.1258 173.784L85.3988 152.695L98.3122 154.7L97.6734 158.815L89.8954 157.608Z" fill="#111111"/>
<path d="M104.709 177.504C103.168 177.265 101.825 176.8 100.681 176.11C99.5379 175.42 98.6719 174.527 98.0834 173.43C97.5149 172.337 97.3179 171.097 97.4924 169.709L102.958 170.557C102.917 171.35 103.094 171.993 103.489 172.485C103.887 172.957 104.457 173.251 105.198 173.366C105.959 173.484 106.586 173.407 107.079 173.134C107.575 172.842 107.872 172.386 107.968 171.765C108.049 171.244 107.935 170.786 107.628 170.389C107.34 169.996 106.954 169.649 106.467 169.348C106.001 169.05 105.319 168.688 104.421 168.261C103.125 167.629 102.079 167.036 101.284 166.482C100.488 165.928 99.8438 165.192 99.3506 164.275C98.8574 163.357 98.7134 162.238 98.9185 160.916C99.2231 158.953 100.172 157.531 101.764 156.65C103.36 155.75 105.299 155.476 107.581 155.83C109.903 156.191 111.688 157.042 112.936 158.384C114.186 159.706 114.708 161.367 114.5 163.365L108.944 162.503C109.01 161.815 108.842 161.246 108.441 160.794C108.042 160.322 107.483 160.03 106.762 159.918C106.141 159.822 105.614 159.914 105.181 160.196C104.751 160.457 104.488 160.898 104.391 161.519C104.286 162.2 104.524 162.78 105.105 163.26C105.687 163.74 106.624 164.306 107.917 164.958C109.207 165.63 110.24 166.242 111.016 166.793C111.811 167.347 112.457 168.073 112.953 168.97C113.45 169.868 113.6 170.947 113.404 172.209C113.218 173.41 112.738 174.454 111.965 175.339C111.212 176.227 110.21 176.871 108.959 177.272C107.707 177.672 106.291 177.75 104.709 177.504Z" fill="#111111"/>
<path d="M76.2238 27.891C76.277 27.5482 76.3984 27.2549 76.5881 27.0109C76.7783 26.7637 77.0167 26.5864 77.3033 26.479C77.5937 26.3688 77.9069 26.3398 78.2429 26.392C78.6548 26.4559 78.9904 26.6193 79.2498 26.8824C79.5093 27.1454 79.6593 27.4724 79.6998 27.8634L78.7708 27.7193C78.7241 27.5635 78.6424 27.4378 78.5257 27.342C78.4122 27.2468 78.2748 27.1867 78.1134 27.1616C77.8531 27.1212 77.6282 27.1791 77.4386 27.3353C77.249 27.4915 77.1307 27.7212 77.0837 28.0244C77.0366 28.3276 77.0797 28.5824 77.213 28.7887C77.3463 28.995 77.5431 29.1184 77.8034 29.1588C77.9648 29.1838 78.114 29.1681 78.251 29.1118C78.3912 29.0559 78.5072 28.9609 78.5989 28.8266L79.528 28.9708C79.3708 29.3311 79.1288 29.5973 78.8018 29.7693C78.4753 29.938 78.1062 29.9904 77.6944 29.9265C77.3583 29.8744 77.0684 29.7534 76.8245 29.5637C76.5845 29.3712 76.4111 29.13 76.3042 28.84C76.1974 28.5501 76.1706 28.2337 76.2238 27.891Z" fill="#111111"/>
<path d="M81.2302 26.8961L80.9079 28.9723C80.8757 29.1799 80.902 29.3477 80.9867 29.4756C81.0714 29.6035 81.2126 29.6828 81.4103 29.7135C81.608 29.7442 81.7682 29.7117 81.8911 29.616C82.0139 29.5203 82.0914 29.3686 82.1236 29.161L82.4458 27.0848L83.2909 27.2159L82.9694 29.2872C82.9214 29.597 82.8148 29.8488 82.6498 30.0425C82.4847 30.2363 82.2818 30.3702 82.0409 30.4442C81.8032 30.5187 81.5477 30.5347 81.2743 30.4922C81.0008 30.4498 80.7636 30.359 80.5625 30.2198C80.3652 30.0778 80.2206 29.89 80.1287 29.6563C80.0372 29.4194 80.0156 29.146 80.0636 28.8362L80.3851 26.7649L81.2302 26.8961Z" fill="#111111"/>
<path d="M84.5956 31.0077C84.3419 30.9683 84.121 30.8919 83.9328 30.7783C83.7446 30.6647 83.6021 30.5177 83.5053 30.3373C83.4117 30.1574 83.3793 29.9533 83.408 29.7248L84.3074 29.8644C84.3006 29.995 84.3298 30.1008 84.3948 30.1817C84.4603 30.2594 84.5541 30.3077 84.676 30.3266C84.8012 30.3461 84.9043 30.3334 84.9855 30.2886C85.0672 30.2405 85.116 30.1654 85.1318 30.0633C85.1451 29.9776 85.1265 29.9021 85.0759 29.8369C85.0286 29.7722 84.9649 29.715 84.8849 29.6655C84.8081 29.6164 84.6959 29.5568 84.5482 29.4867C84.3349 29.3827 84.1628 29.2851 84.0319 29.1939C83.901 29.1027 83.7949 28.9816 83.7138 28.8307C83.6326 28.6797 83.6089 28.4955 83.6427 28.2779C83.6928 27.955 83.8489 27.721 84.1109 27.576C84.3735 27.4278 84.6926 27.3828 85.0681 27.4411C85.4503 27.5004 85.744 27.6405 85.9493 27.8614C86.1551 28.0789 86.2409 28.3521 86.2067 28.6809L85.2925 28.5391C85.3033 28.426 85.2757 28.3323 85.2096 28.2579C85.1441 28.1802 85.052 28.1322 84.9334 28.1138C84.8312 28.0979 84.7445 28.1131 84.6732 28.1594C84.6025 28.2025 84.5591 28.2751 84.5433 28.3772C84.5259 28.4893 84.5651 28.5848 84.6608 28.6638C84.7565 28.7427 84.9107 28.8359 85.1235 28.9431C85.3358 29.0537 85.5057 29.1543 85.6333 29.245C85.7643 29.3362 85.8706 29.4556 85.9522 29.6033C86.0339 29.751 86.0586 29.9287 86.0264 30.1363C85.9957 30.334 85.9168 30.5057 85.7896 30.6513C85.6657 30.7975 85.5008 30.9035 85.2948 30.9694C85.0889 31.0353 84.8558 31.0481 84.5956 31.0077Z" fill="#111111"/>
<path d="M89.4203 28.1672L89.3152 28.8444L88.396 28.7018L87.9625 31.4948L87.1175 31.3637L87.551 28.5706L86.6318 28.428L86.7369 27.7507L89.4203 28.1672Z" fill="#111111"/>
<path d="M90.9412 31.9926C90.615 31.9419 90.3269 31.8196 90.077 31.6256C89.8304 31.432 89.6473 31.1876 89.5279 30.8923C89.4122 30.5942 89.3807 30.2755 89.4334 29.936C89.486 29.5966 89.6124 29.304 89.8125 29.0583C90.0159 28.8131 90.2644 28.6357 90.5581 28.526C90.8551 28.4169 91.1666 28.3876 91.4928 28.4382C91.8189 28.4888 92.1053 28.6109 92.352 28.8044C92.6019 28.9985 92.7833 29.2426 92.8962 29.5369C93.0124 29.8317 93.0442 30.1488 92.9915 30.4883C92.9388 30.8277 92.8122 31.1219 92.6116 31.3709C92.4115 31.6166 92.1646 31.7943 91.8709 31.904C91.5772 32.0136 91.2673 32.0432 90.9412 31.9926ZM91.0608 31.2214C91.3376 31.2643 91.5726 31.2063 91.766 31.0473C91.9627 30.8888 92.0845 30.658 92.1316 30.3548C92.1792 30.0483 92.133 29.7914 91.9931 29.5841C91.857 29.3739 91.6506 29.2474 91.3739 29.2044C91.0938 29.161 90.8557 29.2168 90.6596 29.372C90.4667 29.5277 90.3463 29.7605 90.2982 30.0703C90.2506 30.3767 90.2949 30.6351 90.4309 30.8452C90.5708 31.0525 90.7808 31.1779 91.0608 31.2214Z" fill="#111111"/>
<path d="M97.6581 29.4457L97.1195 32.916L96.2745 32.7848L96.5975 30.7037L95.4986 32.6644L94.8166 32.5586L94.3596 30.3513L94.0358 32.4374L93.1908 32.3063L93.7294 28.836L94.7276 28.9909L95.3283 31.5445L96.6648 29.2915L97.6581 29.4457Z" fill="#111111"/>
<path d="M100.024 33.4023C99.7706 33.3629 99.5497 33.2864 99.3615 33.1728C99.1733 33.0593 99.0308 32.9123 98.934 32.7319C98.8405 32.552 98.808 32.3478 98.8367 32.1194L99.7362 32.259C99.7294 32.3896 99.7585 32.4953 99.8235 32.5763C99.8891 32.654 99.9828 32.7023 100.105 32.7212C100.23 32.7406 100.333 32.7279 100.414 32.6832C100.496 32.6351 100.545 32.56 100.561 32.4578C100.574 32.3721 100.555 32.2967 100.505 32.2314C100.457 32.1667 100.394 32.1096 100.314 32.06C100.237 32.011 100.125 31.9514 99.977 31.8812C99.7637 31.7772 99.5916 31.6797 99.4607 31.5885C99.3297 31.4973 99.2237 31.3762 99.1425 31.2252C99.0614 31.0742 99.0377 30.89 99.0714 30.6725C99.1215 30.3495 99.2776 30.1156 99.5397 29.9706C99.8022 29.8223 100.121 29.7774 100.497 29.8357C100.879 29.895 101.173 30.0351 101.378 30.2559C101.584 30.4735 101.67 30.7467 101.635 31.0755L100.721 30.9336C100.732 30.8205 100.704 30.7268 100.638 30.6524C100.573 30.5748 100.481 30.5267 100.362 30.5083C100.26 30.4925 100.173 30.5077 100.102 30.554C100.031 30.597 99.9879 30.6696 99.972 30.7718C99.9546 30.8838 99.9938 30.9793 100.09 31.0583C100.185 31.1373 100.339 31.2304 100.552 31.3377C100.764 31.4483 100.934 31.5489 101.062 31.6396C101.193 31.7308 101.299 31.8502 101.381 31.9979C101.463 32.1456 101.487 32.3232 101.455 32.5308C101.424 32.7286 101.346 32.9003 101.218 33.0459C101.094 33.192 100.93 33.2981 100.724 33.364C100.518 33.4299 100.285 33.4427 100.024 33.4023Z" fill="#111111"/>
<path d="M103.45 33.934C103.124 33.8833 102.836 33.761 102.586 33.567C102.339 33.3734 102.156 33.129 102.037 32.8337C101.921 32.5357 101.89 32.2169 101.942 31.8774C101.995 31.538 102.121 31.2454 102.322 30.9997C102.525 30.7545 102.773 30.5771 103.067 30.4674C103.364 30.3583 103.676 30.329 104.002 30.3796C104.328 30.4302 104.614 30.5523 104.861 30.7458C105.111 30.9399 105.292 31.184 105.405 31.4783C105.521 31.7731 105.553 32.0902 105.5 32.4297C105.448 32.7691 105.321 33.0633 105.121 33.3123C104.92 33.558 104.674 33.7357 104.38 33.8454C104.086 33.9551 103.776 33.9846 103.45 33.934ZM103.57 33.1628C103.847 33.2057 104.082 33.1477 104.275 32.9887C104.472 32.8302 104.594 32.5994 104.641 32.2962C104.688 31.9897 104.642 31.7328 104.502 31.5255C104.366 31.3153 104.16 31.1888 103.883 31.1459C103.603 31.1024 103.365 31.1583 103.169 31.3134C102.976 31.4691 102.855 31.7019 102.807 32.0117C102.76 32.3182 102.804 32.5765 102.94 32.7866C103.08 32.9939 103.29 33.1193 103.57 33.1628Z" fill="#111111"/>
<path d="M108.497 31.1279L108.392 31.8051L106.978 31.5858L106.865 32.3174L107.922 32.4815L107.82 33.139L106.763 32.9749L106.545 34.3788L105.7 34.2477L106.238 30.7774L108.497 31.1279Z" fill="#111111"/>
<path d="M111.437 31.5841L111.331 32.2614L110.412 32.1187L109.979 34.9118L109.134 34.7806L109.567 31.9876L108.648 31.8449L108.753 31.1677L111.437 31.5841Z" fill="#111111"/>
<path d="M116.634 32.3908L115.192 35.7208L114.169 35.562L113.97 33.1923L113.042 35.3872L112.019 35.2284L111.678 31.6216L112.582 31.7619L112.689 34.3655L113.699 31.9353L114.628 32.0795L114.829 34.6976L115.725 32.2497L116.634 32.3908Z" fill="#111111"/>
<path d="M118.774 35.6491L117.48 35.4482L117.177 36.0289L116.292 35.8916L118.086 32.6162L119.065 32.768L119.781 36.4331L118.887 36.2943L118.774 35.6491ZM118.658 34.9628L118.425 33.6256L117.803 34.8301L118.658 34.9628Z" fill="#111111"/>
<path d="M121.933 36.767L121.414 35.345L121.212 35.3136L121.008 36.6236L120.163 36.4924L120.702 33.0221L122.12 33.2422C122.394 33.2847 122.619 33.3685 122.795 33.4937C122.974 33.6195 123.099 33.7738 123.168 33.9567C123.238 34.1363 123.257 34.3283 123.226 34.5326C123.19 34.7633 123.092 34.9591 122.932 35.1199C122.775 35.2812 122.564 35.3801 122.299 35.4165L122.886 36.915L121.933 36.767ZM121.305 34.7154L121.828 34.7967C121.983 34.8207 122.104 34.8007 122.192 34.7367C122.283 34.6732 122.339 34.5722 122.36 34.4338C122.381 34.3019 122.357 34.192 122.29 34.1039C122.226 34.0164 122.117 33.9606 121.962 33.9365L121.438 33.8552L121.305 34.7154Z" fill="#111111"/>
<path d="M124.666 34.3308L124.557 35.0328L125.688 35.2085L125.587 35.861L124.455 35.6854L124.337 36.4466L125.617 36.6453L125.512 37.3225L123.387 36.9927L123.926 33.5224L126.051 33.8522L125.946 34.5295L124.666 34.3308Z" fill="#111111"/>
<path d="M128.946 34.3016C129.312 34.3584 129.62 34.4805 129.871 34.6679C130.122 34.8554 130.301 35.0924 130.409 35.3791C130.52 35.663 130.549 35.9763 130.496 36.319C130.443 36.6585 130.32 36.9483 130.128 37.1884C129.939 37.429 129.694 37.6004 129.395 37.7024C129.099 37.805 128.77 37.8282 128.408 37.7719L127.108 37.5702L127.647 34.0999L128.946 34.3016ZM128.467 37.0319C128.786 37.0815 129.049 37.0327 129.254 36.8857C129.459 36.7386 129.586 36.5053 129.636 36.1856C129.685 35.8659 129.635 35.6033 129.485 35.3977C129.334 35.1921 129.099 35.0645 128.78 35.0149L128.38 34.9528L128.067 36.9697L128.467 37.0319Z" fill="#111111"/>
<path d="M131.977 35.4656L131.868 36.1676L133 36.3432L132.898 36.9957L131.767 36.8201L131.649 37.5814L132.929 37.78L132.823 38.4573L130.698 38.1275L131.237 34.6572L133.362 34.987L133.257 35.6642L131.977 35.4656Z" fill="#111111"/>
<path d="M137.167 35.5776L135.398 38.8569L134.341 38.6927L133.649 35.0315L134.548 35.1711L135.001 37.9245L136.273 35.4387L137.167 35.5776Z" fill="#111111"/>
<path d="M138.26 36.4408L138.152 37.1427L139.283 37.3184L139.182 37.9709L138.05 37.7953L137.932 38.5566L139.212 38.7552L139.107 39.4325L136.982 39.1027L137.521 35.6324L139.646 35.9622L139.54 36.6394L138.26 36.4408Z" fill="#111111"/>
<path d="M140.602 38.9962L141.709 39.168L141.608 39.8206L139.656 39.5176L140.194 36.0473L141.039 36.1785L140.602 38.9962Z" fill="#111111"/>
<path d="M143.646 40.1724C143.32 40.1217 143.032 39.9994 142.782 39.8054C142.535 39.6119 142.352 39.3674 142.233 39.0721C142.117 38.7741 142.085 38.4553 142.138 38.1159C142.191 37.7764 142.317 37.4838 142.517 37.2381C142.721 36.9929 142.969 36.8155 143.263 36.7058C143.56 36.5967 143.871 36.5674 144.198 36.618C144.524 36.6687 144.81 36.7907 145.057 36.9843C145.307 37.1783 145.488 37.4224 145.601 37.7167C145.717 38.0115 145.749 38.3286 145.696 38.6681C145.644 39.0075 145.517 39.3017 145.316 39.5507C145.116 39.7964 144.869 39.9741 144.576 40.0838C144.282 40.1935 143.972 40.223 143.646 40.1724ZM143.766 39.4012C144.042 39.4441 144.277 39.3861 144.471 39.2271C144.667 39.0687 144.789 38.8378 144.836 38.5346C144.884 38.2281 144.838 37.9712 144.698 37.7639C144.562 37.5538 144.355 37.4272 144.079 37.3843C143.799 37.3408 143.561 37.3967 143.364 37.5518C143.172 37.7075 143.051 37.9403 143.003 38.2501C142.955 38.5566 143 38.8149 143.136 39.025C143.276 39.2323 143.486 39.3577 143.766 39.4012Z" fill="#111111"/>
<path d="M148.905 38.5433C148.873 38.7444 148.799 38.9218 148.68 39.0755C148.563 39.226 148.4 39.3375 148.193 39.41C147.986 39.4825 147.741 39.4968 147.458 39.4528L146.934 39.3715L146.741 40.6172L145.896 40.4861L146.434 37.0158L147.803 37.2282C148.08 37.2712 148.306 37.3553 148.483 37.4805C148.659 37.6057 148.782 37.7598 148.851 37.9427C148.921 38.1256 148.938 38.3258 148.905 38.5433ZM147.498 38.7705C147.659 38.7956 147.785 38.7763 147.876 38.7128C147.967 38.6493 148.023 38.5483 148.045 38.4099C148.066 38.2715 148.043 38.1582 147.976 38.0701C147.909 37.9821 147.794 37.9255 147.633 37.9005L147.173 37.8291L147.038 38.6992L147.498 38.7705Z" fill="#111111"/>
<path d="M153.447 38.1041L152.908 41.5744L152.063 41.4433L152.386 39.3621L151.287 41.3229L150.605 41.217L150.148 39.0097L149.824 41.0958L148.979 40.9647L149.518 37.4944L150.516 37.6493L151.117 40.2029L152.453 37.95L153.447 38.1041Z" fill="#111111"/>
<path d="M154.794 39.0068L154.685 39.7088L155.817 39.8845L155.716 40.537L154.584 40.3614L154.466 41.1226L155.746 41.3213L155.641 41.9985L153.516 41.6687L154.054 38.1984L156.179 38.5282L156.074 39.2055L154.794 39.0068Z" fill="#111111"/>
<path d="M159.293 42.5653L158.448 42.4342L157.367 40.0743L157.035 42.2148L156.189 42.0837L156.728 38.6134L157.573 38.7445L158.653 41.1143L158.986 38.9639L159.832 39.0951L159.293 42.5653Z" fill="#111111"/>
<path d="M162.94 39.5774L162.835 40.2547L161.915 40.112L161.482 42.9051L160.637 42.7739L161.07 39.9809L160.151 39.8382L160.256 39.161L162.94 39.5774Z" fill="#111111"/>
<path d="M55.3976 188.945L54.8591 192.416L54.014 192.284L54.337 190.203L53.2381 192.164L52.5562 192.058L52.0991 189.851L51.7753 191.937L50.9303 191.806L51.4689 188.336L52.4671 188.49L53.0678 191.044L54.4043 188.791L55.3976 188.945Z" fill="white"/>
<path d="M57.7215 192.232L56.4267 192.031L56.124 192.612L55.2394 192.475L57.0332 189.199L58.0117 189.351L58.7284 193.016L57.8339 192.877L57.7215 192.232ZM57.6053 191.546L57.3725 190.209L56.7504 191.413L57.6053 191.546Z" fill="white"/>
<path d="M60.9487 189.807C61.3144 189.864 61.6227 189.986 61.8736 190.173C62.1246 190.361 62.3037 190.598 62.4111 190.884C62.5222 191.168 62.5512 191.481 62.498 191.824C62.4453 192.164 62.3227 192.453 62.1302 192.694C61.9411 192.934 61.6969 193.106 61.3976 193.208C61.1017 193.31 60.7725 193.333 60.4101 193.277L59.1104 193.075L59.649 189.605L60.9487 189.807ZM60.4693 192.537C60.7888 192.587 61.0511 192.538 61.2562 192.391C61.4612 192.244 61.5885 192.01 61.6381 191.691C61.6877 191.371 61.6374 191.108 61.4871 190.903C61.3368 190.697 61.1019 190.57 60.7823 190.52L60.382 190.458L60.069 192.475L60.4693 192.537Z" fill="white"/>
<path d="M64.5392 190.364C64.9049 190.421 65.2132 190.543 65.4642 190.73C65.7151 190.918 65.8943 191.155 66.0016 191.442C66.1127 191.725 66.1417 192.039 66.0885 192.381C66.0358 192.721 65.9133 193.011 65.7208 193.251C65.5316 193.492 65.2874 193.663 64.9882 193.765C64.6922 193.867 64.363 193.891 64.0006 193.834L62.7009 193.633L63.2395 190.162L64.5392 190.364ZM64.0598 193.094C64.3794 193.144 64.6417 193.095 64.8467 192.948C65.0517 192.801 65.179 192.568 65.2286 192.248C65.2783 191.928 65.2279 191.666 65.0776 191.46C64.9274 191.255 64.6924 191.127 64.3728 191.077L63.9726 191.015L63.6595 193.032L64.0598 193.094Z" fill="white"/>
<path d="M67.57 191.528L67.4611 192.23L68.5928 192.406L68.4915 193.058L67.3598 192.883L67.2416 193.644L68.5216 193.842L68.4165 194.52L66.2915 194.19L66.8301 190.72L68.9551 191.049L68.85 191.727L67.57 191.528Z" fill="white"/>
<path d="M72.7604 191.64L70.9912 194.919L69.9337 194.755L69.2418 191.094L70.1412 191.234L70.5944 193.987L71.8659 191.501L72.7604 191.64Z" fill="white"/>
<path d="M73.8248 195.395C73.5711 195.355 73.3502 195.279 73.162 195.165C72.9738 195.052 72.8313 194.905 72.7345 194.724C72.6409 194.544 72.6085 194.34 72.6372 194.112L73.5366 194.251C73.5299 194.382 73.559 194.488 73.624 194.569C73.6896 194.646 73.7833 194.695 73.9052 194.713C74.0304 194.733 74.1336 194.72 74.2148 194.675C74.2964 194.627 74.3452 194.552 74.3611 194.45C74.3744 194.364 74.3557 194.289 74.3051 194.224C74.2578 194.159 74.1941 194.102 74.1141 194.052C74.0373 194.003 73.9251 193.944 73.7775 193.874C73.5642 193.77 73.3921 193.672 73.2611 193.581C73.1302 193.49 73.0242 193.368 72.943 193.218C72.8618 193.067 72.8381 192.882 72.8719 192.665C72.922 192.342 73.0781 192.108 73.3402 191.963C73.6027 191.815 73.9218 191.77 74.2974 191.828C74.6795 191.887 74.9733 192.027 75.1785 192.248C75.3843 192.466 75.4701 192.739 75.4359 193.068L74.5217 192.926C74.5325 192.813 74.5049 192.719 74.4388 192.645C74.3733 192.567 74.2812 192.519 74.1626 192.501C74.0605 192.485 73.9738 192.5 73.9025 192.546C73.8317 192.589 73.7884 192.662 73.7725 192.764C73.7551 192.876 73.7943 192.972 73.89 193.051C73.9857 193.13 74.1399 193.223 74.3527 193.33C74.565 193.441 74.7349 193.541 74.8626 193.632C74.9935 193.723 75.0998 193.842 75.1815 193.99C75.2631 194.138 75.2879 194.315 75.2556 194.523C75.2249 194.721 75.146 194.893 75.0188 195.038C74.8949 195.184 74.73 195.29 74.5241 195.356C74.3182 195.422 74.0851 195.435 73.8248 195.395Z" fill="white"/>
<path d="M76.0045 195.738C75.8563 195.715 75.741 195.653 75.6588 195.553C75.5803 195.449 75.5511 195.333 75.5711 195.205C75.5915 195.073 75.6548 194.97 75.7608 194.895C75.8702 194.821 75.999 194.795 76.1472 194.818C76.2922 194.841 76.4039 194.904 76.4823 195.007C76.5641 195.111 76.5947 195.229 76.5742 195.361C76.5543 195.489 76.4896 195.59 76.3803 195.665C76.2747 195.736 76.1495 195.76 76.0045 195.738Z" fill="white"/>
<path d="M78.3937 192.514L77.8551 195.985L77.01 195.853L77.5486 192.383L78.3937 192.514Z" fill="white"/>
<path d="M80.1028 196.369C79.7767 196.318 79.4886 196.196 79.2387 196.002C78.9921 195.808 78.809 195.564 78.6895 195.269C78.5738 194.971 78.5423 194.652 78.595 194.312C78.6477 193.973 78.7741 193.68 78.9742 193.435C79.1775 193.189 79.4261 193.012 79.7197 192.902C80.0167 192.793 80.3283 192.764 80.6545 192.815C80.9806 192.865 81.267 192.987 81.5136 193.181C81.7636 193.375 81.945 193.619 82.0579 193.913C82.1741 194.208 82.2058 194.525 82.1531 194.865C82.1005 195.204 81.9738 195.498 81.7732 195.747C81.5731 195.993 81.3263 196.171 81.0326 196.28C80.7389 196.39 80.429 196.42 80.1028 196.369ZM80.2225 195.598C80.4992 195.641 80.7343 195.583 80.9277 195.424C81.1243 195.265 81.2462 195.034 81.2933 194.731C81.3408 194.425 81.2947 194.168 81.1548 193.96C81.0187 193.75 80.8123 193.624 80.5355 193.581C80.2555 193.537 80.0174 193.593 79.8212 193.748C79.6284 193.904 79.5079 194.137 79.4598 194.447C79.4123 194.753 79.4565 195.011 79.5926 195.222C79.7325 195.429 79.9425 195.554 80.2225 195.598Z" fill="white"/>
<path fill-rule="evenodd" clip-rule="evenodd" d="M160.179 199.975L157.255 200.794L154.716 199.127C154.541 198.994 154.253 199.102 154.212 199.368L153.407 204.556C153.376 204.755 153.47 204.935 153.632 204.966C153.639 204.968 153.647 204.969 153.654 204.969L153.671 204.972L155.489 205.064L155.225 204.53C155.109 204.301 155.316 204.15 155.495 204.249C155.532 204.269 155.576 204.257 155.611 204.273L155.397 202.694C155.396 202.689 155.395 202.683 155.394 202.678L155.393 202.666L155.393 202.662C155.39 202.599 155.411 202.537 155.45 202.488C155.49 202.439 155.546 202.405 155.609 202.394C155.671 202.383 155.735 202.395 155.79 202.427C155.844 202.46 155.885 202.511 155.905 202.571L155.904 202.573C155.907 202.582 156.223 203.917 156.223 203.917C156.245 203.856 156.288 203.804 156.345 203.771C156.402 203.738 156.469 203.726 156.534 203.738C156.598 203.75 156.657 203.784 156.698 203.835C156.74 203.886 156.762 203.95 156.761 204.015C156.78 203.951 156.822 203.895 156.88 203.86C156.937 203.824 157.006 203.81 157.072 203.821C157.206 203.842 157.291 203.976 157.295 204.106L157.731 203.301C157.761 203.247 157.808 203.206 157.866 203.183C157.924 203.161 157.987 203.16 158.046 203.18C158.104 203.199 158.154 203.239 158.186 203.291C158.218 203.344 158.231 203.406 158.222 203.467L158.221 203.475L157.645 205.397L159.405 205.86L159.421 205.862C159.428 205.864 159.436 205.866 159.444 205.866C159.606 205.886 159.742 205.742 159.773 205.543L160.578 200.355C160.619 200.089 160.387 199.901 160.179 199.975Z" fill="white"/>
<path d="M158.364 206.645L157.802 206.558C157.766 206.553 157.729 206.562 157.699 206.583C157.67 206.605 157.65 206.637 157.645 206.673L157.335 208.668C157.329 208.704 157.338 208.741 157.36 208.77C157.382 208.799 157.414 208.819 157.45 208.825L158.012 208.912C158.849 209.042 159.341 208.654 159.446 207.979C159.551 207.304 159.201 206.775 158.364 206.645ZM158.296 208.25L158.15 208.227C158.126 208.223 158.104 208.21 158.089 208.19C158.075 208.171 158.069 208.146 158.073 208.122L158.184 207.407C158.187 207.383 158.201 207.361 158.22 207.347C158.24 207.332 158.265 207.327 158.289 207.33L158.425 207.351C158.617 207.381 158.719 207.561 158.673 207.859C158.627 208.157 158.489 208.28 158.297 208.25L158.296 208.25ZM152.945 208.126L153.355 208.189C153.391 208.195 153.428 208.186 153.457 208.164C153.487 208.143 153.507 208.11 153.512 208.074L153.611 207.44L153.75 207.894C153.758 207.919 153.773 207.941 153.793 207.957C153.812 207.974 153.836 207.985 153.862 207.989L153.868 207.99C153.892 207.994 153.918 207.991 153.941 207.982C153.964 207.972 153.984 207.957 154 207.937L154.293 207.546L154.195 208.181C154.189 208.217 154.198 208.253 154.22 208.283C154.242 208.312 154.274 208.332 154.31 208.338L154.72 208.401C154.738 208.404 154.756 208.403 154.774 208.399C154.791 208.395 154.808 208.387 154.823 208.376C154.837 208.366 154.85 208.352 154.859 208.337C154.869 208.321 154.875 208.304 154.878 208.286L155.187 206.292C155.19 206.274 155.189 206.256 155.185 206.238C155.181 206.221 155.173 206.204 155.162 206.189C155.151 206.175 155.138 206.162 155.122 206.153C155.107 206.144 155.09 206.137 155.072 206.135L154.629 206.066C154.604 206.062 154.579 206.065 154.556 206.074C154.532 206.084 154.512 206.099 154.497 206.119L154.049 206.719L153.803 206.012C153.795 205.988 153.78 205.967 153.761 205.951C153.742 205.935 153.718 205.925 153.694 205.921L153.297 205.859C153.26 205.854 153.223 205.863 153.194 205.884C153.164 205.906 153.145 205.938 153.139 205.974L152.829 207.969C152.824 208.005 152.833 208.041 152.855 208.071C152.876 208.1 152.909 208.12 152.945 208.126ZM156.484 208.451L156.499 208.576C156.503 208.606 156.516 208.634 156.537 208.655C156.558 208.677 156.586 208.691 156.615 208.695L156.994 208.754C157.016 208.758 157.037 208.756 157.058 208.749C157.078 208.743 157.097 208.732 157.112 208.717C157.128 208.702 157.139 208.683 157.146 208.663C157.153 208.643 157.155 208.621 157.152 208.6C157.086 208.128 156.911 206.881 156.86 206.517C156.856 206.488 156.843 206.461 156.822 206.439C156.801 206.418 156.774 206.405 156.745 206.4L156.128 206.304C156.099 206.3 156.069 206.305 156.042 206.319C156.016 206.332 155.995 206.354 155.982 206.381L155.073 208.277C155.063 208.297 155.058 208.318 155.059 208.34C155.059 208.361 155.064 208.382 155.075 208.402C155.085 208.421 155.099 208.437 155.117 208.45C155.134 208.462 155.155 208.471 155.176 208.474L155.572 208.535C155.602 208.54 155.632 208.535 155.659 208.521C155.685 208.507 155.706 208.484 155.719 208.457L155.772 208.342C155.784 208.315 155.805 208.293 155.832 208.279C155.858 208.264 155.889 208.259 155.918 208.264L156.367 208.334C156.397 208.338 156.424 208.352 156.445 208.373C156.466 208.394 156.479 208.421 156.484 208.451ZM156.034 207.742L156.314 207.136L156.398 207.799L156.034 207.742ZM153.428 208.618L152.882 208.533C152.845 208.527 152.809 208.536 152.779 208.558C152.749 208.579 152.73 208.612 152.724 208.648L152.499 210.099C152.493 210.135 152.502 210.171 152.524 210.201C152.546 210.23 152.578 210.25 152.614 210.256L153.206 210.348C153.833 210.445 154.172 210.132 154.25 209.628C154.328 209.123 154.054 208.715 153.428 208.618ZM153.29 209.803L153.199 209.789C153.187 209.787 153.177 209.781 153.169 209.771C153.162 209.761 153.159 209.749 153.161 209.737L153.245 209.193C153.247 209.181 153.254 209.17 153.264 209.163C153.274 209.156 153.286 209.153 153.298 209.155L153.389 209.169C153.566 209.196 153.647 209.306 153.613 209.528C153.578 209.751 153.467 209.832 153.29 209.804L153.29 209.803ZM158.809 210.235C158.756 210.187 158.637 210.123 158.452 210.045L158.36 210.006C158.354 210.004 158.344 210 158.332 209.994C158.192 209.935 158.127 209.878 158.135 209.824C158.137 209.807 158.143 209.791 158.152 209.777C158.162 209.764 158.175 209.753 158.19 209.745C158.232 209.73 158.277 209.727 158.321 209.737C158.373 209.742 158.423 209.762 158.464 209.796C158.495 209.825 158.551 209.875 158.551 209.924L158.899 209.978C158.913 209.981 158.927 209.98 158.94 209.976C158.953 209.972 158.966 209.965 158.976 209.955C158.986 209.946 158.994 209.935 158.999 209.922C159.004 209.909 159.006 209.895 159.005 209.881C158.998 209.767 158.949 209.659 158.869 209.578C158.739 209.45 158.571 209.368 158.391 209.342C158.208 209.311 158.02 209.34 157.857 209.427C157.719 209.501 157.623 209.599 157.598 209.762C157.589 209.845 157.598 209.928 157.625 210.007C157.648 210.077 157.689 210.141 157.743 210.192C157.788 210.23 157.837 210.263 157.889 210.289C157.958 210.326 158.05 210.369 158.167 210.42L158.233 210.447C158.376 210.508 158.443 210.568 158.434 210.627C158.431 210.645 158.424 210.662 158.412 210.676C158.4 210.691 158.385 210.701 158.367 210.707C158.318 210.723 158.266 210.727 158.216 210.716C158.142 210.705 158.088 210.683 158.054 210.651C158.021 210.62 158.002 210.55 157.998 210.487L157.603 210.426C157.59 210.424 157.576 210.425 157.563 210.429C157.55 210.433 157.538 210.44 157.527 210.449C157.517 210.458 157.509 210.469 157.504 210.482C157.499 210.494 157.496 210.508 157.497 210.521C157.504 210.658 157.544 210.783 157.634 210.875C157.747 210.993 157.897 211.075 158.116 211.109C158.354 211.146 158.561 211.119 158.703 211.041C158.846 210.964 158.926 210.818 158.954 210.636C158.967 210.551 158.967 210.492 158.943 210.425C158.915 210.351 158.868 210.286 158.809 210.235ZM157.447 209.242L157.06 209.182C157.028 209.177 156.995 209.183 156.967 209.2C156.94 209.216 156.919 209.242 156.908 209.272L156.609 210.133L156.585 209.222C156.584 209.19 156.572 209.159 156.551 209.135C156.529 209.111 156.5 209.095 156.468 209.09L156.081 209.03C156.059 209.026 156.038 209.028 156.017 209.034C155.997 209.041 155.978 209.052 155.963 209.067C155.948 209.082 155.936 209.1 155.929 209.12C155.922 209.14 155.92 209.162 155.922 209.183L156.119 210.699C156.123 210.728 156.136 210.756 156.157 210.777C156.178 210.799 156.205 210.813 156.235 210.817L156.758 210.899C156.787 210.903 156.818 210.898 156.844 210.884C156.871 210.87 156.892 210.848 156.904 210.821L157.551 209.436C157.56 209.416 157.564 209.395 157.564 209.374C157.563 209.353 157.558 209.332 157.547 209.313C157.537 209.294 157.523 209.278 157.506 209.265C157.488 209.253 157.468 209.245 157.447 209.242ZM155.658 208.964L154.657 208.809C154.639 208.806 154.62 208.807 154.603 208.811C154.585 208.815 154.568 208.823 154.554 208.833C154.539 208.844 154.527 208.857 154.517 208.873C154.508 208.888 154.502 208.905 154.499 208.923L154.274 210.374C154.268 210.41 154.277 210.447 154.299 210.476C154.32 210.506 154.353 210.526 154.389 210.531L155.39 210.687C155.427 210.692 155.464 210.683 155.493 210.662C155.523 210.64 155.543 210.608 155.548 210.572L155.583 210.345C155.587 210.321 155.581 210.297 155.567 210.277C155.552 210.257 155.531 210.244 155.506 210.24L154.915 210.149C154.903 210.147 154.892 210.14 154.885 210.13C154.877 210.12 154.874 210.108 154.876 210.096L154.89 210.005C154.892 209.993 154.899 209.983 154.909 209.975C154.918 209.968 154.931 209.965 154.943 209.967L155.398 210.038C155.41 210.04 155.422 210.039 155.434 210.036C155.446 210.034 155.457 210.028 155.466 210.021C155.476 210.014 155.484 210.005 155.491 209.995C155.497 209.985 155.501 209.973 155.503 209.961L155.545 209.689C155.549 209.665 155.543 209.641 155.529 209.621C155.514 209.601 155.492 209.588 155.468 209.584L155.013 209.514C155.001 209.512 154.99 209.505 154.983 209.496C154.976 209.486 154.973 209.473 154.975 209.461L154.989 209.371C154.991 209.359 154.997 209.348 155.007 209.341C155.017 209.334 155.029 209.331 155.041 209.333L155.633 209.424C155.645 209.426 155.657 209.426 155.669 209.423C155.681 209.42 155.692 209.415 155.702 209.408C155.712 209.401 155.72 209.392 155.726 209.381C155.732 209.371 155.737 209.36 155.738 209.348L155.774 209.121C155.776 209.103 155.776 209.085 155.771 209.067C155.767 209.05 155.759 209.033 155.748 209.019C155.738 209.004 155.724 208.992 155.709 208.982C155.693 208.973 155.676 208.967 155.658 208.964Z" fill="white"/>
</g>
<rect x="55.2773" width="146.091" height="204.027" transform="rotate(8.82195 55.2773 0)" fill="url(#paint0_linear)" fill-opacity="0.75" style="mix-blend-mode:overlay"/>
<rect x="60.5977" y="0.826172" width="5.19334" height="204.027" transform="rotate(8.82195 60.5977 0.826172)" fill="url(#paint1_linear)" style="mix-blend-mode:soft-light"/>
<rect x="55.2773" width="5.19334" height="204.027" transform="rotate(8.82195 55.2773 0)" fill="url(#paint2_linear)" style="mix-blend-mode:soft-light"/>
</g>
</g>
<g opacity="0.3">
<g filter="url(#filter2_f)">
<path d="M5 223L166 224.625V225.687L25.0667 236L5 223Z" fill="url(#paint3_linear)" fill-opacity="0.3"/>
</g>
<g filter="url(#filter3_f)">
<path d="M15.7344 224.625H166.001V225.687L32.1367 229.5L15.7344 224.625Z" fill="url(#paint4_linear)" fill-opacity="0.45"/>
</g>
</g>
<defs>
<filter id="filter0_i" x="22.432" y="-1.568" width="175.4" height="225.233" filterUnits="userSpaceOnUse" color-interpolation-filters="sRGB">
<feFlood flood-opacity="0" result="BackgroundImageFix"/>
<feBlend mode="normal" in="SourceGraphic" in2="BackgroundImageFix" result="shape"/>
<feColorMatrix in="SourceAlpha" type="matrix" values="0 0 0 0 0 0 0 0 0 0 0 0 0 0 0 0 0 0 127 0" result="hardAlpha"/>
<feOffset dx="-1.568" dy="-1.568"/>
<feGaussianBlur stdDeviation="1.04533"/>
<feComposite in2="hardAlpha" operator="arithmetic" k2="-1" k3="1"/>
<feColorMatrix type="matrix" values="0 0 0 0 0 0 0 0 0 0 0 0 0 0 0 0 0 0 0.5 0"/>
<feBlend mode="overlay" in2="shape" result="effect1_innerShadow"/>
</filter>
<filter id="filter1_i" x="22.432" y="-1.568" width="175.402" height="225.233" filterUnits="userSpaceOnUse" color-interpolation-filters="sRGB">
<feFlood flood-opacity="0" result="BackgroundImageFix"/>
<feBlend mode="normal" in="SourceGraphic" in2="BackgroundImageFix" result="shape"/>
<feColorMatrix in="SourceAlpha" type="matrix" values="0 0 0 0 0 0 0 0 0 0 0 0 0 0 0 0 0 0 127 0" result="hardAlpha"/>
<feOffset dx="-1.568" dy="-1.568"/>
<feGaussianBlur stdDeviation="1.04533"/>
<feComposite in2="hardAlpha" operator="arithmetic" k2="-1" k3="1"/>
<feColorMatrix type="matrix" values="0 0 0 0 0 0 0 0 0 0 0 0 0 0 0 0 0 0 0.5 0"/>
<feBlend mode="overlay" in2="shape" result="effect1_innerShadow"/>
</filter>
<filter id="filter2_f" x="0" y="218" width="171" height="23" filterUnits="userSpaceOnUse" color-interpolation-filters="sRGB">
<feFlood flood-opacity="0" result="BackgroundImageFix"/>
<feBlend mode="normal" in="SourceGraphic" in2="BackgroundImageFix" result="shape"/>
<feGaussianBlur stdDeviation="2.5" result="effect1_foregroundBlur"/>
</filter>
<filter id="filter3_f" x="13.7344" y="222.625" width="154.267" height="8.875" filterUnits="userSpaceOnUse" color-interpolation-filters="sRGB">
<feFlood flood-opacity="0" result="BackgroundImageFix"/>
<feBlend mode="normal" in="SourceGraphic" in2="BackgroundImageFix" result="shape"/>
<feGaussianBlur stdDeviation="1" result="effect1_foregroundBlur"/>
</filter>
<linearGradient id="paint0_linear" x1="55.2773" y1="0" x2="200.455" y2="204.674" gradientUnits="userSpaceOnUse">
<stop stop-opacity="0"/>
<stop offset="1"/>
</linearGradient>
<linearGradient id="paint1_linear" x1="60.5977" y1="28.8798" x2="65.791" y2="28.8798" gradientUnits="userSpaceOnUse">
<stop stop-opacity="0"/>
<stop offset="0.442708" stop-color="white"/>
<stop offset="0.567708" stop-color="white"/>
<stop offset="1" stop-opacity="0"/>
</linearGradient>
<linearGradient id="paint2_linear" x1="55.2773" y1="28.0537" x2="60.4707" y2="28.0537" gradientUnits="userSpaceOnUse">
<stop stop-opacity="0"/>
<stop offset="0.234375" stop-color="white"/>
<stop offset="0.40625" stop-color="white"/>
<stop offset="1" stop-opacity="0"/>
</linearGradient>
<linearGradient id="paint3_linear" x1="166" y1="225.052" x2="6.61554" y2="226.117" gradientUnits="userSpaceOnUse">
<stop stop-color="#333333"/>
<stop offset="1" stop-color="#101010" stop-opacity="0"/>
</linearGradient>
<linearGradient id="paint4_linear" x1="166.001" y1="225.052" x2="21.0231" y2="225.933" gradientUnits="userSpaceOnUse">
<stop stop-color="#A50909"/>
<stop offset="1" stop-color="#101010" stop-opacity="0"/>
</linearGradient>
<clipPath id="clip0">
<path d="M54.5559 4.64834C54.9544 2.08113 57.3585 0.322994 59.9257 0.721426L196.797 21.964C197.368 22.0525 197.758 22.5868 197.67 23.1572L166.711 222.632C166.623 223.202 166.089 223.593 165.518 223.504L27.6136 202.101C25.6169 201.791 24.2494 199.922 24.5593 197.925L54.5559 4.64834Z" fill="white"/>
</clipPath>
<clipPath id="clip1">
<rect width="144.259" height="203.953" fill="white" transform="translate(55.2773) rotate(8.82195)"/>
</clipPath>
</defs>
</svg>
