<svg width="26" height="26" viewBox="0 0 26 26" fill="none" xmlns="http://www.w3.org/2000/svg">
<g clip-path="url(#clip0)">
<path d="M24.4855 19.5002C24.6704 19.1861 24.7854 18.8323 24.7854 18.5146V7.48573C24.7854 7.16801 24.6706 6.81427 24.4856 6.50024L13 13.0002L24.4855 19.5002Z" fill="#00599C"/>
<path d="M14.0218 25.7616L23.7659 20.2472C24.0466 20.0884 24.3017 19.8141 24.4866 19.5L13.0011 13L1.51562 19.5C1.70057 19.8141 1.95577 20.0885 2.23638 20.2472L11.9805 25.7616C12.5418 26.0794 13.4605 26.0794 14.0218 25.7616Z" fill="#004482"/>
<path d="M24.4858 6.49996C24.3008 6.18586 24.0456 5.91156 23.765 5.75269L14.0208 0.238292C13.4595 -0.0794308 12.5409 -0.0794308 11.9796 0.238292L2.23547 5.75269C1.67409 6.07034 1.21484 6.85015 1.21484 7.48552V18.5144C1.21484 18.8321 1.32969 19.1859 1.51472 19.5L13.0002 13L24.4858 6.49996Z" fill="#659AD2"/>
<path d="M13.0005 20.7015C8.66815 20.7015 5.14355 17.2466 5.14355 13C5.14355 8.75344 8.66815 5.29858 13.0005 5.29858C15.796 5.29858 18.4032 6.77319 19.8045 9.1469L16.4042 11.0756C15.7029 9.88744 14.3985 9.14931 13.0005 9.14931C10.8343 9.14931 9.07201 10.8767 9.07201 13C9.07201 15.1233 10.8343 16.8508 13.0005 16.8508C14.3987 16.8508 15.703 16.1126 16.4044 14.9243L19.8047 16.8529C18.4034 19.2268 15.7961 20.7015 13.0005 20.7015Z" fill="white"/>
<path d="M20.8573 12.572H19.9842V11.7163H19.1113V12.572H18.2383V13.4277H19.1113V14.2835H19.9842V13.4277H20.8573V12.572Z" fill="white"/>
<path d="M24.1307 12.572H23.2576V11.7163H22.3848V12.572H21.5117V13.4277H22.3848V14.2835H23.2576V13.4277H24.1307V12.572Z" fill="white"/>
</g>
<defs>
<clipPath id="clip0">
<rect width="23.5708" height="26" fill="white" transform="translate(1.21484)"/>
</clipPath>
</defs>
</svg>
