<svg width="40" height="40" viewBox="0 0 40 40" fill="none" xmlns="http://www.w3.org/2000/svg">
<path d="M1.09806 24.0105C0.345121 22.7791 2.25063e-05 21.4458 0.0157088 20.0105C0.21963 19.838 0.462768 19.885 0.690219 19.885C4.05492 19.885 7.42747 19.885 10.7922 19.885C16.8236 19.885 22.8471 19.885 28.8785 19.885C29.0118 19.885 29.1373 19.8772 29.2706 19.885C29.5922 19.9085 29.8432 19.838 29.8667 19.4536C29.8667 19.4066 29.9059 19.3595 29.9451 19.3203C30.2039 19.3438 30.1334 19.5478 30.1412 19.6889C30.1726 20.1438 30.1177 20.5987 30.1804 21.0615C30.3059 21.9321 30.5412 22.7713 30.9412 23.5635C31.0196 23.7203 31.1922 23.8929 30.9804 24.0811C30.8079 24.1517 30.6196 24.1439 30.4392 24.1439C20.8706 24.1439 11.302 24.1439 1.7412 24.1439C1.52159 24.136 1.29414 24.1674 1.09806 24.0105Z" fill="#B5DD64"/>
<path d="M1.0981 24.0103C11.0824 24.0103 21.0667 24.0103 31.051 24.0103C31.2157 24.0416 31.2785 24.175 31.3569 24.2926C32.5961 26.1671 34.3216 27.3279 36.5177 27.7906C36.6589 27.822 36.8706 27.7671 36.9177 28.0024C36.7844 28.0024 36.6589 28.0102 36.5255 28.0102C26.9726 28.0102 17.4275 28.0338 7.87457 28.0024C4.94908 27.9946 2.72947 26.6063 1.14516 24.1593C1.12947 24.1122 1.12163 24.0573 1.0981 24.0103Z" fill="#A8CB54"/>
<path d="M30.0236 19.3045C30 19.3359 29.9687 19.3673 29.9687 19.4065C29.8745 20.0183 29.8745 20.0183 29.2392 20.0183C19.4981 20.0183 9.76474 20.0183 0.0235601 20.0183C-0.0156556 18.5751 0.345128 17.2418 1.09807 16.0183C1.30199 15.8614 1.54513 15.8928 1.78042 15.8928C4.29023 15.8928 6.79219 15.8928 9.30199 15.8928C16.2667 15.8928 23.2236 15.8928 30.1883 15.8928C30.4471 15.8928 30.7138 15.8457 30.9569 15.9869C31.0981 16.1202 31.0432 16.2771 30.9726 16.4183C30.5334 17.2496 30.2981 18.1516 30.149 19.0771C30.1255 19.1555 30.1098 19.2418 30.0236 19.3045Z" fill="#A8CB54"/>
<path d="M30.9883 16.0968C30.8392 15.9399 30.6432 16.0105 30.4706 16.0105C20.8628 16.0105 11.2549 16.0105 1.65493 16.0105C1.47454 16.0105 1.2863 16.0105 1.10591 16.0105C2.29807 13.9478 4.0863 12.7007 6.39218 12.183C6.91768 12.0576 7.45885 12.0105 8.00787 12.0105C17.5451 12.0105 27.0745 12.0105 36.6118 12.0105C36.7451 12.0105 36.8706 12.0183 37.0039 12.0183C36.9883 12.2223 36.8236 12.1752 36.7138 12.1909C34.4 12.6144 32.6118 13.8301 31.3177 15.7909C31.2314 15.9242 31.1765 16.0889 30.9883 16.0968Z" fill="#B5DD64"/>
<path d="M30.9882 16.0967C31.6784 14.9986 32.5176 14.0261 33.6157 13.3124C34.6196 12.6614 35.702 12.2143 36.902 12.081C36.9333 12.081 36.9647 12.0418 36.9961 12.0182C37.5137 12.0339 38.0392 11.932 38.549 12.0888C39.5059 12.3869 40.1098 13.3124 39.9765 14.2849C39.851 15.2575 38.9882 15.9947 37.9608 16.0026C35.749 16.0182 33.9922 17.8849 33.9922 20.0026C33.9922 22.1202 35.7412 23.9869 37.9529 24.0026C39.1059 24.0104 39.9843 24.8967 39.9765 26.0339C39.9686 27.132 39.0667 27.9947 37.9294 28.0026C37.5921 28.0026 37.2471 27.9947 36.9098 27.9947C36.2588 27.7908 35.5843 27.681 34.9412 27.4143C33.4353 26.779 32.2274 25.783 31.3176 24.4261C31.2235 24.2849 31.1294 24.1437 31.0353 24.0026C30.1961 22.5437 29.9137 20.9594 30.0157 19.2967C30.102 18.3084 30.3608 17.3673 30.8 16.481C30.8784 16.3633 30.9255 16.23 30.9882 16.0967Z" fill="#DCF3A3"/>
</svg>
