<svg width="26" height="26" viewBox="0 0 26 26" fill="none" xmlns="http://www.w3.org/2000/svg">
<path fill-rule="evenodd" clip-rule="evenodd" d="M12.7649 0.0510254C20.0319 0.0510254 25.9242 5.85011 25.9242 13.0001C25.9242 20.1512 20.033 25.9492 12.766 25.9492C6.63542 25.9492 1.48417 21.8217 0.02275 16.2371C0.00890569 16.187 0.00162269 16.1353 0.00108333 16.0833C0.00108333 15.7431 0.281667 15.4669 0.628333 15.4669H5.93342C6.05682 15.4664 6.17761 15.5024 6.28056 15.5705C6.38351 15.6385 6.46401 15.7355 6.51192 15.8493C7.07416 17.0304 7.96065 18.0274 9.06798 18.7239C10.1753 19.4203 11.4579 19.7876 12.766 19.7829C16.5728 19.7829 19.6582 16.7463 19.6582 13.0001C19.6582 9.25394 16.5718 6.21736 12.7649 6.21736C11.4566 6.21256 10.174 6.57995 9.06658 7.27663C7.95921 7.97332 7.07282 8.97058 6.51083 10.152L6.5 10.1726C6.44956 10.2805 6.36931 10.3717 6.26872 10.4354C6.16813 10.4991 6.05141 10.5327 5.93233 10.5323H0.626167C0.461431 10.5334 0.30297 10.4692 0.185571 10.3536C0.0681721 10.238 0.00143097 10.0806 0 9.91586C0 9.86386 0.00975 9.81186 0.0216667 9.76311C1.48417 4.17852 6.63433 0.0510254 12.7649 0.0510254ZM12.7649 16.0844C11.0348 16.0844 9.63192 14.7031 9.63192 13.0001C9.63192 11.2971 11.0348 9.91694 12.7649 9.91694C14.495 9.91694 15.8979 11.2971 15.8979 13.0001C15.8979 14.7031 14.495 16.0833 12.7649 16.0833V16.0844Z" fill="#D7DDE1"/>
</svg>
