<svg width="253" height="93" viewBox="0 0 253 93" fill="none" xmlns="http://www.w3.org/2000/svg">
<path d="M41.5812 27.5773C40.9313 28.2271 40.8958 29.3141 41.5812 29.9402C42.5857 30.85 43.6138 30.271 43.9447 29.9402C45.2328 28.6524 46.9345 27.9554 48.7543 27.9554C50.5742 27.9554 52.2759 28.6642 53.564 29.9402C54.214 30.59 55.2657 30.59 55.9275 29.9402C56.5774 29.2904 56.5774 28.2389 55.9275 27.5773C54.0131 25.6633 51.4723 24.6118 48.7662 24.6118C46.0364 24.6118 43.4956 25.6633 41.5812 27.5773Z" fill="#FFDE7D"/>
<path d="M60.0757 25.7696C60.7611 25.1552 60.7256 24.0683 60.0757 23.4066C53.8361 17.1685 43.6732 17.1685 37.4337 23.4066C36.7837 24.0564 36.7837 25.1079 37.4337 25.7696C38.0836 26.4194 39.1354 26.4194 39.7971 25.7696C44.7368 20.831 52.7253 20.8901 57.724 25.7696C58.2085 26.2658 59.2012 26.5493 60.0757 25.7696Z" fill="#FFDE7D"/>
<path d="M35.6256 21.6108C39.1354 18.1019 43.7914 16.1761 48.7547 16.1761C53.718 16.1761 58.3268 18.1609 61.8838 21.6108C62.2738 21.9889 63.3137 22.4969 64.2473 21.6108C64.909 20.9728 64.8972 19.9095 64.2473 19.2479C60.1112 15.1127 54.6161 12.8325 48.7665 12.8325C42.9169 12.8325 37.4219 15.1127 33.2858 19.2479C32.6359 19.8977 32.6359 20.9492 33.2858 21.6108C33.9121 22.2606 34.9757 22.2606 35.6256 21.6108Z" fill="#FFDE7D"/>
<path d="M61.789 34.2291H25.0253V32.1025C25.0253 31.1809 24.2808 30.4366 23.359 30.4366C22.4373 30.4366 21.6928 31.1809 21.6928 32.1025V34.2291H17.6276V17.4759C17.6276 16.5544 16.8831 15.8101 15.9614 15.8101C15.0396 15.8101 14.2951 16.5544 14.2951 17.4759V34.2291H11.7544C9.00094 34.2291 6.75565 36.4739 6.75565 39.2385V67.8654C6.75565 70.6182 9.00094 72.863 11.7544 72.863H61.7772C64.5306 72.863 66.7759 70.6182 66.7759 67.8654V39.2385C66.7877 36.4739 64.5425 34.2291 61.789 34.2291ZM63.4553 67.8654C63.4553 68.787 62.7108 69.5313 61.789 69.5313H11.7544C10.8326 69.5313 10.0881 68.787 10.0881 67.8654V53.5579H12.688C13.6097 53.5579 14.3542 52.8136 14.3542 51.892C14.3542 50.9705 13.6097 50.2261 12.688 50.2261H10.0881V47.2016H17.6985C18.6203 47.2016 19.3647 46.4573 19.3647 45.5357C19.3647 44.6142 18.6203 43.8699 17.6985 43.8699H10.0881V39.2385C10.0881 38.317 10.8326 37.5727 11.7544 37.5727H61.7772C62.6989 37.5727 63.4434 38.317 63.4434 39.2385V67.8654H63.4553Z" fill="#FFDE7D"/>
<path d="M17.6984 63.3521H15.9613C15.0395 63.3521 14.295 64.0964 14.295 65.0179C14.295 65.9395 15.0395 66.6838 15.9613 66.6838H17.6984C18.6202 66.6838 19.3647 65.9395 19.3647 65.0179C19.3647 64.0964 18.6202 63.3521 17.6984 63.3521Z" fill="#FFDE7D"/>
<path d="M27.6725 63.3521H25.9354C25.0136 63.3521 24.2691 64.0964 24.2691 65.0179C24.2691 65.9395 25.0136 66.6838 25.9354 66.6838H27.6725C28.5943 66.6838 29.3387 65.9395 29.3387 65.0179C29.3387 64.0964 28.5943 63.3521 27.6725 63.3521Z" fill="#FFDE7D"/>
<path d="M37.6459 63.3521H35.9088C34.987 63.3521 34.2425 64.0964 34.2425 65.0179C34.2425 65.9395 34.987 66.6838 35.9088 66.6838H37.6459C38.5677 66.6838 39.3122 65.9395 39.3122 65.0179C39.3122 64.0964 38.5677 63.3521 37.6459 63.3521Z" fill="#FFDE7D"/>
<path d="M47.6199 63.3521H45.8709C44.9491 63.3521 44.2047 64.0964 44.2047 65.0179C44.2047 65.9395 44.9491 66.6838 45.8709 66.6838H47.6081C48.5298 66.6838 49.2743 65.9395 49.2743 65.0179C49.2861 64.0964 48.5298 63.3521 47.6199 63.3521Z" fill="#FFDE7D"/>
<path d="M57.5822 63.3521H55.845C54.9233 63.3521 54.1788 64.0964 54.1788 65.0179C54.1788 65.9395 54.9233 66.6838 55.845 66.6838H57.5822C58.5039 66.6838 59.2484 65.9395 59.2484 65.0179C59.2602 64.0964 58.5039 63.3521 57.5822 63.3521Z" fill="#FFDE7D"/>
<path d="M36.7714 44.1885C31.7018 44.1885 27.8848 46.5632 27.8848 49.7059C27.8848 52.8486 31.7018 55.2234 36.7714 55.2234C41.8292 55.2234 45.6581 52.8486 45.6581 49.7059C45.6581 46.5632 41.8292 44.1885 36.7714 44.1885ZM36.7714 51.8798C33.3326 51.8798 31.2291 50.4739 31.2291 49.7059C31.2291 48.938 33.3326 47.532 36.7714 47.532C40.2103 47.532 42.3137 48.938 42.3137 49.7059C42.3137 50.4739 40.2103 51.8798 36.7714 51.8798Z" fill="#FFDE7D"/>
<path d="M86.8707 17.5051V23.809H92.9169C94.9035 23.809 96.0695 22.6432 96.0695 20.657C96.0695 18.6708 94.9035 17.5051 92.9169 17.5051H86.8707ZM96.6741 28.0835C97.8834 29.7242 99.0926 31.365 100.345 32.9625C101.554 34.5601 102.764 36.2008 103.973 37.8416H96.0695C94.5148 35.7691 93.0032 33.6966 91.4917 31.624C89.9801 29.5947 88.4254 27.5222 86.8707 25.4497V37.8416H80.3926V11.4171H92.9169C97.8402 11.4171 102.029 15.1735 102.029 20.1389C102.029 23.6362 99.87 26.7018 96.6741 28.0835ZM121.55 27.0472C121.377 23.8953 119.952 22.0387 116.67 22.0387C115.763 22.0387 114.985 22.1682 114.338 22.4273C112.351 23.334 111.617 25.0179 111.617 27.0904C111.617 27.7813 111.703 28.4289 111.919 28.9902C112.567 31.2354 114.51 32.0558 116.67 32.0558C119.952 32.0558 121.55 30.2855 121.55 27.0472ZM129.755 37.8416H123.277C122.846 36.7621 122.457 35.6827 122.198 34.5601C120.729 36.978 118.484 38.0575 115.72 38.0575C109.544 38.0575 105.139 32.8762 105.139 26.9609C105.139 20.1389 110.235 16.037 116.67 16.037C123.537 16.037 127.855 20.4411 128.028 27.0472C128.071 27.6086 128.071 28.2562 128.071 29.0334C128.071 32.0558 128.546 35.0782 129.755 37.8416ZM132.131 16.2529H138.609V37.8416H132.131V16.2529ZM135.37 14.2236C133.167 14.2236 131.613 12.6692 131.613 10.4672C131.613 8.22194 133.167 6.75391 135.37 6.75391C137.616 6.75391 139.084 8.22194 139.084 10.4672C139.084 12.7556 137.659 14.2236 135.37 14.2236ZM142.798 7.61745H149.276V37.8416H142.798V7.61745ZM174.886 30.4583V37.1076C172.208 37.8416 169.531 38.1438 166.767 38.1438C158.648 38.1438 153.206 32.5739 153.206 24.6725C153.206 16.5552 158.864 11.2012 166.724 11.2012C169.444 11.2012 172.295 11.4171 174.886 12.2374V18.8867C172.77 17.8505 169.444 17.4619 167.112 17.4619C161.844 17.4619 159.684 19.6208 159.684 24.6293C159.684 29.9401 162.232 31.8831 167.156 31.8831C169.358 31.8831 172.943 31.5377 174.886 30.4583ZM193.5 27.0472C193.327 23.8953 191.902 22.0387 188.62 22.0387C187.713 22.0387 186.935 22.1682 186.287 22.4273C184.301 23.334 183.567 25.0179 183.567 27.0904C183.567 27.7813 183.653 28.4289 183.869 28.9902C184.517 31.2354 186.46 32.0558 188.62 32.0558C191.902 32.0558 193.5 30.2855 193.5 27.0472ZM201.705 37.8416H195.227C194.795 36.7621 194.407 35.6827 194.148 34.5601C192.679 36.978 190.433 38.0575 187.669 38.0575C181.494 38.0575 177.089 32.8762 177.089 26.9609C177.089 20.1389 182.185 16.037 188.62 16.037C195.486 16.037 199.805 20.4411 199.978 27.0472C200.021 27.6086 200.021 28.2562 200.021 29.0334C200.021 32.0558 200.496 35.0782 201.705 37.8416ZM238.846 26.1837V37.8416H232.368V26.1837C232.368 23.7226 231.202 22.0387 228.611 22.0387C226.063 22.0387 224.81 23.7658 224.81 26.1837V37.8416H218.332V26.1837C218.332 23.7226 217.08 22.0387 214.489 22.0387C211.941 22.0387 210.775 23.7658 210.775 26.1837V37.8416H204.297V26.1837C204.297 19.923 208.572 16.037 214.575 16.037C217.641 16.037 220.017 17.4619 221.571 20.0957C223.126 17.4619 225.501 16.037 228.568 16.037C234.787 16.037 238.846 20.1389 238.846 26.1837Z" fill="black"/>
<path d="M103.092 68.6571V75.4118C100.372 76.1574 97.652 76.4644 94.8442 76.4644C86.5964 76.4644 81.0686 70.8063 81.0686 62.7797C81.0686 54.5337 86.8157 49.0949 94.8003 49.0949C97.5642 49.0949 100.46 49.3142 103.092 50.1476V56.9022C100.942 55.8495 97.5642 55.4548 95.1952 55.4548C89.8429 55.4548 87.6493 57.6479 87.6493 62.7358C87.6493 68.1308 90.2377 70.1045 95.239 70.1045C97.4765 70.1045 101.118 69.7536 103.092 68.6571ZM106.382 54.2267H112.963V76.1574H106.382V54.2267ZM109.673 52.1652C107.435 52.1652 105.856 50.5862 105.856 48.3492C105.856 46.0684 107.435 44.5771 109.673 44.5771C111.954 44.5771 113.446 46.0684 113.446 48.3492C113.446 50.6739 111.998 52.1652 109.673 52.1652ZM129.941 54.9723V61.0691H123.799V65.192C123.799 68.5694 126.037 70.28 129.283 70.28C129.678 70.28 130.029 70.2361 130.336 70.1923C130.643 70.1484 130.907 70.1045 131.214 70.0607V76.1574C130.819 76.2013 130.512 76.289 130.292 76.3329C130.029 76.3767 129.59 76.3767 129.02 76.3767C122.395 76.3767 117.219 71.859 117.219 65.192V48.9633H123.799V54.9723H129.941ZM148.894 65.192V54.2267H155.475V75.017C155.475 81.991 150.473 86.2456 143.849 86.2456C141.523 86.2456 139.198 86.0262 136.961 85.2806V78.5259C138.847 79.5347 141.392 79.8856 143.498 79.8856C145.867 79.8856 147.753 79.1839 148.631 76.9031C148.806 76.289 148.894 75.6311 148.894 74.9732V73.9643C147.402 75.6311 145.472 76.3767 143.278 76.3767C137.049 76.3767 133.1 71.0256 133.1 65.192V54.2267H139.681V65.192C139.681 68.1746 140.865 70.28 144.068 70.28C147.183 70.28 148.894 68.2185 148.894 65.192ZM181.271 68.6571V75.4118C178.551 76.1574 175.831 76.4644 173.023 76.4644C164.775 76.4644 159.247 70.8063 159.247 62.7797C159.247 54.5337 164.995 49.0949 172.979 49.0949C175.743 49.0949 178.639 49.3142 181.271 50.1476V56.9022C179.121 55.8495 175.743 55.4548 173.374 55.4548C168.022 55.4548 165.828 57.6479 165.828 62.7358C165.828 68.1308 168.417 70.1045 173.418 70.1045C175.655 70.1045 179.297 69.7536 181.271 68.6571ZM200.179 65.192C200.004 61.9902 198.556 60.1041 195.222 60.1041C194.301 60.1041 193.511 60.2357 192.853 60.4989C190.835 61.42 190.089 63.1306 190.089 65.2359C190.089 65.9377 190.177 66.5956 190.396 67.1658C191.054 69.4466 193.028 70.28 195.222 70.28C198.556 70.28 200.179 68.4817 200.179 65.192ZM208.515 76.1574H201.934C201.496 75.0609 201.101 73.9643 200.838 72.8239C199.346 75.2802 197.065 76.3767 194.257 76.3767C187.983 76.3767 183.508 71.1133 183.508 65.1043C183.508 58.1742 188.685 54.0074 195.222 54.0074C202.198 54.0074 206.585 58.4812 206.76 65.192C206.804 65.7622 206.804 66.4202 206.804 67.2097C206.804 70.28 207.287 73.3503 208.515 76.1574ZM246.244 64.3148V76.1574H239.664V64.3148C239.664 61.8147 238.479 60.1041 235.847 60.1041C233.259 60.1041 231.986 61.8586 231.986 64.3148V76.1574H225.406V64.3148C225.406 61.8147 224.133 60.1041 221.501 60.1041C218.913 60.1041 217.728 61.8586 217.728 64.3148V76.1574H211.147V64.3148C211.147 57.9549 215.491 54.0074 221.589 54.0074C224.704 54.0074 227.117 55.4548 228.696 58.1303C230.275 55.4548 232.688 54.0074 235.803 54.0074C242.121 54.0074 246.244 58.1742 246.244 64.3148Z" fill="black"/>
</svg>
