<svg width="34" height="34" viewBox="0 0 34 34" fill="none" xmlns="http://www.w3.org/2000/svg">
<path d="M17.0718 33.8745C26.3579 33.8745 34 26.2324 34 16.9463C34 7.66016 26.3579 0 17.0718 0C7.78564 0 0.143555 7.66016 0.143555 16.9463C0.143555 26.2324 7.78564 33.8745 17.0718 33.8745ZM17.0718 32.0498C8.70703 32.0498 1.96826 25.293 1.96826 16.9463C1.96826 8.58154 8.70703 1.82471 17.0718 1.82471C25.4365 1.82471 32.1934 8.58154 32.1934 16.9463C32.1934 25.293 25.4365 32.0498 17.0718 32.0498ZM11.0557 23.9019C11.3267 23.9019 11.5254 23.8115 11.7241 23.6128L17.0718 18.2651L22.4194 23.6128C22.6182 23.8115 22.835 23.9019 23.0879 23.9019C23.5938 23.9019 23.9912 23.5044 23.9912 23.0166C23.9912 22.7637 23.9009 22.5469 23.7202 22.3662L18.3364 16.9824L23.7202 11.5986C23.9189 11.3999 24.0093 11.2012 24.0093 10.9482C24.0093 10.4604 23.6118 10.063 23.106 10.063C22.853 10.063 22.6543 10.1533 22.4375 10.3701L17.0718 15.7358L11.7061 10.3701C11.5073 10.1714 11.3267 10.0811 11.0557 10.0811C10.5498 10.0811 10.1523 10.4604 10.1523 10.9482C10.1523 11.2192 10.2427 11.418 10.4233 11.6167L15.8071 16.9824L10.4233 22.3662C10.2427 22.5469 10.1523 22.7637 10.1523 23.0166C10.1523 23.5044 10.5498 23.9019 11.0557 23.9019Z" fill="#404143"/>
</svg>
