<svg width="26" height="26" viewBox="0 0 26 26" fill="none" xmlns="http://www.w3.org/2000/svg">
<path d="M17.9087 17.5041C18.0705 16.9647 18.0166 16.4253 17.7469 16.1017C17.4772 15.778 17.0996 15.5622 16.6141 15.5083L7.22822 15.4004C7.17427 15.4004 7.12033 15.3465 7.06639 15.3465C7.01245 15.2925 7.01245 15.2386 7.06639 15.1846C7.12033 15.0768 7.17427 15.0228 7.28216 15.0228L16.722 14.9149C17.8548 14.861 19.0415 13.944 19.473 12.8651L20.0124 11.4627C20.0124 11.4087 20.0664 11.3548 20.0124 11.3008C19.4191 8.54979 16.9378 6.5 14.0249 6.5C11.3278 6.5 9.0083 8.22614 8.19917 10.6535C7.65975 10.2759 7.01245 10.0602 6.25726 10.1141C4.96266 10.222 3.93776 11.3008 3.77593 12.5954C3.72199 12.9191 3.77593 13.2427 3.82987 13.5664C1.72614 13.6203 0 15.3465 0 17.5041C0 17.7199 -8.23892e-07 17.8817 0.0539411 18.0975C0.0539411 18.2054 0.161824 18.2593 0.215766 18.2593H17.5311C17.639 18.2593 17.7469 18.2054 17.7469 18.0975L17.9087 17.5041Z" fill="#E7863C"/>
<path d="M20.8755 11.4626H20.6058C20.5519 11.4626 20.4979 11.5166 20.444 11.5705L20.0664 12.8651C19.9046 13.4046 19.9585 13.944 20.2282 14.2676C20.4979 14.5913 20.8755 14.807 21.361 14.861L23.3569 14.9689C23.4108 14.9689 23.4647 15.0228 23.5187 15.0228C23.5726 15.0768 23.5726 15.1307 23.5187 15.1846C23.4647 15.2925 23.4108 15.3465 23.3029 15.3465L21.2531 15.4543C20.1204 15.5083 18.9336 16.4253 18.5021 17.5041L18.3942 17.9896C18.3403 18.0436 18.3942 18.1514 18.5021 18.1514H25.6224C25.7303 18.1514 25.7843 18.0975 25.7843 17.9896C25.8921 17.5581 26 17.0726 26 16.5871C26 13.7821 23.6805 11.4626 20.8755 11.4626Z" fill="#F1AF55"/>
</svg>
