<svg width="23" height="26" viewBox="0 0 23 26" fill="none" xmlns="http://www.w3.org/2000/svg">
<path d="M22.75 17.8686L11.3793 16.1851L0 17.8707L11.375 22.1239L22.75 17.8686Z" fill="#B7CA9D"/>
<path d="M2.27734 17.6725L4.19918 18.2792L4.37468 18.0777V4.50785L4.19918 4.2771L2.27734 5.0181V17.6714" fill="#4B612C"/>
<path d="M11.0047 17.0734L4.19922 18.2781V4.2771L11.0047 5.82085V17.0734Z" fill="#759C3E"/>
<path d="M7.97036 19.4458L5.31836 18.6203V1.33792L7.97036 0L8.20219 0.255667V19.1598L7.97036 19.4447" fill="#4B612C"/>
<path d="M17.0589 17.2943L7.96973 19.4447V0L17.0589 3.575V17.2943Z" fill="#759C3E"/>
<path d="M11.3717 21.9396L0 17.8706V20.2312L11.3717 25.9674V21.9396Z" fill="#4B612C"/>
<path d="M22.7503 20.2279L11.3721 25.9674V21.9396L22.7503 17.8684V20.2279Z" fill="#759C3E"/>
<path d="M19.5542 13.9587H16.7971L8.9375 14.4993L11.375 14.9522L19.5542 13.9587Z" fill="#B7CA9D"/>
<path d="M8.9375 19.7166L11.3739 20.4533L11.4443 20.3774L11.4422 14.8319L11.3717 14.7636L8.9375 14.4993V19.7155" fill="#4B612C"/>
<path d="M19.5545 13.9587L11.3721 14.7637L11.3742 20.4533L19.5545 17.9692V13.9587Z" fill="#759C3E"/>
</svg>
