<svg width="144" height="63" viewBox="0 0 144 63" fill="none" xmlns="http://www.w3.org/2000/svg">
<path d="M49.833 15.3779H44.833V47.126H49.833V15.3779Z" fill="black"/>
<path d="M67.4312 37.1311C67.4312 41.9504 63.4434 42.3337 62.2248 42.3337C59.1785 42.3337 58.7354 39.5134 58.7354 37.8157V25.7949H53.8337V37.7883C53.806 40.773 54.6645 43.2374 56.3261 44.8803C57.7939 46.3315 59.8432 47.1256 62.2248 47.1256C64.0947 47.1236 65.9164 46.5392 67.4312 45.4553V46.7149H72.333V25.7949H67.4312V37.1311Z" fill="black"/>
<path d="M83.2691 18.8506H78.3083V25.9679H74.833V30.5929H78.3083V47.1262H83.2691V30.5929H87.333V25.9679H83.2691V18.8506Z" fill="black"/>
<path d="M103.055 40.7669C101.899 41.7792 100.404 42.3287 98.8608 42.3081C95.3052 42.3081 92.6941 39.721 92.6941 36.1706C92.6941 32.6201 95.2219 30.1431 98.8608 30.1431C100.407 30.1224 101.908 30.6605 103.083 31.6568L103.861 32.3174L107.305 28.9046L106.444 28.1339C104.358 26.2901 101.656 25.2798 98.8608 25.2991C92.4719 25.2991 87.833 29.8679 87.833 36.143C87.833 42.4182 92.583 47.1246 98.8608 47.1246C101.681 47.162 104.41 46.1392 106.5 44.2622L107.333 43.4916L103.833 40.0788L103.055 40.7669Z" fill="black"/>
<path d="M125.84 27.6296C124.372 26.1471 122.323 25.3359 119.941 25.3359C118.071 25.338 116.25 25.935 114.735 27.0422V15.3779H109.833V47.126H114.735V35.5456C114.735 30.6226 118.723 30.231 119.941 30.231C122.987 30.231 123.431 33.1121 123.431 34.8463V47.126H128.332V34.8743C128.36 31.8254 127.502 29.3079 125.84 27.6296Z" fill="black"/>
<path d="M98.583 40.1812C100.654 40.1812 102.333 38.5155 102.333 36.4607C102.333 34.4059 100.654 32.7402 98.583 32.7402C96.5119 32.7402 94.833 34.4059 94.833 36.4607C94.833 38.5155 96.5119 40.1812 98.583 40.1812Z" fill="#FF3D2E"/>
<path d="M37.593 39.2164C36.6276 40.1901 35.4726 40.9628 34.1969 41.4883C32.9211 42.0139 31.5507 42.2816 30.1674 42.2754C24.4187 42.2754 20.2404 37.8385 20.2404 31.7481C20.2404 25.6577 24.4187 21.1933 30.1674 21.1933C31.544 21.193 32.907 21.4607 34.1776 21.981C35.4483 22.5013 36.6015 23.2639 37.5706 24.2247L38.3558 24.9963L41.805 21.6067L41.0478 20.835C39.6345 19.4081 37.9419 18.2769 36.072 17.5097C34.2022 16.7424 32.1936 16.355 30.1674 16.3706C21.6986 16.3706 15.333 22.9846 15.333 31.7757C15.333 40.5668 21.7267 47.1257 30.1674 47.1257C32.2 47.1391 34.2143 46.748 36.0891 45.976C37.9638 45.204 39.6601 44.0671 41.0759 42.6337L41.833 41.862L38.4118 38.4173L37.593 39.2164Z" fill="black"/>
</svg>
