<svg fill="none" xmlns="http://www.w3.org/2000/svg" viewBox="0 0 41 40"><g clip-path="url(#clip0)" fill-rule="evenodd" clip-rule="evenodd"><path d="M23 24.97l5.61.66-18.2 8.41-4.91-7.01L23 24.97z" fill="#B7CA9D"/><path d="M23 15.03l-5.6-.66 18.19-8.41 4.91 7.01L23 15.03z" fill="#3C4929"/><path d="M17.39 10.62l18.2-4.66v5.62l-18.2 2.79v-3.75zM5.5 17.66L23 16l17.16 4L23 24 5.5 22.34v-4.68z" fill="#4B612C"/><path d="M40.5 17.66L23 16v8l17.5-1.66v-4.68z" fill="#759C3E"/><path d="M5.5 12.97l8.49 1 18.32-3.33L23.01 0 5.5 12.97z" fill="#3C4929"/><path d="M5.5 12.97L23 8V0L5.5 8.29v4.68z" fill="#4B612C"/><path d="M35.59 5.95v5.62l4.91 1.4V8.28l-4.91-2.33zM28.6 25.63v3.76l-18.2 4.66v-5.62l18.2-2.8zm3.71-14.98V4.4L23 0v8l9.32 2.64z" fill="#759C3E"/><path d="M40.5 27.03l-8.49-1-18.32 3.32L23 40l17.5-12.97z" fill="#B7CA9D"/><path d="M40.5 31.72v-4.69L23 32v8l17.5-8.28z" fill="#759C3E"/><path d="M13.69 29.35v6.24L23 40v-8l-9.31-2.65zm-3.28 4.7v-5.62l-4.91-1.4v4.68l4.91 2.33v.01z" fill="#4B612C"/></g><defs><clipPath id="clip0"><path fill="#fff" transform="translate(.5)" d="M0 0h40v40H0z"/></clipPath></defs></svg>