<svg width="40" height="40" viewBox="0 0 40 40" fill="none" xmlns="http://www.w3.org/2000/svg">
<path fill-rule="evenodd" clip-rule="evenodd" d="M13.0349 0H39.8156V26.9047C39.8156 34.1071 33.9499 40 26.7807 40H13.0349C5.8657 40 0 34.1071 0 26.9047V13.0953C0 5.89287 5.8657 0 13.0349 0Z" fill="url(#paint0_linear)"/>
<path fill-rule="evenodd" clip-rule="evenodd" d="M30.0195 31.3071C30.2444 31.0753 30.6639 30.6539 30.9256 30.4027C31.1873 30.1516 31.2912 30.0706 31.3864 30.0231C31.4817 29.9755 31.5681 29.9614 31.6347 29.9732C31.7013 29.9849 31.7481 30.0224 31.7808 30.067C31.8135 30.1116 31.8322 30.1633 31.8497 30.2537C31.8672 30.3441 31.8836 30.4731 31.9093 30.6562C31.935 30.8394 31.97 31.0765 31.9969 31.2842C32.0238 31.492 32.0425 31.6703 32.0401 31.7912C32.0378 31.9121 32.0144 31.9755 31.9654 32.0448C31.9163 32.114 31.8415 32.1892 31.7726 32.2431C31.7037 32.2971 31.6406 32.33 31.5658 32.3452C31.491 32.3605 31.4046 32.3581 31.3018 32.3499C31.199 32.3417 31.0798 32.3276 30.9676 32.3112C30.8555 32.2948 30.7503 32.276 30.644 32.2584C30.5377 32.2408 30.4302 32.2243 30.3075 32.2055C30.1849 32.1868 30.047 32.1657 29.95 32.1457C29.853 32.1258 29.797 32.107 29.7584 32.0753C29.7199 32.0436 29.6989 31.999 29.6848 31.9521C29.6708 31.9051 29.6638 31.8558 29.6731 31.8006C29.6825 31.7455 29.7082 31.6844 29.7362 31.6328C29.7643 31.5812 29.7947 31.5389 30.0195 31.3071Z" fill="#FEFEFE"/>
<path fill-rule="evenodd" clip-rule="evenodd" d="M11.3605 8.29431C12.1935 7.52581 12.9204 7.4325 13.6113 7.96512C24.5279 18.9323 30.0213 24.3912 30.0213 24.3912C30.7161 25.0352 31.1297 25.7089 31.262 26.4124C31.3562 27.056 31.4396 27.6851 31.5122 28.2996C31.5266 28.4223 31.4875 28.4988 31.4369 28.6105C31.2741 28.9694 30.9564 29.3399 30.4838 29.7221C29.4043 30.7785 28.8645 31.3066 28.8645 31.3066C28.5458 31.6668 27.781 31.4902 27.2317 31.379C25.989 31.1274 25.8754 31.3294 24.8549 30.363C13.9569 19.4146 8.50792 13.9404 8.50792 13.9404C7.98535 13.4693 7.73067 13.1078 7.74384 12.8558C7.73401 12.7278 7.7351 12.6079 7.74707 12.4962C7.78909 12.1042 8.07483 11.6849 8.31155 11.3727C8.48656 11.1419 8.70378 10.9021 8.96316 10.6534C9.6175 9.97263 10.4166 9.18628 11.3605 8.29431Z" fill="#FEFEFE"/>
<path fill-rule="evenodd" clip-rule="evenodd" d="M10.0523 9.59281C10.0093 9.67402 10.0084 9.75301 10.0185 9.83007C10.0285 9.90712 10.0495 9.98226 10.0811 10.0574C10.1126 10.1325 10.1547 10.2076 10.2131 10.2886C10.2715 10.3696 10.3463 10.4564 10.6232 10.7417C10.9001 11.0268 11.3791 11.5104 11.7915 11.9295C12.2039 12.3485 12.5497 12.7029 12.9458 13.102C13.3418 13.5011 13.7882 13.9447 14.0393 14.1912C14.2905 14.4377 14.3466 14.487 14.3735 14.5105C14.4003 14.534 14.398 14.5316 14.8744 14.0471C15.3508 13.5627 16.3059 12.5961 16.784 12.1134C17.2622 11.6307 17.2633 11.6319 17.2616 11.6301C17.2598 11.6284 17.2552 11.6236 16.6545 11.0205C16.0537 10.4174 14.857 9.21595 14.2592 8.61578C13.6615 8.0156 13.6626 8.01677 13.6304 7.99157C13.5981 7.96634 13.5323 7.9147 13.4557 7.86605C13.3791 7.81736 13.2916 7.77166 13.2001 7.73525C13.1085 7.69884 13.0129 7.67177 12.9102 7.65673C12.8075 7.64167 12.6977 7.63866 12.5944 7.64755C12.4911 7.65644 12.3942 7.67723 12.3077 7.70307C12.2211 7.72889 12.1447 7.75979 12.045 7.81252C11.9454 7.86522 11.8224 7.9398 11.7102 8.01845C11.5979 8.09708 11.4964 8.17983 11.4035 8.2609C11.3107 8.34197 11.2264 8.42142 11.1185 8.52403C11.0105 8.62663 10.8789 8.7524 10.7327 8.89307C10.5866 9.03373 10.426 9.18925 10.3032 9.30873C10.1803 9.42821 10.0953 9.5116 10.0523 9.59281Z" fill="url(#paint1_linear)"/>
<path fill-rule="evenodd" clip-rule="evenodd" d="M31.4369 28.6104C31.3484 28.7931 31.2506 28.9486 31.1433 29.077C30.5479 29.0398 30.0661 28.9958 29.6978 28.9448C29.0083 28.9125 28.2045 28.4477 27.2863 27.5505L15.7413 15.9166L13.1223 18.576L12.5299 17.9809L18.0528 12.4236L30.3838 24.758C30.8287 25.2284 31.1214 25.7798 31.262 26.4123C31.4204 27.6 31.4996 28.1938 31.4996 28.1938C31.5349 28.3425 31.514 28.4814 31.4369 28.6104Z" fill="url(#paint2_linear)"/>
<defs>
<linearGradient id="paint0_linear" x1="7.94538" y1="8.11352" x2="44.7916" y2="45.1264" gradientUnits="userSpaceOnUse">
<stop stop-color="#85E31C"/>
<stop offset="0.368627" stop-color="#2CC02B"/>
<stop offset="1" stop-color="#298822"/>
</linearGradient>
<linearGradient id="paint1_linear" x1="12.033" y1="8.81223" x2="17.1159" y2="13.8343" gradientUnits="userSpaceOnUse">
<stop stop-color="#C6C6C6"/>
<stop offset="0.611765" stop-color="#E2E2E2"/>
<stop offset="1" stop-color="#FEFEFE"/>
</linearGradient>
<linearGradient id="paint2_linear" x1="18.3344" y1="14.7757" x2="30.62" y2="27.9021" gradientUnits="userSpaceOnUse">
<stop stop-color="#C6C6C6"/>
<stop offset="0.670588" stop-color="#E2E2E2"/>
<stop offset="1" stop-color="#FEFEFE"/>
</linearGradient>
</defs>
</svg>
