<svg width="26" height="26" viewBox="0 0 26 26" fill="none" xmlns="http://www.w3.org/2000/svg">
<g clip-path="url(#clip0)">
<path fill-rule="evenodd" clip-rule="evenodd" d="M18.7228 2.03636C18.5261 1.91793 18.3251 1.80697 18.1195 1.70346C17.9094 1.6002 17.6931 1.49946 17.4736 1.41209C17.4042 1.38284 17.336 1.35613 17.266 1.32905C17.0743 1.25684 16.8811 1.17849 16.6832 1.12036C15.2682 0.656944 13.7731 0.488285 12.2903 0.624748C10.8076 0.761211 9.36851 1.19992 8.06178 1.91383C6.75506 2.62774 5.60839 3.60173 4.69249 4.77574C3.77658 5.94976 3.11083 7.29893 2.7363 8.74009C2.36176 10.1812 2.28638 11.6838 2.51478 13.1552C2.74317 14.6266 3.27056 16.0357 4.06434 17.2955C4.85812 18.5553 5.90153 19.6392 7.13023 20.4803C8.35893 21.3214 9.74685 21.902 11.2085 22.1862V25.3089C17.7364 24.3243 23.5169 19.1429 23.9476 12.3398C24.2072 8.24656 22.1658 4.06766 18.7228 2.03636Z" fill="#23D96C"/>
<path d="M10.6198 25.9927V22.6609C7.88074 22.0081 5.47672 20.3723 3.8641 18.0641C2.25149 15.7558 1.54252 12.9358 1.87186 10.1393C2.2012 7.34288 3.54586 4.76473 5.65061 2.89427C7.75536 1.02381 10.4737 -0.00873761 13.2895 -0.00730833C14.5043 -0.00933782 15.7117 0.183126 16.8657 0.562791C17.0199 0.607562 17.1801 0.668592 17.335 0.727805L17.4697 0.778711C17.5618 0.814817 17.6311 0.841916 17.7019 0.871884C17.8962 0.94915 18.1146 1.04735 18.3775 1.17661C18.5994 1.2883 18.8143 1.40684 19.0223 1.53225C22.5967 3.64118 24.8107 7.99911 24.5331 12.3776C24.1059 19.1153 18.5395 24.798 11.2946 25.8905L10.6198 25.9927ZM13.3043 1.16793H13.2902C10.725 1.16711 8.25157 2.12205 6.35245 3.84641C4.45332 5.57077 3.26473 7.94082 3.01867 10.4942C2.77262 13.0475 3.48668 15.6009 5.02158 17.6562C6.55648 19.7115 8.8021 21.1212 11.3202 21.6102L11.795 21.703V24.6113C18.1637 23.3628 22.9816 18.2827 23.3603 12.3033C23.6105 8.35477 21.6273 4.43227 18.4233 2.54322L18.4182 2.53996C18.2355 2.43164 18.0456 2.32511 17.8542 2.22871C17.6242 2.11606 17.4329 2.02906 17.256 1.95902C17.1838 1.92833 17.1242 1.90522 17.0635 1.88176L16.9166 1.82613C16.7772 1.77306 16.6451 1.72251 16.5176 1.68532C15.4809 1.34297 14.3961 1.16832 13.3043 1.16793Z" fill="#173647"/>
<path fill-rule="evenodd" clip-rule="evenodd" d="M11.1121 5.95266C11.2762 5.9324 11.4427 5.95284 11.5971 6.01216C11.7514 6.07147 11.8887 6.16784 11.997 6.29278C12.1648 6.47603 12.3022 6.68495 12.4039 6.91162C12.765 7.70595 12.9781 8.84652 12.5322 9.48595C12.0628 9.366 11.6231 9.15096 11.2403 8.85415C10.8574 8.55734 10.5397 8.18508 10.3066 7.76045C10.1886 7.52776 10.1223 7.27232 10.1123 7.01163C10.1199 6.74317 10.2261 6.48692 10.4104 6.29163C10.5948 6.09635 10.8445 5.97568 11.1121 5.95266Z" fill="#173647"/>
<path fill-rule="evenodd" clip-rule="evenodd" d="M8.49093 8.66529C8.55101 8.6604 8.61138 8.6604 8.67146 8.66529C8.94956 8.67012 9.22374 8.73154 9.47731 8.84582C10.2796 9.18954 11.1743 10.0297 11.3476 10.7749C10.6594 11.2335 9.41988 11.1959 8.61725 10.8522C8.37821 10.7361 8.15038 10.5982 7.93666 10.4402C7.77416 10.3176 7.65356 10.1478 7.59129 9.95402C7.52902 9.76022 7.52815 9.55191 7.58882 9.35761C7.64949 9.1633 7.76874 8.99249 7.93022 8.86856C8.0917 8.74463 8.28755 8.67364 8.49093 8.66529Z" fill="#173647"/>
<path fill-rule="evenodd" clip-rule="evenodd" d="M9.47504 14.3972C9.22348 14.5174 8.948 14.5791 8.66919 14.5777C8.45397 14.6029 8.23635 14.5586 8.0481 14.4513C7.85984 14.344 7.71081 14.1794 7.62278 13.9814C7.53475 13.7834 7.51233 13.5624 7.55878 13.3508C7.60524 13.1391 7.7181 12.9479 7.88097 12.8049C8.07733 12.6222 8.30909 12.4818 8.56191 12.3923C8.85671 12.2669 9.17313 12.2 9.49347 12.1955C10.0152 12.1861 10.9109 12.0698 11.3453 12.359C11.2305 13.1028 10.2773 14.0535 9.47504 14.3972Z" fill="#173647"/>
<path fill-rule="evenodd" clip-rule="evenodd" d="M12.7827 16.2424C12.6733 16.4813 12.5416 16.7093 12.3892 16.9233C11.8158 17.6685 10.4867 17.1454 10.5438 16.1705C10.5489 15.9155 10.6106 15.6648 10.7243 15.4365C11.068 14.6339 12.0031 13.6482 12.8058 13.4763C13.2636 14.1641 13.1267 15.4975 12.7827 16.2424Z" fill="#173647"/>
<path fill-rule="evenodd" clip-rule="evenodd" d="M14.1869 6.89244C14.2965 6.65346 14.4287 6.42546 14.5815 6.21149C14.6899 6.08289 14.8283 5.98293 14.9844 5.92047C15.1406 5.858 15.3097 5.83493 15.4769 5.8533C15.7528 5.87075 16.0113 5.99424 16.1982 6.19787C16.3852 6.4015 16.4861 6.66949 16.48 6.94585C16.4748 7.20687 16.4132 7.4637 16.2994 7.69868C16.0994 8.12266 15.8119 8.4995 15.4559 8.80442C15.0998 9.10934 14.6832 9.33546 14.2335 9.46787C13.719 8.83855 13.8431 7.6947 14.1869 6.89244Z" fill="#173647"/>
<path fill-rule="evenodd" clip-rule="evenodd" d="M14.6884 16.9237C14.5243 16.7371 14.3913 16.5253 14.2945 16.2965C13.9508 15.4943 13.9626 14.2934 14.4208 13.6626C15.2231 13.8348 16.064 14.688 16.4066 15.4907C16.5203 15.7254 16.5819 15.9819 16.5871 16.2427C16.6445 17.1024 15.3185 17.6115 14.6884 16.9237Z" fill="#173647"/>
<path fill-rule="evenodd" clip-rule="evenodd" d="M18.1997 14.5231C17.9216 14.5183 17.6473 14.4569 17.3937 14.3426C16.5914 13.9989 15.7119 13.1951 15.54 12.4499C15.9809 12.1611 16.7947 12.1297 17.3222 12.1394C17.6426 12.1444 17.959 12.2115 18.2538 12.3369C18.4924 12.4464 18.7202 12.5782 18.934 12.7305C19.7363 13.3053 19.2316 14.5802 18.1997 14.5231Z" fill="#173647"/>
</g>
<defs>
<clipPath id="clip0">
<rect width="26" height="26" fill="white"/>
</clipPath>
</defs>
</svg>
