<svg fill="none" xmlns="http://www.w3.org/2000/svg" viewBox="0 0 38 41"><path d="M35.1 21.69l.96 12.56-17.13 3.13-1.47-12.57 2.44-.34c.4.17.69.23 1.14.34.74.18 1.6.4 2.85-.29.28-.17.9-.7 1.13-1.04l10.07-1.8zM8.62 36.62c-.29-.46-.8-.98-1.6-1.62-1.13-.92-.74-2.54-.05-3.53.86-1.68 5.35-3.88 5.12-6.6-.11-.98-.23-2.26-1.14-3.18-.06.34 0 .7 0 .7s-.4-.47-.57-1.17c-.17-.23-.34-.34-.51-.7-.11.41-.11.82-.11.82s-.29-.75-.35-1.33c-.17.29-.22.8-.22.8s-.4-1.15-.29-1.78c-.17-.53-.74-1.63-.57-4.06.97.7 3.13.52 3.99-.75.28-.4.45-1.56-.12-3.82A31.46 31.46 0 0010.45 6l-.06.06c.23.63.63 2.02.8 2.72.45 2.02.63 2.72.4 3.65-.17.8-.63 1.33-1.82 1.9-1.14.59-2.73-.87-2.8-.92a6.59 6.59 0 01-2.1-3.13c-.11-.8.46-1.27.74-1.9-.4.1-.86.34-.86.34s.51-.58 1.2-1.04c.26-.16.5-.33.74-.52h-.74s.69-.4 1.43-.64H6.35L9.1 5.3c.86-.34 1.65-.23 2.1.41a3.97 3.97 0 002.56 1.68c.8-.35 1.08-.58 2.1-.88.92-1.04 1.66-1.15 1.66-1.15s-.52.46-.57.98c.51-.4 1.08-.75 1.08-.75s-.23.29-.4.7l.06.05c.63-.35 1.3-.64 1.3-.64s-.22.23-.45.58c.46 0 1.37 0 1.71.06 2.1.06 2.56-2.26 3.36-2.6 1.02-.35 1.48-.58 3.19 1.15C28.27 6.4 29.4 9 28.83 9.6c-.45.45-1.42-.18-2.5-1.51a6.09 6.09 0 01-1.2-2.6c-.1-.88-.73-1.4-.73-1.4s.4.88.4 1.62c0 .4.05 1.91.68 2.78-.06.12-.12.64-.17.7-.74-.93-2.4-1.56-2.62-1.8.9.76 2.96 2.44 3.76 4.06.73 1.56.28 2.95.68 3.3.11.11 1.6 1.97 1.88 2.95a5.51 5.51 0 01-.63 4.46l-1.82.29a2.38 2.38 0 01-.68-.24c.1-.23.4-.8.4-.92l-.12-.18a8 8 0 01-2.33 2.09 3.72 3.72 0 01-3.01.23c-2.22-.7-4.33-2.2-4.78-2.6 0 0 0 .28.05.4.92.99 1.96 1.86 3.08 2.6l-2.62.3 1.25 9.84c-.57.05-.63.11-1.25.23a6.47 6.47 0 00-2.68-3.88 4.85 4.85 0 00-3.64-.52l-.06.11c.92-.11 2 .06 3.08.76 1.08.69 1.93 2.48 2.27 3.53.4 1.39.69 2.83-.4 4.4-.8 1.1-3.07 1.73-4.89.4.51.81 1.14 1.45 2.05 1.56 1.3.18 2.56-.05 3.47-.92.74-.75 1.14-2.38 1.03-4.11l1.2-.18.39 3.07 19.4-2.36-1.71-15.75-.97.18L33.16.6.83 4.43 4.81 37.2l3.82-.58z" fill="#5C2D90"/><path d="M24 19.4c.87.64 1.6 1.04 2.34.99.46-.06.91-.82 1.2-1.51.22-.46.22-.98-.12-1.16a5.2 5.2 0 00-1.36 0c-.97.12-1.94.46-2.17.64-.34.23-.17.81.12 1.04zm.24-6.77v.05l.05.12c.23.46.46.93.91 1.16.12 0 .23-.06.34-.06.4 0 .63.06.8.12v-.35c-.06-.58.12-1.62-1.02-2.2-.46-.23-1.03-.12-1.25.11h.1c.3.12.12.24.07.35-.06.23-.12.3 0 .7M19.11 12.74c.29-.23-1.3-.58-2.56.23-.9.64-.9 1.97-.05 2.73.08.04.16.1.22.17.23-.12.57-.23.86-.35a9.87 9.87 0 011.43-.35c.17-.23.4-.57.34-1.21-.06-.88-.74-.7-.23-1.22zm9.29 14.07l-2.74 4.62-3.18-.98-2.8 4.34.12 1.39 15.25-2.84-.9-9.67L31.63 29l-3.24-2.2z" fill="#5C2D90"/></svg>