<svg fill="none" xmlns="http://www.w3.org/2000/svg" viewBox="0 0 71 25"><path fill-rule="evenodd" clip-rule="evenodd" d="M3.9 12c0 2.3 1.6 3.6 4.4 3V9c-2.8-.9-4.4.8-4.4 3zM8.4 0H12v17.7c-3.6.5-7 1-9.5-.5-3.2-1.7-3.4-7.3-1-9.8a7.4 7.4 0 016.7-1.6V.2 0zM18.2 3.9h-3.8V0h3.8v3.9zM63.1 15.2c4.1 1.6 4.6-7.3.4-6.5-2.5.5-2.4 5.7-.4 6.5zm.2-9.6c3.1-.3 5.5 1 6.4 3.2 1.6 3.6 0 7.7-2.7 9-1.3.6-2.7.6-4 .5-3.9-.3-6.3-4.3-5-8.7a6 6 0 01.6-1.3c.9-1.4 2.3-2.4 4.7-2.7zM23.3 13.8c-1 1.7 1.6 2.1 3.3 1.6V13c-1.3.1-2.8 0-3.3.9zm6.6 4c-3 .2-7.8 1.3-9.5-.8-1-1.2-.9-3.5 0-4.6 1.2-1.5 3.7-1.8 6-2 .1-.5 0-1.4-.2-1.7-2.1-.5-4.2.3-5.6 1v-3c2.2-1 7.3-2 8.8.3.8 1.2.5 3.3.5 5.2v5.6zM43 18h-3.7v-4.8c0-1.6.3-3.6-.6-4.2-.6-.5-2.2-.3-3.1 0v9h-3.8V6.5c3.9-1 10.8-2 11.3 2.7.2 2.4-.2 6 0 8.8zM48.6 14c.7 1 2.4 1.4 3.8.8l-.1-6c-3.2-.9-5.2 2.8-3.7 5.2zM58 6.1c-.3 1-.8 1.9-1.2 2.8-.4 0-.7-.2-1 0 0 4 1 9.5-.7 12.4-1 1.8-2.7 2.9-5.5 3-2 .2-3.5-.1-5-.7v-3.4c1.8 1 6 1.8 7.3-.3.3-.6.3-1.2.5-2.2-.8 0-1.6.4-2.5.5-4 0-6.4-3.1-5.4-7.4.3-1.7 1.3-3 2.6-3.8 2.8-1.7 7-1.6 11-.9z" fill="#2B2B2B"/><path fill-rule="evenodd" clip-rule="evenodd" d="M18.2 5.9v8c-.2 3.3-.2 6-1.4 7.5a7 7 0 01-1.1 1c-.4.3-1 .9-1.4.9-.4 0-1.4-.5-1.9-.7-.6-.3-1.1-.7-1.7-.9 1.4-.9 2.8-1.5 3.3-3.3.5-1.5.4-3.8.4-6V6h3.8z" fill="#2B2B2B"/></svg>