<svg fill="none" xmlns="http://www.w3.org/2000/svg" viewBox="0 0 71 40"><path fill-rule="evenodd" clip-rule="evenodd" d="M40.738 12.631h6.315v6.457h3.193c1.475 0 2.991-.263 4.388-.736.687-.233 1.457-.557 2.134-.967-.892-1.164-1.347-2.633-1.48-4.082-.183-1.97.215-4.535 1.548-6.078l.664-.768.791.636c1.989 1.6 3.667 3.84 3.962 6.386 2.399-.706 5.215-.54 7.328.68l.867.501-.456.891c-1.787 3.492-5.525 4.573-9.18 4.382C55.346 33.55 43.44 40 29.007 40c-7.458 0-14.3-2.788-18.196-9.404l-.063-.11-.568-1.155c-1.317-2.913-1.754-6.103-1.457-9.291l.089-.955h5.4V12.63h6.316V6.316h12.631V0h7.58v12.631z" fill="#364548"/><path fill-rule="evenodd" clip-rule="evenodd" d="M61.199 15.021c.423-3.291-2.04-5.876-3.567-7.104-1.76 2.035-2.034 7.369.728 9.614-1.542 1.369-4.789 2.61-8.114 2.61H9.769c-.323 3.47.287 6.667 1.678 9.403l.46.843c.292.494.61.972.955 1.431 1.664.107 3.199.144 4.602.113 2.76-.06 5.01-.387 6.716-.978a.487.487 0 01.318.919c-.227.079-.463.152-.707.222h-.001c-1.343.387-2.784.642-4.642.757.11.002-.115.016-.116.016-.063.004-.142.013-.206.017-.731.041-1.52.05-2.328.05-.883 0-1.752-.017-2.724-.067l-.027.017c3.37 3.79 8.645 6.064 15.256 6.064 13.989 0 25.855-6.202 31.11-20.124 3.727.383 7.31-.568 8.94-3.75-2.597-1.497-5.935-1.02-7.857-.053" fill="#22A0C8"/><path fill-rule="evenodd" clip-rule="evenodd" d="M61.198 15.021c.424-3.291-2.04-5.876-3.567-7.104-1.76 2.035-2.033 7.369.728 9.614-1.541 1.369-4.788 2.61-8.114 2.61h-38.08c-.164 5.316 1.808 9.35 5.299 11.79 2.759-.06 5.01-.387 6.715-.978a.487.487 0 01.319.919c-.227.079-.464.152-.708.222-1.344.387-2.908.675-4.766.79l-.046-.043c4.761 2.442 11.664 2.43 19.579-.607 8.874-3.41 17.133-9.905 22.897-17.334-.085.039-.17.079-.253.12" fill="#37B1D9"/><path fill-rule="evenodd" clip-rule="evenodd" d="M9.845 24.358c.248 1.86.795 3.6 1.602 5.186l.46.842c.292.495.61.973.954 1.432 1.665.107 3.199.144 4.603.113 2.759-.061 5.01-.387 6.715-.978a.487.487 0 01.319.919c-.227.079-.464.152-.708.222-1.344.387-2.9.658-4.758.773-.064.004-.175.005-.24.009-.73.04-1.512.066-2.32.066a53.46 53.46 0 01-2.756-.066c3.37 3.79 8.679 6.07 15.289 6.07 11.976 0 22.396-4.547 28.443-14.59H9.845" fill="#1B81A5"/><path fill-rule="evenodd" clip-rule="evenodd" d="M12.531 24.357c.716 3.265 2.436 5.828 4.934 7.573 2.759-.06 5.01-.386 6.715-.977a.487.487 0 01.319.918c-.227.08-.463.153-.708.223-1.344.386-2.932.658-4.791.773 4.76 2.442 11.644 2.407 19.555-.633 4.788-1.84 9.396-4.578 13.53-7.876H12.53" fill="#1D91B4"/><path fill-rule="evenodd" clip-rule="evenodd" d="M15.263 13.684h5.473v5.473h-5.473v-5.473zm.455.456h.432V18.7h-.434V14.14h.002zm.813 0h.449V18.7h-.45V14.14zm.829 0h.449V18.7h-.45V14.14zm.83 0h.448V18.7h-.449V14.14zm.829 0h.449V18.7h-.449V14.14zm.829 0h.432V18.7h-.432V14.14zm1.73-6.772h5.474v5.474h-5.474V7.368zm.456.456h.432v4.562h-.432V7.825zm.813 0h.449v4.562h-.449V7.825zm.829 0h.449v4.562h-.45V7.825zm.83 0h.448v4.562h-.449V7.825zm.828 0h.45v4.562h-.45V7.825zm.83 0h.432v4.562h-.432V7.825z" fill="#23A3C2"/><path fill-rule="evenodd" clip-rule="evenodd" d="M21.578 13.684h5.474v5.473h-5.474v-5.473zm.456.456h.432v4.559h-.432v-4.56zm.813 0h.449v4.559h-.449v-4.56zm.829 0h.449v4.559h-.45v-4.56zm.83 0h.448v4.559h-.449v-4.56zm.828 0h.45v4.559h-.45v-4.56zm.83 0h.432v4.559h-.432v-4.56z" fill="#34BBDE"/><path fill-rule="evenodd" clip-rule="evenodd" d="M27.895 13.684h5.473v5.473h-5.474v-5.473zm.455.456h.432v4.559h-.432v-4.56zm.812 0h.45v4.559h-.45v-4.56zm.83 0h.449v4.559h-.45v-4.56zm.83 0h.448v4.559h-.446v-4.56h-.003zm.828 0h.45v4.559h-.45v-4.56zm.83 0h.432v4.559h-.432v-4.56z" fill="#23A3C2"/><path fill-rule="evenodd" clip-rule="evenodd" d="M27.895 7.368h5.473v5.474h-5.474V7.368zm.455.456h.432v4.562h-.432V7.825zm.812 0h.45v4.562h-.45V7.825zm.83 0h.449v4.562h-.45V7.825zm.83 0h.448v4.562h-.446V7.825h-.003zm.828 0h.45v4.562h-.45V7.825zm.83 0h.432v4.562h-.432V7.825zm1.73 5.86h5.474v5.473H34.21v-5.473h-.001zm.456.456h.432V18.7h-.434V14.14h.002zm.812 0h.45V18.7h-.45V14.14zm.83 0h.449V18.7h-.45V14.14zm.829 0h.45V18.7h-.45V14.14zm.83 0h.449V18.7h-.45V14.14zm.829 0h.432V18.7h-.432V14.14z" fill="#34BBDE"/><path fill-rule="evenodd" clip-rule="evenodd" d="M34.21 7.368h5.475v5.474H34.21V7.368zm.457.456h.432v4.562h-.432V7.825zm.812 0h.45v4.562h-.45V7.825zm.83 0h.449v4.562h-.45V7.825zm.829 0h.45v4.562h-.45V7.825zm.83 0h.449v4.562h-.45V7.825zm.829 0h.432v4.562h-.432V7.825z" fill="#23A3C2"/><path fill-rule="evenodd" clip-rule="evenodd" d="M34.21 1.049h5.475v5.474H34.21V1.05zm.457.456h.432v4.561h-.432V1.505zm.812 0h.45v4.561h-.45V1.505zm.83 0h.449v4.561h-.45V1.505zm.829 0h.45v4.561h-.45V1.505zm.83 0h.449v4.561h-.45V1.505zm.829 0h.432v4.561h-.432V1.505z" fill="#34BBDE"/><path fill-rule="evenodd" clip-rule="evenodd" d="M40.526 13.684H46v5.473h-5.474v-5.473zm.456.456h.432v4.559h-.432v-4.56zm.812 0h.45v4.559h-.45v-4.56zm.83 0h.45v4.559h-.45v-4.56zm.829 0h.45v4.559h-.45v-4.56zm.83 0h.449v4.559h-.45v-4.56zm.829 0h.432v4.559h-.432v-4.56z" fill="#23A3C2"/><path fill-rule="evenodd" clip-rule="evenodd" d="M26.71 28.033a1.512 1.512 0 011.413 2.093 1.51 1.51 0 11-1.413-2.093z" fill="#D3ECEC"/><path fill-rule="evenodd" clip-rule="evenodd" d="M26.71 28.46c.134 0 .267.025.392.073a.441.441 0 10.607.594 1.082 1.082 0 11-.999-.667zM0 24.902h70.246c-1.529-.388-4.839-.912-4.293-2.917-2.781 3.219-9.488 2.258-11.181.672-1.885 2.733-12.859 1.694-13.624-.436-2.363 2.773-9.686 2.773-12.049 0-.766 2.127-11.74 3.17-13.624.435-1.693 1.587-8.397 2.548-11.181-.67C4.84 23.99 1.53 24.514 0 24.902" fill="#364548"/><path fill-rule="evenodd" clip-rule="evenodd" d="M30.724 38.917c-3.74-1.774-5.792-4.187-6.935-6.82-1.39.396-3.059.65-5 .758-.73.041-1.499.062-2.305.062-.93 0-1.91-.027-2.94-.082 3.43 3.425 7.649 6.067 15.46 6.115.577 0 1.15-.011 1.72-.033z" fill="#BDD9D7"/><path fill-rule="evenodd" clip-rule="evenodd" d="M25.178 34.524a12.96 12.96 0 01-1.388-2.43c-1.39.397-3.06.65-5 .76 1.333.723 3.24 1.393 6.389 1.67" fill="#D3ECEC"/></svg>