<svg width="144" height="64" viewBox="0 0 144 64" fill="none" xmlns="http://www.w3.org/2000/svg">
<g clip-path="url(#clip0)">
<path fill-rule="evenodd" clip-rule="evenodd" d="M130.413 44.6091C123.279 44.6091 117.495 38.9223 117.495 31.9055C117.495 24.8899 123.279 19.2031 130.413 19.2031C137.549 19.2031 143.333 24.8899 143.333 31.9055C143.333 38.9223 137.549 44.6091 130.413 44.6091ZM101.366 44.6091C94.2315 44.6091 88.4467 38.9223 88.4467 31.9055C88.4467 24.8899 94.2315 19.2031 101.366 19.2031C108.501 19.2031 114.285 24.8899 114.285 31.9055C114.285 38.9223 108.501 44.6091 101.366 44.6091ZM72.318 44.6091C65.1833 44.6091 59.3985 38.9223 59.3985 31.9055C59.3985 24.8899 65.1833 19.2031 72.318 19.2031C79.4528 19.2031 85.2376 24.8899 85.2376 31.9055C85.2376 38.9223 79.4528 44.6091 72.318 44.6091ZM43.3008 44.6091C36.165 44.6091 30.3813 38.9223 30.3813 31.9055C30.3813 24.8899 36.165 19.2031 43.3008 19.2031C50.4356 19.2031 56.2193 24.8899 56.2193 31.9055C56.2193 38.9223 50.4356 44.6091 43.3008 44.6091ZM14.2526 44.6091C7.11781 44.6091 1.33301 38.9223 1.33301 31.9055C1.33301 24.8899 7.11781 19.2031 14.2526 19.2031C21.3874 19.2031 27.1722 24.8899 27.1722 31.9055C27.1722 38.9223 21.3874 44.6091 14.2526 44.6091Z" fill="url(#paint0_linear)"/>
<path fill-rule="evenodd" clip-rule="evenodd" d="M131.028 27.052L127.103 28.6506L125.731 31.9056L127.103 35.1629L128.809 35.8573V31.9056C128.809 31.0343 129.527 30.3289 130.413 30.3289C131.3 30.3289 132.018 31.0343 132.018 31.9056V38.2192C132.018 38.7455 131.751 39.2379 131.305 39.5306C131.038 39.7064 130.727 39.797 130.413 39.797C130.206 39.797 129.997 39.7577 129.8 39.6769L125.261 37.8283C124.867 37.6677 124.555 37.3609 124.392 36.9744L122.512 32.5095C122.349 32.124 122.349 31.6883 122.512 31.3018L124.392 26.8391C124.555 26.4525 124.867 26.1446 125.261 25.9852L129.8 24.1365C130.618 23.8024 131.557 24.1846 131.896 24.9893C132.236 25.7952 131.846 26.7179 131.028 27.052ZM107.388 36.9744C107.183 37.4603 106.744 37.8152 106.218 37.9167C105.692 38.0204 105.15 37.8588 104.77 37.4854L97.3903 30.2284L96.6837 31.9056L98.3088 35.7656C98.6482 36.5714 98.26 37.4941 97.4403 37.8283C97.2395 37.9102 97.0321 37.9484 96.8268 37.9484C96.1968 37.9484 95.6 37.5815 95.3438 36.9744L93.4636 32.5095C93.3005 32.124 93.3005 31.6883 93.4636 31.3018L95.3438 26.8391C95.549 26.3521 95.9871 25.9972 96.5129 25.8956C97.0398 25.7919 97.5822 25.9535 97.9616 26.327L105.342 33.5828L106.048 31.9056L104.422 28.0467C104.083 27.242 104.472 26.3182 105.291 25.9852C106.11 25.6511 107.049 26.0343 107.388 26.8391L109.267 31.3018C109.431 31.6883 109.431 32.124 109.267 32.5095L107.388 36.9744ZM72.3177 37.9473C71.4314 37.9473 70.7126 37.2419 70.7126 36.3694V27.4429C70.7126 26.5705 71.4314 25.8651 72.3177 25.8651C73.204 25.8651 73.9228 26.5705 73.9228 27.4429V36.3694C73.9228 37.2419 73.204 37.9473 72.3177 37.9473ZM47.2251 34.9117C48.0437 34.5776 48.9832 34.9598 49.3216 35.7656C49.661 36.5704 49.2728 37.4941 48.453 37.8283L43.9139 39.6769C43.7176 39.7566 43.509 39.797 43.3005 39.797C43.0908 39.797 42.8823 39.7566 42.6859 39.6769L38.1468 37.8283C37.651 37.6263 37.2916 37.1949 37.1873 36.6774C37.082 36.1609 37.2472 35.6258 37.6266 35.2546L45.0065 27.9965L43.3005 27.302L39.3748 28.9006C38.5562 29.2348 37.6177 28.8526 37.2783 28.0467C36.9389 27.242 37.3282 26.3182 38.1468 25.9852L42.6859 24.1365C43.0797 23.976 43.5212 23.976 43.9139 24.1365L48.453 25.9852C48.9488 26.1872 49.3082 26.6174 49.4136 27.135C49.5179 27.6515 49.3526 28.1865 48.9744 28.5589L41.5944 35.8158L43.3005 36.5103L47.2251 34.9117ZM20.2744 36.9744C20.1113 37.3609 19.7985 37.6677 19.4059 37.8283L14.8668 39.6769C14.6693 39.7566 14.4597 39.797 14.2522 39.797C13.9394 39.797 13.6288 39.7064 13.3604 39.5306C12.9145 39.2379 12.6471 38.7455 12.6471 38.2192V31.9056C12.6471 31.0343 13.3659 30.3289 14.2522 30.3289C15.1385 30.3289 15.8573 31.0343 15.8573 31.9056V35.8573L17.5634 35.1629L18.9344 31.9056L17.5634 28.6506L13.6377 27.052C12.8191 26.7179 12.4297 25.7952 12.7691 24.9893C13.1086 24.1846 14.047 23.8024 14.8668 24.1365L19.4059 25.9852C19.7985 26.1446 20.1113 26.4525 20.2744 26.8391L22.1546 31.3018C22.3177 31.6883 22.3177 32.124 22.1546 32.5095L20.2744 36.9744Z" fill="white"/>
</g>
<defs>
<linearGradient id="paint0_linear" x1="1.33301" y1="44.6091" x2="1.33301" y2="19.2031" gradientUnits="userSpaceOnUse">
<stop stop-color="#FF8209"/>
<stop offset="1" stop-color="#FEC737"/>
</linearGradient>
<clipPath id="clip0">
<rect width="143" height="63" fill="white" transform="translate(0.333008 0.5)"/>
</clipPath>
</defs>
</svg>
