<svg width="40" height="31" viewBox="0 0 40 31" fill="none" xmlns="http://www.w3.org/2000/svg">
<path d="M33.8163 8.51685C33.1061 6.56425 31.9508 4.8079 30.4261 3.38515C28.0871 1.20688 25.0568 0 21.9034 0C19.1761 0 16.572 0.883083 14.375 2.55113C13.3144 3.35572 12.3958 4.30748 11.6383 5.38681C11.1648 5.31812 10.6818 5.27888 10.1894 5.27888C7.47159 5.27888 4.9053 6.37782 2.98295 8.36967C1.06061 10.3615 0 13.0108 0 15.8366C0 18.4564 0.9375 20.9683 2.63258 22.9111C3.97727 24.4516 5.7197 25.5407 7.64205 26.051C8.47538 28.6217 10.8239 30.4762 13.5795 30.4762C17.036 30.4762 19.8485 27.562 19.8485 23.9806C19.8485 23.7746 19.839 23.5587 19.8201 23.3526L28.6174 18.5644L26.6951 15.1105L18.286 19.6829C17.1402 18.3289 15.4545 17.4752 13.5795 17.4752C10.8617 17.4752 8.54167 19.2807 7.67045 21.7925C5.45455 20.7819 3.90152 18.4957 3.90152 15.8268C3.90152 12.2356 6.71402 9.31162 10.1894 9.31162C11.411 9.31162 12.5568 9.67467 13.5227 10.3026C14.6875 6.66237 18.0019 4.03275 21.9034 4.03275C26.4489 4.03275 30.1799 7.58471 30.6818 12.1473C30.8428 12.1277 31.0038 12.1179 31.1648 12.1179C33.8826 12.1179 36.089 14.4041 36.089 17.2201C36.089 19.889 34.1098 22.0771 31.5909 22.3028H28.7784C28.6553 22.2733 28.5227 22.2635 28.3902 22.2635C27.3011 22.2635 26.4205 23.176 26.4205 24.3044C26.4205 25.3739 27.2159 26.2472 28.2292 26.3355V26.3551H31.5909H31.7614L31.9318 26.3355C34.1288 26.1393 36.1648 25.109 37.661 23.4213C39.1667 21.7239 40 19.526 40 17.2201C40 13.1579 37.3958 9.68448 33.8163 8.51685ZM13.5795 21.4687C14.9148 21.4687 16.0038 22.5971 16.0038 23.9806C16.0038 25.3641 14.9148 26.4925 13.5795 26.4925C12.2443 26.4925 11.1553 25.3641 11.1553 23.9806C11.1553 22.5971 12.2443 21.4687 13.5795 21.4687Z" fill="#5588FF"/>
</svg>
