<svg width="144" height="63" viewBox="0 0 144 63" fill="none" xmlns="http://www.w3.org/2000/svg">
<path fill-rule="evenodd" clip-rule="evenodd" d="M72.8305 16.8662H66.1934V38.1473C66.1934 43.1576 68.0628 44.1497 73.3574 44.1497H77.6107V38.9906H75.7036C73.4954 38.9906 72.843 38.6062 72.843 36.5847V28.2881H77.6107V23.1786H72.8305V16.8662ZM54.9517 22.6329C50.4348 22.6329 45.0022 24.0095 44.4376 29.677L50.7108 29.7639C50.7862 27.8664 52.3419 27.0975 54.4748 27.0975C56.9089 27.0975 58.1636 27.8664 58.1636 29.8879V30.4087L54.7759 30.756C51.3884 31.1032 47.8754 31.5249 45.7425 33.1619C44.3709 34.2196 43.6076 35.872 43.6974 37.5892C43.6974 41.4461 46.6584 44.6706 52.0408 44.6706C55.0394 44.6706 57.3856 43.9389 58.9038 42.0042L59.0292 44.1497H64.8007C64.5405 41.3463 64.4274 38.5315 64.4619 35.7166L64.5498 31.1281C64.6752 25.0388 61.3755 22.6329 54.9517 22.6329ZM58.3266 34.6377L54.8513 34.9849C51.288 35.3321 50.5101 36.1011 50.5101 37.4653C50.5101 38.8294 51.4637 39.8215 53.6342 39.8215C55.8047 39.8215 58.3266 38.6681 58.3266 35.791V34.6749V34.6377ZM85.6028 23.1414H78.9532V44.1497H85.6028V23.1414ZM102.503 40.8385C101.051 42.6598 98.8131 43.6947 96.4681 43.6288C90.8598 43.6288 86.9202 40.1564 86.9202 33.1123C86.9202 26.0682 91.1233 22.7197 96.7693 22.7197C98.9722 22.6489 101.081 23.6039 102.465 25.2992V23.1538H109.103V41.6693C109.103 45.1046 108.149 47.6717 106.279 49.4327C104.41 51.1937 101.625 52.0867 98.024 52.0867C91.6377 52.0867 88.4258 48.6514 87.5978 44.6457L93.6326 44.5217C94.3227 46.3695 95.7656 47.002 97.9738 47.002C99.1454 47.0757 100.308 46.7567 101.273 46.0967C102.163 45.3011 102.627 44.1411 102.528 42.9591L102.503 40.8385ZM98.2498 28.0028C100.847 28.0028 102.804 29.5902 102.804 33.1123C102.804 36.3243 100.897 38.3457 98.2498 38.3457C95.6025 38.3457 93.6954 36.3243 93.6954 33.1494C93.6954 29.5902 95.6526 28.0028 98.2498 28.0028ZM121.787 22.6826C127.784 22.6826 133.167 26.155 133.167 33.72C133.167 41.2849 127.784 44.7078 121.787 44.7078C115.79 44.7078 110.495 41.2725 110.495 33.72C110.495 26.1673 115.74 22.6826 121.775 22.6826H121.787ZM126.392 33.72C126.392 37.366 124.434 39.4247 121.787 39.4247L121.775 39.4123C119.09 39.4123 117.22 37.4032 117.22 33.7075C117.22 30.0119 119.178 27.9532 121.775 27.9532C124.372 27.9532 126.392 30.0739 126.392 33.72ZM31.2512 35.6174H42.7313C42.8083 34.9381 42.8376 34.2544 42.8191 33.5711C42.8191 26.0186 37.4366 22.5337 31.4393 22.5337C25.4421 22.5337 20.1475 26.0062 20.1475 33.5711C20.0091 36.4985 21.0827 39.3552 23.121 41.4833L18.667 44.5589H31.5272C36.458 44.5589 40.9622 42.2398 42.4176 37.2048H35.8056C34.916 38.7175 33.2296 39.5943 31.4644 39.4619C29.1183 39.4619 26.8975 38.2217 26.8599 35.6422H31.2512V35.6174ZM36.1318 31.0288C36.0942 28.4492 33.8734 27.2092 31.5272 27.2092C29.2438 27.2092 26.8975 28.3749 26.8599 31.0288H36.1318Z" fill="#BE1E28"/>
<path fill-rule="evenodd" clip-rule="evenodd" d="M27.763 9.4309C30.0445 9.53113 32.0823 10.8583 33.0584 12.8796C34.336 15.4792 33.1335 17.7108 30.954 19.3785L30.7536 19.5256C30.8663 19.7586 31.4049 20.7886 31.5177 20.9848H31.1794C27.9335 20.8852 24.7621 21.9491 22.2608 23.9768C20.7811 25.2674 19.6824 26.9231 19.0792 28.7713L18.1523 26.8828C18.5878 26.5688 18.9685 26.1879 19.2796 25.7548C18.8419 26.0274 18.3647 26.2341 17.8642 26.3679C16.6294 26.7335 15.3042 26.6773 14.1064 26.2084C13.5506 25.9754 13.0416 25.6474 12.6032 25.2398L12.3903 25.0191C10.918 23.4158 10.7576 21.0346 12.002 19.2558C12.6619 18.2972 13.6398 17.5912 14.7702 17.2572L14.8955 17.3307C15.224 17.735 15.6225 18.0795 16.073 18.3485C16.3462 18.5119 16.6358 18.6475 16.9373 18.7531C16.772 18.661 16.6131 18.5586 16.4613 18.4466C15.9916 18.0956 15.6067 17.6477 15.3339 17.1345C15.0492 16.6094 14.8988 16.0246 14.8955 15.4301C14.9635 13.2473 16.7983 11.5165 19.0291 11.5308C19.4181 11.5308 19.8055 11.5803 20.1815 11.6779C20.8528 11.8495 21.4718 12.1777 21.9853 12.6344L22.048 12.6957C22.3166 12.945 22.5485 13.2298 22.7368 13.5418C22.6046 13.1605 22.4146 12.8009 22.1731 12.475V12.4014C23.3302 10.4738 25.4813 9.33066 27.763 9.4309ZM85.167 21.8554V16.6318H78.5281L85.167 21.8554Z" fill="#E68C00"/>
</svg>
