<svg fill="none" xmlns="http://www.w3.org/2000/svg" viewBox="0 0 143 64">
  <path fill-rule="evenodd" clip-rule="evenodd" d="M72.2 17h-6.7v21.5c0 5 1.9 6 7.2 6h4.2v-5.2H75c-2.2 0-2.8-.4-2.8-2.4v-8.4h4.7v-5.1h-4.7V17zm-18 5.8c-4.4 0-9.9 1.4-10.4 7.1l6.2.1c.1-2 1.7-2.7 3.8-2.7 2.4 0 3.7.8 3.7 2.8v.5l-3.4.4c-3.4.4-6.9.8-9 2.4a5.3 5.3 0 00-2 4.5c0 3.9 2.9 7.1 8.3 7.1 3 0 5.3-.7 6.8-2.7l.2 2.2H64c-.2-2.8-.3-5.7-.3-8.5v-4.6c.2-6.2-3-8.6-9.5-8.6zM57.8 35l-3.5.4c-3.6.3-4.4 1-4.4 2.5 0 1.3 1 2.3 3.2 2.3 2.1 0 4.7-1.1 4.7-4V35zm27.2-11.6h-6.6v21.2h6.6V23.3zm17 17.9a7.4 7.4 0 01-6.1 2.8c-5.6 0-9.5-3.5-9.5-10.6s4.2-10.5 9.8-10.5a7 7 0 015.7 2.6v-2.2h6.6V42c0 3.5-1 6-2.8 7.8-1.9 1.8-4.6 2.7-8.2 2.7-6.4 0-9.6-3.5-10.5-7.5l6-.1c.8 1.8 2.2 2.5 4.4 2.5 1.2 0 2.3-.3 3.3-1 .9-.7 1.4-2 1.3-3.1v-2.1zm-4.3-13c2.6 0 4.5 1.6 4.5 5.2 0 3.2-1.9 5.3-4.5 5.3-2.7 0-4.6-2-4.6-5.3 0-3.6 2-5.2 4.6-5.2zM121 23c6 0 11.4 3.5 11.4 11 0 7.7-5.4 11.2-11.4 11.2s-11.3-3.5-11.3-11.1 5.3-11.1 11.3-11.1zm4.6 11c0 3.8-2 5.8-4.6 5.8-2.7 0-4.5-2-4.5-5.7 0-3.8 2-5.8 4.5-5.8 2.6 0 4.6 2.1 4.6 5.8zm-95.1 2H42v-2c0-7.7-5.3-11.2-11.3-11.2-6 0-11.3 3.5-11.3 11.1-.2 3 1 5.9 3 8L18 45h12.9c4.9 0 9.4-2.3 10.9-7.4H35a4.6 4.6 0 01-4.3 2.3c-2.3 0-4.6-1.3-4.6-3.9h4.4zm4.9-4.6c0-2.6-2.3-3.9-4.6-3.9s-4.7 1.2-4.7 3.9h9.3z" fill="#BE1E28"/>
  <path fill-rule="evenodd" clip-rule="evenodd" d="M27.1 9.5c2.3.1 4.3 1.4 5.3 3.5 1.3 2.6 0 4.9-2.1 6.5l-.2.2.8 1.5h-.4c-3.2-.1-6.4 1-9 3a11 11 0 00-3 4.8l-1-1.9a5 5 0 001.1-1.1l-1.4.6c-1.2.3-2.6.3-3.8-.2-.5-.2-1-.5-1.5-1l-.2-.2a4.7 4.7 0 01-.4-5.8c.7-1 1.7-1.7 2.8-2h.1a4.5 4.5 0 002 1.5l-.4-.3a4 4 0 01-1.1-1.3c-.3-.6-.5-1.1-.5-1.7a4 4 0 014.2-4 4.6 4.6 0 013 1.1v.1l.7.8a4 4 0 00-.6-1v-.1c1.2-2 3.3-3 5.6-3zM84.5 22v-5.2h-6.6l6.6 5.2z" fill="#E68C00"/>
</svg>
