<svg width="143" height="64" viewBox="0 0 143 64" fill="none" xmlns="http://www.w3.org/2000/svg">
<path d="M52.8464 31.9176H61.4759V29.3769H52.8464V24.2184H62.6491V21.6777H50.2393V41.0282H62.6491V38.4618H52.8464V31.9176Z" fill="#101113"/>
<path d="M76.5449 28.7096C75.2674 27.6831 73.6771 27.1184 72.0607 27.1184C70.1836 27.1184 68.4107 27.837 67.0811 29.1459C65.7515 30.4547 65.0215 32.1999 65.0215 34.0477C65.0215 35.9211 65.7515 37.6663 67.0811 38.9751C68.4107 40.284 70.1836 41.0025 72.0607 41.0025C73.7032 41.0025 75.2674 40.4379 76.5449 39.4114V41.0025H79.1259V21.6777H76.5449V28.7096ZM72.0607 38.4618C69.61 38.4618 67.6025 36.4857 67.6025 34.0477C67.6025 31.6353 69.61 29.6592 72.0607 29.6592C74.5374 29.6592 76.5449 31.6353 76.5449 34.0477C76.5449 36.4857 74.5374 38.4618 72.0607 38.4618Z" fill="#101113"/>
<path d="M90.7014 35.2022C90.7014 36.9987 89.2154 38.4615 87.3904 38.4615C85.5654 38.4615 84.1054 36.9987 84.1054 35.2022V27.1182H81.5244V35.2022C81.5244 36.7677 82.1501 38.2049 83.2451 39.3084C84.3662 40.412 85.8261 41.0022 87.3904 41.0022C88.5897 41.0022 89.7368 40.6686 90.7014 40.0014V41.0022H93.2824V27.1182H90.7014V35.2022Z" fill="#101113"/>
<path d="M110.698 27.1182C109.134 27.1182 107.674 27.7341 106.553 28.812C106.396 28.966 106.24 29.1199 106.109 29.2996C105.979 29.1456 105.823 28.966 105.666 28.812C104.545 27.7084 103.059 27.1182 101.495 27.1182C100.322 27.1182 99.1746 27.4518 98.2099 28.1191V27.1182H95.6289V41.0279H98.2099V32.8925C98.2099 31.096 99.696 29.6589 101.495 29.6589C103.32 29.6589 104.806 31.1217 104.806 32.8925V41.0022H107.387V32.8925C107.387 31.096 108.873 29.6589 110.672 29.6589C112.497 29.6589 113.983 31.1217 113.983 32.8925V41.0022H116.564V32.8925C116.564 31.3527 115.938 29.9155 114.843 28.812C113.774 27.7341 112.288 27.1182 110.698 27.1182Z" fill="#101113"/>
<path d="M130.512 28.7093C129.234 27.6828 127.644 27.1182 126.027 27.1182C124.15 27.1182 122.378 27.8367 121.048 29.1456C119.718 30.4545 118.988 32.1996 118.988 34.0474C118.988 35.9208 119.718 37.666 121.048 38.9748C122.378 40.2837 124.15 41.0022 126.027 41.0022C127.67 41.0022 129.234 40.4376 130.512 39.4111V41.0022H133.093V27.1182H130.512V28.7093ZM126.027 38.4615C123.577 38.4615 121.569 36.4854 121.569 34.0474C121.569 31.635 123.577 29.6589 126.027 29.6589C128.504 29.6589 130.512 31.635 130.512 34.0474C130.512 36.4854 128.504 38.4615 126.027 38.4615Z" fill="#101113"/>
<path d="M138.047 21.6777H135.466V41.0282H138.047V21.6777Z" fill="#101113"/>
<path d="M142.975 21.6777H140.394V41.0282H142.975V21.6777Z" fill="#101113"/>
<path d="M38.768 19.1631C40.0455 19.8817 40.8276 21.2162 40.8276 22.6534V25.7073C40.8276 27.1445 40.0455 28.479 38.768 29.1976L21.1961 39.1808C20.7007 39.4631 20.1272 39.4631 19.6318 39.1808L14.3915 36.2038C13.8962 35.9215 13.6094 35.4082 13.6094 34.8693V30.6861C13.6094 29.5056 14.9129 28.7613 15.9558 29.3516L19.6318 31.4304C20.1272 31.7127 20.7007 31.7127 21.1961 31.4304L31.6506 25.5277C32.6934 24.9374 32.6934 23.4489 31.6506 22.8587L38.768 19.1631Z" fill="#B21F24"/>
<path d="M8.55132 48.3939C6.75242 47.0594 7.71705 42.0806 7.71705 42.0806L7.76919 40.2072C7.16955 39.8736 6.80456 39.232 6.80456 38.5647V38.2311V25.0912C6.80456 24.5523 7.09134 24.039 7.58669 23.7567L19.5533 16.9558C20.0487 16.6735 20.6744 16.6479 21.1958 16.9045L25.9407 11.8744L22.4472 9.89831C21.1697 9.17973 19.6055 9.17973 18.3541 9.89831L2.05962 19.1629C0.782133 19.8815 0 21.216 0 22.6532V41.1824C0 42.6196 0.782133 43.9541 2.05962 44.6727L8.55132 48.3939Z" fill="#B21F24"/>
<path d="M38.7678 19.1629L22.4473 9.89831C21.1698 9.17973 19.6055 9.17973 18.3541 9.89831C18.3541 9.89831 14.8606 11.9001 13.3224 12.747C12.9052 13.0036 6.88281 16.4169 6.88281 16.4169L9.54206 14.9027C12.0449 13.4656 15.1474 13.4656 17.6502 14.9027L23.0469 17.9824L29.1997 21.4727L31.6504 22.8585C35.7175 25.1682 35.7175 30.9426 31.6504 33.2523C30.5293 33.8939 29.6429 34.3815 29.304 34.5868L38.7417 29.2231C40.0192 28.5045 40.8013 27.17 40.8013 25.7328V22.6789C40.8013 21.216 40.0192 19.8815 38.7678 19.1629Z" fill="#D53327"/>
<path d="M15.0176 52.064L18.3547 53.9631C19.6322 54.6817 21.1964 54.6817 22.4478 53.9631L40.0198 43.9799C40.5151 43.6976 40.8019 43.1844 40.8019 42.6454V38.4622C40.8019 37.2817 39.4983 36.5374 38.4555 37.1277L21.1704 46.9569C20.675 47.2392 20.1014 47.2392 19.6061 46.9569L15.0176 52.064Z" fill="#B21F24"/>
<path d="M0 41.1821C0 42.6193 0.782133 43.9538 2.05962 44.6724L18.3541 53.937C19.6315 54.6555 21.1958 54.6555 22.4472 53.937L40.0191 43.9538C40.0191 43.9538 35.1178 46.7511 31.2332 48.9325C28.7304 50.344 25.654 50.344 23.1511 48.9325L17.6501 45.8016L8.13418 40.4122L4.04102 38.1024C1.53819 36.6653 0 34.0476 0 31.1989V29.1201V41.1821Z" fill="#D53327"/>
</svg>
