<svg fill="none" xmlns="http://www.w3.org/2000/svg" viewBox="0 0 143 64">
  <path d="M52.8 32h8.7v-2.7h-8.7v-5.2h9.8v-2.6H50.2v19.7h12.4v-2.6h-9.8v-6.7zM76.5 28.7A7 7 0 0065 34a7 7 0 0011.5 5.4v1.6h2.6V21.5h-2.6v7.2zm-4.4 9.9a4.5 4.5 0 110-9 4.5 4.5 0 010 9zM90.7 35.3a3.3 3.3 0 11-6.6 0V27h-2.6v8.3a6 6 0 005.9 5.8c1.2 0 2.3-.3 3.3-1v1h2.6v-14h-2.6v8.2zM110.7 27a6 6 0 00-4.6 2.3l-.4-.5a5.9 5.9 0 00-7.5-.7v-1h-2.6v14h2.6V33a3.3 3.3 0 016.6 0v8.2h2.6V33a3.3 3.3 0 016.6 0v8.2h2.6V33a6 6 0 00-5.9-5.9zM130.5 28.7A7 7 0 00119 34a7 7 0 0011.5 5.4v1.6h2.6v-14h-2.6v1.6zm-4.5 9.9a4.5 4.5 0 110-9 4.5 4.5 0 010 9zM138 21.5h-2.5v19.7h2.5V21.5zM143 21.5h-2.6v19.7h2.6V21.5z" fill="#DFDFDF"/>
  <path d="M38.8 19c1.2.7 2 2 2 3.5v3.1a4 4 0 01-2 3.6l-17.6 10c-.5.4-1 .4-1.6 0l-5.2-3c-.5-.2-.8-.7-.8-1.3v-4.2c0-1.2 1.3-2 2.4-1.4l3.6 2.1c.5.3 1.1.3 1.6 0l10.5-6c1-.6 1-2 0-2.7l7-3.7z" fill="#B21F24"/>
  <path d="M8.6 48.7c-1.8-1.4-.9-6.5-.9-6.5v-1.9a2 2 0 01-.9-1.6V25c0-.6.3-1 .8-1.4l12-6.9c.4-.3 1-.3 1.6 0l4.7-5.1-3.5-2a4.1 4.1 0 00-4 0L2 19A4 4 0 000 22.5v18.8A4 4 0 002 45l6.6 3.8z" fill="#B21F24"/>
  <path d="M38.8 19L22.4 9.5a4.1 4.1 0 00-4 0l-5 3-6.5 3.7 2.6-1.6a8 8 0 018.2 0l5.3 3.2 6.2 3.5 2.5 1.4a6 6 0 010 10.6l-2.4 1.3 9.4-5.4a4 4 0 002.1-3.6v-3c0-1.6-.8-3-2-3.6z" fill="#D53327"/>
  <path d="M15 52.4l3.4 2c1.2.6 2.8.6 4 0L40 44.1c.5-.3.8-.8.8-1.4v-4.2c0-1.2-1.3-2-2.3-1.4l-17.3 10c-.5.3-1.1.3-1.6 0L15 52.4z" fill="#B21F24"/>
  <path d="M0 41.3A4 4 0 002 45l16.4 9.4c1.2.7 2.8.7 4 0L40 44l-8.8 5.1a8.1 8.1 0 01-8 0L17.7 46 8 40.5l-4-2.3a8.1 8.1 0 01-4.1-7V29v12.2z" fill="#D53327"/>
</svg>
