<svg width="41" height="41" viewBox="0 0 41 41" fill="none" xmlns="http://www.w3.org/2000/svg">
<g clip-path="url(#clip0)">
<path d="M16.8139 15.048H18.4367V19.8342L23.1095 15.048H25.2517L20.1245 20.3214L25.5759 26.4062H23.4992L18.4367 20.7273V26.4062H16.8139V15.048Z" fill="url(#paint0_linear)"/>
<path d="M21.8969 10.5406L29.8887 15.1546C30.0249 15.2336 30.1089 15.3791 30.1089 15.5363V24.7645C30.1089 24.9219 30.1935 25.0674 30.3297 25.1462L37.4614 29.264C37.7554 29.4338 38.1227 29.2214 38.1227 28.8823V10.9092C38.1227 10.7519 38.0387 10.6065 37.9024 10.5276L22.3379 1.54135C22.044 1.37173 21.6761 1.58387 21.6761 1.9231V10.159C21.6761 10.3161 21.7603 10.4617 21.8969 10.5406Z" fill="url(#paint1_linear)"/>
<path d="M28.7735 27.0773L20.7817 31.6913C20.6455 31.7702 20.4772 31.7702 20.3409 31.6913L11.234 26.4334C11.0978 26.3544 11.0132 26.2088 11.0132 26.0517V15.5357C11.0132 15.3784 11.0978 15.233 11.234 15.154L19.2258 10.5398C19.3624 10.4611 19.4464 10.3155 19.4464 10.1583V1.92285C19.4464 1.58362 19.0787 1.37148 18.7848 1.5411L3.22026 10.5273C3.084 10.6063 3 10.7517 3 10.909V30.6784C3 30.8355 3.084 30.9811 3.22026 31.0601L20.3409 40.9447C20.4772 41.0237 20.6455 41.0237 20.7817 40.9447L36.3463 31.9587C36.6402 31.7889 36.6402 31.3647 36.3463 31.195L29.2145 27.0773C29.0777 26.9983 28.9098 26.9983 28.7735 27.0773Z" fill="url(#paint2_linear)"/>
</g>
<defs>
<linearGradient id="paint0_linear" x1="24.3024" y1="26.1142" x2="17.3312" y2="14.6276" gradientUnits="userSpaceOnUse">
<stop stop-color="#4F66B9"/>
<stop offset="1" stop-color="#484FAB"/>
</linearGradient>
<linearGradient id="paint1_linear" x1="39.862" y1="27.731" x2="24.0597" y2="0.522464" gradientUnits="userSpaceOnUse">
<stop stop-color="#4F66B9"/>
<stop offset="1" stop-color="#484FAB"/>
</linearGradient>
<linearGradient id="paint2_linear" x1="24.1554" y1="38.8458" x2="6.92541" y2="8.42607" gradientUnits="userSpaceOnUse">
<stop stop-color="#4C68BB"/>
<stop offset="1" stop-color="#5180C9"/>
</linearGradient>
<clipPath id="clip0">
<rect width="40.4677" height="40" fill="white" transform="translate(0 0.790039)"/>
</clipPath>
</defs>
</svg>
