<svg width="26" height="26" viewBox="0 0 26 26" fill="none" xmlns="http://www.w3.org/2000/svg">
<path d="M25.9561 13.6389C25.9561 11.4575 24.6067 9.54059 22.5772 8.80245C22.665 8.33974 22.7089 7.87703 22.7089 7.4033C22.7089 3.33804 19.4177 0.032959 15.3806 0.032959C13.011 0.032959 10.8169 1.1677 9.4346 3.08465C8.75443 2.55584 7.92067 2.2694 7.05401 2.2694C4.9038 2.2694 3.15949 4.0211 3.15949 6.18042C3.15949 6.65415 3.24726 7.11686 3.40084 7.54652C1.38228 8.27364 0 10.2236 0 12.394C0 14.5864 1.36034 16.5033 3.38987 17.2414C3.30211 17.6931 3.25823 18.1669 3.25823 18.6406C3.25823 22.6948 6.5384 25.9889 10.5755 25.9889C12.9451 25.9889 15.1392 24.8431 16.5105 22.9262C17.1907 23.466 18.0245 23.7635 18.8911 23.7635C21.0413 23.7635 22.7857 22.0118 22.7857 19.8525C22.7857 19.3787 22.6979 18.916 22.5443 18.4864C24.5629 17.7592 25.9561 15.8092 25.9561 13.6389Z" fill="white"/>
<path d="M10.2027 11.215L15.8854 13.815L21.612 8.76921C21.6998 8.35056 21.7327 7.94294 21.7327 7.50226C21.7327 3.9548 18.8584 1.06836 15.326 1.06836C13.2087 1.06836 11.2449 2.11497 10.0492 3.86666L9.09473 8.83531L10.2027 11.215Z" fill="#FED10A"/>
<path d="M4.32282 17.2526C4.23506 17.6713 4.20215 18.1009 4.20215 18.5416C4.20215 22.1001 7.08738 24.9865 10.6308 24.9865C12.7591 24.9865 14.7448 23.9289 15.9405 22.1662L16.884 17.2196L15.6224 14.7958L9.91776 12.1848L4.32282 17.2526Z" fill="#24BBB1"/>
<path d="M4.28904 7.38114L8.18355 8.30657L9.03925 3.86674C8.51267 3.45911 7.85444 3.23877 7.17427 3.23877C5.48482 3.23877 4.10254 4.61589 4.10254 6.32351C4.10254 6.68707 4.16836 7.05063 4.28904 7.38114Z" fill="#EF5098"/>
<path d="M3.9491 8.31763C2.21577 8.89051 0.998047 10.5651 0.998047 12.4049C0.998047 14.2007 2.10606 15.7981 3.7626 16.4371L9.22589 11.4795L8.22758 9.33119L3.9491 8.31763Z" fill="#17A8E0"/>
<path d="M16.9277 22.1659C17.4653 22.5735 18.1125 22.8049 18.7817 22.8049C20.4712 22.8049 21.8535 21.4277 21.8535 19.7201C21.8535 19.3455 21.7876 18.982 21.667 18.6515L17.7834 17.7371L16.9277 22.1659Z" fill="#93C83E"/>
<path d="M17.7169 16.7127L21.9954 17.7152C23.7397 17.1423 24.9464 15.4677 24.9464 13.6169C24.9464 11.8321 23.8384 10.2237 22.1819 9.5957L16.5869 14.5203L17.7169 16.7127Z" fill="#0779A1"/>
</svg>
