<svg width="26" height="26" viewBox="0 0 26 26" fill="none" xmlns="http://www.w3.org/2000/svg">
<g clip-path="url(#clip0)">
<path d="M13.8662 13.0003C13.8662 11.8511 14.3228 10.7489 15.1354 9.9362C15.9481 9.12354 17.0503 8.66699 18.1995 8.66699C19.3488 8.66699 20.451 9.12354 21.2637 9.9362C22.0763 10.7489 22.5329 11.8511 22.5329 13.0003C22.5329 14.1496 22.0763 15.2518 21.2637 16.0645C20.451 16.8771 19.3488 17.3337 18.1995 17.3337C17.0503 17.3337 15.9481 16.8771 15.1354 16.0645C14.3228 15.2518 13.8662 14.1496 13.8662 13.0003Z" fill="#1ABCFE"/>
<path d="M5.2002 21.6668C5.2002 20.5176 5.65674 19.4154 6.4694 18.6027C7.28206 17.79 8.38426 17.3335 9.53353 17.3335H13.8669V21.6668C13.8669 22.8161 13.4103 23.9183 12.5977 24.731C11.785 25.5436 10.6828 26.0002 9.53353 26.0002C8.38426 26.0002 7.28206 25.5436 6.4694 24.731C5.65674 23.9183 5.2002 22.8161 5.2002 21.6668V21.6668Z" fill="#0ACF83"/>
<path d="M13.8662 0.000244141V8.66691H18.1995C19.3488 8.66691 20.451 8.21036 21.2637 7.39771C22.0763 6.58505 22.5329 5.48285 22.5329 4.33358C22.5329 3.18431 22.0763 2.08211 21.2637 1.26945C20.451 0.45679 19.3488 0.000244141 18.1995 0.000244141L13.8662 0.000244141Z" fill="#FF7262"/>
<path d="M5.2002 4.33358C5.2002 5.48285 5.65674 6.58505 6.4694 7.39771C7.28206 8.21036 8.38426 8.66691 9.53353 8.66691H13.8669V0.000244141H9.53353C8.38426 0.000244141 7.28206 0.45679 6.4694 1.26945C5.65674 2.08211 5.2002 3.18431 5.2002 4.33358H5.2002Z" fill="#F24E1E"/>
<path d="M5.2002 13.0003C5.2002 14.1496 5.65674 15.2518 6.4694 16.0645C7.28206 16.8771 8.38426 17.3337 9.53353 17.3337H13.8669V8.66699H9.53353C8.38426 8.66699 7.28206 9.12354 6.4694 9.9362C5.65674 10.7489 5.2002 11.8511 5.2002 13.0003H5.2002Z" fill="#A259FF"/>
</g>
<defs>
<clipPath id="clip0">
<rect width="26" height="26" fill="white"/>
</clipPath>
</defs>
</svg>
