<svg fill="none" xmlns="http://www.w3.org/2000/svg" viewBox="0 0 40 40"><path d="M19.38 35.383l16.922-16.925H23.998l-10.767 10.77 6.15 6.155zM4 19.998L23.998 0h12.304L10.154 26.152 4 19.998z" fill="rgb(57, 206, 253)"/><path d="M23.998 39.996h12.304L25.535 29.23l-6.154 6.154 4.617 4.613z" fill="rgb(3, 86, 155)"/><path d="M25.535 29.229l-6.154 6.154 9.127-3.162-2.973-2.992z" fill="url(#paint0_linear)"/><path d="M13.23 29.225l6.155-6.154 6.153 6.154-6.153 6.158-6.154-6.158z" fill="rgb(22, 185, 253)"/><path d="M36.302 18.458l-10.767 10.77L36.302 40H23.998l-4.617-4.617-6.154-6.154 10.771-10.771h12.304zM23.998 0L4 19.998l6.154 6.154L36.302 0H23.998z" fill="url(#paint1_radial)"/><defs><radialGradient id="paint1_radial" cx="0" cy="0" r="1" gradientUnits="userSpaceOnUse" gradientTransform="translate(-878.273 -359.781) scale(1.89961)"><stop stop-color="rgb(255, 255, 255)" stop-opacity=".1"/><stop offset="1" stop-color="rgb(255, 255, 255)" stop-opacity="0"/></radialGradient><linearGradient id="paint0_linear" x1="-961.341" y1="-432.412" x2="-961.163" y2="-432.59" gradientUnits="userSpaceOnUse"><stop stop-color="rgb(26, 35, 126)" stop-opacity=".4"/><stop offset="1" stop-color="rgb(26, 35, 126)" stop-opacity="0"/></linearGradient></defs></svg>