<svg width="26" height="26" viewBox="0 0 26 26" fill="none" xmlns="http://www.w3.org/2000/svg">
<g clip-path="url(#clip0)">
<path d="M16.4926 7.71468H17.2854L19.5453 5.45479L19.6561 4.49496C15.45 0.782059 9.03088 1.18316 5.31798 5.38924C4.28636 6.55664 3.53879 7.94722 3.12988 9.45173C3.38116 9.34873 3.66052 9.33156 3.92272 9.40491L8.4425 8.6589C8.4425 8.6589 8.67192 8.27809 8.79209 8.3015C10.8023 6.09311 14.1859 5.8356 16.5082 7.71468H16.4926Z" fill="#EA4335"/>
<path d="M22.765 9.4518C22.2453 7.53839 21.1793 5.8185 19.6966 4.50439L16.5253 7.67573C17.8644 8.76978 18.6276 10.4194 18.5948 12.1487V12.7121C20.1539 12.7121 21.4181 13.9763 21.4181 15.5354C21.4181 17.0945 20.1539 18.3587 18.5948 18.3587H12.9482L12.3848 18.9299V22.3166L12.9482 22.88H18.5948C22.6495 22.9113 25.9628 19.6494 25.994 15.5947C26.0128 13.1319 24.8001 10.8283 22.765 9.4518Z" fill="#4285F4"/>
<path d="M7.29469 22.844H12.9413V18.3242H7.29469C6.89203 18.3242 6.49561 18.2368 6.12884 18.0698L5.33601 18.3164L3.06051 20.5763L2.8623 21.3691C4.13739 22.3336 5.69497 22.8518 7.29469 22.844Z" fill="#34A853"/>
<path d="M7.29462 8.18292C3.23837 8.20633 -0.0281682 11.5134 -0.00475776 15.5697C0.00928851 17.8342 1.06588 19.9662 2.86224 21.3458L6.13659 18.0715C4.71635 17.43 4.08427 15.757 4.72572 14.3367C5.36716 12.9165 7.04023 12.2844 8.46046 12.9259C9.0863 13.2084 9.58729 13.7109 9.87133 14.3367L13.1457 11.0624C11.7535 9.23951 9.58729 8.17356 7.29462 8.18292Z" fill="#FBBC05"/>
</g>
<defs>
<clipPath id="clip0">
<rect width="26" height="26" fill="white"/>
</clipPath>
</defs>
</svg>
