<svg width="26" height="24" viewBox="0 0 26 24" fill="none" xmlns="http://www.w3.org/2000/svg">
<path fill-rule="evenodd" clip-rule="evenodd" d="M13.0016 23.9752L17.7756 9.24146H8.22754L13.0016 23.9752Z" fill="#E24329"/>
<path fill-rule="evenodd" clip-rule="evenodd" d="M13.0009 23.9752L8.22682 9.24146H1.53613L13.0009 23.9752Z" fill="#FC6D26"/>
<path fill-rule="evenodd" clip-rule="evenodd" d="M1.5363 9.24146L0.0855584 13.7189C-0.0467654 14.1273 0.0981607 14.5747 0.444599 14.827L13.001 23.9752L1.5363 9.24146Z" fill="#FCA326"/>
<path fill-rule="evenodd" clip-rule="evenodd" d="M1.53613 9.24139H8.22682L5.35141 0.367365C5.20351 -0.0893139 4.55932 -0.08919 4.41143 0.367365L1.53613 9.24139Z" fill="#E24329"/>
<path fill-rule="evenodd" clip-rule="evenodd" d="M13.001 23.9752L17.775 9.24146H24.4657L13.001 23.9752Z" fill="#FC6D26"/>
<path fill-rule="evenodd" clip-rule="evenodd" d="M24.4657 9.24146L25.9164 13.7189C26.0488 14.1273 25.9038 14.5747 25.5574 14.827L13.001 23.9752L24.4657 9.24146Z" fill="#FCA326"/>
<path fill-rule="evenodd" clip-rule="evenodd" d="M24.4651 9.24139H17.7744L20.6498 0.367365C20.7977 -0.0893139 21.4419 -0.08919 21.5898 0.367365L24.4651 9.24139Z" fill="#E24329"/>
</svg>
