<svg width="26" height="26" viewBox="0 0 26 26" fill="none" xmlns="http://www.w3.org/2000/svg">
<path fill-rule="evenodd" clip-rule="evenodd" d="M12.7327 10.3432C11.647 10.6193 10.906 10.8264 9.83751 11.1026C9.57901 11.1716 9.56178 11.1888 9.33775 10.93C9.07925 10.6366 8.88969 10.4467 8.52779 10.2742C7.44211 9.73916 6.39089 9.89448 5.40861 10.533C4.23676 11.2924 3.6336 12.4142 3.65084 13.8121C3.66807 15.1927 4.61589 16.3317 5.9773 16.5216C7.14915 16.6769 8.13143 16.2627 8.90692 15.3826C9.06202 15.1927 9.19988 14.9856 9.37221 14.744C8.75182 14.744 7.97634 14.744 6.04623 14.744C5.68434 14.744 5.59817 14.5196 5.7188 14.2263C5.94283 13.6913 6.35643 12.7938 6.59769 12.3451C6.64939 12.2416 6.77002 12.069 7.02852 12.069H13.3014C13.2669 12.535 13.2669 13.0009 13.198 13.4669C13.0084 14.7095 12.5431 15.8485 11.7848 16.8495C10.5441 18.489 8.92415 19.5072 6.87342 19.7834C5.18458 20.0077 3.61637 19.6798 2.23773 18.6443C0.962479 17.6779 0.23869 16.4008 0.0491268 14.813C-0.174903 12.9319 0.376555 11.2406 1.51394 9.75642C2.73748 8.15142 4.35739 7.13319 6.33919 6.77077C7.9591 6.47739 9.51008 6.66723 10.906 7.61642C11.8193 8.22045 12.4742 9.04884 12.905 10.0498C13.0084 10.2051 12.9395 10.2914 12.7327 10.3432Z" fill="#327C99"/>
<path d="M18.4368 19.8872C16.8686 19.8526 15.4382 19.4039 14.2319 18.3684C13.2152 17.4883 12.5776 16.3665 12.3708 15.0376C12.0606 13.0875 12.5948 11.3617 13.7666 9.8257C15.0246 8.16892 16.5412 7.30602 18.5919 6.9436C20.3497 6.63295 22.004 6.80553 23.5033 7.82376C24.8647 8.7557 25.7091 10.0155 25.9332 11.6723C26.2261 14.0021 25.5541 15.9005 23.9514 17.5228C22.814 18.6791 21.4181 19.4039 19.8154 19.7318C19.3501 19.8181 18.8849 19.8354 18.4368 19.8872ZM22.5383 12.9149C22.521 12.6905 22.521 12.518 22.4866 12.3454C22.1764 10.6368 20.6082 9.67037 18.971 10.0501C17.3683 10.4125 16.3344 11.4307 15.9552 13.053C15.645 14.3991 16.2999 15.7625 17.5407 16.3147C18.4885 16.7289 19.4363 16.6772 20.3497 16.2112C21.7111 15.5036 22.4521 14.3991 22.5383 12.9149Z" fill="#327C99"/>
</svg>
