<svg xmlns="http://www.w3.org/2000/svg" fill="none" width="121" height="41" viewBox="0 0 121 41">
  <path fill="black" d="M23.203 20.2256c.0986.8076.1317 1.4806.1317 2.0523 0 6.8308-4.7787 11.7431-11.4366 11.7431C5.20761 34.021 0 28.8729 0 22.2448 0 15.6499 5.17454 10.468 11.7994 10.468c4.9105 0 9.2278 2.3557 10.7768 6.7626l-5.2401 1.5488c-1.2856-2.5578-3.3946-3.2308-5.5367-3.2308-3.59246 0-6.3283 2.8936-6.3283 6.6962 0 3.8357 2.80142 6.7294 6.4926 6.7294 2.9006 0 5.0103-1.5481 5.8338-4.0377h-6.7566v-4.7109H23.203zm15.2585 4.8451c0-2.6241-1.9448-4.3737-3.9884-4.3737-2.1421 0-4.0868 1.7496-4.0868 4.3737 0 2.6579 1.9447 4.3744 4.0868 4.3744 2.0436 0 3.9884-1.7165 3.9884-4.3744zm5.0758 0c0 5.3501-4.1531 8.9169-9.0642 8.9169-5.0091 0-9.1622-3.5668-9.1622-8.9169 0-5.3163 4.1531-8.8825 9.1622-8.8825 4.9111 0 9.0642 3.5662 9.0642 8.8825zm11.2704 3.6343c4.12 0 6.8228-2.5571 6.8228-6.4598 0-3.9033-2.7028-6.461-6.8228-6.461h-3.098V28.705h3.098zm.1979-17.7324c7.2842 0 12.096 4.5764 12.096 11.2726 0 6.6951-4.8118 11.2714-12.096 11.2714h-8.7339v-22.544h8.7339zm19.3452 12.1806h6.8222c-.4939-1.8165-1.8125-2.6584-3.3284-2.6584-1.4834 0-2.9993.9426-3.4938 2.6584zm12.0304 3.2967h-12.129c.4283 2.0198 1.7793 3.2639 3.5593 3.2639 1.2193 0 2.6366-.3021 3.5269-1.9511l4.6801.9759c-1.4173 3.5661-4.4166 5.2826-8.207 5.2826-4.7787 0-8.7339-3.5999-8.7339-8.9507 0-5.3157 3.9552-8.9494 8.767-8.9494 4.6801 0 8.4373 3.4316 8.5366 8.9494v1.3794zm6.9199-3.2967h6.8219c-.4942-1.8165-1.8122-2.6584-3.3281-2.6584-1.4834 0-2.9993.9426-3.4938 2.6584zm12.0299 3.2967H93.2025c.4283 2.0198 1.7793 3.2639 3.5593 3.2639 1.2194 0 2.6367-.3021 3.5272-1.9511l4.68.9759c-1.417 3.5661-4.417 5.2826-8.2072 5.2826-4.7787 0-8.7339-3.5999-8.7339-8.9507 0-5.3157 3.9552-8.9494 8.767-8.9494 4.6801 0 8.4371 3.4316 8.5361 8.9494v1.3794z"/>
</svg>
