<svg fill="none" xmlns="http://www.w3.org/2000/svg" viewBox="0 0 143 63">
  <path d="M42.7 29.8l.1 2c0 6.6-4.7 11.4-11.2 11.4-6.5 0-11.6-5-11.6-11.5 0-6.3 5-11.4 11.5-11.4 4.8 0 9 2.3 10.6 6.6L37 28.4c-1.3-2.5-3.4-3.1-5.5-3.1-3.5 0-6.1 2.8-6.1 6.4 0 3.8 2.7 6.6 6.3 6.6 2.8 0 4.9-1.5 5.7-4h-6.6v-4.5h11.9zm15 4.7c0-2.6-2-4.3-4-4.3a4 4 0 00-4 4.3c0 2.6 2 4.2 4 4.2s4-1.6 4-4.2zm4.9 0c0 5.2-4 8.6-8.9 8.6s-9-3.4-9-8.6c0-5.2 4.1-8.6 9-8.6 4.8 0 8.9 3.4 8.9 8.6zm11 3.5c4 0 6.7-2.5 6.7-6.3 0-3.7-2.7-6.2-6.7-6.2h-3V38h3zm.2-17.2c7.1 0 11.8 4.5 11.8 11 0 6.4-4.7 10.9-11.8 10.9h-8.6V20.8h8.6zm19 11.8h6.6c-.5-1.7-1.8-2.5-3.3-2.5-1.4 0-3 .9-3.4 2.5zm11.7 3.2H92.6c.4 2 1.7 3.2 3.5 3.2 1.2 0 2.6-.3 3.4-2l4.6 1c-1.4 3.5-4.3 5.2-8 5.2a8.4 8.4 0 01-8.6-8.7c0-5.2 4-8.7 8.6-8.7s8.3 3.3 8.4 8.7v1.3zm6.7-3.2h6.7c-.5-1.7-1.8-2.5-3.2-2.5-1.5 0-3 .9-3.5 2.5zm11.8 3.2h-11.9c.5 2 1.8 3.2 3.5 3.2 1.2 0 2.6-.3 3.5-2l4.5 1c-1.3 3.5-4.3 5.2-8 5.2a8.4 8.4 0 01-8.5-8.7c0-5.2 3.8-8.7 8.6-8.7 4.5 0 8.2 3.3 8.3 8.7v1.3z" fill="#DFDFDF"/>
</svg>
