<svg width="143" height="63" viewBox="0 0 143 63" fill="none" xmlns="http://www.w3.org/2000/svg">
<path d="M42.6896 29.7923C42.786 30.5746 42.8183 31.2267 42.8183 31.7806C42.8183 38.3985 38.1454 43.1576 31.6347 43.1576C25.0924 43.1576 20 38.1699 20 31.7484C20 25.3592 25.06 20.3389 31.5383 20.3389C36.3401 20.3389 40.5619 22.6211 42.0766 26.8906L36.9525 28.3911C35.6953 25.9131 33.6329 25.261 31.5383 25.261C28.0253 25.261 25.35 28.0645 25.35 31.7484C25.35 35.4647 28.0895 38.2681 31.6989 38.2681C34.5354 38.2681 36.5983 36.7683 37.4036 34.3563H30.7966V29.7923H42.6896ZM57.6103 34.4864C57.6103 31.944 55.7086 30.249 53.7103 30.249C51.6155 30.249 49.7139 31.944 49.7139 34.4864C49.7139 37.0613 51.6155 38.7243 53.7103 38.7243C55.7086 38.7243 57.6103 37.0613 57.6103 34.4864ZM62.5738 34.4864C62.5738 39.6696 58.5126 43.1253 53.7103 43.1253C48.812 43.1253 44.7508 39.6696 44.7508 34.4864C44.7508 29.3357 48.812 25.8808 53.7103 25.8808C58.5126 25.8808 62.5738 29.3357 62.5738 34.4864ZM73.5948 38.0073C77.6237 38.0073 80.2666 35.53 80.2666 31.7489C80.2666 27.9673 77.6237 25.4893 73.5948 25.4893H70.5653V38.0073H73.5948ZM73.7884 20.8277C80.9114 20.8277 85.6167 25.2614 85.6167 31.7489C85.6167 38.2352 80.9114 42.6689 73.7884 42.6689H65.2477V20.8277H73.7884ZM92.7054 32.6286H99.3766C98.8936 30.8687 97.6044 30.0531 96.1219 30.0531C94.6714 30.0531 93.1891 30.9663 92.7054 32.6286ZM104.47 35.8225H92.609C93.0279 37.7792 94.349 38.9846 96.0896 38.9846C97.2819 38.9846 98.6678 38.692 99.5385 37.0945L104.115 38.0398C102.729 41.4948 99.7961 43.1578 96.0896 43.1578C91.4166 43.1578 87.5489 39.6701 87.5489 34.4862C87.5489 29.3361 91.4166 25.8157 96.1219 25.8157C100.698 25.8157 104.373 29.1404 104.47 34.4862V35.8225ZM111.236 32.6286H117.908C117.424 30.8687 116.135 30.0531 114.653 30.0531C113.202 30.0531 111.72 30.9663 111.236 32.6286ZM123 35.8225H111.14C111.559 37.7792 112.88 38.9846 114.621 38.9846C115.813 38.9846 117.199 38.692 118.069 37.0945L122.646 38.0398C121.26 41.4948 118.327 43.1578 114.621 43.1578C109.947 43.1578 106.08 39.6701 106.08 34.4862C106.08 29.3361 109.947 25.8157 114.653 25.8157C119.229 25.8157 122.903 29.1404 123 34.4862V35.8225Z" fill="#FB7655"/>
</svg>
