<svg width="53" height="52" viewBox="0 0 53 52" fill="none" xmlns="http://www.w3.org/2000/svg">
<path d="M0.0844727 23.1299C0.0844727 12.2473 0.0844727 6.80602 3.46527 3.42523C6.84606 0.0444336 12.2874 0.0444336 23.17 0.0444336H28.9414C39.824 0.0444336 45.2653 0.0444336 48.6461 3.42523C52.0269 6.80602 52.0269 12.2473 52.0269 23.1299V28.9013C52.0269 39.7839 52.0269 45.2252 48.6461 48.606C45.2653 51.9868 39.824 51.9868 28.9414 51.9868H23.17C12.2874 51.9868 6.84606 51.9868 3.46527 48.606C0.0844727 45.2252 0.0844727 39.7839 0.0844727 28.9013V23.1299Z" fill="#693BDF"/>
<path d="M16.5037 25.3654C15.2818 25.9391 15.5368 27.6497 16.9818 27.6497L24.6318 27.6816C24.7699 27.6816 24.823 27.7347 24.823 27.8729L24.8443 35.4697C24.8443 36.8935 26.5549 37.2122 27.1818 35.8522L34.853 19.3729C35.5118 17.981 34.3962 17.0566 33.068 17.6729L16.5037 25.3654ZM18.023 26.2897C17.9487 26.2897 17.9274 26.2047 18.0018 26.1729L33.1955 19.171C33.3124 19.1179 33.3868 19.1816 33.3337 19.3091L26.3212 34.4604C26.2787 34.5454 26.183 34.5135 26.183 34.4391L26.2255 26.9272C26.2255 26.5235 25.9599 26.2472 25.5349 26.2472L18.023 26.2897Z" fill="white"/>
</svg>
