<svg fill="none" xmlns="http://www.w3.org/2000/svg" viewBox="0 0 41 40"><path d="M39.474 17.666a14.48 14.48 0 00-.41-2.29 13.683 13.683 0 00-1.071-2.74 15.213 15.213 0 00-1.994-2.938c-.33-.383-.696-.756-1.083-1.117.581-2.225-.706-4.154-.706-4.154-2.223-.131-3.636.669-4.16 1.03-.091-.033-.171-.076-.262-.11a16.113 16.113 0 00-1.174-.405c-.399-.12-.81-.23-1.23-.329a16.345 16.345 0 00-1.277-.24c-.08-.012-.148-.023-.228-.033-.969-2.981-3.75-4.23-3.75-4.23-3.11 1.895-3.692 4.547-3.692 4.547s-.011.055-.034.154c-.17.044-.342.098-.513.142-.239.066-.478.154-.706.241-.24.088-.467.176-.707.274-.467.198-.934.417-1.39.658-.444.24-.877.504-1.3.778l-.113-.044c-4.308-1.578-8.125.318-8.125.318-.354 4.405 1.72 7.178 2.13 7.682-.102.274-.193.548-.284.822-.32.997-.559 2.016-.707 3.08-.023.153-.045.306-.057.46-3.988 1.896-5.162 5.764-5.162 5.764 3.316 3.671 7.19 3.901 7.19 3.901l.012-.01a16.83 16.83 0 001.698 2.4c.274.317.547.613.843.91-1.208 3.33.171 6.092.171 6.092 3.693.132 6.12-1.556 6.633-1.94.364.121.74.23 1.117.318 1.14.285 2.302.45 3.464.494.285.01.581.021.866.01H23.873l.183-.01v.01c1.743 2.39 4.797 2.73 4.797 2.73 2.177-2.203 2.302-4.395 2.302-4.867v-.032-.066-.099c.456-.307.89-.635 1.3-.997a13.605 13.605 0 002.267-2.553l.171-.264c2.462.132 4.205-1.468 4.205-1.468-.41-2.466-1.869-3.671-2.176-3.901 0 0-.012-.011-.034-.022-.023-.011-.023-.022-.023-.022-.012-.011-.034-.022-.057-.033l.034-.45c.023-.262.023-.536.023-.8V23.968 23.9l-.012-.164-.011-.22c0-.076-.011-.142-.023-.208-.011-.065-.011-.142-.023-.208l-.022-.208-.035-.208a10.217 10.217 0 00-.16-.811 10.541 10.541 0 00-1.253-2.981 10.17 10.17 0 00-2.085-2.39 10.547 10.547 0 00-5.539-2.421 9.433 9.433 0 00-1.47-.077h-.365l-.182.011c-.068 0-.136.011-.194.011-.25.022-.5.055-.74.099a8.313 8.313 0 00-4.798 2.696 7.762 7.762 0 00-1.322 2.148 7.314 7.314 0 00-.524 2.301c-.011.186-.011.384-.011.57v.142l.01.154c.012.087.012.186.024.274.034.383.114.756.216 1.107.217.712.559 1.358.98 1.906.422.548.935.998 1.47 1.36a6.26 6.26 0 001.687.767c.57.164 1.14.23 1.675.23h.296c.035 0 .069 0 .103-.011.057 0 .114-.011.171-.011.011 0 .034 0 .046-.011l.057-.011c.034 0 .068-.011.102-.011l.194-.033a.88.88 0 00.182-.044c.126-.022.24-.066.354-.099a4.95 4.95 0 00.65-.262c.204-.1.387-.22.569-.33.045-.032.102-.065.148-.109a.406.406 0 00.068-.58.431.431 0 00-.535-.1l-.137.066a3.79 3.79 0 01-1.026.33l-.284.032c-.046 0-.092.011-.149.011h-.273c-.057 0-.114 0-.171-.011h-.069c-.022 0-.056 0-.08-.01-.056-.012-.102-.012-.159-.023a4.569 4.569 0 01-1.242-.35 4.378 4.378 0 01-1.151-.724 4.236 4.236 0 01-.9-1.085 4.069 4.069 0 01-.49-1.359 3.973 3.973 0 01-.046-.734c0-.066.012-.131.012-.197v-.088c0-.033.01-.066.01-.098.012-.132.035-.263.058-.395a5.213 5.213 0 011.584-2.86c.216-.197.444-.373.684-.537a4.76 4.76 0 01.775-.428c.273-.12.547-.219.843-.296.285-.076.581-.12.889-.153.148-.01.296-.022.456-.022h.353l.125.011c.33.022.65.066.969.143a7.007 7.007 0 011.846.668c1.163.625 2.154 1.59 2.758 2.75a5.958 5.958 0 01.684 2.346l.011.12.012.121v.471c0 .077-.012.209-.012.285a8.569 8.569 0 01-.057.537c-.023.175-.057.35-.091.526a6.85 6.85 0 01-.125.515c-.092.34-.206.68-.342 1.02a8.83 8.83 0 01-1.072 1.873 8.748 8.748 0 01-3.441 2.707 8.56 8.56 0 01-2.143.625c-.364.066-.74.099-1.116.11h-.525-.045a5.58 5.58 0 01-.604-.033 12.345 12.345 0 01-2.36-.406 12.229 12.229 0 01-2.21-.855c-1.402-.723-2.667-1.71-3.647-2.904a11.063 11.063 0 01-2.12-4 11.163 11.163 0 01-.387-2.202l-.011-.143V20.898v-.076-.274a12.637 12.637 0 01.285-2.247c.08-.372.17-.745.285-1.118.216-.734.49-1.446.809-2.115.65-1.337 1.493-2.531 2.507-3.485.25-.24.513-.46.786-.68.274-.207.559-.405.855-.59.285-.187.593-.352.9-.505.148-.077.308-.153.467-.22l.24-.098.239-.098c.32-.132.65-.242.992-.34.08-.022.17-.044.25-.077.08-.022.171-.044.25-.066.172-.043.343-.087.514-.12.08-.022.17-.033.262-.055.091-.022.17-.033.262-.055.091-.01.17-.033.262-.044l.125-.022.137-.021.262-.033.297-.033c.08-.011.216-.022.296-.033.057-.011.125-.011.182-.022l.126-.01.057-.012h.068c.103-.01.194-.01.296-.022l.148-.01h.114c.08 0 .171-.012.251-.012a13.953 13.953 0 012.94.208c1.265.23 2.45.614 3.533 1.13a14.048 14.048 0 012.883 1.807c.057.044.103.088.16.132.045.044.102.088.148.131.102.088.194.176.296.263.103.088.194.176.285.263.091.088.182.176.274.274a14.08 14.08 0 012.427 3.277l.068.132.069.131c.045.088.09.176.125.263.046.088.08.165.125.252.035.088.08.165.114.252.137.33.274.647.376.943.171.482.297.91.4 1.282a.303.303 0 00.341.23.307.307 0 00.296-.307c.012-.394 0-.866-.057-1.402z" fill="url(#paint0_linear)"/><defs><linearGradient id="paint0_linear" x1="21.637" y1=".109" x2="21.637" y2="39.89" gradientUnits="userSpaceOnUse"><stop stop-color="#F05A28"/><stop offset="1" stop-color="#FBCA0A"/></linearGradient></defs></svg>