<svg viewBox="0 0 71 26" fill="none" xmlns="http://www.w3.org/2000/svg"><g clip-path="url(#clip0)"><path fill-rule="evenodd" clip-rule="evenodd" d="M26.179 11.452h1.977c.614 0 1.102-.08 1.466-.242.363-.16.642-.392.835-.693.193-.3.324-.67.392-1.111.068-.44.102-.95.102-1.531 0-.58-.034-1.09-.102-1.53a2.667 2.667 0 00-.426-1.129 1.908 1.908 0 00-.903-.692c-.387-.15-.898-.226-1.534-.226h-1.807v7.154zm-3.477-10.38h5.59c4.091 0 6.136 2.341 6.136 7.022 0 1.39-.221 2.582-.664 3.579-.443.996-1.222 1.797-2.335 2.402l3.75 10.919h-3.682l-3.294-10.391H26.18v10.39h-3.477V1.074zm14.522 0h5.216c.954 0 1.795.124 2.522.37.727.247 1.386.683 1.977 1.31.591.628 1 1.361 1.228 2.201.227.84.34 1.977.34 3.41 0 1.053-.085 1.806-.21 2.557-.125.75-.529 2.055-2.114 2.941-.991.554-2.414.753-3.71.753h-1.772v10.38h-3.477V1.073zm3.477 10.38h1.67c.705 0 1.25-.089 1.637-.266.386-.177.67-.419.852-.724.182-.306.29-.675.324-1.109.034-.433.05-.916.05-1.448 0-.493-.016-.961-.05-1.405a2.948 2.948 0 00-.307-1.153 1.803 1.803 0 00-.801-.768c-.364-.187-.886-.281-1.568-.281H40.7v7.154zm21.442 8.2a5.542 5.542 0 01-1.602 3.88c-.5.504-1.085.907-1.756 1.21a5.203 5.203 0 01-2.164.453 7.89 7.89 0 01-2.012-.269 4.91 4.91 0 01-1.84-.923c-.546-.437-.995-1.014-1.347-1.73-.352-.718-.528-1.625-.528-2.722V6.38c0-.784.136-1.512.409-2.184a5.133 5.133 0 011.159-1.747c.5-.493 1.096-.879 1.79-1.159.693-.28 1.46-.42 2.3-.42.796 0 1.535.14 2.216.42.682.28 1.273.672 1.773 1.176a5.41 5.41 0 011.176 1.814c.284.706.426 1.473.426 2.302v1.343h-3.477V6.784c0-.672-.193-1.254-.58-1.747-.386-.493-.908-.739-1.567-.739-.864 0-1.438.263-1.722.79-.284.526-.426 1.192-.426 1.998v12.23c0 .694.153 1.276.46 1.747.307.47.858.705 1.653.705.228 0 .472-.039.733-.117.262-.079.5-.207.716-.387.216-.179.392-.425.529-.739.136-.313.204-.705.204-1.176v-1.176h3.477v1.479zm6.813-6.65c0-.873-.718-1.58-1.603-1.58h-8.684v3.162h7.081v3.527H64.66l2.712 3.77 2.713-3.77h-1.128v-5.108zm-60.98 1.612v4.735c0 .986.17 1.843.51 2.57.341.728.79 1.333 1.347 1.815a5.825 5.825 0 001.875 1.092 6.22 6.22 0 002.096.37 6.22 6.22 0 002.097-.37 5.824 5.824 0 001.875-1.092 5.372 5.372 0 001.346-1.815c.341-.727.512-1.584.512-2.57v-7.89l-6.23-.01-.009 3.164h2.762v4.736c0 .829-.233 1.44-.7 1.831a2.486 2.486 0 01-1.653.588 2.486 2.486 0 01-1.653-.588c-.466-.392-.699-1.002-.699-1.83V6.716c0-.829.233-1.44.7-1.831a2.487 2.487 0 011.652-.588c.637 0 1.188.196 1.654.588.466.392.699 1.002.699 1.83v1.21h3.477v-1.21c0-.962-.17-1.813-.512-2.552-.34-.74-.79-1.35-1.346-1.831A5.823 5.823 0 0015.9 1.24a6.22 6.22 0 00-2.097-.37c-.704 0-1.403.123-2.096.37a5.824 5.824 0 00-1.875 1.092c-.557.481-1.006 1.091-1.347 1.83-.34.74-.51 1.59-.51 2.554v4.735H4.417V7.925h1.091l-2.712-3.77-2.713 3.77h1.128v5.108c0 .873.718 1.581 1.603 1.581h5.16z" fill="#2DA6B0"/></g><defs><clipPath id="clip0"><path fill="#fff" transform="translate(.084 .871)" d="M0 0h70v24.444H0z"/></clipPath></defs></svg>