<svg width="140" height="28" viewBox="0 0 140 28" fill="none" xmlns="http://www.w3.org/2000/svg">
<path fill-rule="evenodd" clip-rule="evenodd" d="M22.7208 12.3138C22.8671 12.2197 23.0169 12.131 23.1662 12.0413C23.3409 12.7504 23.4453 13.4874 23.4453 14.2496C23.4453 19.3962 19.2269 23.5829 14.0424 23.5829C8.85787 23.5829 4.63946 19.3957 4.63946 14.2496C4.63946 9.10343 8.85737 4.91624 14.0424 4.91624C16.5198 4.91624 18.7685 5.88065 20.4496 7.44075C20.3073 7.53441 20.167 7.63056 20.0372 7.73958C18.453 6.30041 16.354 5.41183 14.0424 5.41183C9.13297 5.41183 5.13874 9.3765 5.13874 14.2496C5.13874 19.1227 9.13297 23.0873 14.0424 23.0873C18.9518 23.0873 22.946 19.1227 22.946 14.2496C22.946 13.5835 22.8626 12.9378 22.7208 12.3138ZM14.1044 0C21.8813 0 28.2087 6.28058 28.2087 14C28.2087 21.7194 21.8813 28 14.1044 28C6.3274 28 0 21.7194 0 14C0 11.9679 0.444224 10.0386 1.23204 8.29456C1.37486 8.39243 1.51209 8.49686 1.64627 8.60634C0.916911 10.2596 0.508265 12.0829 0.508265 14C0.508265 21.4414 6.60745 27.4955 14.1044 27.4955C21.6013 27.4955 27.7005 21.4414 27.7005 14C27.7005 6.55856 21.6013 0.504505 14.1044 0.504505C10.4642 0.504505 7.15638 1.93578 4.71365 4.2565C4.59472 4.13694 4.47477 4.01939 4.35329 3.90234C6.88852 1.4893 10.3229 0 14.1044 0ZM14.1044 18.9778C11.5078 18.9778 9.40291 16.8884 9.40291 14.3111C9.40291 11.7338 11.5078 9.64444 14.1044 9.64444C16.7009 9.64444 18.8058 11.7338 18.8058 14.3111C18.8058 16.8884 16.7009 18.9778 14.1044 18.9778ZM21.9401 11.2C21.0746 11.2 20.373 10.5036 20.373 9.64444C20.373 8.78533 21.0746 8.08889 21.9401 8.08889C22.8056 8.08889 23.5073 8.78533 23.5073 9.64444C23.5073 10.5036 22.8056 11.2 21.9401 11.2ZM2.82087 7.77778C1.95536 7.77778 1.25372 7.08133 1.25372 6.22222C1.25372 5.36311 1.95536 4.66667 2.82087 4.66667C3.68639 4.66667 4.38803 5.36311 4.38803 6.22222C4.38803 7.08133 3.68639 7.77778 2.82087 7.77778ZM48.7492 13.9773H48.9206V19.04H47.3384V18.3229C46.6144 18.7125 45.7689 18.9384 44.8045 18.9384C42.096 18.9384 39.8737 17.0724 39.8737 14.1912C39.8737 11.2963 42.096 9.45784 44.8045 9.45784C46.7352 9.45784 47.9436 10.4182 48.6381 11.5021L46.9991 12.3802C46.5824 11.7354 45.7907 11.1866 44.8045 11.1866C43.1239 11.1866 41.9016 12.4625 41.9016 14.1912C41.9016 15.92 43.1239 17.1959 44.8045 17.1959C45.624 17.1959 46.4018 16.8392 46.7768 16.4962L46.9991 16.3266L47.3384 15.9886V15.3986H45.3558V13.9773H48.7492ZM56.1719 18.9246C53.3523 18.9246 51.9911 17.3606 51.9911 15.1105V9.60876H53.9913V15.0419C53.9913 16.3178 54.7413 17.1959 56.1719 17.1959C57.6026 17.1959 58.3387 16.3178 58.3387 15.0419V9.60876H60.3528V15.0968C60.3528 17.3743 58.9916 18.9246 56.1719 18.9246ZM72.0258 18.76H69.7756L69.2062 17.2096H65.2337L64.6503 18.76H62.4002L65.9837 9.60876H68.4561L72.0258 18.76ZM68.6645 15.4946L67.2199 11.557L65.7754 15.4946H68.6645ZM82.0598 18.76H79.7958L77.9762 15.5084H76.5317V18.76H74.5594V9.60876H78.893C80.8236 9.60876 82.0042 10.8573 82.0042 12.5586C82.0042 14.1775 80.9764 15.0419 79.9764 15.2751L82.0598 18.76ZM78.6013 13.7934C79.393 13.7934 79.9902 13.3269 79.9902 12.5586C79.9902 11.7902 79.393 11.3238 78.6013 11.3238H76.5317V13.7934H78.6013ZM88.8159 18.76H85.1629V9.60876H88.8159C91.7188 9.60876 93.7328 11.4335 93.7328 14.1912C93.7328 16.949 91.7188 18.76 88.8159 18.76ZM88.8159 17.045C90.6493 17.045 91.7188 15.7416 91.7188 14.1912C91.7188 12.5723 90.7188 11.3238 88.8159 11.3238H87.1352V17.045H88.8159ZM104.309 18.76H102.045L100.225 15.5084H98.7805V18.76H96.8081V9.60876H101.142C103.072 9.60876 104.253 10.8573 104.253 12.5586C104.253 14.1775 103.225 15.0419 102.225 15.2751L104.309 18.76ZM100.85 13.7934C101.642 13.7934 102.239 13.3269 102.239 12.5586C102.239 11.7902 101.642 11.3238 100.85 11.3238H98.7805V13.7934H100.85ZM116.051 18.76H113.801L113.231 17.2096H109.259L108.676 18.76H106.425L110.009 9.60876H112.481L116.051 18.76ZM112.69 15.4946L111.245 11.557L109.801 15.4946H112.69ZM120.557 18.76H118.585V9.60876H120.557V18.76ZM130.802 18.76H124.063V9.60876H126.035V17.045H130.802V18.76ZM136.291 18.9246C134.514 18.9246 133.236 18.3347 132.375 17.4703L133.444 15.9886C134.097 16.6608 135.111 17.2234 136.389 17.2234C137.472 17.2234 138 16.7294 138 16.2081C138 14.5891 132.666 15.7004 132.666 12.2567C132.666 10.7338 134 9.47156 136.18 9.47156C137.653 9.47156 138.875 9.9106 139.792 10.7475L138.694 12.1744C137.944 11.4884 136.944 11.1728 136 11.1728C135.152 11.1728 134.68 11.5433 134.68 12.0921C134.68 13.5464 140 12.5723 140 15.9886C140 17.6624 138.792 18.9246 136.291 18.9246Z" fill="black"/>
</svg>
