<svg xmlns="http://www.w3.org/2000/svg" fill="none" width="174" height="41" viewBox="0 0 174 41">
  <path fill="white" fill-rule="evenodd" d="M28.0819 21.4519c.1808-.1173.366-.2279.5505-.3396.2159.8837.3449 1.8021.3449 2.752 0 6.4137-5.2137 11.6312-11.6216 11.6312-6.4078 0-11.62153-5.2181-11.62153-11.6312 0-6.4132 5.21313-11.6312 11.62153-11.6312 3.062 0 5.8414 1.2018 7.9191 3.146-.1759.1167-.3493.2365-.5097.3724-1.958-1.7935-4.5523-2.9008-7.4094-2.9008-6.0678 0-11.00445 4.9407-11.00445 11.0136 0 6.0728 4.93665 11.0136 11.00445 11.0136s11.0045-4.9408 11.0045-11.0136c0-.8301-.103-1.6348-.2783-2.4124zM17.4324 6.10645c9.6119 0 17.4323 7.82685 17.4323 17.44685 0 9.6199-7.8204 17.4468-17.4323 17.4468C7.82038 41.0001 0 33.1732 0 23.5533c0-2.5325.549041-4.9367 1.52274-7.1102.17652.122.34614.2521.51198.3886C1.13326 18.892.628193 21.1641.628193 23.5533c0 9.2735 7.538317 16.818 16.804207 16.818 9.2658 0 16.8041-7.5445 16.8041-16.818 0-9.2736-7.5383-16.81814-16.8041-16.81814-4.4992 0-8.58744 1.78366-11.60654 4.67574-.14699-.149-.29525-.2955-.44538-.4414C8.5139 7.96241 12.7586 6.10645 17.4324 6.10645zm0 23.65015c-3.2092 0-5.8108-2.6038-5.8108-5.8156 0-3.2119 2.6016-5.8156 5.8108-5.8156 3.2092 0 5.8108 2.6037 5.8108 5.8156 0 3.2118-2.6016 5.8156-5.8108 5.8156zm9.6846-9.6927c-1.0697 0-1.9369-.8679-1.9369-1.9385 0-1.0707.8672-1.9386 1.9369-1.9386s1.9369.8679 1.9369 1.9386c0 1.0706-.8672 1.9385-1.9369 1.9385zM3.48647 15.7991c-1.06973 0-1.93693-.8679-1.93693-1.9385 0-1.0706.8672-1.9386 1.93693-1.9386 1.06974 0 1.93693.868 1.93693 1.9386 0 1.0706-.86719 1.9385-1.93693 1.9385zM60.2518 23.525h.2118v6.3091h-1.9555v-.8936c-.8948.4854-1.9398.7669-3.1317.7669-3.3476 0-6.0943-2.3253-6.0943-5.9158 0-3.6077 2.7467-5.8988 6.0943-5.8988 2.3862 0 3.8797 1.1969 4.7381 2.5476l-2.0258 1.0943c-.515-.8036-1.4935-1.4876-2.7123-1.4876-2.0773 0-3.588 1.5901-3.588 3.7445 0 2.1543 1.5107 3.7444 3.588 3.7444 1.0128 0 1.9742-.4445 2.4377-.872l.2746-.2113.4194-.4213v-.7352h-2.4504V23.525h4.1941zm9.1742 6.1653c-3.4849 0-5.1673-1.9491-5.1673-4.7532v-6.8562h2.4721v6.7707c0 1.5901.927 2.6844 2.6952 2.6844 1.7682 0 2.6781-1.0943 2.6781-2.6844v-6.7707h2.4892V24.92c0 2.8383-1.6824 4.7703-5.1673 4.7703zm19.5946-.2051h-2.781l-.7039-1.9321h-4.9098l-.721 1.9321h-2.7811l4.4291-11.4043h3.0558l4.4119 11.4043zm-4.1544-4.0693l-1.7854-4.9071-1.7853 4.9071h3.5707zm16.5558 4.0693h-2.798l-2.2489-4.0522h-1.7853v4.0522H92.152V18.0809h5.3562c2.3862 0 3.8458 1.5559 3.8458 3.676 0 2.0176-1.271 3.0947-2.5068 3.3854l2.5748 4.3429zm-4.2744-6.1895c.9786 0 1.7167-.5813 1.7167-1.5388 0-.9575-.7381-1.5388-1.7167-1.5388h-2.5578v3.0776h2.5578zm12.6244 6.1895h-4.515V18.0809h4.515c3.588 0 6.078 2.274 6.078 5.7107 0 3.4366-2.49 5.6936-6.078 5.6936zm0-2.1373c2.266 0 3.588-1.6243 3.588-3.5563 0-2.0176-1.236-3.5735-3.588-3.5735h-2.077v7.1298h2.077zm19.149 2.1373h-2.799l-2.248-4.0522h-1.786v4.0522h-2.438V18.0809h5.357c2.386 0 3.845 1.5559 3.845 3.676 0 2.0176-1.27 3.0947-2.506 3.3854l2.575 4.3429zm-4.275-6.1895c.979 0 1.717-.5813 1.717-1.5388 0-.9575-.738-1.5388-1.717-1.5388h-2.558v3.0776h2.558zm18.788 6.1895h-2.781l-.704-1.9321h-4.91l-.721 1.9321h-2.781l4.429-11.4043h3.056l4.412 11.4043zm-4.155-4.0693l-1.785-4.9071-1.785 4.9071h3.57zm9.724 4.0693h-2.438V18.0809h2.438v11.4043zm12.663 0h-8.33V18.0809h2.438v9.267h5.892v2.1373zm6.784.2051c-2.197 0-3.777-.7352-4.841-1.8123l1.322-1.8466c.807.8378 2.06 1.5388 3.639 1.5388 1.339 0 1.992-.6155 1.992-1.2652 0-2.0176-6.592-.6327-6.592-4.9242 0-1.8979 1.648-3.4709 4.343-3.4709 1.819 0 3.33.5471 4.463 1.5901l-1.356 1.7782c-.927-.8549-2.163-1.2482-3.33-1.2482-1.048 0-1.631.4617-1.631 1.1456 0 1.8124 6.575.5984 6.575 4.8558 0 2.0859-1.494 3.6589-4.584 3.6589z" clip-rule="evenodd"/>
</svg>
