<svg width="144" height="29" viewBox="0 0 144 29" fill="none" xmlns="http://www.w3.org/2000/svg">
<path fill-rule="evenodd" clip-rule="evenodd" d="M23.5407 12.841C23.6901 12.7456 23.8431 12.6556 23.9956 12.5647C24.1741 13.2834 24.2807 14.0302 24.2807 14.8027C24.2807 20.0181 19.9719 24.2609 14.6763 24.2609C9.3807 24.2609 5.07188 20.0176 5.07188 14.8027C5.07188 9.58762 9.3802 5.34435 14.6763 5.34435C17.2068 5.34435 19.5038 6.32167 21.2208 7.90265C21.0755 7.99757 20.9322 8.095 20.7996 8.20549C19.1814 6.74705 17.0375 5.84657 14.6763 5.84657C9.66165 5.84657 5.58186 9.86428 5.58186 14.8027C5.58186 19.741 9.66165 23.7587 14.6763 23.7587C19.6909 23.7587 23.7707 19.741 23.7707 14.8027C23.7707 14.1277 23.6856 13.4732 23.5407 12.841ZM14.7396 0.362305C22.6832 0.362305 29.1462 6.72696 29.1462 14.5497C29.1462 22.3725 22.6832 28.7371 14.7396 28.7371C6.79599 28.7371 0.333008 22.3725 0.333008 14.5497C0.333008 12.4904 0.786751 10.5353 1.59144 8.76792C1.73733 8.86707 1.8775 8.97289 2.01455 9.08389C1.26957 10.7593 0.852164 12.607 0.852164 14.5497C0.852164 22.0907 7.08204 28.2259 14.7396 28.2259C22.3972 28.2259 28.6271 22.0907 28.6271 14.5497C28.6271 7.00865 22.3972 0.873563 14.7396 0.873563C11.0214 0.873563 7.64274 2.324 5.14767 4.67578C5.02618 4.55462 4.90367 4.43549 4.77958 4.31688C7.36914 1.87154 10.8771 0.362305 14.7396 0.362305ZM14.7396 19.5941C12.0874 19.5941 9.93739 17.4768 9.93739 14.865C9.93739 12.2532 12.0874 10.1358 14.7396 10.1358C17.3918 10.1358 19.5418 12.2532 19.5418 14.865C19.5418 17.4768 17.3918 19.5941 14.7396 19.5941ZM22.7433 11.7122C21.8592 11.7122 21.1425 11.0064 21.1425 10.1358C21.1425 9.26523 21.8592 8.55947 22.7433 8.55947C23.6274 8.55947 24.3441 9.26523 24.3441 10.1358C24.3441 11.0064 23.6274 11.7122 22.7433 11.7122ZM3.21433 8.24419C2.33026 8.24419 1.6136 7.53843 1.6136 6.66782C1.6136 5.79721 2.33026 5.09144 3.21433 5.09144C4.09839 5.09144 4.81506 5.79721 4.81506 6.66782C4.81506 7.53843 4.09839 8.24419 3.21433 8.24419ZM50.1268 14.5268H50.3018V19.6572H48.6858V18.9304C47.9463 19.3253 47.0826 19.5542 46.0976 19.5542C43.3311 19.5542 41.0611 17.6633 41.0611 14.7435C41.0611 11.8099 43.3311 9.94673 46.0976 9.94673C48.0697 9.94673 49.3039 10.92 50.0133 12.0184L48.3392 12.9082C47.9136 12.2548 47.1049 11.6986 46.0976 11.6986C44.381 11.6986 43.1325 12.9917 43.1325 14.7435C43.1325 16.4954 44.381 17.7884 46.0976 17.7884C46.9347 17.7884 47.7292 17.4269 48.1123 17.0793L48.3392 16.9075L48.6858 16.5649V15.967H46.6607V14.5268H50.1268ZM57.7086 19.5403C54.8286 19.5403 53.4382 17.9553 53.4382 15.675V10.0997H55.4812V15.6055C55.4812 16.8986 56.2474 17.7884 57.7086 17.7884C59.1699 17.7884 59.9219 16.8986 59.9219 15.6055V10.0997H61.979V15.6612C61.979 17.9691 60.5887 19.5403 57.7086 19.5403ZM73.9022 19.3734H71.6039L71.0222 17.8023H66.9646L66.3687 19.3734H64.0704L67.7307 10.0997H70.2561L73.9022 19.3734ZM70.4689 16.0643L68.9934 12.074L67.5179 16.0643H70.4689ZM84.1513 19.3734H81.8387L79.9801 16.0783H78.5047V19.3734H76.4901V10.0997H80.9165C82.8886 10.0997 84.0945 11.3649 84.0945 13.089C84.0945 14.7296 83.0446 15.6055 82.0232 15.8419L84.1513 19.3734ZM80.6186 14.3403C81.4273 14.3403 82.0373 13.8675 82.0373 13.089C82.0373 12.3104 81.4273 11.8377 80.6186 11.8377H78.5047V14.3403H80.6186ZM91.0522 19.3734H87.3207V10.0997H91.0522C94.0173 10.0997 96.074 11.9489 96.074 14.7435C96.074 17.5382 94.0173 19.3734 91.0522 19.3734ZM91.0522 17.6355C92.9247 17.6355 94.0174 16.3146 94.0174 14.7435C94.0174 13.1028 92.9962 11.8377 91.0522 11.8377H89.3354V17.6355H91.0522ZM106.876 19.3734H104.564L102.706 16.0783H101.23V19.3734H99.2158V10.0997H103.642C105.614 10.0997 106.82 11.3649 106.82 13.089C106.82 14.7296 105.77 15.6055 104.748 15.8419L106.876 19.3734ZM103.344 14.3403C104.153 14.3403 104.763 13.8675 104.763 13.089C104.763 12.3104 104.153 11.8377 103.344 11.8377H101.23V14.3403H103.344ZM118.871 19.3734H116.573L115.991 17.8023H111.934L111.337 19.3734H109.039L112.699 10.0997H115.225L118.871 19.3734ZM115.438 16.0643L113.962 12.074L112.486 16.0643H115.438ZM123.474 19.3734H121.459V10.0997H123.474V19.3734ZM133.939 19.3734H127.055V10.0997H129.069V17.6355H133.939V19.3734ZM139.545 19.5403C137.729 19.5403 136.424 18.9424 135.545 18.0665L136.636 16.5649C137.303 17.2461 138.339 17.8162 139.644 17.8162C140.751 17.8162 141.29 17.3157 141.29 16.7873C141.29 15.1467 135.842 16.2729 135.842 12.7831C135.842 11.2398 137.204 9.96067 139.432 9.96067C140.936 9.96067 142.184 10.4056 143.12 11.2537L142 12.6997C141.233 12.0045 140.211 11.6847 139.247 11.6847C138.382 11.6847 137.899 12.0601 137.899 12.6162C137.899 14.09 143.333 13.1028 143.333 16.5649C143.333 18.2611 142.099 19.5403 139.545 19.5403Z" fill="#101113"/>
</svg>
