<svg fill="none" xmlns="http://www.w3.org/2000/svg" viewBox="0 0 143 65">
  <path fill-rule="evenodd" clip-rule="evenodd" d="M23.2 30.4c.2 0 .3-.2.5-.3a9.6 9.6 0 11-19 2.3c0-5.3 4.3-9.6 9.6-9.6 2.6 0 4.9 1 6.6 2.6-.2 0-.3.2-.4.3a9 9 0 00-6.2-2.4 9.1 9.1 0 000 18.2 9.1 9.1 0 009-11zm-8.8-12.7a14.4 14.4 0 010 29A14.4 14.4 0 011.3 26.2l.4.3A13.9 13.9 0 104.8 22a24 24 0 00-.4-.4c2.6-2.5 6.1-4 10-4zm0 19.6a4.8 4.8 0 110-9.6 4.8 4.8 0 010 9.6zm8-8a1.6 1.6 0 110-3.2 1.6 1.6 0 010 3.2zM3 25.7a1.6 1.6 0 110-3.2 1.6 1.6 0 010 3.2zm46.9 6.4h.2v5.3h-1.6v-.8c-.8.4-1.7.7-2.6.7-2.8 0-5-2-5-5s2.2-4.8 5-4.8c2 0 3.2 1 3.9 2l-1.7 1a2.7 2.7 0 00-2.2-1.3c-1.8 0-3 1.4-3 3.2 0 1.7 1.2 3 3 3 .8 0 1.6-.3 2-.7l.2-.1.4-.4v-.6h-2v-1.5h3.4zm7.6 5.1c-2.9 0-4.3-1.6-4.3-3.9v-5.7h2v5.6c0 1.3.8 2.3 2.3 2.3 1.4 0 2.2-1 2.2-2.3v-5.6h2v5.7c0 2.3-1.3 4-4.2 4zm16.2-.1h-2.3l-.6-1.6h-4L66 37h-2.3l3.7-9.5h2.5l3.7 9.5zM70 33.7l-1.4-4-1.5 4h3zm13.7 3.4h-2.3l-1.9-3.4h-1.4v3.4h-2v-9.5h4.4c2 0 3.2 1.3 3.2 3s-1 2.6-2.1 2.9l2.1 3.6zm-3.5-5.2c.8 0 1.4-.4 1.4-1.2 0-.8-.6-1.3-1.4-1.3h-2.1v2.5h2zm10.4 5.2H87v-9.5h3.7c3 0 5 1.9 5 4.8 0 2.8-2 4.7-5 4.7zm0-1.8c1.9 0 3-1.3 3-3 0-1.6-1-3-3-3H89v6h1.7zm15.8 1.8h-2.3l-1.8-3.4h-1.5v3.4h-2v-9.5h4.4c2 0 3.2 1.3 3.2 3s-1 2.6-2 2.9l2 3.6zm-3.5-5.2c.8 0 1.4-.4 1.4-1.2 0-.8-.6-1.3-1.4-1.3H101v2.5h2.1zm15.5 5.2h-2.3l-.5-1.6h-4.1L111 37h-2.3l3.7-9.5h2.5l3.6 9.5zm-3.4-3.4l-1.5-4-1.4 4h3zm8 3.4h-2v-9.5h2v9.5zm10.5 0h-6.9v-9.5h2v7.7h5v1.8zm5.6.1c-1.8 0-3.1-.6-4-1.5l1.1-1.5c.7.7 1.7 1.3 3 1.3 1.1 0 1.7-.5 1.7-1 0-1.7-5.5-.6-5.5-4.1 0-1.6 1.4-3 3.6-3 1.5 0 2.8.5 3.7 1.4l-1.1 1.5a4 4 0 00-2.8-1c-.9 0-1.3.3-1.3.9 0 1.5 5.4.5 5.4 4 0 1.7-1.2 3-3.8 3z" fill="#DFDFDF"/>
</svg>
