<svg xmlns="http://www.w3.org/2000/svg" width="27" height="28" style=""><rect id="backgroundrect" width="100%" height="100%" x="0" y="0" fill="none" stroke="none" class="" style=""/><title>file_type_helm</title><g class="currentLayer" style=""><title>Layer 1</title><path d="M13.263999975204468,0.07326082992553706 a0.42100000000000004,0.42100000000000004 0 0 1 0.451,-0.015000000000000003 a1.206,1.206 0 0 1 0.43200000000000005,0.553 a4.381,4.381 0 0 1 0.32500000000000007,1.3490000000000002 a6.267,6.267 0 0 1 -0.16900000000000004,2.2 a10.027,10.027 0 0 1 4.553,1.6 a5.9,5.9 0 0 1 0.9450000000000001,-1.7000000000000002 a4.584,4.584 0 0 1 1.283,-1.177 a0.935,0.935 0 0 1 0.7430000000000001,-0.14 a0.5750000000000001,0.5750000000000001 0 0 1 0.28900000000000003,0.5730000000000001 a3.228,3.228 0 0 1 -0.36800000000000005,1.3 a6.149,6.149 0 0 1 -1.6630000000000003,2.1 a10.136,10.136 0 0 1 1.8250000000000002,2.208 l-1.369,0.8320000000000001 a8.421,8.421 0 0 0 -14.269,-0.2 l-1.3450000000000002,-0.8690000000000001 A10.156,10.156 0 0 1 6.758999975204468,6.5782608299255365 A6.333,6.333 0 0 1 5.326999975204468,4.731260829925537 a3.486,3.486 0 0 1 -0.42700000000000005,-1.3800000000000001 a0.6390000000000001,0.6390000000000001 0 0 1 0.232,-0.5870000000000001 a0.7310000000000001,0.7310000000000001 0 0 1 0.6500000000000001,0.038000000000000006 a3.688,3.688 0 0 1 1.123,0.8850000000000001 a6.33,6.33 0 0 1 1.2,1.9 a10.035,10.035 0 0 1 4.591,-1.46 a6.318,6.318 0 0 1 -0.16100000000000003,-2.161 a4.459,4.459 0 0 1 0.31300000000000006,-1.3290000000000002 A1.287,1.287 0 0 1 13.263999975204468,0.07326082992553706 z" style="fill:#277a9f" id="svg_1" class=""/><path d="M-2.479553229406406e-8,10.600260829925537 H1.927999975204468 q0,1.357 0,2.714 H4.102999975204468 q0,-1.356 0,-2.713 H6.031999975204467 q0,3.644 0,7.288 H4.102999975204468 q0,-1.447 0,-2.8920000000000003 H1.927999975204468 q0,1.447 0,2.8930000000000002 H-2.479553229406406e-8 z" style="fill:#277a9f" id="svg_2" class=""/><path d="M7.603999975204468,10.600260829925537 h4.709 v1.614 H9.532999975204469 v1.1440000000000001 h2.3770000000000002 q0,0.807 0,1.614 H9.532999975204469 v1.3 h2.8920000000000003 q0,0.807 0,1.614 H7.603999975204468 z" style="fill:#277a9f" id="svg_3" class=""/><path d="M13.866999975204468,10.600260829925537 h1.928 v5.673 H18.55099997520447 q0,0.807 0,1.614 H13.866999975204468 z" style="fill:#277a9f" id="svg_4" class=""/><path d="M19.816999975204467,10.600260829925537 h2.063 q0.48200000000000004,1.307 0.9630000000000001,2.615 c0.21200000000000002,0.544 0.3490000000000001,1.111 0.526,1.6660000000000001 a0.39200000000000007,0.39200000000000007 0 0 0 0.07800000000000001,-0.16000000000000003 c0.11200000000000002,-0.39100000000000007 0.22800000000000004,-0.782 0.35100000000000003,-1.171 q0.519,-1.475 1.041,-2.949 h2.064 v7.288 H25.150999975204467 a33.054,33.054 0 0 1 0.08000000000000002,-3.356 c0.04400000000000001,-0.47500000000000003 0.12200000000000001,-0.9470000000000001 0.16200000000000003,-1.423 a0.6170000000000001,0.6170000000000001 0 0 0 -0.11100000000000002,0.22700000000000004 c-0.44500000000000006,1.332 -0.9380000000000001,2.648 -1.436,3.9610000000000003 c-0.3420000000000001,-0.007000000000000002 -0.6840000000000002,0 -1.026,0 q-0.44200000000000006,-1.187 -0.8830000000000001,-2.374 c-0.17200000000000001,-0.5 -0.3380000000000001,-1.01 -0.506,-1.5150000000000001 a0.7460000000000001,0.7460000000000001 0 0 0 -0.131,-0.29200000000000004 a25.97,25.97 0 0 1 0.24200000000000002,2.761 q0,1.007 0,2.014 H19.816999975204467 z" style="fill:#277a9f" id="svg_5" class=""/><path d="M5.117999975204468,19.800260829925538 q0.6560000000000001,-0.458 1.314,-0.915 a8.422,8.422 0 0 0 13.833,-0.012000000000000002 l1.316,0.912 a10.261,10.261 0 0 1 -1.379,1.6 a6.272,6.272 0 0 1 1.486,1.8920000000000001 a3.491,3.491 0 0 1 0.42700000000000005,1.377 a0.6200000000000001,0.6200000000000001 0 0 1 -0.26,0.6000000000000001 a0.8700000000000001,0.8700000000000001 0 0 1 -0.7430000000000001,-0.11200000000000002 a4.412,4.412 0 0 1 -1.252,-1.117 a6.248,6.248 0 0 1 -0.9490000000000001,-1.616 A9.967,9.967 0 0 1 14.350999975204466,24.041260829925537 a6.086,6.086 0 0 1 0.14400000000000002,1.5 a5.016,5.016 0 0 1 -0.30800000000000005,1.7480000000000002 a1.3800000000000001,1.3800000000000001 0 0 1 -0.44600000000000006,0.6350000000000001 a0.43100000000000005,0.43100000000000005 0 0 1 -0.507,-0.017000000000000005 a1.573,1.573 0 0 1 -0.467,-0.7360000000000001 a5.764,5.764 0 0 1 -0.251,-2.212 a5.659,5.659 0 0 1 0.12400000000000001,-0.8920000000000001 a10.024,10.024 0 0 1 -4.606,-1.494 a6.44,6.44 0 0 1 -1.348,1.964 a2.942,2.942 0 0 1 -1.057,0.7160000000000001 a0.531,0.531 0 0 1 -0.6140000000000001,-0.12400000000000001 a1.139,1.139 0 0 1 -0.06800000000000002,-0.8640000000000001 A5.449,5.449 0 0 1 5.950999975204468,22.282260829925537 a6.044,6.044 0 0 1 0.6880000000000002,-0.7590000000000001 A10.423,10.423 0 0 1 5.117999975204468,19.800260829925538 z" style="fill:#277a9f" id="svg_6" class=""/></g></svg>