<svg viewBox="0 0 41 41" fill="none" xmlns="http://www.w3.org/2000/svg"><path d="M12.562 33.287l-4.889 5.366-4.889-5.366h9.778z" fill="#65C1C2"/><path d="M19.717 21.092c-1.022-1.317-.978-2.049-.355-2.732.755-.829 1.555-.488 2.444.44l-2.089 2.292zm10.49-14.634c.755-.83 1.555-.488 2.444.439L30.56 9.19c-1.066-1.317-1.022-2-.355-2.732zm6.31 2.341c-.933 1.561-2.622 4.098-4.355 2.196l4.4-4.83c-.4-.439-.667-.83-.934-1.073-2.355-2.585-5.022-2.634-7.11-.341-1.379 1.512-1.779 3.268-1.379 4.926L25.762 7.97c-.356.195-2.045 1.854-.8 4.293l-1.556-1.415-2.089 2.293 2.845 3.122c-2.178-1.903-4.534-1.708-6.4.341-2 2.195-1.867 4.878-.356 7.073l-.311-.341c-2-2.195-4.178-1.415-5.244-.244-.845.927-1.334 2.146-1.112 3.024l-4.31-4.731-2.312 2.536 8.534 9.366h4.577l-3.066-3.366c-1.6-1.805-1.645-2.731-.845-3.61.756-.829 1.645-.292 3.2 1.366l3.022 3.317 2.267-2.487-2.889-3.171c2.09 1.707 4.578 1.805 6.8-.634l.045-.049c1.377-1.366 1.777-2.732 1.777-2.732l-1.733-1.268c-.933 1.561-2.578 4.098-4.311 2.195l4.4-4.83 2.756 3.025 2.4-2.634-3.423-3.756c-1.6-1.756-.666-3.415 0-4.049a7.248 7.248 0 001.334 2.049c2.222 2.439 5.066 2.927 7.6.195l.044-.049c1.378-1.365 1.778-2.731 1.778-2.731l-1.867-1.269z" fill="#393E47"/></svg>