<svg fill="none" xmlns="http://www.w3.org/2000/svg" viewBox="0 0 287 110"><path d="M18.306 106h3.67v-.625h-2.704v-.045l1.306-1.398c1-1.071 1.296-1.571 1.296-2.216 0-.898-.727-1.614-1.75-1.614-1.02 0-1.796.693-1.796 1.716h.67c0-.662.43-1.102 1.103-1.102.63 0 1.114.386 1.114 1 0 .537-.316.935-.989 1.67l-1.92 2.103V106zm6.581.08c1.284 0 2.023-1.089 2.023-2.989 0-1.886-.75-2.989-2.023-2.989-1.273 0-2.023 1.103-2.023 2.989 0 1.9.739 2.989 2.023 2.989zm0-.625c-.846 0-1.34-.85-1.34-2.364 0-1.511.5-2.375 1.34-2.375.841 0 1.341.864 1.341 2.375 0 1.514-.494 2.364-1.34 2.364zm4.806-5.273h-.625c-.037.059-.455.863-1.352.863v.591c.667 0 1.145-.272 1.227-.431h.045V106h.705v-5.818zm3.473 5.898c1.128 0 1.966-.708 1.966-1.66 0-.738-.437-1.275-1.17-1.397v-.046c.588-.179.954-.662.954-1.318 0-.824-.65-1.557-1.727-1.557-1.005 0-1.84.62-1.875 1.534h.682c.026-.579.577-.92 1.182-.92.642 0 1.057.389 1.057.977 0 .614-.48 1.012-1.17 1.012h-.467v.625h.466c.884 0 1.375.448 1.375 1.09 0 .617-.537 1.035-1.284 1.035-.673 0-1.207-.347-1.25-.91h-.716c.043.915.85 1.535 1.977 1.535z" fill="#A4A8B4"/><path opacity=".3" fill="#E42C64" d="M17.353 90h22.693v1H17.353zM69.414 65h22.693v26H69.414z"/><path fill="#D7DDE1" d="M2.67 91.5h278.99V91H2.67z"/><path d="M68.945 11.5h.875V9.437h2.062v-.874H69.82V6.5h-.875v2.063h-2.063v.874h2.063V11.5zm7.228 1.61c1.617.019 2.672-1.2 2.672-2.688 0-1.547-1.144-2.656-2.516-2.656-.824 0-1.53.402-1.968 1.062h-.063c.004-1.965.762-3.094 2-3.094.844 0 1.352.532 1.531 1.266h.954c-.196-1.258-1.141-2.125-2.485-2.125-1.8 0-2.906 1.594-2.906 4.438 0 2.957 1.469 3.78 2.781 3.796zm0-.86c-1.004 0-1.738-.855-1.734-1.813.004-.957.773-1.812 1.765-1.812.98 0 1.704.805 1.704 1.797 0 1.015-.754 1.828-1.735 1.828zm4.238.75h1.016l3.562-7.094V5h-5.125v.86h4.125v.062L80.411 13zm9.892-1.5c0 .875.547 1.61 1.563 1.61 1 0 1.547-.735 1.547-1.61v-.422c0-.875-.531-1.61-1.547-1.61-1 0-1.563.735-1.563 1.61v.422zM86.32 6.922c0 .875.547 1.61 1.563 1.61 1 0 1.546-.735 1.546-1.61V6.5c0-.875-.53-1.61-1.546-1.61-1 0-1.563.735-1.563 1.61v.422zM86.616 13h.89l5.5-8h-.89l-5.5 8zm4.484-1.922c0-.484.22-.937.766-.937.563 0 .75.453.75.937v.422c0 .484-.203.938-.75.938-.563 0-.766-.454-.766-.938v-.422zM87.116 6.5c0-.484.219-.938.766-.938.562 0 .75.454.75.938v.422c0 .484-.204.937-.75.937-.563 0-.766-.453-.766-.937V6.5z" fill="#111213"/><path d="M71.681 106h3.67v-.625h-2.704v-.045l1.307-1.398c1-1.071 1.296-1.571 1.296-2.216 0-.898-.728-1.614-1.75-1.614-1.02 0-1.796.693-1.796 1.716h.67c0-.662.43-1.102 1.103-1.102.63 0 1.113.386 1.113 1 0 .537-.315.935-.988 1.67l-1.92 2.103V106zm6.582.08c1.284 0 2.022-1.089 2.022-2.989 0-1.886-.75-2.989-2.022-2.989-1.273 0-2.023 1.103-2.023 2.989 0 1.9.739 2.989 2.023 2.989zm0-.625c-.847 0-1.341-.85-1.341-2.364 0-1.511.5-2.375 1.34-2.375.842 0 1.342.864 1.342 2.375 0 1.514-.495 2.364-1.341 2.364zm4.806-5.273h-.625c-.037.059-.455.863-1.353.863v.591c.668 0 1.145-.272 1.228-.431h.045V106h.705v-5.818zm1.37 4.625h2.74V106h.67v-1.193h.795v-.625h-.795v-4h-.852l-2.557 4.045v.58zm2.74-.625H85.2v-.046l1.932-3.056h.046v3.102z" fill="#A4A8B4"/><path opacity=".5" fill="#E42C64" d="M129.484 44h22.693v47h-22.693z"/><path d="M129.095 11.5h.875V9.437h2.063v-.874h-2.063V6.5h-.875v2.063h-2.062v.874h2.062V11.5zm4.822 1.5h1.016l3.562-7.094V5h-5.125v.86h4.125v.062L133.917 13zm8.252.11c1.766 0 2.781-1.497 2.781-4.11 0-2.594-1.031-4.11-2.781-4.11-1.75 0-2.781 1.516-2.781 4.11 0 2.613 1.015 4.11 2.781 4.11zm0-.86c-1.164 0-1.844-1.168-1.844-3.25 0-2.078.688-3.266 1.844-3.266 1.156 0 1.844 1.188 1.844 3.266 0 2.082-.68 3.25-1.844 3.25zm8.124-.75c0 .875.547 1.61 1.562 1.61 1 0 1.547-.735 1.547-1.61v-.422c0-.875-.531-1.61-1.547-1.61-1 0-1.562.735-1.562 1.61v.422zm-3.985-4.578c0 .875.547 1.61 1.563 1.61 1 0 1.547-.735 1.547-1.61V6.5c0-.875-.532-1.61-1.547-1.61-1 0-1.563.735-1.563 1.61v.422zm.297 6.078h.891l5.5-8h-.891l-5.5 8zm4.485-1.922c0-.484.218-.937.765-.937.563 0 .75.453.75.937v.422c0 .484-.203.938-.75.938-.562 0-.765-.454-.765-.938v-.422zM147.105 6.5c0-.484.219-.938.766-.938.562 0 .75.454.75.938v.422c0 .484-.203.937-.75.937-.563 0-.766-.453-.766-.937V6.5z" fill="#111213"/><path d="M131.884 106h3.67v-.625h-2.704v-.045l1.307-1.398c1-1.071 1.295-1.571 1.295-2.216 0-.898-.727-1.614-1.75-1.614-1.02 0-1.795.693-1.795 1.716h.67c0-.662.429-1.102 1.102-1.102.631 0 1.114.386 1.114 1 0 .537-.315.935-.989 1.67l-1.92 2.103V106zm6.581.08c1.285 0 2.023-1.089 2.023-2.989 0-1.886-.75-2.989-2.023-2.989-1.272 0-2.022 1.103-2.022 2.989 0 1.9.738 2.989 2.022 2.989zm0-.625c-.846 0-1.34-.85-1.34-2.364 0-1.511.5-2.375 1.34-2.375.841 0 1.341.864 1.341 2.375 0 1.514-.494 2.364-1.341 2.364zm4.806-5.273h-.625c-.037.059-.454.863-1.352.863v.591c.668 0 1.145-.272 1.227-.431h.046V106h.704v-5.818zm3.326 5.898c1.108 0 1.921-.819 1.921-1.932 0-1.128-.785-1.955-1.853-1.955-.392 0-.772.139-1.011.33h-.034l.204-1.716h2.432v-.625h-3.023l-.352 2.863.659.08c.242-.173.654-.298 1.012-.295.741.005 1.284.568 1.284 1.329 0 .747-.523 1.296-1.239 1.296-.596 0-1.071-.384-1.125-.91h-.682c.043.887.807 1.535 1.807 1.535z" fill="#A4A8B4"/><path opacity=".8" fill="#E42C64" d="M189.553 33h22.693v58h-22.693z"/><path d="M188.827 11.5h.875V9.437h2.062v-.874h-2.062V6.5h-.875v2.063h-2.063v.874h2.063V11.5zm7.275 1.61c1.551 0 2.703-.973 2.703-2.282 0-1.015-.602-1.754-1.609-1.922v-.062c.808-.246 1.312-.91 1.312-1.813 0-1.133-.894-2.14-2.375-2.14-1.383 0-2.531.851-2.578 2.109h.937c.036-.797.793-1.266 1.625-1.266.883 0 1.454.536 1.454 1.344 0 .844-.661 1.39-1.61 1.39h-.64v.86h.64c1.215 0 1.891.617 1.891 1.5 0 .848-.738 1.422-1.766 1.422-.926 0-1.66-.477-1.719-1.25h-.984c.059 1.258 1.168 2.11 2.719 2.11zm4.081-.11h5.047v-.86h-3.719v-.062l1.797-1.922c1.375-1.472 1.781-2.16 1.781-3.047 0-1.234-1-2.218-2.406-2.218-1.403 0-2.469.953-2.469 2.359h.922c0-.91.59-1.516 1.515-1.516.868 0 1.532.532 1.532 1.375 0 .739-.434 1.286-1.36 2.297l-2.64 2.89V13zm10.518-1.5c0 .875.547 1.61 1.562 1.61 1 0 1.547-.735 1.547-1.61v-.422c0-.875-.531-1.61-1.547-1.61-1 0-1.562.735-1.562 1.61v.422zm-3.984-4.578c0 .875.546 1.61 1.562 1.61 1 0 1.547-.735 1.547-1.61V6.5c0-.875-.531-1.61-1.547-1.61-1 0-1.562.735-1.562 1.61v.422zm.296 6.078h.891l5.5-8h-.891l-5.5 8zm4.485-1.922c0-.484.219-.937.765-.937.563 0 .75.453.75.937v.422c0 .484-.203.938-.75.938-.562 0-.765-.454-.765-.938v-.422zM207.513 6.5c0-.484.219-.938.766-.938.563 0 .75.454.75.938v.422c0 .484-.203.937-.75.937-.562 0-.766-.453-.766-.937V6.5z" fill="#111213"/><path d="M191.891 106h3.671v-.625h-2.705v-.045l1.307-1.398c1-1.071 1.295-1.571 1.295-2.216 0-.898-.727-1.614-1.75-1.614-1.019 0-1.795.693-1.795 1.716h.67c0-.662.429-1.102 1.103-1.102.63 0 1.113.386 1.113 1 0 .537-.315.935-.988 1.67l-1.921 2.103V106zm6.582.08c1.284 0 2.022-1.089 2.022-2.989 0-1.886-.75-2.989-2.022-2.989-1.273 0-2.023 1.103-2.023 2.989 0 1.9.739 2.989 2.023 2.989zm0-.625c-.847 0-1.341-.85-1.341-2.364 0-1.511.5-2.375 1.341-2.375s1.341.864 1.341 2.375c0 1.514-.495 2.364-1.341 2.364zm4.806-5.273h-.625c-.037.059-.455.863-1.353.863v.591c.668 0 1.145-.272 1.228-.431h.045V106h.705v-5.818zm3.439 5.898c1.176.014 1.943-.873 1.943-1.955 0-1.125-.832-1.932-1.829-1.932-.6 0-1.114.293-1.432.773h-.046c.003-1.429.554-2.25 1.455-2.25.614 0 .983.386 1.114.92h.693c-.142-.914-.83-1.545-1.807-1.545-1.31 0-2.114 1.159-2.114 3.227 0 2.151 1.069 2.75 2.023 2.762zm0-.625c-.73 0-1.264-.623-1.261-1.319.003-.696.562-1.318 1.284-1.318.713 0 1.238.585 1.238 1.307 0 .739-.548 1.33-1.261 1.33z" fill="#A4A8B4"/><path fill="#E42C64" d="M249.624 23h22.693v68h-22.693z"/><path d="M248.897 11.5h.875V9.437h2.062v-.874h-2.062V6.5h-.875v2.063h-2.063v.874h2.063V11.5zm7.275 1.61c1.55 0 2.703-.973 2.703-2.282 0-1.015-.602-1.754-1.61-1.922v-.062c.809-.246 1.313-.91 1.313-1.813 0-1.133-.895-2.14-2.375-2.14-1.383 0-2.531.851-2.578 2.109h.937c.035-.797.793-1.266 1.625-1.266.883 0 1.453.536 1.453 1.344 0 .844-.66 1.39-1.609 1.39h-.641v.86h.641c1.215 0 1.891.617 1.891 1.5 0 .848-.739 1.422-1.766 1.422-.926 0-1.66-.477-1.719-1.25h-.984c.059 1.258 1.168 2.11 2.719 2.11zm4.08-.11h5.047v-.86h-3.718v-.062l1.796-1.922c1.375-1.472 1.782-2.16 1.782-3.047 0-1.234-1-2.218-2.407-2.218-1.402 0-2.468.953-2.468 2.359h.922c0-.91.589-1.516 1.515-1.516.867 0 1.531.532 1.531 1.375 0 .739-.433 1.286-1.359 2.297l-2.641 2.89V13zm10.519-1.5c0 .875.547 1.61 1.562 1.61 1 0 1.547-.735 1.547-1.61v-.422c0-.875-.531-1.61-1.547-1.61-1 0-1.562.735-1.562 1.61v.422zm-3.985-4.578c0 .875.547 1.61 1.563 1.61 1 0 1.547-.735 1.547-1.61V6.5c0-.875-.531-1.61-1.547-1.61-1 0-1.563.735-1.563 1.61v.422zm.297 6.078h.891l5.5-8h-.891l-5.5 8zm4.485-1.922c0-.484.218-.937.765-.937.563 0 .75.453.75.937v.422c0 .484-.203.938-.75.938-.562 0-.765-.454-.765-.938v-.422zM267.583 6.5c0-.484.219-.938.766-.938.562 0 .75.454.75.938v.422c0 .484-.203.937-.75.937-.563 0-.766-.453-.766-.937V6.5z" fill="#111213"/><path d="M252.172 106h3.67v-.625h-2.704v-.045l1.307-1.398c1-1.071 1.295-1.571 1.295-2.216 0-.898-.727-1.614-1.75-1.614-1.02 0-1.795.693-1.795 1.716h.67c0-.662.429-1.102 1.102-1.102.631 0 1.114.386 1.114 1 0 .537-.315.935-.989 1.67l-1.92 2.103V106zm6.582.08c1.284 0 2.022-1.089 2.022-2.989 0-1.886-.75-2.989-2.022-2.989-1.273 0-2.023 1.103-2.023 2.989 0 1.9.738 2.989 2.023 2.989zm0-.625c-.847 0-1.341-.85-1.341-2.364 0-1.511.5-2.375 1.341-2.375.84 0 1.34.864 1.34 2.375 0 1.514-.494 2.364-1.34 2.364zm4.805-5.273h-.625c-.037.059-.454.863-1.352.863v.591c.668 0 1.145-.272 1.227-.431h.046V106h.704v-5.818zm1.69 5.818h.738l2.591-5.159v-.659h-3.727v.625h3v.045L265.249 106z" fill="#A4A8B4"/></svg>