<svg width="26" height="26" viewBox="0 0 26 26" fill="none" xmlns="http://www.w3.org/2000/svg">
<path d="M26 8.63472V13.6155V23.7507C26 25.0088 24.9737 26 23.7573 26H2.24269C0.988304 26 0 24.9707 0 23.827V2.24927C0 0.991202 0.988304 0 2.24269 0H23.6433C24.8977 0 26 1.08116 26 2.3011V8.63472Z" fill="#ED4969"/>
<path d="M18.1311 9.14943C19.5755 9.14943 20.7159 10.1406 20.7159 12.1612C20.7159 12.6568 20.6399 13.2286 20.4878 13.8386L19.7656 16.431C19.6896 16.7359 19.6135 16.9266 19.6135 17.1553C19.6135 17.5747 19.8416 17.8796 20.1077 17.8796C20.4498 17.8796 20.9059 17.5747 21.4001 16.2022L22.3884 16.5453C21.8182 18.6421 20.7159 19.5189 19.3855 19.5189C17.789 19.5189 17.0668 18.5659 17.0668 17.2697C17.0668 16.9266 17.1428 16.5453 17.2188 16.126L17.941 13.4574C18.017 13.1524 18.0931 12.8855 18.0931 12.6568C18.0931 11.7799 17.5989 11.2843 16.7246 11.2843C15.6603 11.2843 14.9381 12.0849 14.558 13.5336L13.1135 19.3664H10.6428L11.0609 17.4984C10.3387 18.7184 9.27436 19.5189 7.98196 19.5189C6.46149 19.5189 5.73927 18.6421 5.73927 17.2697C5.73927 16.9266 5.81529 16.4691 5.89132 16.126L7.03167 11.3606H5.24512L5.73927 9.34005H10.0726L8.36208 16.126C8.21003 16.5453 8.21003 16.9266 8.21003 17.1934C8.21003 17.6128 8.4381 17.7653 8.7802 17.8415H8.93225C9.35038 17.8415 10.7188 17.6128 11.517 15.8972L12.6574 11.3606H10.7948L11.365 9.34005H15.2422L14.748 11.6656C15.3942 10.3694 16.7627 9.14943 18.1311 9.14943ZM9.04629 7.92949C8.17202 7.92949 7.52582 7.2814 7.52582 6.40457C7.52582 5.52773 8.24804 4.87964 9.04629 4.87964C9.92056 4.87964 10.5668 5.52773 10.5668 6.40457C10.6428 7.2814 9.92056 7.92949 9.04629 7.92949Z" fill="white"/>
</svg>
