<svg fill="none" xmlns="http://www.w3.org/2000/svg" viewBox="0 0 143 64">
  <g clip-path="url(#clip0)" fill-rule="evenodd" clip-rule="evenodd">
    <path d="M105.1 22.7h-3.5v15.6c0 4.1 2.4 4.6 4.4 4.6h1v-3.2h-.4c-1 0-1.5-.4-1.5-2v-15zm-69.4 0h-3.6v20h3.6v-20zm39.8 17.5c-1.4 0-2.9-.6-4-1.6L70 41a8 8 0 005.6 2.2c3.2 0 5.3-2 5.3-4.5 0-2.7-2.4-3.6-4.4-4.4-1.4-.5-2.6-1-2.6-1.9 0-.9.8-1.4 2-1.4a6 6 0 013.6 1.3l1.3-2.5a7.2 7.2 0 00-4.8-1.7c-3 0-5.4 1.6-5.4 4.4 0 2.8 2.4 3.7 4.5 4.5 1.3.5 2.5 1 2.5 1.9 0 .9-.7 1.4-2 1.4zM47.3 28.1c4.3 0 7.8 3.1 7.8 7.5S51.6 43 47.3 43c-4.4 0-7.7-3.1-7.7-7.5S43 28 47.3 28zm3 10.7c-.8.8-2 1.3-3 1.3H47c-2.3-.2-4-2.2-4-4.5 0-1.6.7-3.1 2-4 1.4-.8 3-.8 4.4 0 1.4.9 2.1 2.4 2 4v.2c0 1.2-.4 2.3-1.2 3zM60.8 26h-6.5v-3.1h16.5v3.1h-6.4v16.9h-3.6V25.9zm26.6 2.5h-3.2v20h3.5v-6V41c1 1.3 2.4 2 4 2 3.7 0 6.5-3 6.5-7.5S95.8 28 91.9 28c-1.8 0-3.5.9-4.5 2.4v-2.1zm3.8 11.7c2 0 3.5-1.6 3.5-4.5 0-2.8-1.5-4.5-3.5-4.5-1.9 0-3.6 1.4-3.6 4.6 0 2.2 1.2 4.4 3.5 4.4zm25.4-12c4.4 0 7.8 3 7.8 7.4S121 43 116.7 43c-4.3 0-7.8-3-7.8-7.5 0-4.4 3.5-7.4 7.7-7.4zm4.3 7.7c0 2.3-2 4.2-4.3 4.2h-.2c-2.3-.1-4-2.1-4-4.5 0-1.5.7-3 2-3.9 1.4-.8 3.1-.8 4.4 0 1.4.8 2.2 2.4 2 4v.2zm6.9-7.4h3.5v14.4h-3.5V28.4zm6.4 3h1.8v6.1c0 4.9 4 5.4 6 5.4h1v-3.2h-.6c-.8.2-1.5-.1-2-.6-.6-.6-.9-1.3-.8-2v-5.7h3.2v-2.8h-3.2v-4.1h-3.4v4.1h-2v2.8z" fill="#DFDFDF"/>
    <path d="M31.6 13.4c-.1.8-.8 1.5-1.7 1.5-.7 0-1.4-.5-1.6-1.2H0v-.9h28.3a1.6 1.6 0 013.3.6zm.5 5.2c.1-.8.8-1.3 1.5-1.3a1.6 1.6 0 11-1.6 2.1h-4l-2-2H0v-.9h26.4l2 2h3.7zm98.7 5.8a1.6 1.6 0 10-3.3 0 1.6 1.6 0 003.3 0zm-104.3-3c-.4 0-.7.2-1 .4l-1.6-1.6H0v.8h23.5l1.4 1.4a1.6 1.6 0 002.5 2 1.6 1.6 0 00-1-3z" fill="red"/>
  </g>
  <defs>
    <clipPath id="clip0">
      <path fill="#fff" d="M0 0h143v64H0z"/>
    </clipPath>
  </defs>
</svg>
