<svg width="144" height="64" viewBox="0 0 144 64" fill="none" xmlns="http://www.w3.org/2000/svg">
<g clip-path="url(#clip0)">
<path fill-rule="evenodd" clip-rule="evenodd" d="M105.785 22.8828H102.289V38.2156C102.289 42.26 104.708 42.7549 106.648 42.7549C107.019 42.7492 107.39 42.7207 107.759 42.6696V39.5893C107.583 39.6018 107.406 39.6018 107.229 39.5893C106.315 39.5893 105.785 39.1969 105.785 37.6525V22.8828ZM36.3959 22.9169H32.8145V42.5416H36.3959V22.9169ZM76.2102 40.0672C74.7249 40.0494 73.2957 39.4981 72.1843 38.5143L70.6116 40.8095C72.1314 42.1762 74.1136 42.9171 76.1589 42.8829C79.4069 42.8829 81.5098 41.0228 81.5098 38.5314C81.5098 35.8034 79.0679 34.9043 77.065 34.1668C75.6725 33.6541 74.4921 33.2195 74.4921 32.3027C74.4921 31.4153 75.2358 30.9459 76.458 30.9459C77.7527 30.9552 79.0093 31.3833 80.0395 32.1661L81.339 29.7087C79.9914 28.6232 78.2998 28.0543 76.5692 28.1047C73.5946 28.1047 71.1586 29.5978 71.1586 32.3709C71.1586 35.1113 73.6138 36.0368 75.6197 36.7929C77.005 37.3151 78.1761 37.7566 78.1761 38.6593C78.1761 39.5382 77.4581 40.0672 76.2102 40.0672ZM47.935 28.1303C52.2686 28.1303 55.7304 31.2104 55.7304 35.5194C55.7304 39.8283 52.2601 42.9085 47.935 42.9085C43.61 42.9085 40.2423 39.8709 40.2423 35.5194C40.2423 31.1678 43.6612 28.1303 47.935 28.1303ZM50.9324 38.7409C50.1309 39.5186 49.0527 39.9467 47.935 39.9307V39.9136H47.7641C45.4564 39.7942 43.6817 37.8316 43.798 35.5279C43.6981 33.9643 44.4771 32.4747 45.8194 31.6626C47.1618 30.8506 48.845 30.8506 50.1874 31.6626C51.5297 32.4747 52.3087 33.9643 52.2087 35.5279V35.7839C52.193 36.8995 51.7338 37.9633 50.9324 38.7409ZM61.4657 26.0057H55.0038V22.934H71.4834V26.0057H65.03V42.5843H61.4828L61.4657 26.0057ZM88.1085 28.4545H84.9029L84.8862 48.1219H88.3993V42.1491C88.4008 41.7408 88.3722 41.333 88.3135 40.929C89.2906 42.1908 90.8017 42.9259 92.3993 42.917C96.1085 42.917 98.8613 39.8965 98.8613 35.5279C98.8613 31.1593 96.4247 28.1388 92.5955 28.1388C90.7866 28.0967 89.0857 28.9988 88.1085 30.5193C88.126 30.184 88.126 29.8479 88.1085 29.5126V28.4545ZM91.8352 39.9478C93.7753 39.9478 95.3912 38.3692 95.3912 35.5706C95.3912 32.7719 93.9119 31.1337 91.8606 31.1337C90.0056 31.1337 88.2793 32.4647 88.2793 35.5962C88.2793 37.789 89.4932 39.9478 91.8011 39.9478H91.8352ZM117.315 28.0961C121.649 28.0961 125.111 31.1764 125.111 35.4853C125.111 39.7942 121.64 42.8744 117.35 42.8744C113.059 42.8744 109.588 39.8283 109.588 35.4853C109.588 31.1422 113.041 28.1303 117.315 28.1303V28.0961ZM121.538 35.7071C121.528 38.0269 119.639 39.9012 117.315 39.8965V39.8795H117.093C114.785 39.76 113.01 37.7975 113.127 35.4938C113.027 33.9301 113.806 32.4406 115.148 31.6285C116.491 30.8164 118.174 30.8164 119.516 31.6285C120.859 32.4406 121.637 33.9301 121.538 35.4938V35.7071ZM128.427 28.4203H131.982V42.5843H128.453L128.427 28.4203ZM134.881 31.4153H136.709V37.4563C136.709 42.1918 140.624 42.772 142.59 42.772C142.951 42.765 143.31 42.7365 143.667 42.6867V39.6064C143.456 39.6477 143.241 39.6649 143.026 39.6577C142.281 39.739 141.539 39.4841 141.001 38.9625C140.464 38.4409 140.187 37.7071 140.248 36.9614V31.4494H143.471V28.6508H140.248V24.6064H136.829V28.6508H134.881V31.4153Z" fill="#101113"/>
<path fill-rule="evenodd" clip-rule="evenodd" d="M32.2304 13.6869C32.1461 14.527 31.4183 15.1624 30.5587 15.1463C29.8198 15.1421 29.174 14.6553 28.9787 13.9554H0.666992V13.1168H28.9959C29.2142 12.3003 30.0351 11.7857 30.8812 11.9349C31.7274 12.084 32.3148 12.8467 32.2304 13.6869ZM32.7195 18.7694C32.9067 18.0535 33.5639 17.5531 34.3166 17.5533L34.308 17.5785C35.1634 17.5799 35.8755 18.2236 35.9476 19.0606C36.0199 19.8975 35.428 20.6496 34.585 20.7922C33.742 20.9348 32.9281 20.4205 32.7109 19.608H28.7566L26.6899 17.5785H0.666992V16.7398H27.0486L29.1068 18.7694H32.7195ZM131.473 24.5561C131.473 23.6622 130.735 22.9375 129.825 22.9375C129.388 22.9375 128.968 23.1081 128.659 23.4116C128.35 23.7151 128.177 24.1268 128.177 24.5561C128.177 25.4501 128.914 26.1747 129.825 26.1747C130.735 26.1747 131.473 25.4501 131.473 24.5561ZM27.1425 21.5957C26.7838 21.598 26.4358 21.7159 26.1518 21.9311L24.5804 20.3796H0.666992V21.2183H24.2131L25.6137 22.5936C25.3237 23.2484 25.5048 24.0125 26.0595 24.4742C26.6143 24.9358 27.4115 24.986 28.0217 24.5977C28.6319 24.2093 28.9108 23.4743 28.7083 22.7885C28.5058 22.1027 27.8696 21.6283 27.1425 21.6208V21.5957Z" fill="#FF0000"/>
</g>
<defs>
<clipPath id="clip0">
<rect width="143" height="63" fill="white" transform="translate(0.666992 0.5)"/>
</clipPath>
</defs>
</svg>
