<svg width="26" height="26" viewBox="0 0 26 26" fill="none" xmlns="http://www.w3.org/2000/svg">
<path d="M12.0118 10.74H14.0222L14.5217 10.0535V4.67737H11.5127V10.0541L12.0118 10.74Z" fill="#8A4182"/>
<path d="M10.7155 13.1378L11.3366 11.2293L10.8371 10.5431L5.71486 8.88183L4.78516 11.7383L9.90791 13.3999L10.7155 13.1378Z" fill="#8A4182"/>
<path d="M12.6001 15.1091L10.9739 13.9294L10.1655 14.1917L7 18.5413L9.43419 20.3066L12.6001 15.9569V15.1091Z" fill="#8A4182"/>
<path d="M15.0603 13.9292L13.4336 15.1088L13.434 15.9571L16.5996 20.3066L19.0339 18.5413L15.8678 14.1913L15.0603 13.9292Z" fill="#8A4182"/>
<path d="M14.6963 11.2291L15.3177 13.1377L16.1259 13.3997L21.2482 11.7384L20.3182 8.88177L15.1958 10.5434L14.6963 11.2291Z" fill="#8A4182"/>
<path d="M13.0175 0.0108395C5.86124 0.0108395 0.0390625 5.82184 0.0390625 12.9645C0.0390625 20.1097 5.86124 25.9224 13.0175 25.9224C20.173 25.9224 25.9946 20.1097 25.9946 12.9645C25.9946 5.82184 20.173 0.0108395 13.0175 0.0108395ZM13.0175 2.63375C18.7323 2.63375 23.3667 7.25837 23.3667 12.9645C23.3667 18.6725 18.7323 23.2991 13.0175 23.2991C7.30071 23.2991 2.66693 18.6725 2.66693 12.9645C2.66693 7.25837 7.30071 2.63375 13.0175 2.63375Z" fill="#8A4182"/>
<path d="M20.8781 15.8438L16.9844 14.5807L17.2418 13.789L21.1355 15.052L20.8781 15.8438Z" fill="#8A4182"/>
<path d="M15.912 9.60376L15.2373 9.11453L17.6436 5.8081L18.3183 6.29733L15.912 9.60376Z" fill="#8A4182"/>
<path d="M10.1638 9.57349L7.75781 6.26687L8.43261 5.77764L10.8386 9.08407L10.1638 9.57349Z" fill="#8A4182"/>
<path d="M5.14039 15.7944L4.88281 15.0027L8.77614 13.7402L9.03374 14.5319L5.14039 15.7944Z" fill="#8A4182"/>
<path d="M12.5742 21.2239H13.4081V17.1368H12.5742V21.2239Z" fill="#8A4182"/>
</svg>
