<svg xmlns="http://www.w3.org/2000/svg" viewBox="0 0 40 40" fill="none"><path fill="rgb(83, 130, 161)" d="M13.675 30.8951s-1.5467.8866 1.1 1.1866c3.2067.36 4.8467.3083 8.3817-.35 0 0 .9283.5733 2.2266 1.0717-7.9233 3.3466-17.93331-.195-11.7083-1.9083zm-.9683-4.3667s-1.735 1.265.9133 1.5333c3.4267.35 6.1333.3784 10.815-.51 0 0 .6467.6467 1.6667 1-9.5817 2.7617-20.25004.2184-13.395-2.025"/><path fill="rgb(231, 111, 0)" d="M20.8667 19.1167c1.9533 2.2167-.5117 4.21-.5117 4.21s4.9567-2.5216 2.68-5.68c-2.125-2.9466-3.7566-4.41 5.0717-9.45496 0 0-13.8567 3.40996-7.2383 10.92666"/><path fill="rgb(83, 130, 161)" d="M31.3467 34.1251s1.145.93-1.26 1.65c-4.5734 1.365-19.035 1.7767-23.05169.0533-1.445-.6183 1.26334-1.4783 2.11667-1.6583.88662-.19 1.39502-.155 1.39502-.155-1.60669-1.115-10.381686 2.19-4.45669 3.1367 16.15329 2.5833 29.44829-1.1634 25.25669-3.0267zM14.4183 22.0018s-7.35662 1.7216-2.605 2.3483c2.005.2633 6.005.205 9.73-.1033 3.0434-.2534 6.1-.7917 6.1-.7917s-1.0716.4533-1.85.9767c-7.4683 1.9366-21.89995 1.035-17.74495-.945 3.51335-1.675 6.36995-1.4834 6.36995-1.4834v-.0016zm13.195 7.27c7.595-3.8884 4.0834-7.6267 1.6334-7.1234-.6.1234-.8684.23-.8684.23s.2217-.3433.6484-.4933c4.8483-1.68 8.5766 4.955-1.5667 7.5833 0 0 .1183-.1033.1533-.1966z"/><path fill="rgb(231, 111, 0)" d="M23.035.043457S27.2417 4.19012 19.0467 10.5651c-6.57 5.1167-1.4984 8.0334-.0017 11.3634-3.8367-3.41-6.65-6.4134-4.7617-9.2084 2.77-4.10164 10.45-6.08998 8.7517-12.676643z"/><path fill="rgb(83, 130, 161)" d="M15.165 39.8118c7.2883.46 18.4817-.255 18.7467-3.655 0 0-.51 1.2883-6.025 2.3116-6.22 1.155-13.8934 1.02-18.44505.28 0 0 .93335.76 5.72335 1.0634z"/></svg>