<svg width="19" height="26" viewBox="0 0 19 26" fill="none" xmlns="http://www.w3.org/2000/svg">
<path d="M18.442 12.5396C18.442 17.6844 14.4651 21.8585 9.55542 21.8585C4.64792 21.8585 0.669922 17.6844 0.669922 12.5396C0.669922 7.39381 4.64684 3.21973 9.55542 3.21973C14.4651 3.21973 18.442 7.39381 18.442 12.5396Z" fill="#D33833"/>
<path d="M1.03517 14.8471C1.03517 14.8471 0.390585 5.12963 9.12659 4.85122L8.51667 3.80688L3.78034 5.43947L2.42617 7.03413L1.24317 9.3568L0.569336 12.0619L0.770836 13.87" fill="#EF3D3A"/>
<path d="M3.47185 6.18167C1.84237 7.91068 0.939495 10.1997 0.949854 12.5755C0.949854 15.0748 1.91727 17.3313 3.47185 18.9704C5.03402 20.6095 7.17685 21.617 9.55585 21.617C11.9359 21.617 14.0788 20.6095 15.6409 18.9704C17.2707 17.2411 18.1736 14.9517 18.1629 12.5755C18.1734 10.1997 17.2705 7.91062 15.6409 6.18167C14.0788 4.55017 11.9359 3.53509 9.55585 3.53509C7.18335 3.53509 5.03402 4.54259 3.47185 6.18167ZM3.0786 19.3593C1.42327 17.6238 0.398438 15.221 0.398438 12.5744C0.398438 9.92892 1.42327 7.52609 3.0786 5.78301C4.73394 4.04967 7.02627 2.96851 9.55694 2.96851C12.0865 2.96851 14.3789 4.04859 16.0353 5.78301C17.6895 7.51851 18.7144 9.92134 18.7144 12.5755C18.7144 15.221 17.6895 17.6238 16.0342 19.3593C14.3789 21.1013 12.0865 22.1738 9.55585 22.1738C7.02627 22.1738 4.73394 21.1013 3.07752 19.3593H3.0786Z" fill="#231F20"/>
<path d="M13.2972 12.5907L11.943 12.7965L10.1144 13.0099L8.93245 13.0392L7.7787 13.0023L6.89687 12.7228L6.11687 11.8562L5.50695 10.0838L5.37045 9.70249L4.5612 9.42299L4.08779 8.62132L3.75195 7.47515L4.12354 6.46765L5.00537 6.1524L5.71495 6.49798L6.05079 7.26173L6.46029 7.19673L6.5957 7.01907L6.46029 6.2174L6.42454 5.21098L6.62495 3.82215L6.61737 3.02807L7.23487 2.01407L8.31604 1.2124L10.2075 0.382568L12.3081 0.698902L14.1346 2.0509L14.9807 3.43973L15.5256 4.44723L15.661 6.9454L15.2526 9.09907L14.5073 11.0101L13.8053 12.0317" fill="#F0D6B7"/>
<path d="M12.1505 18.5955L7.31341 18.8013V19.6322L7.72182 22.5497L7.52141 22.7923L4.13924 21.6093L3.90199 21.1901L3.56616 17.2652L2.76991 14.9132L2.59766 14.3542L5.30599 12.4432L6.15207 12.0977L6.89741 13.0391L7.54307 13.6273L8.28841 13.87L8.62424 13.9729L9.03374 15.781L9.34141 16.1623L10.1225 15.8839L9.57757 16.964L12.5156 18.3897L12.1505 18.5955Z" fill="#335061"/>
<path d="M4.12489 6.48272L5.00564 6.16639L5.71522 6.51306L6.05105 7.27681L6.46055 7.21072L6.56022 6.79147L6.3598 5.98981L6.56022 4.07881L6.38905 3.03556L6.99789 2.30756L8.31631 1.23506L7.94364 0.712891L6.0803 1.65322L5.3003 2.27831L4.86155 3.25006L4.18772 4.19039L3.9873 5.30081L4.12272 6.48381" fill="#6D6B6D"/>
<path d="M5.51459 3.21967C5.51459 3.21967 6.02376 1.93267 8.05067 1.30867C10.0787 0.68359 8.15142 0.860173 8.15142 0.860173L5.95226 1.72684L5.10617 2.59351L4.73351 3.28576L5.51351 3.21967H5.51459ZM4.49734 6.24001C4.49734 6.24001 3.78667 3.80684 6.49717 3.46234L6.39642 3.04309L4.53309 3.49159L3.98926 5.29967L4.12467 6.48267L4.49734 6.24001Z" fill="#DCD9D8"/>
<path d="M5.57938 9.46733L6.02355 9.02533C6.02355 9.02533 6.22505 9.047 6.2608 9.29075C6.29655 9.53341 6.39622 11.7228 7.85113 12.8993C7.98763 13.0098 6.76888 12.7227 6.76888 12.7227L5.68663 10.9883L5.57938 9.46733ZM11.8075 8.80542C11.8075 8.80542 11.8855 7.75458 12.165 7.83475C12.4445 7.916 12.4445 8.20308 12.4445 8.20308C12.4445 8.20308 11.7717 8.644 11.8075 8.80542ZM14.6166 4.95417C14.6166 4.95417 14.0576 5.07117 14.0066 5.57925C13.9568 6.08625 14.6166 5.68217 14.7162 5.64425L14.6166 4.95417ZM10.5237 4.991C10.5237 4.991 9.77947 5.09392 9.77947 5.57925C9.77947 6.0635 10.6245 6.02667 10.8606 5.82083L10.5237 4.991ZM5.92388 7.24758C5.92388 7.24758 4.64122 6.44592 4.50472 7.21075C4.36822 7.9745 4.06705 8.52591 4.70513 9.32758L4.26855 9.18675L3.86013 8.11425L3.72363 7.071L4.50472 6.24008L5.38655 6.30617L5.89572 6.72542L5.92388 7.24758ZM6.53272 5.05708C6.53272 5.05708 7.10688 1.99883 10.0156 1.41167C12.4098 0.926332 13.6697 1.51458 14.1431 2.0725C14.1431 2.0725 12.0079 -0.528585 9.97988 0.264415C7.95188 1.06608 6.46122 2.521 6.49697 3.45483C6.55438 5.05708 6.53272 5.05708 6.53272 5.05708ZM14.3793 2.41808C14.3793 2.41808 13.3978 2.38125 13.3621 3.28475C13.3621 3.28475 13.3621 3.42558 13.4271 3.56533C13.4271 3.56533 14.2071 2.66075 14.6805 3.14608" fill="#F7E4CD"/>
<path d="M10.0867 3.66055C10.0867 3.66055 9.91443 2.27822 8.76826 3.07989C8.02293 3.60097 8.09443 4.32897 8.22335 4.46872C8.35985 4.60847 8.3241 4.88797 8.42376 4.69622C8.52451 4.50555 8.49526 3.88047 8.86793 3.70389C9.2341 3.52839 9.85051 3.33664 10.0867 3.66055Z" fill="#F7E4CD"/>
<path d="M6.90522 13.039L3.72347 14.4939C3.72347 14.4939 5.04189 19.8749 4.36805 21.5432L3.89572 21.3666L3.85997 19.3159L2.97814 15.4354L2.60547 14.3618L5.92372 12.0684L6.90522 13.039ZM7.22805 16.016L7.67872 16.5815V18.6615H7.14139C7.14139 18.6615 7.07639 17.2066 7.07639 17.03C7.07639 16.8534 7.14139 16.2284 7.14139 16.2284L7.22805 16.016ZM7.24214 18.9779L5.71464 19.0429L6.1523 19.3603L7.23564 19.5369" fill="#49728B"/>
<path d="M12.4512 18.6323L13.7057 18.5955L14.0133 21.7859L12.7307 21.9614L12.4512 18.6323Z" fill="#335061"/>
<path d="M12.7881 18.6322L14.6796 18.5292C14.6796 18.5292 15.4607 16.5153 15.4607 16.4124C15.4607 16.3095 16.1345 13.495 16.1345 13.495L14.6081 11.8624L14.3004 11.584L13.4901 12.4138V15.6411L12.7881 18.6322Z" fill="#335061"/>
<path d="M13.6331 18.3896L12.4512 18.6322L12.6234 19.6029C13.06 19.8087 13.8053 19.2562 13.8053 19.2562L13.6331 18.3896ZM13.6688 12.3121L16.0413 14.1191L16.1063 13.2892L14.3145 11.5906L13.6699 12.311" fill="#49728B"/>
<path d="M8.41716 25.4682L7.71408 22.5497L7.36308 20.396L7.30566 18.8013L10.4798 18.6248H12.4515L12.2727 22.2702L12.5804 25.0858L12.5447 25.6079L9.97175 25.8138L8.41716 25.4671" fill="white"/>
<path d="M12.014 18.5955C12.014 18.5955 11.8428 22.2041 12.3509 24.777C12.3509 24.777 11.3337 25.4378 9.85059 25.6079L12.6954 25.505L13.0313 25.2991L12.6239 19.6095L12.5156 18.3896" fill="#DCD9D8"/>
<path d="M14.0636 21.5139L15.382 21.1314L17.8845 20.9906L18.2561 19.8087L17.5822 17.7579L16.8022 17.655L15.7189 18.0006L14.6876 18.5217L14.1351 18.4188L13.7061 18.5954" fill="white"/>
<path d="M14.042 20.8152C14.042 20.8152 14.9238 20.396 15.0603 20.4328L14.6877 18.5218L15.1242 18.3452C15.1242 18.3452 15.433 20.1544 15.433 20.3602C15.433 20.3602 17.3245 20.462 17.4967 20.462C17.4967 20.462 17.9052 19.6604 17.8044 18.8305L18.1771 19.941L18.2128 20.565L17.669 21.3959L17.0591 21.5356L16.0418 21.4988L15.706 21.0503L14.523 21.2269L14.1503 21.3666" fill="#DCD9D8"/>
<path d="M12.7099 18.353L11.9646 16.4127L11.1846 15.2666C11.1846 15.2666 11.3557 14.7812 11.5919 14.7812H12.373L13.1183 15.0608L13.0533 16.3467L12.7099 18.353Z" fill="white"/>
<path d="M12.8596 17.691C12.8596 17.691 11.9139 15.8169 11.9139 15.5385C11.9139 15.5385 12.0861 15.1192 12.3223 15.2221C12.5585 15.325 13.0676 15.6045 13.0676 15.6045V14.9437L11.9139 14.7L11.1328 14.8029L12.4512 18.0074L12.7231 18.0442" fill="#DCD9D8"/>
<path d="M8.71854 13.1129L7.77929 13.01L6.89746 12.7305V13.0468L7.32754 13.5311L8.68171 14.1561" fill="white"/>
<path d="M7.20655 13.2157C7.20655 13.2157 8.25305 13.6642 8.59647 13.5613L8.63222 13.9794L7.68647 13.7736L7.1123 13.3554L7.20655 13.2146" fill="#DCD9D8"/>
<path d="M14.0638 14.8981C13.5405 14.8914 13.0202 14.8174 12.5157 14.6781C12.545 14.4864 12.4876 14.3033 12.5374 14.1636C12.6674 14.0682 12.8743 14.0682 13.0682 14.0455C12.8852 13.9577 12.6778 13.9348 12.48 13.9805C12.4735 13.8472 12.415 13.7671 12.3803 13.6641C12.7021 13.5461 13.4626 12.7747 13.8927 13.025C14.0996 13.1496 14.1852 13.8396 14.2003 14.1852C14.2144 14.4647 14.1722 14.7442 14.0638 14.8981ZM11.3187 13.9361C11.3187 13.9794 11.3187 14.0238 11.3122 14.0682C11.1334 14.1852 10.8463 14.1852 10.6459 14.2881C10.8946 14.3005 11.1382 14.3632 11.362 14.4723C11.3555 14.5828 11.3555 14.6998 11.3479 14.8103C11.0186 15.0378 10.7174 15.3845 10.3296 15.6044C10.1443 15.7073 9.50624 15.9716 9.31341 15.9196C9.20508 15.8904 9.19099 15.7506 9.14766 15.6185C9.05449 15.3401 8.83999 14.884 8.81833 14.4571C8.79666 13.9209 8.73924 13.0163 9.30583 13.1268C9.77474 13.2267 10.2263 13.3954 10.6459 13.6273C10.868 13.7595 10.9893 13.9057 11.3197 13.9361H11.3187ZM11.6415 14.5752C11.5917 14.2806 11.5342 14.2004 11.5559 13.9426C12.3229 13.4215 12.4594 14.8396 11.6426 14.5752" fill="#D33833"/>
<path d="M11.6411 14.5754C11.5912 14.2807 11.5338 14.2005 11.5555 13.9427C12.3225 13.4216 12.459 14.8397 11.6422 14.5754H11.6411Z" fill="black" stroke="#D33833" stroke-width="0.5"/>
<path d="M12.7455 14.8102C12.7455 14.8102 12.5093 14.4647 12.6805 14.3617C12.8538 14.2588 13.0185 14.3617 13.1182 14.1852C13.2189 14.0086 13.1182 13.9067 13.1539 13.6998C13.1897 13.494 13.3543 13.4582 13.5266 13.4214C13.6988 13.3846 14.1723 13.3185 14.2362 13.4864L14.0358 12.8624L13.6273 12.7227L12.3447 13.4875L12.2797 13.8699V14.6337L12.7455 14.8102ZM9.19218 15.9564L9.06218 14.3314C8.99068 13.5243 9.24851 13.6641 9.93643 13.6641C10.0448 13.6641 10.581 13.7887 10.6178 13.8699C10.8042 14.2599 10.3091 14.1711 10.8323 14.4657C11.2689 14.7073 12.0511 14.3173 11.8723 13.767C11.7705 13.6413 11.3556 13.7302 11.205 13.6489L10.4098 13.2297C10.0729 13.0531 9.29834 12.7887 8.94084 13.039C8.03084 13.6706 8.99826 15.2587 9.32001 15.9207" fill="#EF3D3A"/>
<path d="M10.0869 3.66052C9.16281 3.43952 8.70348 4.05702 8.42398 4.69618C8.17373 4.63768 8.2734 4.28452 8.3384 4.10902C8.50306 3.64535 9.16931 3.02027 9.71423 3.1091C9.9439 3.13835 10.2591 3.35827 10.0869 3.66052ZM14.5806 4.73302H14.6239C14.8308 5.17393 15.0096 5.64518 15.275 6.04168C15.0962 6.46743 13.9425 6.83577 13.9566 6.08502C14.2079 5.9756 14.638 6.06335 14.8601 5.9171C14.7301 5.55635 14.5513 5.2476 14.5806 4.73302ZM10.5527 4.74818C10.7531 5.12302 10.8181 5.51193 11.0976 5.79143C11.2266 5.9171 11.4703 6.07093 11.3479 6.4241C11.3197 6.50427 11.1117 6.68843 10.9904 6.72527C10.5527 6.85743 9.5279 6.75452 9.8724 6.18902C10.2375 6.2031 10.725 6.43168 10.9969 6.15868C10.7889 5.82068 10.4162 5.14468 10.5527 4.74818ZM14.4148 8.52577C13.7561 8.9591 13.0173 9.43685 11.9286 9.32743C11.6989 9.1216 11.6057 8.65793 11.8354 8.35677C11.9502 8.5626 11.8787 8.94502 12.2081 9.00352C12.8245 9.11402 13.5406 8.61352 13.9847 8.4456C14.2577 7.96785 13.9631 7.79777 13.7139 7.4901C13.2047 6.86502 12.5309 6.0861 12.5526 5.15227C12.7595 4.99843 12.7746 5.38735 12.8028 5.45343C13.0682 6.0861 13.7345 6.90185 14.2144 7.44568C14.3368 7.57785 14.5296 7.71002 14.5513 7.79777C14.6163 8.04802 14.3866 8.35677 14.4148 8.52577ZM5.6864 8.07077C5.47948 7.9451 5.42856 7.41643 5.18481 7.40127C4.83381 7.3796 4.89881 8.09243 4.89881 8.51168C4.66156 8.29068 4.61932 7.59952 4.79048 7.24743C4.59007 7.14452 4.50448 7.35685 4.38965 7.4316C4.54023 6.36452 5.91715 6.93868 5.6864 8.07077ZM14.8308 8.97427C14.5231 9.5766 14.0855 10.2385 13.1831 10.2602C13.1614 10.0695 13.1473 9.76835 13.1831 9.65027C13.8775 9.5766 14.3076 9.21693 14.8308 8.97427ZM10.5029 9.36427C11.076 9.67302 12.1366 9.70877 12.9252 9.6871C12.9686 9.86368 12.9686 10.0836 12.9686 10.297C11.9578 10.3403 10.7672 10.0836 10.5029 9.36427ZM10.3946 9.93735C10.7954 10.9665 12.1647 10.8484 13.3196 10.8192C13.2686 10.9514 13.1614 11.1128 13.0184 11.1648C12.6457 11.3186 11.6274 11.4356 11.1117 11.1572C10.7889 10.9806 10.5744 10.5765 10.3946 10.3414C10.3166 10.2309 9.8854 9.94493 10.3946 9.93735Z" fill="#231F20"/>
<path d="M14.3645 15.6045C13.8987 16.4278 13.4469 17.2728 12.8955 17.9932C13.1252 17.2945 13.2248 16.1191 13.2606 15.2221C13.7481 14.987 14.1641 15.273 14.3656 15.6045" fill="#81B0C4"/>
<path d="M16.8807 18.5588C16.3574 18.6693 15.9923 19.1915 15.4756 19.1547C15.7627 18.7495 16.2502 18.574 16.8807 18.5588ZM17.1103 19.3973C16.6803 19.4407 16.1787 19.5143 15.7486 19.4775C15.9566 19.1547 16.7453 19.2717 17.1103 19.3973ZM17.2609 20.1243C16.7799 20.1318 16.1852 20.1243 15.7269 20.0874C15.9988 19.7863 16.9522 19.978 17.2609 20.1243Z" fill="#231F20"/>
<path d="M13.4624 22.1089C13.5339 22.7264 13.77 23.3514 13.7419 24.0264C13.4764 24.1152 13.3259 24.1964 12.9673 24.1964C12.9456 23.6223 12.8676 22.7415 12.8882 22.1901C13.0615 22.2042 13.3183 22.0644 13.4624 22.1089Z" fill="#DCD9D8"/>
<path d="M12.688 12.9946C12.4443 13.1571 12.2438 13.3554 12.0077 13.5309C11.492 13.5612 11.2125 13.4951 10.8398 13.1929C10.8463 13.1712 10.8832 13.1788 10.8832 13.1495C11.4346 13.3987 12.1366 13.0466 12.688 12.9946Z" fill="#F0D6B7"/>
<path d="M9.80762 16.8394C9.9582 16.1699 10.553 15.8167 11.0903 15.4495C11.6428 16.1699 11.9786 17.0961 12.3513 17.9931C11.4705 17.7212 10.5746 17.2868 9.80762 16.8394Z" fill="#81B0C4"/>
<path d="M12.8891 22.1976C12.8674 22.7479 12.9389 23.6233 12.9671 24.2039C13.3257 24.2039 13.4762 24.1227 13.7417 24.0349C13.7698 23.3578 13.5337 22.7338 13.4622 22.1163C13.3181 22.0643 13.0613 22.2041 12.888 22.1976H12.8891ZM7.3565 19.0808C7.59266 21.293 7.92958 23.1455 8.5525 25.1074C9.93591 25.5408 11.5988 25.5776 12.8241 25.1887C12.602 24.0858 12.6941 22.7403 12.5662 21.5573C12.4655 20.669 12.5153 19.7785 12.3799 18.875C10.8957 18.5587 8.80383 18.8013 7.3565 19.0808ZM12.7298 18.8891C12.7168 19.8381 12.7732 20.7784 12.8457 21.7274C13.2032 21.6754 13.4405 21.6386 13.7698 21.5573C13.6615 20.6463 13.6767 19.6095 13.4557 18.8013C13.2043 18.8089 12.9812 18.8013 12.7298 18.8891ZM14.5292 18.7353C14.3581 18.6984 14.1642 18.7353 14.006 18.7353C14.0851 19.5066 14.2649 20.3603 14.3288 21.1749C14.5802 21.1825 14.7156 21.0579 14.9247 21.0211C14.9377 20.3083 14.8662 19.3235 14.5292 18.7353ZM17.2592 21.293C17.7901 21.1608 18.1194 20.4989 17.9688 19.8153C17.8692 19.3603 17.698 18.4937 17.503 18.199C17.3676 17.9856 16.9873 17.6985 16.6797 17.8968C16.1846 18.2207 15.3179 18.316 14.9593 18.706C15.1392 19.3235 15.1955 20.1609 15.2681 20.9398C15.8845 20.9767 16.6363 20.7643 17.1531 20.9918C16.7945 21.1088 16.3352 21.1088 16.0264 21.2854C16.2853 21.4111 16.8725 21.3883 17.2603 21.293H17.2592ZM12.3442 17.9932C11.9715 17.0962 11.6346 16.1699 11.0821 15.4495C10.5447 15.8178 9.95758 16.1699 9.79941 16.8394C10.574 17.2868 11.4699 17.7213 12.3442 17.9932ZM13.2607 15.222C13.2249 16.119 13.1252 17.2944 12.8956 17.9932C13.4481 17.2652 13.8987 16.4278 14.3646 15.6044C14.1642 15.2729 13.7482 14.9869 13.2607 15.222ZM12.2217 14.8472C12.0137 14.8255 11.835 15.0963 11.5631 14.9793C11.4981 15.053 11.4407 15.1267 11.3767 15.2003C11.978 15.95 12.2575 17.0084 12.7233 17.8827C12.9747 17.0377 12.9454 16.119 13.0028 15.2003C12.6594 15.2144 12.4655 14.8688 12.2228 14.8472H12.2217ZM11.5555 13.9426C11.5338 14.2004 11.5912 14.2806 11.6422 14.5753C12.459 14.8396 12.3225 13.4215 11.5555 13.9426ZM10.6455 13.6338C10.2258 13.4025 9.77424 13.2346 9.30541 13.1355C8.73883 13.0239 8.79625 13.9285 8.81791 14.4648C8.83958 14.8916 9.05408 15.339 9.14724 15.6261C9.19058 15.7583 9.20466 15.898 9.31299 15.9273C9.50583 15.9717 10.1515 15.7149 10.3302 15.6109C10.717 15.3986 11.0182 15.053 11.3486 14.8179C11.3551 14.7074 11.3551 14.5904 11.3616 14.4799C11.1394 14.3665 10.8949 14.3036 10.6455 14.2958C10.8394 14.1928 11.133 14.1928 11.3117 14.0758C11.3117 14.0314 11.3117 13.987 11.3193 13.9426C10.9889 13.9058 10.8676 13.7584 10.6455 13.6338ZM7.27633 13.0098C6.98383 13.3186 8.10183 13.7303 8.45283 13.7519C8.45283 13.5613 8.56008 13.3771 8.53949 13.2373C8.11591 13.1637 7.5645 13.2157 7.27741 13.0098H7.27633ZM10.8892 13.1496C10.8892 13.1788 10.8535 13.1713 10.8459 13.1929C11.2251 13.4952 11.5057 13.5613 12.0137 13.5309C12.2434 13.3619 12.4514 13.1561 12.6952 12.9947C12.1362 13.0467 11.4342 13.3988 10.8892 13.1496ZM14.1999 14.1788C14.1858 13.8397 14.0992 13.142 13.8922 13.0174C13.4622 12.7596 12.7017 13.5385 12.3799 13.6566C12.4157 13.7595 12.4731 13.8408 12.4796 13.9729C12.6773 13.9269 12.8849 13.9498 13.0678 14.0379C12.8739 14.0596 12.667 14.0596 12.537 14.1571C12.4937 14.2958 12.5522 14.4799 12.5153 14.6706C12.9671 14.8028 13.4903 14.8688 14.0645 14.8916C14.1717 14.7443 14.214 14.4648 14.1999 14.1788ZM6.78233 13.3034C6.68916 13.2384 6.06625 12.4064 5.98066 12.4433C4.85508 12.8993 3.80208 13.6858 2.86283 14.4355C3.75875 16.4126 4.12383 18.8306 4.18883 21.1608C5.21366 21.6527 6.11716 22.3666 7.51466 22.4392C7.34935 21.336 7.21532 20.2284 7.11275 19.1177C6.76175 18.9628 6.26016 19.1253 5.92975 19.0733C5.92975 18.6692 6.43133 18.8967 6.47466 18.6248C6.50391 18.4189 6.19516 18.4048 6.29591 18.0809C6.55375 18.1763 6.68916 18.3897 6.96216 18.4709C7.21241 17.9119 6.96216 16.9196 6.99791 16.4494C7.0055 16.3617 7.04125 15.9641 7.23408 16.0302C7.40633 16.0887 7.22758 17.0962 7.24166 17.5371C7.25575 17.9488 7.19183 18.3388 7.3565 18.5955C8.74127 18.4001 10.1359 18.2822 11.5338 18.2423C11.2121 18.1026 10.8318 17.9715 10.4158 17.7278C10.1872 17.5956 9.47766 17.3237 9.41266 17.1038C9.30433 16.7506 9.68566 16.5675 9.74958 16.2653C9.06925 16.6477 8.94033 15.898 8.77458 15.3769C8.65834 15.0141 8.56997 14.6428 8.51025 14.2665C7.91441 13.9578 7.285 13.6707 6.78233 13.3034ZM13.6052 12.5386C14.5444 12.076 14.7156 14.2806 14.3429 14.9945C14.4003 15.2068 14.5942 15.2881 14.6733 15.4788C14.1501 16.4429 13.5683 17.3388 13.0321 18.2868C13.4264 18.03 13.9995 18.2434 14.4653 18.0517C14.6376 17.9856 14.7589 17.5815 14.8878 17.2576C15.2453 16.3758 15.6191 15.2588 15.7837 14.4203C15.8195 14.2297 15.9267 13.8104 15.8986 13.6414C15.8552 13.3327 15.4544 13.1052 15.2464 12.921C14.8672 12.5689 14.6289 12.2678 14.2281 11.9363C14.0786 12.1789 13.7341 12.3403 13.6052 12.5397V12.5386ZM4.64058 4.00626C4.19641 4.51326 4.2885 5.45359 4.33941 6.12959C5.14866 5.60851 6.21683 6.17401 6.20925 7.05584C6.596 7.04826 6.35333 6.56401 6.28075 6.24767C6.05216 5.22609 6.66858 4.12434 6.31 3.19051C5.6145 3.24901 5.049 3.53501 4.64058 4.00626ZM7.83641 1.07259C6.82566 1.36509 5.52891 2.12342 5.11291 3.05617C5.43575 3.00526 5.65783 2.84384 5.97308 2.82109C6.09441 2.81351 6.25258 2.87309 6.38908 2.83626C6.661 2.76259 6.89825 2.13101 7.10516 1.89484C7.30558 1.66734 7.54933 1.56442 7.714 1.35859C7.82233 1.30767 7.97941 1.30767 7.987 1.14517C7.94366 1.09426 7.89383 1.05742 7.83533 1.07259H7.83641ZM13.1036 1.35101C12.0506 0.741091 10.2728 0.286091 9.15483 0.859174C8.25241 1.32176 7.03366 2.08659 6.61766 3.04967C7.0055 3.98242 6.50391 4.83501 6.46708 5.78292C6.453 6.29101 6.69675 6.72434 6.71841 7.27576C6.58191 7.50326 6.18108 7.52492 5.90158 7.51084C5.80841 7.02551 5.64375 6.48167 5.15625 6.42317C4.46833 6.34192 3.95916 6.93017 3.931 7.54009C3.89525 8.26051 4.46833 9.45109 5.28516 9.37092C5.60041 9.34059 5.6795 9.01776 6.02291 9.01776C6.20925 9.40018 5.73691 9.51718 5.68708 9.78909C5.67191 9.86276 5.72175 10.1347 5.75858 10.2668C5.90808 10.8919 6.2385 11.7077 6.56025 12.1843C6.97625 12.7953 7.78658 12.8831 8.66083 12.9427C8.81791 12.596 9.391 12.6263 9.76366 12.7152C9.31299 12.531 8.897 12.0901 8.5525 11.7001C8.15925 11.2516 7.75733 10.7738 7.73566 10.1856C8.48858 11.2516 9.10499 12.1854 10.4657 12.6556C11.4981 13.0088 12.7017 12.4931 13.4979 11.9211C13.8272 11.6849 14.0212 11.3036 14.2562 10.9656C15.1316 9.67209 15.54 7.83476 15.4544 6.04726C15.4187 5.31276 15.4187 4.57826 15.1749 4.08642C14.9236 3.57076 14.0699 3.10059 13.5694 3.57076C13.4762 3.06376 13.9854 2.75501 14.5802 2.93917C14.1577 2.37259 13.7135 1.70417 13.1036 1.35101ZM15.0666 17.9693C15.891 17.5512 17.425 16.8448 17.9331 17.9693C18.1281 18.3886 18.3491 19.0873 18.4422 19.5207C18.5787 20.123 18.2917 21.4024 17.6828 21.6007C17.1455 21.7773 16.5215 21.7697 15.8769 21.6375C15.7864 21.5529 15.7112 21.4532 15.6548 21.3428C15.1966 21.3288 14.7589 21.3645 14.4003 21.5638C14.4361 21.917 14.2075 21.9679 13.9854 22.0416C13.8272 22.6959 14.3072 23.5474 14.1923 24.1368C14.1143 24.5625 13.6052 24.6286 13.2325 24.7023C13.2184 24.9373 13.2466 25.1356 13.2758 25.3349C13.1892 25.6578 12.81 25.8419 12.4438 25.8853C11.2478 26.0326 9.43433 26.0987 8.28816 25.6729C7.96533 24.8637 7.714 23.8865 7.44966 22.9678C6.33166 23.0924 5.42166 22.4749 4.568 22.0633C4.2755 21.9235 3.866 21.8433 3.75116 21.6007C3.64391 21.3656 3.68616 20.9171 3.658 20.4978C3.593 19.4178 3.52908 18.3745 3.25716 17.2717C3.13475 16.7712 2.91266 16.3378 2.76208 15.8601C2.61908 15.4192 2.37533 14.8678 2.31141 14.4268C2.21825 13.7725 2.82058 13.7357 3.19975 13.4497C3.79558 13.0088 4.26033 12.7661 4.90491 12.3685C5.09883 12.2515 5.67191 11.9568 5.73691 11.8182C5.86583 11.5463 5.51483 11.1638 5.42166 10.9515C5.27893 10.6511 5.19369 10.3267 5.17033 9.99492C4.92762 9.95264 4.69617 9.86103 4.49027 9.72575C4.28437 9.59048 4.1084 9.4144 3.97325 9.20843C3.56483 8.59093 3.27883 7.45234 3.63741 6.59217C3.66558 6.52609 3.80208 6.38634 3.82375 6.28342C3.86708 6.07759 3.74466 5.80567 3.73708 5.58467C3.70133 4.46017 3.92341 3.49059 4.66116 3.15259C4.96233 1.92517 6.037 1.52001 7.04775 0.910091C7.42691 0.682591 7.844 0.535258 8.273 0.373841C9.81458 -0.206826 12.186 -0.0963257 13.4687 0.896008C14.0136 1.31417 14.8802 2.20359 15.189 2.85034C16.0123 4.54901 15.9484 7.39276 15.3753 9.46626C15.2962 9.74467 15.189 10.1488 15.0308 10.4878C14.9236 10.7229 14.5867 11.1855 14.6224 11.3913C14.6657 11.6048 15.397 12.1713 15.5541 12.3252C15.8336 12.6047 16.3709 12.9719 16.4142 13.3251C16.4641 13.6988 16.2572 14.2134 16.1488 14.5742C15.829 15.7185 15.468 16.851 15.0666 17.9693Z" fill="#231F20"/>
<path d="M9.58478 9.62122C9.62811 9.56272 9.87186 9.46738 10.2153 9.63638C10.2153 9.63638 9.80686 9.70138 9.84261 10.4001L9.67036 10.3633C9.67795 10.3709 9.49919 9.7393 9.58478 9.62122Z" fill="#F7E4CD"/>
<path d="M12.5524 15.5893C12.5524 15.6923 12.4657 15.7811 12.366 15.7811C12.3161 15.7797 12.2687 15.7589 12.2339 15.7231C12.1991 15.6872 12.1797 15.6393 12.1797 15.5893C12.1797 15.4864 12.2653 15.3987 12.366 15.3987C12.4733 15.3987 12.5524 15.4864 12.5524 15.5893ZM12.7387 16.4788C12.7387 16.5817 12.652 16.6694 12.5524 16.6694C12.5026 16.668 12.4554 16.6474 12.4206 16.6118C12.3859 16.5762 12.3663 16.5285 12.366 16.4788C12.366 16.3758 12.4516 16.2881 12.5524 16.2881C12.6596 16.2881 12.7387 16.3683 12.7387 16.4788Z" fill="#1D1919"/>
</svg>
