<svg fill="none" xmlns="http://www.w3.org/2000/svg" viewBox="0 0 41 40"><path d="M29.797 4.815c.256 0 .456.01.654-.002.356-.023.638.2.962.282.082.02.142.093.172.179.032.094.09.177.172.22.45.24.532.713.676 1.122.262.747.288 1.55.476 2.32.11.448.134.942.26 1.385.181.637.084 1.297.287 1.931.125.393.068.843.201 1.252.212.65.22 1.34.304 2.006.095.771.397 1.497.403 2.285.004.369.137.74.24 1.103.064.225.051.45.07.676.028.363.175.507.537.519.376.012.719-.112 1.074-.22.848-.26 1.705-.46 2.603-.188.958.291 1.58 1.093 1.609 2.104.018.65-.024 1.266-.51 1.775a3 3 0 01-1.336.805c-.422.126-.842.258-1.257.406-.3.106-.608.207-.92.26-.65.11-.88.41-.708 1.042.195.713.267 1.451.458 2.16.134.494.16.988.196 1.488.015.204.09.39.163.571.169.425.106.887.224 1.31.134.48.168.96.114 1.436-.117 1.03-.47 1.727-1.495 2.016-.635.179-1.328.181-1.972-.129-.336-.162-.637-.342-.875-.645-.165-.209-.298-.406-.306-.677-.003-.105-.048-.2-.085-.299-.188-.492-.275-1.012-.41-1.52-.15-.563-.157-1.16-.398-1.7a.527.527 0 01-.057-.219c.023-.724-.173-1.422-.26-2.133a3.971 3.971 0 00-.176-.801.499.499 0 00-.472-.348 2.321 2.321 0 00-1.151.233.892.892 0 01-.408.094c-.617-.008-1.208.131-1.794.306-.142.043-.3.027-.45.041-.463.043-.766.29-.974.705-.197.395-.157.85-.35 1.242-.151.311-.152.682-.37.968a.406.406 0 00-.1.261c.016.335-.123.625-.258.915-.058.123-.11.252-.094.382.044.378-.146.687-.271 1.015-.01.026-.037.051-.037.077.002.534-.303.99-.386 1.502-.11.676-.59 1.026-1.122 1.363-.592.375-1.228.373-1.864.282-.976-.138-1.723-1.067-1.774-1.98-.036-.647.085-1.266.241-1.901.192-.78.433-1.545.614-2.328.143-.623.37-1.229.571-1.838.155-.468.328-.93.24-1.439-.016-.093-.018-.196-.061-.275-.339-.61-.285-1.27-.22-1.919.048-.484.382-.833.723-1.153.151-.14.32-.261.509-.356.496-.251.757-.692.93-1.199.133-.393.333-.771.427-1.165.121-.507.42-.95.46-1.482.02-.261.207-.479.27-.74.2-.834.517-1.632.797-2.438.18-.52.383-1.044.563-1.565.18-.522.424-1.019.592-1.547.187-.586.39-1.17.599-1.752.277-.774.6-1.538.57-2.4-.02-.54-.015-1.087.17-1.626.255-.742.666-1.37 1.306-1.784.443-.283.996-.354 1.484-.27zm.115 16.097c-.011-.142.003-.29-.037-.423-.17-.579-.322-1.158-.315-1.768.002-.19-.086-.35-.28-.37-.206-.02-.35.143-.375.32-.036.257-.122.49-.209.73-.21.579-.406 1.164-.627 1.74-.17.441-.022.686.442.677.16-.002.323-.005.48-.027.747-.107.926-.282.92-.88zM11.271 19.94c0-.398.057-.807-.012-1.193-.119-.666-.06-1.35-.187-2a17.504 17.504 0 01-.334-3.432c0-.123.003-.247-.047-.365-.194-.465-.482-.551-.95-.328-.783.376-1.568.712-2.486.598-.816-.103-1.398-.466-1.788-1.193-.223-.416-.123-.85-.183-1.275-.09-.635.205-1.153.448-1.69.037-.08.114-.18.192-.2.569-.155.97-.602 1.51-.83.864-.364 1.741-.71 2.537-1.243.571-.384 1.244-.61 1.859-.934.785-.413 1.63-.697 2.407-1.13.475-.267.975-.499 1.486-.686.364-.134.769-.055 1.156-.055.59.001 1.036.316 1.463.683.934.8.85 1.82.566 2.842-.164.592-.655.944-1.182 1.259-.491.293-1.068.323-1.558.626-.253.157-.537.225-.692.52a1 1 0 00-.122.546 89.44 89.44 0 00.285 3.309c.067.621.219 1.228.237 1.859.02.746.134 1.488.286 2.221.033.157.036.32.035.482-.002 1.13.029 2.26-.024 3.387-.048 1.001-.214 1.995-.283 2.996-.046.666-.24 1.305-.301 1.96-.069.715-.28 1.394-.457 2.073-.234.898-.536 1.792-1.036 2.597-.124.199-.197.434-.338.617-.834 1.081-1.73 2.104-2.987 2.71a4.37 4.37 0 01-1.825.452c-.313.006-.626-.007-.937.003-.566.017-1.095-.156-1.637-.28-.741-.168-1.373-.56-2.025-.912-.271-.147-.52-.334-.804-.463-.186-.085-.223-.301-.354-.433-.246-.247-.495-.49-.763-.717-.184-.156-.275-.42-.416-.63-.395-.588-.776-1.185-1.013-1.856-.37-1.045-.605-2.12-.448-3.232.099-.697.543-1.203 1.141-1.54.676-.38 1.438-.27 2.133-.141.59.109 1.064.546 1.323 1.145.217.502.348 1.03.5 1.55.073.257.2.492.339.712.273.433.475.936.923 1.224.471.303.967.596 1.573.442a.988.988 0 00.618-.456c.095-.158.2-.295.368-.38.248-.126.321-.393.428-.612.326-.675.527-1.392.718-2.119.183-.692.159-1.423.44-2.091a.363.363 0 00.018-.14c-.02-1.424.184-2.835.2-4.256z" fill="#001DD1"/></svg>