<svg width="26" height="26" viewBox="0 0 26 26" fill="none" xmlns="http://www.w3.org/2000/svg">
<path d="M19.0429 3.12994C19.2097 3.12994 19.3395 3.13661 19.4679 3.12845C19.6997 3.11362 19.8828 3.25824 20.0936 3.31164C20.1469 3.32499 20.1861 3.37209 20.2053 3.42808C20.226 3.48927 20.2641 3.54304 20.3173 3.57122C20.6099 3.7266 20.6628 4.03439 20.7563 4.30064C20.9268 4.78605 20.9438 5.30781 21.0659 5.80842C21.1369 6.09952 21.1531 6.42066 21.2349 6.70879C21.3525 7.12264 21.2892 7.55206 21.4213 7.96405C21.503 8.21917 21.4656 8.51176 21.5522 8.77764C21.6901 9.20038 21.6953 9.64834 21.7493 10.0818C21.8114 10.5828 22.0074 11.0545 22.0119 11.5666C22.0141 11.8066 22.1006 12.048 22.1676 12.2838C22.209 12.4303 22.2009 12.5768 22.2127 12.7232C22.2316 12.9595 22.3266 13.0529 22.5622 13.0603C22.8066 13.0681 23.0293 12.988 23.26 12.9172C23.8114 12.7481 24.3684 12.6187 24.952 12.7956C25.5751 12.9847 25.9793 13.5061 25.9978 14.1632C26.0097 14.5855 25.9827 14.986 25.6668 15.3164C25.422 15.5723 25.1287 15.741 24.7985 15.8397C24.5237 15.9216 24.2512 16.0077 23.9808 16.1037C23.7859 16.1727 23.5862 16.2383 23.3836 16.2728C22.9601 16.3444 22.8107 16.5391 22.9231 16.9503C23.0496 17.4135 23.0966 17.8933 23.2208 18.3539C23.3074 18.6754 23.3248 18.9965 23.3481 19.321C23.3577 19.4538 23.4069 19.575 23.4538 19.6926C23.5637 19.9688 23.5226 20.2692 23.5995 20.544C23.6864 20.8555 23.7086 21.1681 23.6735 21.4774C23.5977 22.1475 23.3688 22.6002 22.7016 22.7879C22.2892 22.9039 21.8388 22.9058 21.4202 22.7041C21.202 22.5988 21.0063 22.4819 20.8514 22.285C20.7441 22.1489 20.6576 22.0206 20.6524 21.8445C20.6506 21.7763 20.6213 21.7143 20.5969 21.6505C20.4749 21.3305 20.4187 20.9923 20.331 20.6627C20.2338 20.2963 20.2286 19.9088 20.0722 19.5569C20.0526 19.5127 20.0333 19.4623 20.0348 19.4152C20.0496 18.9442 19.9227 18.4904 19.8665 18.0283C19.8451 17.8525 19.8088 17.6749 19.7515 17.5077C19.7064 17.3753 19.6014 17.2911 19.4446 17.2815C19.1805 17.2655 18.9312 17.3211 18.6964 17.4328C18.6084 17.4747 18.5233 17.4958 18.4316 17.4943C18.0304 17.4891 17.6465 17.5796 17.2652 17.6934C17.1731 17.7209 17.0699 17.7105 16.9723 17.7198C16.672 17.7476 16.4749 17.9078 16.3399 18.1777C16.2116 18.4351 16.2375 18.7299 16.1125 18.9854C16.0137 19.1875 16.0133 19.4285 15.8721 19.6147C15.834 19.6651 15.8036 19.7208 15.8066 19.7842C15.8173 20.0018 15.7271 20.1906 15.6387 20.379C15.601 20.4591 15.5681 20.5429 15.5781 20.6274C15.6065 20.8729 15.4826 21.0735 15.4017 21.2871C15.395 21.3042 15.378 21.3201 15.378 21.3368C15.3791 21.6843 15.1809 21.9806 15.1269 22.3132C15.0559 22.753 14.7437 22.9803 14.3976 23.1995C14.013 23.4428 13.5995 23.4416 13.1857 23.3827C12.5518 23.2926 12.0658 22.6889 12.0329 22.0955C12.0096 21.675 12.088 21.2727 12.1897 20.8596C12.3144 20.3534 12.4712 19.8557 12.5884 19.347C12.6816 18.9417 12.8288 18.5482 12.9597 18.1522C13.0603 17.8477 13.1727 17.547 13.1154 17.2169C13.105 17.1565 13.1043 17.089 13.0758 17.0378C12.8558 16.6414 12.8906 16.2124 12.9327 15.7907C12.9641 15.4759 13.1812 15.249 13.4031 15.0413C13.5011 14.9497 13.611 14.8714 13.7337 14.8095C14.0562 14.6464 14.226 14.3601 14.338 14.0304C14.4249 13.7749 14.5551 13.5291 14.6161 13.2728C14.6945 12.9435 14.8887 12.6554 14.9153 12.3101C14.9283 12.1399 15.0496 11.9986 15.0906 11.8284C15.2208 11.287 15.4264 10.7679 15.6084 10.2443C15.726 9.90607 15.8576 9.56528 15.9741 9.22708C16.091 8.8874 16.2497 8.56479 16.3591 8.22103C16.4804 7.84056 16.6132 7.46046 16.7486 7.08259C16.9287 6.57938 17.1383 6.08284 17.1187 5.52215C17.1065 5.17097 17.1095 4.81572 17.2297 4.46529C17.3954 3.98321 17.6624 3.5753 18.0788 3.30571C18.3665 3.12215 18.726 3.07617 19.0429 3.12994ZM19.1176 13.5928C19.1106 13.5009 19.1195 13.4041 19.094 13.3177C18.983 12.9417 18.8843 12.5653 18.8887 12.1689C18.8902 12.0457 18.8329 11.9408 18.7071 11.9282C18.5729 11.9148 18.479 12.0213 18.4631 12.1362C18.4398 12.3035 18.3839 12.4551 18.3277 12.6101C18.1909 12.9869 18.0636 13.3674 17.9198 13.7415C17.8096 14.0286 17.9057 14.1876 18.2071 14.1821C18.3114 14.1802 18.4168 14.1784 18.5196 14.1639C19.0048 14.0949 19.121 13.9811 19.1176 13.5928Z" fill="#D9D9D9"/>
<path d="M7.00149 12.9615C7.00149 12.7023 7.0381 12.4368 6.99335 12.1857C6.91606 11.753 6.95489 11.3083 6.87168 10.8856C6.72671 10.1458 6.65237 9.40563 6.65459 8.65471C6.65496 8.57498 6.65644 8.49414 6.62427 8.41775C6.49779 8.11515 6.31066 8.05916 6.00703 8.20452C5.49779 8.44852 4.98743 8.66731 4.3909 8.59278C3.86058 8.5264 3.48225 8.29055 3.22855 7.81738C3.08358 7.54704 3.1483 7.26484 3.10947 6.98895C3.0514 6.57622 3.24297 6.23951 3.40089 5.89056C3.42493 5.8379 3.47522 5.77338 3.52552 5.76003C3.89534 5.6599 4.1557 5.3688 4.50666 5.22121C5.06842 4.98463 5.63906 4.75953 6.15607 4.41281C6.52737 4.16361 6.96488 4.01639 7.36428 3.80614C7.87501 3.53729 8.42383 3.35298 8.92901 3.07078C9.23781 2.89798 9.56288 2.74705 9.89462 2.62542C10.1313 2.53865 10.3946 2.58945 10.6461 2.58982C11.0292 2.59056 11.3199 2.79526 11.5973 3.03333C12.2042 3.55397 12.1498 4.21627 11.9653 4.88079C11.8584 5.26571 11.5396 5.49451 11.1968 5.69921C10.8776 5.88944 10.503 5.90947 10.1842 6.10638C10.0196 6.20799 9.83507 6.25248 9.73411 6.44457C9.67346 6.56027 9.64683 6.67671 9.65534 6.79945C9.70638 7.51701 9.76259 8.23419 9.84025 8.94988C9.88389 9.35371 9.98263 9.7479 9.9941 10.158C10.0078 10.6431 10.0814 11.1252 10.1805 11.602C10.2016 11.7036 10.2034 11.8104 10.203 11.915C10.2019 12.6493 10.2219 13.3846 10.1871 14.117C10.1565 14.7674 10.0481 15.4138 10.0033 16.0642C9.97339 16.497 9.84802 16.9123 9.80771 17.3376C9.76333 17.803 9.62539 18.2443 9.51074 18.6856C9.35874 19.2693 9.16237 19.8507 8.83766 20.3736C8.75704 20.503 8.7097 20.6558 8.61762 20.7748C8.07545 21.4776 7.49261 22.1424 6.67604 22.5366C6.30622 22.7154 5.90681 22.8222 5.48965 22.83C5.28662 22.8337 5.08321 22.8255 4.88055 22.8318C4.51295 22.8433 4.16938 22.7306 3.81694 22.6505C3.33506 22.5411 2.92418 22.286 2.50074 22.0572C2.32433 21.9618 2.16198 21.8402 1.97781 21.756C1.85724 21.7008 1.83321 21.5602 1.74778 21.4746C1.58764 21.3144 1.4264 21.156 1.25221 21.0088C1.13239 20.9076 1.07322 20.7359 0.981502 20.5991C0.724845 20.2171 0.477063 19.8292 0.322847 19.3931C0.0828314 18.7138 -0.0699057 18.0151 0.0321656 17.2924C0.0961451 16.8392 0.384977 16.5099 0.773662 16.2912C1.21301 16.0442 1.70821 16.1158 2.16013 16.1992C2.54327 16.27 2.8517 16.5541 3.01997 16.9438C3.16087 17.2698 3.2463 17.6128 3.3443 17.9517C3.39238 18.1182 3.47448 18.271 3.56509 18.4141C3.74297 18.6956 3.87389 19.0227 4.16494 19.2096C4.47153 19.4065 4.79364 19.5971 5.18787 19.497C5.36058 19.4532 5.49668 19.352 5.58913 19.2003C5.65126 19.0979 5.71894 19.0086 5.82878 18.953C5.99002 18.8717 6.03736 18.6982 6.10651 18.5554C6.31842 18.1171 6.44897 17.6506 6.5736 17.1785C6.69232 16.7287 6.67678 16.2533 6.85911 15.8191C6.87057 15.7917 6.87131 15.7583 6.87094 15.7279C6.85874 14.8027 6.99076 13.8852 7.00149 12.9615Z" fill="#D9D9D9"/>
</svg>
