<svg width="26" height="26" viewBox="0 0 26 26" fill="none" xmlns="http://www.w3.org/2000/svg">
<g clip-path="url(#clip0)">
<path d="M14.8568 10.2925L21.9139 10.3371C22.1165 10.3422 22.3138 10.4025 22.4847 10.5114C22.6555 10.6203 22.7935 10.7737 22.8836 10.9552C22.9738 11.1366 23.0127 11.3392 22.9963 11.5412C22.9799 11.7432 22.9088 11.9368 22.7905 12.1013L12.3756 26.0262C10.8049 24.8444 9.76652 23.0883 9.48804 21.1424C9.20956 19.1966 9.71367 17.2197 10.8899 15.6448L14.8568 10.2925Z" fill="url(#paint0_linear)"/>
<path d="M10.868 15.641L3.83687 15.6001C3.63526 15.593 3.43937 15.5314 3.27007 15.4217C3.10078 15.312 2.96444 15.1584 2.8756 14.9773C2.78676 14.7961 2.74875 14.5943 2.76563 14.3933C2.78251 14.1923 2.85364 13.9996 2.97144 13.8358L13.3009 0.026123C14.0813 0.611443 14.7388 1.34475 15.2358 2.18417C15.7329 3.02359 16.0597 3.95269 16.1976 4.91842C16.3356 5.88415 16.282 6.8676 16.0399 7.81261C15.7978 8.75762 15.3719 9.6457 14.7866 10.4261L10.868 15.641Z" fill="#2684FF"/>
</g>
<defs>
<linearGradient id="paint0_linear" x1="14.589" y1="11.3388" x2="17.565" y2="20.3271" gradientUnits="userSpaceOnUse">
<stop stop-color="#0052CC"/>
<stop offset="1" stop-color="#2684FF"/>
</linearGradient>
<clipPath id="clip0">
<rect width="26" height="26" fill="white"/>
</clipPath>
</defs>
</svg>
