<svg width="52" height="40" viewBox="0 0 52 40" fill="none" xmlns="http://www.w3.org/2000/svg">
<path fill-rule="evenodd" clip-rule="evenodd" d="M36.0046 24.7258C37.3387 24.7286 38.6728 24.7299 40.0148 24.7305L46.1332 24.7306C45.8189 25.2687 45.5704 25.7393 45.2815 26.1818C42.5114 30.4252 38.8053 33.5582 34.4256 35.8781C30.6853 37.8594 26.6958 38.9931 22.553 39.6658C17.9676 40.4103 13.5293 39.9075 9.22303 38.1918C6.04288 36.9249 3.41307 34.9159 1.70529 31.7838C0.697706 29.9358 0.193693 27.934 0 25.6993C0.252201 26.2381 0.433614 26.6676 0.648477 27.0783C2.63452 30.8748 5.74961 33.1275 9.7551 34.154C12.4272 34.8388 15.1394 34.7911 17.8471 34.5304C21.118 34.2157 24.2817 33.4159 27.2839 32.0097C30.6416 30.4369 33.4857 28.2136 35.5261 24.9903C35.6469 24.7995 35.7817 24.7254 36.0046 24.7258ZM18.3889 11.8802C20.2593 11.2841 22.1916 11.1919 24.0947 11.7435C27.1294 12.6231 28.3461 15.2983 27.1265 18.3001C26.0878 20.8568 23.4803 22.5933 20.8035 22.5128C20.3543 22.4993 19.9495 22.3969 19.769 21.9101C19.6618 21.6212 19.5374 21.8343 19.4456 21.8927C18.7137 22.3582 17.9255 22.554 17.0646 22.5173C15.5866 22.4543 14.6033 21.3217 14.7446 19.8075C14.9631 17.4678 17.0072 15.0362 19.2401 14.5612C20.2988 14.336 21.3773 14.2914 22.1795 15.4481C22.2615 14.554 22.8223 14.6344 23.3975 14.6172C23.7921 14.6055 24.2529 14.6055 24.6503 14.6055C24.5793 14.8282 24.4932 15.02 24.4194 15.1957C23.7578 16.7723 23.0863 18.3444 22.4205 19.9191C22.3357 20.1195 22.2624 20.3254 22.1918 20.5317C22.0689 20.8909 22.2489 20.9978 22.5575 20.9734C22.6529 20.9659 22.7509 20.9325 22.8384 20.8904C24.5409 20.0728 25.7109 18.7913 26.03 16.8305C26.2622 15.4028 25.6617 14.1877 24.4334 13.4844C23.2908 12.83 22.0396 12.7332 20.7707 12.8069C18.5687 12.9347 16.6123 13.6712 15.1125 15.4119C14.0331 16.6647 13.3221 18.1194 13.2243 19.816C13.1353 21.3577 13.8395 22.9801 15.6225 23.7238C17.2448 24.4005 18.9373 24.4449 20.639 24.2744C22.2414 24.1139 23.7601 23.6026 25.0109 22.4919C25.0642 22.4446 25.1588 22.3917 25.1588 22.3917C25.1588 22.3917 25.282 22.3866 25.3501 22.3872C25.6334 22.3893 25.9168 22.3894 26.225 22.3891L26.8822 22.3886C26.0668 23.5026 25.096 24.2166 23.9818 24.7321C22.0738 25.6146 20.0616 25.8463 17.9967 25.702C16.8355 25.6209 15.7004 25.4147 14.6181 24.9407C12.4126 23.9747 11.4502 21.9717 11.757 19.6725C12.2996 15.6075 14.6558 13.0699 18.3889 11.8802ZM9.5003 9.81242C10.2669 9.85051 11.0366 9.82097 11.805 9.82487C12.3308 9.82745 12.44 9.96387 12.3346 10.5096C11.8977 12.7707 11.4566 15.0309 11.0147 17.2908C10.8598 18.0826 10.7415 18.8855 10.5312 19.6615C9.82357 22.2729 7.77001 23.8146 5.05298 23.8188C3.33402 23.7722 1.82704 23.313 0.924581 21.6188C0.734166 21.2614 0.706496 21.0544 1.12044 20.8453C1.73464 20.535 2.31533 20.153 2.90491 19.7921C3.22328 19.5972 3.45843 19.66 3.6235 19.998C4.01533 20.8003 4.66998 21.0576 5.49615 20.9744C6.28231 20.8952 6.78816 20.4459 7.04747 19.6993C7.4518 18.5353 7.58726 17.3058 7.82902 16.1029C8.21679 14.1727 8.58279 12.2377 8.94239 10.3016C9.00701 9.95383 9.11514 9.79331 9.5003 9.81242ZM43.1068 11.2189C45.1286 9.72775 47.3797 9.16733 49.8349 9.83417C50.7228 10.0753 51.4629 10.5907 52.1026 11.273C52.3067 11.4908 52.2851 11.5989 52.071 11.784C51.4822 12.2925 50.9144 12.8267 50.3385 13.3509C50.2196 13.459 50.1194 13.6149 49.9482 13.4016C48.5913 11.7116 45.9228 12.2042 44.5773 13.8156C43.3692 15.2624 42.8893 16.9571 43.1774 18.843C43.4228 20.4501 44.8477 21.2965 46.5733 20.9295C47.321 20.7705 47.9952 20.4475 48.6129 19.9877C49.0943 19.6293 49.1981 19.6513 49.5643 20.152C49.8498 20.5424 50.1207 20.9454 50.4249 21.3195C50.608 21.5446 50.6287 21.6713 50.3843 21.879C48.9034 23.1377 47.213 23.7891 45.2134 23.8148C43.6522 23.7594 42.1256 23.3766 40.9218 22.1142C39.9327 21.0768 39.5372 19.7788 39.5735 18.3766C39.6498 15.4295 40.748 12.9586 43.1068 11.2189ZM31.4654 9.81205C32.199 9.85393 32.9365 9.82106 33.6724 9.82438C34.2082 9.82679 34.3208 9.96275 34.2179 10.4974C33.5911 13.7531 32.968 17.0095 32.3241 20.2616C32.2425 20.6738 32.2812 20.8196 32.7341 20.8118C34.2709 20.7853 35.8084 20.8006 37.3456 20.8022C37.9463 20.8028 38.0661 20.9551 37.9499 21.5642C37.8489 22.0933 37.7334 22.6197 37.6457 23.151C37.5964 23.449 37.4762 23.5593 37.1658 23.555C35.7923 23.5356 34.4185 23.5465 33.0449 23.5465C31.6876 23.5465 30.3303 23.5484 28.973 23.5457C28.408 23.5445 28.3092 23.4169 28.4174 22.853C29.2164 18.6895 30.0205 14.5271 30.8069 10.361C30.886 9.94204 31.0371 9.78755 31.4654 9.81205ZM20.0243 15.8119C19.6711 15.8142 19.3442 15.91 19.0472 16.0929C17.6582 16.9481 17.0153 18.2842 16.8804 19.885C16.8037 20.7943 17.4652 21.3024 18.3447 21.124C19.7478 20.8394 21.2676 18.7643 21.2827 17.1123C21.2907 16.2437 20.8629 15.8067 20.0243 15.8119ZM25.6254 0.467681C30.5816 -0.405733 35.4272 -0.16634 40.0378 2.135C42.5488 3.38835 44.6824 5.1404 46.3826 7.43514C46.6185 7.7537 46.828 8.09326 47.1137 8.51818H40.5311C39.3537 8.51818 38.1762 8.51124 36.999 8.52376C36.7446 8.52638 36.5922 8.45582 36.4458 8.22388C34.6703 5.41198 32.0765 3.89525 28.953 3.25245C25.3714 2.5154 21.829 2.92741 18.3064 3.70491C16.0847 4.19522 13.9188 4.88523 11.7909 5.70449C11.7025 5.73857 11.6206 5.81355 11.4459 5.72583C12.0432 5.4168 12.5967 5.12463 13.155 4.84267C17.1308 2.83493 21.2448 1.23973 25.6254 0.467681Z" fill="#2B8CED"/>
</svg>
