<svg fill="none" xmlns="http://www.w3.org/2000/svg" viewBox="0 0 93 22"><path d="M39.9 8.8l-.6 2.1.6-2zM43 13.4h-.7.6zM42.8 16.5h-4 4zM43.6 13.4h-.7.7zM43.1 16.3l.7-2.6-.7 2.6zM57.6 4.3l-1.3 6 1.3-6zM54.3 4.3l-1 4.4 1-4.4z" fill="#131B28"/><path d="M57.3 4h-2.7c-.1 0-.3.1-.3.3l-1 4.4-1 4.5c0 .1-.1.3-.3.3H50.1c-2 0-1.7-1.4-1.3-3.2V10l.1-.5.1-.5.1-.6.5-2.1.4-2.1c0-.2 0-.3-.2-.3H47c-.1 0-.3.1-.3.3L46 7l-.6 2.9v.2c-.8 3.2-.6 6.2 3.2 6.3h6c.1 0 .3-.1.3-.3l1.3-6 1.3-6s-.1-.2-.3-.2zM68.2 13.5c.1 0 .2.1.2.3l-.3 1.3M67.9 16.3l.3-1.2-.3 1.2zM67.6 16.6h-5 5zM61 11.8c0-.1 0-.4.2-.4H61c-.2 1.6 0 .4 0 .4z" fill="#131B28"/><path d="M68.2 13.5c.1 0 .2.1.2.3l-.3 1.3v.2M64 16.6h-.6.7zM67.6 16.6zM67.9 16.3l.2-1-.2 1zM23.1 11.9l.4-2-.4 2.2-.5 2.2.4-1.9.1-.5zM28.2 4h-3c-.2 0-.3 0-.3.2l-.3 1.3-.3 1.2c0 .2 0 .3.2.3h3c.2 0 .3-.1.4-.3l.2-1.2.3-1.3c0-.1 0-.2-.2-.2zM27.5 8.1l-.8 4 .8-4zM18.9 21.6zM24 8.1l-.5 1.9L24 8z" fill="#131B28"/><path d="M27.3 7.8h-3l-.3.3-.5 1.9-.4 1.9v.5l-.5 2-.4 1.8-.1.6s-.6 1.6-1.6 1.6h-.9c-.1 0-.3.1-.3.3L19 20l-.4 1.3c0 .1.1.3.3.3h2.4c2.4 0 3.6-1.3 4.4-5.1l1-4.3.8-4c0-.2 0-.4-.2-.4zM70.1 16.5a.2.2 0 01-.2-.3l2.3-10.6M73.3 16.2l.9-4.5-1 4.5z" fill="#131B28"/><path d="M70 16.4V16l1-5-1.1 5.2c0 .2 0 .3.2.3h.3l-.5-.1zM73 16.4h-.3.2c.2 0 .3 0 .4-.2V16l-.2.4zM73.7 14l.4-2-.4 2zM82.7 6.3v.5c.1.2 0 .3-.1.3M73.3 16l.4-2-.4 2zM82.5 5.8l.2.5-.2-.5zM74.1 12l.1-.6.5-2-.5 2.3v.3zM72.2 5.4V6l-1.2 5 1.2-5.3v-.2z" fill="#131B28"/><path d="M82.8 6.8l-.1-.5-.2-.5v-.3c-.3-1-1-1.5-2.5-1.5h-7.2c-.2 0-.3.1-.4.3v.5l-.2.6v.2L71 11l-1 5v.5H73l.2-.4.4-2 .4-2v-.3l.6-2.3.4-2c0-.2.2-.3.3-.3h7.2c.1 0 .2-.1.2-.3z" fill="#131B28"/><path d="M92 2.2H89c-.1 0-.3 0-.4.2l-5 7.4h-.3L83.1 8l-.4-.2h-3.2c-.2 0-.3 0-.2.2l1.4 5.1v.6l-.6 2.4c0 .2 0 .3.2.3h3.2c.2 0 .3-.1.4-.3l.6-2.4.2-.5 8.3-11-.2-.1H92zM66.2 8.6l-.4.2h-4c-.2 0-.3 0-.3-.2.4-1.1 1.2-1.8 2.8-1.8 1.6 0 2 .8 1.9 1.8zM65 3.8c-5.3 0-6.6 3.2-7.3 6.5-.7 3.3-.6 6.3 4.8 6.3h5.1l.3-.2.2-1.1V15l.3-1.3c0-.2 0-.3-.2-.3h-5c-1.9 0-2.5-.5-2.3-2h8a.3.3 0 00.2-.3c1.2-4.4.9-7.4-4.1-7.4zM40 8.5l-.1.3-.6 2.1-.6 2.1c0 .2-.2.3-.4.3h-3.1c-2.4 0-3-1.9-2.4-4.6.6-2.8 1.7-4.6 4-4.8 3.3-.2 4 2 3.2 4.6zm2.1 4.6s1.5-3.6 1.8-5.7c.5-2.7-.9-6.8-6.3-6.8-5.3 0-7.7 3.9-8.5 8-1 4.3.2 8 5.6 8h8.1l.3-.3.7-2.6c0-.2 0-.3-.2-.3H42.3l-.2-.2z" fill="#131B28"/><path d="M68.6 10.7a.2.2 0 11-.4 0 .2.2 0 01.4 0z" fill="#131B28"/><path d="M1.3 6C-.2 8.2 0 11 1 13.2v.1l.1.1.1.2.1.2.2.3.2.3a8.4 8.4 0 00.7.9 10.8 10.8 0 00.5.5c.2 0 .2.2.3.2l.3.3.2.2H4l.2.2h.1l.2.2h.1l.3.2H5l.2.2h.2l.1.1.1.1.3.1.3.2h.1l.3.1.4.1.4.1c7.1 1.3 9.2-4.3 9.2-4.3-1.8 2.3-4.9 3-7.8 2.2h-.3-.1l-.3-.2h-.3l-.1-.1-.3-.1-.3-.2h-.1l-.2-.1-.1-.1-.3-.1-.3-.3h-.1l-.2-.2h-.1l-.2-.2h-.1l-.2-.2-.3-.2a11.4 11.4 0 01-.5-.5l-.3-.3a8.7 8.7 0 01-.7-.8 7.5 7.5 0 01-.9-7.8" fill="#0868AC"/><path d="M5.8 4.2c-1 1.6-1 3.6-.1 5.3l.4.8.6.6.2.3.3.3.3.2h.1l.3.3H8l.1.1.2.2.3.1.2.1.3.1.3.2h.3v.1l.4.1c5.5 1 6.8-3.3 6.8-3.3-1.2 1.6-3.4 2.4-5.8 1.8a6.8 6.8 0 01-.6-.2l-.3-.1-.4-.2h-.1l-.1-.1-.2-.1-.2-.2H9a8.6 8.6 0 01-.5-.3c-1-.9-1.9-2-2.3-3.3a5 5 0 01.4-4" fill="#0868AC"/><path d="M9.7 3c-.6.8-.7 2-.3 3C10 7 11 8 12 8.4H12.4c3 .7 4-1.5 4.1-1.8-.7 1-1.9 1.3-3.4 1a3.9 3.9 0 01-.8-.4l-.7-.4c-1.4-1-2.2-3-1.3-4.5" fill="#0868AC"/></svg>