<svg width="26" height="26" viewBox="0 0 26 26" fill="none" xmlns="http://www.w3.org/2000/svg">
<path d="M0 0H26V26H0V0Z" fill="#F7DF1E"/>
<path d="M6.83594 21.7273L8.82602 20.5237C9.20952 21.2041 9.55944 21.7804 10.3969 21.7804C11.1996 21.7804 11.7055 21.4662 11.7055 20.2442V11.9361H14.1495V20.2778C14.1495 22.8096 12.6654 23.9611 10.5019 23.9611C8.54652 23.9611 7.41227 22.9493 6.83594 21.7273ZM15.4766 21.4651L17.4656 20.3136C17.9899 21.1694 18.6703 21.7977 19.8739 21.7977C20.8868 21.7977 21.5314 21.2907 21.5314 20.5931C21.5314 19.7556 20.8694 19.4588 19.7525 18.9702L19.1415 18.7081C17.3789 17.9573 16.2089 17.0148 16.2089 15.0247C16.2089 13.1939 17.6064 11.7964 19.7872 11.7964C21.3407 11.7964 22.4576 12.3381 23.2604 13.7518L21.358 14.9738C20.9388 14.2231 20.4849 13.9262 19.7872 13.9262C19.0722 13.9262 18.6172 14.3801 18.6172 14.9738C18.6172 15.7061 19.0722 16.003 20.1187 16.458L20.7297 16.718C22.8064 17.6085 23.9754 18.5163 23.9754 20.5584C23.9754 22.7576 22.2474 23.9611 19.9269 23.9611C17.6574 23.9611 16.1916 22.88 15.4766 21.4662" fill="black"/>
</svg>
