<svg width="144" height="64" viewBox="0 0 144 64" fill="none" xmlns="http://www.w3.org/2000/svg">
<g clip-path="url(#clip0)">
<path d="M45.4351 39.0377L40.3618 32.2342V38.677C40.3618 39.1739 40.1699 39.5988 39.7869 39.9511C39.4035 40.3036 38.9287 40.4801 38.3625 40.4801C37.796 40.4801 37.3213 40.3036 36.9378 39.9511C36.5545 39.5988 36.3633 39.1739 36.3633 38.677V24.974C36.3633 24.4773 36.5545 24.0525 36.9378 23.6998C37.3213 23.3474 37.796 23.1709 38.3625 23.1709C38.9287 23.1709 39.4035 23.3474 39.7869 23.6998C40.1699 24.0525 40.3618 24.4773 40.3618 24.974V30.7436L45.3851 24.2528C45.9478 23.5313 46.5932 23.1709 47.3217 23.1709C47.8843 23.1709 48.3149 23.3184 48.614 23.6133C48.913 23.9085 49.0627 24.2792 49.0627 24.7256C49.0627 25.22 48.896 25.6661 48.5629 26.0648L44.3026 31.167L49.165 37.4399C49.4315 37.7589 49.5648 38.1421 49.5648 38.5888C49.5648 39.0998 49.3948 39.543 49.0541 39.9179C48.7134 40.2923 48.2614 40.4801 47.6978 40.4801C47.2669 40.4801 46.8809 40.372 46.5412 40.1556C46.2015 39.9391 45.8324 39.5666 45.4351 39.0377Z" fill="#101113"/>
<path d="M54.1816 24.974C54.1816 24.4773 54.3728 24.0525 54.7565 23.6998C55.1395 23.3474 55.6143 23.1709 56.1808 23.1709C56.7471 23.1709 57.2219 23.3474 57.6055 23.6998C57.9886 24.0525 58.1801 24.4773 58.1801 24.974V38.6773C58.1801 39.1742 57.9886 39.599 57.6055 39.9515C57.2219 40.3036 56.7471 40.4804 56.1808 40.4804C55.6143 40.4804 55.1395 40.3036 54.7565 39.9515C54.3728 39.599 54.1816 39.1742 54.1816 38.6773V24.974Z" fill="#101113"/>
<path d="M75.1742 27.2339C74.8906 27.2339 74.5658 27.1701 74.1995 27.0416C73.5831 26.8335 72.8914 26.7292 72.1252 26.7292C70.709 26.7292 69.5385 27.1778 68.6141 28.0752C67.6894 28.9731 67.2271 30.2232 67.2271 31.8257C67.2271 33.3163 67.7183 34.5384 68.7014 35.4918C69.6844 36.4455 70.9588 36.9224 72.525 36.9224C73.2413 36.9224 73.9079 36.8103 74.5243 36.5858C74.9244 36.4256 75.3155 36.3452 75.6992 36.3452C76.3652 36.3452 76.8486 36.626 77.1487 37.1868C77.2983 37.4754 77.3734 37.7559 77.3734 38.0281C77.3734 38.7337 76.9649 39.2865 76.1488 39.6869C75.0326 40.2479 73.6996 40.5285 72.1503 40.5285C69.4343 40.5285 67.2271 39.7314 65.5275 38.1365C63.8282 36.5418 62.9785 34.4381 62.9785 31.8257C62.9785 29.2936 63.778 27.2098 65.3775 25.5751C66.9769 23.9402 69.2263 23.123 72.1252 23.123C73.558 23.123 74.7242 23.3475 75.6242 23.7962C76.5068 24.2449 76.9485 24.7979 76.9485 25.455C76.9485 25.7594 76.8651 26.0641 76.6987 26.3685C76.3488 26.9453 75.8405 27.2339 75.1742 27.2339Z" fill="#101113"/>
<path d="M90.5182 39.0377L85.4448 32.2342V38.677C85.4448 39.1739 85.2529 39.5988 84.8699 39.9511C84.4866 40.3036 84.0117 40.4801 83.4455 40.4801C82.879 40.4801 82.4043 40.3036 82.0209 39.9511C81.6375 39.5988 81.4463 39.1739 81.4463 38.677V24.974C81.4463 24.4773 81.6375 24.0525 82.0209 23.6998C82.4043 23.3474 82.879 23.1709 83.4455 23.1709C84.0117 23.1709 84.4866 23.3474 84.8699 23.6998C85.2529 24.0525 85.4448 24.4773 85.4448 24.974V30.7436L90.468 24.2528C91.0308 23.5313 91.6761 23.1709 92.4047 23.1709C92.9675 23.1709 93.3977 23.3184 93.6971 23.6133C93.9964 23.9085 94.1461 24.2792 94.1461 24.7256C94.1461 25.22 93.9794 25.6661 93.646 26.0648L89.3856 31.167L94.2483 37.4399C94.5144 37.7589 94.648 38.1421 94.648 38.5888C94.648 39.0998 94.4777 39.543 94.1371 39.9179C93.7966 40.2923 93.344 40.4801 92.7811 40.4801C92.35 40.4801 91.9638 40.372 91.6241 40.1556C91.2844 39.9391 90.9152 39.5666 90.5182 39.0377Z" fill="#101113"/>
<path d="M99.2656 24.974C99.2656 24.4773 99.4574 24.0525 99.841 23.6998C100.224 23.3474 100.699 23.1709 101.265 23.1709C101.832 23.1709 102.307 23.3474 102.69 23.6998C103.073 24.0525 103.265 24.4773 103.265 24.974V38.6773C103.265 39.1742 103.073 39.599 102.69 39.9515C102.307 40.3036 101.832 40.4804 101.265 40.4804C100.699 40.4804 100.224 40.3036 99.841 39.9515C99.4574 39.599 99.2656 39.1742 99.2656 38.6773V24.974Z" fill="#101113"/>
<path fill-rule="evenodd" clip-rule="evenodd" d="M99.2656 24.974C99.2656 24.4773 99.4574 24.0525 99.841 23.6998C100.224 23.3474 100.699 23.1709 101.265 23.1709C101.832 23.1709 102.307 23.3474 102.69 23.6998C103.073 24.0525 103.265 24.4773 103.265 24.974V38.6773C103.265 39.1742 103.073 39.599 102.69 39.9515C102.307 40.3036 101.832 40.4804 101.265 40.4804C100.699 40.4804 100.224 40.3036 99.841 39.9515C99.4574 39.599 99.2656 39.1742 99.2656 38.6773V24.974Z" fill="#E47D32"/>
<path d="M120.257 27.2339C119.974 27.2339 119.65 27.1701 119.283 27.0416C118.667 26.8335 117.975 26.7292 117.208 26.7292C115.792 26.7292 114.622 27.1778 113.697 28.0752C112.773 28.9731 112.311 30.2232 112.311 31.8257C112.311 33.3163 112.802 34.5384 113.785 35.4918C114.768 36.4455 116.042 36.9224 117.608 36.9224C118.325 36.9224 118.991 36.8103 119.608 36.5858C120.008 36.4256 120.399 36.3452 120.783 36.3452C121.448 36.3452 121.932 36.626 122.232 37.1868C122.381 37.4754 122.457 37.7559 122.457 38.0281C122.457 38.7337 122.048 39.2865 121.232 39.6869C120.116 40.2479 118.783 40.5285 117.234 40.5285C114.518 40.5285 112.311 39.7314 110.611 38.1365C108.911 36.5418 108.062 34.4381 108.062 31.8257C108.062 29.2936 108.862 27.2098 110.461 25.5751C112.06 23.9402 114.31 23.123 117.208 23.123C118.641 23.123 119.807 23.3475 120.707 23.7962C121.59 24.2449 122.032 24.7979 122.032 25.455C122.032 25.7594 121.949 26.0641 121.782 26.3685C121.432 26.9453 120.923 27.2339 120.257 27.2339Z" fill="#101113"/>
<path fill-rule="evenodd" clip-rule="evenodd" d="M120.257 27.2339C119.974 27.2339 119.65 27.1701 119.283 27.0416C118.667 26.8335 117.975 26.7292 117.208 26.7292C115.792 26.7292 114.622 27.1778 113.697 28.0752C112.773 28.9731 112.311 30.2232 112.311 31.8257C112.311 33.3163 112.802 34.5384 113.785 35.4918C114.768 36.4455 116.042 36.9224 117.608 36.9224C118.325 36.9224 118.991 36.8103 119.608 36.5858C120.008 36.4256 120.399 36.3452 120.783 36.3452C121.448 36.3452 121.932 36.626 122.232 37.1868C122.381 37.4754 122.457 37.7559 122.457 38.0281C122.457 38.7337 122.048 39.2865 121.232 39.6869C120.116 40.2479 118.783 40.5285 117.234 40.5285C114.518 40.5285 112.311 39.7314 110.611 38.1365C108.911 36.5418 108.062 34.4381 108.062 31.8257C108.062 29.2936 108.862 27.2098 110.461 25.5751C112.06 23.9402 114.31 23.123 117.208 23.123C118.641 23.123 119.807 23.3475 120.707 23.7962C121.59 24.2449 122.032 24.7979 122.032 25.455C122.032 25.7594 121.949 26.0641 121.782 26.3685C121.432 26.9453 120.923 27.2339 120.257 27.2339Z" fill="#E47D32"/>
<path fill-rule="evenodd" clip-rule="evenodd" d="M127.142 38.1486C128.883 39.7351 131.112 40.5285 133.828 40.5285C136.51 40.5285 138.729 39.711 140.488 38.0764C142.245 36.4415 143.124 34.3585 143.124 31.8259C143.124 29.1973 142.253 27.0899 140.513 25.503C138.771 23.9164 136.543 23.123 133.828 23.123C131.079 23.123 128.842 23.9526 127.118 25.6113C125.393 27.2701 124.531 29.3416 124.531 31.8259C124.531 34.4544 125.401 36.5619 127.142 38.1486ZM130.203 28.1355C131.153 27.198 132.362 26.7292 133.828 26.7292C135.26 26.7292 136.46 27.202 137.426 28.1476C138.392 29.0933 138.875 30.3194 138.875 31.8259C138.875 33.3163 138.434 34.5387 137.552 35.4921C136.668 36.4458 135.427 36.9223 133.828 36.9223C132.428 36.9223 131.237 36.4337 130.254 35.4558C129.27 34.4787 128.779 33.2682 128.779 31.8259C128.779 30.3034 129.254 29.0732 130.203 28.1355Z" fill="#101113"/>
<path fill-rule="evenodd" clip-rule="evenodd" d="M133.828 26.7292C132.362 26.7292 131.153 27.198 130.203 28.1355C129.254 29.0732 128.779 30.3034 128.779 31.8259C128.779 33.2682 129.27 34.4787 130.254 35.4558C131.237 36.4337 132.428 36.9223 133.828 36.9223C135.427 36.9223 136.668 36.4458 137.552 35.4921C138.434 34.5387 138.875 33.3163 138.875 31.8259C138.875 30.3194 138.392 29.0933 137.426 28.1476C136.46 27.202 135.26 26.7292 133.828 26.7292ZM133.828 40.5285C131.112 40.5285 128.883 39.7351 127.142 38.1486C125.401 36.5619 124.531 34.4544 124.531 31.8259C124.531 29.3416 125.393 27.2701 127.118 25.6113C128.842 23.9526 131.079 23.123 133.828 23.123C136.543 23.123 138.771 23.9164 140.513 25.503C142.253 27.0899 143.124 29.1973 143.124 31.8259C143.124 34.3585 142.245 36.4415 140.488 38.0764C138.729 39.711 136.51 40.5285 133.828 40.5285Z" fill="#E47D32"/>
<path fill-rule="evenodd" clip-rule="evenodd" d="M9.31533 44.7392C11.0618 45.4742 12.9166 45.847 14.8277 45.847C16.7388 45.847 18.5937 45.4742 20.3401 44.7392C22.0264 44.0294 23.5408 43.0138 24.8408 41.7201C26.1412 40.4263 27.162 38.9194 27.8754 37.2414C28.614 35.5037 28.9885 33.6582 28.9885 31.7565C28.9885 29.8545 28.614 28.0093 27.8754 26.2716C27.162 24.5934 26.1412 23.0867 24.8408 21.7929C23.5408 20.4992 22.0264 19.4833 20.3401 18.7735C18.5937 18.0385 16.7388 17.666 14.8277 17.666C12.9166 17.666 11.0618 18.0385 9.31533 18.7735C7.62907 19.4833 6.11469 20.4992 4.81462 21.7929C3.51425 23.0867 2.49353 24.5934 1.78013 26.2716C1.04145 28.0093 0.666992 29.8545 0.666992 31.7565C0.666992 33.6582 1.04145 35.5037 1.78013 37.2414C2.49353 38.9194 3.51425 40.4263 4.81462 41.7201C6.11469 43.0138 7.62907 44.0294 9.31533 44.7392ZM6.19445 23.166C8.5005 20.8714 11.5666 19.6077 14.8277 19.6077C18.0889 19.6077 21.155 20.8714 23.461 23.166C25.7671 25.4606 27.037 28.5115 27.037 31.7565C27.037 35.0015 25.7671 38.0524 23.461 40.347C21.155 42.6413 18.0889 43.905 14.8277 43.905C11.5666 43.905 8.5005 42.6413 6.19445 40.347C3.88841 38.0524 2.61844 35.0015 2.61844 31.7565C2.61844 28.5115 3.88841 25.4606 6.19445 23.166Z" fill="#101113"/>
<path d="M16.8432 31.3884C16.5045 31.3884 16.1755 31.2129 15.9952 30.8993C15.7276 30.4341 15.8899 29.8408 16.3576 29.5746L24.7721 24.7845C25.2398 24.5184 25.8361 24.6797 26.1037 25.1453C26.3713 25.6106 26.2091 26.2038 25.7413 26.47L17.3269 31.2601C17.174 31.3469 17.0075 31.3884 16.8432 31.3884Z" fill="#101113"/>
<path d="M16.8421 31.3868H16.8394C16.3006 31.3852 15.865 30.9494 15.8662 30.4133L15.8813 24.7956C15.8824 24.2603 16.3193 23.8271 16.8568 23.8271H16.8596C17.3984 23.8286 17.834 24.2645 17.8327 24.8007L17.8177 30.4184C17.8165 30.9536 17.3797 31.3868 16.8421 31.3868Z" fill="#101113"/>
<path d="M21.7255 34.012C21.5689 34.012 21.41 33.9745 21.2628 33.8952L16.3786 31.2708C15.9042 31.0157 15.7275 30.4267 15.9837 29.9552C16.2395 29.4832 16.8316 29.3072 17.3057 29.5623L22.1899 32.1866C22.664 32.4413 22.841 33.0304 22.5849 33.5023C22.4085 33.8273 22.0725 34.012 21.7255 34.012Z" fill="#101113"/>
<path d="M14.8444 45.521C14.3072 45.521 13.8704 45.0885 13.8689 44.5531L13.8379 33.8062C13.8361 33.27 14.2717 32.8339 14.8105 32.832H14.8134C15.3511 32.832 15.7875 33.2646 15.7893 33.7999L15.8203 44.5468C15.8219 45.0831 15.3866 45.5191 14.8478 45.521H14.8444Z" fill="#101113"/>
<path d="M9.93191 37.5965C9.59569 37.5965 9.26849 37.4234 9.08728 37.1132C8.81668 36.6497 8.97471 36.0552 9.44067 35.7861L14.3222 32.9635C14.7881 32.6943 15.3854 32.8517 15.6562 33.3152C15.9269 33.779 15.7685 34.3731 15.3028 34.6426L10.4213 37.4649C10.2669 37.5542 10.0983 37.5965 9.93191 37.5965Z" fill="#101113"/>
<path d="M19.5137 37.759C19.334 37.759 19.1524 37.7098 18.9899 37.6064L14.2869 34.6216C13.8327 34.3335 13.6993 33.733 13.9893 33.281C14.2788 32.8289 14.882 32.6961 15.3366 32.9845L20.0392 35.9693C20.4938 36.2577 20.6271 36.8582 20.3372 37.3102C20.1512 37.6004 19.8358 37.759 19.5137 37.759Z" fill="#101113"/>
<path d="M13.7072 30.8986C13.9748 30.4333 13.8125 29.8401 13.3448 29.5739L4.38221 24.4897C3.91445 24.2233 3.31845 24.3849 3.05085 24.8502C2.78325 25.3158 2.94549 25.909 3.41327 26.1752L12.3755 31.2594C12.5284 31.3462 12.6949 31.3876 12.8593 31.3876C13.1979 31.3876 13.5269 31.2122 13.7072 30.8986Z" fill="#101113"/>
<path d="M12.8607 31.3868H12.8634C13.4022 31.3852 13.8378 30.9494 13.8366 30.4133L13.8216 24.7956C13.8203 24.2603 13.3836 23.8271 12.8459 23.8271H12.8432C12.3044 23.8286 11.8689 24.2645 11.8701 24.8007L11.8852 30.4184C11.8863 30.9536 12.3231 31.3868 12.8607 31.3868Z" fill="#101113"/>
<path d="M7.97679 34.012C8.13332 34.012 8.29226 33.9745 8.43944 33.8952L13.3236 31.2708C13.798 31.0157 13.9748 30.4267 13.7186 29.9552C13.4627 29.4832 12.8706 29.3072 12.3965 29.5623L7.51233 32.1866C7.03824 32.4413 6.86124 33.0304 7.11741 33.5023C7.2938 33.8273 7.62973 34.012 7.97679 34.012Z" fill="#101113"/>
</g>
<defs>
<clipPath id="clip0">
<rect width="143" height="63" fill="white" transform="translate(0.666992 0.5)"/>
</clipPath>
</defs>
</svg>
