<svg fill="none" xmlns="http://www.w3.org/2000/svg" viewBox="0 0 143 64">
  <path d="M44.8 38.8L39.7 32v6.5c0 .5-.2 1-.6 1.3a2 2 0 01-1.4.5 2 2 0 01-1.4-.5c-.4-.4-.6-.8-.6-1.3V24.7c0-.5.2-1 .6-1.3a2 2 0 011.4-.5c.6 0 1 .1 1.4.5.4.3.6.8.6 1.3v5.8l5-6.6c.6-.7 1.2-1 2-1 .5 0 1 .1 1.2.4.3.3.5.7.5 1.1 0 .5-.2 1-.5 1.4l-4.3 5.1 4.9 6.3c.3.4.4.7.4 1.2s-.2 1-.5 1.3c-.4.4-.8.6-1.4.6A2 2 0 0146 40c-.4-.2-.7-.6-1.1-1.2zM53.5 24.7c0-.5.2-1 .6-1.3a2 2 0 011.4-.5c.6 0 1 .1 1.4.5.4.3.6.8.6 1.3v13.8c0 .5-.2 1-.6 1.3a2 2 0 01-1.4.5 2 2 0 01-1.4-.5c-.4-.4-.6-.8-.6-1.3V24.7zM74.5 27a3 3 0 01-1-.2c-.6-.3-1.3-.4-2-.4-1.5 0-2.6.5-3.6 1.4a5 5 0 00-1.3 3.8 5 5 0 001.4 3.7c1 1 2.3 1.4 3.9 1.4.7 0 1.3-.1 2-.3.4-.2.7-.3 1.1-.3.7 0 1.2.3 1.5.9l.2.8c0 .7-.4 1.3-1.2 1.7-1.1.6-2.5.8-4 .8-2.7 0-5-.8-6.6-2.4a8.3 8.3 0 01-2.6-6.3c0-2.6.8-4.7 2.4-6.3a9 9 0 016.8-2.5c1.4 0 2.6.2 3.5.7.8.4 1.3 1 1.3 1.7l-.3.9c-.3.6-.8.8-1.5.8zM89.9 38.8L84.8 32v6.5c0 .5-.2 1-.6 1.3a2 2 0 01-1.4.5 2 2 0 01-1.4-.5c-.4-.4-.6-.8-.6-1.3V24.7c0-.5.2-1 .6-1.3a2 2 0 011.4-.5c.5 0 1 .1 1.4.5.4.3.6.8.6 1.3v5.8l5-6.6c.6-.7 1.2-1 2-1 .5 0 1 .1 1.2.4.3.3.5.7.5 1.1 0 .5-.2 1-.5 1.4l-4.3 5.1 4.9 6.3c.2.4.4.7.4 1.2s-.2 1-.5 1.3c-.4.4-.8.6-1.4.6-.4 0-.8-.1-1.1-.3-.4-.2-.8-.6-1.1-1.2zM98.6 24.7c0-.5.2-1 .6-1.3a2 2 0 011.4-.5c.6 0 1 .1 1.4.5.4.3.6.8.6 1.3v13.8c0 .5-.2 1-.6 1.3a2 2 0 01-1.4.5 2 2 0 01-1.4-.5c-.4-.4-.6-.8-.6-1.3V24.7z" fill="#DFDFDF"/>
  <path fill-rule="evenodd" clip-rule="evenodd" d="M98.6 24.7c0-.5.2-1 .6-1.3a2 2 0 011.4-.5c.6 0 1 .1 1.4.5.4.3.6.8.6 1.3v13.8c0 .5-.2 1-.6 1.3a2 2 0 01-1.4.5 2 2 0 01-1.4-.5c-.4-.4-.6-.8-.6-1.3V24.7z" fill="#E47D32"/>
  <path d="M119.6 27a3 3 0 01-1-.2c-.6-.3-1.3-.4-2-.4-1.5 0-2.6.5-3.6 1.4a5 5 0 00-1.4 3.8 5 5 0 001.5 3.7c1 1 2.3 1.4 3.8 1.4.8 0 1.4-.1 2-.3l1.2-.3c.7 0 1.2.3 1.5.9l.2.8c0 .7-.4 1.3-1.2 1.7-1.2.6-2.5.8-4 .8-2.7 0-5-.8-6.7-2.4a8.3 8.3 0 01-2.5-6.3c0-2.6.8-4.7 2.4-6.3a9 9 0 016.7-2.5c1.5 0 2.6.2 3.5.7 1 .4 1.4 1 1.4 1.7l-.3.9c-.3.6-.8.8-1.5.8z" fill="#DFDFDF"/>
  <path fill-rule="evenodd" clip-rule="evenodd" d="M119.6 27a3 3 0 01-1-.2c-.6-.3-1.3-.4-2-.4-1.5 0-2.6.5-3.6 1.4a5 5 0 00-1.4 3.8 5 5 0 001.5 3.7c1 1 2.3 1.4 3.8 1.4.8 0 1.4-.1 2-.3l1.2-.3c.7 0 1.2.3 1.5.9l.2.8c0 .7-.4 1.3-1.2 1.7-1.2.6-2.5.8-4 .8-2.7 0-5-.8-6.7-2.4a8.3 8.3 0 01-2.5-6.3c0-2.6.8-4.7 2.4-6.3a9 9 0 016.7-2.5c1.5 0 2.6.2 3.5.7 1 .4 1.4 1 1.4 1.7l-.3.9c-.3.6-.8.8-1.5.8z" fill="#E47D32"/>
  <path fill-rule="evenodd" clip-rule="evenodd" d="M126.5 38c1.7 1.5 4 2.3 6.7 2.3 2.6 0 4.9-.8 6.6-2.4a8.3 8.3 0 002.7-6.3c0-2.7-1-4.8-2.7-6.4a9.5 9.5 0 00-6.6-2.4c-2.8 0-5 .8-6.7 2.5a8.4 8.4 0 00-2.6 6.3c0 2.6.8 4.7 2.6 6.3zm3-10.1a5 5 0 013.7-1.5 5 5 0 015 5.2c0 1.5-.4 2.7-1.3 3.7s-2.1 1.4-3.7 1.4c-1.4 0-2.6-.5-3.6-1.5a5 5 0 01-1.5-3.6 5 5 0 011.4-3.7z" fill="#DFDFDF"/>
  <path fill-rule="evenodd" clip-rule="evenodd" d="M133.2 26.4a5 5 0 00-3.7 1.5 5 5 0 00-1.4 3.7 5 5 0 001.5 3.6c1 1 2.2 1.5 3.6 1.5 1.6 0 2.8-.5 3.7-1.4.9-1 1.3-2.2 1.3-3.7a5 5 0 00-5-5.1zm0 14c-2.8 0-5-.9-6.7-2.5a8.2 8.2 0 01-2.6-6.3c0-2.5.8-4.6 2.6-6.3 1.7-1.7 4-2.5 6.7-2.5s4.9.8 6.6 2.4a8.2 8.2 0 012.7 6.4c0 2.5-1 4.6-2.7 6.3a9.4 9.4 0 01-6.6 2.4z" fill="#E47D32"/>
  <path fill-rule="evenodd" clip-rule="evenodd" d="M8.6 44.6a14 14 0 0015.6-3 14.2 14.2 0 000-20.1A14.1 14.1 0 000 31.5a14.2 14.2 0 008.6 13zm-3-21.8a12.1 12.1 0 0117.2 0 12.2 12.2 0 010 17.4 12.1 12.1 0 01-17.3 0 12.2 12.2 0 010-17.4z" fill="#DFDFDF"/>
  <path d="M16.2 31.1a1 1 0 01-.5-1.8l8.4-4.8a1 1 0 011 1.7L16.7 31a1 1 0 01-.5.1z" fill="#DFDFDF"/>
  <path d="M16.2 31.1a1 1 0 01-1-1v-5.6c0-.6.5-1 1-1s1 .5 1 1v5.7c0 .5-.5 1-1 1z" fill="#DFDFDF"/>
  <path d="M21 33.8a1 1 0 01-.4-.1L15.7 31a1 1 0 011-1.7l4.8 2.6a1 1 0 01-.4 1.9zM14.2 45.4a1 1 0 01-1-1V33.6c0-.6.4-1 1-1 .5 0 1 .4 1 1v10.8c0 .5-.5 1-1 1z" fill="#DFDFDF"/>
  <path d="M9.3 37.4a1 1 0 01-.5-1.8l4.9-2.9a1 1 0 011.3.4c.3.4.1 1-.4 1.3l-4.8 2.9a1 1 0 01-.5 0z" fill="#DFDFDF"/>
  <path d="M18.8 37.6a1 1 0 01-.5-.2l-4.7-3a1 1 0 011-1.7l4.8 3a1 1 0 01-.6 1.9zM13 30.6c.3-.4.1-1-.3-1.3l-9-5.1a1 1 0 00-1 1.7l9 5.1a1 1 0 001.3-.4z" fill="#DFDFDF"/>
  <path d="M12.2 31.1c.5 0 1-.4 1-1v-5.6c0-.6-.5-1-1-1a1 1 0 00-1 1v5.7c0 .5.5 1 1 1z" fill="#DFDFDF"/>
  <path d="M7.3 33.8l.5-.1 4.9-2.7a1 1 0 00-1-1.7l-4.9 2.6a1 1 0 00.5 1.9z" fill="#DFDFDF"/>
</svg>
