<svg width="42" height="41" viewBox="0 0 42 41" fill="none" xmlns="http://www.w3.org/2000/svg">
<path d="M37.7604 9.78098C37.5238 9.02386 36.956 8.40869 36.2461 8.03013L21.8134 1.12137C21.4349 0.932086 21.009 0.884766 20.6304 0.884766C20.2519 0.884766 19.826 0.884766 19.4474 0.979406L5.01474 7.93549C4.30493 8.26673 3.78441 8.8819 3.59513 9.68634L0.0461069 25.2547C-0.095854 26.0592 0.0934273 26.8636 0.56663 27.5261L10.5512 39.8767C11.1191 40.4445 11.9235 40.8231 12.728 40.8704H28.6276C29.4793 40.9651 30.2838 40.5865 30.8043 39.8767L40.7889 27.5261C41.2621 26.8636 41.4514 26.0592 41.3567 25.2547L37.7604 9.78098Z" fill="#326DE6"/>
<path d="M35.5363 24.6391C35.489 24.6391 35.4417 24.6391 35.4417 24.5917C35.4417 24.5444 35.3471 24.5444 35.2524 24.5444C35.0631 24.4971 34.8739 24.4971 34.6846 24.4971C34.5899 24.4971 34.4953 24.4971 34.4007 24.4498H34.3533C33.8328 24.4025 33.265 24.3078 32.7444 24.1659C32.6025 24.1185 32.4605 23.9766 32.4132 23.8346C32.4605 23.8346 32.4132 23.8346 32.4132 23.8346L32.0346 23.74C32.2239 22.3677 32.1293 20.9481 31.8454 19.5758C31.5141 18.2035 30.9463 16.8785 30.1891 15.6955L30.4731 15.4116V15.3643C30.4731 15.2223 30.5204 15.033 30.615 14.9384C31.0409 14.5598 31.4668 14.2759 31.94 13.992C32.0346 13.9447 32.1293 13.8974 32.2239 13.85C32.4132 13.7554 32.5552 13.6608 32.7444 13.5661C32.7918 13.5188 32.8391 13.5188 32.8864 13.4715C32.9337 13.4242 32.8864 13.4242 32.8864 13.3768C33.3123 13.0456 33.4069 12.4777 33.0757 12.0519C32.9337 11.8626 32.6498 11.7206 32.4132 11.7206C32.1766 11.7206 31.94 11.8153 31.7507 11.9572L31.7034 12.0045C31.6561 12.0519 31.6088 12.0992 31.5614 12.0992C31.4195 12.2411 31.2775 12.3831 31.1829 12.5251C31.1356 12.6197 31.0409 12.667 30.9936 12.7143C30.6624 13.0929 30.2365 13.4715 29.8106 13.7554C29.7159 13.8027 29.6213 13.85 29.5267 13.85C29.4793 13.85 29.3847 13.85 29.3374 13.8027H29.2901L28.9115 14.0393C28.5329 13.6608 28.1071 13.2822 27.7285 12.9036C25.9776 11.5313 23.8009 10.6796 21.5769 10.443L21.5295 10.0644V10.1117C21.3876 10.0171 21.3403 9.87513 21.2929 9.73317C21.2929 9.21265 21.2929 8.69212 21.3876 8.12428V8.07696C21.3876 7.98232 21.4349 7.88768 21.4349 7.79304C21.4822 7.60375 21.4822 7.41447 21.5295 7.22519V6.94127C21.5769 6.46807 21.1983 5.99486 20.7251 5.94754C20.4412 5.90022 20.1572 6.04218 19.9206 6.27879C19.7314 6.46807 19.6367 6.70467 19.6367 6.94127V7.17787C19.6367 7.36715 19.684 7.55643 19.7314 7.74572C19.7787 7.84036 19.7787 7.935 19.7787 8.02964V8.07696C19.8733 8.59748 19.8733 9.118 19.8733 9.68585C19.826 9.82781 19.7787 9.96977 19.6367 10.0644V10.1591L19.5894 10.5376C19.0689 10.5849 18.5484 10.6796 17.9805 10.7742C15.7565 11.2474 13.7217 12.4304 12.1601 14.0866L11.8762 13.8974H11.8289C11.7815 13.8974 11.7342 13.9447 11.6396 13.9447C11.5449 13.9447 11.4503 13.8974 11.3557 13.85C10.9298 13.5188 10.5039 13.1402 10.1727 12.7617C10.1253 12.667 10.0307 12.6197 9.98338 12.5724C9.84142 12.4304 9.74677 12.2885 9.60481 12.1465C9.55749 12.0992 9.51017 12.0992 9.46285 12.0519C9.41553 12.0045 9.41553 12.0045 9.41553 12.0045C9.22625 11.8626 8.98965 11.7679 8.75305 11.7679C8.46913 11.7679 8.23253 11.8626 8.09056 12.0992C7.80664 12.5251 7.90128 13.0929 8.27985 13.4242C8.32717 13.4242 8.32717 13.4715 8.32717 13.4715C8.32717 13.4715 8.42181 13.5661 8.46913 13.5661C8.61109 13.6608 8.80037 13.7554 8.98965 13.85C9.08429 13.8974 9.17893 13.9447 9.27357 13.992C9.74678 14.2759 10.22 14.5598 10.5985 14.9384C10.6932 15.033 10.7878 15.2223 10.7405 15.3643V15.317L11.0244 15.6009C10.9771 15.6955 10.9298 15.7428 10.8825 15.8375C9.41553 18.1562 8.80037 20.9008 9.22625 23.598L8.84769 23.6927C8.84769 23.74 8.80037 23.74 8.80037 23.74C8.75305 23.8819 8.61109 23.9766 8.46913 24.0712C7.9486 24.2132 7.42808 24.3078 6.86024 24.3551C6.76559 24.3551 6.67095 24.3551 6.57631 24.4025C6.38703 24.4025 6.19775 24.4498 6.00847 24.4498C5.96115 24.4498 5.91383 24.4971 5.81919 24.4971C5.77187 24.4971 5.77187 24.4971 5.72455 24.5444C5.20402 24.6391 4.87278 25.1123 4.96742 25.6328C5.06206 26.0587 5.48795 26.3426 5.91383 26.2953C6.00847 26.2953 6.05579 26.2953 6.15043 26.248C6.19775 26.248 6.19775 26.248 6.19775 26.2006C6.19775 26.1533 6.33971 26.2006 6.38703 26.2006C6.57631 26.1533 6.7656 26.0587 6.90756 26.0114C7.0022 25.964 7.09684 25.9167 7.19148 25.9167H7.2388C7.75932 25.7274 8.23253 25.5855 8.80037 25.4908H8.84769C8.98965 25.4908 9.13161 25.5382 9.22625 25.6328C9.27357 25.6328 9.27357 25.6801 9.27357 25.6801L9.69945 25.6328C10.4093 27.8095 11.7342 29.7497 13.5797 31.1693C14.0056 31.5005 14.3842 31.7844 14.8574 32.021L14.6208 32.3523C14.6208 32.3996 14.6681 32.3996 14.6681 32.3996C14.7627 32.5416 14.7627 32.7308 14.7154 32.8728C14.5261 33.346 14.2422 33.8192 13.9583 34.2451V34.2924C13.911 34.387 13.8636 34.4344 13.769 34.529C13.6744 34.6237 13.5797 34.8129 13.4378 35.0022C13.3904 35.0495 13.3904 35.0969 13.3431 35.1442C13.3431 35.1442 13.3431 35.1915 13.2958 35.1915C13.0592 35.6647 13.2485 36.2325 13.6744 36.4691C13.769 36.5165 13.911 36.5638 14.0056 36.5638C14.3842 36.5638 14.7154 36.3272 14.9047 35.9959C14.9047 35.9959 14.9047 35.9486 14.952 35.9486C14.952 35.9013 14.9993 35.854 15.0466 35.8067C15.094 35.6174 15.1886 35.4754 15.2359 35.2861L15.3306 35.0022C15.4725 34.4817 15.7091 34.0085 15.9457 33.5353C16.0404 33.3933 16.1823 33.2987 16.3243 33.2514C16.3716 33.2514 16.3716 33.2514 16.3716 33.204L16.5609 32.8255C17.8859 33.346 19.2582 33.5826 20.6778 33.5826C21.5295 33.5826 22.3813 33.488 23.2331 33.2514C23.7536 33.1567 24.2741 32.9674 24.7473 32.8255L24.9366 33.1567C24.9839 33.1567 24.9839 33.1567 24.9839 33.204C25.1259 33.2514 25.2678 33.346 25.3625 33.488C25.5991 33.9612 25.8357 34.4344 25.9776 34.9549V35.0022L26.0723 35.2861C26.1196 35.4754 26.1669 35.6647 26.2616 35.8067C26.3089 35.854 26.3089 35.9013 26.3562 35.9486C26.3562 35.9486 26.3562 35.9959 26.4035 35.9959C26.5928 36.3272 26.924 36.5638 27.3026 36.5638C27.4446 36.5638 27.5392 36.5165 27.6812 36.4691C27.8705 36.3745 28.0597 36.1852 28.1071 35.9486C28.1544 35.712 28.1544 35.4754 28.0597 35.2388C28.0597 35.1915 28.0124 35.1915 28.0124 35.1915C28.0124 35.1442 27.9651 35.0969 27.9178 35.0495C27.8231 34.8603 27.7285 34.7183 27.5865 34.5763C27.5392 34.4817 27.4919 34.4344 27.3972 34.3397V34.2451C27.066 33.8192 26.8294 33.346 26.6401 32.8728C26.5928 32.7308 26.5928 32.5416 26.6874 32.3996C26.6874 32.3523 26.7348 32.3523 26.7348 32.3523L26.5928 31.9737C29.0061 30.5068 30.8516 28.2354 31.7034 25.5382L32.082 25.5855C32.1293 25.5855 32.1293 25.5382 32.1293 25.5382C32.2239 25.4435 32.3659 25.3962 32.5078 25.3962H32.5552C33.0757 25.4908 33.5962 25.6328 34.0694 25.8221H34.1167C34.2114 25.8694 34.306 25.9167 34.4007 25.9167C34.5899 26.0114 34.7319 26.106 34.9212 26.1533C34.9685 26.1533 35.0158 26.2006 35.1105 26.2006C35.1578 26.2006 35.1578 26.2006 35.2051 26.248C35.2997 26.2953 35.3471 26.2953 35.4417 26.2953C35.8676 26.2953 36.2462 26.0114 36.3881 25.6328C36.3408 25.1123 35.9622 24.7337 35.5363 24.6391ZM21.8608 23.1721L20.5831 23.7873L19.3055 23.1721L18.9742 21.7998L19.8733 20.6642H21.2929L22.192 21.7998L21.8608 23.1721ZM29.574 20.0963C29.8106 21.09 29.8579 22.0838 29.7633 23.0775L25.2678 21.7998C24.842 21.7052 24.6054 21.2793 24.7 20.8534C24.7473 20.7115 24.7946 20.6168 24.8893 20.5222L28.4383 17.3044C28.9588 18.1562 29.3374 19.1026 29.574 20.0963ZM27.0187 15.5536L23.1384 18.2981C22.8072 18.4874 22.334 18.4401 22.0974 18.1089C22.0027 18.0142 21.9554 17.9196 21.9554 17.7776L21.6715 12.9983C23.7536 13.2349 25.5991 14.134 27.0187 15.5536ZM18.4537 13.1402L19.4001 12.9509L19.1635 17.683C19.1635 18.1089 18.785 18.4401 18.3591 18.4401C18.2171 18.4401 18.1225 18.3928 17.9805 18.3455L14.0529 15.5536C15.2833 14.3706 16.7975 13.5188 18.4537 13.1402ZM12.6806 17.3044L16.1823 20.4276C16.5136 20.7115 16.5609 21.1847 16.277 21.5159C16.1823 21.6579 16.0877 21.7052 15.8984 21.7525L11.3083 23.0775C11.1664 21.09 11.6396 19.0553 12.6806 17.3044ZM11.8762 25.3015L16.5609 24.4971C16.9395 24.4971 17.318 24.7337 17.3653 25.1123C17.4127 25.2542 17.4127 25.4435 17.318 25.5855L15.5199 29.9389C13.8636 28.8506 12.5387 27.1944 11.8762 25.3015ZM22.6179 31.1693C21.9554 31.3112 21.2929 31.4059 20.5831 31.4059C19.5894 31.4059 18.5484 31.2166 17.6019 30.9327L19.9206 26.7212C20.1572 26.4372 20.5358 26.3426 20.867 26.5319C21.009 26.6265 21.1036 26.7212 21.2456 26.8631L23.517 30.98C23.2331 31.0273 22.9491 31.0746 22.6179 31.1693ZM28.391 27.0524C27.6812 28.1881 26.6874 29.1818 25.5518 29.8916L23.7063 25.4435C23.6116 25.065 23.8009 24.6864 24.1321 24.5444C24.2741 24.4971 24.4161 24.4498 24.558 24.4498L29.2901 25.2542C29.0535 25.9167 28.7695 26.5319 28.391 27.0524Z" fill="white"/>
</svg>
