<svg fill="none" xmlns="http://www.w3.org/2000/svg" viewBox="0 0 41 40"><path fill-rule="evenodd" clip-rule="evenodd" d="M40.477 9.049a.612.612 0 01.023.164v8.586c0 .11-.03.218-.087.313a.637.637 0 01-.237.23l-7.418 4.149v8.223c0 .224-.123.43-.323.543l-15.485 8.66c-.036.02-.074.032-.113.045-.014.005-.028.013-.043.017a.667.667 0 01-.33 0c-.018-.005-.035-.014-.051-.02-.036-.013-.073-.024-.107-.042L.824 31.257a.636.636 0 01-.237-.23.613.613 0 01-.087-.313V4.956c0-.056.008-.11.023-.164.004-.018.016-.034.022-.052.012-.033.023-.067.041-.097.012-.02.03-.037.045-.056.018-.025.035-.05.057-.073.018-.018.042-.031.063-.047.024-.018.045-.039.071-.054h.001L8.565.083a.66.66 0 01.644 0l7.742 4.33h.001c.026.016.048.036.071.054.021.015.044.03.063.047.023.022.039.048.058.073.014.019.032.035.044.056.018.03.029.064.041.097.007.018.018.034.023.053a.616.616 0 01.023.163v16.088l6.45-3.608V9.212c0-.055.009-.11.023-.163.006-.019.016-.035.023-.053.012-.033.024-.067.041-.097.013-.02.03-.037.044-.056.02-.025.035-.05.058-.073.019-.018.042-.03.063-.046.024-.02.045-.04.07-.054h.002l7.742-4.33a.66.66 0 01.644 0l7.742 4.33c.027.015.048.035.072.053.02.015.044.03.063.047.022.022.038.048.058.073.014.019.032.035.043.056.019.03.029.064.042.097.007.018.018.034.022.053zm-1.267 8.387v-7.14l-2.71 1.515-3.742 2.094v7.14l6.452-3.609zm-7.742 12.916v-7.145l-3.682 2.043-10.512 5.828v7.212l14.194-7.938zM1.79 6.04v24.312l14.192 7.937v-7.21L8.57 27.003 8.566 27l-.003-.002c-.025-.014-.046-.034-.07-.051-.02-.016-.043-.028-.06-.046L8.43 26.9c-.021-.02-.036-.044-.053-.066-.016-.02-.036-.039-.049-.06v-.003c-.015-.024-.024-.052-.034-.078-.01-.024-.024-.046-.03-.07v-.002c-.009-.03-.01-.06-.014-.091-.003-.024-.01-.047-.01-.07V9.648L4.5 7.554 1.79 6.041zm7.097-4.69l-6.45 3.606 6.448 3.607 6.45-3.607-6.45-3.606h.002zm3.354 22.508l3.742-2.092V6.04l-2.71 1.515-3.742 2.093v15.726l2.71-1.516zM32.113 5.606l-6.45 3.607 6.45 3.606 6.449-3.607-6.449-3.606zm-.645 8.299l-3.743-2.094-2.709-1.515v7.14l3.742 2.093 2.71 1.515v-7.14zm-14.84 16.09l9.46-5.247 4.728-2.621-6.444-3.605-7.42 4.15-6.763 3.782 6.439 3.54z" fill="#FF2D20"/></svg>