<svg width="23" height="23" viewBox="0 0 23 23" fill="none" xmlns="http://www.w3.org/2000/svg">
  <path fill-rule="evenodd" clip-rule="evenodd" d="M19.2238 7.80358C19.2238 4.28107 17.8728 3.03986 15.0578 3H13.839C13.0084 3.00119 11.9563 3.00328 10.948 3.00529C9.59472 3.00797 8.3201 3.01051 7.7648 3.01051C4.56457 3.01051 3.27354 4.65741 3.27354 7.62336C3.27354 8.00473 3.26615 8.6648 3.25701 9.48186C3.24215 10.8089 3.22266 12.5501 3.22266 14.1841C3.22266 16.8241 4.15936 18.9005 7.61026 18.9005C8.52067 18.9005 9.65544 18.9248 10.8052 18.9494C11.9272 18.9734 13.0636 18.9977 14.0195 19H14.2457C17.839 18.983 19.1598 17.7946 19.1598 14.9299C19.1598 11.7414 19.1907 9.96974 19.2096 8.88889C19.2179 8.41449 19.2238 8.07317 19.2238 7.80358ZM14.4855 16.633H16.8564L16.8574 12.4443C16.8574 10.388 16.4143 8.80736 14.0114 8.80736C13.5605 8.79062 13.1135 8.89649 12.7181 9.11369C12.3226 9.33089 11.9935 9.65128 11.7657 10.0408H11.7338V8.99728H9.45781V16.6327H11.8287V12.8555C11.8287 11.8595 12.0176 10.8948 13.2524 10.8948C14.4697 10.8948 14.4855 12.0346 14.4855 12.92V16.633ZM6.01825 7.72183C6.24453 7.87297 6.51055 7.95362 6.78267 7.95357C6.96335 7.95354 7.14225 7.91792 7.30917 7.84874C7.47608 7.77957 7.62773 7.67819 7.75547 7.5504C7.88321 7.42262 7.98452 7.27092 8.05364 7.10398C8.12275 6.93703 8.15831 6.75811 8.15827 6.57743C8.15822 6.3053 8.07748 6.0393 7.92626 5.81306C7.77504 5.58682 7.56013 5.41051 7.30871 5.30642C7.05729 5.20232 6.78065 5.17513 6.51377 5.22826C6.24689 5.2814 6.00176 5.41249 5.80938 5.60494C5.617 5.7974 5.486 6.04258 5.43297 6.30949C5.37993 6.5764 5.40722 6.85304 5.5114 7.10443C5.61558 7.35583 5.79197 7.57068 6.01825 7.72183ZM5.59476 16.633H7.96811V8.99728H5.59476V16.633Z" fill="#A0A0A1"/>
</svg>
