<svg xmlns="http://www.w3.org/2000/svg" fill="none" viewBox="0 0 24 24">
  <defs/>
  <path fill="#FFF" fill-rule="evenodd" d="M22.3 0H1.8C.8 0 0 .8 0 1.7v20.6c0 1 .5 1.7 1.5 1.7H22c1 0 2-.8 2-1.7V1.7A1.7 1.7 0 0022.3 0z" clip-rule="evenodd"/>
  <path fill="#0077B5" fill-rule="evenodd" d="M22.3 0H1.8C.8 0 0 .8 0 1.7v20.6c0 1 .5 1.7 1.5 1.7H22c1 0 2-.8 2-1.7V1.7A1.7 1.7 0 0022.3 0zM9 9.1h3.3v1.7c.5-.9 2-1.8 3.8-1.8 3.4 0 4.4 1.8 4.4 5.2v6.4H17v-5.7c0-1.6-.6-2.9-2-2.9-1.7 0-2.5 1.2-2.5 3v5.6H9V9zM3.4 20.6H7V9H3.4v11.5zM7.3 5a2.1 2.1 0 11-4.3 0 2.1 2.1 0 014.3 0z" clip-rule="evenodd"/>
  <path fill="#FFF" d="M21.5.5h-19a2 2 0 00-2 2v19a2 2 0 002 2h19a2 2 0 002-2v-19a2 2 0 00-2-2z"/>
  <path fill="#0077B5" fill-rule="evenodd" d="M0 2C0 .9.9 0 2 0h20a2 2 0 012 2v20a2 2 0 01-2 2H2a2 2 0 01-2-2V2zm9.5 7.2h3.3v1.6c.4-1 1.6-1.8 3.4-1.8 3.5 0 4.3 1.9 4.3 5.3v6.3H17v-5.5c0-2-.5-3-1.7-3-1.6 0-2.3 1.1-2.3 3v5.5H9.5V9.1zm-6 11.3H7V9H3.5v11.5zm4-15.3a2.3 2.3 0 11-4.5 0 2.3 2.3 0 014.5 0z" clip-rule="evenodd"/>
</svg>
