<svg width="53" height="53" viewBox="0 0 53 53" fill="none" xmlns="http://www.w3.org/2000/svg">
<path d="M0.0844727 23.564C0.0844727 12.6814 0.0844727 7.2401 3.46527 3.85931C6.84606 0.478516 12.2874 0.478516 23.17 0.478516H28.9414C39.824 0.478516 45.2653 0.478516 48.6461 3.85931C52.0269 7.2401 52.0269 12.6814 52.0269 23.564V29.3354C52.0269 40.218 52.0269 45.6593 48.6461 49.0401C45.2653 52.4209 39.824 52.4209 28.9414 52.4209H23.17C12.2874 52.4209 6.84606 52.4209 3.46527 49.0401C0.0844727 45.6593 0.0844727 40.218 0.0844727 29.3354V23.564Z" fill="#54CFEF"/>
<path d="M18.448 37.8588C18.9262 37.8588 19.2662 37.6888 19.8399 37.1895L23.1868 34.1613C23.8668 35.0113 24.9612 35.4682 26.3743 35.4682H30.1674L33.4824 38.2945C34.0243 38.762 34.3218 39.0063 34.768 39.0063C35.3949 39.0063 35.7455 38.5601 35.7455 37.8695V35.4682H36.2237C38.6462 35.4682 40.2187 34.0232 40.2187 31.5051V25.4488C40.2187 22.9307 38.6462 21.4857 36.2237 21.4857H34.5662V20.572C34.5662 17.9157 33.0043 16.3857 30.3374 16.3857H16.1105C13.5393 16.3857 11.8818 17.9157 11.8818 20.572V29.752C11.8818 32.4188 13.5393 33.9488 16.1105 33.9488H17.4387V36.7326C17.4387 37.4445 17.7999 37.8588 18.448 37.8588ZM18.8199 33.3326C18.8199 32.8226 18.5118 32.5782 18.108 32.5782H16.2168C14.3999 32.5782 13.348 31.5901 13.348 29.6988V20.6463C13.348 18.7445 14.3999 17.7563 16.2168 17.7563H30.2312C32.048 17.7563 33.0999 18.7445 33.0999 20.6463V21.4857H26.3743C23.8562 21.4857 22.3793 22.9307 22.3793 25.4488V31.5157C22.3793 31.9832 22.4324 32.4082 22.528 32.7907L18.8199 36.2438V33.3326ZM34.3749 37.3488L31.2193 34.5226C30.8474 34.2038 30.6137 34.087 30.1143 34.087H26.4699C24.8124 34.087 23.8455 33.2051 23.8455 31.452V25.502C23.8455 23.7701 24.8124 22.8563 26.4699 22.8563H36.128C37.7855 22.8563 38.763 23.7701 38.763 25.502V31.452C38.763 33.1945 37.7855 34.087 36.128 34.087H35.0868C34.6937 34.087 34.3749 34.3207 34.3749 34.8307V37.3488Z" fill="white"/>
</svg>
