<svg width="53" height="52" viewBox="0 0 53 52" fill="none" xmlns="http://www.w3.org/2000/svg">
<path d="M0.0839844 23.1299C0.0839844 12.2473 0.0839844 6.80602 3.46478 3.42523C6.84557 0.0444336 12.2869 0.0444336 23.1695 0.0444336H28.9409C39.8235 0.0444336 45.2648 0.0444336 48.6456 3.42523C52.0264 6.80602 52.0264 12.2473 52.0264 23.1299V28.9013C52.0264 39.7839 52.0264 45.2252 48.6456 48.606C45.2648 51.9868 39.8235 51.9868 28.9409 51.9868H23.1695C12.2869 51.9868 6.84557 51.9868 3.46478 48.606C0.0839844 45.2252 0.0839844 39.7839 0.0839844 28.9013V23.1299Z" fill="#EC3571"/>
<path d="M19.1493 35.7779H32.9618C35.0124 35.7779 36.043 34.7579 36.043 32.7391V20.4566C36.043 18.4379 35.0124 17.4072 32.9618 17.4072H19.1493C17.1093 17.4072 16.068 18.4272 16.068 20.4566V32.7391C16.068 34.7685 17.1093 35.7779 19.1493 35.7779ZM19.0218 34.3116C18.0655 34.3116 17.5343 33.8016 17.5343 32.8135V23.4635C17.5343 22.4647 18.0655 21.9547 19.0218 21.9547H33.0787C34.0243 21.9547 34.5768 22.4647 34.5768 23.4635V32.8135C34.5768 33.8016 34.0243 34.3116 33.0787 34.3116H19.0218ZM24.0793 25.546H24.6637C25.0037 25.546 25.1099 25.4504 25.1099 25.121V24.526C25.1099 24.1966 25.0037 24.101 24.6637 24.101H24.0793C23.7393 24.101 23.633 24.1966 23.633 24.526V25.121C23.633 25.4504 23.7393 25.546 24.0793 25.546ZM27.4368 25.546H28.0318C28.3718 25.546 28.478 25.4504 28.478 25.121V24.526C28.478 24.1966 28.3718 24.101 28.0318 24.101H27.4368C27.1074 24.101 27.0012 24.1966 27.0012 24.526V25.121C27.0012 25.4504 27.1074 25.546 27.4368 25.546ZM30.8049 25.546H31.3999C31.7399 25.546 31.8355 25.4504 31.8355 25.121V24.526C31.8355 24.1966 31.7399 24.101 31.3999 24.101H30.8049C30.4649 24.101 30.3587 24.1966 30.3587 24.526V25.121C30.3587 25.4504 30.4649 25.546 30.8049 25.546ZM20.7112 28.861H21.3062C21.6462 28.861 21.7418 28.7654 21.7418 28.4254V27.841C21.7418 27.501 21.6462 27.4054 21.3062 27.4054H20.7112C20.3712 27.4054 20.2649 27.501 20.2649 27.841V28.4254C20.2649 28.7654 20.3712 28.861 20.7112 28.861ZM24.0793 28.861H24.6637C25.0037 28.861 25.1099 28.7654 25.1099 28.4254V27.841C25.1099 27.501 25.0037 27.4054 24.6637 27.4054H24.0793C23.7393 27.4054 23.633 27.501 23.633 27.841V28.4254C23.633 28.7654 23.7393 28.861 24.0793 28.861ZM27.4368 28.861H28.0318C28.3718 28.861 28.478 28.7654 28.478 28.4254V27.841C28.478 27.501 28.3718 27.4054 28.0318 27.4054H27.4368C27.1074 27.4054 27.0012 27.501 27.0012 27.841V28.4254C27.0012 28.7654 27.1074 28.861 27.4368 28.861ZM30.8049 28.861H31.3999C31.7399 28.861 31.8355 28.7654 31.8355 28.4254V27.841C31.8355 27.501 31.7399 27.4054 31.3999 27.4054H30.8049C30.4649 27.4054 30.3587 27.501 30.3587 27.841V28.4254C30.3587 28.7654 30.4649 28.861 30.8049 28.861ZM20.7112 32.176H21.3062C21.6462 32.176 21.7418 32.0804 21.7418 31.7404V31.156C21.7418 30.816 21.6462 30.7204 21.3062 30.7204H20.7112C20.3712 30.7204 20.2649 30.816 20.2649 31.156V31.7404C20.2649 32.0804 20.3712 32.176 20.7112 32.176ZM24.0793 32.176H24.6637C25.0037 32.176 25.1099 32.0804 25.1099 31.7404V31.156C25.1099 30.816 25.0037 30.7204 24.6637 30.7204H24.0793C23.7393 30.7204 23.633 30.816 23.633 31.156V31.7404C23.633 32.0804 23.7393 32.176 24.0793 32.176ZM27.4368 32.176H28.0318C28.3718 32.176 28.478 32.0804 28.478 31.7404V31.156C28.478 30.816 28.3718 30.7204 28.0318 30.7204H27.4368C27.1074 30.7204 27.0012 30.816 27.0012 31.156V31.7404C27.0012 32.0804 27.1074 32.176 27.4368 32.176Z" fill="white"/>
</svg>
