<svg width="26" height="26" viewBox="0 0 26 26" fill="none" xmlns="http://www.w3.org/2000/svg">
<path fill-rule="evenodd" clip-rule="evenodd" d="M21.0109 5.0217C23.9525 6.48371 26 9.49046 26 13C26 16.413 24.0339 19.5163 20.9783 21.0109C19.5163 23.9525 16.5095 26 13 26C9.58828 26 6.48371 24.0327 4.9891 20.9783C2.04755 19.5163 0 16.5095 0 13C0 9.58828 1.9673 6.48371 5.0217 4.9891C6.48371 2.04755 9.49046 0 13 0C16.4117 0 19.5163 1.9673 21.0109 5.0217ZM16.4587 13.1193C16.4587 12.1517 16.2577 11.2163 15.8906 10.3145C15.0222 9.98082 14.1049 9.77981 13.1193 9.77981C12.1517 9.77981 11.2163 9.98082 10.3145 10.348C9.98082 11.1996 9.77981 12.1337 9.77981 13.1193C9.77981 14.0869 9.98082 15.0222 10.348 15.924C11.1996 16.2577 12.1337 16.4587 13.1193 16.4587C14.0869 16.4587 15.0222 16.2577 15.924 15.8906C16.2577 15.0389 16.4587 14.1049 16.4587 13.1193ZM13.0436 1.66973C15.2071 1.66973 17.2401 2.62976 18.6055 4.23985C18.1173 4.15828 17.6129 4.10933 17.1096 4.10933C13.4829 4.10933 10.3768 6.27288 8.96128 9.37884H8.94498V9.41148C8.44047 10.5334 8.1644 11.7532 8.1644 13.0545C8.1644 13.5591 8.21334 14.0635 8.29487 14.5505C6.70112 13.1838 5.72477 11.1508 5.72477 8.98855C5.72477 4.95517 9.01021 1.66973 13.0436 1.66973ZM4.23985 7.39452C2.62976 8.78517 1.66973 10.8558 1.66973 13.0594C1.66973 17.1675 4.95517 20.5138 8.98855 20.5138C11.1508 20.5138 13.1838 19.5194 14.5505 17.896C14.0635 17.9791 13.5591 18.029 13.0545 18.029C11.7532 18.029 10.5334 17.7478 9.41148 17.234H9.37884V17.2173C6.27288 15.7755 4.10933 12.612 4.10933 8.91812C4.10933 8.40551 4.15828 7.89169 4.23985 7.39452ZM13.0594 24.5688C10.8558 24.5688 8.78517 23.591 7.39452 21.9511C7.89169 22.0342 8.40551 22.084 8.91812 22.084C12.612 22.084 15.7755 19.8804 17.2173 16.717H17.234V16.6837C17.7478 15.541 18.029 14.2986 18.029 12.9731C18.029 12.4593 17.9791 11.9455 17.896 11.4495C19.5194 12.8415 20.5138 14.9122 20.5138 17.1145C20.5138 21.2225 17.1675 24.5688 13.0594 24.5688ZM16.6985 8.9462C16.7033 8.94793 16.7074 8.95192 16.717 8.96128C19.8804 10.3768 22.084 13.4829 22.084 17.1096C22.084 17.6129 22.0342 18.1173 21.9511 18.6055C23.591 17.2401 24.5688 15.2071 24.5688 13.0436C24.5688 9.01021 21.2225 5.72477 17.1145 5.72477C14.9122 5.72477 12.8415 6.70112 11.4495 8.29487C11.9455 8.21334 12.4593 8.1644 12.9731 8.1644C14.2986 8.1644 15.541 8.44047 16.6837 8.94498C16.6908 8.94498 16.6948 8.94498 16.6985 8.9462Z" fill="#ED6965"/>
</svg>
