<svg width="40" height="41" viewBox="0 0 40 41" fill="none" xmlns="http://www.w3.org/2000/svg">
<g clip-path="url(#clip0)">
<path d="M0 27.9119V13.8577C0 2.50614 1.61981 0.884766 12.9596 0.884766H27.0408C38.3802 0.884766 39.9993 2.50614 39.9993 13.8576V27.9119C39.9993 39.2633 38.3795 40.8847 27.0398 40.8847H12.9595C1.6202 40.8848 0 39.2634 0 27.9119H0Z" fill="url(#paint0_linear)"/>
<path d="M8.63546 8.42746C6.66996 20.8885 7.69827 32.5544 7.69827 32.5544H13.8438C13.2592 29.4436 11.1614 15.2315 12.9065 15.1847C13.8417 15.3332 18.1149 27.2418 18.1149 27.2418C18.1149 27.2418 19.0559 27.1246 20.0028 27.1246C20.9496 27.1246 21.891 27.2418 21.891 27.2418C21.891 27.2418 26.1647 15.333 27.0995 15.1847C28.8455 15.2315 26.7474 29.4436 26.1631 32.5544H32.3089C32.3089 32.5544 33.3376 20.8877 31.371 8.42676H25.6811C24.5981 8.43942 20.4774 15.6665 20.0038 15.6665C19.5301 15.6665 15.4094 8.44028 14.3264 8.42754L8.63546 8.42746Z" fill="url(#paint1_linear)"/>
<path d="M18.7908 31.1002C18.7908 31.9035 18.1395 32.5539 17.3361 32.5539C16.5327 32.5539 15.8824 31.9026 15.8824 31.1002C15.8824 30.2977 16.5337 29.6455 17.3361 29.6455C18.1386 29.6455 18.7908 30.2967 18.7908 31.1002Z" fill="url(#paint2_radial)"/>
<path d="M24.1241 31.1002C24.1241 31.9035 23.4729 32.5539 22.6704 32.5539C21.8679 32.5539 21.2166 31.9026 21.2166 31.1002C21.2166 30.2977 21.8671 29.6455 22.6707 29.6455C23.4743 29.6455 24.1247 30.2967 24.1247 31.1002H24.1241Z" fill="url(#paint3_radial)"/>
<path opacity="0.1" d="M31.0804 8.83873C31.9674 14.8422 32.1746 20.6039 32.1592 24.8957C32.1424 29.2857 31.8909 32.1378 31.8909 32.1378H26.7169L26.161 32.5544H32.3073C32.3073 32.5544 33.3358 20.8878 31.37 8.42676L31.0804 8.83873ZM14.7945 8.6871C16.4092 10.4832 19.2026 15.2497 19.5856 15.2497C18.5617 13.9405 16.0474 9.76364 14.7945 8.68718V8.6871ZM12.4904 14.7679C10.7452 14.8148 12.8432 29.027 13.428 32.1378H8.06273L7.69852 32.5544H13.8444C13.2625 29.4595 11.1831 15.3735 12.8807 15.1846C12.7228 14.947 12.586 14.7832 12.4902 14.7679H12.4904ZM26.6838 14.7679C25.7488 14.9164 21.4754 26.8253 21.4754 26.8253C21.4754 26.8253 20.5344 26.708 19.5876 26.708C19.0272 26.708 18.545 26.7426 18.2188 26.7729L18.1171 27.2418C18.1171 27.2418 19.0582 27.1248 20.005 27.1248C20.9518 27.1248 21.8931 27.242 21.8931 27.242C21.8931 27.242 26.1339 15.4111 27.0887 15.1846C26.9859 14.9241 26.8589 14.7726 26.6851 14.7679H26.6838Z" fill="black"/>
<path opacity="0.3" d="M8.63641 8.42754C6.66949 20.8885 7.69813 32.5545 7.69813 32.5545L8.05999 32.1477C7.87476 29.3952 7.38002 19.4415 9.05228 8.84349H14.7421C14.8625 8.84482 15.0235 8.94353 15.2111 9.10376C14.8385 8.68937 14.5288 8.42926 14.3256 8.42676L8.63641 8.42754ZM25.6808 8.42754C24.5977 8.44036 20.477 15.6671 20.0036 15.6671C20.1967 15.9141 20.3535 16.0845 20.4202 16.0845C20.8938 16.0845 25.0143 8.85772 26.0974 8.84474H31.1189L31.3709 8.42816L25.6808 8.42754ZM13.2979 15.602C14.6801 17.6779 18.1157 27.2428 18.1157 27.2428L18.2162 26.7762C17.3679 24.4505 14.136 15.731 13.3239 15.602C13.3151 15.6022 13.3066 15.6011 13.2979 15.602ZM27.5167 15.602C28.4438 17.9666 26.6888 29.7563 26.1625 32.5544L26.7206 32.1193C27.4324 27.9441 29.1458 15.6452 27.5174 15.6015L27.5167 15.602Z" fill="white"/>
</g>
<defs>
<linearGradient id="paint0_linear" x1="20" y1="40.8849" x2="20" y2="0.884766" gradientUnits="userSpaceOnUse">
<stop stop-color="#574C4A"/>
<stop offset="1" stop-color="#80716D"/>
</linearGradient>
<linearGradient id="paint1_linear" x1="29.7344" y1="32.1669" x2="15.004" y2="6.33222" gradientUnits="userSpaceOnUse">
<stop stop-color="#268D83"/>
<stop offset="1" stop-color="#2EA19E"/>
</linearGradient>
<radialGradient id="paint2_radial" cx="0" cy="0" r="1" gradientUnits="userSpaceOnUse" gradientTransform="translate(17.0862 30.8879) scale(1.45453)">
<stop stop-color="#DB7C7C"/>
<stop offset="1" stop-color="#C83737"/>
</radialGradient>
<radialGradient id="paint3_radial" cx="0" cy="0" r="1" gradientUnits="userSpaceOnUse" gradientTransform="translate(22.5028 30.8879) scale(1.45453)">
<stop stop-color="#DB7C7C"/>
<stop offset="1" stop-color="#C83737"/>
</radialGradient>
<clipPath id="clip0">
<rect width="40" height="40" fill="white" transform="translate(0 0.884766)"/>
</clipPath>
</defs>
</svg>
