<svg width="80" height="14" viewBox="0 0 80 14" fill="none" xmlns="http://www.w3.org/2000/svg">
<path d="M25.9521 1.17938H30.4329V12.8672H25.9521V1.17938ZM20.5207 1.34063L11.4252 6.24724C11.3603 6.2816 11.288 6.29955 11.2147 6.29955C11.1413 6.29955 11.069 6.2816 11.0041 6.24724L1.90859 1.34063C1.70838 1.23413 1.4852 1.17875 1.2587 1.17938H1.24738C0.937157 1.16103 0.632241 1.26639 0.398773 1.47259C0.165304 1.6788 0.0221087 1.96923 0.000244141 2.2809L0.000244141 12.8539H4.47716V7.82112C4.48578 7.74563 4.51311 7.67352 4.55665 7.61141C4.60018 7.54929 4.65852 7.49915 4.72632 7.46558C4.79413 7.43202 4.86923 7.41609 4.94474 7.41927C5.02025 7.42245 5.09376 7.44464 5.15853 7.48379L10.2558 10.2378C10.5084 10.3717 10.7892 10.4429 11.0748 10.4453C11.3603 10.4477 11.6422 10.3813 11.897 10.2517L17.2757 7.46499C17.3406 7.42721 17.4137 7.40626 17.4886 7.40404C17.5635 7.40182 17.6378 7.41839 17.7048 7.45226C17.7717 7.48613 17.8292 7.53623 17.872 7.59804C17.9149 7.65985 17.9418 7.73142 17.9502 7.80628V12.8539H22.4271V2.2809C22.4053 1.9696 22.2623 1.67947 22.0293 1.47332C21.7963 1.26717 21.4919 1.16157 21.182 1.17938H21.1706C20.9441 1.17875 20.721 1.23413 20.5207 1.34063ZM52.7762 1.17938H48.2319V6.499C48.2239 6.57242 48.1981 6.64275 48.1568 6.70383C48.1155 6.76491 48.0599 6.81487 47.995 6.84934C47.93 6.88381 47.8576 6.90173 47.7841 6.90153C47.7107 6.90133 47.6384 6.88302 47.5736 6.8482L35.7969 1.30848C35.6132 1.22306 35.4133 1.179 35.2109 1.17938H35.2031C34.8928 1.16103 34.5879 1.26639 34.3544 1.47259C34.121 1.6788 33.9778 1.96923 33.9559 2.2809V12.8544H38.4638V7.54067C38.4719 7.46733 38.4977 7.39709 38.5389 7.33608C38.5802 7.27507 38.6357 7.22513 38.7006 7.19064C38.7654 7.15615 38.8377 7.13815 38.9111 7.13821C38.9845 7.13827 39.0568 7.15638 39.1216 7.19097L50.9446 12.7307C51.1277 12.8159 51.3272 12.8598 51.529 12.8593C51.8393 12.8777 52.1442 12.7723 52.3776 12.5661C52.6111 12.3599 52.7543 12.0695 52.7762 11.7578V1.17938ZM56.2992 12.8672V1.17938H58.361V12.8672H56.2992ZM70.4954 13.0754C64.949 13.0754 61.0142 10.7507 61.0142 7.02528C61.0142 3.3196 64.9726 0.974609 70.4954 0.974609C76.0182 0.974609 80.0002 3.29932 80.0002 7.02528C80.0002 10.7512 76.1127 13.0754 70.4954 13.0754ZM70.4954 2.52375C66.3712 2.52375 63.1946 4.11494 63.1946 7.02478C63.1946 9.95589 66.3712 11.5258 70.4954 11.5258C74.6196 11.5258 77.8193 9.95589 77.8193 7.02478C77.8193 4.11494 74.6196 2.52375 70.4954 2.52375Z" fill="#C72C48"/>
</svg>
