<svg width="54" height="54" viewBox="0 0 54 54" fill="none" xmlns="http://www.w3.org/2000/svg">
<path d="M20.335 21.6333C23.3818 21.6333 25.9146 19.1006 25.9146 16.0728C25.9146 13.0259 23.3818 10.4932 20.335 10.4932C17.2881 10.4932 14.7554 13.0259 14.7554 16.0728C14.7554 19.0815 17.269 21.6333 20.335 21.6333ZM33.646 21.6333C36.6929 21.6333 39.2256 19.1006 39.2256 16.0728C39.2256 13.0259 36.6929 10.4932 33.646 10.4932C30.5991 10.4932 28.0664 13.0259 28.0664 16.0728C28.0664 19.1006 30.5991 21.6333 33.646 21.6333ZM13.6699 33.5732C16.7168 33.5732 19.2495 31.0405 19.2495 27.9937C19.2495 24.9468 16.7168 22.4141 13.6699 22.4141C10.623 22.4141 8.09033 24.9468 8.09033 27.9937C8.09033 31.0215 10.604 33.5732 13.6699 33.5732ZM40.311 33.5732C43.3579 33.5732 45.8906 31.0405 45.8906 27.9937C45.8906 24.9468 43.3579 22.4141 40.311 22.4141C37.2642 22.4141 34.7314 24.9468 34.7314 27.9937C34.7314 31.0405 37.2642 33.5732 40.311 33.5732ZM20.335 45.4941C23.3818 45.4941 25.9146 42.9614 25.9146 39.9146C25.9146 36.8867 23.3818 34.354 20.335 34.354C17.2881 34.354 14.7554 36.8867 14.7554 39.9146C14.7554 42.9424 17.269 45.4941 20.335 45.4941ZM33.646 45.4941C36.6929 45.4941 39.2256 42.9614 39.2256 39.9146C39.2256 36.8867 36.6929 34.354 33.646 34.354C30.5991 34.354 28.0664 36.8867 28.0664 39.9146C28.0664 42.9614 30.5991 45.4941 33.646 45.4941Z" fill="#9963F6"/>
</svg>
