<svg width="55" height="54" viewBox="0 0 55 54" fill="none" xmlns="http://www.w3.org/2000/svg">
<path d="M27.313 46.4463C37.4058 46.4463 45.7656 38.0864 45.7656 27.9937C45.7656 17.9009 37.3867 9.54102 27.2939 9.54102C17.2202 9.54102 8.86035 17.9009 8.86035 27.9937C8.86035 38.0864 17.2202 46.4463 27.313 46.4463ZM27.313 43.1899C18.896 43.1899 12.1548 36.4297 12.1548 27.9937C12.1548 19.5576 18.877 12.7974 27.2939 12.7974C35.73 12.7974 42.4902 19.5576 42.5093 27.9937C42.5283 36.4297 35.749 43.1899 27.313 43.1899ZM18.915 30.6406C20.3623 30.6406 21.562 29.4409 21.562 27.9746C21.562 26.5273 20.3433 25.3276 18.915 25.3276C17.4487 25.3276 16.249 26.5273 16.249 27.9746C16.249 29.4409 17.4487 30.6406 18.915 30.6406ZM27.2939 30.6406C28.7603 30.6406 29.96 29.4409 29.96 27.9746C29.96 26.5273 28.7603 25.3276 27.2939 25.3276C25.8276 25.3276 24.647 26.5273 24.647 27.9746C24.647 29.4409 25.8276 30.6406 27.2939 30.6406ZM35.6919 30.6406C37.1582 30.6406 38.3389 29.4409 38.3389 27.9746C38.3389 26.5273 37.1582 25.3276 35.6919 25.3276C34.2256 25.3276 33.0449 26.5273 33.0449 27.9746C33.0449 29.4409 34.2256 30.6406 35.6919 30.6406Z" fill="white"/>
</svg>
