<svg fill="none" xmlns="http://www.w3.org/2000/svg" viewBox="0 0 41 40"><path d="M37.342 30.937c-2.178-.056-3.864.167-5.279.777-.408.166-1.058.166-1.114.692.22.223.246.582.437.889.326.554.895 1.3 1.415 1.688.57.446 1.142.886 1.742 1.274 1.058.667 2.258 1.055 3.289 1.72.6.386 1.198.887 1.8 1.303.295.221.484.581.868.72v-.085c-.192-.249-.247-.61-.435-.887l-.817-.803a13.06 13.06 0 00-2.829-2.797c-.87-.611-2.776-1.442-3.13-2.465l-.055-.056c.6-.057 1.31-.278 1.878-.448.925-.249 1.77-.192 2.72-.44.436-.112.87-.252 1.308-.389v-.25c-.493-.499-.844-1.162-1.361-1.634-1.386-1.219-2.912-2.411-4.49-3.409-.844-.556-1.93-.913-2.83-1.386-.324-.167-.87-.249-1.06-.527-.489-.61-.763-1.412-1.117-2.134-.787-1.523-1.55-3.213-2.23-4.823-.49-1.08-.789-2.16-1.387-3.159-2.804-4.71-5.849-7.564-10.528-10.364-1.006-.583-2.202-.832-3.48-1.137l-2.042-.11c-.435-.195-.871-.722-1.251-.971C5.81.729 1.814-1.433.672 1.42-.064 3.224 1.76 4.997 2.386 5.912c.463.635 1.062 1.358 1.385 2.079.192.47.246.97.437 1.469.436 1.22.843 2.576 1.415 3.714.299.58.624 1.19 1.006 1.715.218.307.598.443.681.944-.379.552-.409 1.385-.627 2.078-.978 3.131-.596 7.01.791 9.312.434.693 1.47 2.218 2.855 1.633 1.226-.498.955-2.078 1.307-3.463.08-.334.028-.554.19-.773v.054c.38.775.763 1.522 1.115 2.3.844 1.356 2.314 2.77 3.538 3.71.652.502 1.168 1.36 1.984 1.666v-.083h-.054c-.165-.249-.407-.36-.624-.553-.49-.5-1.034-1.109-1.415-1.662-1.14-1.553-2.15-3.272-3.045-5.046-.438-.86-.816-1.801-1.17-2.66-.164-.332-.164-.832-.437-.999-.41.61-1.006 1.137-1.305 1.883-.517 1.194-.571 2.662-.763 4.189l-.108.053c-.866-.222-1.168-1.135-1.497-1.91-.815-1.97-.952-5.13-.244-7.401.189-.581 1.008-2.41.681-2.964-.164-.53-.708-.832-1.007-1.25-.351-.525-.735-1.19-.98-1.773-.653-1.551-.981-3.27-1.684-4.82-.328-.723-.898-1.471-1.36-2.136-.519-.748-1.089-1.275-1.499-2.161-.135-.305-.325-.804-.108-1.136.054-.222.164-.305.381-.36.353-.304 1.36.082 1.713.248 1.009.416 1.852.804 2.694 1.386.38.278.79.804 1.278.943h.572c.869.193 1.848.054 2.666.304 1.441.472 2.747 1.164 3.918 1.911 3.563 2.302 6.502 5.573 8.485 9.48.326.636.464 1.22.761 1.883.573 1.36 1.282 2.745 1.85 4.076.572 1.302 1.117 2.631 1.933 3.713.408.581 2.043.886 2.776 1.191.543.249 1.388.47 1.877.775.926.58 1.848 1.247 2.718 1.886.433.332 1.795 1.025 1.876 1.58zM9.592 6.853a4.164 4.164 0 00-1.113.14v.055h.052c.22.443.6.75.872 1.137.219.444.409.885.624 1.329l.052-.055c.384-.277.575-.72.575-1.386-.166-.196-.191-.387-.329-.582-.16-.277-.513-.415-.733-.638z" fill="#5D87A1"/></svg>