<svg width="144" height="63" viewBox="0 0 144 63" fill="none" xmlns="http://www.w3.org/2000/svg">
<g clip-path="url(#clip0)">
<path d="M37.7222 35.0244H31.4209V41.2761H37.7222V35.0244Z" fill="#008CE9"/>
<path d="M31.4205 16.2617V22.5212H25.1113V35.0245H31.4205V28.7728H37.7217V22.5212H44.023V16.2617H31.4205Z" fill="#008CE9"/>
<path d="M25.1118 35.0244H18.8105V41.2761H25.1118V35.0244Z" fill="#008CE9"/>
<path d="M18.8101 22.5212H12.5088V16.2617H-0.101562V22.5212H6.20757V28.7728H12.5088V35.0245H18.8101V22.5212Z" fill="#008CE9"/>
<path d="M12.5093 35.0244H6.20801V41.2761H12.5093V35.0244Z" fill="#008CE9"/>
<path fill-rule="evenodd" clip-rule="evenodd" d="M56.6338 16.2617H61.2437L63.9263 29.1553L66.7347 16.2617H71.2109V41.2761H68.6148V18.7358L65.2321 32.8625H62.4473L59.1197 18.7358V41.2761H56.6338V16.2617ZM75.3645 23.4421H78.4404L82.6963 38.3727L86.3544 23.4421H89.2965C86.0003 35.7971 84.1045 42.8683 83.6089 44.6556C83.1133 46.4429 81.8074 47.3326 79.6834 47.3326H77.874V44.6556C78.0707 44.6556 78.6764 44.6556 79.6834 44.6556C80.6903 44.6556 81.3275 43.5317 81.5871 41.2761H80.942L75.3645 23.4421ZM96.0777 19.1807H98.9018V23.4421H103.874V26.0177H98.9018C98.9018 32.2616 98.9018 35.922 98.9018 37.0069C98.9018 38.0918 99.4289 38.6147 100.483 38.5757H103.874V41.2761C103.276 41.2761 101.883 41.2761 99.7042 41.2761C97.5173 41.2761 96.3137 39.9727 96.0777 37.3581V26.0177H92.9152V23.4421H96.0777V19.1807ZM108.625 16.2617H111.449C111.449 20.1719 111.449 22.9114 111.449 24.4724C111.449 23.9885 112.126 23.6451 113.487 23.4343C114.352 23.4343 115.217 23.4343 116.083 23.4343C118.899 23.4343 120.52 24.9641 120.944 28.0314V41.2761H118.12C118.12 34.0957 118.12 29.764 118.12 28.2655C118.12 26.767 117.365 26.0255 115.863 26.0255C115.941 26.0255 115.225 26.0255 113.715 26.0255C112.204 26.0255 111.457 26.7748 111.457 28.2655V41.2761H108.633V16.2617H108.625ZM124.933 16.3788H128.465L134.082 26.205L139.84 16.3788H143.184L135.75 28.5075L143.616 41.2761H139.982L134.043 30.9113L127.844 41.2761H124.54L132.304 28.5153L124.933 16.3788Z" fill="#101113"/>
</g>
<defs>
<clipPath id="clip0">
<rect width="143" height="63" fill="white" transform="translate(0.666992)"/>
</clipPath>
</defs>
</svg>
