<svg fill="none" xmlns="http://www.w3.org/2000/svg" viewBox="0 0 143 64">
  <g clip-path="url(#clip0)">
    <path d="M37 35.3h-6.2v6.3H37v-6.3zM30.8 16.4v6.3h-6.4v12.6h6.4V29H37v-6.3h6.3v-6.3H30.8zM24.4 35.3h-6.3v6.3h6.3v-6.3zM18.1 22.7h-6.3v-6.3H-.8v6.3h6.3V29h6.3v6.3h6.3V22.7zM11.8 35.3H5.5v6.3h6.3v-6.3z" fill="#008CE9"/>
    <path fill-rule="evenodd" clip-rule="evenodd" d="M56 16.4h4.6l2.7 13 2.8-13h4.4v25.2H68V18.9L64.6 33h-2.8L58.5 19v22.7H56V16.4zm18.7 7.2h3l4.3 15 3.7-15h3L82.8 45c-.5 1.8-1.8 2.7-3.9 2.7h-1.8V45H79c1 0 1.7-1.1 2-3.4h-.7l-5.6-18zm20.7-4.3h2.8v4.3h5v2.6h-5v11.1c0 1 .6 1.6 1.6 1.6h3.4v2.7H99c-2.2 0-3.4-1.3-3.6-4V26.3h-3.2v-2.6h3.2v-4.3zm12.6-3h2.8v8.4c0-.5.7-.9 2-1h2.6c2.8 0 4.5 1.5 4.9 4.6v13.3h-2.8V28.5c0-1.5-.8-2.3-2.3-2.3H113c-1.5 0-2.2.8-2.2 2.3v13.1H108V16.4zm16.3.2h3.5l5.6 10 5.8-10h3.3l-7.4 12.2 7.8 12.9h-3.6l-6-10.4-6.1 10.4h-3.3l7.7-12.9-7.3-12.2z" fill="#fff"/>
  </g>
  <defs>
    <clipPath id="clip0">
      <path fill="#fff" d="M0 0h143v63.5H0z"/>
    </clipPath>
  </defs>
</svg>
