<svg fill="none" xmlns="http://www.w3.org/2000/svg" viewBox="0 0 143 64">
  <path fill-rule="evenodd" clip-rule="evenodd" d="M26.2 53.5c10.4 0 18.8-1 18.8-2.3C45 50 36.6 49 26.2 49S7.4 50 7.4 51.2c0 1.3 8.4 2.3 18.8 2.3z" fill="url(#paint0_radial)"/>
  <path fill-rule="evenodd" clip-rule="evenodd" d="M38.9 32.5s-.5-1.7-1-1.7l-4.5.3c-1.7 0-4 .6-6.2.5-2.2 0-3.8-.5-4.9-.8h-4c-2-.3-3.7-1-4.7-1.4H13a204.7 204.7 0 00.2 7.3v.3l.5 5.4v-.2c.3 3.7.9 6.8 1.7 8.4a24.4 24.4 0 002.5.8c3.7.3 6.6.6 9 .6 7 0 9-.9 9.5-1.9h.6l1.9-17.6z" fill="url(#paint1_radial)"/>
  <path fill-rule="evenodd" clip-rule="evenodd" d="M33.2 29.4z" fill="url(#paint2_radial)"/>
  <path fill-rule="evenodd" clip-rule="evenodd" d="M33.3 29.4z" fill="url(#paint3_radial)"/>
  <path fill-rule="evenodd" clip-rule="evenodd" d="M33.3 29.3z" fill="url(#paint4_radial)"/>
  <path fill-rule="evenodd" clip-rule="evenodd" d="M33.4 29.3z" fill="url(#paint5_radial)"/>
  <path fill-rule="evenodd" clip-rule="evenodd" d="M13 29c.4 0 1 .2 1.5.4 1 .2 3.2.9 5.2.9 1 0 1.9-.3 2.6-.7.5.6 2.6 1.8 5.2 1.8h.7c1.6-.1 3.4-.7 5-2h.1a26.3 26.3 0 005.8.9h.3c-.2 5.9-.7 14.5-1.9 20.3-1 .6-2.7 1-5 1.3a49 49 0 01-14.6-.5c3.7.3 6.6.5 9 .5 8.8 0 9.6-2 9.7-2.3A59 59 0 0038 31.2l-2.3-.2c-1.3 0-3 .2-5 .8-1 .3-2.2.4-3.5.4h-1.7c-6.7-.8-9.4-1.8-12.5-2.7v-.6" fill="url(#paint6_radial)"/>
  <path fill-rule="evenodd" clip-rule="evenodd" d="M22.3 29.7a7 7 0 004.3 1.3c2.4 0 4.7-1 4.7-3.5 1.7.9 3.3 1.2 4.6 1.2 4.2 0 6.3-3.7 6.3-7 0-1.8-1.3-5.2-5.1-6.3l-2.6-.3c-2.5.3-3.5.5-4.4.5-.5 0-1-.1-1.7-.5-.9-.5-3.7-1.8-4.8-2a28 28 0 00-3.9-.2h-.2C9.8 12.9 7.8 19.2 7.8 23c0 2.6 1 4.5 5.2 5.8 7 2.5 9.3.8 9.3.8z" fill="url(#paint7_radial)"/>
  <path fill-rule="evenodd" clip-rule="evenodd" d="M37 15.4c3.8 1.4 5.2 4.5 5.2 6.3 0 3.3-2 7-6.3 7-1.3 0-2.9-.3-4.6-1.2 0 2.5-2.3 3.5-4.7 3.5a7 7 0 01-4.2-1.3c.4.7 2.5 1.7 5 1.7h.8c3.2.2 5.1-2 5.2-2a27.4 27.4 0 005.7.9h.3c.8 0 1.5-.2 2.1-.4 2.5-.8 3.5-2.7 3.3-6.5v-.6c-.2-1.7-1-3.3-2.7-4.8-1.2-1.1-3-2-5-2.6" fill="url(#paint8_radial)"/>
  <path fill-rule="evenodd" clip-rule="evenodd" d="M30.4 35.5c-1.4 0-3 .8-3.7 1.1-.5-.7-1.4-1-2.5-1h-.6c-1.4.1-2 0-2.8-.2-1-.2-2-1.9-2-2.6-.8 1.2-.6 2.6.2 3.6V46h2.4v-8s1.2-.7 2-.7c1.2 0 1.6 1.2 1.5 2.4 1-.8 1.6-1.4 2.4-1.8a5 5 0 012-.6c1.7 0 1.9 1.6 1.9 3.6v5H33.6v-5.3c0-2.9-.4-5.2-3.2-5.2z" fill="url(#paint9_radial)"/>
  <path fill-rule="evenodd" clip-rule="evenodd" d="M29.7 43.1c-.2-.6-1.4-2.2-2.5 0 .8-1 1.8-.9 2.5 0z" fill="url(#paint10_radial)"/>
  <path fill-rule="evenodd" clip-rule="evenodd" d="M26.9 49.5c1-.3 2.6-1.3 3-5.6v-.2h-.3c-2.3 3-4.4 3.3-5.4 3.3h-.8c0-.1-.1 0-.2 0v.2a3.4 3.4 0 003.1 2.4l.6-.1zm-.4-1.4c.3-.5.7-.8.9-1 .4 0 .7.2 1 .6-.5 1.1-2.3 2-4 .8 0 0 1.3-1 2.4-1.2-.1.1-.3.4-.3.8z" fill="url(#paint11_radial)"/>
  <path fill-rule="evenodd" clip-rule="evenodd" d="M25 43l.1-.2c0-.5-.5-1-1-1a1 1 0 00-1 1.5c.5-.2 1.3-.5 2-.2z" fill="url(#paint12_radial)"/>
  <path fill-rule="evenodd" clip-rule="evenodd" d="M108.9 35c0-1.8.2-3.3.6-4.4.3-.8.7-1.3 1.2-1.7a3 3 0 012-.8c1.5 0 2.5.8 3.1 2.4.5 1 .7 2.5.7 4.5 0 2.2-.2 3.8-.5 5-.6 1.8-1.7 2.7-3.3 2.7a3 3 0 01-2.2-.8 4 4 0 01-1.1-1.9c-.4-1-.5-2.7-.5-5zm-6.3-6.4c-.2.1-.3.3-.3.6v.8l.1.5v3.4a95 95 0 010 2.1v5.8l.1.5.7.2c.3 0 .5 0 .7-.2l.2-.4v-5.1-1h2.3c.2 0 .4-.1.5-.3l.2-.6-.2-.7a.6.6 0 00-.5-.2h-2.2l-.1-4h3c.3 0 .5-.1.6-.3v-.6l-.1-.6c-.1-.2-.3-.3-.4-.3h-2.3l-.8.1h-1c-.2 0-.4.1-.5.3zm-21.8 13v-1a161.5 161.5 0 000-6.7v-1V29c0-.2 0-.4.2-.5l.6-.3h.7a37.8 37.8 0 012 0l1 .3c.6.3 1 .7 1.3 1.1.3.5.5 1.2.5 2v.4l-.1 1.5a3 3 0 01-.7 1.4l.6.4c.6.7 1 1.6 1 3 0 1.5-.4 2.6-1 3.2-.5.5-1.2.8-2 .9a12.7 12.7 0 01-2.3 0h-1a1 1 0 01-.6-.2 1 1 0 01-.2-.7zm-28.4.1v.4l.2.2.2.1.5.1h.4l.3-.2v-.2l.1-.2v-2.3a70.5 70.5 0 01.1-1.9v-1a78.7 78.7 0 000-3.7 47.8 47.8 0 012.8 6.5 289.3 289.3 0 001.3 3h1l.2-.2v-.2l.1-.3a166 166 0 00-.1-8V32.1v-1.9V29c.1-.3 0-.5-.1-.6a1 1 0 00-.6-.2h-.1a1 1 0 00-.5.1c-.2.2-.3.3-.3.5v2a101.4 101.4 0 000 6 72.4 72.4 0 00-4-8.2.7.7 0 00-.6-.4H53c-.4.2-.6.4-.6.8v1.4a454.3 454.3 0 01.1 5V37a139 139 0 010 2.4v2.3zm9-.7l-.2.8v.1c0 .4.2.6.7.6H62.5c.2-.1.4-.3.4-.5l.1-.6.4-1.7.4-1.6.2-.9h2.4l1 4.8c0 .2 0 .3.3.5l.5.1h.1c.3 0 .5-.1.6-.3l.1-.4v-.1l-.1-.7a691.9 691.9 0 01-2-9.2 61 61 0 00-.7-3c-.1-.4-.4-.6-.8-.6-.5 0-.7.2-.8.5l-.1.4-.4 1c0 .5-.2 1-.4 1.4v.2a37.7 37.7 0 00-1 3.8l-.8 3.3-.5 2.1zm3-5.5l1.7-.1-.8-3.3-1 3.4zm6 3.9v2.4l.1.5c.2.2.4.2.7.2.3 0 .5 0 .7-.2l.2-.5c0-2 0-5 .2-8.8a24.1 24.1 0 00.7 1.9 20.9 20.9 0 01.8 2.3c0 .4.4.6.8.6l.5-.1.3-.5a42.5 42.5 0 01.9-2.7l.3-.8v-.1l.3-.6.1 8.8c0 .3.1.4.3.6l.6.1.6-.1c.2-.2.2-.3.2-.6a183.8 183.8 0 00-.2-10 234 234 0 000-2.4V29l-.2-.5-.6-.2-.6.1-.3.4v.1l-.3.4-.2.6-.4.9-.3.9a52.4 52.4 0 00-1 2.8 41.7 41.7 0 00-1.2-3.6l-.1-.2a20 20 0 00-.4-.8l-.2-.6-.2-.4v-.2c-.2-.2-.5-.4-1-.4-.3 0-.4 0-.5.2-.2.1-.2.3-.2.5v.4l-.1 1.2-.1 1.7v2.2l-.1 2.4-.1 2.5zm12.2-5.2V30h.3c.9 0 1.4 0 1.7.2.3.1.5.3.6.5l.2 1v.3c0 1-.1 1.5-.3 1.8-.3.3-1.1.4-2.5.4zm0-4.2zm0 10.8H84l1-.1c.3 0 .5-.2.7-.3.3-.4.5-1 .5-2 0-.9-.2-1.4-.5-1.7-.5-.5-1.4-.7-2.9-.7h-.2v4.8zm6.4.2l-.2.8v.1c0 .4.2.6.6.6h.7l.4-.5v-.6l.5-1.7.4-2 .1-.5H94a141.3 141.3 0 011.2 5.3l.5.1h.2c.2 0 .4-.1.5-.3l.2-.4v-.1l-.2-.7-.4-2.2a3085.7 3085.7 0 00-1.5-7 63 63 0 00-.7-3c-.1-.4-.4-.6-.8-.6h-.1c-.4 0-.7.2-.7.5l-.2.4-.3 1-.5 1.6-.5 1.9-.4 2-.6 2-.2 1.2L89 41zm3-5.5l1.6-.1a109 109 0 00-.7-3.3l-1 3.4zm19 4.1c-.3-.8-.4-2.4-.4-4.6 0-1.7.2-3 .5-3.8.4-.9.9-1.4 1.6-1.4.7 0 1.2.5 1.6 1.3.3.9.5 2.2.5 4 0 2-.1 3.4-.4 4.3-.2.6-.4 1-.7 1.2-.3.3-.6.4-1 .4-.8 0-1.3-.5-1.7-1.4zm7-4.6c0-1.8.2-3.3.7-4.4.3-.8.7-1.3 1.2-1.7a3 3 0 012-.8c1.4 0 2.5.8 3.1 2.4a18 18 0 01.2 9.4c-.6 1.9-1.7 2.8-3.4 2.8a3 3 0 01-2.1-.8 4 4 0 01-1.2-1.9c-.3-1-.5-2.7-.5-5zm2.2 4.6c-.3-.8-.5-2.4-.5-4.6 0-1.7.2-3 .6-3.8.3-.9.9-1.4 1.6-1.4.7 0 1.2.5 1.5 1.3.4.9.6 2.2.6 4 0 2-.2 3.4-.5 4.3-.1.6-.4 1-.7 1.2-.3.3-.6.4-1 .4-.7 0-1.3-.5-1.6-1.4zm7.4-10.4c0-.3 0-.5.3-.6.1-.2.4-.3.9-.3.8 0 1.6 0 2.2.3.7.2 1.4.5 1.9 1 1 1.1 1.6 2.9 1.7 5.3a22.2 22.2 0 01-.2 3.7c-.2 1-.6 2-1.1 2.5a4 4 0 01-2 1.1 8.6 8.6 0 01-2.5.3h-.2c-.3 0-.5 0-.7-.2a1 1 0 01-.2-.7 154.2 154.2 0 000-6.5V29.2zm1.8 2V30c1 0 1.8.4 2.3.9.7.7 1.1 2 1.2 4a40.8 40.8 0 01-.1 3.3c-.2.8-.4 1.3-.8 1.7-.5.5-1.3.8-2.6.9V35v-3.8z" fill="#6A737B"/>
  <defs>
    <radialGradient id="paint0_radial" cx="0" cy="0" r="1" gradientUnits="userSpaceOnUse" gradientTransform="matrix(17.6171 0 0 2.1363 26.2 51.2)">
      <stop stop-opacity=".7"/>
      <stop offset="1" stop-opacity="0"/>
    </radialGradient>
    <radialGradient id="paint1_radial" cx="0" cy="0" r="1" gradientUnits="userSpaceOnUse" gradientTransform="matrix(17.8178 0 0 15.5696 18 40.6)">
      <stop offset=".2" stop-color="#FDFEFF"/>
      <stop offset=".7" stop-color="#D9DDE3"/>
      <stop offset="1" stop-color="#C4CAD2"/>
    </radialGradient>
    <radialGradient id="paint2_radial" cx="0" cy="0" r="1" gradientUnits="userSpaceOnUse" gradientTransform="matrix(.00075 0 0 .00075 33.2 29.4)">
      <stop stop-color="#F0F3FF"/>
      <stop offset=".3" stop-color="#E9E9EF"/>
      <stop offset=".5" stop-color="#E2E3EA"/>
      <stop offset=".7" stop-color="#CED2DA"/>
      <stop offset=".9" stop-color="#AEB6C1"/>
      <stop offset="1" stop-color="#9EA8B5"/>
    </radialGradient>
    <radialGradient id="paint3_radial" cx="0" cy="0" r="1" gradientUnits="userSpaceOnUse" gradientTransform="matrix(.0027 0 0 .0027 33.3 29.4)">
      <stop stop-color="#F0F3FF"/>
      <stop offset=".3" stop-color="#E9E9EF"/>
      <stop offset=".5" stop-color="#E2E3EA"/>
      <stop offset=".7" stop-color="#CED2DA"/>
      <stop offset=".9" stop-color="#AEB6C1"/>
      <stop offset="1" stop-color="#9EA8B5"/>
    </radialGradient>
    <radialGradient id="paint4_radial" cx="0" cy="0" r="1" gradientUnits="userSpaceOnUse" gradientTransform="translate(33.3 29.3) scale(.00624)">
      <stop stop-color="#F0F3FF"/>
      <stop offset=".3" stop-color="#E9E9EF"/>
      <stop offset=".5" stop-color="#E2E3EA"/>
      <stop offset=".7" stop-color="#CED2DA"/>
      <stop offset=".9" stop-color="#AEB6C1"/>
      <stop offset="1" stop-color="#9EA8B5"/>
    </radialGradient>
    <radialGradient id="paint5_radial" cx="0" cy="0" r="1" gradientUnits="userSpaceOnUse" gradientTransform="matrix(2.419 0 0 .5178 34.5 29.7)">
      <stop stop-color="#F0F3FF"/>
      <stop offset=".3" stop-color="#E9E9EF"/>
      <stop offset=".5" stop-color="#E2E3EA"/>
      <stop offset=".7" stop-color="#CED2DA"/>
      <stop offset=".9" stop-color="#AEB6C1"/>
      <stop offset="1" stop-color="#9EA8B5"/>
    </radialGradient>
    <radialGradient id="paint6_radial" cx="0" cy="0" r="1" gradientUnits="userSpaceOnUse" gradientTransform="matrix(12.3576 0 0 10.8749 25.7 41.2)">
      <stop offset=".2" stop-color="#E2E7EB"/>
      <stop offset=".8" stop-color="#BEC5CE"/>
      <stop offset="1" stop-color="#B2B9C4"/>
    </radialGradient>
    <radialGradient id="paint7_radial" cx="0" cy="0" r="1" gradientUnits="userSpaceOnUse" gradientTransform="matrix(22.7009 0 0 11.9795 18.1 22)">
      <stop offset=".2" stop-color="#FDFEFF"/>
      <stop offset=".7" stop-color="#D9DDE3"/>
      <stop offset="1" stop-color="#C4CAD2"/>
    </radialGradient>
    <radialGradient id="paint8_radial" cx="0" cy="0" r="1" gradientUnits="userSpaceOnUse" gradientTransform="matrix(.58232 0 0 .41343 18.9 22)">
      <stop offset=".2" stop-color="#E2E7EB"/>
      <stop offset=".8" stop-color="#BEC5CE"/>
      <stop offset="1" stop-color="#B2B9C4"/>
    </radialGradient>
    <radialGradient id="paint9_radial" cx="0" cy="0" r="1" gradientUnits="userSpaceOnUse" gradientTransform="matrix(29.3784 0 0 25.521 18.3 34.4)">
      <stop offset=".2" stop-color="#E30E6F"/>
      <stop offset=".6" stop-color="#BF0766"/>
      <stop offset="1" stop-color="#9E005D"/>
    </radialGradient>
    <radialGradient id="paint10_radial" cx="0" cy="0" r="1" gradientUnits="userSpaceOnUse" gradientTransform="matrix(29.3987 0 0 14.2893 18.3 34.4)">
      <stop offset=".2" stop-color="#E30E6F"/>
      <stop offset=".6" stop-color="#BF0766"/>
      <stop offset="1" stop-color="#9E005D"/>
    </radialGradient>
    <radialGradient id="paint11_radial" cx="0" cy="0" r="1" gradientUnits="userSpaceOnUse" gradientTransform="matrix(29.3825 0 0 25.4511 18.3 34.4)">
      <stop offset=".2" stop-color="#E30E6F"/>
      <stop offset=".6" stop-color="#BF0766"/>
      <stop offset="1" stop-color="#9E005D"/>
    </radialGradient>
    <radialGradient id="paint12_radial" cx="0" cy="0" r="1" gradientUnits="userSpaceOnUse" gradientTransform="matrix(29.3762 0 0 21.6475 18.3 34.4)">
      <stop offset=".2" stop-color="#E30E6F"/>
      <stop offset=".6" stop-color="#BF0766"/>
      <stop offset="1" stop-color="#9E005D"/>
    </radialGradient>
  </defs>
</svg>
