<svg fill="none" xmlns="http://www.w3.org/2000/svg" viewBox="0 0 143 64">
  <path fill-rule="evenodd" clip-rule="evenodd" d="M3.5 20.7l11.8 18.1V20.7h2.5V43h-3L3 24.8V43H.6V20.7h3zM26.4 43.2c2.3 0 3.5-.5 4.9-2.3v2h2.4c-.3-1.3-.3-2.8-.3-4.2v-5.3c0-4-1.6-5.7-5.6-5.7-3.6 0-5.4 1.8-6 4.8h2.3c.5-2.1 1.7-3 3.6-3 2.5 0 3.6 1.2 3.6 3.9v.8h-2.6c-4.6 0-7.2 1.5-7.2 4.5 0 2.8 2 4.5 4.9 4.5zm-2.6-4.5zm3.1 2.5c-1.7 0-3-1-3-2.5 0-1.7 1.9-2.7 5.1-2.7h2.3v.5c0 1.5-.4 2.7-1.4 3.5-.8.8-1.9 1.2-3 1.2zM57.5 43h-2.1V33c0-2.3-1-3.5-3.2-3.5-1.5 0-3.4 1.3-3.4 4.2V43h-2.2V33c0-2.3-1.3-3.5-3.3-3.5-1.9 0-3.5 2-3.5 4.9V43h-2.2V27.9h2.2v2.3c1.1-1.7 2.6-2.5 4.3-2.5 2.2 0 3.4 1.2 4.1 2.8 1.2-1.6 2.5-2.8 4.5-2.8 3.2 0 4.8 1.9 4.8 5.2v10zM62.3 43h2.2v-2.7c.5 1 2.7 2.9 4.8 2.9 4.6 0 7.1-3.4 7.1-7.8 0-4.6-2.8-7.7-7.1-7.7-2 0-3.8 1.3-4.8 2.7v-9.7h-2.2V43zm2.2-7.6c0-2.9 1.6-5.6 4.8-5.6 3 0 4.7 2.6 4.7 5.6 0 2.9-1.7 5.8-4.7 5.8s-4.8-2.5-4.8-5.8zM84.6 43.2c2.2 0 3.5-.5 4.8-2.3 0 .5 0 1.5.2 2h2.2c-.2-1.3-.2-2.8-.2-4.2v-5.3c0-4-1.7-5.7-5.6-5.7-3.6 0-5.4 1.8-6 4.8h2.3c.5-2.1 1.7-3 3.6-3 2.4 0 3.5 1.2 3.5 3.9v.8h-2.6c-4.5 0-7.1 1.5-7.1 4.5 0 2.8 2 4.5 4.9 4.5zM82 38.7zm3.1 2.5c-1.7 0-3-1-3.1-2.5 0-1.7 2-2.7 5.2-2.7h2.2v.5c0 1.5-.3 2.7-1.3 3.5-.8.8-1.9 1.2-3 1.2zM93.2 23v-2.3h15.5V23h-6.5v20h-2.5V23h-6.5zM113.4 43.2c2.3 0 3.5-.5 4.8-2.3 0 .5 0 1.5.2 2h2.3c-.3-1.3-.3-2.8-.3-4.2v-5.3c0-4-1.7-5.7-5.6-5.7-3.6 0-5.4 1.8-6 4.8h2.3c.5-2.1 1.7-3 3.6-3 2.5 0 3.5 1.2 3.5 3.9v.8h-2.5c-4.6 0-7.2 1.5-7.2 4.5 0 2.8 2 4.5 4.9 4.5zm-2.6-4.5zm3.1 2.5c-1.7 0-3-1-3-2.5 0-1.7 1.9-2.7 5.1-2.7h2.2v.5c0 1.5-.3 2.7-1.3 3.5-.8.8-1.9 1.2-3 1.2zM133.9 27.9h2.6l-5 7.4 5.4 7.7H134l-4.2-6.1-4.2 6H123l5.3-7.6-5-7.4h2.6l4 5.8 4-5.8zM139.9 27.9h2.3v15H140V28z" fill="#DFDFDF"/>
  <path fill-rule="evenodd" clip-rule="evenodd" d="M141 20c-1 0-1.7.8-1.7 1.8a1.7 1.7 0 103.5 0c0-1-.8-1.8-1.8-1.8z" fill="#D8272D"/>
</svg>
