<svg fill="none" xmlns="http://www.w3.org/2000/svg" width="208" height="82" viewBox="0 0 208 82">
  <path fill-rule="evenodd" clip-rule="evenodd" d="M17.29 0A16.4 16.4 0 00.89 16.4v41a16.4 16.4 0 1032.8 0V56l21.17 21.17.34.33a16.4 16.4 0 0027.68-11.9v-41a16.4 16.4 0 10-32.8 0V26L28.99 4.9A16.35 16.35 0 0017.28 0zM11.5 10.63a8.18 8.18 0 000 11.57l49.15 49.15a8.18 8.18 0 0011.57-11.58L23.1 10.63a8.18 8.18 0 00-11.58 0zm12.86 42.7a8.2 8.2 0 10-14.17 0l5.26 11.2a2.05 2.05 0 003.6 0h.02l5.29-11.2zm42.2-37.45c-.91 0-1.69.6-1.95 1.43l-2.26 4.8-5.51.99a2.05 2.05 0 00-1.4 3.44c.1.12.23.22.35.3l3.69 3.14-1.13 5.4a2.05 2.05 0 002.67 2.59c.15-.06.28-.13.41-.22l5.1-2.66 5.1 2.66c.13.1.26.16.4.22h.01a2.05 2.05 0 002.67-2.6l-1.14-5.45 3.61-3.07a2.05 2.05 0 00-1.05-3.75l-5.32-.97-2.31-4.86a2.05 2.05 0 00-1.94-1.39z" fill="#FD384C"/>
  <path fill-rule="evenodd" clip-rule="evenodd" d="M111.06 24.08l-5.6-6.79c-.82-.98-1.56-1.4-2.57-1.4-2.2 0-3.64 1.5-3.64 3.76v13.37c0 1.56.15 2.2.73 3a3.45 3.45 0 002.76 1.34c1.07 0 2.05-.45 2.66-1.25.61-.77.8-1.44.8-2.78v-4.44l5.6 7.07c.76.95 1.65 1.4 2.75 1.4 1.07 0 2.08-.45 2.73-1.28.6-.8.76-1.5.76-3.18V19.98c0-1.34-.24-2.08-.83-2.78a3.5 3.5 0 00-2.66-1.29c-1.13 0-2.23.58-2.84 1.53-.5.74-.65 1.35-.65 2.76v3.88zm15.76 10.38h6.5c1 2.17 1.92 2.9 3.57 2.9a3.47 3.47 0 003.1-5.14l-6.65-14.16a3.6 3.6 0 00-6.52-.1l-6.58 14.08a4.57 4.57 0 00-.42 1.84c0 1.95 1.5 3.48 3.42 3.48 1.66 0 2.7-.85 3.58-2.9zm1.14-5.05l2.08-5.7 2.13 5.7h-4.2zm22.98-11.14l3.15 7 3.52-7.49a3.41 3.41 0 013.06-1.87c.86 0 1.78.37 2.42.95.55.55.89 1.2 1.07 2.33l2.42 13.62c.09.45.12.8.12 1.22a3.38 3.38 0 01-3.43 3.33c-1.77 0-3.18-1.07-3.45-2.66l-.8-4.98-1.35 4.77c-.7 1.9-1.92 2.87-3.58 2.87-1.68 0-2.84-.91-3.55-2.84l-1.4-4.8-.59 4.4c-.33 2.02-1.65 3.24-3.49 3.24-2.05 0-3.48-1.56-3.48-3.79 0-.28.03-.58.06-.86l2.38-13.52c.22-1.17.52-1.8 1.23-2.42.61-.58 1.4-.86 2.2-.86 1.5 0 2.88.92 3.5 2.36zm21.42-2.2a3.5 3.5 0 00-3.6 3.58l.02 1.04v11.96c0 1.38 0 1.62.06 1.87.1.58.43 1.22.86 1.65.73.83 1.4 1.04 2.97 1.04h5.57c2.72 0 3.64-.27 5.08-1.56a6.18 6.18 0 002.11-4.71c0-2-.64-3.43-2.3-5.02.74-1.32.95-2.05.95-3.24 0-2.08-.92-4.04-2.48-5.24-1.44-1.1-2.6-1.37-6.27-1.37h-2.97zm-63.65 41.45h-2.51v3.36c0 2.02-.06 2.45-.55 3.28a3.42 3.42 0 01-2.97 1.62c-1.26 0-2.45-.7-3-1.8-.37-.74-.43-1.2-.43-3.13v-12.2c0-1.87.4-2.82 1.5-3.56.77-.52 1.38-.6 3.49-.6h4.2c2.25 0 2.68.05 3.51.54a3.1 3.1 0 011.53 2.66c0 .95-.46 1.96-1.16 2.58-.58.52-1.32.76-2.6.76h-3.52v1.44h2.17c1.2 0 1.68.09 2.23.43.7.4 1.17 1.16 1.17 2.08 0 1.65-1.1 2.54-3.06 2.54zm17.05-13.62c-6.09 0-11.14 4.9-11.1 10.86 0 6.34 4.86 11.36 11.04 11.36 6.21 0 11.23-5 11.23-11.14a11.1 11.1 0 00-11.17-11.08zm0 6.98c2.3 0 4.2 1.86 4.2 4.1a4.17 4.17 0 11-8.36-.06c0-2.2 1.93-4.04 4.16-4.04zm12.59 3.88c-.03-5.96 5.02-10.86 11.1-10.86a11.1 11.1 0 0111.18 11.08c0 6.15-5.02 11.14-11.23 11.14-6.19 0-11.05-5.02-11.05-11.36zm15.3.22a4.18 4.18 0 00-8.36-.06 4.17 4.17 0 108.35.06zm17.27-10.5h-4.26c-1.5 0-2.54.43-3.24 1.26-.64.82-.73 1.19-.73 3.52v11.62c0 2.02.09 2.51.52 3.19.8 1.19 1.74 1.56 4 1.56h2.94c3.98 0 6.34-.77 8.57-2.82a10.65 10.65 0 00-.15-15.67c-2.02-1.8-4.47-2.66-7.65-2.66zM169.63 51h.58a6.1 6.1 0 012.67.43 4.04 4.04 0 012.26 3.6c0 1.36-.67 2.64-1.71 3.37-.8.62-1.38.7-3.8.74V51zm4.77-30.02h3.1a1.65 1.65 0 010 3.3h-3.1v-3.3zm3.1 7.44h-3.1v3.31h3.1a1.65 1.65 0 000-3.3z" fill="#59656B"/><path d="M193.6 34.46h6.49c1 2.17 1.92 2.9 3.58 2.9a3.47 3.47 0 003.09-5.14l-6.64-14.16a3.6 3.6 0 00-6.52-.1l-6.58 14.08a4.57 4.57 0 00-.43 1.84c0 1.95 1.5 3.48 3.43 3.48 1.65 0 2.7-.85 3.58-2.9zm1.14-5.05l2.07-5.7 2.14 5.7h-4.21z" fill="#59656B"/>
</svg>
