<svg fill="none" xmlns="http://www.w3.org/2000/svg" viewBox="0 0 193 61"><g clip-path="url(#clip0)"><path fill-rule="evenodd" clip-rule="evenodd" d="M32.2 0A12.2 12.2 0 0020 12.2v30.5a12.2 12.2 0 1024.4 0v-1.05L60.15 57.4l.26.25A12.2 12.2 0 0081 48.8V18.3a12.2 12.2 0 10-24.4 0v1.05L40.9 3.65A12.16 12.16 0 0032.2 0zm-4.3 7.9a6.09 6.09 0 000 8.62l36.56 36.55a6.09 6.09 0 108.61-8.6L36.52 7.9a6.09 6.09 0 00-8.61 0zm9.57 31.77a6.1 6.1 0 10-10.54 0l3.91 8.34a1.52 1.52 0 002.69 0l3.94-8.34zm31.4-27.85c-.69 0-1.26.44-1.46 1.06l-1.68 3.56-4.1.74a1.53 1.53 0 00-1.04 2.57c.08.08.17.16.26.22l2.75 2.33-.84 4.02a1.53 1.53 0 001.98 1.93c.11-.05.21-.1.3-.16l3.8-1.98 3.8 1.98a1.52 1.52 0 002.3-1.77l-.86-4.06 2.69-2.29c.1-.06.18-.14.26-.22A1.52 1.52 0 0076 17.18l-3.97-.72-1.71-3.61a1.52 1.52 0 00-1.44-1.03z" fill="#FD384C"/><path fill-rule="evenodd" clip-rule="evenodd" d="M101.96 17.92l-4.16-5.06c-.62-.73-1.17-1.04-1.92-1.04-1.64 0-2.7 1.11-2.7 2.8v9.94c0 1.16.1 1.64.54 2.23.48.64 1.25 1 2.05 1 .8 0 1.52-.34 1.98-.93.46-.57.6-1.07.6-2.07v-3.3l4.16 5.26c.57.7 1.23 1.05 2.05 1.05.8 0 1.55-.35 2.02-.96.46-.6.57-1.12.57-2.37v-9.6c0-1-.18-1.55-.61-2.08a2.6 2.6 0 00-1.98-.95c-.84 0-1.67.43-2.12 1.14-.36.54-.48 1-.48 2.05v2.89zm11.73 7.71h4.82c.75 1.62 1.44 2.17 2.67 2.17a2.58 2.58 0 002.3-3.83l-4.95-10.54a2.67 2.67 0 00-4.84-.07l-4.9 10.47c-.2.46-.32.94-.32 1.37 0 1.46 1.12 2.6 2.55 2.6 1.23 0 2-.64 2.67-2.17zm.84-3.75l1.55-4.25 1.59 4.25h-3.14zm17.1-8.29l2.34 5.21 2.62-5.57a2.54 2.54 0 012.28-1.4c.63 0 1.32.28 1.8.71.4.41.66.9.8 1.73l1.79 10.13c.07.35.1.6.1.91a2.52 2.52 0 01-2.56 2.49c-1.32 0-2.37-.8-2.57-1.98l-.6-3.71-1 3.55c-.52 1.4-1.43 2.14-2.66 2.14-1.25 0-2.12-.69-2.64-2.12l-1.05-3.57-.43 3.27c-.25 1.5-1.23 2.42-2.6 2.42-1.52 0-2.59-1.17-2.59-2.83 0-.2.02-.43.05-.63l1.77-10.07c.16-.86.39-1.34.91-1.8a2.36 2.36 0 011.64-.63c1.12 0 2.14.68 2.6 1.75zm15.93-1.64a2.6 2.6 0 00-2.68 2.67l.02.77v8.9c0 1.02 0 1.2.04 1.39.07.43.32.9.64 1.23.55.61 1.05.77 2.21.77h4.14c2.03 0 2.71-.2 3.78-1.16a4.6 4.6 0 001.57-3.5c0-1.48-.47-2.55-1.7-3.74a4.9 4.9 0 00-1.14-6.3c-1.07-.82-1.94-1.03-4.67-1.03h-2.2zM100.21 42.8h-1.87v2.5c0 1.5-.04 1.82-.4 2.44-.44.75-1.3 1.2-2.22 1.2a2.5 2.5 0 01-2.23-1.34c-.27-.55-.32-.89-.32-2.32v-9.08c0-1.4.3-2.1 1.12-2.64.57-.4 1.02-.46 2.6-.46H100c1.69 0 2 .05 2.62.41a2.3 2.3 0 011.14 1.98c0 .7-.34 1.46-.87 1.91-.43.39-.97.57-1.93.57h-2.62v1.07h1.62c.89 0 1.25.07 1.66.32.52.3.86.87.86 1.55 0 1.23-.81 1.89-2.27 1.89zm12.69-10.13a8.2 8.2 0 00-8.27 8.08 8.27 8.27 0 008.22 8.44 8.25 8.25 0 10.05-16.53zm0 5.19c1.7 0 3.11 1.39 3.11 3.05a3.1 3.1 0 11-6.21-.05c0-1.64 1.43-3 3.1-3zm9.36 2.89a8.2 8.2 0 018.26-8.08 8.25 8.25 0 11-.04 16.52 8.27 8.27 0 01-8.22-8.44zm11.38.16a3.11 3.11 0 00-6.21-.05 3.1 3.1 0 106.21.05zm12.85-7.81h-3.17c-1.11 0-1.89.32-2.41.93-.48.62-.55.9-.55 2.62v8.65c0 1.5.07 1.87.39 2.37.6.89 1.3 1.16 2.98 1.16h2.19c2.96 0 4.71-.57 6.37-2.1a7.92 7.92 0 00-.11-11.65c-1.5-1.34-3.33-1.98-5.7-1.98zm-.96 4.85h.43c.91 0 1.5.09 1.98.32a3 3 0 011.69 2.68c0 1-.5 1.96-1.28 2.5-.59.46-1.02.53-2.82.55v-6.05zm3.54-22.33h2.31a1.23 1.23 0 010 2.46h-2.3V15.6zm2.31 5.53h-2.3v2.47h2.3a1.23 1.23 0 000-2.47z" fill="#59656B"/><path d="M163.36 25.63h4.83c.75 1.62 1.43 2.17 2.66 2.17a2.58 2.58 0 002.3-3.83l-4.94-10.54a2.67 2.67 0 00-4.85-.07l-4.9 10.47c-.2.46-.31.94-.31 1.37 0 1.46 1.11 2.6 2.55 2.6 1.23 0 2-.64 2.66-2.17zm.85-3.75l1.54-4.25 1.59 4.25h-3.13z" fill="#59656B"/></g><defs><clipPath id="clip0"><path fill="#fff" d="M0 0h193v61H0z"/></clipPath></defs></svg>