<svg width="144" height="64" viewBox="0 0 144 64" fill="none" xmlns="http://www.w3.org/2000/svg">
<g clip-path="url(#clip0)">
<path fill-rule="evenodd" clip-rule="evenodd" d="M3.88104 20.874L15.66 38.733H15.6918V20.874H18.0963V42.8087H15.0668L3.34965 24.9143V42.8087H0.943359V20.874H3.88104Z" fill="#101113"/>
<path fill-rule="evenodd" clip-rule="evenodd" d="M26.7099 43.0592C28.9908 43.0592 30.2407 42.5263 31.5842 40.8018V40.7718C31.5842 41.2728 31.616 42.2448 31.7078 42.8096H33.9887C33.708 41.4304 33.708 39.9892 33.708 38.6099V33.4082C33.708 29.4282 32.0838 27.7373 28.1469 27.7373C24.5525 27.7373 22.7412 29.4919 22.1462 32.4982H24.4607C24.9285 30.4302 26.1485 29.584 28.0533 29.584C30.4896 29.584 31.5842 30.7436 31.5842 33.3764V34.1607H28.9908C24.4607 34.1607 21.8037 35.6001 21.8037 38.6099C21.8037 41.3046 23.834 43.0592 26.7099 43.0592ZM24.1467 38.6119C24.1465 38.6012 24.1465 38.5906 24.1465 38.5799V38.6418C24.1465 38.6319 24.1465 38.6218 24.1467 38.6119ZM27.2713 41.0213C25.5021 41.0213 24.1649 40.157 24.1467 38.6119C24.1686 36.8762 26.1017 35.9153 29.3333 35.9153H31.5842V36.3844C31.5842 37.8575 31.2082 39.111 30.2725 39.8953C29.4587 40.6142 28.3658 41.0213 27.2713 41.0213Z" fill="#101113"/>
<path fill-rule="evenodd" clip-rule="evenodd" d="M57.8791 42.8096H55.6934V33.1267C55.6934 30.8392 54.7878 29.6494 52.5368 29.6494C51.068 29.6494 49.1331 30.9631 49.1331 33.7534L49.1631 42.8096H46.9457V33.1267C46.9457 30.8074 45.664 29.6494 43.662 29.6494C41.7571 29.6494 40.1329 31.5899 40.1329 34.4422V42.8096H37.9473V27.9232H40.1329V30.2426C41.2574 28.5181 42.7263 27.7373 44.4141 27.7373C46.5997 27.7373 47.8496 28.9271 48.5699 30.5577C49.6944 28.959 51.038 27.7373 53.0064 27.7373C56.2248 27.7373 57.8791 29.6176 57.8791 32.8452V42.8096Z" fill="#101113"/>
<path fill-rule="evenodd" clip-rule="evenodd" d="M62.6416 42.8087H64.829V40.176C65.2968 41.21 67.5159 42.9946 69.6079 42.9946C74.2334 42.9946 76.7333 39.6732 76.7333 35.3815C76.7333 30.7747 73.9527 27.7365 69.6079 27.7365C67.6713 27.7365 65.7964 29.052 64.829 30.4294V20.874H62.6416V42.8087ZM64.829 35.3815C64.829 32.531 66.4214 29.8027 69.6398 29.8027C72.671 29.8027 74.3269 32.4354 74.3269 35.3815C74.3269 38.1718 72.671 41.0206 69.6715 41.0206C66.7021 41.0206 64.829 38.6092 64.829 35.3815Z" fill="#101113"/>
<path fill-rule="evenodd" clip-rule="evenodd" d="M84.9002 43.0592C87.1795 43.0592 88.4294 42.5263 89.7745 40.8018V40.7718C89.7745 41.2728 89.8049 42.2448 89.8979 42.8096H92.1787C91.8963 41.4304 91.8963 39.9892 91.8963 38.6099V33.4082C91.8963 29.4282 90.2742 27.7373 86.3356 27.7373C82.7429 27.7373 80.9298 29.4919 80.3366 32.4982H82.6493C83.1172 30.4302 84.3371 29.584 86.2438 29.584C88.6783 29.584 89.7745 30.7436 89.7745 33.3764V34.1607H87.1795C82.6493 34.1607 79.9941 35.6001 79.9941 38.6099C79.9941 41.3046 82.0226 43.0592 84.9002 43.0592ZM82.337 38.6119C82.3369 38.6012 82.3368 38.5906 82.3368 38.5799V38.6418C82.3368 38.6319 82.3369 38.6218 82.337 38.6119ZM85.4617 41.0213C83.6926 41.0213 82.3553 40.157 82.337 38.6119C82.3589 36.8762 84.292 35.9153 87.5237 35.9153H89.7745V36.3844C89.7745 37.8575 89.3985 39.111 88.4611 39.8953C87.649 40.6142 86.5544 41.0213 85.4617 41.0213Z" fill="#101113"/>
<path fill-rule="evenodd" clip-rule="evenodd" d="M93.5381 23.0978V20.874H109.036V23.0978H102.507V42.8087H100.069V23.0978H93.5381Z" fill="#101113"/>
<path fill-rule="evenodd" clip-rule="evenodd" d="M113.705 43.0592C115.987 43.0592 117.236 42.5263 118.579 40.8018V40.7718C118.579 41.2728 118.613 42.2448 118.704 42.8096H120.986C120.704 41.4304 120.704 39.9892 120.704 38.6099V33.4082C120.704 29.4282 119.081 27.7373 115.144 27.7373C111.55 27.7373 109.738 29.4919 109.145 32.4982H111.456C111.925 30.4302 113.142 29.584 115.049 29.584C117.486 29.584 118.579 30.7436 118.579 33.3764V34.1607H115.987C111.456 34.1607 108.799 35.6001 108.799 38.6099C108.799 41.3046 110.831 43.0592 113.705 43.0592ZM111.143 38.6119C111.143 38.6012 111.143 38.5906 111.143 38.5799V38.6418C111.143 38.6319 111.143 38.6218 111.143 38.6119ZM114.269 41.0213C112.499 41.0213 111.162 40.157 111.143 38.6119C111.165 36.8762 113.099 35.9153 116.33 35.9153H118.579V36.3844C118.579 37.8575 118.205 39.111 117.268 39.8953C116.456 40.6142 115.361 41.0213 114.269 41.0213Z" fill="#101113"/>
<path fill-rule="evenodd" clip-rule="evenodd" d="M134.221 27.9561H136.878L131.753 35.2576L137.191 42.8087H134.44L130.191 36.8227L126.003 42.8087H123.284L128.66 35.2576L123.629 27.9561H126.254L130.222 33.7208L134.221 27.9561Z" fill="#101113"/>
<path fill-rule="evenodd" clip-rule="evenodd" d="M140.208 27.9229H142.552V42.8074H140.208V27.9229Z" fill="#101113"/>
<path fill-rule="evenodd" clip-rule="evenodd" d="M141.381 20.1875C140.414 20.1875 139.652 20.9506 139.652 21.9191C139.652 22.8857 140.414 23.6488 141.381 23.6488C142.345 23.6488 143.104 22.8857 143.104 21.9191C143.104 20.9506 142.345 20.1875 141.381 20.1875Z" fill="#D8272D"/>
</g>
<defs>
<clipPath id="clip0">
<rect width="143" height="63" fill="white" transform="translate(0.333008 0.5)"/>
</clipPath>
</defs>
</svg>
