<svg width="143" height="63" viewBox="0 0 143 63" fill="none" xmlns="http://www.w3.org/2000/svg">
<path fill-rule="evenodd" clip-rule="evenodd" d="M26.1904 53.0784C36.5716 53.0784 44.9872 52.066 44.9872 50.8171C44.9872 49.5681 36.5716 48.5557 26.1904 48.5557C15.8092 48.5557 7.39355 49.5681 7.39355 50.8171C7.39355 52.066 15.8092 53.0784 26.1904 53.0784Z" fill="url(#paint0_radial)"/>
<path fill-rule="evenodd" clip-rule="evenodd" d="M38.8977 32.2137C38.8977 32.2137 38.4128 30.5702 37.9247 30.5363C37.4385 30.4998 34.9706 30.7637 33.3533 30.8055C31.736 30.8472 29.4103 31.4426 27.2209 31.3591C25.0308 31.2789 23.4095 30.8181 22.3492 30.5868C21.7803 30.4607 19.9778 30.4853 18.3738 30.5324C16.2882 30.2652 14.6345 29.5923 13.6258 29.1865C13.4029 29.217 13.2045 29.2309 12.9756 29.2309C13.0034 30.8533 13.051 32.6976 13.1357 34.6189C13.1555 35.1805 13.1846 35.7698 13.2203 36.3711L13.2362 36.6676L13.2382 36.6596C13.3579 38.5424 13.5365 40.4989 13.6906 42.0237L13.6337 41.9024C13.9969 45.503 14.5532 48.6435 15.3906 50.2021C17.1024 50.9606 19.8402 51.44 22.8394 51.6594C21.1678 51.5221 19.5035 51.2974 17.9259 50.9712C21.5535 51.3312 24.4797 51.5566 26.8379 51.5566C33.9949 51.5566 35.9079 50.6974 36.4006 49.7036H36.9927L38.8977 32.213V32.2137Z" fill="url(#paint1_radial)"/>
<path fill-rule="evenodd" clip-rule="evenodd" d="M33.241 29.1709L33.2393 29.1726L33.241 29.1709Z" fill="url(#paint2_radial)"/>
<path fill-rule="evenodd" clip-rule="evenodd" d="M33.2685 29.1523L33.2617 29.1546L33.2685 29.1523Z" fill="url(#paint3_radial)"/>
<path fill-rule="evenodd" clip-rule="evenodd" d="M33.3156 29.1133L33.3027 29.1237L33.3156 29.1133Z" fill="url(#paint4_radial)"/>
<path fill-rule="evenodd" clip-rule="evenodd" d="M33.3545 29.083C34.7865 29.4874 36.0718 29.7599 37.2161 29.9031C36.0711 29.7573 34.7885 29.4827 33.3545 29.083Z" fill="url(#paint5_radial)"/>
<path fill-rule="evenodd" clip-rule="evenodd" d="M12.9724 28.7109C13.44 28.8581 13.9487 28.9993 14.5004 29.1326C15.5355 29.3819 17.6655 30.0422 19.6803 30.0422C20.6381 30.0422 21.5708 29.7352 22.3473 29.3215C22.7905 29.9587 24.8846 31.1626 27.4869 31.1626C27.7316 31.1626 27.977 31.1546 28.2304 31.1361C29.8377 31.0088 31.588 30.4598 33.2377 29.173L33.2383 29.1724L33.2588 29.1558L33.2647 29.1538L33.2992 29.1253L33.3117 29.1154L33.3507 29.0848C34.7828 29.4892 36.068 29.7618 37.2124 29.9049C37.8877 29.9964 38.5168 30.0388 39.0956 30.0388L39.4177 30.0342C39.1888 35.9095 38.6756 44.4413 37.5457 50.2039C36.5635 50.7595 34.7874 51.205 32.5715 51.4894C30.8391 51.6969 28.8554 51.8024 26.8373 51.8024C25.4972 51.8024 24.1425 51.7559 22.8368 51.6604C21.1653 51.5233 19.501 51.2985 17.9234 50.9723C21.5509 51.3323 24.4772 51.4755 26.8353 51.4755C35.6784 51.4755 36.5192 49.4568 36.5595 49.2485C38.7668 38.928 38.1728 30.9504 37.9804 30.9167C37.3903 30.8106 36.6416 30.7271 35.7459 30.7271C34.3867 30.7271 32.6907 30.924 30.6844 31.5385C29.6849 31.8468 28.4863 31.9761 27.1846 31.9761C26.6554 31.9761 25.5183 31.9137 25.4992 31.9118C18.7648 31.1653 16.1481 30.1602 12.9724 29.236L12.9697 28.7143" fill="url(#paint6_radial)"/>
<path fill-rule="evenodd" clip-rule="evenodd" d="M22.349 29.4796L22.353 29.469C23.4001 30.317 25.0339 30.7864 26.6281 30.7864C29.0186 30.7864 31.2947 29.7209 31.2828 27.2613C33.0456 28.1417 34.596 28.5177 35.9335 28.5177C40.1325 28.5177 42.228 24.8196 42.228 21.5352C42.228 19.7094 40.9025 16.3726 37.0567 15.3185C36.6255 15.1992 35.278 14.9366 34.4896 15.0275C31.9998 15.3185 30.9885 15.4478 30.0677 15.4478C29.5769 15.4478 29.1073 15.3298 28.4431 14.9665C27.5211 14.4626 24.6562 13.2063 23.6468 13.0597C22.2121 12.8569 20.9031 12.7607 19.7071 12.7607H19.5028C9.77859 12.7607 7.79883 19.0152 7.79883 22.8737C7.79883 25.5071 8.709 27.3787 12.9662 28.7119H12.9741C19.991 31.1636 22.3484 29.4803 22.3484 29.4803L22.349 29.4796Z" fill="url(#paint7_radial)"/>
<path fill-rule="evenodd" clip-rule="evenodd" d="M37.0572 15.3174C40.8368 16.6632 42.2286 19.7083 42.2286 21.5341C42.2286 24.8198 40.1331 28.5165 35.9341 28.5165C34.5966 28.5165 33.0461 28.1407 31.2834 27.2602C31.2952 29.7199 29.0178 30.7853 26.6286 30.7853C25.0358 30.7853 23.4019 30.3152 22.3535 29.4679L22.3496 29.4786C22.7948 30.1136 24.889 31.1605 27.4891 31.1605C27.7339 31.1605 27.978 31.1161 28.2326 31.134C31.3654 31.3389 33.3411 29.0933 33.3537 29.0821C34.7884 29.4818 36.071 29.7563 37.2154 29.9022C37.8814 29.9877 38.4999 30.0314 39.0714 30.0314L39.4213 30.0248H39.4584C40.2329 29.9983 40.9156 29.8869 41.5155 29.7C43.994 28.8885 45.0338 26.9791 44.8129 23.2406L44.758 22.6213C44.5986 20.9394 43.7129 19.3297 42.1446 17.844C40.8937 16.7368 39.1938 15.8411 37.0566 15.318" fill="url(#paint8_radial)"/>
<path fill-rule="evenodd" clip-rule="evenodd" d="M30.3639 35.2511C28.9966 35.2511 27.3509 35.9811 26.706 36.3344C26.2317 35.6542 25.3076 35.2511 24.1891 35.2511C24.0112 35.2511 23.816 35.2717 23.6136 35.3088C22.1769 35.4208 21.6749 35.3506 20.7647 35.1669C19.7269 34.9574 18.7929 33.2821 18.7419 32.5469C18.015 33.7688 18.2373 35.1537 18.9847 36.0666V45.7136H21.4262V37.7718C21.4262 37.7718 22.5712 37.0929 23.4926 37.0929C24.6475 37.0929 24.9795 38.2617 24.9451 39.4438C25.819 38.6681 26.5016 38.0986 27.2762 37.7068C27.7141 37.4841 28.5462 37.1539 29.3922 37.1539C31.0128 37.1539 31.1841 38.7198 31.1841 40.6597V45.7016L31.9547 45.7115H33.5739V40.3951C33.5759 37.5232 33.1539 35.2505 30.3639 35.2505V35.2511Z" fill="url(#paint9_radial)"/>
<path fill-rule="evenodd" clip-rule="evenodd" d="M29.6691 42.7992C29.5453 42.1403 28.3117 40.5915 27.2441 42.6952C28.0465 41.826 28.9626 41.8678 29.6691 42.7992Z" fill="url(#paint10_radial)"/>
<path fill-rule="evenodd" clip-rule="evenodd" d="M26.896 49.091C27.8498 48.8484 29.5194 47.8048 29.9698 43.534H29.9705C29.9785 43.4524 29.9335 43.3709 29.8567 43.3364C29.7787 43.3032 29.6907 43.3265 29.6385 43.3888C27.2598 46.2396 25.2403 46.6652 24.2488 46.6652C23.7643 46.6652 23.4704 46.5658 23.436 46.5543C23.4338 46.5535 23.4327 46.5531 23.4326 46.5531C23.3671 46.5259 23.2917 46.5432 23.2375 46.5916C23.1839 46.6393 23.1634 46.7163 23.1832 46.7845C23.5688 48.1158 24.95 49.1613 26.3285 49.1613C26.5249 49.1613 26.7161 49.1354 26.896 49.091ZM26.4872 47.7021C26.8352 47.2406 27.1798 46.9503 27.3888 46.8143V46.8137C27.8068 46.811 28.1468 46.9145 28.3678 47.2911C27.8876 48.438 26.0553 49.3436 24.4122 48.0913C24.4122 48.0913 25.671 47.1651 26.8404 46.8906C26.6671 47.0331 26.5296 47.3275 26.4872 47.7021Z" fill="url(#paint11_radial)"/>
<path fill-rule="evenodd" clip-rule="evenodd" d="M25.0484 42.743C25.0662 42.6667 25.0966 42.5932 25.0966 42.5077C25.0966 41.9269 24.629 41.4521 24.0535 41.4521C23.478 41.4521 23.0137 41.9275 23.0137 42.5077C23.0137 42.6787 23.0607 42.8345 23.1314 42.9751C23.6467 42.7284 24.4021 42.4858 25.0484 42.7437V42.743Z" fill="url(#paint12_radial)"/>
<path fill-rule="evenodd" clip-rule="evenodd" d="M108.865 34.7358C108.865 32.8927 109.09 31.4196 109.541 30.3151C109.823 29.6024 110.21 29.0415 110.702 28.6291C111.256 28.1518 111.921 27.9131 112.694 27.9131C114.172 27.9131 115.223 28.6854 115.848 30.2302C116.292 31.2777 116.513 32.778 116.513 34.7351C116.513 36.913 116.349 38.5353 116.017 39.6034C115.441 41.4266 114.335 42.3381 112.694 42.3381C111.816 42.3381 111.095 42.0869 110.532 41.5797C110.033 41.152 109.65 40.5348 109.383 39.7207C109.039 38.6632 108.866 37.0012 108.866 34.7351L108.865 34.7358ZM102.587 28.3487C102.424 28.5111 102.345 28.7199 102.345 28.9752H102.346L102.357 29.0673L102.361 29.3186L102.378 29.7171L102.399 30.264L102.42 30.9323L102.44 31.7239L102.456 32.6123L102.466 33.5975C102.47 33.9495 102.472 34.3036 102.472 34.6602C102.472 35.0149 102.47 35.3848 102.466 35.7634L102.456 36.8579L102.444 37.9015C102.441 38.232 102.435 38.5448 102.429 38.8337L102.429 38.8674L102.407 39.7194L102.393 40.442L102.381 40.991L102.377 41.3569L102.365 41.4842C102.35 41.6546 102.405 41.8137 102.528 41.9636C102.652 42.1134 102.871 42.1889 103.189 42.1889C103.518 42.1889 103.744 42.1273 103.867 41.996C103.99 41.8701 104.052 41.7229 104.052 41.5598L104.063 41.4418L104.068 41.1375L104.079 40.6614L104.094 40.0323L104.117 39.2844L104.131 38.4292L104.142 37.5057L104.153 36.5239C104.157 36.1771 104.158 35.8423 104.158 35.5161L106.405 35.4724C106.623 35.4724 106.787 35.3894 106.896 35.2277C107.004 35.0627 107.059 34.8524 107.059 34.5952C107.059 34.34 106.998 34.1318 106.879 33.9761C106.76 33.8189 106.587 33.7413 106.361 33.7413L104.158 33.7957C104.158 32.2609 104.132 30.9217 104.073 29.7807L104.781 29.7767L105.436 29.7628L106.005 29.7522L106.49 29.7436L106.859 29.733L107.1 29.7264L107.186 29.7157C107.396 29.7157 107.55 29.6355 107.65 29.4725C107.727 29.3305 107.766 29.1555 107.766 28.9427V28.8486C107.751 28.586 107.691 28.3805 107.584 28.2313C107.495 28.0902 107.35 28.0186 107.154 28.0186H107.122L107.007 28.0291L106.69 28.0351L106.217 28.0457L105.588 28.0563L104.865 28.0669L104.053 28.0775L103.19 28.0841C102.942 28.0841 102.743 28.1717 102.587 28.3487ZM80.7518 41.2926C80.7584 41.278 80.7736 40.9638 80.7941 40.3485C80.8146 39.7333 80.8345 38.8814 80.8523 37.7967C80.8708 36.7094 80.8801 35.6673 80.8801 34.6636C80.8801 34.3068 80.8761 33.9508 80.8682 33.5948L80.8517 32.6076C80.849 32.3046 80.8431 32.0103 80.8358 31.7199L80.8153 30.9356L80.7948 30.2687L80.7789 29.723L80.7683 29.3285L80.7623 29.078L80.7518 28.9819V28.9075C80.7518 28.7027 80.8345 28.5171 80.9985 28.3526C81.1559 28.1737 81.3577 28.0861 81.6084 28.0861H82.2936C82.6647 28.0762 83.0094 28.0756 83.3335 28.0756C83.6556 28.0756 83.9916 28.1014 84.3442 28.1591C84.6947 28.2154 85.0109 28.3023 85.2908 28.4157C85.8669 28.6729 86.3054 29.0349 86.6078 29.5043C86.916 29.9961 87.0813 30.6446 87.1025 31.4494C87.1104 31.5966 87.1104 31.7404 87.1025 31.8771C87.1025 32.4697 87.0674 32.9385 86.9986 33.2878C86.8703 33.8613 86.6322 34.3393 86.2817 34.7172C86.5065 34.8293 86.6963 34.9645 86.8505 35.1217C87.5111 35.77 87.8431 36.7419 87.8431 38.038C87.8431 39.5549 87.5127 40.631 86.8525 41.2741C86.3808 41.7514 85.7254 42.0418 84.8833 42.1498C84.4745 42.1923 84.0366 42.2135 83.5656 42.2135C83.1463 42.2135 82.8274 42.2049 82.6065 42.1929H81.6262C81.4133 42.1929 81.2029 42.1034 80.9979 41.9244C80.8358 41.7368 80.7531 41.5286 80.7531 41.2939L80.7518 41.2926ZM52.4484 41.3781L52.4385 41.5611H52.4405C52.4405 41.64 52.4484 41.7076 52.463 41.766C52.4801 41.8237 52.5139 41.8833 52.5629 41.9529C52.6118 42.0186 52.6952 42.0723 52.8182 42.1127C52.9399 42.1525 53.09 42.1711 53.272 42.1711C53.4525 42.1711 53.6013 42.1551 53.7204 42.1226C53.8375 42.0928 53.9241 42.0418 53.9751 41.9794C54.026 41.9145 54.0637 41.8568 54.0842 41.8024C54.1061 41.7507 54.1186 41.6817 54.1266 41.6055L54.1365 41.4882V41.1832L54.1484 40.7079L54.1629 40.0674L54.1748 39.2977C54.1781 39.0266 54.1827 38.7315 54.1907 38.4093C54.1973 38.0917 54.2013 37.7682 54.2013 37.4374L54.2059 36.3866C54.2112 36.0134 54.2119 35.6454 54.2119 35.2834C54.2119 34.1272 54.2059 33.2965 54.1914 32.7834C54.544 33.4874 54.8965 34.2458 55.2497 35.056C55.5163 35.6474 55.816 36.3422 56.1427 37.1345C56.4714 37.9293 56.7433 38.6102 56.9636 39.185C57.1811 39.7565 57.3935 40.312 57.6025 40.851C57.8109 41.3887 57.9147 41.6592 57.9147 41.6672C57.9981 41.8867 58.1092 42.0338 58.2528 42.1034C58.3777 42.1763 58.5789 42.2108 58.854 42.2108H58.9374C59.0855 42.2029 59.2052 42.1797 59.3005 42.1412C59.397 42.1021 59.4645 42.0425 59.5069 41.9642C59.5486 41.8867 59.5757 41.8111 59.5856 41.7348C59.5962 41.6612 59.6021 41.5631 59.6021 41.4418C59.6021 41.3722 59.5942 40.9021 59.5763 40.0382C59.5585 39.1718 59.5413 38.1216 59.5234 36.8772C59.5069 35.6334 59.4969 34.5256 59.4969 33.5517C59.4969 33.2667 59.4989 32.9769 59.5029 32.6839L59.5076 31.8744C59.5076 31.6238 59.5115 31.3805 59.5182 31.1379L59.534 30.4808L59.5459 29.9199C59.5486 29.7429 59.5538 29.5891 59.5624 29.4559L59.5723 29.1137V28.8864L59.5843 28.8088C59.6048 28.588 59.5393 28.415 59.3878 28.2916C59.2377 28.1664 59.0346 28.0981 58.782 28.0841H58.6972C58.4856 28.0841 58.305 28.1286 58.1588 28.222C57.9901 28.3261 57.9015 28.4912 57.8949 28.712L57.883 28.9792L57.8585 29.6793L57.8261 30.6903C57.8162 31.0675 57.8069 31.5117 57.8003 32.0235C57.7924 32.5367 57.7897 33.0452 57.7897 33.5524C57.7897 33.8719 57.7924 34.3844 57.8003 35.0885C57.8069 35.7932 57.8109 36.3263 57.8109 36.681C57.4577 35.8111 57.129 35.0321 56.8194 34.342C56.4681 33.5729 56.0567 32.7051 55.585 31.7351C55.1141 30.7672 54.7298 29.9896 54.4354 29.4021C54.1397 28.8148 53.9863 28.5151 53.9718 28.5005C53.8454 28.23 53.6265 28.0948 53.3169 28.0948C53.2263 28.0948 53.1251 28.1047 53.0153 28.1253C52.6323 28.234 52.4417 28.4733 52.4417 28.8512C52.4417 28.9447 52.4465 29.3014 52.4623 29.9259L52.4691 30.2987C52.4795 30.8593 52.492 31.5401 52.5033 32.3378C52.5159 33.3257 52.5238 34.3048 52.5238 35.2821V36.6756C52.5238 37.1192 52.5219 37.5515 52.5179 37.9731C52.5139 38.3927 52.508 38.7813 52.502 39.1373L52.4801 40.1185L52.4603 40.8749L52.4484 41.3781ZM61.4092 40.6893C61.3001 41.1348 61.2472 41.3788 61.2472 41.4232L61.2466 41.4239L61.226 41.5929C61.226 41.9271 61.437 42.1359 61.8584 42.2135C61.9576 42.2341 62.0515 42.2459 62.1441 42.2459C62.2904 42.2459 62.4239 42.2141 62.5437 42.1578C62.7415 42.0663 62.8632 41.89 62.9141 41.6247C62.9141 41.6089 62.9511 41.4312 63.0298 41.093L63.4122 39.4237C63.5303 38.9135 63.6524 38.3802 63.7801 37.8228V37.8227C63.8462 37.5341 63.9137 37.2391 63.983 36.9376L66.4192 36.8321C66.9351 39.366 67.2447 40.9644 67.3446 41.6247C67.3651 41.831 67.4802 41.9987 67.6872 42.1299C67.8513 42.2274 68.0199 42.2738 68.1919 42.2658L68.3374 42.2559C68.5702 42.2341 68.7502 42.1485 68.8739 42.0013C68.9632 41.888 69.0095 41.7541 69.0095 41.5989L68.9989 41.4278C68.9989 41.4079 68.9566 41.1753 68.8719 40.7377C68.7865 40.2988 68.651 39.5927 68.4664 38.6255C68.2805 37.6569 68.0881 36.6538 67.8909 35.6202C67.6336 34.3864 67.3287 33.0525 66.9808 31.6118C66.6342 30.1746 66.3762 29.1794 66.2082 28.6305C66.103 28.2665 65.8404 28.0868 65.4243 28.0868H65.331C64.9335 28.1352 64.6901 28.3023 64.5975 28.5887L64.4725 28.9726C64.3891 29.2198 64.2767 29.5739 64.1384 30.03C64.0104 30.4422 63.8752 30.8919 63.729 31.378V31.3782V31.3783L63.6827 31.5323C63.5186 32.0766 63.3527 32.6991 63.1826 33.3939C63.012 34.0914 62.8526 34.7497 62.7044 35.363L61.9305 38.5472L61.4092 40.6893ZM64.3799 35.1952L66.0878 35.1209C65.8106 33.8593 65.5573 32.7826 65.3304 31.885C64.9957 32.9398 64.6782 34.0423 64.3799 35.1952ZM70.388 39.071C70.3701 39.9468 70.3602 40.7622 70.3602 41.5167L70.3582 41.5174C70.345 41.6765 70.4039 41.8257 70.5401 41.9735C70.6724 42.1193 70.8973 42.1929 71.2115 42.1929C71.5263 42.1929 71.7479 42.1207 71.8776 41.9794C72.0052 41.8362 72.0701 41.6817 72.0701 41.518C72.0866 39.5258 72.1739 36.6001 72.334 32.7422C72.3968 32.9272 72.5053 33.2215 72.6608 33.622C72.8156 34.0231 72.9412 34.3566 73.0391 34.6218C73.1383 34.883 73.2547 35.2251 73.387 35.6407C73.5227 36.0584 73.6431 36.4681 73.7561 36.8745C73.8818 37.3148 74.1616 37.5355 74.5969 37.5355C74.8138 37.5355 74.9878 37.4898 75.1174 37.3957C75.2484 37.3055 75.3483 37.1371 75.4171 36.8958C75.5097 36.5623 75.6017 36.2387 75.6962 35.9278C75.7915 35.6208 75.8946 35.3066 76.0078 34.9957C76.1189 34.6814 76.2122 34.4288 76.2869 34.2373L76.5925 33.4357L76.6353 33.3232C76.7422 33.0425 76.8159 32.8491 76.8604 32.7416C76.9722 35.9743 77.0291 38.8993 77.0291 41.5174C77.0291 41.7501 77.1124 41.9151 77.285 42.0272C77.4531 42.1359 77.6714 42.1923 77.9372 42.1923C78.1708 42.1923 78.3626 42.1352 78.5128 42.0272C78.6629 41.9138 78.7376 41.7488 78.7376 41.5174C78.7376 40.7569 78.7317 39.9355 78.7197 39.0571C78.7092 38.1779 78.6953 37.3399 78.6774 36.5417C78.6616 35.7435 78.6424 34.9532 78.6225 34.171C78.6027 33.3866 78.5822 32.6759 78.5637 32.0355C78.5574 31.8384 78.5514 31.6483 78.5457 31.4654L78.5456 31.4632C78.5328 31.0526 78.5211 30.6777 78.5088 30.3383C78.4923 29.8463 78.4784 29.4585 78.4664 29.1741L78.4505 28.7379C78.4346 28.5303 78.3771 28.3713 78.2739 28.2618C78.1721 28.1504 77.9921 28.0928 77.7368 28.0868C77.4749 28.0868 77.2732 28.122 77.1349 28.1882C76.9947 28.2559 76.8815 28.3732 76.7943 28.5443L76.7209 28.6994L76.531 29.0939L76.2578 29.6925C76.1526 29.9239 76.0355 30.2004 75.9053 30.5206C75.7907 30.801 75.6756 31.0993 75.5555 31.4106L75.5555 31.4106L75.5057 31.5396C75.3695 31.8976 75.2199 32.3107 75.0579 32.7721C74.8978 33.2361 74.7417 33.7062 74.5955 34.1835C74.4414 33.6903 74.2827 33.2109 74.1166 32.7409C73.9526 32.2695 73.8024 31.8558 73.6649 31.4972C73.5578 31.213 73.4524 30.9419 73.3512 30.6818L73.3511 30.6816L73.2713 30.4762C73.1443 30.1547 73.0312 29.8815 72.9293 29.6548L72.6654 29.0673L72.4855 28.6755L72.418 28.5204C72.2712 28.23 71.9682 28.0848 71.5078 28.0848H71.4079C71.2334 28.0975 71.0812 28.1624 70.9535 28.2744C70.8272 28.3898 70.759 28.5423 70.7505 28.7359L70.73 29.1622C70.7147 29.4479 70.6962 29.8364 70.6757 30.3303L70.6043 32.0414C70.5745 32.6845 70.5493 33.4005 70.5236 34.1868L70.4501 36.5636C70.425 37.3612 70.4059 38.1965 70.388 39.071ZM82.5986 33.9674C82.5986 32.3533 82.5715 30.96 82.5133 29.7939L82.9446 29.7834C83.7647 29.7834 84.3323 29.857 84.6485 30.0068C84.872 30.1003 85.0513 30.2534 85.1836 30.4669C85.3159 30.6804 85.3933 31.0245 85.4151 31.5005V31.7477C85.4151 32.67 85.302 33.2594 85.0784 33.508C84.7973 33.7944 83.9705 33.9469 82.5986 33.9674ZM82.5133 29.7939V29.7933V29.7939ZM82.5133 40.4818C82.8916 40.4884 83.2349 40.4937 83.5431 40.4937L83.9744 40.4818C84.3812 40.4818 84.7278 40.446 85.0116 40.3764C85.2967 40.3061 85.5117 40.1934 85.6579 40.0455C85.988 39.7107 86.1526 39.0418 86.1526 38.0374C86.1526 37.2458 85.9946 36.6916 85.679 36.37C85.2312 35.9378 84.2727 35.7196 82.8076 35.7196H82.5986C82.5986 37.5269 82.5708 39.1147 82.5133 40.4811V40.4818ZM88.9633 40.6893C88.8548 41.1348 88.8005 41.3788 88.8005 41.4232L88.7989 41.4239L88.779 41.5929C88.779 41.9271 88.9904 42.1359 89.4117 42.2135C89.5122 42.2341 89.6056 42.2459 89.6966 42.2459C89.845 42.2459 89.9782 42.2141 90.0979 42.1578C90.2942 42.0663 90.4178 41.89 90.4665 41.6247C90.4665 41.6089 90.5056 41.4312 90.5846 41.093L90.9668 39.4237C91.1104 38.7914 91.2636 38.1236 91.4256 37.4184L91.4264 37.4155L91.5365 36.9376L93.9725 36.8321C94.4887 39.366 94.7967 40.9644 94.898 41.6247C94.9188 41.831 95.0321 41.9987 95.2387 42.1299C95.4047 42.2274 95.5722 42.2738 95.7454 42.2658L95.8906 42.2559C96.1252 42.2341 96.3031 42.1485 96.4268 42.0013C96.5177 41.888 96.5624 41.7541 96.5624 41.5989L96.552 41.4278C96.552 41.4079 96.5105 41.1753 96.4236 40.7377L96.0206 38.6255C95.8355 37.6569 95.6432 36.6538 95.4446 35.6202C95.1868 34.3864 94.8828 33.0525 94.535 31.6118C94.1879 30.1746 93.9286 29.1794 93.7618 28.6305C93.6573 28.2665 93.398 28.0868 92.9783 28.0868H92.8833C92.4868 28.1352 92.2434 28.3023 92.1525 28.5887L92.0264 28.9726C91.9434 29.2198 91.8309 29.5739 91.6921 30.03C91.5525 30.4855 91.3985 30.9866 91.2365 31.5323C91.0729 32.0766 90.907 32.6991 90.7346 33.3939L90.2567 35.363C90.0787 36.1018 89.9072 36.8073 89.7444 37.4784L89.7436 37.48V37.4806C89.6543 37.8464 89.5681 38.202 89.4843 38.5472L88.9633 40.6893ZM91.9354 35.1952L93.6429 35.1209C93.3661 33.8593 93.1123 32.7826 92.8857 31.885C92.5498 32.9398 92.2339 34.0423 91.9354 35.1952ZM111.043 39.3282C110.729 38.4525 110.573 36.9216 110.573 34.7358C110.573 33.071 110.754 31.8147 111.112 30.9674C111.472 30.0618 111.999 29.6104 112.694 29.6104C113.413 29.6104 113.944 30.034 114.288 30.8799C114.632 31.7299 114.805 33.014 114.805 34.7358C114.805 36.7506 114.667 38.1992 114.393 39.081C114.196 39.6942 113.956 40.1079 113.671 40.3213C113.386 40.5361 113.061 40.6403 112.694 40.6403C111.908 40.6403 111.357 40.204 111.043 39.3282ZM118.021 34.7358C118.021 32.8927 118.246 31.4196 118.697 30.3151C118.978 29.6024 119.365 29.0415 119.857 28.6291C120.412 28.1518 121.077 27.9131 121.849 27.9131C123.327 27.9131 124.378 28.6854 125.006 30.2302C125.449 31.2777 125.669 32.778 125.669 34.7351C125.669 36.913 125.504 38.5353 125.174 39.6034C124.596 41.4266 123.488 42.3381 121.85 42.3381C120.971 42.3381 120.25 42.0869 119.688 41.5797C119.19 41.152 118.807 40.5348 118.538 39.7207C118.194 38.6632 118.022 37.0012 118.022 34.7351L118.021 34.7358ZM120.201 39.3282C119.889 38.4525 119.731 36.9216 119.731 34.7358H119.73C119.73 33.071 119.91 31.8147 120.269 30.9674C120.629 30.0618 121.155 29.6104 121.851 29.6104C122.568 29.6104 123.099 30.034 123.443 30.8799C123.788 31.7299 123.96 33.014 123.96 34.7358C123.96 36.7506 123.824 38.1992 123.55 39.081C123.352 39.6942 123.111 40.1079 122.826 40.3213C122.542 40.5361 122.217 40.6403 121.851 40.6403C121.062 40.6403 120.513 40.204 120.201 39.3282ZM127.612 28.9387C127.612 28.6974 127.693 28.4932 127.855 28.3301C128.003 28.1584 128.319 28.063 128.804 28.0417C129.647 28.0417 130.382 28.1372 131.009 28.3301C131.726 28.5376 132.351 28.901 132.887 29.4194C133.964 30.4887 134.532 32.2304 134.595 34.6463C134.611 34.997 134.615 35.3312 134.615 35.65C134.615 36.6538 134.55 37.5216 134.417 38.2548C134.218 39.3501 133.831 40.1895 133.255 40.7728C132.734 41.3205 132.077 41.6983 131.282 41.9032C130.811 42.0265 130.308 42.1061 129.774 42.1485C129.387 42.177 129.074 42.1929 128.835 42.2023L128.604 42.1916C128.302 42.1697 128.072 42.0835 127.919 41.9244C127.756 41.7415 127.675 41.532 127.675 41.2979V41.2581C127.724 39.6624 127.75 38.1116 127.75 36.6027C127.75 35.9961 127.746 35.3981 127.738 34.8054L127.718 33.5073L127.697 32.2827L127.671 31.2054L127.645 30.2753L127.628 29.5706L127.623 29.1005L127.614 28.9394L127.612 28.9387ZM129.372 31.0185C129.36 30.4092 129.349 30.0002 129.341 29.7946C130.389 29.857 131.173 30.1434 131.693 30.6505C132.438 31.3845 132.844 32.7336 132.906 34.7007C132.913 35.0136 132.917 35.3119 132.917 35.597C132.924 36.5305 132.876 37.2929 132.768 37.8843C132.629 38.6539 132.388 39.2235 132.041 39.5941C131.542 40.1013 130.663 40.3856 129.404 40.4499C129.432 38.6984 129.446 37.1988 129.446 35.951V34.7849C129.44 34.1868 129.43 33.5623 129.416 32.9093L129.372 31.0185Z" fill="#6A737B"/>
<defs>
<radialGradient id="paint0_radial" cx="0" cy="0" r="1" gradientUnits="userSpaceOnUse" gradientTransform="translate(26.19 50.8204) scale(17.6171 2.11948)">
<stop stop-opacity="0.69"/>
<stop offset="1" stop-opacity="0.01"/>
</radialGradient>
<radialGradient id="paint1_radial" cx="0" cy="0" r="1" gradientUnits="userSpaceOnUse" gradientTransform="translate(18.0426 40.3128) scale(17.8178 15.447)">
<stop offset="0.2096" stop-color="#FDFEFF"/>
<stop offset="0.7239" stop-color="#D9DDE3"/>
<stop offset="1" stop-color="#C4CAD2"/>
</radialGradient>
<radialGradient id="paint2_radial" cx="0" cy="0" r="1" gradientUnits="userSpaceOnUse" gradientTransform="translate(33.2404 29.1707) scale(0.000746569)">
<stop stop-color="#F0F3FF"/>
<stop offset="0.3497" stop-color="#E9E9EF"/>
<stop offset="0.4806" stop-color="#E2E3EA"/>
<stop offset="0.6726" stop-color="#CED2DA"/>
<stop offset="0.9013" stop-color="#AEB6C1"/>
<stop offset="1" stop-color="#9EA8B5"/>
</radialGradient>
<radialGradient id="paint3_radial" cx="0" cy="0" r="1" gradientUnits="userSpaceOnUse" gradientTransform="translate(33.2631 29.1532) scale(0.0026965)">
<stop stop-color="#F0F3FF"/>
<stop offset="0.3497" stop-color="#E9E9EF"/>
<stop offset="0.4806" stop-color="#E2E3EA"/>
<stop offset="0.6726" stop-color="#CED2DA"/>
<stop offset="0.9013" stop-color="#AEB6C1"/>
<stop offset="1" stop-color="#9EA8B5"/>
</radialGradient>
<radialGradient id="paint4_radial" cx="0" cy="0" r="1" gradientUnits="userSpaceOnUse" gradientTransform="translate(33.3044 29.1166) scale(0.00624047)">
<stop stop-color="#F0F3FF"/>
<stop offset="0.3497" stop-color="#E9E9EF"/>
<stop offset="0.4806" stop-color="#E2E3EA"/>
<stop offset="0.6726" stop-color="#CED2DA"/>
<stop offset="0.9013" stop-color="#AEB6C1"/>
<stop offset="1" stop-color="#9EA8B5"/>
</radialGradient>
<radialGradient id="paint5_radial" cx="0" cy="0" r="1" gradientUnits="userSpaceOnUse" gradientTransform="translate(34.5097 29.4272) scale(2.419 0.513729)">
<stop stop-color="#F0F3FF"/>
<stop offset="0.3497" stop-color="#E9E9EF"/>
<stop offset="0.4806" stop-color="#E2E3EA"/>
<stop offset="0.6726" stop-color="#CED2DA"/>
<stop offset="0.9013" stop-color="#AEB6C1"/>
<stop offset="1" stop-color="#9EA8B5"/>
</radialGradient>
<radialGradient id="paint6_radial" cx="0" cy="0" r="1" gradientUnits="userSpaceOnUse" gradientTransform="translate(25.7074 40.8312) scale(12.3576 10.7892)">
<stop offset="0.2096" stop-color="#E2E7EB"/>
<stop offset="0.8129" stop-color="#BEC5CE"/>
<stop offset="1" stop-color="#B2B9C4"/>
</radialGradient>
<radialGradient id="paint7_radial" cx="0" cy="0" r="1" gradientUnits="userSpaceOnUse" gradientTransform="translate(18.1083 21.9142) scale(22.7009 11.8852)">
<stop offset="0.2096" stop-color="#FDFEFF"/>
<stop offset="0.7239" stop-color="#D9DDE3"/>
<stop offset="1" stop-color="#C4CAD2"/>
</radialGradient>
<radialGradient id="paint8_radial" cx="0" cy="0" r="1" gradientUnits="userSpaceOnUse" gradientTransform="translate(18.8777 21.8012) scale(0.582324 0.410178)">
<stop offset="0.2096" stop-color="#E2E7EB"/>
<stop offset="0.8129" stop-color="#BEC5CE"/>
<stop offset="1" stop-color="#B2B9C4"/>
</radialGradient>
<radialGradient id="paint9_radial" cx="0" cy="0" r="1" gradientUnits="userSpaceOnUse" gradientTransform="translate(18.3416 34.1033) scale(29.3784 25.3201)">
<stop offset="0.2096" stop-color="#E30E6F"/>
<stop offset="0.6402" stop-color="#BF0766"/>
<stop offset="1" stop-color="#9E005D"/>
</radialGradient>
<radialGradient id="paint10_radial" cx="0" cy="0" r="1" gradientUnits="userSpaceOnUse" gradientTransform="translate(18.3365 34.0951) scale(29.3987 14.1767)">
<stop offset="0.2096" stop-color="#E30E6F"/>
<stop offset="0.6402" stop-color="#BF0766"/>
<stop offset="1" stop-color="#9E005D"/>
</radialGradient>
<radialGradient id="paint11_radial" cx="0" cy="0" r="1" gradientUnits="userSpaceOnUse" gradientTransform="translate(18.3426 34.1023) scale(29.3825 25.2507)">
<stop offset="0.2096" stop-color="#E30E6F"/>
<stop offset="0.6402" stop-color="#BF0766"/>
<stop offset="1" stop-color="#9E005D"/>
</radialGradient>
<radialGradient id="paint12_radial" cx="0" cy="0" r="1" gradientUnits="userSpaceOnUse" gradientTransform="translate(18.3405 34.105) scale(29.3762 21.4771)">
<stop offset="0.2096" stop-color="#E30E6F"/>
<stop offset="0.6402" stop-color="#BF0766"/>
<stop offset="1" stop-color="#9E005D"/>
</radialGradient>
</defs>
</svg>
