<svg width="35" height="36" viewBox="0 0 35 36" fill="none" xmlns="http://www.w3.org/2000/svg">
<g clip-path="url(#clip0)">
<path d="M17.5 35.4814C27.165 35.4814 35 27.6464 35 17.9814C35 8.31646 27.165 0.481445 17.5 0.481445C7.83502 0.481445 0 8.31646 0 17.9814C0 27.6464 7.83502 35.4814 17.5 35.4814Z" fill="#5C2D91"/>
<path opacity="0.1" d="M5.37031 5.40332C3.59131 6.98861 2.15479 8.92051 1.14883 11.0806C0.14286 13.2407 -0.411368 15.5835 -0.479885 17.9654C-0.548402 20.3472 -0.129765 22.718 0.750365 24.9324C1.6305 27.1467 2.95358 29.158 4.63851 30.8429C6.32344 32.5279 8.33473 33.8509 10.5491 34.7311C12.7634 35.6112 15.1342 36.0298 17.5161 35.9613C19.8979 35.8928 22.2407 35.3386 24.4008 34.3326C26.5609 33.3266 28.4928 31.8901 30.0781 30.1111L5.37031 5.40332Z" fill="white"/>
<path d="M4.04687 20.8526C3.94479 20.8542 3.84348 20.8346 3.74935 20.7951C3.65522 20.7556 3.57032 20.6969 3.5 20.6229C3.42775 20.5515 3.37065 20.4663 3.33212 20.3723C3.2936 20.2784 3.27443 20.1776 3.27578 20.076C3.27505 19.9746 3.29449 19.874 3.33299 19.7801C3.37148 19.6862 3.42825 19.6009 3.5 19.5292C3.56963 19.4539 3.65428 19.3941 3.74848 19.3535C3.84268 19.313 3.94434 19.2928 4.04687 19.294C4.14926 19.2937 4.25061 19.3145 4.34467 19.3549C4.43873 19.3954 4.5235 19.4547 4.59375 19.5292C4.66673 19.6003 4.72467 19.6853 4.76413 19.7793C4.80359 19.8732 4.82376 19.9741 4.82343 20.076C4.82439 20.178 4.80451 20.2791 4.76501 20.3732C4.72552 20.4672 4.66724 20.5522 4.59375 20.6229C4.52283 20.6961 4.43781 20.7543 4.34382 20.7937C4.24983 20.8332 4.14881 20.8532 4.04687 20.8526Z" fill="white"/>
<path d="M14.9133 20.7156H13.4805L8.35626 12.7641C8.22862 12.5681 8.12228 12.3591 8.03907 12.1406H7.99532C8.04402 12.5946 8.06229 13.0514 8.05001 13.5078V20.7156H6.88516V10.7461H8.40001L13.3875 18.5555C13.5953 18.8799 13.7302 19.1023 13.7922 19.2227H13.8195C13.7618 18.7364 13.7381 18.2466 13.7484 17.757V10.7461H14.9133V20.7156Z" fill="white"/>
<path d="M22.7992 20.7156H17.5V10.7461H22.5531V11.8016H18.6922V15.1156H22.2906V16.1656H18.6922V19.6219H22.8047L22.7992 20.7156Z" fill="white"/>
<path d="M30.625 11.8016H27.7266V20.7156H26.5617V11.8016H23.6961V10.7461H30.625V11.8016Z" fill="white"/>
<path d="M14.2844 27.4973C13.8896 27.6885 13.454 27.7805 13.0156 27.7652C12.7243 27.7784 12.4335 27.729 12.1628 27.6206C11.8921 27.5121 11.6478 27.347 11.4461 27.1363C11.0443 26.6865 10.8325 26.0984 10.8555 25.4957C10.8408 25.1694 10.8918 24.8434 11.0054 24.5372C11.1191 24.2309 11.2931 23.9506 11.5172 23.7129C11.7355 23.4892 11.9981 23.3134 12.288 23.1967C12.578 23.0799 12.8891 23.0248 13.2016 23.0348C13.5755 23.022 13.948 23.0872 14.2953 23.2262V23.7731C13.9609 23.5879 13.5838 23.4936 13.2016 23.4996C12.9606 23.4928 12.721 23.5382 12.4992 23.6326C12.2774 23.727 12.0786 23.8682 11.9164 24.0465C11.5753 24.435 11.3988 24.941 11.4242 25.4574C11.3987 25.9466 11.5633 26.4267 11.8836 26.7973C12.0372 26.9625 12.2248 27.0925 12.4334 27.1784C12.642 27.2643 12.8668 27.3041 13.0922 27.2949C13.5121 27.3059 13.9268 27.1999 14.2898 26.9887L14.2844 27.4973Z" fill="#F2F2F2"/>
<path d="M16.5211 27.7651C16.3034 27.7721 16.0867 27.7323 15.8858 27.6483C15.6848 27.5644 15.5042 27.4382 15.3562 27.2784C15.0572 26.9446 14.9019 26.5064 14.9242 26.0588C14.9106 25.8243 14.9437 25.5895 15.0216 25.3679C15.0995 25.1464 15.2207 24.9425 15.3781 24.7682C15.5388 24.6114 15.7299 24.4892 15.9397 24.4093C16.1494 24.3293 16.3734 24.2933 16.5977 24.3034C16.8096 24.2921 17.0216 24.3268 17.2188 24.4051C17.4161 24.4835 17.5941 24.6036 17.7406 24.7573C18.0313 25.1075 18.1779 25.5552 18.1508 26.0096C18.1737 26.4707 18.0147 26.9224 17.7078 27.2674C17.5571 27.4304 17.3731 27.5591 17.1684 27.6449C16.9637 27.7308 16.743 27.7717 16.5211 27.7651ZM16.5594 24.7737C16.4089 24.7673 16.259 24.795 16.1208 24.8547C15.9825 24.9143 15.8595 25.0044 15.7609 25.1182C15.5505 25.3892 15.4456 25.7273 15.4656 26.0698C15.4465 26.4021 15.5518 26.7296 15.7609 26.9885C15.8606 27.1007 15.9839 27.1893 16.122 27.248C16.2601 27.3066 16.4095 27.3338 16.5594 27.3276C16.7061 27.3362 16.8529 27.3112 16.9885 27.2543C17.124 27.1974 17.2448 27.1102 17.3414 26.9994C17.5402 26.7278 17.637 26.3947 17.6148 26.0588C17.6365 25.7213 17.5398 25.3867 17.3414 25.1127C17.2461 24.9996 17.1259 24.9102 16.9902 24.8513C16.8545 24.7925 16.7071 24.7659 16.5594 24.7737Z" fill="#F2F2F2"/>
<path d="M20.7047 24.9376C20.5866 24.8602 20.4463 24.8237 20.3055 24.8337C20.1953 24.8377 20.0878 24.8687 19.9924 24.924C19.8971 24.9793 19.8168 25.0572 19.7586 25.1509C19.5958 25.4086 19.5175 25.7106 19.5344 26.0149V27.6884H18.9875V24.4071H19.5344V25.0907C19.5945 24.8792 19.7141 24.6894 19.8789 24.5438C20.0215 24.4201 20.2041 24.3521 20.393 24.3524C20.4987 24.3477 20.6044 24.3625 20.7047 24.3962V24.9376Z" fill="#F2F2F2"/>
<path d="M23.9094 26.1846H21.5961C21.5806 26.4903 21.6801 26.7907 21.875 27.0267C21.9764 27.1278 22.0979 27.2064 22.2318 27.2573C22.3656 27.3082 22.5086 27.3303 22.6516 27.3221C23.0223 27.3184 23.3808 27.1892 23.6687 26.9556V27.4478C23.3306 27.6707 22.9302 27.7799 22.5258 27.7596C22.3217 27.7699 22.1179 27.735 21.9288 27.6575C21.7398 27.58 21.5701 27.4617 21.432 27.3111C21.1473 26.956 21.005 26.5076 21.0328 26.0533C21.0132 25.5979 21.1676 25.1521 21.4648 24.8064C21.6001 24.6502 21.7684 24.5259 21.9576 24.4427C22.1467 24.3595 22.352 24.3193 22.5586 24.3252C22.7451 24.3147 22.9316 24.3467 23.104 24.4187C23.2764 24.4907 23.4302 24.6008 23.5539 24.7408C23.8057 25.0728 23.9299 25.4843 23.9039 25.9002L23.9094 26.1846ZM23.3625 25.7416C23.3736 25.4882 23.2963 25.2388 23.1437 25.0361C23.0689 24.9516 22.9759 24.885 22.8718 24.8415C22.7676 24.7979 22.6549 24.7784 22.5422 24.7846C22.4245 24.7831 22.3078 24.8062 22.1995 24.8523C22.0912 24.8985 21.9938 24.9666 21.9133 25.0525C21.7333 25.2429 21.62 25.4867 21.5906 25.7471L23.3625 25.7416Z" fill="#F2F2F2"/>
</g>
<defs>
<clipPath id="clip0">
<rect width="35" height="35" fill="white" transform="translate(0 0.481445)"/>
</clipPath>
</defs>
</svg>
