<svg width="26" height="26" viewBox="0 0 26 26" fill="none" xmlns="http://www.w3.org/2000/svg">
<g clip-path="url(#clip0)">
<path d="M28.9893 13.881L28.9747 13.8748C28.9663 13.8717 28.958 13.8685 28.9507 13.8612C28.9387 13.8484 28.9298 13.8329 28.9248 13.8161C28.9197 13.7993 28.9186 13.7815 28.9214 13.7642L29.7287 8.83399L33.5145 12.6167L29.5773 14.29C29.5664 14.2944 29.5546 14.2965 29.5428 14.2962H29.5272C29.5219 14.2931 29.5167 14.2889 29.5063 14.2785C29.3598 14.1155 29.1845 13.9808 28.9893 13.881ZM34.4806 13.5806L38.5285 17.6241C39.3692 18.4649 39.7901 18.8843 39.9436 19.3704C39.9666 19.4424 39.9854 19.5144 40 19.5885L30.3261 15.4959C30.3209 15.4938 30.3157 15.4917 30.3104 15.4897C30.2718 15.474 30.2269 15.4563 30.2269 15.4167C30.2269 15.377 30.2728 15.3582 30.3115 15.3426L30.324 15.3374L34.4806 13.5806ZM39.835 20.8862C39.6261 21.2785 39.2188 21.6853 38.5295 22.3749L33.9657 26.9327L28.063 25.7048L28.0316 25.6985C27.9794 25.6902 27.9241 25.6808 27.9241 25.6339C27.9017 25.3906 27.8294 25.1546 27.7117 24.9405C27.594 24.7264 27.4334 24.5388 27.24 24.3893C27.216 24.3653 27.2223 24.3278 27.2296 24.2933C27.2296 24.2881 27.2296 24.2829 27.2317 24.2787L28.3418 17.4707L28.346 17.4478C28.3523 17.3956 28.3617 17.3351 28.4087 17.3351C28.6466 17.3056 28.8762 17.229 29.0842 17.1099C29.2922 16.9908 29.4744 16.8315 29.6201 16.6414C29.6295 16.6309 29.6358 16.6195 29.6483 16.6132C29.6817 16.5976 29.7214 16.6132 29.7559 16.6278L39.8339 20.8862H39.835ZM32.9161 27.9811L25.4113 35.4776L26.6959 27.5909L26.698 27.5805C26.699 27.5701 26.7011 27.5596 26.7043 27.5502C26.7147 27.5252 26.7419 27.5148 26.768 27.5043L26.7805 27.4991C27.0618 27.3793 27.3105 27.1944 27.5063 26.9598C27.5314 26.9306 27.5617 26.9024 27.6003 26.8972C27.6104 26.8956 27.6206 26.8956 27.6306 26.8972L32.9151 27.9821L32.9161 27.9811ZM23.8229 37.0643L22.9769 37.9093L13.6247 24.4081C13.6213 24.4032 13.6178 24.3983 13.6143 24.3935C13.5996 24.3737 13.584 24.3538 13.5871 24.3309C13.5871 24.3142 13.5986 24.2996 13.6101 24.2871L13.6205 24.2735C13.6487 24.2318 13.6728 24.1901 13.6989 24.1452L13.7197 24.1087L13.7229 24.1056C13.7375 24.0805 13.7511 24.0565 13.7761 24.043C13.7981 24.0325 13.8284 24.0367 13.8524 24.0419L24.2135 26.1763C24.2424 26.1808 24.2698 26.1927 24.2928 26.2108C24.3064 26.2243 24.3095 26.2389 24.3127 26.2556C24.385 26.5288 24.5195 26.7815 24.7057 26.9942C24.8919 27.2068 25.1249 27.3736 25.3863 27.4814C25.4155 27.496 25.403 27.5283 25.3894 27.5628C25.3826 27.5779 25.3774 27.5936 25.3738 27.6097C25.2432 28.4025 24.1237 35.2231 23.8229 37.0643ZM22.0558 38.8284C21.4323 39.4449 21.0647 39.7715 20.6491 39.9029C20.2392 40.0324 19.7994 40.0324 19.3896 39.9029C18.9029 39.7485 18.482 39.3291 17.6413 38.4883L8.24939 29.1067L10.7026 25.3063C10.7141 25.2875 10.7256 25.2708 10.7444 25.2573C10.7705 25.2385 10.8081 25.2468 10.8394 25.2573C11.4025 25.427 12.007 25.3964 12.5501 25.1707C12.5783 25.1602 12.6065 25.1529 12.6284 25.1728C12.6394 25.1828 12.6492 25.194 12.6576 25.2061L22.0558 38.8294V38.8284ZM7.34393 28.2023L5.18942 26.0501L9.44414 24.237C9.45502 24.2323 9.46674 24.2298 9.4786 24.2297C9.51411 24.2297 9.535 24.2652 9.5538 24.2975C9.59656 24.3632 9.64185 24.4273 9.68956 24.4895L9.70314 24.5062C9.71567 24.5239 9.70732 24.5416 9.69479 24.5583L7.34498 28.2023H7.34393ZM4.23592 25.0977L1.51014 22.3749C1.04645 21.9117 0.710164 21.5758 0.476228 21.2868L8.76426 23.0039C8.77467 23.0059 8.78512 23.0076 8.79559 23.0091C8.84677 23.0175 8.90316 23.0269 8.90316 23.0749C8.90316 23.127 8.84154 23.151 8.78933 23.1708L8.76531 23.1813L4.23592 25.0977ZM0 19.8868C0.00944535 19.7114 0.041026 19.5379 0.0939924 19.3704C0.248558 18.8843 0.66839 18.4649 1.51014 17.6241L4.9983 14.1398C6.60435 16.4681 8.21476 18.7934 9.82951 21.1157C9.85771 21.1533 9.88904 21.195 9.85666 21.2263C9.70419 21.3943 9.55171 21.5779 9.44414 21.7771C9.43247 21.8027 9.41451 21.825 9.39192 21.8418C9.37835 21.8501 9.36372 21.847 9.34806 21.8439H9.34597L0 19.8858V19.8868ZM5.93196 13.2071L10.6201 8.52207C11.0619 8.71506 12.667 9.3921 14.1009 9.99717C15.1871 10.4562 16.1771 10.8735 16.4883 11.0091C16.5197 11.0216 16.5479 11.0341 16.5614 11.0654C16.5698 11.0842 16.5656 11.1082 16.5614 11.128C16.4872 11.4662 16.4982 11.8175 16.5936 12.1504C16.6889 12.4832 16.8656 12.7872 17.1076 13.035C17.139 13.0663 17.1076 13.1112 17.0805 13.1498L17.0659 13.1717L12.3036 20.5399C12.2911 20.5607 12.2796 20.5785 12.2587 20.592C12.2336 20.6077 12.1981 20.6004 12.1689 20.5931C11.9837 20.5446 11.7932 20.5187 11.6018 20.5159C11.4305 20.5159 11.2446 20.5472 11.0566 20.5816H11.0556C11.0347 20.5847 11.0159 20.5889 10.9992 20.5764C10.9807 20.5613 10.9649 20.5433 10.9522 20.5232L5.93092 13.2071H5.93196ZM11.5694 7.57587L17.6413 1.51064C18.482 0.670856 18.9029 0.250441 19.3896 0.0970892C19.7994 -0.0323631 20.2392 -0.0323631 20.6491 0.0970892C21.1357 0.250441 21.5566 0.670856 22.3973 1.51064L23.7132 2.82509L19.3948 9.50581C19.3841 9.52526 19.3695 9.54231 19.352 9.55589C19.3259 9.57362 19.2893 9.56632 19.258 9.55589C18.9175 9.45268 18.557 9.43389 18.2076 9.50114C17.8582 9.56839 17.5305 9.71967 17.2528 9.94188C17.2246 9.97109 17.1828 9.9544 17.1473 9.93875C16.5834 9.69359 12.1971 7.84189 11.5694 7.57587ZM24.6302 3.74103L28.6175 7.72401L27.6567 13.6682V13.6839C27.6559 13.6974 27.653 13.7108 27.6484 13.7235C27.6379 13.7444 27.617 13.7486 27.5961 13.7548C27.3907 13.817 27.1972 13.9132 27.0238 14.0396C27.0164 14.0449 27.0094 14.0509 27.003 14.0573C26.9915 14.0699 26.98 14.0813 26.9612 14.0834C26.9459 14.0839 26.9306 14.0814 26.9163 14.0761L20.8402 11.4973L20.8287 11.4921C20.7901 11.4764 20.7441 11.4577 20.7441 11.418C20.7084 11.0798 20.5978 10.7537 20.4204 10.4635C20.3911 10.4155 20.3587 10.3654 20.3838 10.3164L24.6302 3.74103ZM20.5237 12.7189L26.2197 15.1287C26.251 15.1433 26.2855 15.1569 26.2991 15.1892C26.3045 15.2087 26.3045 15.2292 26.2991 15.2487C26.2823 15.3322 26.2677 15.4271 26.2677 15.5231V15.6827C26.2677 15.7223 26.227 15.739 26.1894 15.7547L26.1779 15.7588C25.2756 16.1438 13.5098 21.1554 13.4921 21.1554C13.4743 21.1554 13.4555 21.1554 13.4378 21.1376C13.4064 21.1063 13.4378 21.0625 13.466 21.0229C13.471 21.016 13.4758 21.009 13.4806 21.002L18.1614 13.7621L18.1698 13.7496C18.1969 13.7058 18.2282 13.6568 18.2784 13.6568L18.3254 13.6641C18.4319 13.6787 18.5259 13.6922 18.6209 13.6922C19.3311 13.6922 19.989 13.3469 20.3859 12.7565C20.3953 12.7407 20.4073 12.7266 20.4214 12.7147C20.4496 12.6939 20.4914 12.7043 20.5237 12.7189ZM14.0007 22.3008L26.8254 16.8375C26.8254 16.8375 26.8442 16.8375 26.862 16.8552C26.9319 16.9251 26.9915 16.9721 27.0489 17.0159L27.0771 17.0336C27.1032 17.0482 27.1293 17.0649 27.1314 17.092C27.1314 17.1025 27.1314 17.1087 27.1293 17.1181L26.0307 23.8594L26.0265 23.8865C26.0192 23.9386 26.0119 23.9981 25.9628 23.9981C25.6699 24.0179 25.3862 24.1087 25.1363 24.2626C24.8865 24.4166 24.678 24.6291 24.5289 24.8817L24.5236 24.8901C24.509 24.914 24.4954 24.937 24.4714 24.9495C24.4495 24.96 24.4213 24.9558 24.3983 24.9506L14.1709 22.8433C14.1605 22.8412 14.0122 22.3018 14.0007 22.3008Z" fill="url(#paint0_radial)"/>
</g>
<defs>
<radialGradient id="paint0_radial" cx="0" cy="0" r="1" gradientUnits="userSpaceOnUse" gradientTransform="translate(-1.34297 19.4356) rotate(90) scale(39.956 46.1814)">
<stop stop-color="#20C6B7"/>
<stop offset="1" stop-color="#4D9ABF"/>
</radialGradient>
<clipPath id="clip0">
<rect width="26" height="26" fill="white"/>
</clipPath>
</defs>
</svg>
