<svg fill="none" xmlns="http://www.w3.org/2000/svg" viewBox="0 0 41 40"><g clip-path="url(#clip0)"><path d="M3.073 20.029v-9.546a.85.85 0 01.48-.814L20.02.159c.296-.185.629-.223.925-.038l16.54 9.547a.888.888 0 01.444.813v19.057a.888.888 0 01-.444.813l-14.209 8.213c-.744.446-1.497.877-2.257 1.295a.97.97 0 01-1 0l-16.503-9.51c-.296-.185-.443-.408-.443-.778v-9.546.004z" fill="#009438"/><path d="M14.728 16.475V27.6c0 1.257-1 2.367-2.331 2.331-.813-.038-1.443-.37-1.875-1.073-.223-.332-.296-.702-.296-1.11V12.296c0-1.038.628-1.775 1.442-2.109.814-.334 1.628-.259 2.443 0 .777.223 1.368.703 1.875 1.295l9.842 11.804c.038.037.075.112.148.185V12.22c0-1.184.812-2.109 1.962-2.22 1.443-.185 2.405.85 2.553 1.925v15.75c0 .875-.408 1.517-1.148 1.925-.555.296-1.147.37-1.775.332a4.037 4.037 0 01-2.442-1.036c-.37-.332-.63-.74-.963-1.11l-9.362-11.213c0-.037-.038-.075-.075-.112l.002.014z" fill="#FEFEFE"/></g><defs><clipPath id="clip0"><path fill="#fff" transform="translate(.5)" d="M0 0h40v40H0z"/></clipPath></defs></svg>