<svg fill="none" xmlns="http://www.w3.org/2000/svg" viewBox="0 0 92 20"><g clip-path="url(#clip0)"><path d="M32.8 9.1a4.5 4.5 0 014-2.1c3.6 0 4.5 2 4.5 5v7.6H40v-7.5c0-2.2-.3-4-3.2-4-3.4 0-4 2.8-4 5.3v6.2h-1.3V7.3h1.3V9" fill="#0070BA"/><path d="M40 19.6h1.3V12c0-3.6-1.3-5-4.4-5-1.7 0-3.2.7-4 2v.1h-.1V7.2h-1.2v12.3h1.2v-6.2c0-3.6 1.3-5.4 4-5.4 3 0 3.3 2 3.3 4v7.6zm1.3.1H40V12c0-2.2-.3-4-3.2-4-3.5 0-4 3-4 5.3v6.2h-1.3V7.3v-.1h1.3V9a4.6 4.6 0 014-2c3.2 0 4.6 1.5 4.6 5V19.8zM43.7 19.6h1.1V7.3h-1.1v12.3z" fill="#0070BA"/><path d="M43.7 19.6h1V7.3h-1v12.3zm1.1 0h-1.1V7.3h1.1v12.3zM48.4 8.8A3.3 3.3 0 0151.6 7c1.5 0 2.7.8 3.4 2.3.6-1.5 2-2.3 3.5-2.3 3 0 3.7 2.2 3.7 4.9v7.7h-1.2v-7.9c0-1.9-.3-3.6-2.6-3.6-2.5 0-3 2.3-3 4.4v7.1H54V12c0-2-.4-3.9-2.7-3.9-2.5 0-3 2.7-3 4.7v6.8h-1.2V7.3h1.2v1.5" fill="#0070BA"/><path d="M61 19.6h1v-7.7c0-2.4-.4-4.8-3.6-4.8-1.6 0-2.9.8-3.5 2.2a3.4 3.4 0 00-3.4-2.2c-1.3 0-2.4.7-3 1.8h-.1V7.3h-1v12.3h1v-6.8c0-2.1.5-4.7 3-4.7 2.4 0 2.7 2.1 2.7 4v7.5h1v-7c0-3 1.2-4.5 3.2-4.5C60.7 8 61 10 61 11.7v7.9zm1 0H61v-7.9c0-1.7-.2-3.5-2.6-3.5-2.5 0-3 2.3-3 4.3v7.1H54V12c0-1.9-.4-3.8-2.7-3.8-2.4 0-3 2.5-3 4.6v6.8h-1.1-.1V7.3h1.2v1.4c.7-1 1.8-1.7 3.1-1.7 1.5 0 2.7.7 3.4 2.1.6-1.4 1.9-2.1 3.5-2.1 3.3 0 3.7 2.5 3.7 4.9v7.7zM75 13.4c0-2.7-2-5.2-4.7-5.2-3 0-4.8 2.3-4.8 5.2 0 3 1.8 5.4 4.7 5.4 3 0 4.8-2.5 4.8-5.4zM64.4.2h1.2v9.3c1-1.6 2.8-2.4 4.7-2.4 3.5 0 5.8 2.7 5.8 6.3 0 3.6-2.3 6.5-5.9 6.5-1.8 0-3.7-.9-4.6-2.5v2.3h-1.2" fill="#0070BA"/><path d="M70.3 8.2c-2.8 0-4.7 2.1-4.7 5.3 0 2.6 1.6 5.3 4.6 5.3 3 0 4.7-2.8 4.7-5.4 0-2.5-1.8-5.2-4.6-5.2zm0 10.7c-3.2 0-4.9-2.8-4.9-5.5 0-3.1 2-5.3 4.9-5.3 2.9 0 4.7 2.8 4.7 5.3 0 2.7-1.7 5.5-4.8 5.5zm-4.7-1.5h.1a5.2 5.2 0 004.5 2.5c3.5 0 5.9-2.7 5.9-6.5 0-3.7-2.4-6.3-5.8-6.3-2 0-3.6 1-4.6 2.4h-.1V.3h-1.1v19.3h1v-2.1-.1zm4.6 2.6c-1.9 0-3.7-1-4.6-2.4v2.1h-1.2V.2h1.2v9.1C66.6 8 68.4 7 70.3 7c3.4 0 5.9 2.6 5.9 6.4 0 3.8-2.5 6.6-6 6.6zM77.6 19.6h1.2V.2h-1.2v19.4z" fill="#0070BA"/><path d="M77.7 19.6h1V.2h-1v19.4zm1.1 0h-1.2V.2h1.2v19.4zM90.8 12.4c-.3-2.3-2.1-4.3-4.6-4.3-2.4 0-4.5 2-4.7 4.3h9.3zm-9.3 1.1c0 3.1 2 5.2 4.8 5.2 2 0 3.4-1.1 4.3-2.8l1 .6a5.8 5.8 0 01-5.4 3.3c-3.6 0-5.8-3-5.8-6.4 0-3.5 2.3-6.4 5.8-6.4 3.6 0 5.8 3 5.7 6.5H81.5" fill="#0070BA"/><path d="M81.6 12.3h9.1c-.3-2-2-4.1-4.5-4.1a4.7 4.7 0 00-4.6 4.1zm9.2.2h-9.3A4.9 4.9 0 0186.2 8c2.7 0 4.4 2.2 4.6 4.3zM86.2 7c-3.3 0-5.8 2.8-5.8 6.4 0 3.7 2.5 6.4 5.8 6.4 2.3 0 4.2-1.1 5.3-3.3l-.9-.5c-1 1.8-2.5 2.8-4.3 2.8-1.3 0-2.6-.5-3.5-1.4-.9-1-1.4-2.4-1.3-3.9H92c0-2-.6-3.6-1.8-4.8-1-1.1-2.4-1.7-4-1.7zm0 13c-3.4 0-5.9-2.8-5.9-6.6 0-3.7 2.5-6.5 5.9-6.5 1.6 0 3 .6 4 1.7a7 7 0 011.8 5H81.5c0 1.4.4 2.7 1.3 3.7.9.9 2 1.4 3.4 1.4 1.8 0 3.3-1 4.2-2.8l1 .6s.1 0 0 0c-1 2.2-3 3.4-5.3 3.4z" fill="#0070BA"/><path d="M8.2 19.6s-1-.1-1.7-.6c-.7-.6-1.1-1.5-1.2-1.5v-.3l4.4-6.4-5.9-2.4-.1-.2s-.2-1 .2-1.8c.3-1 1-1.5 1.1-1.5h.3l1.2.5c.2 0 .3.2.2.3l-.3.2-1.2-.5c-.2.2-.6.6-.9 1.2-.2.5-.2 1-.2 1.3l6.1 2.5.2.2v.2l-4.6 6.6c.2.3.5.8 1 1.1.6.5 1.3.5 1.3.5.2 0 .3.2.3.3 0 .2 0 .3-.2.3zM11.2 4.5a.3.3 0 01-.2-.3V1.1.8s.7-.4 1.8-.5l.7.1c.2 0 .3.2.2.4l-.3.2-.6-.1c-.7 0-1.1.2-1.3.3v3c0 .2-.1.3-.3.3zM7.6 4.2a.3.3 0 01-.3-.3V1l.1-.2S8.1.3 9.1.3l.8.1c.2 0 .2.2.2.4 0 .1-.2.2-.3.1h-.6c-.7 0-1.1.2-1.3.3V4s-.1.2-.3.2z" fill="#F7A823"/><path d="M4.5 19.6s-.8-.1-1.6-.6c-.8-.6-1.2-1.5-1.2-1.5v-.3l4.4-6.4L.2 8.4 0 8.2S0 7.2.2 6.4c.4-1 1.1-1.5 1.2-1.5 0-.1.2-.1.2 0l1.2.4c.2 0 .2.2.2.4 0 0-.2.2-.3.1l-1.1-.4c-.2.2-.7.6-.9 1.2a3 3 0 00-.2 1.3l6.1 2.5.2.2v.2l-4.6 6.6c.1.3.5.8 1 1.1.6.5 1.3.5 1.3.5.2 0 .3.2.3.3 0 .2-.1.3-.3.3z" fill="#F7A823"/><path d="M12 19.8c-.1 0-1 0-1.8-.6-.9-.6-1.3-1.6-1.3-1.6V17l4.2-6-5.5-2.3a.6.6 0 01-.4-.5s-.2-1 .2-2a4 4 0 011.3-1.6h.5l5 2c.3.1.4.5.3.8-.1.3-.5.4-.7.3L9 5.7l-.7 1a3 3 0 00-.1 1l5.9 2.5.3.3-.1.5-4.4 6.5c.2.2.4.6.8.8.3.3.7.4 1 .4l4.3-6.4c.1-.2.3-.3.5-.3l.4.3 4.5 6.4c.2 0 .7-.1 1-.4l.7-.9-4.5-6.4v-.5l.3-.3 6-2.5-.3-1.2a3 3 0 00-.6-.8l-4.7 2c-.3.1-.6 0-.7-.3-.2-.3 0-.7.3-.8l5-2c.2-.2.4-.1.6 0 0 0 .8.7 1.1 1.5.4.8.3 2 .3 2 0 .3-.1.5-.3.5L20 11l4.2 6c.1.2.2.4 0 .6 0 .1-.4 1-1.1 1.6-.8.6-1.7.7-1.9.7-.1 0-.3 0-.4-.2l-4.2-6.1-4.2 6c0 .2-.3.2-.4.2z" fill="#0070BA"/><path d="M15 5a.6.6 0 01-.5-.5V1c0-.1 0-.3.2-.4 0 0 .7-.6 1.9-.6 1.1 0 2 .6 2 .6l.2.5v3.3c0 .3-.3.6-.6.6a.6.6 0 01-.5-.6v-3a2.5 2.5 0 00-2.1 0v3c0 .4-.3.6-.6.6z" fill="#0070BA"/></g><defs><clipPath id="clip0"><path fill="#fff" d="M0 0h92v20H0z"/></clipPath></defs></svg>