<svg width="26" height="26" viewBox="0 0 26 26" fill="none" xmlns="http://www.w3.org/2000/svg">
<path d="M11.9298 0.330383C12.2573 0.14923 12.6254 0.0541992 12.9996 0.0541992C13.3739 0.0541992 13.742 0.14923 14.0694 0.330383C17.3281 2.15363 20.5867 3.97363 23.8443 5.79797C24.4575 6.13922 24.867 6.81522 24.8605 7.51397V18.4816C24.8648 19.2096 24.4152 19.9008 23.7685 20.2345C20.5207 22.048 17.2761 23.8636 14.0293 25.676C13.3674 26.0509 12.5062 26.0227 11.8648 25.6165C10.892 25.0575 9.91591 24.5017 8.94308 23.9438C8.74375 23.8257 8.52058 23.7325 8.37975 23.5419C8.50325 23.3761 8.72533 23.3555 8.90625 23.2819C9.3125 23.1551 9.68625 22.9493 10.0589 22.75C10.1532 22.686 10.268 22.711 10.359 22.7673C11.191 23.2407 12.0165 23.7271 12.8517 24.1951C13.0305 24.297 13.2103 24.1626 13.3631 24.0781C16.5492 22.2939 19.7396 20.5172 22.9257 18.733C22.9823 18.705 23.0292 18.6606 23.0602 18.6054C23.0911 18.5503 23.1046 18.4872 23.099 18.4242C23.1022 14.8059 23.1001 11.1875 23.1012 7.56922C23.1069 7.49837 23.0902 7.42751 23.0534 7.36667C23.0167 7.30582 22.9618 7.25806 22.8964 7.23013C19.6605 5.42638 16.4257 3.6183 13.1897 1.81347C13.1337 1.77583 13.0677 1.75574 13.0002 1.75574C12.9326 1.75574 12.8666 1.77583 12.8106 1.81347C9.57358 3.6183 6.33875 5.42747 3.10283 7.2323C3.03773 7.25964 2.9829 7.30682 2.94614 7.3671C2.90939 7.42739 2.89257 7.49774 2.89808 7.56813V18.4275C2.88725 18.5553 2.95766 18.6766 3.07466 18.7319C3.93808 19.2172 4.80258 19.6982 5.666 20.1814C6.1535 20.4414 6.75041 20.5952 7.28666 20.3959C7.76008 20.228 8.09158 19.7502 8.08291 19.2519C8.08725 15.6552 8.08075 12.0575 8.08616 8.4608C8.07533 8.30155 8.227 8.1683 8.38408 8.18455C8.799 8.1813 9.21391 8.17913 9.62991 8.18455C9.80325 8.1813 9.92241 8.35355 9.90075 8.51388C9.89858 12.1344 9.90508 15.7538 9.8975 19.3743C9.8975 20.3385 9.49775 21.3893 8.5975 21.8605C7.48708 22.4304 6.1145 22.3101 5.01816 21.763C4.06916 21.294 3.16241 20.7404 2.23075 20.2377C1.58183 19.9051 1.13441 19.2118 1.13875 18.4827V7.51505C1.13225 6.80113 1.558 6.1143 2.18958 5.77738L11.9287 0.331466L11.9298 0.330383Z" fill="#8CC84B"/>
<path d="M14.763 7.92778C16.1789 7.83786 17.6945 7.87361 18.9685 8.56586C19.9554 9.09453 20.5025 10.206 20.5198 11.2915C20.4916 11.4378 20.3378 11.519 20.197 11.5082C19.7853 11.5082 19.3747 11.5136 18.9641 11.506C18.7897 11.5125 18.6879 11.3533 18.6662 11.2005C18.5481 10.6805 18.2621 10.167 17.7692 9.91678C17.0109 9.54086 16.1334 9.55928 15.3057 9.56795C14.7034 9.59936 14.0545 9.65136 13.5431 10.0013C13.151 10.2678 13.0318 10.8051 13.1716 11.2384C13.3037 11.5483 13.6656 11.649 13.9624 11.7411C15.6686 12.1831 17.4767 12.1398 19.1516 12.7204C19.8449 12.9588 20.522 13.4192 20.7592 14.1374C21.0691 15.1016 20.9326 16.2521 20.2414 17.0256C19.6802 17.6615 18.8634 18.0082 18.0476 18.1956C16.9643 18.435 15.8376 18.4415 14.737 18.3354C13.7024 18.2184 12.6245 17.9486 11.825 17.2499C11.1425 16.6627 10.8066 15.7462 10.8413 14.8622C10.8489 14.7138 10.9984 14.6087 11.1436 14.6217C11.5574 14.6184 11.9701 14.6174 12.384 14.6217C12.5497 14.6109 12.6721 14.7517 12.6808 14.9055C12.7566 15.4006 12.9451 15.9206 13.3806 16.2131C14.2213 16.7504 15.2765 16.7136 16.2396 16.7288C17.0369 16.6941 17.9328 16.6833 18.5828 16.1611C18.9262 15.8632 19.0281 15.3649 18.936 14.9369C18.8352 14.5751 18.4528 14.4061 18.1246 14.2956C16.44 13.768 14.6113 13.9598 12.943 13.3629C12.2659 13.1256 11.6105 12.6771 11.3505 11.9881C10.9876 11.0131 11.1544 9.80736 11.9181 9.05986C12.6635 8.3167 13.7392 8.0307 14.763 7.92778Z" fill="#8CC84B"/>
</svg>
