<svg width="26" height="26" viewBox="0 0 26 26" fill="none" xmlns="http://www.w3.org/2000/svg">
<path d="M4.85242 4.55836C5.65888 5.21534 5.96141 5.16521 7.47571 5.0639L21.7521 4.20428C22.0549 4.20428 21.8031 3.90136 21.7022 3.85102L19.3312 2.1322C18.8768 1.77853 18.2716 1.37348 17.1115 1.47479L3.28767 2.48587C2.78353 2.536 2.68282 2.78877 2.88362 2.99139L4.85242 4.55836ZM5.70956 7.8947V22.9578C5.70956 23.7673 6.11298 24.0702 7.02099 24.0201L22.7107 23.1097C23.6192 23.0596 23.7203 22.5028 23.7203 21.8452V6.8832C23.7203 6.22663 23.4685 5.87255 22.9124 5.92309L6.51643 6.8832C5.91138 6.93418 5.70956 7.2377 5.70956 7.8947ZM21.1984 8.70271C21.299 9.15812 21.1984 9.6131 20.7435 9.66427L19.9875 9.81531V20.9359C19.3312 21.2896 18.7259 21.4918 18.2215 21.4918C17.414 21.4918 17.2118 21.2389 16.607 20.4811L11.6621 12.6967V20.2283L13.2268 20.5824C13.2268 20.5824 13.2268 21.4918 11.9644 21.4918L8.4842 21.6943C8.38309 21.4918 8.4842 20.9868 8.8372 20.8856L9.74538 20.6332V10.6749L8.48441 10.5736C8.3833 10.1182 8.63515 9.46164 9.34196 9.41068L13.0755 9.15831L18.2215 17.0441V10.0681L16.9095 9.91705C16.8088 9.36034 17.2118 8.9561 17.7164 8.90597L21.1984 8.70271ZM2.12699 1.12113L16.506 0.0592933C18.2718 -0.0925748 18.7261 0.0091541 19.8359 0.817597L24.4259 4.05261C25.1832 4.60891 25.4357 4.76037 25.4357 5.3668V23.1097C25.4357 24.2217 25.0317 24.8793 23.6194 24.9799L6.9211 25.9911C5.86093 26.0418 5.35635 25.8903 4.80114 25.1821L1.42102 20.7844C0.815341 19.9749 0.563477 19.3693 0.563477 18.6608V2.88967C0.563477 1.98033 0.967536 1.22182 2.12699 1.12113Z" fill="#F5F7F9"/>
</svg>
