<svg width="26" height="26" viewBox="0 0 26 26" fill="none" xmlns="http://www.w3.org/2000/svg">
<path d="M7.99546 21.5823L7.93794 21.4672C7.8229 21.2371 7.8229 21.007 7.88042 20.7194H1.66803L10.8716 4.38313L14.7255 11.3433L15.991 10.423L12.1371 3.46278C12.0795 3.34774 11.6194 2.65747 10.8716 2.65747C10.5264 2.65747 10.0087 2.77251 9.60608 3.5203L0.287497 20.0292C0.229975 20.2017 -0.17268 20.9495 0.172453 21.5823C0.402541 21.9274 0.747674 22.2725 1.55298 22.2725H9.37599C8.57068 22.2725 8.16803 21.9274 7.99546 21.5823Z" fill="#00C58E"/>
<path d="M25.7123 20.0867L18.2344 6.6265C18.1194 6.51146 17.7167 5.76367 16.9689 5.76367C16.6238 5.76367 16.1061 5.93624 15.7035 6.6265L14.7256 8.23712V11.3433L16.9689 7.48934L24.3893 20.7194H21.5707C21.6179 20.9933 21.5776 21.275 21.4557 21.5247L21.3982 21.5823C21.053 22.215 20.1902 22.2725 20.0751 22.2725H24.4468C24.6194 22.2725 25.4247 22.215 25.8274 21.5823C25.9999 21.2946 26.115 20.7769 25.7123 20.0867Z" fill="#108775"/>
<path d="M21.6284 21.5822V21.5247L21.6859 21.4096C21.7435 21.1795 21.801 20.9494 21.7435 20.7194L21.5134 20.0291L15.6461 9.79016L14.7833 8.23706H14.7258L13.8629 9.79016L7.99567 20.0291L7.76559 20.7194C7.70988 21.0119 7.75024 21.3145 7.88063 21.5822C8.11072 21.9273 8.45585 22.2725 9.26116 22.2725H20.1904C20.3629 22.2725 21.2258 22.2149 21.6284 21.5822ZM14.7258 11.3433L20.0753 20.7194H9.3762L14.7258 11.3433Z" fill="#2F495E"/>
</svg>
