<svg width="26" height="26" viewBox="0 0 26 26" fill="none" xmlns="http://www.w3.org/2000/svg">
<path d="M4.39355 6.72642L17.1433 0L23.8329 12.6046L11.1969 19.3299L4.39355 6.72642Z" fill="#4A4545"/>
<path d="M8.73944 12.039L6.28027 7.57354L12.6839 9.04362L10.2247 4.57812" stroke="#FA1516" stroke-width="0.689"/>
<path d="M16.4581 15.4873L9.02539 13.169M11.6546 18.0299L13.9416 10.5701L11.6546 18.0299Z" stroke="#16D41A" stroke-width="0.689"/>
<path d="M14.8564 10.2874L20.116 7.46094" stroke="#FB16BB" stroke-width="0.689"/>
<path d="M17.4873 8.87354L20.1166 13.7345" stroke="#FB16BB" stroke-width="0.603"/>
<path d="M18.3441 4.97359C18.3441 6.10459 17.7732 7.12184 16.8578 7.57359C15.3715 8.30917 13.5417 7.68734 12.9123 6.16092C12.3414 4.86092 12.9123 3.33451 14.1137 2.60001C14.7512 2.27009 15.4875 2.18569 16.1831 2.36283C16.8787 2.53996 17.485 2.9663 17.887 3.56092L12.856 6.16092" stroke="#FCFC17" stroke-width="0.689"/>
<path d="M3.25 14.0735L4.394 7.34814L10.7965 19.3872L9.31017 25.2654L3.25 14.0746V14.0735ZM11.3685 19.4999L9.65358 25.4907L21.489 19.2182L23.7759 13.0562L11.3685 19.4999Z" fill="#4A4545"/>
</svg>
