<svg width="53" height="53" viewBox="0 0 53 53" fill="none" xmlns="http://www.w3.org/2000/svg">
<path d="M0.0844727 24.0723C0.0844727 13.1897 0.0844727 7.7484 3.46527 4.36761C6.84606 0.986816 12.2874 0.986816 23.17 0.986816H28.9414C39.824 0.986816 45.2653 0.986816 48.6461 4.36761C52.0269 7.7484 52.0269 13.1897 52.0269 24.0723V29.8437C52.0269 40.7263 52.0269 46.1676 48.6461 49.5484C45.2653 52.9292 39.824 52.9292 28.9414 52.9292H23.17C12.2874 52.9292 6.84606 52.9292 3.46527 49.5484C0.0844727 46.1676 0.0844727 40.7263 0.0844727 29.8437V24.0723Z" fill="#FF6900"/>
<path d="M17.3855 36.0403H34.7255C36.7762 36.0403 37.8068 35.0203 37.8068 33.0015V22.079C37.8068 20.0603 36.7762 19.0403 34.7255 19.0403H17.3855C15.3455 19.0403 14.3043 20.0603 14.3043 22.079V33.0015C14.3043 35.0203 15.3455 36.0403 17.3855 36.0403ZM15.7705 22.1534C15.7705 21.0696 16.3549 20.5065 17.4068 20.5065H34.7043C35.7349 20.5065 36.3299 21.0696 36.3299 22.1534V22.9078H15.7705V22.1534ZM17.4068 34.574C16.3549 34.574 15.7705 34.0109 15.7705 32.9271V25.1709H36.3299V32.9271C36.3299 34.0109 35.7349 34.574 34.7043 34.574H17.4068ZM18.7243 32.619H21.1787C21.7737 32.619 22.1668 32.2153 22.1668 31.6521V29.7928C22.1668 29.2296 21.7737 28.8259 21.1787 28.8259H18.7243C18.1293 28.8259 17.7362 29.2296 17.7362 29.7928V31.6521C17.7362 32.2153 18.1293 32.619 18.7243 32.619Z" fill="white"/>
</svg>
