<svg width="144" height="63" viewBox="0 0 144 63" fill="none" xmlns="http://www.w3.org/2000/svg">
<path d="M72.8009 2.26549L74.2806 3.73835C74.2806 3.73835 74.2806 3.63315 74.1749 3.63315L72.8009 2.26549C72.6952 2.14275 72.8009 2.26549 72.8009 2.26549Z" fill="#BD9C15"/>
<path d="M63.1641 15.0303L64.6438 16.5031C64.7495 16.6083 64.7495 16.6083 64.8728 16.6083L63.3931 15.1355C63.2698 15.1355 63.1641 15.1355 63.1641 15.0303Z" fill="#BD9C15"/>
<path d="M74.2796 4.63273L75.7593 6.10559L74.2796 3.72096L72.7998 2.26562L74.2796 4.63273Z" fill="#BA9A16"/>
<path d="M63.376 15.1357L64.8557 16.6086L67.6919 17.1697L66.1065 15.6968L63.376 15.1357Z" fill="#BA9A16"/>
<path d="M65.541 20.9043L67.0208 22.3772L65.541 20.9043Z" fill="#BD9C15"/>
<path d="M71.0913 15.9242L72.5711 17.3971C72.4654 17.2919 72.4654 17.2919 72.342 17.1692L70.8623 15.6963C70.9856 15.819 70.9856 15.9242 71.0913 15.9242Z" fill="#BD9C15"/>
<path d="M70.879 15.6969L72.3587 17.1697C71.337 16.0476 71.2313 14.3468 71.9007 12.9966C72.8167 11.0679 74.7369 10.0684 76.5513 10.2788C77.3441 10.384 78.0311 10.7347 78.7005 11.2958L77.2207 9.82295C76.657 9.26186 75.8643 8.91118 75.0716 8.80598C73.2571 8.57803 71.3194 9.59501 70.421 11.5238C69.7339 12.9966 69.9629 14.6799 70.879 15.6969Z" fill="#BD9C15"/>
<path d="M82.7893 5.42211L84.269 6.89498C84.3747 6.66703 84.3747 6.43909 84.1633 6.21115L82.6836 4.73828C82.895 4.86102 82.895 5.19417 82.7893 5.42211Z" fill="#BD9C15"/>
<path d="M81.3086 8.01692L82.7884 9.48978L84.2681 6.772L82.7884 5.42188L81.3086 8.01692Z" fill="#BA9A16"/>
<path d="M65.541 21.0098L67.1265 22.3599L70.5264 24.7445L69.0642 23.2717L65.541 21.0098Z" fill="#BA9A16"/>
<path d="M82.1013 9.94535L83.5811 11.4182C83.3521 10.7344 83.123 10.0681 82.7883 9.48947L81.3086 8.0166C81.6609 8.70043 81.8723 9.26152 82.1013 9.94535Z" fill="#BD9C15"/>
<path d="M71.8986 20.9497L69.79 23.1641L71.2732 24.5632L73.3817 22.3489L71.8986 20.9497Z" fill="#BA9A16"/>
<path d="M69.0654 23.2712L70.5452 24.744C70.6509 24.744 70.6509 24.8492 70.7742 24.8492C70.8799 24.8492 71.1089 24.8492 71.2322 24.6213L69.7525 23.1484C69.6468 23.2536 69.4178 23.3764 69.2944 23.3764C69.1711 23.3764 69.0654 23.3764 69.0654 23.2712Z" fill="#BD9C15"/>
<path d="M71.9014 21.0098L73.3811 22.4826C73.4868 22.4826 73.7158 22.4826 73.8391 22.5878C74.4029 22.693 74.9666 22.693 75.5479 22.5878L74.0681 21.115C73.5044 21.115 72.9407 21.115 72.3594 21.115C72.2361 21.0098 72.0071 21.0098 71.9014 21.0098Z" fill="#BD9C15"/>
<path d="M85.2893 11.0672L86.769 12.5401C86.769 12.3121 86.769 12.2069 86.6633 12.0842L85.1836 10.6113C85.2893 10.7341 85.2893 10.8393 85.2893 11.0672Z" fill="#BD9C15"/>
<path d="M79.8457 18.0814L81.3255 19.5542C81.5545 19.3263 81.7835 18.9931 82.0125 18.6425C82.2415 18.3093 82.4705 17.9586 82.5762 17.7307L81.0964 16.2578C80.9907 16.591 80.7617 16.9416 80.5327 17.1696C80.2861 17.5027 80.0571 17.8534 79.8457 18.0814Z" fill="#BD9C15"/>
<path d="M75.5312 23.499L77.011 24.9719C77.1167 25.0771 77.24 25.0771 77.3457 25.0771C77.4514 25.0771 77.5747 25.0771 77.6804 24.9719L76.2007 23.499C76.095 23.6042 75.9717 23.6042 75.866 23.6042C75.6369 23.6042 75.6369 23.6042 75.5312 23.499Z" fill="#BD9C15"/>
<path d="M81.2031 16.258L82.6829 17.7308L85.6247 17.3977L84.145 15.9248L81.2031 16.258Z" fill="#BA9A16"/>
<path d="M84.6025 15.4684L86.188 16.8361L86.7517 12.5402L85.2896 11.0674L84.6025 15.4684Z" fill="#BA9A16"/>
<path d="M84.1445 15.9244L85.6243 17.3972C85.8533 17.3972 86.0823 17.1693 86.188 16.8361L84.7082 15.3633C84.6026 15.6964 84.3735 15.9244 84.1445 15.9244Z" fill="#BD9C15"/>
<path d="M80.5151 20.904L82.1006 22.2542L81.3078 19.5364L79.8457 18.0811L80.5151 20.904Z" fill="#BA9A16"/>
<path d="M76.0938 23.604L77.6792 24.9717L81.7661 22.9377L80.1807 21.4648L76.0938 23.604Z" fill="#BA9A16"/>
<path d="M64.1853 9.71771C63.9563 9.71771 63.7273 9.94565 63.6216 10.2788L62.9346 14.6799C62.9346 15.013 63.0403 15.241 63.2693 15.241L66.1055 15.802C66.3345 16.4859 66.5635 17.1522 66.8982 17.7308L65.4184 20.4486C65.3127 20.6765 65.3127 21.0097 65.5241 21.1324L68.924 23.4995C69.0297 23.4995 69.0297 23.6047 69.153 23.6047C69.2587 23.6047 69.4877 23.6047 69.611 23.3768L71.7602 21.1149C71.8659 21.1149 72.0949 21.1149 72.2182 21.2201C72.7819 21.3253 73.3456 21.3253 73.927 21.2201L75.4067 23.5872C75.5124 23.6924 75.6357 23.8151 75.7414 23.8151C75.8471 23.8151 75.9704 23.8151 76.0761 23.7099L80.163 21.676C80.3921 21.5708 80.4978 21.2201 80.4978 20.9921L79.8107 18.1691C80.0397 17.9412 80.2687 17.6081 80.4978 17.2574C80.7268 16.9242 80.9558 16.5735 81.0615 16.3456L84.0033 16.0125C84.2324 16.0125 84.4614 15.7845 84.5671 15.4514L85.2541 11.0503C85.2541 10.7172 85.1484 10.4892 84.9194 10.4892L82.0832 9.92812C81.8542 9.24429 81.6252 8.578 81.2905 7.99937L82.7702 5.28159C82.8759 5.05364 82.8759 4.72049 82.6645 4.59776L79.2646 2.23065C79.1589 2.23065 79.1589 2.12545 79.0356 2.12545C78.8066 2.12545 78.7009 2.12545 78.5776 2.35339L76.4284 4.61529C76.3228 4.61529 76.0937 4.61529 75.9704 4.51009C75.4067 4.40488 74.9487 4.40488 74.385 4.51009L72.9052 2.14298C72.7995 2.03778 72.6762 1.91504 72.5705 1.91504C72.4648 1.91504 72.3415 1.91504 72.2358 2.02024L68.1489 4.0542C67.9199 4.1594 67.8142 4.51009 67.8142 4.73803L68.5012 7.56102C68.2722 7.78896 68.0432 8.12211 67.8142 8.47279C67.5852 8.80594 67.3562 9.15662 67.2505 9.38456L64.1853 9.71771ZM70.8794 15.6968C69.8577 14.5747 69.752 12.8738 70.4214 11.5237C71.3374 9.59497 73.2576 8.59553 75.072 8.80594C75.988 8.91114 76.7808 9.26183 77.4502 10.0509C78.4719 11.173 78.5776 12.7686 77.9082 14.224C76.9922 16.1527 75.072 17.1522 73.2576 16.9418C72.3415 16.8366 71.5488 16.4859 70.8794 15.6968Z" fill="#F3C91D"/>
<path d="M80.1816 21.4651L81.6614 22.9379C81.8904 22.8327 81.9961 22.4821 81.9961 22.2541L80.5163 20.7812C80.6397 21.1144 80.4106 21.3423 80.1816 21.4651Z" fill="#BD9C15"/>
<path d="M87.4912 48.0124V30.5134C87.4912 30.5134 88.8477 27.9183 91.6838 26.9014V28.0236V48.1352L87.4912 48.0124Z" fill="#101113"/>
<path d="M79.4231 39.0868L85.0955 31.8628H80.5505L75.1072 38.8589H74.8782V27.0059C72.1477 28.0228 70.6855 30.6179 70.6855 30.6179V48.1169H74.8782V43.4879L76.3579 41.6819L80.5505 48.1169H85.4302L79.4231 39.0868Z" fill="#101113"/>
<path d="M110.075 39.7538C110.075 45.0667 106.904 48.4507 102.024 48.4507C97.0391 48.4507 93.8506 45.1719 93.8506 39.7538C93.8506 34.441 97.0215 31.1621 102.024 31.1621C106.886 31.1796 110.075 34.4585 110.075 39.7538ZM98.0432 39.7538C98.0432 42.91 99.5229 44.9439 101.901 44.9439C104.174 44.9439 105.759 42.91 105.759 39.7538C105.759 36.5977 104.174 34.5637 101.901 34.5637C99.6286 34.5637 98.0432 36.5977 98.0432 39.7538Z" fill="#101113"/>
<path d="M69.0996 43.3832C68.4126 46.5393 65.5764 48.468 61.3838 48.468C56.2752 48.468 53.21 45.3119 53.21 39.8763C53.21 34.4408 56.2752 31.0742 61.2605 31.0742C66.2458 31.0742 69.082 34.2304 69.082 39.5432V40.8933H57.7373V41.1213C57.843 43.6111 59.217 45.1892 61.5952 45.1892C63.304 45.1892 64.5371 44.6281 64.9951 43.4884L69.0996 43.3832ZM57.7549 38.0703H64.907C64.8013 35.8084 63.4273 34.4583 61.3838 34.4583C59.3403 34.4583 57.8606 35.9136 57.7549 38.0703Z" fill="#101113"/>
<path d="M43.8032 31.5127H40.9671H36.7568V49.2397V54.8856C39.4873 53.8687 40.9495 51.2736 40.9495 51.2736V48.1175H43.6799C48.5596 48.1175 52.0828 44.7334 52.0828 39.8765C52.0828 34.8968 48.6829 31.5127 43.8032 31.5127ZM42.7815 44.6107H40.9671V34.8968H42.7815C46.1814 34.8968 48.1192 36.5976 48.1192 39.7537C48.1192 42.9099 46.1814 44.6107 42.7815 44.6107Z" fill="#101113"/>
<path d="M88.6705 54.8161V51.5898H87.4902V51.1865H90.3088V51.5898H89.1285V54.8161H88.6705Z" fill="#101113"/>
<path d="M97.0385 52.9923C97.0385 54.1495 96.4043 54.9035 95.3649 54.9035C94.308 54.9035 93.6914 54.1671 93.6914 52.9923C93.6914 51.8175 94.3432 51.0811 95.3649 51.0811C96.4043 51.0811 97.0385 51.8175 97.0385 52.9923ZM94.167 52.9923C94.167 53.8865 94.6251 54.4827 95.3826 54.4827C96.14 54.4827 96.5804 53.904 96.5804 52.9923C96.5804 52.0805 96.1224 51.5019 95.3826 51.5019C94.6251 51.5019 94.167 52.0805 94.167 52.9923Z" fill="#101113"/>
<path d="M104.049 52.9923C104.049 54.1495 103.415 54.9035 102.376 54.9035C101.319 54.9035 100.702 54.1671 100.702 52.9923C100.702 51.8175 101.354 51.0811 102.376 51.0811C103.415 51.0811 104.049 51.8175 104.049 52.9923ZM101.16 52.9923C101.16 53.8865 101.618 54.4827 102.376 54.4827C103.133 54.4827 103.574 53.904 103.574 52.9923C103.574 52.0805 103.116 51.5019 102.376 51.5019C101.636 51.5019 101.16 52.0805 101.16 52.9923Z" fill="#101113"/>
<path d="M110.074 54.8161H107.854V51.1865H108.313V54.4128H110.074V54.8161Z" fill="#101113"/>
</svg>
