<svg fill="none" xmlns="http://www.w3.org/2000/svg" viewBox="0 0 143 64">
  <path d="M72.1 2.3l1.5 1.5v-.1L72 2.3c0-.1 0 0 0 0zM62.5 15.2l1.5 1.4.2.1-1.5-1.4-.2-.1z" fill="#BD9C15"/>
  <path d="M73.6 4.7l1.5 1.5-1.5-2.4-1.5-1.5 1.5 2.4zM62.7 15.3l1.5 1.4 2.8.6-1.6-1.5-2.7-.5z" fill="#BA9A16"/>
  <path d="M64.9 21l1.5 1.6-1.5-1.5zM70.4 16l1.5 1.5-.2-.2-1.5-1.5.2.3z" fill="#BD9C15"/>
  <path d="M70.2 15.8l1.5 1.5a3.8 3.8 0 01-.5-4.2c1-2 2.9-3 4.7-2.7.8 0 1.5.4 2.1 1l-1.4-1.5c-.6-.6-1.4-1-2.2-1-1.8-.3-3.7.8-4.6 2.7a4 4 0 00.4 4.2zM82.1 5.5l1.5 1.4c.1-.2.1-.4-.1-.6L82 4.8c.2.1.2.4.1.7z" fill="#BD9C15"/>
  <path d="M80.6 8l1.5 1.6 1.5-2.8-1.5-1.3L80.6 8zM64.9 21.2l1.6 1.3 3.4 2.4-1.5-1.4-3.5-2.3z" fill="#BA9A16"/>
  <path d="M81.4 10l1.5 1.5c-.2-.7-.4-1.4-.8-2l-1.5-1.4c.4.7.6 1.2.8 2z" fill="#BD9C15"/>
  <path d="M71.2 21.1l-2 2.2 1.4 1.5 2.1-2.3-1.5-1.4z" fill="#BA9A16"/>
  <path d="M68.4 23.5l1.5 1.4.2.1c.1 0 .3 0 .5-.2L69 23.3c-.1.1-.3.3-.5.3l-.2-.1zM71.2 21.2l1.5 1.5h.5c.5.2 1.1.2 1.7 0l-1.5-1.4h-1.7l-.5-.1zM84.6 11.2l1.5 1.4-.1-.4-1.5-1.5.1.5zM79.2 18.2l1.5 1.5.6-1c.3-.2.5-.6.6-.8l-1.5-1.5c0 .3-.3.7-.5 1l-.7.8zM74.9 23.7l1.4 1.5h.7l-1.5-1.5H75z" fill="#BD9C15"/>
  <path d="M80.5 16.4l1.5 1.5 3-.4-1.5-1.4-3 .3zM84 15.6l1.5 1.4.6-4.4-1.5-1.4-.7 4.4z" fill="#BA9A16"/>
  <path d="M83.5 16l1.5 1.5c.2 0 .4-.2.5-.5L84 15.5c0 .3-.3.6-.5.6z" fill="#BD9C15"/>
  <path d="M79.8 21l1.6 1.4-.8-2.7-1.4-1.5.6 2.9zM75.4 23.8l1.6 1.4 4.1-2-1.6-1.6-4 2.2z" fill="#BA9A16"/>
  <path d="M63.5 9.8c-.2 0-.4.2-.5.6l-.7 4.4c0 .3 0 .6.3.6l2.8.5.8 2-1.4 2.7c-.2.2-.2.6 0 .7l3.5 2.4h.2l.4-.1 2.2-2.3h.5c.5.2 1 .2 1.7 0l1.4 2.5.4.2.3-.1 4.1-2c.2-.2.3-.5.3-.7l-.7-2.9c.3-.2.5-.6.7-1 .3-.2.5-.6.6-.8l3-.4c.2 0 .4-.2.5-.5l.7-4.5c0-.3-.1-.5-.3-.5l-2.9-.6c-.2-.7-.4-1.4-.8-2l1.5-2.7c.1-.2.1-.5-.1-.7l-3.4-2.4h-.2c-.3 0-.4 0-.5.2l-2.1 2.3c-.1 0-.4 0-.5-.2a4 4 0 00-1.6 0l-1.5-2.3-.3-.3-.3.1-4.1 2c-.2.2-.4.5-.4.8l.7 2.8a6 6 0 00-.7 1l-.5.9-3 .3zm6.7 6a3.8 3.8 0 01-.4-4.2c.9-2 2.8-3 4.6-2.7 1 0 1.7.4 2.4 1.2 1 1.2 1.1 2.8.4 4.2-.9 2-2.8 3-4.6 2.8-1-.1-1.7-.5-2.4-1.3z" fill="#F3C91D"/>
  <path d="M79.5 21.6l1.5 1.5c.2 0 .3-.4.3-.7L79.8 21c.2.4 0 .6-.3.7z" fill="#BD9C15"/>
  <path d="M86.8 48.4V30.8S88.2 28 91 27V48.5l-4.2-.1zM78.8 39.4l5.6-7.3H80l-5.5 7h-.2V27.3C71.5 28.2 70 31 70 31v17.6h4.2v-4.7l1.5-1.8 4.2 6.5h4.9l-6-9.1zM109.4 40c0 5.4-3.2 8.8-8 8.8-5 0-8.2-3.3-8.2-8.7 0-5.4 3.2-8.7 8.2-8.7 4.8 0 8 3.3 8 8.7zm-12 0c0 3.3 1.5 5.3 3.8 5.3s3.9-2 3.9-5.2-1.6-5.3-3.9-5.3c-2.2 0-3.8 2-3.8 5.3zM68.4 43.7C67.7 47 65 49 60.7 49c-5 0-8.2-3.2-8.2-8.7 0-5.5 3.1-8.9 8-8.9 5 0 8 3.2 8 8.6v1.3H57v.2c0 2.6 1.4 4.1 3.8 4.1 1.7 0 3-.5 3.4-1.7h4.1zm-11.3-5.3h7.1c0-2.3-1.4-3.7-3.5-3.7-2 0-3.5 1.5-3.6 3.7zM43.1 31.8h-7v23.5a9 9 0 004.2-3.6v-3.2H43a8 8 0 008.4-8.3c0-5-3.4-8.4-8.3-8.4zm-1 13.2h-1.8v-9.8h1.8c3.4 0 5.4 1.7 5.4 4.9S45.5 45 42 45zM88 55.3V52h-1.2v-.4h2.8v.4h-1.1v3.3H88zM96.4 53.4c0 1.2-.7 2-1.7 2s-1.7-.8-1.7-2 .7-2 1.7-2 1.7.8 1.7 2zm-2.9 0c0 1 .5 1.5 1.2 1.5.8 0 1.2-.6 1.2-1.5 0-1-.4-1.5-1.2-1.5-.7 0-1.2.6-1.2 1.5zM103.4 53.4c0 1.2-.7 2-1.7 2s-1.7-.8-1.7-2 .7-2 1.7-2 1.7.8 1.7 2zm-3 0c0 1 .6 1.5 1.3 1.5.8 0 1.2-.6 1.2-1.5 0-1-.5-1.5-1.2-1.5s-1.2.6-1.2 1.5zM109.4 55.3h-2.2v-3.7h.4v3.2h1.8v.5z" fill="#DFDFDF"/>
</svg>
