<svg width="207" height="151" viewBox="0 0 207 151" fill="none" xmlns="http://www.w3.org/2000/svg">
<path d="M101.765 1.81282L105.929 5.97424C105.929 5.97424 105.929 5.677 105.632 5.677L101.765 1.81282C101.467 1.46603 101.765 1.81282 101.765 1.81282Z" fill="#BD9C15"/>
<path d="M74.6456 37.8784L78.8101 42.0398C79.1076 42.3371 79.1076 42.3371 79.4546 42.3371L75.2901 38.1757C74.943 38.1757 74.6456 38.1757 74.6456 37.8784Z" fill="#BD9C15"/>
<path d="M105.929 8.5005L110.094 12.6619L105.929 5.92438L101.765 1.8125L105.929 8.5005Z" fill="#BA9A16"/>
<path d="M75.2405 38.1753L79.4051 42.3367L87.3871 43.922L82.9251 39.7606L75.2405 38.1753Z" fill="#BA9A16"/>
<path d="M81.3386 54.4746L85.5032 58.636L81.3386 54.4746Z" fill="#BD9C15"/>
<path d="M96.9557 40.4048L101.12 44.5662C100.823 44.269 100.823 44.269 100.476 43.9222L96.3112 39.7607C96.6582 40.1075 96.6582 40.4048 96.9557 40.4048Z" fill="#BD9C15"/>
<path d="M96.3608 39.7608L100.525 43.9223C97.6498 40.7517 97.3523 35.9462 99.2363 32.1316C101.814 26.6821 107.218 23.8583 112.325 24.4528C114.556 24.75 116.489 25.7408 118.373 27.3261L114.209 23.1647C112.622 21.5794 110.391 20.5886 108.16 20.2913C103.054 19.6473 97.6002 22.5207 95.0718 27.9701C93.1382 32.1316 93.7827 36.8875 96.3608 39.7608Z" fill="#BD9C15"/>
<path d="M129.876 10.7299L134.04 14.8914C134.338 14.2473 134.338 13.6033 133.743 12.9593L129.578 8.79785C130.173 9.14464 130.173 10.0859 129.876 10.7299Z" fill="#BD9C15"/>
<path d="M125.711 18.062L129.876 22.2234L134.04 14.5446L129.876 10.73L125.711 18.062Z" fill="#BA9A16"/>
<path d="M81.3386 54.7715L85.8006 58.5861L95.3692 65.3237L91.2542 61.1622L81.3386 54.7715Z" fill="#BA9A16"/>
<path d="M127.942 23.5115L132.107 27.6729C131.462 25.7408 130.817 23.8583 129.876 22.2234L125.711 18.062C126.702 19.9941 127.297 21.5794 127.942 23.5115Z" fill="#BD9C15"/>
<path d="M99.2264 54.6024L93.2922 60.8589L97.4663 64.8121L103.401 58.5556L99.2264 54.6024Z" fill="#BA9A16"/>
<path d="M91.2542 61.1627L95.4188 65.3241C95.7162 65.3241 95.7162 65.6214 96.0633 65.6214C96.3607 65.6214 97.0053 65.6214 97.3523 64.9773L93.1878 60.8159C92.8903 61.1132 92.2458 61.4599 91.8987 61.4599C91.5517 61.4599 91.2542 61.4599 91.2542 61.1627Z" fill="#BD9C15"/>
<path d="M99.2363 54.7715L103.401 58.9329C103.698 58.9329 104.343 58.9329 104.69 59.2301C106.276 59.5274 107.863 59.5274 109.499 59.2301L105.334 55.0687C103.748 55.0687 102.161 55.0687 100.525 55.0687C100.178 54.7715 99.5338 54.7715 99.2363 54.7715Z" fill="#BD9C15"/>
<path d="M136.916 26.6821L141.08 30.8435C141.08 30.1995 141.08 29.9023 140.783 29.5555L136.618 25.394C136.916 25.7408 136.916 26.0381 136.916 26.6821Z" fill="#BD9C15"/>
<path d="M121.596 46.4984L125.761 50.6599C126.405 50.0158 127.05 49.0746 127.694 48.0837C128.339 47.1425 128.983 46.1516 129.281 45.5076L125.116 41.3462C124.819 42.2875 124.174 43.2783 123.53 43.9223C122.835 44.8636 122.191 45.8544 121.596 46.4984Z" fill="#BD9C15"/>
<path d="M109.449 61.8066L113.614 65.9681C113.911 66.2653 114.258 66.2653 114.556 66.2653C114.853 66.2653 115.2 66.2653 115.498 65.9681L111.333 61.8066C111.036 62.1039 110.689 62.1039 110.391 62.1039C109.747 62.1039 109.747 62.1039 109.449 61.8066Z" fill="#BD9C15"/>
<path d="M125.414 41.3461L129.578 45.5075L137.858 44.5662L133.693 40.4048L125.414 41.3461Z" fill="#BA9A16"/>
<path d="M134.982 39.1169L139.444 42.9811L141.031 30.8436L136.916 26.6821L134.982 39.1169Z" fill="#BA9A16"/>
<path d="M133.693 40.4046L137.858 44.5661C138.502 44.5661 139.147 43.922 139.444 42.9808L135.28 38.8193C134.982 39.7606 134.338 40.4046 133.693 40.4046Z" fill="#BD9C15"/>
<path d="M123.48 54.4746L127.942 58.2892L125.711 50.6104L121.596 46.4985L123.48 54.4746Z" fill="#BA9A16"/>
<path d="M111.036 62.1036L115.498 65.9677L127 60.221L122.538 56.0596L111.036 62.1036Z" fill="#BA9A16"/>
<path d="M77.5211 22.8674C76.8766 22.8674 76.2321 23.5115 75.9346 24.4527L74.0011 36.8875C74.0011 37.8287 74.2985 38.4728 74.943 38.4728L82.9251 40.0581C83.5696 41.9902 84.2141 43.8727 85.1561 45.5076L80.9916 53.1864C80.6941 53.8304 80.6941 54.7717 81.289 55.1185L90.8576 61.8065C91.1551 61.8065 91.1551 62.1037 91.5021 62.1037C91.7996 62.1037 92.4441 62.1037 92.7911 61.4597L98.8397 55.0689C99.1371 55.0689 99.7816 55.0689 100.129 55.3662C101.715 55.6634 103.302 55.6634 104.938 55.3662L109.102 62.0542C109.4 62.3514 109.747 62.6982 110.044 62.6982C110.342 62.6982 110.689 62.6982 110.986 62.401L122.488 56.6542C123.133 56.357 123.43 55.3662 123.43 54.7221L121.497 46.7461C122.141 46.102 122.786 45.1608 123.43 44.17C124.075 43.2287 124.719 42.2379 125.017 41.5938L133.296 40.6526C133.941 40.6526 134.585 40.0085 134.883 39.0673L136.816 26.6325C136.816 25.6912 136.519 25.0472 135.874 25.0472L127.892 23.4619C127.248 21.5298 126.603 19.6473 125.661 18.0124L129.826 10.3336C130.123 9.68958 130.123 8.7483 129.528 8.40152L119.96 1.71351C119.662 1.71351 119.662 1.41627 119.315 1.41627C118.671 1.41627 118.373 1.41627 118.026 2.0603L111.978 8.45106C111.68 8.45106 111.036 8.45106 110.689 8.15381C109.102 7.85657 107.813 7.85657 106.227 8.15381L102.062 1.46581C101.765 1.16856 101.418 0.821777 101.12 0.821777C100.823 0.821777 100.476 0.821778 100.178 1.11902L88.6762 6.86575C88.0317 7.163 87.7342 8.15381 87.7342 8.79784L89.6677 16.7739C89.0232 17.4179 88.3787 18.3592 87.7342 19.35C87.0897 20.2913 86.4452 21.2821 86.1477 21.9261L77.5211 22.8674ZM96.3608 39.7608C93.4852 36.5902 93.1878 31.7848 95.0717 27.9701C97.6498 22.5206 103.054 19.6968 108.16 20.2913C110.738 20.5885 112.969 21.5794 114.853 23.8087C117.729 26.9793 118.026 31.4875 116.142 35.5994C113.564 41.0489 108.16 43.8727 103.054 43.2782C100.476 42.981 98.2447 41.9902 96.3608 39.7608Z" fill="#F3C91D"/>
<path d="M122.538 56.0595L126.703 60.221C127.347 59.9237 127.645 58.9329 127.645 58.2889L123.48 54.1274C123.827 55.0687 123.182 55.7127 122.538 56.0595Z" fill="#BD9C15"/>
<path d="M143.113 131.065V81.6229C143.113 81.6229 146.93 74.2908 154.912 71.4175V74.5881V131.411L143.113 131.065Z" fill="black"/>
<path d="M120.406 105.848L136.37 85.4376H123.579L108.26 105.204H107.615V71.7148C99.9304 74.5882 95.8154 81.9202 95.8154 81.9202V131.362H107.615V118.283L111.78 113.18L123.579 131.362H137.312L120.406 105.848Z" fill="black"/>
<path d="M206.672 107.731C206.672 122.742 197.748 132.303 184.015 132.303C169.984 132.303 161.011 123.039 161.011 107.731C161.011 92.7202 169.935 83.4561 184.015 83.4561C197.698 83.5056 206.672 92.7697 206.672 107.731ZM172.81 107.731C172.81 116.648 176.975 122.395 183.668 122.395C190.063 122.395 194.525 116.648 194.525 107.731C194.525 98.8137 190.063 93.067 183.668 93.067C177.272 93.067 172.81 98.8137 172.81 107.731Z" fill="black"/>
<path d="M91.3534 117.986C89.4198 126.903 81.4378 132.352 69.6382 132.352C55.2606 132.352 46.634 123.435 46.634 108.077C46.634 92.7198 55.2606 83.208 69.2911 83.208C83.3217 83.208 91.3038 92.1253 91.3038 107.136V110.951H59.3755V111.595C59.673 118.63 63.5401 123.088 70.2331 123.088C75.0422 123.088 78.5127 121.503 79.8017 118.283L91.3534 117.986ZM59.4251 102.975H79.5538C79.2563 96.584 75.3892 92.7694 69.6382 92.7694C63.8871 92.7694 59.7226 96.8813 59.4251 102.975Z" fill="black"/>
<path d="M20.1593 84.4468H12.1772H0.328064V134.532V150.485C8.01266 147.611 12.1276 140.279 12.1276 140.279V131.362H19.8122C33.5454 131.362 43.461 121.801 43.461 108.078C43.461 94.0081 33.8924 84.4468 20.1593 84.4468ZM17.2838 121.454H12.1772V94.0081H17.2838C26.8523 94.0081 32.3059 98.8136 32.3059 107.731C32.3059 116.648 26.8523 121.454 17.2838 121.454Z" fill="black"/>
<path d="M146.435 150.286V141.171H143.113V140.031H151.045V141.171H147.724V150.286H146.435Z" fill="black"/>
<path d="M169.984 145.134C169.984 148.404 168.199 150.534 165.274 150.534C162.3 150.534 160.564 148.453 160.564 145.134C160.564 141.815 162.399 139.734 165.274 139.734C168.199 139.734 169.984 141.815 169.984 145.134ZM161.903 145.134C161.903 147.66 163.192 149.345 165.324 149.345C167.456 149.345 168.695 147.71 168.695 145.134C168.695 142.558 167.406 140.923 165.324 140.923C163.192 140.923 161.903 142.558 161.903 145.134Z" fill="black"/>
<path d="M189.716 145.134C189.716 148.404 187.931 150.534 185.006 150.534C182.032 150.534 180.296 148.453 180.296 145.134C180.296 141.815 182.131 139.734 185.006 139.734C187.931 139.734 189.716 141.815 189.716 145.134ZM181.585 145.134C181.585 147.66 182.874 149.345 185.006 149.345C187.138 149.345 188.378 147.71 188.378 145.134C188.378 142.558 187.089 140.923 185.006 140.923C182.924 140.923 181.585 142.558 181.585 145.134Z" fill="black"/>
<path d="M206.672 150.286H200.425V140.031H201.714V149.147H206.672V150.286Z" fill="black"/>
</svg>
