<svg width="53" height="53" viewBox="0 0 53 53" fill="none" xmlns="http://www.w3.org/2000/svg">
<path d="M0.0839844 24.0147C0.0839844 13.1321 0.0839844 7.69079 3.46478 4.30999C6.84557 0.929199 12.2869 0.929199 23.1695 0.929199H28.9409C39.8235 0.929199 45.2648 0.929199 48.6456 4.30999C52.0264 7.69079 52.0264 13.1321 52.0264 24.0147V29.7861C52.0264 40.6687 52.0264 46.11 48.6456 49.4908C45.2648 52.8716 39.8235 52.8716 28.9409 52.8716H23.1695C12.2869 52.8716 6.84557 52.8716 3.46478 49.4908C0.0839844 46.11 0.0839844 40.6687 0.0839844 29.7861V24.0147Z" fill="#FBD91A"/>
<path d="M19.723 23.477C19.723 25.432 20.9449 26.8026 23.2824 27.4614L28.393 28.9276C30.0612 29.4058 30.9218 30.2876 30.9218 31.5201V32.0089C29.5299 32.3383 28.4887 33.592 28.4887 35.1008C28.4887 36.8433 29.9124 38.2564 31.6549 38.2564C33.408 38.2564 34.8212 36.8433 34.8212 35.1008C34.8212 33.592 33.7905 32.3383 32.3987 32.0089V31.5201C32.3987 29.5651 31.1768 28.1839 28.8393 27.5251L23.718 26.0695C22.0605 25.602 21.1893 24.7095 21.1893 23.477V22.9883C22.5918 22.6589 23.6224 21.3945 23.6224 19.8964C23.6224 18.1539 22.2093 16.7408 20.4562 16.7408C18.703 16.7408 17.2899 18.1539 17.2899 19.8964C17.2899 21.3945 18.3312 22.6483 19.723 22.9883V23.477ZM20.4562 21.6389C19.4893 21.6389 18.7243 20.8739 18.7243 19.8964C18.7243 18.9295 19.4893 18.1645 20.4562 18.1645C21.4337 18.1645 22.188 18.9295 22.188 19.8964C22.188 20.8739 21.4337 21.6389 20.4562 21.6389ZM31.6549 33.3583C32.6218 33.3583 33.3868 34.1233 33.3868 35.1008C33.3868 36.0676 32.6218 36.822 31.6549 36.822C30.6774 36.822 29.923 36.0676 29.923 35.1008C29.923 34.1233 30.6774 33.3583 31.6549 33.3583Z" fill="white"/>
</svg>
