<svg viewBox="0 0 25.6 25.6" xmlns="http://www.w3.org/2000/svg"><g fill="none" stroke="#fff"><path d="M18.98 18.64c.17-1.36.12-1.56 1.13-1.34l.25.02c.78.04 1.8-.12 2.4-.4 1.29-.6 2.05-1.6.78-1.33-2.89.6-3.1-.38-3.1-.38 3.06-4.53 4.33-10.28 3.23-11.69-3-3.84-8.2-2.02-8.3-1.98l-.02.01a9.96 9.96 0 00-1.93-.2c-1.3-.02-2.3.34-3.05.91 0 0-9.28-3.82-8.85 4.81.1 1.84 2.63 13.9 5.66 10.25C8.3 16 9.36 14.86 9.36 14.86a2.8 2.8 0 001.83.47l.06-.05a2.01 2.01 0 00.02.52c-.78.87-.55 1.03-2.11 1.35-1.58.32-.65.9-.05 1.05.74.19 2.43.45 3.58-1.16l-.04.18c.3.25.28 1.76.33 2.85s.11 2.09.33 2.68.48 2.13 2.53 1.7c1.72-.36 3.03-.9 3.15-5.8" fill="#000" stroke="#364548" stroke-width="2.15"/><path d="M23.54 15.6c-2.9.6-3.1-.38-3.1-.38 3.05-4.53 4.32-10.28 3.22-11.69-3-3.84-8.2-2.02-8.29-1.98h-.03a10.31 10.31 0 00-1.93-.2c-1.3-.01-2.3.35-3.05.92 0 0-9.28-3.82-8.85 4.8.1 1.84 2.63 13.9 5.66 10.26 1.12-1.34 2.19-2.47 2.19-2.47a2.8 2.8 0 001.83.47l.06-.05a2.02 2.02 0 00.02.52c-.78.87-.55 1.03-2.11 1.35-1.58.32-.65.9-.05 1.05.74.19 2.43.45 3.58-1.16l-.04.19c.3.24.52 1.59.48 2.81s-.06 2.06.18 2.72.48 2.13 2.53 1.7c1.71-.37 2.6-1.32 2.72-2.91.1-1.13.29-.96.3-1.97l.16-.48c.19-1.53.03-2.02 1.09-1.8l.26.03c.77.04 1.79-.12 2.39-.4 1.28-.6 2.04-1.6.78-1.33z" fill="#336791" stroke="none"/><g stroke-width=".72"><g stroke-linecap="round"><path d="M12.81 16.47c-.08 2.84.02 5.7.3 6.4s.88 2.05 2.93 1.6c1.71-.36 2.34-1.07 2.6-2.64l.64-5.01M10.36 2.2S1.07-1.6 1.5 7.03c.1 1.84 2.63 13.9 5.66 10.25 1.11-1.33 2.11-2.37 2.11-2.37m6.1-13.4c-.32.1 5.16-2 8.28 1.98 1.1 1.4-.17 7.15-3.23 11.68" stroke-linejoin="round"/><path d="M20.43 15.17s.2.98 3.1.38c1.26-.26.5.74-.78 1.33-1.06.5-3.42.62-3.46-.06-.1-1.74 1.24-1.21 1.15-1.65-.1-.4-.7-.78-1.1-1.74-.34-.84-4.75-7.3 1.23-6.34.22-.04-1.56-5.7-7.16-5.78S8 8.2 8 8.2" stroke-linejoin="bevel"/></g><g stroke-linejoin="round"><path d="M11.25 15.77c-.78.87-.55 1.02-2.11 1.34-1.58.33-.65.9-.05 1.06.74.18 2.43.44 3.58-1.16.35-.5 0-1.27-.48-1.47-.23-.1-.54-.22-.94.23z"/><path d="M11.2 15.75c-.08-.51.16-1.12.43-1.83.4-1.07 1.31-2.14.58-5.54C11.66 5.85 8 7.85 8 8.2s.17 1.74-.06 3.36c-.3 2.12 1.35 3.92 3.25 3.73" stroke-linecap="round"/></g></g><g fill="#fff"><path d="M10.32 8.14c-.02.12.22.43.52.48s.56-.2.57-.32-.21-.25-.51-.3-.56.03-.58.14z" stroke-width=".24"/><path d="M19.49 7.9c.01.12-.22.44-.52.48s-.56-.2-.57-.32.21-.25.51-.29.56.02.58.14z" stroke-width=".12"/></g><path d="M20.56 7.1c.05.92-.2 1.54-.23 2.52-.04 1.42.68 3.05-.41 4.68" stroke-linecap="round" stroke-linejoin="round" stroke-width=".72"/></g></svg>