<svg width="26" height="26" viewBox="0 0 26 26" fill="none" xmlns="http://www.w3.org/2000/svg">
<path fill-rule="evenodd" clip-rule="evenodd" d="M5.08462 10.7367C5.11951 10.763 5.18007 10.7801 5.11951 10.8321C5.07607 10.8927 5.02407 10.9447 4.98951 11.0141C4.95495 11.075 4.92895 11.0921 4.87695 11.049C4.94607 10.9361 5.01518 10.8318 5.08429 10.7363L5.08462 10.7367ZM22.4931 19.8258C22.4931 19.8515 22.5017 19.8686 22.5017 19.8949C22.5191 19.8604 22.5191 19.8429 22.528 19.8258H22.4931ZM22.4931 19.9035V19.8949V19.9035ZM20.7264 23.2858L19.2191 14.9256C19.1934 14.9174 19.1589 14.9003 19.098 14.8828C19.1154 14.9174 19.1243 14.9434 19.1329 14.9694C19.1756 14.9608 19.1934 14.9608 19.2105 14.9523C19.2105 14.9437 19.2105 14.9352 19.2194 14.9259L20.7268 23.2868L20.7264 23.2858ZM19.1674 13.0437C19.1589 13.0694 19.1589 13.0957 19.1589 13.1217C19.1589 13.0954 19.1589 13.0691 19.1681 13.0434L19.1674 13.0437ZM19.176 13.2169C19.1674 13.2169 19.1674 13.2169 19.1589 13.2076V13.2162C19.1681 13.2248 19.1681 13.2248 19.1766 13.2162L19.176 13.2169ZM19.1589 13.286V13.2251C19.1335 13.2336 19.1075 13.2336 19.0726 13.2425C19.1161 13.259 19.1595 13.2682 19.1595 13.2853L19.1589 13.286Z" fill="#DD3735"/>
<path fill-rule="evenodd" clip-rule="evenodd" d="M25.9049 11.1789C25.8878 10.8406 25.8793 10.5022 25.8444 10.1642C25.7838 9.70446 25.7233 9.23613 25.6193 8.78525C25.5413 8.41236 25.4119 8.05659 25.2816 7.70115C25.117 7.28482 24.9525 6.85993 24.7445 6.46105C24.4068 5.81927 23.9651 5.24661 23.558 4.64829C23.2888 4.26651 22.9426 3.95451 22.6826 3.56418C22.5355 3.33874 22.3189 3.14818 22.1023 2.97507C21.7558 2.69697 21.3921 2.4452 21.0284 2.20264C20.7513 2.01175 20.4742 1.82975 20.1793 1.66487C19.9457 1.53421 19.6945 1.43021 19.452 1.31732C19.1749 1.18732 18.9063 1.03099 18.5946 0.970437C18.5163 0.953982 18.4472 0.927653 18.3692 0.901324C18.1701 0.83221 17.9795 0.75421 17.7801 0.693324C17.4773 0.59788 17.1827 0.485323 16.8707 0.406994C16.5686 0.328994 16.2566 0.277323 15.9446 0.233551C15.5984 0.182539 15.2436 0.164437 14.8967 0.130539C14.6716 0.10421 14.4465 0.0785386 14.2299 0.0699816C13.9008 0.0528677 13.5632 0.0528677 13.234 0.0443108C13.0695 0.0354247 12.8964 0.0179816 12.7318 0.0268677C12.4807 0.0354247 12.2296 0.0614247 11.9781 0.0959817C11.7359 0.122311 11.4934 0.165096 11.2597 0.200311C10.9743 0.234868 10.6887 0.252311 10.4027 0.287197C10.1341 0.322083 9.857 0.374083 9.58877 0.417526C9.49333 0.434969 9.39788 0.469526 9.30244 0.48664C9.0951 0.530083 8.87854 0.547526 8.67054 0.616969C8.29864 0.730184 7.92576 0.860513 7.56209 0.998741C7.22409 1.13763 6.89497 1.28507 6.57474 1.45851C6.24563 1.64018 5.93363 1.85674 5.62196 2.0654C5.32707 2.26484 5.03285 2.47284 4.74652 2.69829C4.47006 2.9155 4.21006 3.15806 3.95862 3.40094C3.82039 3.53917 3.7075 3.70439 3.5775 3.86039C3.36128 4.11216 3.14472 4.35472 2.93672 4.61505C2.76426 4.83226 2.60761 5.05737 2.44305 5.28315C2.14915 5.68137 1.89804 6.10659 1.66437 6.53181C1.56892 6.70525 1.48237 6.87869 1.39581 7.05181C1.26581 7.31181 1.12725 7.56358 1.00614 7.83246C0.919251 8.01479 0.850137 8.21424 0.798137 8.41368C0.677352 8.83889 0.555909 9.27267 0.443352 9.69722C0.339352 10.079 0.313352 10.4779 0.305125 10.8682C0.296239 11.2151 0.330795 11.5534 0.365352 11.9003C0.374239 11.9872 0.322568 12.0912 0.425909 12.1603C0.391352 12.2558 0.417352 12.3084 0.468694 12.3249C0.408795 12.4203 0.495023 12.4815 0.460796 12.5684C0.451909 12.5855 0.487125 12.6201 0.50358 12.6461C0.50358 12.6724 0.495352 12.707 0.50358 12.733C0.512796 12.811 0.547352 12.889 0.547352 12.9759C0.547352 13.0364 0.599023 13.1059 0.616466 13.1667C0.625023 13.1924 0.616466 13.2359 0.599023 13.2533C0.547023 13.3139 0.55558 13.3659 0.63358 13.4007C0.677352 13.5133 0.659909 13.5653 0.651352 13.618C0.668466 13.6956 0.642466 13.7216 0.651352 13.7391C0.720466 13.878 0.746795 14.034 0.755023 14.19C0.755023 14.2248 0.772466 14.2597 0.789909 14.3028C0.798466 14.3028 0.789909 14.4674 0.789909 14.4674C0.832694 14.4417 0.867909 14.4332 0.911023 14.4157C0.937352 14.5283 0.963023 14.6329 0.99758 14.7284C1.04102 14.7975 1.04102 14.8317 1.02391 14.8403C1.05847 14.9963 1.07558 15.1437 1.13581 15.2912C1.13581 15.1266 1.11935 14.9621 1.09302 14.8057C1.21414 14.8492 1.31814 14.8923 1.38758 14.8923C1.39647 14.866 1.40502 14.8317 1.41391 14.8143C1.36191 14.7626 1.31847 14.6846 1.26647 14.6326C1.28391 14.7017 1.26647 14.7281 1.26647 14.7544C1.23191 14.7366 1.18847 14.7192 1.14535 14.7017C1.17991 14.6589 1.21447 14.6152 1.26647 14.5635C1.26647 14.4852 1.22368 14.4154 1.10191 14.4243C1.15391 14.4072 1.20591 14.3815 1.26647 14.3637C1.36191 14.3121 1.25791 14.2166 1.25791 14.0952C1.26647 13.9481 1.17991 13.8006 1.15391 13.6443C1.11047 13.4017 1.11935 13.0374 1.09335 12.7945C1.04135 12.7511 0.997909 12.8636 0.989352 12.8725C1.01568 13.0805 1.04135 13.2885 1.05847 13.4968C1.0068 13.3234 0.971909 13.1325 0.928796 12.9242C0.919909 12.9851 0.911352 13.0111 0.911352 13.046C0.868568 13.0887 0.902796 13.1414 0.928796 13.202C0.868239 13.1756 0.798796 13.1848 0.798796 13.1848V13.4277C0.712568 13.3408 0.686897 13.2717 0.643125 13.2105C0.626011 13.1414 0.616795 13.0723 0.60034 13.0032C0.616795 12.9594 0.60034 12.9334 0.60034 12.9077C0.591125 12.8465 0.582568 12.7774 0.574011 12.6991C0.582568 12.6905 0.565454 12.5608 0.565454 12.5608C0.634568 12.5691 0.67834 12.5773 0.721454 12.5773C0.634897 12.4654 0.695125 12.3956 0.73034 12.3262C0.747783 12.2913 0.80834 12.2834 0.825783 12.2479C0.894897 12.1179 1.00778 12.0142 1.00778 11.849C1.00778 11.771 1.03411 11.6844 1.04234 11.6061C1.05978 11.4586 1.0769 11.3112 1.08512 11.1638C1.1029 10.9729 1.08512 10.782 1.1289 10.6C1.19867 10.2972 1.28523 9.99343 1.38034 9.68965C1.44945 9.47244 1.52778 9.2651 1.61401 9.04788C1.74401 8.70955 1.86545 8.37122 2.03001 8.05067C2.26368 7.58201 2.53224 7.13112 2.79224 6.67168C2.9568 6.38535 3.12991 6.11646 3.31224 5.83902C3.48502 5.57013 3.65781 5.29269 3.85758 5.04092C4.13502 4.68548 4.43814 4.3557 4.77581 4.06082C5.12237 3.74882 5.45148 3.42793 5.82371 3.1416C6.30816 2.76773 6.81961 2.43861 7.36462 2.15229C7.80662 1.91861 8.2654 1.73563 8.72452 1.56218C9.01907 1.44963 9.3393 1.39763 9.64275 1.30218C9.98897 1.1893 10.3355 1.13763 10.6992 1.12874C10.9329 1.11986 11.1583 1.09386 11.392 1.06786C11.6 1.0514 11.8077 1.03363 12.0331 1.00763C12.0068 1.04218 11.9982 1.05963 11.9897 1.07674C11.8949 1.21563 11.7909 1.35451 11.6954 1.49307C11.6174 1.60596 11.5309 1.7274 11.4529 1.83996C11.314 2.02261 11.1665 2.20461 11.0369 2.3955C10.8378 2.68183 10.6558 2.97672 10.4478 3.26272C10.2404 3.54016 10.015 3.80049 9.79842 4.06905C9.51274 4.44226 9.24419 4.8237 8.95852 5.19659C8.69852 5.55203 8.42206 5.89102 8.17062 6.24646C7.9455 6.55813 7.74606 6.88824 7.5295 7.20846C7.20928 7.68568 6.88872 8.15368 6.56849 8.63089C6.31705 8.99489 6.06593 9.35067 5.80626 9.715C5.78882 9.74132 5.76282 9.74922 5.73715 9.76667C5.66804 9.87922 5.66804 9.94011 5.64171 9.99211C5.57259 10.1221 5.50348 10.2521 5.42515 10.3739C5.38171 10.443 5.32115 10.5036 5.26915 10.573C5.26059 10.469 5.40738 10.417 5.33826 10.2867C5.29548 10.3564 5.25171 10.417 5.20859 10.4864L5.10459 10.6938C5.13915 10.7201 5.20004 10.7376 5.13915 10.7892C5.11282 10.833 5.08715 10.8847 5.06115 10.9284C5.10459 10.9021 5.13026 10.8764 5.15659 10.8416C5.15659 10.937 5.10459 11.0147 5.06115 11.0927C5.02659 11.1618 4.94004 11.2144 4.87948 11.2661C4.88804 11.275 4.94859 11.301 4.95748 11.3096C5.03548 11.2832 5.06148 11.2404 5.07037 11.2661C5.09669 11.2316 5.12236 11.2056 5.13092 11.1796C5.16515 11.0927 5.21715 11.0236 5.30371 10.9887C5.33859 10.9712 5.36426 10.9452 5.39026 10.9196C5.65026 10.6503 5.91882 10.3903 6.15249 10.104C6.51649 9.66135 6.84561 9.20224 7.19249 8.75135C7.33928 8.56046 7.51272 8.36958 7.66839 8.18725C7.69406 8.38669 7.67695 8.57725 7.66839 8.75991C7.64206 9.08046 7.62495 9.40168 7.59928 9.73079C7.59039 9.86079 7.59928 9.99079 7.59039 10.1211C7.59039 10.1557 7.56406 10.1817 7.56406 10.2166C7.56406 10.3031 7.59039 10.3986 7.59039 10.4855C7.56406 10.8063 7.52918 11.1183 7.50318 11.4392C7.49429 11.5083 7.52885 11.5781 7.54596 11.639C7.50318 12.107 7.59862 12.6017 7.52029 13.096C7.58085 13.0005 7.59829 12.94 7.59829 12.8794C7.60652 12.8274 7.59829 12.7754 7.59829 12.7149V12.628C7.60652 12.4717 7.64107 12.3071 7.62396 12.1508C7.60652 11.9773 7.60652 11.8128 7.6414 11.6479C7.65885 11.5788 7.63285 11.4919 7.67629 11.405V11.535C7.66773 12.0287 7.68517 12.5233 7.61606 13.0177C7.60717 13.0611 7.64239 13.1394 7.54695 13.1305C7.46862 13.2865 7.56406 13.3994 7.47783 13.486C7.46006 13.5034 7.49429 13.5814 7.50318 13.6334C7.46829 13.7378 7.46829 13.7378 7.52029 13.7463C7.52885 13.9372 7.54662 14.1103 7.55485 14.2926C7.69307 13.9635 7.62396 13.6245 7.68518 13.2862C7.69373 13.4251 7.70262 13.564 7.69373 13.7108C7.69373 13.9369 7.68517 14.1534 7.67662 14.3789C7.67662 14.4223 7.66773 14.4658 7.65917 14.5092C7.63285 14.631 7.62462 14.7521 7.58118 14.8646C7.54662 14.9515 7.56406 15.0819 7.56406 15.1855V15.5156C7.59862 15.6631 7.55518 15.7411 7.58118 15.8276C7.55485 15.9148 7.54662 15.9408 7.55485 15.9668L7.58118 16.0968C7.75462 16.0794 7.67662 16.2097 7.74573 16.2788C7.69373 16.3486 7.71118 16.3743 7.71118 16.4095C7.71118 16.4875 7.70295 16.5569 7.69406 16.6349C7.69406 16.8344 7.6855 17.0338 7.6855 17.2247C7.6855 17.251 7.69406 17.2764 7.69406 17.3024C7.69406 17.3202 7.6855 17.5459 7.6855 17.5459C7.70295 17.5716 7.6855 17.5976 7.65917 17.6236C7.65095 17.6236 7.62495 16.5221 7.62495 16.5221H7.49495C7.47783 17.0421 7.52128 17.5104 7.42583 17.9965C7.32183 18.0047 7.28761 18.0222 7.17439 18.0222C6.90583 18.0222 6.63728 18.0222 6.36872 18.0307C6.04816 18.0307 5.73682 18.0393 5.41594 18.0393C5.26059 18.0393 5.09604 18.057 4.94004 18.057C4.73204 18.057 4.51548 18.0307 4.30814 18.0307C3.98725 18.0307 3.67558 18.057 3.35502 18.0656C3.12135 18.0742 2.88768 18.0742 2.65401 18.083C2.49768 18.0913 2.34135 18.0995 2.18601 18.1173C2.1169 18.1258 2.05601 18.1518 1.96945 18.1778C1.94312 18.1778 1.8829 18.1693 1.83123 18.1778C1.74401 18.1953 1.66667 18.2469 1.57945 18.2647C1.44945 18.291 1.4149 18.3253 1.43201 18.4556V18.5422C1.42345 18.5593 1.6229 18.5158 1.6229 18.5158C1.60512 18.5158 1.59657 18.5678 1.57024 18.6113C1.64001 18.5849 1.68312 18.5678 1.72657 18.5507C1.85657 18.6116 1.96912 18.577 2.0728 18.6034C2.41047 18.6896 2.75669 18.7251 3.10292 18.759C3.32837 18.7765 3.54492 18.7854 3.77004 18.7936C4.09026 18.811 4.41082 18.8285 4.73105 18.8285C4.99961 18.8285 5.25961 18.8022 5.5275 18.8022C5.8994 18.8022 6.27262 18.8193 6.64485 18.8285C6.72285 18.8285 6.8094 18.8193 6.89596 18.8193H7.52786C8.0913 18.8022 8.65409 18.7929 9.2172 18.7765C9.53809 18.7673 9.8672 18.7502 10.1874 18.7413L11.1748 18.7149C11.5559 18.7064 11.937 18.7064 12.3096 18.6985C12.5952 18.6985 12.8723 18.6886 13.1587 18.6804C13.4786 18.6718 13.8077 18.6458 14.1282 18.6287C14.3017 18.6198 14.4751 18.6024 14.6482 18.5853C14.8562 18.5682 15.0728 18.5425 15.2801 18.5336C15.5921 18.5158 15.9127 18.5073 16.2247 18.4898C16.6144 18.4642 17.004 18.4296 17.4023 18.4207C17.7663 18.4036 18.1385 18.4122 18.5025 18.4036C18.823 18.3947 19.1436 18.3773 19.4727 18.3687L20.019 18.3424C20.019 18.3424 20.3824 18.3338 20.5644 18.3161C20.8761 18.2989 21.1877 18.2644 21.4997 18.2558C21.6985 18.2469 21.898 18.2558 22.0971 18.2469C22.4173 18.2384 22.7464 18.2206 23.067 18.2206C23.1878 18.2206 23.3178 18.2384 23.4738 18.2469C23.4046 18.3078 23.3612 18.3424 23.3092 18.3858C23.3438 18.3944 23.3783 18.4122 23.4132 18.4293C23.3612 18.4638 23.3178 18.4721 23.275 18.4721C23.2572 18.5158 23.2398 18.5333 23.2223 18.6202H23.3783C23.3178 18.6202 23.2658 18.6982 23.2052 18.7502C23.1361 18.7324 23.0752 18.7502 23.0406 18.8456C23.1012 18.8798 23.0926 18.9058 23.0841 18.941C22.9801 18.9753 22.9021 19.0102 22.9459 19.1227C22.9106 19.1398 22.8675 19.1573 22.8241 19.1833C22.7813 19.2524 22.703 19.2698 22.7201 19.3653C22.755 19.3735 22.7892 19.3916 22.8155 19.3995C22.7721 19.4169 22.729 19.4429 22.6855 19.4601C22.5299 19.5555 22.5993 19.5989 22.6339 19.6424C22.6075 19.6598 22.5819 19.6769 22.5559 19.6858C22.573 19.7638 22.5986 19.7813 22.6075 19.7813C22.573 19.8069 22.5295 19.8418 22.4775 19.8853C22.4512 19.9633 22.4166 19.9978 22.3821 20.0498C22.3475 20.1018 22.3301 20.1716 22.2866 20.2233C22.105 20.423 21.975 20.6577 21.7413 20.8134C21.6544 20.8743 21.5767 20.9523 21.4987 21.0306C21.3427 21.1777 21.2042 21.3426 21.0396 21.4815C20.8234 21.6635 20.5986 21.828 20.3643 21.9929C20.0789 22.1924 19.7933 22.3918 19.5073 22.5827C19.3513 22.6864 19.1782 22.7644 19.0136 22.8598C18.849 22.9552 18.6931 23.0421 18.5285 23.1372C18.4245 23.2064 18.3291 23.3018 18.2165 23.3545C17.9308 23.4762 17.6274 23.5799 17.3332 23.6928C17.0468 23.8146 16.8395 23.9182 16.6229 23.9962C16.4238 24.0654 16.2158 24.118 16.0081 24.1608C15.939 24.1786 15.8607 24.1608 15.7827 24.1697C15.6353 24.196 15.4881 24.2309 15.3407 24.248C14.9596 24.3 14.5785 24.3349 14.1977 24.3869C13.9722 24.4132 13.7557 24.456 13.5306 24.4823C13.3749 24.4909 13.2103 24.4738 13.0543 24.4738C12.9418 24.4738 12.8207 24.5001 12.7078 24.4827C12.5261 24.4563 12.3441 24.4136 12.1621 24.3787C12.1193 24.3701 12.0581 24.3523 12.0239 24.3701C11.9548 24.405 11.8936 24.353 11.8241 24.3701C11.7813 24.379 11.7379 24.3438 11.6944 24.3438C11.6596 24.3356 11.6161 24.353 11.5727 24.3438C11.4772 24.3181 11.391 24.2836 11.2863 24.2921C11.1833 24.3007 11.079 24.2487 10.9671 24.223C10.8108 24.1881 10.6643 24.1539 10.5077 24.1187C10.4474 24.1012 10.3958 24.0752 10.3349 24.0407C10.1094 24.0407 9.96199 24.0321 9.82343 23.9798C9.70231 23.937 9.58976 23.8761 9.45976 23.8936C9.42553 23.9021 9.39953 23.885 9.36431 23.885C9.33799 23.8501 9.31264 23.7807 9.28697 23.7807C9.11386 23.7896 9.00986 23.6424 8.86242 23.5987C8.78475 23.5723 8.72419 23.4858 8.64619 23.4598C8.4553 23.3818 8.29996 23.2172 8.0834 23.1912C8.01429 23.1823 7.94518 23.1478 7.86685 23.1221C7.89318 23.1563 7.90963 23.1823 7.93596 23.2083C7.68485 23.0866 7.45118 22.9483 7.21718 22.818C7.18295 22.8095 7.15695 22.7752 7.13095 22.7575L6.89728 22.6015C6.76728 22.6278 6.71528 22.5751 6.68006 22.558C6.44639 22.3935 6.17816 22.2891 5.95272 22.1071C5.85728 22.0288 5.74538 21.9768 5.67626 21.8813C5.55449 21.7339 5.40738 21.6299 5.24282 21.5434C5.11315 21.4742 4.99204 21.3959 4.87092 21.3179C4.81004 21.2745 4.74915 21.2225 4.74915 21.127C4.74915 21.0661 4.72348 21.0053 4.64548 21.0401C4.61092 20.9881 4.57637 20.9276 4.53292 20.9101C4.42892 20.8674 4.35981 20.7884 4.28181 20.7193C4.20381 20.6501 4.14358 20.5547 4.04814 20.5201C3.87469 20.451 3.77069 20.3036 3.66702 20.1821C3.42414 19.8958 3.20758 19.5831 2.98247 19.2804C2.96502 19.254 2.93047 19.2366 2.90447 19.2106C2.93902 19.306 2.98247 19.384 3.02558 19.4706C2.93935 19.436 2.8788 19.3751 2.8268 19.3146C2.81791 19.3235 3.42414 20.3207 3.42414 20.3207C3.4768 20.3987 3.51958 20.477 3.57158 20.555C3.44158 20.5636 3.35502 20.4941 3.31158 20.4161C3.23391 20.2779 3.14702 20.191 2.97391 20.2088C2.9568 20.1476 2.93935 20.0781 2.93112 20.0179C2.89591 20.0179 2.87024 20.0179 2.80935 20.009C2.93112 20.1999 3.0348 20.3645 3.14735 20.5554C3.10358 20.529 3.07824 20.5119 3.06014 20.5034C3.21581 20.6679 3.32837 20.8762 3.52748 20.9806C3.57092 21.1797 3.79604 21.2751 3.84804 21.466C3.80525 21.4571 3.76971 21.4486 3.72626 21.4397C3.65715 21.3531 3.57915 21.2666 3.50148 21.1711C3.51859 21.2317 3.54426 21.2837 3.57915 21.3271C3.68315 21.4571 3.77859 21.5871 3.89971 21.7C3.94315 21.7441 4.00371 21.7616 4.00371 21.8396C4.07282 21.8741 4.09915 21.8823 4.12482 21.8823C4.14259 21.935 4.11659 22.013 4.22026 21.9956C4.28938 22.1256 4.35849 22.1256 4.45393 22.0824C4.56682 22.1953 4.62771 22.2042 4.70538 22.1351C4.70538 22.1779 4.71393 22.2213 4.71393 22.2562C4.74849 22.2388 4.74026 22.2128 4.74026 22.1693C4.78305 22.2039 4.80938 22.2213 4.82649 22.2384C4.91305 22.3602 4.99105 22.4728 5.11216 22.5682C5.27672 22.7071 5.42416 22.8545 5.5795 22.9845C5.88295 23.2363 6.22128 23.4446 6.55862 23.6352C6.97462 23.8695 7.37318 24.121 7.7974 24.3461C8.30819 24.6153 8.85386 24.7976 9.41664 24.9276C9.62464 24.9711 9.82376 25.0142 10.0321 25.0659C10.2131 25.1185 10.3954 25.1965 10.5774 25.2396C10.8545 25.3005 11.1402 25.3525 11.4173 25.4042C11.4776 25.4131 11.5391 25.422 11.6082 25.4305C11.6856 25.448 11.7807 25.4131 11.7981 25.4394C11.8416 25.5085 11.8761 25.4736 11.9281 25.4651C11.9887 25.4476 12.0581 25.4476 12.1272 25.4476C12.3698 25.4562 12.6035 25.5082 12.846 25.4911C12.8987 25.4911 12.9763 25.4473 13.0198 25.5339C13.0975 25.4993 13.1409 25.4993 13.1755 25.4911C13.1847 25.5687 13.1755 25.5687 13.159 25.5773C13.1412 25.5859 13.1152 25.5947 13.0807 25.6207C13.3923 25.6813 13.6869 25.6899 13.9462 25.6207C14.3971 25.6553 14.7868 25.6033 15.1594 25.4733C15.1939 25.5167 15.2199 25.5773 15.2719 25.4907C15.289 25.4644 15.3325 25.4555 15.3674 25.447C15.445 25.4295 15.5405 25.395 15.6096 25.4206C15.6879 25.447 15.7139 25.3779 15.7741 25.3779C15.8785 25.3779 15.9736 25.369 16.069 25.3515C16.121 25.343 16.173 25.317 16.2336 25.2995C16.1645 25.2643 16.0954 25.2558 16.0427 25.2558C16.147 25.2038 16.2421 25.1603 16.3376 25.1175C16.3201 25.1432 16.3027 25.1778 16.2685 25.1778H16.3893C16.3629 25.1778 16.3284 25.2558 16.2853 25.3078C16.5966 25.2298 16.8823 25.1603 17.1597 25.0905C17.0643 24.9089 17.2634 24.9698 17.3328 24.8654C17.2463 24.8918 17.1597 24.9174 17.0728 24.9345C17.3674 24.7874 17.6705 24.6574 17.9647 24.5274C17.9219 24.5794 17.8693 24.6054 17.7919 24.6492C17.8439 24.6574 17.8785 24.6574 17.9045 24.6657C18.0427 24.7094 18.0085 24.5794 18.0516 24.5011C18.2162 24.5011 18.2853 24.4754 18.3633 24.4491C18.4498 24.4228 18.5364 24.3971 18.6233 24.3625C18.7615 24.302 18.8915 24.2243 19.0301 24.1552C19.0564 24.146 19.0992 24.1552 19.1341 24.1552C19.2295 24.094 19.2637 24.042 19.2897 24.0505C19.4115 24.068 19.4971 24.0242 19.532 23.9123C19.5925 23.8685 19.636 23.834 19.6791 23.8077C19.8693 23.7037 20.051 23.5997 20.2419 23.4957C20.311 23.4957 20.3459 23.4957 20.363 23.4868C20.4762 23.4341 20.5802 23.3742 20.6839 23.3133C20.6575 23.3048 20.5973 23.2705 20.5973 23.2705C20.6835 23.2528 20.7092 23.2442 20.7619 23.2268C20.9692 22.9832 21.2555 22.8187 21.4718 22.6278C21.5672 22.6192 21.5672 22.5932 21.5672 22.5761C21.6014 22.5327 21.6363 22.4807 21.6791 22.4458C21.87 22.2723 22.0773 22.1249 22.2508 21.9429C22.5019 21.6908 22.7444 21.4305 22.9696 21.1616C23.1769 20.9187 23.3856 20.6761 23.5587 20.4072C23.8012 20.0344 24.0089 19.6526 24.2255 19.2619C24.3815 18.9848 24.52 18.7074 24.6763 18.4299C24.6928 18.4036 24.728 18.369 24.754 18.369C24.9877 18.3427 25.222 18.3263 25.4471 18.2999C25.4991 18.2914 25.5597 18.2571 25.6117 18.2308C25.5854 18.1874 25.5682 18.1354 25.5426 18.0919C25.5077 18.0393 25.4557 17.9965 25.4208 17.9438C25.3866 17.901 25.3606 17.8484 25.3346 17.7967C25.3082 17.7539 25.2826 17.719 25.2566 17.6749C25.2039 17.5795 25.1522 17.4841 25.1085 17.3807C25.0999 17.3544 25.0821 17.3116 25.0914 17.2853C25.2474 16.9473 25.3079 16.5829 25.455 16.2446C25.6021 15.8977 25.6459 15.5074 25.715 15.1345C25.7756 14.7791 25.8105 14.4236 25.8533 14.0682C25.8796 13.8167 25.9141 13.5739 25.9224 13.3224C25.975 12.9235 25.9573 12.5503 25.9487 12.1771C25.9401 11.848 25.9224 11.5097 25.9059 11.1799L25.9049 11.1789ZM4.17518 21.8547C4.11462 21.7856 4.06262 21.7073 4.00206 21.6381L4.02839 21.6118C4.12285 21.7161 4.21829 21.8201 4.3134 21.933C4.2614 21.9067 4.20085 21.8896 4.17518 21.8547ZM4.3134 21.933C4.33973 21.9241 4.36606 21.9241 4.39173 21.9156C4.41806 21.959 4.43518 22.011 4.46085 22.063C4.33973 22.0541 4.27918 22.0021 4.31373 21.933H4.3134ZM13.3213 25.5148V25.4884C13.4858 25.4713 13.6415 25.4539 13.806 25.4368V25.4621C13.6415 25.4884 13.4858 25.5049 13.3213 25.5141V25.5148ZM15.5033 25.2893C15.3825 25.3157 15.2525 25.3331 15.1314 25.3505C15.0879 25.3591 15.0359 25.4025 15.0188 25.3242C15.0014 25.3331 14.9839 25.3331 14.9668 25.342C15.0096 25.4717 15.1139 25.3677 15.2005 25.4197C15.0096 25.446 14.8286 25.4631 14.6463 25.4888V25.4717C14.6989 25.4631 14.7592 25.4542 14.8108 25.4453V25.4197C14.7246 25.4108 14.638 25.4022 14.5508 25.4022C14.5255 25.4022 14.4906 25.4371 14.4646 25.4457C14.43 25.4542 14.3955 25.4631 14.352 25.4631C14.2049 25.4717 14.0578 25.4717 13.9189 25.4802C13.91 25.4802 13.8926 25.4717 13.884 25.4717V25.4453C14.4643 25.3677 15.0359 25.2897 15.6162 25.2117C15.625 25.2288 15.625 25.2462 15.6336 25.2633C15.5816 25.2633 15.547 25.2814 15.5036 25.2897L15.5033 25.2893ZM15.6336 25.2031C15.833 25.1768 16.0154 25.1597 16.2056 25.134C15.8074 25.2465 15.6774 25.2637 15.6339 25.2031H15.6336ZM8.08999 7.69259C8.36644 7.31082 8.65277 6.92905 8.92988 6.53905C9.01644 6.4255 9.08556 6.30406 9.17211 6.1915C9.19844 6.15662 9.233 6.1395 9.27611 6.10462L9.26756 6.08816C9.30211 6.04439 9.33667 6.00917 9.35411 5.97494C9.39821 5.90583 9.42421 5.8275 9.45877 5.7495C9.46733 5.73305 9.49333 5.7156 9.49333 5.7156C9.6151 5.77616 9.6151 5.64649 9.65788 5.60272C9.73588 5.51583 9.81388 5.42072 9.883 5.33383C9.935 5.26472 9.987 5.20383 10.0304 5.12583C10.039 5.0995 10.013 5.05672 10.0041 5.0215H9.97844C10.0048 5.00439 10.0304 4.97872 10.0564 4.96094C10.065 4.96094 10.065 4.96094 10.0736 4.95239C10.1256 4.87406 10.1776 4.79606 10.2296 4.72661C10.3332 4.58839 10.4458 4.4495 10.5669 4.32839C10.5498 4.37117 10.5323 4.41494 10.5149 4.4495C10.5238 4.4495 10.5238 4.45839 10.5323 4.45839C10.6363 4.3195 10.7489 4.1895 10.8529 4.05029C10.844 4.04206 10.8355 4.03317 10.8266 4.03317C10.7838 4.07661 10.7489 4.12006 10.7055 4.1635C10.6969 4.15461 10.6883 4.14606 10.6791 4.14606C10.7663 4.03317 10.8529 3.92061 10.9391 3.79061C10.9566 3.81694 10.974 3.85117 11.0082 3.92061C11.0435 3.83406 11.078 3.7735 11.1037 3.71262C11.078 3.73894 11.0435 3.76461 11.0175 3.79094L10.9911 3.76461L11.1471 3.53094C11.3117 3.29661 11.4762 3.05373 11.6408 2.8194C11.7017 2.73284 11.779 2.6634 11.8317 2.57651C11.9962 2.2474 12.2562 1.98674 12.455 1.6833C12.4985 1.62274 12.559 1.57074 12.611 1.51874C12.6538 1.46608 12.689 1.48386 12.7236 1.5273C12.9573 1.82218 13.1909 2.12563 13.4246 2.42051C13.5984 2.63773 13.7715 2.84507 13.936 3.07084C14.1351 3.34861 14.3257 3.62606 14.5252 3.9035C14.7503 4.22439 14.9754 4.54527 15.1919 4.87439C15.521 5.36049 15.8327 5.84626 16.1618 6.3317C16.4044 6.68715 16.6469 7.03436 16.8806 7.38981H16.4383C16.0315 7.38158 15.6155 7.34702 15.2087 7.36413C14.6545 7.39046 14.0917 7.45102 13.5375 7.49446C12.8358 7.55535 12.1256 7.56358 11.4246 7.56358C11.1728 7.56358 10.9217 7.59879 10.6709 7.61624C10.3675 7.63335 10.0729 7.65079 9.76978 7.65902C9.41434 7.67679 9.06877 7.68535 8.71333 7.69424C8.51388 7.70279 8.30621 7.69424 8.08966 7.69424L8.08999 7.69259ZM18.0236 11.6815V11.7598C18.0151 11.7598 18.0065 11.7687 17.9891 11.7687C17.9545 11.6469 17.92 11.5166 17.8765 11.3951C17.79 11.1434 17.6945 10.8916 17.5385 10.6665C17.3647 10.4239 17.2094 10.1728 17.0356 9.92102C16.9928 9.86014 16.9316 9.80814 16.8796 9.75646C16.6976 9.55669 16.5156 9.34836 16.282 9.20125C15.9354 8.98403 15.5803 8.80203 15.1992 8.6457C15.0952 8.60292 15.0001 8.55026 14.8964 8.4897H15.1037L16.5847 8.46338C16.9053 8.45515 17.2173 8.45515 17.5375 8.4377C17.6152 8.4377 17.6586 8.46403 17.7021 8.53315C17.7798 8.66315 17.8578 8.79315 17.9443 8.92348C17.9532 8.94059 17.9706 8.96626 17.9706 8.99259C17.9706 9.18348 17.9706 9.38292 17.9792 9.57381C17.9874 9.77325 18.0055 9.96413 18.0134 10.1636C18.0134 10.363 17.996 10.571 18.0049 10.779C18.0138 11.0742 18.0223 11.378 18.0223 11.6808L18.0236 11.6815ZM8.70444 8.77735C9.11156 8.75991 9.5009 8.73391 9.89978 8.71646C10.2108 8.69902 10.5317 8.69014 10.843 8.67302C10.973 8.66479 11.0945 8.65656 11.2241 8.67302C11.0859 8.74279 10.947 8.81224 10.8259 8.89879C10.6699 9.00279 10.5231 9.14135 10.3668 9.25424C10.2105 9.36679 10.0719 9.50568 9.94224 9.65312C9.77768 9.85224 9.59568 10.0257 9.42224 10.2166C9.30047 10.3555 9.16224 10.4855 9.05857 10.6329C8.91145 10.8238 8.78145 11.0311 8.6429 11.2483C8.68634 10.4242 8.73834 9.60935 8.70345 8.77669L8.70444 8.77735ZM14.3603 17.1204C14.0828 17.1895 13.7975 17.2678 13.5112 17.3024C13.2689 17.3373 13.0175 17.3287 12.7664 17.3287C12.5406 17.3287 12.324 17.3202 12.0989 17.3024C11.8478 17.2767 11.5967 17.2507 11.3541 17.1378C11.1458 17.0424 10.9296 16.9558 10.7222 16.8515C10.5136 16.7475 10.3059 16.6264 10.1496 16.4355C10.0377 16.2963 9.88135 16.1837 9.74279 16.0623C9.76912 16.1663 9.82935 16.2532 9.9248 16.3137C9.88135 16.3657 9.8208 16.3401 9.73391 16.2008C9.70824 16.2183 9.68224 16.2272 9.66479 16.2357C9.69112 16.1748 9.71679 16.114 9.74279 16.0623C9.70824 15.9932 9.6648 15.9148 9.63024 15.8451C9.56112 15.7325 9.49201 15.6114 9.43112 15.4985C9.41368 15.4722 9.41368 15.4465 9.39657 15.4205C9.35312 15.3685 9.30968 15.3162 9.2748 15.2642C9.20568 15.1605 9.14512 15.048 9.05857 14.9436C9.05857 14.97 9.06745 14.9956 9.06745 15.0305C9.05857 15.0305 9.05001 15.0391 9.05001 15.0391L8.86768 14.5967C8.85913 14.5967 8.85913 14.5967 8.85057 14.6053L9.00624 15.178C8.99768 15.178 8.98912 15.1862 8.97991 15.1862C8.95457 15.152 8.92857 15.1171 8.9108 15.0743C8.89368 15.0045 8.84168 15.0045 8.7989 15.0305C8.77257 15.048 8.75513 15.1085 8.76401 15.1345C8.8249 15.282 8.89401 15.4294 8.96345 15.5768C8.98057 15.6288 8.99801 15.6723 9.02401 15.7243C9.0329 15.7417 9.0589 15.7588 9.0589 15.7848C9.09378 15.854 9.11978 15.9231 9.1629 15.9843C9.2409 16.0883 9.32745 16.1923 9.40545 16.2963C9.4828 16.4003 9.55191 16.5135 9.62135 16.6172C9.62991 16.6346 9.65591 16.6346 9.66414 16.6435C9.70791 16.7735 9.85502 16.8686 9.95902 16.8166C9.98535 17.0161 10.2016 17.0855 10.2881 17.2764C10.1841 17.2329 10.1065 17.1984 10.037 17.1635C10.0281 17.1721 10.0281 17.1806 10.0193 17.1981C10.1233 17.2501 10.2273 17.3021 10.322 17.3626C10.4093 17.4153 10.4958 17.4669 10.5738 17.5272C10.6778 17.6226 10.7993 17.6753 10.9457 17.7095C10.9378 17.6832 10.9293 17.6743 10.9293 17.6743C11.1715 17.7872 11.4229 17.9086 11.6132 18.0034C10.7124 18.0212 9.75102 18.0386 8.7548 18.0561C8.7548 17.8915 8.74624 17.7352 8.74624 17.5703C8.74624 17.5012 8.76335 17.4403 8.75447 17.3708C8.72814 16.9726 8.72814 16.5731 8.67647 16.1827C8.62479 15.7667 8.6248 15.359 8.63368 14.942C8.64191 14.7172 8.62479 14.4832 8.61591 14.2574C8.61591 13.954 8.61591 13.6584 8.62512 13.3557C8.62512 13.3122 8.64257 13.2777 8.66001 13.2339H8.68634C8.69457 13.2517 8.68634 13.2777 8.7028 13.2865C8.72912 13.3129 8.77257 13.3557 8.79001 13.3471C8.84168 13.3122 8.91968 13.278 8.93712 13.2253C8.97991 13.1217 8.99768 13.0088 8.99768 12.9048C8.99768 12.8271 9.03257 12.7751 9.0668 12.7228C9.08457 12.6964 9.09312 12.6708 9.11057 12.6362C9.07601 12.6099 9.04145 12.5928 8.99801 12.5582C9.0329 12.4628 9.02434 12.3499 9.15434 12.2982C9.17145 12.2893 9.17145 12.2456 9.18067 12.2199C9.1889 12.1498 9.19712 12.0718 9.20634 12.0027C9.22345 12.029 9.23267 12.0372 9.24912 12.0543C9.25834 12.0372 9.2669 12.028 9.2669 12.028C9.2669 11.9938 9.25834 11.9243 9.2669 11.9243C9.3709 11.9069 9.32745 11.7943 9.37945 11.7423C9.38768 11.7331 9.37057 11.7071 9.37057 11.6897C9.37057 11.6726 9.37057 11.6469 9.37912 11.6469C9.49991 11.6206 9.4828 11.4906 9.5608 11.4297C9.58712 11.4122 9.59535 11.3869 9.62991 11.3431C9.69902 11.4642 9.57791 11.5251 9.56935 11.6117C9.71614 11.5251 9.75958 11.3171 9.67302 11.2562C9.70758 11.2299 9.74214 11.1957 9.76847 11.1608C9.86391 11.0568 9.96725 10.9614 10.0541 10.8574C10.115 10.7797 10.1496 10.6842 10.2101 10.6062C10.245 10.5628 10.3141 10.5282 10.3661 10.5019C10.5221 10.4157 10.6689 10.3202 10.7644 10.1728C10.7818 10.1553 10.8078 10.1382 10.8335 10.1208C10.8598 10.1033 10.9118 10.1033 10.9204 10.0773C10.9293 10.0602 10.9033 10.0168 10.8858 9.99079C10.92 9.97335 10.9549 9.93879 11.024 9.90391C10.9977 9.95591 10.9895 9.99079 10.972 10.0257L11.0148 10.0685C11.0932 10.0079 11.2143 9.93879 11.2923 9.88679C11.2923 9.87856 11.2488 9.84401 11.2488 9.84401C11.1972 9.87034 11.1192 9.91312 11.0415 9.94801C11.0579 9.92168 11.0579 9.90456 11.0678 9.89601C11.1886 9.81801 11.3097 9.74001 11.4397 9.67879C11.7425 9.54057 12.0459 9.40168 12.349 9.27168C12.401 9.24535 12.4708 9.26312 12.531 9.26312C12.5567 9.26312 12.5738 9.26312 12.6002 9.25457C12.7384 9.21112 12.8773 9.16768 13.0158 9.13279C13.0761 9.11568 13.1452 9.10712 13.2067 9.10712C13.4657 9.11535 13.7257 9.11535 13.9854 9.13279C14.098 9.14135 14.202 9.16735 14.306 9.20191C14.4356 9.24568 14.5742 9.30624 14.6956 9.36646C14.8427 9.44545 14.9813 9.53168 15.1202 9.62712C15.3713 9.79168 15.605 9.97401 15.8561 10.1215C16.0986 10.2689 16.2892 10.4683 16.4452 10.6941C16.6361 10.9627 16.8523 11.2056 16.9389 11.535L17.0685 12.1077C17.0949 12.2117 17.1554 12.3157 17.1294 12.4368C17.0857 12.654 17.0511 12.8794 17.0165 13.0963C16.9994 13.1835 16.982 13.2707 16.9909 13.3563C17.0073 13.6262 16.9037 13.8599 16.8 14.1027C16.7651 14.1807 16.7131 14.2591 16.67 14.3456C16.6785 14.3542 16.7305 14.3805 16.7391 14.3805L16.8171 14.2245C16.826 14.2245 16.826 14.2245 16.8345 14.2334C16.7911 14.3545 16.7565 14.4848 16.7128 14.6063C16.6094 14.8752 16.5054 15.1526 16.3754 15.4126C16.3063 15.5601 16.1845 15.6815 16.0983 15.8207C16.0121 15.9418 15.9426 16.0718 15.8561 16.1847C15.7781 16.2802 15.7004 16.3756 15.5961 16.4447C15.3624 16.6182 15.1199 16.7916 14.8687 16.9305C14.7131 17.0259 14.5311 17.0779 14.358 17.1214L14.3603 17.1204ZM9.74378 16.6596L9.73523 16.6685C9.71712 16.66 9.69112 16.6514 9.67401 16.634L9.46601 16.3213C9.4489 16.2956 9.43968 16.2696 9.4489 16.2351C9.54434 16.3825 9.63978 16.5214 9.74345 16.6596H9.74378ZM15.1314 17.8477C15.5207 17.6832 15.8413 17.4495 16.1352 17.1803C16.1789 17.1368 16.2221 17.0937 16.2741 17.0585C16.6381 16.8334 16.906 16.5211 17.1488 16.1742C17.426 15.7753 17.608 15.3244 17.8334 14.8995C17.8505 14.8646 17.8676 14.8304 17.8851 14.8041C17.8676 15.7927 17.9805 16.764 18.1102 17.7441C17.1317 17.7786 16.1355 17.8132 15.131 17.8481L15.1314 17.8477ZM23.9131 17.5877C23.9046 17.6052 23.8868 17.6226 23.8786 17.6404C23.8697 17.6226 23.8697 17.5966 23.8611 17.5614C23.8091 17.7006 23.6966 17.6312 23.6186 17.6312C23.1512 17.6401 22.6747 17.6401 22.2067 17.6401C21.7564 17.6401 21.2977 17.6401 20.8474 17.648C20.7 17.648 20.544 17.6825 20.3965 17.6914C20.0418 17.7085 19.6866 17.7177 19.3315 17.726C19.3052 17.726 19.2795 17.6832 19.2361 17.6483C19.2275 17.6657 19.2098 17.6917 19.1841 17.7263C19.1749 17.7092 19.1578 17.6921 19.1403 17.6661C19.1318 17.6924 19.1229 17.7181 19.114 17.7352H19.089C19.0715 17.6141 19.037 17.5015 19.037 17.3797C19.037 17.1197 19.0633 16.8597 19.0715 16.5991C19.0804 16.478 19.0715 16.3654 19.0715 16.2522C19.1064 16.2785 19.1324 16.296 19.167 16.3213C19.1841 16.2874 19.2015 16.2614 19.219 16.2357C19.219 16.2357 19.2015 16.2265 19.1841 16.2094C19.2005 16.2005 19.2183 16.1831 19.2183 16.1745C19.2269 16.1482 19.2446 16.1225 19.2446 16.1054C19.2446 16.0445 19.2269 15.9925 19.2183 15.9408C19.2269 15.9408 19.2354 15.9408 19.2446 15.9316L19.2963 16.1916H19.3226C19.2878 16.1314 19.4003 16.0791 19.3052 16.01C19.2966 16.0011 19.3138 15.9491 19.3138 15.9231C19.2874 15.8714 19.271 15.8194 19.2446 15.75C19.2532 15.7414 19.2792 15.7325 19.3052 15.7236C19.2706 15.7065 19.2446 15.6894 19.2186 15.6808C19.3052 15.6025 19.3052 15.5591 19.2272 15.4725C19.245 15.4643 19.2621 15.4643 19.2621 15.4561C19.2621 15.3777 19.2621 15.2997 19.245 15.2224C19.2275 15.1348 19.2713 15.0315 19.141 14.9788C19.1495 15.0052 19.1584 15.0223 19.1755 15.048C19.1755 15.048 19.1492 15.0568 19.1235 15.0743C19.011 14.97 19.0807 14.8307 19.0544 14.6751C19.115 14.6925 19.1584 14.71 19.2015 14.7277C19.1841 14.6665 19.141 14.5971 19.115 14.5191H19.0798V13.9464C19.0798 13.9553 19.1403 13.9553 19.1752 13.9642C19.1752 13.9553 19.1834 13.9467 19.1834 13.9379C19.1571 13.9033 19.1225 13.8687 19.088 13.8253L19.1054 13.8079C19.0363 13.7216 19.0709 13.6005 19.0709 13.5742V12.967C19.1578 13.0539 19.0281 13.1664 19.1578 13.2184V13.1319H19.1489C19.1403 13.0019 19.1403 12.8719 19.1318 12.7415H19.1146C19.1058 12.7593 19.1058 12.7679 19.0969 12.7853H19.0798L19.1318 10.7125C19.2183 10.8251 19.3134 10.9298 19.374 11.0417C19.5734 11.4063 19.8331 11.7186 20.0757 12.0481C20.2837 12.3344 20.4739 12.6464 20.6648 12.9413C20.8984 13.2967 21.1236 13.6522 21.3576 14.0076C21.5307 14.2768 21.713 14.5457 21.894 14.8061C22.0586 15.0397 22.2323 15.2655 22.4055 15.4913C22.5522 15.6907 22.7082 15.8902 22.8554 16.0896C23.0288 16.3325 23.2019 16.575 23.3754 16.8094C23.4616 16.9305 23.557 17.0519 23.6518 17.1734C23.7045 17.2425 23.7821 17.2951 23.8341 17.3379C23.8259 17.3379 23.817 17.3379 23.7999 17.3294C23.8262 17.3639 23.8427 17.3899 23.8605 17.4074C23.9559 17.4594 23.9645 17.5114 23.9125 17.5897L23.9131 17.5877ZM24.3548 15.4202V15.3593C24.3548 15.3764 24.3634 15.4021 24.3548 15.4199V15.4202ZM24.6494 11.5959C24.6405 11.5959 24.5888 11.5432 24.5802 11.5347C24.5714 11.561 24.5802 11.5867 24.5628 11.6216C24.5539 11.5959 24.4937 11.6044 24.4937 11.5788C24.4848 11.6999 24.5454 11.8213 24.5365 11.9428C24.5628 11.9253 24.6665 11.9164 24.6925 11.8908C24.7014 11.8993 24.7188 11.9079 24.7274 11.9079C24.5539 12.0382 24.5974 12.1679 24.6754 12.316C24.6925 12.3502 24.7445 12.4197 24.6925 12.4891C24.6754 12.5065 24.7014 12.5582 24.7099 12.602H24.7353V12.6184L24.6573 12.6448C24.6401 12.6184 24.5365 12.5671 24.5365 12.523V12.966C24.623 12.9923 24.623 13.1134 24.6576 13.1743C24.6757 13.148 24.6839 13.1305 24.6928 13.1052L24.7017 13.1131C24.6928 13.1651 24.6842 13.2171 24.6668 13.2694C24.6497 13.3471 24.6322 13.4165 24.624 13.4945C24.624 13.5031 24.6405 13.5209 24.6405 13.5291C24.5457 13.7463 24.5977 13.9885 24.5631 14.2137C24.5368 14.3782 24.5631 14.5526 24.5457 14.7258C24.5279 14.8732 24.493 15.0292 24.4588 15.1766C24.4499 15.203 24.4325 15.2112 24.3897 15.2286C24.4068 15.1246 24.3982 15.0552 24.3808 14.9598C24.3716 14.9598 24.259 14.8992 24.2501 14.8992C24.2501 15.021 24.3193 15.1855 24.3456 15.3238C24.3193 15.3152 24.2156 15.2546 24.2074 15.2546C24.1896 15.3586 24.1896 15.4975 24.181 15.6101C24.1721 15.697 24.0945 15.7746 24.0856 15.8701C24.0856 15.9227 24.1461 15.957 24.1376 16.0439H24.2067C24.2067 15.8707 24.285 15.7147 24.285 15.5324H24.3107C24.3196 15.5499 24.3456 15.5673 24.337 15.5759C24.3196 15.6713 24.2844 15.7753 24.2936 15.8707C24.2936 15.9227 24.3364 15.9747 24.3199 16.0353C24.3021 16.088 24.2936 16.1396 24.2847 16.2176C24.2758 16.1742 24.2673 16.1571 24.2673 16.1311C24.2587 16.1311 24.1807 16.1222 24.1718 16.1222C24.1632 16.1742 24.2327 16.2262 24.2238 16.2696C24.2153 16.2782 24.2067 16.2782 24.1893 16.2871L23.9036 15.8704C23.6778 15.5413 23.4527 15.2112 23.2276 14.8732C23.1667 14.7863 23.1147 14.6998 23.0713 14.6132C22.803 14.1531 22.5085 13.7108 22.1794 13.2859C21.9286 12.9653 21.7285 12.6178 21.4948 12.2804C21.2789 11.9596 21.0623 11.6472 20.8458 11.326C20.7678 11.2223 20.6727 11.1269 20.6032 11.014C20.3784 10.6586 20.1787 10.2942 19.9542 9.93879C19.7633 9.64358 19.556 9.35725 19.3565 9.07125C19.2874 8.97581 19.2183 8.87148 19.1485 8.76748C19.14 8.75102 19.1314 8.73358 19.1314 8.70758C19.114 8.51669 19.0965 8.32581 19.088 8.14381C19.088 7.97036 19.1054 7.79692 19.1054 7.61459V7.45859C19.1054 7.41515 19.1137 7.38059 19.1137 7.33682C19.1219 7.32859 19.1308 7.31115 19.1393 7.30259C18.8882 7.30259 18.6282 7.29337 18.3771 7.30259C18.2125 7.31082 18.126 7.24137 18.0134 7.11993C17.6843 6.74705 17.4418 6.32216 17.1561 5.92327C16.8875 5.5415 16.6104 5.16829 16.3333 4.7954C16.1079 4.49196 15.8824 4.19707 15.6576 3.89363C15.4062 3.54674 15.164 3.19986 14.904 2.85297C14.592 2.43697 14.2714 2.02031 13.9512 1.60431C13.8031 1.41342 13.6385 1.23142 13.474 1.03165C13.5868 1.04942 13.6912 1.06654 13.7948 1.07542L14.2108 1.10175C14.5225 1.1271 14.8342 1.14454 15.1455 1.18732C15.4055 1.22254 15.6655 1.27454 15.9341 1.31765C16.5061 1.4131 17.0689 1.56942 17.6145 1.75142C17.9351 1.85543 18.2464 1.99431 18.5591 2.12431C19.2601 2.41064 19.9272 2.75753 20.5855 3.12153C20.7928 3.23441 20.9146 3.41641 21.0699 3.5813C21.2954 3.81563 21.5208 4.04963 21.737 4.29218C21.9878 4.57851 22.2215 4.8734 22.4644 5.16829C22.6806 5.42829 22.9054 5.68829 23.1226 5.94894C23.1917 6.02694 23.2444 6.12239 23.3043 6.20894C23.4425 6.41727 23.5988 6.61705 23.7199 6.84216C23.8062 7.00738 23.8582 7.19826 23.9187 7.38026C24.0049 7.64915 24.0918 7.90915 24.1787 8.17803C24.2389 8.37748 24.2906 8.58613 24.3341 8.79348C24.3689 8.93269 24.3604 9.07981 24.4032 9.21803C24.4558 9.40102 24.4032 9.59981 24.4558 9.78246C24.4641 9.79991 24.4723 9.82591 24.4815 9.84335C24.5161 9.87758 24.5421 9.91246 24.4901 9.96446C24.4818 9.97302 24.4818 10.0072 24.4901 10.0336C24.5078 10.0165 24.5164 9.99902 24.5338 9.97302C24.5338 9.99046 24.5421 9.99935 24.5421 10.0076C24.5421 10.0418 24.5332 10.0767 24.5421 10.1112C24.5421 10.1284 24.5592 10.154 24.5677 10.1718C24.5852 10.154 24.6023 10.1455 24.6368 10.1191C24.7148 10.4144 24.7237 10.7092 24.7237 11.0127C24.7237 11.299 24.7754 11.5854 24.6546 11.8628C24.6803 11.7674 24.6197 11.6801 24.6457 11.5936L24.6494 11.5959Z" fill="#DD3A0A"/>
<path fill-rule="evenodd" clip-rule="evenodd" d="M19.1156 14.9687C19.1239 14.9687 19.1327 14.9776 19.1327 14.9776L19.1239 14.9677C19.1239 14.9595 19.1239 14.9595 19.1153 14.9677L19.1156 14.9687ZM20.4838 23.5375C20.3883 23.6067 20.2929 23.6675 20.1718 23.6935C20.1625 23.685 20.1625 23.6761 20.154 23.6672C20.2494 23.6067 20.3531 23.5461 20.4485 23.4852C20.4574 23.5017 20.4749 23.5194 20.4834 23.5369L20.4838 23.5375ZM4.24462 11.7855C4.34006 11.6648 4.4355 11.5433 4.53884 11.4219C4.54707 11.4304 4.61619 11.4482 4.62507 11.4564C4.52963 11.5782 4.39963 11.7428 4.30452 11.8728C4.28674 11.8553 4.26074 11.7948 4.24363 11.7859L4.24462 11.7855ZM1.78449 16.0361C1.71538 15.8886 1.64626 15.7323 1.57715 15.5852C1.58571 15.5763 1.64626 15.5503 1.65482 15.5503C1.75026 15.6885 1.79305 15.8531 1.86282 16.0012C1.86282 16.0012 1.79371 16.0357 1.78482 16.0357L1.78449 16.0361ZM3.9935 11.8728C3.9415 11.9511 3.8895 12.038 3.8375 12.1163C3.82895 12.1071 3.7335 12.1505 3.72495 12.142C3.77695 12.064 3.90662 11.9248 3.95862 11.8471C3.9675 11.8556 3.97606 11.8645 3.9935 11.8734V11.8728ZM19.5573 23.8936C19.5655 23.8936 19.5655 23.8851 19.5744 23.8851C19.635 23.8936 19.7041 23.9022 19.7735 23.9022C19.6603 23.9802 19.5909 23.9713 19.5563 23.8936H19.5573ZM4.00996 12.2371C4.01917 12.2108 4.03629 12.1851 4.05373 12.1591C4.07084 12.1591 4.09652 12.1502 4.09652 12.1502C4.13173 12.0896 4.13173 12.0462 4.16629 11.9942C4.15773 11.9856 4.14884 11.9856 4.13996 11.9768C4.08829 12.0123 4.03629 12.0557 3.98429 12.0903C4.00173 12.1074 4.00173 12.1166 4.00173 12.1337C3.93262 12.1249 3.90629 12.1601 3.87173 12.2549C3.86317 12.2812 3.81973 12.2897 3.77629 12.324C3.76773 12.3417 3.75917 12.3852 3.74173 12.4283L3.75062 12.4375C3.73317 12.455 3.70717 12.4638 3.70717 12.4638C3.65517 12.5155 3.59462 12.5593 3.54262 12.611C3.53406 12.6373 3.5255 12.663 3.5255 12.689C3.58639 12.6284 3.69006 12.5155 3.76806 12.4461L3.77695 12.455C3.8115 12.403 3.8375 12.351 3.87239 12.299C3.88062 12.3075 3.88062 12.3161 3.8895 12.3253C3.86317 12.3944 3.8375 12.4721 3.8115 12.5415C3.7934 12.5501 3.7674 12.5678 3.7674 12.559C3.73284 12.5853 3.70684 12.6195 3.67196 12.6455L3.51629 12.7495C3.42973 12.8275 3.34317 12.8966 3.24773 12.975C3.18717 13.0704 3.12662 13.157 3.05684 13.2698C3.16117 13.2435 3.18717 13.2873 3.17862 13.3742C3.29973 13.3913 3.30862 13.2962 3.34317 13.2267C3.35173 13.209 3.36062 13.1741 3.37773 13.1655C3.45573 13.0964 3.54229 13.0358 3.62884 12.9664C3.64629 12.949 3.64629 12.9137 3.64629 12.8881C3.64629 12.8795 3.60252 12.8795 3.57652 12.8706C3.65452 12.7837 3.7674 12.637 3.84507 12.5415C3.88852 12.5152 3.93163 12.4803 3.93163 12.4543C3.92307 12.3589 3.98363 12.3332 4.0534 12.2983C4.01852 12.272 4.00963 12.2466 4.00963 12.2381L4.00996 12.2371Z" fill="#DD3735"/>
<path fill-rule="evenodd" clip-rule="evenodd" d="M4.18386 12.1415C4.1493 12.2021 4.11474 12.2541 4.08019 12.315L4.02819 12.2886C3.99363 12.4878 3.87219 12.6612 3.75107 12.6958C3.78563 12.7132 3.82019 12.7306 3.84652 12.7221C3.87219 12.7132 3.8893 12.6694 3.90674 12.6438L4.14042 12.3054L4.21874 12.1751L4.18419 12.1405L4.18386 12.1415ZM1.30016 15.9487C1.34361 15.9487 1.38705 15.9573 1.43839 15.9573C1.43839 15.9227 1.48216 15.9309 1.48216 15.8967H1.50849C1.50849 15.9402 1.51705 15.9747 1.51705 16.0185H1.33538C1.32649 16.0096 1.29193 15.9573 1.30049 15.9487H1.30016ZM1.23105 15.5498C1.20472 15.5235 1.16193 15.4978 1.16193 15.4718C1.15305 15.4376 1.17905 15.3945 1.20472 15.351C1.22249 15.4116 1.23105 15.4636 1.24816 15.5245C1.23928 15.5327 1.23072 15.5416 1.23072 15.5502L1.23105 15.5498ZM1.44761 14.9946C1.48216 15.0822 1.51672 15.1776 1.55161 15.2645C1.54305 15.2645 1.49105 15.2908 1.48249 15.299C1.44793 15.2122 1.40449 15.1167 1.36993 15.0302C1.37849 15.0216 1.43049 14.9953 1.44793 14.9953L1.44761 14.9946ZM20.7271 23.2863C20.7699 23.2692 20.8219 23.26 20.8917 23.2435C20.8133 23.3038 20.7528 23.3472 20.7008 23.3992C20.6919 23.3906 20.6833 23.3818 20.6744 23.3818C20.6919 23.3472 20.7093 23.3212 20.7271 23.2863ZM10.0816 4.96092C10.1333 4.92604 10.177 4.90004 10.2287 4.86548L10.2458 4.88259C10.1931 4.95171 10.1504 5.02082 10.0895 5.10804C10.0809 5.04781 10.0809 5.01259 10.072 4.96981C10.0635 4.96981 10.072 4.96981 10.0809 4.96125L10.0816 4.96092ZM12.619 9.349C12.697 9.31411 12.775 9.27988 12.8702 9.23611C12.8616 9.28811 12.8616 9.323 12.8616 9.35788C12.8353 9.349 12.8007 9.34011 12.7747 9.34011C12.7227 9.349 12.6273 9.41844 12.5838 9.427C12.5756 9.427 12.6187 9.35788 12.6187 9.349H12.619ZM19.1158 16.7034C19.1329 16.7899 19.2974 16.8334 19.1329 16.9199C19.1592 16.938 19.1845 16.9463 19.2105 16.964C19.2105 16.9729 19.202 16.9904 19.1934 16.9989C19.176 17.0071 19.1414 17.0246 19.1243 17.0154C19.1154 17.0154 19.098 16.9811 19.098 16.9637C19.098 16.8857 19.1069 16.8077 19.1154 16.7037L19.1158 16.7034Z" fill="#DD3735"/>
</svg>
