<svg width="26" height="26" viewBox="0 0 26 26" fill="none" xmlns="http://www.w3.org/2000/svg">
<g clip-path="url(#clip0)">
<path fill-rule="evenodd" clip-rule="evenodd" d="M3.65039 22.0337V9.71833C3.65039 4.54788 7.83645 0.356445 13.0003 0.356445C18.1641 0.356445 22.3502 4.54788 22.3502 9.71833C22.3502 14.8207 18.2734 18.9698 13.2035 19.078V19.0802C11.7441 19.0802 10.5612 17.8957 10.5612 16.4345C10.5612 14.9869 11.7223 13.8108 13.1629 13.789V13.7855C15.3326 13.7001 17.0654 11.9118 17.0654 9.71833C17.0654 7.47034 15.2454 5.64795 13.0003 5.64795C10.7552 5.64795 8.93511 7.47034 8.93511 9.71833V23.3541C8.93511 24.8154 7.75214 25.9999 6.29275 25.9999C5.74915 26.0007 5.21863 25.833 4.77417 25.5196C5.53419 25.2972 6.08949 24.5941 6.08949 23.7612C6.08949 22.7496 5.27044 21.9295 4.26017 21.9295C4.04634 21.9295 3.84113 21.9662 3.65039 22.0337ZM13.2035 18.2661C14.2138 18.2661 15.0329 17.446 15.0329 16.4345C15.0329 15.4229 14.2138 14.6028 13.2035 14.6028C12.1933 14.6028 11.3742 15.4229 11.3742 16.4345C11.3742 17.446 12.1933 18.2661 13.2035 18.2661Z" fill="url(#paint0_linear)"/>
</g>
<defs>
<linearGradient id="paint0_linear" x1="13.0003" y1="0.356445" x2="13.0003" y2="16.4139" gradientUnits="userSpaceOnUse">
<stop stop-color="#D378E5"/>
<stop offset="1" stop-color="#7526C2"/>
</linearGradient>
<clipPath id="clip0">
<rect width="26" height="26" fill="white"/>
</clipPath>
</defs>
</svg>
