<svg width="144" height="64" viewBox="0 0 144 64" fill="none" xmlns="http://www.w3.org/2000/svg">
<g clip-path="url(#clip0)">
<path d="M31.4637 28.4496C31.3092 27.8957 31.0886 27.3862 30.8018 26.9098C30.526 26.4335 30.184 25.9904 29.7869 25.6026C29.3898 25.2038 28.9595 24.8715 28.4741 24.5835C27.9998 24.2955 27.4813 24.085 26.9408 23.9299C26.3892 23.7748 25.8266 23.6973 25.2309 23.6973C24.4146 23.6973 23.6314 23.8413 22.9033 24.1404C22.1752 24.4395 21.5133 24.8604 20.9287 25.4143C20.7632 25.5694 20.5978 25.7688 20.4433 25.9904C20.2889 26.2119 20.1565 26.4335 20.0241 26.655V24.5281C20.0241 24.1958 19.7594 23.9299 19.4284 23.9299C19.1085 23.9299 18.8438 24.1958 18.8438 24.5281V39.9484C18.8438 40.1256 18.932 40.2142 19.1085 40.2142L19.8035 40.2032C19.8586 40.2032 19.8917 40.181 19.9359 40.1588C19.969 40.1256 19.991 40.0813 19.991 40.037V33.6894C20.1675 33.9331 20.322 34.1547 20.4543 34.3319C20.5867 34.5202 20.7301 34.6975 20.9066 34.8748C20.9177 34.8858 20.9177 34.8858 20.9287 34.8969C21.2045 35.1517 21.5133 35.3954 21.8333 35.6059C22.1642 35.8164 22.5172 36.0047 22.8812 36.1598C23.2453 36.3149 23.6314 36.4367 24.0285 36.5142C24.4256 36.6029 24.8228 36.6472 25.242 36.6472C25.8266 36.6472 26.4003 36.5696 26.9518 36.4146C27.4924 36.2595 28.0109 36.0379 28.4852 35.761C28.9595 35.473 29.4008 35.1406 29.7979 34.7418C30.195 34.343 30.526 33.911 30.8128 33.4346C31.0997 32.9583 31.3203 32.4377 31.4747 31.8837C31.6291 31.3299 31.7064 30.7649 31.7064 30.1667C31.6953 29.5685 31.6181 29.0035 31.4637 28.4496ZM30.0627 32.2382C29.7869 32.8918 29.4008 33.4679 28.9264 33.9553C28.4521 34.4538 27.8895 34.8415 27.2497 35.1295C26.6099 35.4176 25.9259 35.5616 25.1978 35.5616C24.4698 35.5616 23.7858 35.4176 23.146 35.1185C22.5062 34.8304 21.9436 34.4316 21.4582 33.9331C20.9839 33.4457 20.6088 32.8697 20.333 32.2161C20.0572 31.5625 19.9138 30.8757 19.9138 30.1445C19.9138 29.4023 20.0572 28.7155 20.344 28.0619C20.6198 27.4083 21.0059 26.8434 21.5023 26.3559C21.9877 25.8685 22.5613 25.4919 23.2122 25.2149C23.863 24.938 24.547 24.794 25.275 24.794C25.9921 24.794 26.6761 24.938 27.3048 25.226C27.9336 25.514 28.4852 25.9017 28.9595 26.4002C29.4339 26.8877 29.809 27.4637 30.0737 28.1173C30.3495 28.7709 30.4819 29.4577 30.4819 30.1667C30.4819 30.8978 30.3495 31.5846 30.0627 32.2382Z" fill="#101113"/>
<path d="M55.5787 28.45C55.4241 27.8961 55.2035 27.3754 54.9277 26.8991C54.641 26.4227 54.3102 25.9796 53.913 25.5919C53.5158 25.1931 53.0746 24.8608 52.6002 24.5727C52.1257 24.2958 51.6075 24.0742 51.0558 23.9192C50.5153 23.7641 49.9415 23.6865 49.3461 23.6865C48.7503 23.6865 48.1878 23.7641 47.6361 23.9192C47.0843 24.0742 46.577 24.2958 46.0917 24.5727C45.6173 24.8608 45.176 25.1931 44.79 25.5919C44.3929 25.9907 44.0618 26.4227 43.7751 26.8991C43.4884 27.3754 43.2786 27.8961 43.1244 28.45C42.9698 29.0038 42.8926 29.5799 42.8926 30.167C42.8926 30.7652 42.9698 31.3302 43.1244 31.8841C43.2786 32.438 43.4992 32.9586 43.7751 33.435C44.0509 33.9113 44.3929 34.3544 44.79 34.7421C45.1872 35.141 45.6173 35.4733 46.0917 35.7613C46.5662 36.0383 47.0843 36.2598 47.6361 36.4149C48.1766 36.57 48.7503 36.6475 49.3461 36.6475C49.9307 36.6475 50.5041 36.57 51.0558 36.4149C51.5964 36.2598 52.1149 36.0383 52.6002 35.7613C53.0746 35.4733 53.5158 35.141 53.913 34.7421C54.3102 34.3433 54.641 33.9113 54.9277 33.435C55.2147 32.9586 55.4241 32.438 55.5787 31.8841C55.7332 31.3302 55.8105 30.7652 55.8105 30.167C55.7993 29.5688 55.722 29.0038 55.5787 28.45ZM54.2109 32.2607C53.9239 32.9143 53.5491 33.4793 53.0634 33.9556C52.5781 34.443 52.0156 34.8197 51.3645 35.1077C50.7139 35.3847 50.03 35.5287 49.3017 35.5287C48.8164 35.5287 48.3532 35.4622 47.9119 35.3293C47.4707 35.1963 47.0515 35.0191 46.6655 34.7754C46.2791 34.5427 45.9263 34.2547 45.6064 33.9224C45.2865 33.5901 45.0215 33.2245 44.79 32.8257C44.5694 32.4269 44.3929 32.0059 44.2603 31.5518C44.139 31.0975 44.0729 30.6323 44.0729 30.1559C44.0729 29.4248 44.2163 28.738 44.4922 28.0844C44.768 27.4308 45.154 26.8548 45.6285 26.3673C46.1026 25.8799 46.6655 25.4811 47.3161 25.2042C47.9672 24.9161 48.651 24.7722 49.379 24.7722C50.1073 24.7722 50.7911 24.9161 51.431 25.2153C52.0708 25.5033 52.6222 25.9021 53.0966 26.3895C53.5711 26.888 53.9459 27.4641 54.2218 28.1066C54.4976 28.7601 54.6301 29.447 54.6301 30.1781C54.6301 30.9203 54.4864 31.6182 54.2109 32.2607Z" fill="#101113"/>
<path d="M59.5497 27.4527C59.7812 27.0539 60.057 26.6883 60.3769 26.356C60.6968 26.0347 61.05 25.7467 61.4468 25.5141C61.8332 25.2814 62.2524 25.0931 62.7044 24.9712C63.1569 24.8383 63.6201 24.7829 64.1166 24.7829C64.7893 24.7829 65.4291 24.9048 66.0249 25.1485C66.6207 25.3922 67.15 25.7356 67.6245 26.1676C68.0877 26.5997 68.4741 27.0982 68.7828 27.6742C69.0915 28.2503 69.2793 28.8706 69.3566 29.5242V26.0126C69.3454 26.1123 69.3345 26.223 69.3345 26.3338C69.3345 26.4335 69.3345 26.5443 69.3233 26.644C69.0695 26.2009 68.7496 25.791 68.3856 25.4144C68.0217 25.0488 67.6024 24.7275 67.15 24.4727C66.6979 24.218 66.2127 24.0075 65.6942 23.8745C65.1865 23.7305 64.6571 23.6641 64.1166 23.6641C63.532 23.6641 62.9583 23.7416 62.4177 23.8967C61.8772 24.0518 61.3587 24.2733 60.8843 24.5503C60.4102 24.8383 59.9689 25.1707 59.5717 25.5695C59.1745 25.9682 58.8326 26.4003 58.5567 26.8877C58.27 27.3641 58.0494 27.8847 57.8949 28.4386C57.7404 28.9925 57.6631 29.5575 57.6631 30.1556C57.6631 30.7428 57.7404 31.3188 57.8949 31.8727C58.0494 32.4266 58.27 32.9472 58.5456 33.4236C58.8326 33.8999 59.1634 34.343 59.5605 34.7308C59.9577 35.1296 60.399 35.4619 60.8734 35.7499C61.3475 36.038 61.866 36.2484 62.4177 36.4035C62.9583 36.5586 63.532 36.6361 64.1274 36.6361C64.6571 36.6361 65.1865 36.5697 65.6942 36.4257C66.2127 36.2927 66.6979 36.0933 67.1612 35.8386C67.6245 35.5837 68.0437 35.2625 68.4188 34.8859C68.794 34.5203 69.1027 34.1104 69.3674 33.6452V30.8203C69.2901 31.4739 69.0915 32.0943 68.7828 32.6703C68.4741 33.2463 68.0769 33.7449 67.6024 34.1658C67.128 34.5868 66.5875 34.9191 65.9808 35.1628C65.3742 35.4065 64.7344 35.5284 64.0614 35.5284C63.5869 35.5284 63.1237 35.4619 62.6716 35.329C62.2303 35.196 61.8111 35.0077 61.4248 34.764C61.0388 34.5203 60.6857 34.2323 60.3657 33.8999C60.0458 33.5676 59.7812 33.202 59.5497 32.8032C59.3179 32.4044 59.1525 31.9835 59.02 31.5293C58.8987 31.0751 58.8326 30.6098 58.8326 30.1335C58.8326 29.6461 58.8987 29.1697 59.02 28.7155C59.1305 28.2724 59.3067 27.8515 59.5497 27.4527Z" fill="#101113"/>
<path d="M94.6297 30.2107C94.6297 30.1996 94.6297 30.1885 94.6297 30.1885C94.6077 29.5349 94.5192 28.9257 94.3538 28.3386C94.1884 27.7625 93.9678 27.2308 93.6808 26.7434C93.4053 26.267 93.063 25.835 92.677 25.4472C92.2798 25.0595 91.8606 24.7383 91.3865 24.4835C90.912 24.2176 90.4047 24.0182 89.875 23.8853C89.3345 23.7523 88.7831 23.6748 88.2202 23.6748C87.6136 23.6748 87.029 23.7523 86.4773 23.9074C85.9259 24.0625 85.4074 24.2841 84.9221 24.561C84.4365 24.849 84.0064 25.1814 83.6093 25.5802C83.2233 25.979 82.8813 26.411 82.6163 26.8874C82.3408 27.3637 82.131 27.8843 81.9765 28.4383C81.8223 28.9921 81.7559 29.5682 81.7559 30.1664C81.7559 31.0526 81.9216 31.8945 82.2744 32.67C82.6163 33.4565 83.0799 34.1433 83.6753 34.7304C84.2603 35.3175 84.9442 35.7828 85.7273 36.1262C86.5105 36.4696 87.3489 36.6358 88.2314 36.6358C88.9593 36.6358 89.6324 36.525 90.2502 36.3146C90.868 36.1041 91.4414 35.805 91.9711 35.4284C92.1144 35.3287 92.2358 35.2289 92.3462 35.1292C92.4455 35.0295 92.5336 34.9298 92.6109 34.8412C92.6109 34.808 92.5889 34.7747 92.5557 34.7415C92.5777 34.7194 92.5997 34.6861 92.5997 34.664C92.5997 34.6197 92.5777 34.5532 92.5225 34.4646C92.4676 34.3759 92.3903 34.2541 92.2798 34.099C92.2137 34.0104 92.1585 33.9661 92.1036 33.9661C92.0592 33.9661 92.0043 33.9882 91.9491 34.0215C91.8938 34.0547 91.8277 34.099 91.7613 34.1544C91.6952 34.2098 91.6291 34.2541 91.5631 34.3095C91.4966 34.3649 91.4305 34.4092 91.3645 34.4535C91.1547 34.6086 90.9341 34.7526 90.7026 34.8855C90.4708 35.0185 90.2282 35.1292 89.9635 35.2289C89.7097 35.3175 89.423 35.3951 89.1251 35.4505C88.8272 35.5059 88.4961 35.528 88.1541 35.528C87.5475 35.528 86.9738 35.4284 86.4332 35.2289C85.8927 35.0295 85.3962 34.7526 84.9662 34.4092C84.5249 34.0658 84.1498 33.6448 83.8299 33.1574C83.51 32.67 83.2673 32.1382 83.1019 31.5511C83.0575 31.3849 83.0247 31.2077 83.0135 31.0194C83.0027 30.8311 82.9915 30.687 82.9694 30.5763H94.3318C94.5412 30.5763 94.6517 30.4655 94.6517 30.2439C94.6297 30.2329 94.6297 30.2218 94.6297 30.2107ZM82.9582 29.4131C83.0467 28.8924 83.2012 28.3939 83.4219 27.9287C83.6533 27.4523 83.9292 27.0203 84.2603 26.6326C84.591 26.2449 84.977 25.9125 85.4074 25.6245C85.8375 25.3365 86.3011 25.1371 86.8084 25.0041C87.1063 24.9155 87.3598 24.8601 87.5804 24.838C87.7902 24.8158 88.0108 24.8047 88.2314 24.8047C88.8933 24.8047 89.5111 24.9266 90.1177 25.1592C90.7246 25.3919 91.254 25.7131 91.7284 26.123C92.2025 26.5329 92.5889 27.0203 92.8976 27.5853C93.2067 28.1502 93.4053 28.7595 93.4822 29.4131H82.9582Z" fill="#016DFF"/>
<path d="M104.878 31.7391C104.691 31.3403 104.415 30.9969 104.073 30.6978C103.72 30.3987 103.301 30.1329 102.815 29.9113C102.33 29.6897 101.778 29.5125 101.182 29.3685C101.172 29.3685 101.16 29.3685 101.15 29.3574C101.138 29.3574 101.105 29.3463 101.05 29.3352C100.774 29.2688 100.465 29.1691 100.135 29.0472C99.8035 28.9254 99.4836 28.7703 99.1969 28.582C98.9102 28.3936 98.6564 28.1721 98.469 27.9173C98.2704 27.6625 98.1711 27.3634 98.1711 27.0311C98.1711 26.6544 98.2483 26.311 98.3917 26.0341C98.535 25.746 98.7445 25.5134 98.9875 25.3251C99.241 25.1368 99.528 25.0038 99.8588 24.9041C100.179 24.8155 100.521 24.7712 100.874 24.7712C101.524 24.7712 102.076 24.9152 102.539 25.2032C103.003 25.4912 103.378 25.8568 103.642 26.2889C103.687 26.3664 103.731 26.4439 103.753 26.5104C103.786 26.5769 103.808 26.6433 103.841 26.6877C103.874 26.732 103.907 26.7652 103.94 26.7984C103.984 26.8206 104.04 26.8427 104.106 26.8427C104.15 26.8427 104.205 26.8317 104.271 26.7984C104.338 26.7763 104.415 26.732 104.481 26.6877C104.547 26.6433 104.613 26.588 104.669 26.5326C104.724 26.4772 104.746 26.4218 104.746 26.3664C104.746 26.3221 104.724 26.2778 104.691 26.2224L104.702 26.2334C104.547 25.8458 104.349 25.4912 104.117 25.17C103.874 24.8487 103.598 24.5829 103.279 24.3613C102.959 24.1398 102.595 23.9625 102.197 23.8407C101.8 23.7188 101.359 23.6523 100.885 23.6523C100.3 23.6523 99.7707 23.7299 99.285 23.8961C98.7997 24.0622 98.4025 24.2949 98.0606 24.594C97.7187 24.8931 97.454 25.2586 97.2666 25.6685C97.0788 26.0895 96.9907 26.5658 96.9907 27.0865C96.9907 27.5406 97.09 27.9505 97.3106 28.3161C97.5201 28.6817 97.7959 29.0029 98.149 29.2799C98.5018 29.5568 98.899 29.8005 99.3514 29.9999C99.8035 30.1993 100.267 30.3544 100.763 30.4763C101.138 30.5649 101.524 30.6646 101.911 30.7975C102.297 30.9304 102.65 31.0966 102.959 31.3071C103.268 31.5176 103.521 31.7613 103.72 32.0493C103.918 32.3373 104.018 32.6918 104.018 33.0906C104.018 33.5337 103.907 33.9104 103.687 34.2205C103.466 34.5307 103.19 34.7855 102.87 34.9738C102.551 35.1622 102.197 35.3062 101.822 35.3948C101.458 35.4834 101.116 35.5277 100.83 35.5277C100.598 35.5277 100.333 35.4945 100.047 35.428C99.7595 35.3726 99.4836 35.2729 99.2081 35.14C98.9322 35.0071 98.6784 34.852 98.4357 34.6415C98.1931 34.4421 98.0165 34.2095 97.8952 33.9325C97.8512 33.866 97.818 33.7774 97.7959 33.6777C97.7739 33.5891 97.7407 33.5005 97.7078 33.4119C97.6746 33.3343 97.6414 33.2568 97.5973 33.2014C97.5533 33.146 97.5092 33.1128 97.4648 33.1128C97.454 33.1128 97.4319 33.1128 97.3879 33.1128C97.3547 33.1128 97.3327 33.1238 97.3106 33.1238L96.9243 33.29C96.8582 33.3232 96.7921 33.3565 96.7481 33.4008C96.7037 33.434 96.6816 33.5005 96.6816 33.5891C96.6816 33.6113 96.6816 33.6445 96.6928 33.6777C96.7037 33.711 96.7149 33.7442 96.726 33.7774C96.8362 34.2427 97.0236 34.6526 97.2886 35.0071C97.5533 35.3616 97.862 35.6606 98.2263 35.9044C98.5903 36.1481 98.9983 36.3364 99.4395 36.4582C99.8808 36.5801 100.355 36.6466 100.841 36.6466C101.425 36.6466 101.977 36.569 102.495 36.4029C103.025 36.2367 103.488 36.0041 103.896 35.705C104.304 35.3948 104.624 35.0292 104.856 34.5861C105.088 34.143 105.209 33.6334 105.209 33.0685C105.165 32.57 105.077 32.1268 104.878 31.7391Z" fill="#016DFF"/>
<path d="M115.368 31.7391C115.181 31.3403 114.905 30.9969 114.563 30.6978C114.21 30.3987 113.791 30.1329 113.306 29.9113C112.809 29.6897 112.269 29.5125 111.673 29.3685C111.662 29.3685 111.651 29.3685 111.64 29.3574C111.629 29.3574 111.596 29.3463 111.541 29.3352C111.265 29.2688 110.956 29.1691 110.625 29.0472C110.294 28.9254 109.974 28.7703 109.687 28.582C109.401 28.3936 109.147 28.1721 108.959 27.9173C108.761 27.6625 108.661 27.3634 108.661 27.0311C108.661 26.6544 108.739 26.311 108.882 26.0341C109.025 25.746 109.235 25.5134 109.478 25.3251C109.732 25.1368 110.018 25.0038 110.349 24.9041C110.669 24.8155 111.011 24.7712 111.364 24.7712C112.015 24.7712 112.566 24.9152 113.03 25.2032C113.493 25.4912 113.857 25.8568 114.133 26.2889C114.177 26.3664 114.221 26.4439 114.243 26.5104C114.265 26.5769 114.299 26.6433 114.332 26.6877C114.365 26.732 114.398 26.7652 114.431 26.7984C114.475 26.8206 114.53 26.8427 114.596 26.8427C114.629 26.8427 114.696 26.8317 114.762 26.7984C114.828 26.7763 114.905 26.732 114.972 26.6877C115.049 26.6433 115.104 26.588 115.159 26.5326C115.214 26.4772 115.236 26.4218 115.236 26.3664C115.236 26.3221 115.214 26.2778 115.181 26.2224L115.192 26.2334C115.038 25.8458 114.839 25.4912 114.607 25.17C114.365 24.8487 114.089 24.5829 113.769 24.3613C113.449 24.1398 113.085 23.9625 112.688 23.8407C112.291 23.7188 111.85 23.6523 111.375 23.6523C110.791 23.6523 110.261 23.7299 109.776 23.8961C109.29 24.0622 108.882 24.2949 108.551 24.594C108.209 24.8931 107.944 25.2586 107.757 25.6685C107.57 26.0895 107.481 26.5658 107.481 27.0865C107.481 27.5406 107.58 27.9505 107.801 28.3161C108.011 28.6817 108.286 29.0029 108.639 29.2799C108.993 29.5568 109.39 29.8005 109.842 29.9999C110.294 30.1993 110.757 30.3544 111.254 30.4763C111.64 30.5649 112.015 30.6646 112.401 30.7975C112.787 30.9304 113.129 31.0966 113.438 31.3071C113.747 31.5176 114.001 31.7613 114.199 32.0493C114.398 32.3373 114.497 32.6918 114.497 33.0906C114.497 33.5337 114.387 33.9104 114.166 34.2205C113.945 34.5307 113.67 34.7855 113.339 34.9738C113.019 35.1622 112.666 35.3062 112.302 35.3948C111.938 35.4834 111.596 35.5277 111.309 35.5277C111.077 35.5277 110.813 35.4945 110.526 35.428C110.239 35.3726 109.963 35.2729 109.687 35.14C109.412 35.0071 109.158 34.852 108.915 34.6415C108.683 34.4421 108.496 34.2095 108.375 33.9325C108.331 33.866 108.297 33.7774 108.275 33.6777C108.242 33.5891 108.22 33.5005 108.187 33.4119C108.154 33.3343 108.121 33.2568 108.077 33.2014C108.033 33.146 107.989 33.1128 107.944 33.1128C107.933 33.1128 107.9 33.1128 107.867 33.1128C107.834 33.1128 107.812 33.1238 107.79 33.1238L107.404 33.29C107.338 33.3232 107.272 33.3565 107.228 33.4008C107.183 33.434 107.161 33.5005 107.161 33.5891C107.161 33.6113 107.161 33.6445 107.172 33.6777C107.183 33.711 107.194 33.7442 107.205 33.7774C107.316 34.2427 107.503 34.6526 107.768 35.0071C108.033 35.3616 108.341 35.6606 108.705 35.9044C109.07 36.1481 109.478 36.3364 109.919 36.4582C110.36 36.5801 110.835 36.6466 111.32 36.6466C111.894 36.6466 112.445 36.569 112.975 36.4029C113.504 36.2367 113.967 36.0041 114.376 35.705C114.773 35.3948 115.104 35.0292 115.336 34.5861C115.578 34.143 115.688 33.6334 115.688 33.0685C115.655 32.57 115.556 32.1268 115.368 31.7391Z" fill="#016DFF"/>
<path d="M130.195 23.8967H129.687C129.478 23.8967 129.379 23.9964 129.379 24.218V26.644C129.103 26.1898 128.783 25.7799 128.408 25.4144C128.033 25.0488 127.613 24.7275 127.161 24.4727C126.709 24.2069 126.224 24.0075 125.716 23.8745C125.198 23.7416 124.679 23.6641 124.139 23.6641C123.554 23.6641 122.98 23.7416 122.429 23.8967C121.877 24.0518 121.37 24.2733 120.884 24.5614C120.41 24.8494 119.969 25.1817 119.571 25.5805C119.175 25.9793 118.843 26.4114 118.557 26.8988C118.27 27.3751 118.049 27.8958 117.895 28.4386C117.74 28.9925 117.663 29.5575 117.663 30.1556C117.663 30.7428 117.74 31.3188 117.895 31.8727C118.049 32.4266 118.27 32.9362 118.546 33.4236C118.833 33.8999 119.163 34.3431 119.561 34.7308C119.958 35.1296 120.399 35.4619 120.873 35.7499C121.348 36.038 121.866 36.2595 122.418 36.4146C122.958 36.5697 123.532 36.6472 124.127 36.6472C124.679 36.6472 125.209 36.5808 125.727 36.4368C126.234 36.3038 126.72 36.1044 127.172 35.8496C127.624 35.5949 128.033 35.2847 128.397 34.9191C128.772 34.5535 129.081 34.1437 129.345 33.6895L129.379 34.4428V36.0601C129.379 36.2927 129.511 36.4146 129.765 36.4146H130.162C130.261 36.4146 130.349 36.3924 130.415 36.3371C130.482 36.2817 130.526 36.2041 130.526 36.0933V24.2069C130.537 23.9964 130.426 23.8967 130.195 23.8967ZM129.014 32.2272C128.728 32.8808 128.342 33.4568 127.856 33.9443C127.371 34.4317 126.808 34.8194 126.146 35.1074C125.496 35.3955 124.801 35.5395 124.072 35.5395C123.344 35.5395 122.671 35.3955 122.043 35.1074C121.414 34.8194 120.862 34.4206 120.388 33.9221C119.914 33.4236 119.539 32.8475 119.274 32.194C119.009 31.5404 118.865 30.8535 118.865 30.1335C118.865 29.4134 119.009 28.7377 119.285 28.0952C119.571 27.4527 119.947 26.8877 120.432 26.3892C120.906 25.9018 121.469 25.503 122.098 25.2149C122.726 24.9269 123.4 24.7829 124.095 24.7829H124.127C124.833 24.794 125.506 24.938 126.157 25.226C126.797 25.5141 127.36 25.9018 127.845 26.4003C128.33 26.8877 128.717 27.4638 129.003 28.1063C129.29 28.7598 129.433 29.4356 129.433 30.1556C129.445 30.8868 129.301 31.5847 129.014 32.2272Z" fill="#016DFF"/>
<path d="M142.958 23.8519H142.417C142.23 23.8519 142.108 23.9516 142.031 24.1399C141.832 24.6163 141.623 25.148 141.391 25.713C141.159 26.2779 140.928 26.8761 140.685 27.4854C140.443 28.0947 140.2 28.715 139.946 29.3354C139.692 29.9558 139.45 30.5761 139.207 31.1743C138.964 31.7725 138.733 32.3486 138.512 32.8914C138.291 33.4342 138.082 33.9327 137.905 34.3758C137.729 33.9548 137.53 33.4896 137.32 32.9689C137.111 32.4483 136.89 31.9055 136.659 31.3405C136.427 30.7755 136.195 30.1884 135.953 29.5902C135.71 28.992 135.467 28.4049 135.236 27.8288C135.004 27.2528 134.772 26.6878 134.563 26.1561C134.353 25.6133 134.144 25.1148 133.967 24.6716L133.735 24.0956C133.691 23.9848 133.603 23.9184 133.493 23.8851C133.371 23.863 133.25 23.8408 133.117 23.8408C132.908 23.8408 132.743 23.863 132.632 23.8851C132.522 23.9073 132.467 23.9959 132.467 24.1399C132.467 24.2507 132.478 24.3172 132.511 24.3504L137.266 35.8713L135.754 39.6931C135.743 39.7042 135.743 39.7264 135.732 39.7596C135.721 39.7928 135.721 39.8261 135.721 39.8593C135.721 39.9922 135.765 40.0809 135.853 40.1252C135.942 40.1695 136.096 40.1806 136.295 40.1806C136.427 40.1806 136.57 40.1584 136.692 40.1362C136.824 40.103 136.912 40.0255 136.968 39.8925L143.3 24.3504C143.3 24.3393 143.311 24.3061 143.322 24.2729C143.333 24.2285 143.344 24.1953 143.344 24.1621C143.333 23.9627 143.211 23.8519 142.958 23.8519Z" fill="#016DFF"/>
<path d="M42.1526 25.3259C42.1526 25.3813 42.0974 25.481 41.9872 25.6028C41.8767 25.7247 41.7554 25.8466 41.6233 25.9574C41.59 25.9906 41.5568 26.0127 41.5128 26.0127C41.4687 26.0127 41.4135 26.0017 41.3474 25.9684C41.2922 25.9463 41.2041 25.8909 41.1048 25.8244C40.9722 25.7247 40.8069 25.625 40.6195 25.5253C40.4317 25.4256 40.2331 25.3259 40.0345 25.2373C39.8251 25.1487 39.6153 25.0711 39.4059 25.0157C39.1961 24.9603 38.9867 24.9271 38.7769 24.9271C38.2696 24.9271 37.7951 25.0157 37.3539 25.193C36.9018 25.3702 36.5155 25.625 36.1847 25.9463C35.8536 26.2675 35.5889 26.6663 35.3903 27.1427C35.1919 27.619 35.1036 28.1397 35.1036 28.7157V36.0935C35.1036 36.2929 35.0043 36.4037 34.7837 36.4037H34.2321C34.0336 36.3926 33.9453 36.2929 33.9453 36.0935V24.3289C33.9784 24.1738 34.0666 24.052 34.188 23.9633C34.2873 23.908 34.3976 23.8636 34.5079 23.8636C34.6403 23.8636 34.7616 23.908 34.8609 23.9855C34.9933 24.0852 35.0815 24.2292 35.0926 24.4065V25.9352C35.0926 25.9352 35.0926 25.9241 35.1036 25.9241C35.236 25.6693 35.4236 25.4146 35.6442 25.1708C35.8648 24.9271 36.1295 24.6945 36.4274 24.4951C36.7252 24.2957 37.0672 24.1295 37.4312 24.0077C37.7951 23.8858 38.2035 23.8193 38.6227 23.8193C38.9646 23.8193 39.2846 23.8415 39.5713 23.8858C39.858 23.9301 40.145 23.9966 40.3988 24.0963C40.6635 24.1849 40.917 24.3068 41.16 24.4508C41.4026 24.5948 41.6453 24.7609 41.8879 24.9493C41.954 25.0047 42.0204 25.06 42.0645 25.1154C42.1306 25.1708 42.1526 25.2484 42.1526 25.3259Z" fill="#101113"/>
<path d="M81.7122 25.3259C81.7122 25.3813 81.6569 25.481 81.5468 25.6028C81.4363 25.7247 81.315 25.8466 81.1828 25.9574C81.1496 25.9906 81.1164 26.0127 81.0723 26.0127C81.0283 26.0127 80.9731 26.0017 80.907 25.9684C80.8517 25.9463 80.7636 25.8909 80.6643 25.8244C80.5318 25.7247 80.3664 25.625 80.179 25.5253C79.9913 25.4256 79.7927 25.3259 79.5941 25.2373C79.3847 25.1487 79.1749 25.0711 78.9655 25.0157C78.7557 24.9603 78.5462 24.9271 78.3365 24.9271C77.8291 24.9271 77.3547 25.0157 76.9135 25.193C76.4614 25.3702 76.075 25.625 75.7443 25.9463C75.4132 26.2675 75.1485 26.6663 74.9499 27.1427C74.7513 27.619 74.6632 28.1397 74.6632 28.7157V36.0935C74.6632 36.2929 74.5639 36.4037 74.3433 36.4037H73.7916C73.593 36.3926 73.5049 36.2929 73.5049 36.0935V24.3289C73.5381 24.1738 73.6262 24.052 73.7475 23.9633C73.8468 23.908 73.9573 23.8636 74.0674 23.8636C74.2 23.8636 74.3213 23.908 74.4206 23.9855C74.5527 24.0852 74.6412 24.2292 74.652 24.4065V25.9352C74.652 25.9352 74.652 25.9241 74.6632 25.9241C74.7957 25.6693 74.9831 25.4146 75.2038 25.1708C75.4244 24.9271 75.689 24.6945 75.9869 24.4951C76.2848 24.2957 76.6268 24.1295 76.9907 24.0077C77.3547 23.8858 77.7631 23.8193 78.1823 23.8193C78.5242 23.8193 78.8441 23.8415 79.1308 23.8858C79.4179 23.9301 79.7046 23.9966 79.9584 24.0963C80.2231 24.1849 80.4766 24.3068 80.7196 24.4508C80.9622 24.5948 81.2049 24.7609 81.4475 24.9493C81.5136 25.0047 81.58 25.06 81.6241 25.1154C81.6793 25.1708 81.7122 25.2484 81.7122 25.3259Z" fill="#101113"/>
<path d="M70.5042 24.3732V34.5094C70.5042 34.5204 70.5042 34.5315 70.4934 34.5426C70.4934 34.5537 70.4934 34.5647 70.4934 34.5758C70.471 35.3513 70.3829 36.0381 70.2064 36.6474C70.041 37.2567 69.8092 37.7995 69.5225 38.2647C69.2358 38.73 68.9047 39.1288 68.5187 39.4611C68.1327 39.7935 67.7135 40.0704 67.2611 40.2809C66.8086 40.4914 66.3345 40.6464 65.8381 40.7461C65.3416 40.8458 64.8451 40.8902 64.3266 40.8902C63.6098 40.8902 62.97 40.8126 62.3963 40.6465C61.8225 40.4914 61.2932 40.2587 60.7967 39.9707C60.7306 39.9375 60.6862 39.9042 60.6422 39.8599C60.6093 39.8156 60.5869 39.7602 60.5869 39.6827C60.5869 39.6273 60.5869 39.583 60.5981 39.5498C60.5981 39.5165 60.6201 39.4833 60.6422 39.439C60.6642 39.3947 60.7086 39.3393 60.7747 39.2506C60.8299 39.1731 60.918 39.0512 61.0173 38.9072C61.0505 38.8518 61.0946 38.8297 61.1498 38.8408C61.2047 38.8518 61.26 38.8629 61.304 38.8851C61.3813 38.9405 61.5246 39.018 61.7232 39.1177C61.933 39.2174 62.1645 39.3171 62.4403 39.4058C62.7162 39.4944 63.0141 39.5719 63.334 39.6495C63.6539 39.7159 63.9738 39.7492 64.2937 39.7492C65.0108 39.7492 65.6727 39.6384 66.2905 39.4168C66.9079 39.1953 67.4376 38.874 67.8897 38.442C68.3421 38.0099 68.6952 37.4893 68.9599 36.8578C69.1585 36.3704 69.2798 35.8165 69.3239 35.2184C69.3351 35.0411 69.3459 34.8638 69.3459 34.6755V33.601C69.3351 33.6121 69.3351 33.6231 69.3239 33.6342V24.3067C69.3571 24.1516 69.4452 24.0298 69.5665 23.9412C69.633 23.8968 69.7099 23.8636 69.7872 23.8525H69.9969C70.085 23.8747 70.1623 23.9079 70.2396 23.9633C70.4049 24.0519 70.4934 24.207 70.5042 24.3732Z" fill="#101113"/>
<path d="M70.0288 23.8519H69.8193C69.8526 23.8408 69.8854 23.8408 69.9186 23.8408C69.9518 23.8408 69.9959 23.8519 70.0288 23.8519Z" fill="#101113"/>
<path d="M15.7771 36.3477L6.51074 45.653V36.7021C6.51074 36.5138 6.66518 36.3477 6.86373 36.3477H15.7771Z" fill="#2292FF"/>
<path d="M15.7771 36.3477L6.51074 45.653V36.7021C6.51074 36.5138 6.66518 36.3477 6.86373 36.3477H15.7771Z" fill="#003EFF"/>
<path d="M15.777 21.1934V36.3478H6.85255C6.66504 36.3478 6.49956 36.5029 6.49956 36.7023V45.6531H0.686012C0.498479 45.6531 0.333008 45.498 0.333008 45.2986V21.1934C0.333008 20.994 0.487447 20.8389 0.686012 20.8389H15.4239C15.6115 20.8389 15.777 20.994 15.777 21.1934Z" fill="#016DFF"/>
<path d="M9.46723 26.5883L8.46336 25.115C8.28686 24.8491 8.35305 24.4946 8.60678 24.3174C8.87152 24.1401 9.22451 24.2066 9.40104 24.4614L9.72096 24.9377L11.7618 23.3647C12.0155 23.1764 12.3685 23.2207 12.567 23.4644C12.7546 23.7192 12.7105 24.0737 12.4677 24.2731L9.46723 26.5883Z" fill="#DFDFDF"/>
<path d="M9.46723 30.3442L8.46336 28.8708C8.28686 28.605 8.35305 28.2505 8.60678 28.0732C8.87152 27.896 9.22451 27.9625 9.40104 28.2173L9.72096 28.6936L11.7618 27.1205C12.0155 26.9322 12.3685 26.9766 12.567 27.2203C12.7546 27.4751 12.7105 27.8295 12.4677 28.0289L9.46723 30.3442Z" fill="#DFDFDF"/>
<path d="M9.46723 34.0991L8.46336 32.6257C8.28686 32.3598 8.35305 32.0054 8.60678 31.8281C8.87152 31.6509 9.22451 31.7173 9.40104 31.9722L9.72096 32.4485L11.7618 30.8754C12.0155 30.6871 12.3685 30.7314 12.567 30.9751C12.7546 31.2299 12.7105 31.5844 12.4677 31.7838L9.46723 34.0991Z" fill="#DFDFDF"/>
</g>
<defs>
<clipPath id="clip0">
<rect width="143" height="63" fill="white" transform="translate(0.333008 0.5)"/>
</clipPath>
</defs>
</svg>
