<svg width="26" height="26" viewBox="0 0 26 26" fill="none" xmlns="http://www.w3.org/2000/svg">
<path d="M13 0C5.82075 0 0 5.81967 0 13C0 20.1793 5.82075 26 13 26C20.1793 26 26 20.1793 26 13C26 5.81967 20.1793 0 13 0ZM13 24.3306C10.9579 24.3306 9.3015 22.9656 9.3015 21.2832H16.6985C16.6985 22.9656 15.0432 24.3306 13 24.3306ZM19.11 20.2735H6.89V18.0592H19.11V20.2746V20.2735ZM19.0656 16.9173H6.92467C6.88458 16.8708 6.84342 16.8253 6.80442 16.7776C5.55317 15.2598 5.25958 14.4668 4.97358 13.6576C4.96817 13.6316 6.49025 13.9696 7.56817 14.2123C7.56817 14.2123 8.12392 14.3401 8.93533 14.4885C8.15533 13.5752 7.69383 12.4139 7.69383 11.2277C7.69383 8.62117 9.6915 6.344 8.97108 4.50342C9.67308 4.55975 10.4228 5.98433 10.4737 8.21058C11.2201 7.17925 11.5321 5.29642 11.5321 4.14267C11.5321 2.94775 12.3197 1.55892 13.1073 1.51125C12.4053 2.66825 13.2893 3.66058 14.0758 6.12192C14.3704 7.04708 14.3325 8.60275 14.56 9.58858C14.6358 7.54108 14.9879 4.55 16.2879 3.51758C15.7138 4.81758 16.3735 6.44475 16.8231 7.22692C17.55 8.48792 17.9909 9.4445 17.9909 11.2526C17.9868 12.4427 17.5607 13.5927 16.7884 14.4983C17.6464 14.3368 18.2401 14.1917 18.2401 14.1917L21.0275 13.6478C21.0275 13.6478 20.6223 15.314 19.0656 16.9173Z" fill="#E3703B"/>
</svg>
