<svg width="27" height="32" viewBox="0 0 27 32" fill="none" xmlns="http://www.w3.org/2000/svg">
<path fill-rule="evenodd" clip-rule="evenodd" d="M16.386 31.4964L0.657104 28.6227L3.80056 0.101807L26.0285 3.40856L23.6395 25.7929L16.386 31.4964ZM5.36613 2.41835L2.86128 26.9105L14.7579 29.227L15.6968 22.9387L21.9584 23.5976L23.8367 5.06303L5.36613 2.41835ZM19.1464 10.0656L19.4437 7.7411L21.682 8.07505L21.4018 10.4163L19.1464 10.0656ZM20.8476 15.0465L18.5594 14.6563L18.8867 12.0976L21.1647 12.3949L20.8476 15.0465ZM20.2856 19.7394L17.956 19.3768L18.2895 16.7688L20.604 17.0773L20.2856 19.7394ZM14.3424 9.31862L14.6749 7.0293L18.1812 7.55235L17.805 9.85692L14.3424 9.31862ZM17.0642 14.4014L13.6888 13.8257L14.0315 11.4642L17.4701 11.9132L17.0642 14.4014ZM16.2948 19.1187L12.9955 18.6055L13.3573 16.1114L16.7123 16.5586L16.2948 19.1187ZM7.09572 8.19156L7.31234 5.93019L13.1281 6.79844L12.7984 9.07869L7.09572 8.19156ZM12.1509 13.563L6.67135 12.6283L6.87226 10.5288L12.4833 11.2617L12.1509 13.563ZM11.4569 18.3663L6.20017 17.5488L6.42637 15.1884L11.8126 15.9064L11.4569 18.3663Z" fill="#111111"/>
</svg>
