<svg viewBox="0 0 27 32" fill="none" xmlns="http://www.w3.org/2000/svg">
  <path fill-rule="evenodd" clip-rule="evenodd" d="M16.3861 31.8053L0.657227 28.9316L3.80068 0.410767L26.0287 3.71752L23.6396 26.1018L16.3861 31.8053ZM5.36626 2.72731L2.8614 27.2194L14.758 29.536L15.6969 23.2477L21.9586 23.9065L23.8368 5.37199L5.36626 2.72731ZM19.1465 10.3746L19.4438 8.05006L21.6821 8.38401L21.402 10.7252L19.1465 10.3746ZM20.8478 15.3554L18.5595 14.9652L18.8869 12.4066L21.1648 12.7038L20.8478 15.3554ZM20.2857 20.0484L17.9561 19.6858L18.2896 17.0778L20.6041 17.3863L20.2857 20.0484ZM14.3425 9.62758L14.675 7.33826L18.1813 7.86131L17.8051 10.1659L14.3425 9.62758ZM17.0643 14.7104L13.6889 14.1347L14.0316 11.7732L17.4703 12.2222L17.0643 14.7104ZM16.2949 19.4277L12.9956 18.9144L13.3575 16.4204L16.7124 16.8676L16.2949 19.4277ZM7.09584 8.50052L7.31246 6.23915L13.1282 7.1074L12.7985 9.38765L7.09584 8.50052ZM12.151 13.8719L6.67147 12.9372L6.87238 10.8378L12.4834 11.5706L12.151 13.8719ZM11.457 18.6752L6.2003 17.8578L6.42649 15.4973L11.8127 16.2153L11.457 18.6752Z" fill="#96969C"/>
</svg>
