<svg width="26" height="26" viewBox="0 0 26 26" fill="none" xmlns="http://www.w3.org/2000/svg">
<path d="M12.8891 0.00756836C6.30459 0.00756836 6.71625 2.87407 6.71625 2.87407L6.72384 5.84349H13.0072V6.73507H4.22784C4.22784 6.73507 0.0136719 6.25623 0.0136719 12.9252C0.0136719 19.5953 3.69159 19.3592 3.69159 19.3592H5.88642V16.2641C5.88642 16.2641 5.76834 12.5721 9.50475 12.5721H15.7372C15.7372 12.5721 19.2385 12.6284 19.2385 9.17474V3.4634C19.2385 3.4634 19.7704 0.00756836 12.8913 0.00756836H12.8891ZM9.42459 2.00415C9.57364 2.00357 9.72132 2.03258 9.85909 2.08948C9.99685 2.14639 10.122 2.23006 10.2271 2.33566C10.3323 2.44126 10.4155 2.56668 10.4719 2.70466C10.5283 2.84264 10.5567 2.99044 10.5556 3.13949C10.555 3.43957 10.4358 3.72725 10.2239 3.93975C10.012 4.15224 9.72467 4.27231 9.42459 4.27374C9.27572 4.27417 9.12824 4.24509 8.99067 4.18819C8.85311 4.13129 8.72818 4.04769 8.62311 3.94222C8.51805 3.83675 8.43493 3.71151 8.37855 3.57372C8.32218 3.43594 8.29367 3.28835 8.29467 3.13949C8.29495 2.8394 8.41391 2.55161 8.6256 2.33891C8.83728 2.12621 9.12451 2.00587 9.42459 2.00415Z" fill="url(#paint0_linear)"/>
<path d="M13.0767 25.9112C19.6612 25.9112 19.2496 23.0447 19.2496 23.0447L19.2431 20.0742H12.9597V19.1826H21.738C21.738 19.1826 25.9521 19.6626 25.9521 12.9925C25.9521 6.32239 22.2742 6.55964 22.2742 6.55964H20.0794V9.65472C20.0794 9.65472 20.1986 13.3467 16.4611 13.3467H10.2286C10.2286 13.3467 6.72731 13.2893 6.72731 16.7441V22.4543C6.72731 22.4543 6.1954 25.9101 13.0756 25.9101H13.0767V25.9112ZM16.5412 23.9136C16.3924 23.914 16.2449 23.8849 16.1073 23.828C15.9697 23.7711 15.8448 23.6875 15.7398 23.582C15.6347 23.4766 15.5516 23.3513 15.4952 23.2135C15.4388 23.0758 15.4103 22.9282 15.4113 22.7793C15.4116 22.4792 15.5306 22.1914 15.7422 21.9787C15.9539 21.766 16.2411 21.6457 16.5412 21.644C16.6903 21.6434 16.838 21.6724 16.9757 21.7293C17.1135 21.7862 17.2386 21.8699 17.3438 21.9755C17.449 22.0811 17.5322 22.2065 17.5886 22.3445C17.6449 22.4825 17.6734 22.6303 17.6722 22.7793C17.6717 23.0794 17.5524 23.3671 17.3405 23.5796C17.1286 23.7921 16.8413 23.9121 16.5412 23.9136Z" fill="url(#paint1_linear)"/>
<defs>
<linearGradient id="paint0_linear" x1="2.50625" y1="2.37014" x2="15.4094" y2="15.0382" gradientUnits="userSpaceOnUse">
<stop stop-color="#387EB8"/>
<stop offset="1" stop-color="#366994"/>
</linearGradient>
<linearGradient id="paint1_linear" x1="10.3969" y1="10.5665" x2="24.2509" y2="23.5541" gradientUnits="userSpaceOnUse">
<stop stop-color="#FFE052"/>
<stop offset="1" stop-color="#FFC331"/>
</linearGradient>
</defs>
</svg>
