<svg width="26" height="26" viewBox="0 0 26 26" fill="none" xmlns="http://www.w3.org/2000/svg">
<g clip-path="url(#clip0)">
<path fill-rule="evenodd" clip-rule="evenodd" d="M20.543 8.53891C20.8239 8.62225 21.1026 8.71282 21.3789 8.81053C24.1872 9.80685 26.002 11.3678 26.002 12.9806C26.002 14.6645 24.0634 16.3088 21.0819 17.3266C20.9244 17.3807 20.7635 17.4325 20.5981 17.4821C20.6562 17.7198 20.7087 17.9588 20.7556 18.1989C21.3429 21.2623 20.8906 23.7801 19.4955 24.6119C18.1454 25.4166 15.9627 24.6265 13.753 22.6666C13.5122 22.4524 13.2782 22.2327 13.0498 22.005C12.8686 22.1865 12.6875 22.3589 12.5075 22.5212C10.2258 24.5758 7.8833 25.429 6.48705 24.5984C5.1358 23.7959 4.71163 21.4516 5.25506 18.501C5.31356 18.1798 5.38219 17.8608 5.45983 17.543C5.22356 17.4754 4.98841 17.3987 4.75664 17.3176C1.88875 16.3066 0.00195312 14.6419 0.00195312 12.9818C0.00195312 11.3735 1.76049 9.82263 4.51249 8.8342C4.82077 8.72375 5.14142 8.62006 5.47445 8.52201C5.40357 8.22784 5.33944 7.93255 5.28319 7.63501C4.71276 4.6314 5.11217 2.23077 6.46904 1.42154C7.88217 0.578498 10.2359 1.48465 12.5829 3.63283C12.729 3.76689 12.8727 3.90367 13.0138 4.04307C13.2246 3.83363 13.4407 3.62957 13.6618 3.43108C15.9019 1.42041 18.1206 0.580752 19.4764 1.3866C20.8906 2.22738 21.3058 4.7813 20.6712 7.95059C20.633 8.14782 20.5891 8.34393 20.543 8.53891ZM20.3318 16.381C20.4806 16.3359 20.626 16.2885 20.7691 16.2401C23.3467 15.3621 24.9347 14.0164 24.9347 12.9818C24.9347 12.0091 23.465 10.7468 21.0543 9.89362C20.8052 9.80458 20.5471 9.72005 20.28 9.64116C19.9599 10.7085 19.5316 11.8355 19.0131 12.9863C19.5277 14.0873 19.9682 15.2213 20.3318 16.381ZM19.8246 21.9577C19.9971 21.0008 19.9599 19.7757 19.6984 18.4209H19.6995C19.659 18.2102 19.6116 17.9938 19.5586 17.7729C18.3974 18.0425 17.2186 18.2297 16.031 18.333C15.3678 19.3313 14.6385 20.2839 13.8478 21.1845C14.0665 21.4009 14.2851 21.6071 14.5027 21.7987C16.395 23.4747 18.1509 24.1103 18.9714 23.6212C19.3569 23.3913 19.6691 22.8176 19.8246 21.9577ZM7.05619 23.6088C7.44164 23.8376 8.08068 23.8297 8.88202 23.5378H8.88315C9.77465 23.2132 10.7879 22.5685 11.7988 21.6601C11.9679 21.508 12.1325 21.3513 12.2948 21.1901C11.534 20.3505 10.78 19.3913 10.0587 18.3477C8.79636 18.2417 7.61521 18.0682 6.54901 17.8247C6.47688 18.12 6.41489 18.4164 6.35854 18.7151C5.89306 21.2386 6.23343 23.1208 7.05619 23.6088ZM2.08811 14.5754C2.80717 15.2088 3.85534 15.7881 5.12553 16.2344V16.2356C5.33829 16.3097 5.55287 16.3785 5.76908 16.4418C6.12295 15.2714 6.55213 14.125 7.05393 13.0099C6.53774 11.857 6.11058 10.7164 5.78486 9.6265C5.48281 9.71329 5.18414 9.81021 4.88772 9.91616C2.52992 10.7615 1.11546 12.0069 1.11546 12.9818C1.11546 13.4405 1.44231 14.0063 2.08811 14.5754ZM7.03702 2.41333C6.21991 2.90135 5.89419 4.84214 6.38333 7.41634C6.43631 7.69277 6.49606 7.96785 6.56253 8.24135C7.64113 7.99002 8.81327 7.80292 10.0384 7.68571C10.7153 6.69655 11.4566 5.75303 12.2576 4.8613C12.1257 4.73282 11.9961 4.60884 11.8665 4.48937C9.83551 2.63536 7.90937 1.89488 7.03702 2.41333ZM16.8278 8.92885C17.1014 9.36988 17.3655 9.81667 17.6201 10.2689C17.8782 10.7276 18.1284 11.1931 18.3685 11.6631C18.6987 10.8696 18.9782 10.0965 19.2025 9.35601C18.4553 9.18019 17.6584 9.03705 16.8278 8.92885ZM14.5714 7.58202C14.0654 6.88888 13.5514 6.24984 13.0386 5.67842C12.5179 6.2566 11.9995 6.89339 11.4923 7.58089C12.5181 7.53162 13.5457 7.532 14.5714 7.58202ZM7.69185 11.6631C7.92627 11.1942 8.17197 10.7321 8.42781 10.2768C8.68366 9.82036 8.94964 9.37066 9.22577 8.9266C8.39964 9.03254 7.60844 9.1723 6.86458 9.34361C7.10317 10.1295 7.37924 10.9036 7.69185 11.6631ZM6.84881 16.7202C7.64147 16.8949 8.44279 17.0278 9.24944 17.1181V17.1169C8.68823 16.2209 8.16922 15.2991 7.6941 14.3545C7.36274 15.1626 7.07873 15.9561 6.84881 16.7202ZM11.5024 18.4367C11.9931 19.1041 12.5159 19.7473 13.069 20.364V20.3651C13.5785 19.7881 14.0913 19.14 14.5985 18.43C13.567 18.4746 12.5341 18.4768 11.5024 18.4367ZM19.2543 16.6706C19.0222 15.92 18.728 15.1299 18.3797 14.3128C17.9019 15.2629 17.3829 16.1917 16.8244 17.0966C17.6832 16.9907 18.4992 16.8476 19.2543 16.6706ZM15.4111 17.2353C15.8484 16.559 16.2654 15.8659 16.6598 15.1615H16.661C17.0588 14.4526 17.4308 13.729 17.7801 12.9919C17.4285 12.2627 17.0532 11.5459 16.6565 10.8426C16.262 10.1404 15.8439 9.45294 15.4021 8.78008C13.8217 8.65728 12.2341 8.65728 10.6538 8.78008C9.75894 10.1283 8.96665 11.5419 8.28355 13.0088C8.9717 14.4779 9.76848 15.8937 10.6673 17.2443C11.4269 17.295 12.2147 17.3209 13.0262 17.3209C13.8399 17.3209 14.6379 17.2916 15.4111 17.2353ZM19.6195 7.71952C20.1673 4.9819 19.828 2.89684 18.9557 2.37839C18.1363 1.89376 16.3398 2.57224 14.417 4.29439C14.2119 4.47697 14.0124 4.66632 13.8174 4.85905C14.6138 5.75103 15.3495 6.69536 16.0197 7.68571C17.2482 7.80518 18.4214 7.99565 19.5023 8.25262C19.544 8.07567 19.5834 7.8976 19.6195 7.71952Z" fill="#53C1DE"/>
<path d="M13.0255 10.5879C14.3103 10.5879 15.3506 11.6586 15.3506 12.9806C15.3506 14.3027 14.3092 15.3734 13.0255 15.3734C11.7406 15.3734 10.6992 14.3027 10.6992 12.9806C10.6992 11.6597 11.7406 10.5879 13.0255 10.5879Z" fill="#53C1DE"/>
</g>
<defs>
<clipPath id="clip0">
<rect width="26" height="26" fill="white"/>
</clipPath>
</defs>
</svg>
