<svg width="38" height="41" viewBox="0 0 38 41" fill="none" xmlns="http://www.w3.org/2000/svg">
<path d="M35.9169 17.1181C36.4234 17.1181 36.9093 17.3187 37.2684 17.6759C37.6274 18.0332 37.8303 18.5181 37.8328 19.0246V38.9767C37.8328 40.0273 36.9832 40.8848 35.9263 40.8848H1.90805C1.40201 40.8848 0.916685 40.6837 0.558856 40.3259C0.201026 39.9681 0 39.4828 0 38.9767V2.79282C0 1.74378 0.849594 0.886336 1.90962 0.886336H6.04452C7.09356 0.886336 7.951 1.73436 7.951 2.79282V15.3231C7.97908 15.7699 8.16132 16.193 8.46662 16.5204C8.77192 16.8478 9.18136 17.059 9.62506 17.1181H12.7188C13.6563 17.0318 14.4368 16.2685 14.4886 15.3231V2.79125C14.4886 1.74221 15.3367 0.884766 16.3951 0.884766H20.53C21.5791 0.884766 22.4381 1.73279 22.4381 2.79125V15.1912C22.4381 16.1712 23.1573 17.0035 24.1027 17.1166H35.9185L35.9169 17.1181ZM30.4723 30.8011V26.8971C30.4723 25.8481 29.6243 24.989 28.5658 24.989H24.4294C23.3803 24.989 22.5213 25.8386 22.5213 26.8971V30.7996C22.5213 31.8486 23.3709 32.7061 24.4294 32.7061H28.5642C29.6133 32.7061 30.4707 31.858 30.4707 30.7996L30.4723 30.8011Z" fill="#FF6600"/>
</svg>
