<svg fill="none" xmlns="http://www.w3.org/2000/svg" viewBox="0 0 41 40"><g clip-path="url(#clip0)"><path d="M38.62 30.791c-2.117 1.293-13.085 6.572-15.42 7.997-2.335 1.425-3.633 1.412-5.477.38-1.845-1.032-13.517-6.552-15.62-7.729C1.054 30.851.5 30.355.5 29.886v-4.695s15.195-3.873 17.649-4.903c2.453-1.03 3.304-1.065 5.392-.172 2.087.893 14.57 3.532 16.633 4.417v4.628c0 .464-.477.973-1.554 1.63z" fill="#A41E11"/><path d="M38.62 26.096c-2.117 1.291-13.085 6.571-15.42 7.996-2.335 1.425-3.633 1.412-5.477.38-1.845-1.032-13.517-6.553-15.62-7.729-2.102-1.176-2.146-1.986-.08-2.933l16.126-7.31c2.453-1.03 3.304-1.064 5.392-.172 2.087.893 12.99 5.976 15.053 6.861 2.063.885 2.143 1.614.023 2.907h.003z" fill="#D82C20"/><path d="M38.62 23.136c-2.117 1.292-13.085 6.572-15.42 7.998-2.335 1.425-3.633 1.41-5.477.378-1.845-1.032-13.517-6.552-15.62-7.728C1.054 23.196.5 22.7.5 22.23v-4.695s15.195-3.873 17.649-4.904c2.453-1.03 3.304-1.064 5.392-.171 2.087.892 14.57 3.531 16.633 4.416v4.629c0 .464-.477.973-1.554 1.63z" fill="#A41E11"/><path d="M38.62 18.44c-2.117 1.292-13.085 6.572-15.42 7.997-2.335 1.426-3.633 1.412-5.477.38-1.845-1.033-13.517-6.553-15.62-7.73-2.102-1.175-2.146-1.985-.08-2.933l16.126-7.309c2.453-1.03 3.304-1.065 5.392-.172 2.087.893 12.99 5.976 15.053 6.86 2.063.886 2.143 1.615.023 2.907h.003z" fill="#D82C20"/><path d="M38.62 15.197c-2.117 1.293-13.085 6.573-15.42 8-2.335 1.429-3.633 1.412-5.477.38-1.845-1.033-13.517-6.553-15.62-7.73C1.054 15.26.5 14.765.5 14.296V9.6S15.695 5.724 18.15 4.694c2.453-1.03 3.304-1.065 5.392-.172 2.087.893 14.57 3.532 16.633 4.416v4.63c0 .463-.477.972-1.554 1.63z" fill="#A41E11"/><path d="M38.62 10.5c-2.117 1.293-13.085 6.573-15.42 7.998-2.335 1.425-3.633 1.411-5.477.38-1.845-1.033-13.517-6.553-15.62-7.73-2.102-1.176-2.146-1.986-.08-2.933L18.149.906c2.453-1.03 3.304-1.065 5.392-.172 2.087.893 12.99 5.976 15.053 6.86 2.063.885 2.143 1.615.023 2.907h.003z" fill="#D82C20"/><path d="M22.099 6.395l-.77 2.17-1.245-2.42-3.97-.418 2.963-1.25-.887-1.92 2.773 1.27 2.616-1.002-.708 1.984 2.666 1.168-3.438.418zm-7.393 6.986l9.194-1.652-2.776 4.767-6.418-3.115zM12.228 11.643c2.714 0 4.914-.998 4.914-2.23 0-1.231-2.2-2.23-4.914-2.23-2.714 0-4.914.999-4.914 2.23 0 1.232 2.2 2.23 4.914 2.23z" fill="#fff"/><path d="M35.04 9.09l-5.438 2.512-.003-5.032 5.44 2.52z" fill="#7A0C00"/><path d="M29.6 6.57l.002 5.032-.589.272-5.434-2.516L29.6 6.57z" fill="#AD2115"/></g><defs><clipPath id="clip0"><path fill="#fff" transform="translate(.5)" d="M0 0h40v40H0z"/></clipPath></defs></svg>