<svg width="53" height="53" viewBox="0 0 53 53" fill="none" xmlns="http://www.w3.org/2000/svg">
<path d="M0.0839844 24.0723C0.0839844 13.1897 0.0839844 7.7484 3.46478 4.36761C6.84557 0.986816 12.2869 0.986816 23.1695 0.986816H28.9409C39.8235 0.986816 45.2648 0.986816 48.6456 4.36761C52.0264 7.7484 52.0264 13.1897 52.0264 24.0723V29.8437C52.0264 40.7263 52.0264 46.1676 48.6456 49.5484C45.2648 52.9292 39.8235 52.9292 28.9409 52.9292H23.1695C12.2869 52.9292 6.84557 52.9292 3.46478 49.5484C0.0839844 46.1676 0.0839844 40.7263 0.0839844 29.8437V24.0723Z" fill="#7BD04E"/>
<path d="M19.9462 36.7203H32.1649C34.2049 36.7203 35.2355 35.7003 35.2355 33.6815V21.399C35.2355 19.3803 34.2049 18.3496 32.1649 18.3496H19.9462C17.9062 18.3496 16.8649 19.3696 16.8649 21.399V33.6815C16.8649 35.7109 17.9062 36.7203 19.9462 36.7203ZM18.3312 33.6071V21.4734C18.3312 20.379 18.9155 19.8265 19.9674 19.8265H32.133C33.1743 19.8265 33.7693 20.379 33.7693 21.4734V33.6071C33.7693 34.4253 33.4293 34.9459 32.8237 35.1584C32.0055 32.6615 29.3068 30.8446 26.0555 30.8446C22.8043 30.8446 20.1055 32.6615 19.2874 35.1584C18.6712 34.9565 18.3312 34.4359 18.3312 33.6071ZM26.0555 29.1765C27.9574 29.1871 29.4662 27.5615 29.4662 25.4259C29.4662 23.4178 27.9574 21.7496 26.0555 21.7496C24.143 21.7496 22.6237 23.4178 22.6343 25.4259C22.6449 27.5615 24.143 29.1553 26.0555 29.1765Z" fill="white"/>
</svg>
