<svg width="39" height="41" viewBox="0 0 39 41" fill="none" xmlns="http://www.w3.org/2000/svg">
<path d="M2.53147 24.9371C1.77925 22.5936 1.56226 20.12 1.99624 17.574C2.18429 16.518 2.47361 15.5054 2.79185 14.4783C2.79185 14.4783 4.78813 7.92529 11.5436 4.93086C11.5436 4.93086 13.8726 3.70127 17.3733 3.61447C17.3733 3.61447 16.896 3.15157 16.5922 2.94905C14.9431 1.84964 12.4839 1.488 10.9939 3.03584C10.5455 3.49875 10.1694 4.00505 9.74988 4.46796C9.27251 4.98873 8.69388 5.4227 8.02845 5.66862C7.44982 5.88561 6.87119 5.84221 6.2781 5.94347C5.67054 6.04473 5.04851 6.26172 4.55667 6.6523C4.02144 7.08627 3.80446 7.66491 3.74659 8.33033C3.68873 8.8511 3.7032 9.38634 3.67426 9.90711C3.60193 11.4405 3.1101 11.8745 2.0107 12.7279C1.5478 13.0751 1.15722 13.538 0.867908 14.0299C-3.68953e-05 15.5632 1.38868 17.1545 1.461 18.7023C1.47547 19.0206 1.44654 19.3388 1.33081 19.6426C1.21509 19.9753 0.983634 20.1923 0.795579 20.4672C0.535196 20.8288 0.361607 21.2628 0.433936 21.7112C0.506264 22.1597 0.737716 22.5792 0.954703 22.9698C1.37421 23.6641 1.89498 24.2861 2.44467 24.8792C2.47361 24.8792 2.50254 24.9082 2.53147 24.9371Z" fill="#E32286"/>
<path d="M30.1321 30.4916C33.4593 29.045 34.8769 26.5424 34.8769 26.5424C37.987 22.3039 36.931 17.834 36.931 17.834C34.9492 22.1448 33.141 23.331 33.141 23.331C38.016 15.9101 33.1699 11.4257 33.1699 11.4257C35.1518 15.6497 32.519 20.7995 32.519 20.7995C30.3057 25.4575 27.1667 27.121 27.1667 27.121C30.6674 27.772 33.2423 25.4141 33.2423 25.4141C28.2227 30.8387 22.7835 30.5783 22.7835 30.5783C25.0691 33.1388 28.4975 32.9218 28.4975 32.9218C24.0131 33.9778 19.8036 32.4878 16.3463 29.6091C15.6953 29.0739 15.0733 28.4953 14.4947 27.8733C14.4947 27.8733 13.9739 27.3236 13.8726 27.1789L13.8582 27.1644C13.7858 29.8406 16.5777 32.3287 16.5777 32.3287C13.077 30.8821 11.4713 27.7431 11.4713 27.7431C11.4713 27.7431 9.1134 23.7216 10.8204 19.136C12.5273 14.5503 17.6916 13.5666 17.6916 13.5666C21.959 15.6352 25.5754 16.2862 25.5754 16.2862C33.1989 17.5592 32.7649 13.827 32.7649 13.827C32.8372 10.6156 27.9912 7.20173 27.9912 7.20173C19.3552 0.793413 11.5436 4.93061 11.5436 4.93061C4.78814 7.92502 2.79187 14.478 2.79187 14.478C2.47362 15.5051 2.18431 16.5177 1.99625 17.5737C1.2585 21.87 2.37236 25.9348 4.78814 29.5513C8.54924 35.164 14.6538 37.1024 14.6538 37.1024C23.6949 40.1691 29.8718 35.6558 29.8718 35.6558C35.5568 31.7501 36.6996 27.2368 36.6996 27.2368C32.1139 30.8243 30.1321 30.4916 30.1321 30.4916ZM23.0729 9.38606C23.5068 9.38606 23.854 9.73323 23.854 10.1672C23.854 10.6012 23.5068 10.9484 23.0729 10.9484C22.6389 10.9484 22.2917 10.6012 22.2917 10.1672C22.2917 9.73323 22.6389 9.38606 23.0729 9.38606Z" fill="url(#paint0_linear)"/>
<path d="M32.7504 13.8128C32.8228 10.6014 27.9767 7.18743 27.9767 7.18743C19.3407 0.793552 11.5292 4.93077 11.5292 4.93077C4.77366 7.92519 2.77739 14.4782 2.77739 14.4782C2.38681 15.5921 2.03964 17.299 2.03964 17.299C1.62013 19.44 1.80818 21.4218 1.80818 21.4218C1.98177 23.3168 2.40128 24.5898 2.40128 24.5898C2.83525 25.9496 3.03777 26.3691 3.03777 26.3691C3.02331 26.3257 2.95098 26.0074 2.95098 26.0074C2.95098 26.0074 2.34342 23.0853 2.90758 20.279C2.90758 20.279 3.39942 17.3569 5.39569 15.1002C5.39569 15.1002 8.63602 10.4856 14.6682 12.2939C14.6682 12.2939 15.9702 12.7568 16.4186 12.9882C16.867 13.2052 17.6482 13.5379 17.6482 13.5379C21.9156 15.6065 25.532 16.2575 25.532 16.2575C33.1844 17.5449 32.7504 13.8128 32.7504 13.8128ZM23.0728 10.963C22.6389 10.963 22.2917 10.6158 22.2917 10.1819C22.2917 9.74788 22.6389 9.4007 23.0728 9.4007C23.5068 9.4007 23.854 9.74788 23.854 10.1819C23.854 10.6158 23.5068 10.963 23.0728 10.963Z" fill="url(#paint1_radial)"/>
<path d="M18.1256 7.99767L13.1928 6.46428C13.1638 6.46428 13.0192 6.39195 12.7588 6.46428C12.7588 6.46428 9.85118 7.20204 10.3575 8.79329C10.3575 8.79329 10.6613 9.79145 11.4858 10.7607L16.9105 10.5003L18.1256 7.99767Z" fill="url(#paint2_linear)"/>
<defs>
<linearGradient id="paint0_linear" x1="5.98822" y1="35.41" x2="23.9888" y2="16.2606" gradientUnits="userSpaceOnUse">
<stop stop-color="#E01D84"/>
<stop offset="0.401" stop-color="#DF1D85"/>
<stop offset="0.77" stop-color="#932C87"/>
<stop offset="1" stop-color="#5D2F88"/>
</linearGradient>
<radialGradient id="paint1_radial" cx="0" cy="0" r="1" gradientUnits="userSpaceOnUse" gradientTransform="translate(25.8004 11.1805) rotate(0.136937) scale(17.5878 14.707)">
<stop stop-color="#E01D84"/>
<stop offset="0.139" stop-color="#DE1E85"/>
<stop offset="0.285" stop-color="#D62085"/>
<stop offset="0.434" stop-color="#C92386"/>
<stop offset="0.586" stop-color="#B72786"/>
<stop offset="0.739" stop-color="#9D2B87"/>
<stop offset="0.891" stop-color="#7C2E88"/>
<stop offset="1" stop-color="#5D2F88"/>
</radialGradient>
<linearGradient id="paint2_linear" x1="10.2869" y1="8.59598" x2="18.1214" y2="8.59598" gradientUnits="userSpaceOnUse">
<stop stop-color="#E01D84"/>
<stop offset="0.238" stop-color="#DA1E85"/>
<stop offset="0.658" stop-color="#C72085"/>
<stop offset="0.999" stop-color="#B52284"/>
</linearGradient>
</defs>
</svg>
