<svg width="26" height="26" viewBox="0 0 26 26" fill="none" xmlns="http://www.w3.org/2000/svg">
<g clip-path="url(#clip0)">
<path d="M22.3741 13.8011C21.4676 13.8058 20.6797 14.0241 20.02 14.3469C19.7779 13.8675 19.5359 13.4403 19.4932 13.1271C19.4457 12.7616 19.3887 12.5385 19.4457 12.1019C19.5026 11.6652 19.7589 11.0435 19.7542 10.996C19.7494 10.9486 19.6972 10.7255 19.1752 10.7207C18.6531 10.716 18.2022 10.8204 18.15 10.958C18.0977 11.0957 17.9981 11.4089 17.9316 11.7317C17.8415 12.2063 16.8875 13.9007 16.3416 14.7883C16.166 14.4418 16.0141 14.138 15.9809 13.896C15.9335 13.5305 15.8765 13.3074 15.9335 12.8708C15.9904 12.4341 16.2467 11.8124 16.242 11.7649C16.2372 11.7174 16.185 11.4944 15.6629 11.4896C15.1408 11.4849 14.6899 11.5893 14.6377 11.7269C14.5855 11.8646 14.5286 12.1873 14.4194 12.5006C14.3102 12.8138 13.043 15.6426 12.7107 16.3735C12.5399 16.7485 12.3927 17.0475 12.2883 17.2516C12.2883 17.2516 12.2836 17.2658 12.2693 17.2896C12.1792 17.4652 12.127 17.5601 12.127 17.5601C12.127 17.5601 12.127 17.5601 12.127 17.5648C12.0558 17.693 11.9798 17.8116 11.9419 17.8116C11.9134 17.8116 11.8612 17.4699 11.9513 17.0048C12.1412 16.0223 12.5921 14.494 12.5873 14.4418C12.5873 14.4133 12.6728 14.1475 12.2931 14.0099C11.9229 13.8722 11.79 14.1001 11.7567 14.1001C11.7235 14.1001 11.6998 14.1808 11.6998 14.1808C11.6998 14.1808 12.1127 12.4626 10.9119 12.4626C10.162 12.4626 9.12732 13.2837 8.61473 14.0241C8.29198 14.1997 7.60377 14.5747 6.8681 14.9781C6.58807 15.1348 6.29855 15.2914 6.02802 15.4385C6.00903 15.4195 5.99005 15.3958 5.97106 15.3768C4.51871 13.8248 1.83232 12.7284 1.94623 10.6448C1.98895 9.88539 2.24999 7.89196 7.10542 5.47137C11.1018 3.50167 14.2818 4.04749 14.8323 5.25779C15.6202 6.98543 13.1284 10.1939 8.99917 10.659C7.42342 10.8346 6.59757 10.2271 6.38873 9.9993C6.1704 9.76199 6.13718 9.74775 6.05649 9.79521C5.9236 9.86641 6.00903 10.08 6.05649 10.2034C6.1799 10.5261 6.68775 11.0957 7.54682 11.3757C8.30622 11.6225 10.1525 11.7602 12.388 10.8963C14.8893 9.92811 16.8447 7.23698 16.2704 4.98251C15.6961 2.69481 11.8991 1.94015 8.30622 3.2169C6.1704 3.9763 3.85423 5.17236 2.18829 6.72913C0.209103 8.58017 -0.10415 10.1892 0.0239992 10.8631C0.484386 13.2552 3.78304 14.812 5.1025 15.9653C5.03605 16.0033 4.97435 16.0365 4.92214 16.065C4.26241 16.3925 1.74689 17.7072 1.12038 19.0979C0.408446 20.6736 1.2343 21.8032 1.78011 21.9551C3.47453 22.425 5.21641 21.5802 6.15142 20.1848C7.08643 18.7894 6.97252 16.9763 6.54061 16.1457C6.53587 16.1362 6.53112 16.1267 6.52163 16.1172C6.69249 16.0176 6.8681 15.9131 7.03897 15.8135C7.37595 15.6141 7.70819 15.429 7.99297 15.2771C7.83159 15.7185 7.71294 16.2454 7.65598 17.0048C7.58479 17.8971 7.95025 19.0552 8.42962 19.5108C8.6432 19.7101 8.89476 19.7149 9.05613 19.7149C9.61619 19.7149 9.86774 19.2498 10.1478 18.6992C10.4895 18.0252 10.798 17.2421 10.798 17.2421C10.798 17.2421 10.4136 19.3589 11.4577 19.3589C11.8374 19.3589 12.2219 18.8653 12.3927 18.6138C12.3927 18.6185 12.3927 18.6185 12.3927 18.6185C12.3927 18.6185 12.4022 18.6043 12.4212 18.571C12.4592 18.5093 12.4829 18.4714 12.4829 18.4714C12.4829 18.4714 12.4829 18.4666 12.4829 18.4619C12.6348 18.1961 12.9765 17.5933 13.4844 16.5919C14.1394 15.3009 14.7706 13.6871 14.7706 13.6871C14.7706 13.6871 14.8276 14.0811 15.0222 14.7361C15.1361 15.1205 15.3734 15.5429 15.5632 15.9511C15.4114 16.1647 15.3164 16.2833 15.3164 16.2833C15.3164 16.2833 15.3164 16.2833 15.3212 16.2881C15.1978 16.4495 15.0649 16.6251 14.9178 16.7959C14.4004 17.413 13.7834 18.1201 13.698 18.3242C13.5983 18.5663 13.622 18.7419 13.8119 18.8843C13.9495 18.9887 14.1963 19.003 14.4479 18.9887C14.913 18.9555 15.2405 18.8416 15.4019 18.7704C15.6534 18.6802 15.9477 18.5426 16.223 18.3385C16.7308 17.9635 17.0393 17.4272 17.0109 16.72C16.9966 16.3308 16.8685 15.9416 16.7118 15.5762C16.7593 15.5097 16.802 15.4433 16.8495 15.3768C17.6516 14.2045 18.2734 12.9183 18.2734 12.9183C18.2734 12.9183 18.3303 13.3122 18.5249 13.9672C18.6198 14.2994 18.8144 14.6601 18.9853 15.0113C18.2306 15.6236 17.7655 16.3356 17.5994 16.8007C17.3004 17.6645 17.5329 18.0537 17.9743 18.1439C18.1737 18.1866 18.4585 18.0917 18.6673 18.0015C18.9331 17.9161 19.2463 17.7689 19.5454 17.5506C20.0532 17.1756 20.5421 16.6536 20.5136 15.9464C20.4994 15.6236 20.4139 15.3056 20.2953 14.9971C20.936 14.7313 21.7619 14.5842 22.8155 14.7076C25.0748 14.9734 25.5209 16.383 25.4355 16.9763C25.35 17.5696 24.8754 17.8923 24.7188 17.992C24.5622 18.0917 24.5099 18.1249 24.5242 18.1961C24.5432 18.3005 24.6191 18.2958 24.752 18.2768C24.9371 18.2436 25.9386 17.7974 25.9813 16.7058C26.0525 15.3104 24.7235 13.7868 22.3741 13.8011ZM4.94587 19.6769C4.19596 20.4933 3.15178 20.8018 2.70089 20.5407C2.21677 20.2607 2.40662 19.0552 3.32739 18.1913C3.88745 17.6645 4.60888 17.1756 5.08826 16.8766C5.19742 16.8102 5.35879 16.7153 5.55339 16.5966C5.58661 16.5776 5.6056 16.5681 5.6056 16.5681C5.64357 16.5444 5.68154 16.5207 5.71951 16.4969C6.05649 17.731 5.73375 18.8178 4.94587 19.6769ZM10.4041 15.9653C10.143 16.6013 9.5972 18.2293 9.26496 18.1391C8.98019 18.0632 8.80458 16.8292 9.20801 15.6094C9.4121 14.9971 9.84401 14.2662 10.0956 13.9814C10.5037 13.5258 10.9546 13.3739 11.0638 13.559C11.2014 13.8011 10.5654 15.5667 10.4041 15.9653ZM14.9083 18.1201C14.7991 18.1771 14.6947 18.2151 14.6472 18.1866C14.614 18.1676 14.6947 18.0917 14.6947 18.0917C14.6947 18.0917 15.2595 17.4841 15.4826 17.2089C15.6107 17.0475 15.7626 16.8576 15.924 16.6441C15.924 16.663 15.924 16.6868 15.924 16.7058C15.924 17.4319 15.2215 17.9208 14.9083 18.1201ZM18.3825 17.3275C18.3018 17.2706 18.3161 17.0807 18.5866 16.4874C18.691 16.2549 18.9378 15.8657 19.3603 15.4907C19.4077 15.6426 19.4409 15.7897 19.4362 15.9274C19.4314 16.8434 18.7765 17.1851 18.3825 17.3275Z" fill="#C16D97"/>
</g>
<defs>
<clipPath id="clip0">
<rect width="26" height="26" fill="white"/>
</clipPath>
</defs>
</svg>
