<svg width="26" height="26" viewBox="0 0 26 26" fill="none" xmlns="http://www.w3.org/2000/svg">
<path fill-rule="evenodd" clip-rule="evenodd" d="M1.68164 15.715L10.9756 24.5442L24.7437 18.1191L12.9408 12.6003L1.68164 15.715Z" fill="#AFAFDE" stroke="black" stroke-width="0.339962" stroke-linejoin="round"/>
<path fill-rule="evenodd" clip-rule="evenodd" d="M1.25586 3.58634L1.68117 15.715L12.9403 12.6003L12.5841 2.44263L1.25586 3.58634Z" fill="#353564" stroke="black" stroke-width="0.339962" stroke-linejoin="round"/>
<path fill-rule="evenodd" clip-rule="evenodd" d="M12.584 2.44263L24.24 3.77352L24.7431 18.119L12.9402 12.6003L12.584 2.44263Z" fill="#E9E9FF" stroke="black" stroke-width="0.339962" stroke-linejoin="round"/>
<path fill-rule="evenodd" clip-rule="evenodd" d="M1.25586 3.58634L10.3222 5.92565L24.2402 3.77352L12.5841 2.44263L1.25586 3.58634Z" fill="#19AEFF"/>
<path fill-rule="evenodd" clip-rule="evenodd" d="M12.5712 2.31049C12.5807 2.30953 12.5903 2.30959 12.5997 2.31068L24.2558 3.64157C24.3221 3.64914 24.3726 3.70462 24.374 3.77137C24.3753 3.83812 24.327 3.89556 24.261 3.90577L10.3431 6.0579C10.3252 6.06066 10.3069 6.05976 10.2894 6.05523L1.22306 3.71593C1.16051 3.69979 1.11853 3.64114 1.12343 3.57673C1.12834 3.51232 1.17871 3.46069 1.24297 3.4542L12.5712 2.31049ZM2.01315 3.64443L10.3294 5.79021L23.2397 3.7939L12.5837 2.57721L2.01315 3.64443Z" fill="black"/>
<path fill-rule="evenodd" clip-rule="evenodd" d="M10.3232 5.92532L10.9761 24.5439L24.7443 18.1187L24.2412 3.77319L10.3232 5.92532Z" fill="#0084C8"/>
<path fill-rule="evenodd" clip-rule="evenodd" d="M24.3257 3.67098C24.3551 3.69526 24.3726 3.73095 24.374 3.76902L24.877 18.1146C24.8789 18.168 24.8486 18.2174 24.8002 18.24L11.032 24.6652C10.9915 24.6841 10.9442 24.6814 10.906 24.658C10.8679 24.6347 10.844 24.5937 10.8424 24.549L10.1895 5.9305C10.1872 5.863 10.2357 5.8044 10.3024 5.79408L24.2204 3.64195C24.258 3.63613 24.2964 3.64669 24.3257 3.67098ZM10.4601 6.03948L11.1018 24.3384L24.6075 18.0357L24.1128 3.92838L10.4601 6.03948Z" fill="black"/>
<path fill-rule="evenodd" clip-rule="evenodd" d="M1.25586 3.58594L10.3222 5.92524L10.9751 24.5438L1.68117 15.7146L1.25586 3.58594Z" fill="#19AEFF"/>
<path fill-rule="evenodd" clip-rule="evenodd" d="M1.17288 3.48226C1.20566 3.45592 1.24895 3.4466 1.28967 3.45711L10.356 5.79642C10.4132 5.81117 10.4539 5.8618 10.4559 5.92083L11.1088 24.5394C11.1107 24.5935 11.0797 24.6434 11.0303 24.6656C10.9809 24.6878 10.923 24.678 10.8838 24.6407L1.58985 15.8115C1.56454 15.7874 1.54967 15.7544 1.54844 15.7195L1.12313 3.59087C1.12166 3.54884 1.1401 3.50859 1.17288 3.48226ZM1.39585 3.75987L1.813 15.6557L10.8309 24.2227L10.193 6.02971L1.39585 3.75987Z" fill="black"/>
<path fill-rule="evenodd" clip-rule="evenodd" d="M2.37126 7.24415C2.37131 7.24406 2.37135 7.24397 2.19148 7.1566C2.0116 7.06923 2.01166 7.06911 2.01172 7.06899L2.01187 7.06869L2.01224 7.06793L2.01332 7.06575C2.01419 7.064 2.01535 7.06168 2.01681 7.05882C2.01974 7.05309 2.02385 7.04517 2.02916 7.03529C2.03978 7.01554 2.0552 6.98789 2.07547 6.95418C2.11594 6.88689 2.17613 6.79476 2.25638 6.69283C2.41569 6.49049 2.66069 6.24114 2.99548 6.07617C3.33498 5.90888 3.75976 5.83226 4.26184 5.96951C4.75887 6.10539 5.31705 6.44672 5.93907 7.08652C6.08864 7.24036 6.23234 7.39604 6.36996 7.54543L6.38623 7.56309C6.51858 7.70677 6.64493 7.84393 6.76825 7.97107C7.0278 8.23864 7.25859 8.4452 7.47603 8.56157C7.68514 8.67349 7.865 8.69389 8.04683 8.6162C8.2428 8.53246 8.47538 8.32074 8.74442 7.88354L9.08504 8.09314C8.79959 8.557 8.51249 8.85215 8.20397 8.98397C7.88132 9.12184 7.57189 9.06649 7.28731 8.91419C7.01106 8.76635 6.74375 8.52023 6.48117 8.24953C6.35415 8.11858 6.22463 7.97796 6.09341 7.83551L6.07581 7.81641C5.93791 7.66672 5.79763 7.51477 5.65232 7.36531C5.06139 6.75749 4.56256 6.46635 4.15637 6.3553C3.75523 6.24563 3.43058 6.30763 3.17226 6.43492C2.90924 6.56452 2.70804 6.7657 2.57061 6.94024C2.50249 7.02676 2.45167 7.10466 2.41822 7.16028C2.40153 7.18804 2.38927 7.21007 2.38144 7.22463C2.37753 7.23191 2.37474 7.23731 2.37305 7.24061C2.37221 7.24226 2.37165 7.24338 2.37136 7.24395L2.3712 7.24428L2.37126 7.24415Z" fill="black"/>
<path fill-rule="evenodd" clip-rule="evenodd" d="M2.37029 8.84401C2.37033 8.84392 2.37038 8.84382 2.1905 8.75645C2.01063 8.66908 2.01068 8.66897 2.01074 8.66884L2.01089 8.66855L2.01126 8.66778L2.01234 8.6656C2.01321 8.66386 2.01438 8.66154 2.01584 8.65867C2.01876 8.65294 2.02288 8.64503 2.02819 8.63515C2.0388 8.6154 2.05423 8.58774 2.0745 8.55404C2.11496 8.48674 2.17515 8.39461 2.2554 8.29269C2.41471 8.09035 2.65971 7.84099 2.9945 7.67602C3.334 7.50873 3.75878 7.43211 4.26086 7.56937C4.75789 7.70525 5.31607 8.04657 5.9381 8.68637C6.08767 8.84021 6.23136 8.99589 6.36899 9.14529L6.38525 9.16294C6.51761 9.30663 6.64395 9.44378 6.76727 9.57092C7.02682 9.8385 7.25761 10.0451 7.47505 10.1614C7.68416 10.2733 7.86402 10.2937 8.04585 10.2161C8.24182 10.1323 8.4744 9.92059 8.74345 9.48339L9.08406 9.693C8.79861 10.1569 8.51151 10.452 8.203 10.5838C7.88034 10.7217 7.57092 10.6663 7.28634 10.514C7.01009 10.3662 6.74277 10.1201 6.4802 9.84938C6.35318 9.71843 6.22365 9.57782 6.09243 9.43536L6.07484 9.41626C5.93694 9.26657 5.79666 9.11463 5.65134 8.96516C5.06041 8.35735 4.56159 8.0662 4.15539 7.95515C3.75425 7.84549 3.4296 7.90749 3.17128 8.03477C2.90826 8.16438 2.70706 8.36555 2.56963 8.5401C2.50151 8.62661 2.45069 8.70451 2.41724 8.76014C2.40056 8.78789 2.3883 8.80992 2.38047 8.82449C2.37656 8.83177 2.37376 8.83717 2.37208 8.84047C2.37123 8.84211 2.37067 8.84324 2.37039 8.84381L2.37022 8.84414L2.37029 8.84401Z" fill="black"/>
<path fill-rule="evenodd" clip-rule="evenodd" d="M2.37029 10.4436C2.37033 10.4435 2.37038 10.4434 2.1905 10.3561C2.01063 10.2687 2.01068 10.2686 2.01074 10.2685L2.01089 10.2682L2.01126 10.2674L2.01234 10.2652C2.01321 10.2635 2.01438 10.2611 2.01584 10.2583C2.01876 10.2526 2.02288 10.2446 2.02819 10.2348C2.0388 10.215 2.05423 10.1874 2.0745 10.1536C2.11496 10.0864 2.17515 9.99422 2.2554 9.89229C2.41471 9.68996 2.65971 9.4406 2.9945 9.27563C3.334 9.10834 3.75878 9.03172 4.26086 9.16898C4.75789 9.30486 5.31607 9.64618 5.9381 10.286C6.08767 10.4398 6.23136 10.5955 6.36899 10.7449L6.38525 10.7625C6.51761 10.9062 6.64395 11.0434 6.76727 11.1705C7.02682 11.4381 7.25761 11.6447 7.47505 11.761C7.68416 11.873 7.86402 11.8934 8.04585 11.8157C8.24182 11.7319 8.4744 11.5202 8.74345 11.083L9.08406 11.2926C8.79861 11.7565 8.51151 12.0516 8.203 12.1834C7.88034 12.3213 7.57092 12.266 7.28634 12.1137C7.01009 11.9658 6.74277 11.7197 6.4802 11.449C6.35318 11.318 6.22365 11.1774 6.09243 11.035L6.07484 11.0159C5.93694 10.8662 5.79666 10.7142 5.65134 10.5648C5.06041 9.95696 4.56159 9.66581 4.15539 9.55476C3.75425 9.4451 3.4296 9.5071 3.17128 9.63438C2.90826 9.76399 2.70706 9.96516 2.56963 10.1397C2.50151 10.2262 2.45069 10.3041 2.41724 10.3597C2.40056 10.3875 2.3883 10.4095 2.38047 10.4241C2.37656 10.4314 2.37376 10.4368 2.37208 10.4401C2.37123 10.4417 2.37067 10.4428 2.37039 10.4434L2.37022 10.4437L2.37029 10.4436Z" fill="black"/>
</svg>
