<svg width="26" height="26" viewBox="0 0 26 26" fill="none" xmlns="http://www.w3.org/2000/svg">
<rect width="26" height="26" fill="#635D9B"/>
<path d="M7.58297 23.7335C6.57488 23.768 5.57204 23.5591 4.6214 23.1042C4.12238 22.8655 3.66722 22.5592 3.24078 22.2058C3.03492 22.0352 3.04426 21.9028 3.18306 21.7148C3.49772 21.2886 3.80092 20.8537 4.10894 20.4224C4.22241 20.2636 4.37083 20.2428 4.51627 20.375C4.96719 20.7845 5.47498 21.1018 6.04078 21.325C6.60926 21.5493 7.2011 21.6571 7.81104 21.6583C8.24484 21.6591 8.67113 21.6044 9.06517 21.4071C9.35493 21.2621 9.58951 21.0567 9.70454 20.7412C9.83513 20.3825 9.72845 20.016 9.4302 19.7774C9.19265 19.5875 8.9159 19.4775 8.63166 19.3846C8.15145 19.2278 7.65866 19.1186 7.16799 19.0013C6.51235 18.8446 5.86166 18.6729 5.24535 18.3922C4.8066 18.1925 4.40478 17.9389 4.07328 17.5834C3.72707 17.2122 3.51555 16.7729 3.41863 16.2762C3.36189 15.9851 3.34661 15.6904 3.36486 15.3955C3.39146 14.9676 3.50847 14.5629 3.70641 14.1822C3.9509 13.712 4.30178 13.3371 4.73274 13.0346C5.2029 12.7046 5.72512 12.4959 6.28258 12.3701C6.88714 12.2334 7.49992 12.2129 8.11608 12.2402C8.92184 12.2761 9.68884 12.4718 10.4209 12.8078C10.8892 13.0227 11.322 13.296 11.7244 13.6174C11.8241 13.6971 11.8362 13.8425 11.7525 13.9537C11.4976 14.2927 11.2419 14.6311 10.9864 14.9697C10.9083 15.0732 10.8301 15.1765 10.752 15.28C10.6294 15.4425 10.4957 15.46 10.3356 15.3343C9.85296 14.9557 9.31843 14.6786 8.73056 14.5031C8.1881 14.3412 7.63404 14.2749 7.07037 14.3139C6.72415 14.3378 6.38911 14.419 6.11209 14.6451C5.80959 14.8919 5.68353 15.2125 5.76813 15.6001C5.80775 15.7811 5.93197 15.9085 6.07884 16.0145C6.3386 16.2022 6.63728 16.3022 6.93878 16.3925C7.5326 16.5702 8.14141 16.6891 8.74003 16.8483C9.31178 17.0004 9.87673 17.1743 10.4062 17.4448C10.8837 17.6887 11.3077 17.9997 11.6249 18.4414C11.8553 18.7621 12.0048 19.1181 12.0719 19.5052C12.1958 20.2197 12.1395 20.9181 11.8527 21.5899C11.568 22.2569 11.0915 22.7503 10.467 23.1048C10.0028 23.3683 9.50066 23.5249 8.97745 23.6215C8.53134 23.7037 8.08071 23.7272 7.58297 23.7335Z" fill="#FFFFFE"/>
<path d="M18.5435 20.0937C17.5908 20.0937 16.6379 20.0937 15.6852 20.0937C15.54 20.0937 15.5228 20.1127 15.5576 20.2543C15.7653 21.1012 16.2847 21.6587 17.1177 21.9254C17.4177 22.0215 17.7255 22.0226 18.034 22.0025C18.6678 21.9614 19.2539 21.7706 19.7903 21.4302C19.836 21.4012 19.8803 21.3703 19.9249 21.3397C20.0457 21.257 20.1649 21.2747 20.2502 21.3957C20.3801 21.5801 20.5057 21.7675 20.6329 21.9538C20.7364 22.1051 20.8404 22.2559 20.9427 22.4079C21.0242 22.5291 21.0037 22.6493 20.8854 22.7335C20.2491 23.1866 19.5473 23.4851 18.7791 23.6346C18.2544 23.7369 17.724 23.7526 17.1953 23.7255C16.2706 23.678 15.4481 23.3495 14.7355 22.7548C14.0436 22.1774 13.5932 21.4486 13.3671 20.5798C13.2745 20.2231 13.2377 19.8595 13.2415 19.4913C13.2446 19.1998 13.2422 18.9081 13.2897 18.619C13.3957 17.9752 13.6301 17.3825 14.0098 16.8507C14.6465 15.9593 15.5059 15.4004 16.5745 15.1614C17.0079 15.0645 17.4473 15.0554 17.889 15.0866C18.4618 15.127 19.0043 15.2743 19.5107 15.5449C20.0234 15.8191 20.4496 16.1935 20.7893 16.6654C21.1995 17.2355 21.4447 17.8726 21.5685 18.5607C21.6467 18.9954 21.6633 19.4341 21.6671 19.874C21.6683 20.0021 21.586 20.0851 21.458 20.0926C21.4321 20.0942 21.4062 20.0935 21.3801 20.0935C20.4349 20.0937 19.4891 20.0937 18.5435 20.0937ZM17.5363 18.6228C18.1681 18.6228 18.7997 18.6228 19.4314 18.6228C19.4526 18.6228 19.474 18.6238 19.4949 18.622C19.5499 18.6172 19.5752 18.5873 19.5664 18.532C19.5545 18.458 19.5462 18.383 19.529 18.3101C19.3629 17.5995 18.9321 17.1247 18.2431 16.8845C17.995 16.798 17.7367 16.7945 17.4766 16.7972C17.0103 16.802 16.5942 16.944 16.2319 17.2352C15.8343 17.555 15.5982 17.9708 15.5141 18.4728C15.4925 18.6018 15.5116 18.6227 15.6412 18.6227C16.273 18.6228 16.9047 18.6228 17.5363 18.6228Z" fill="#FFFFFE"/>
<path d="M17.2357 6.57349C17.2357 7.42466 16.5457 8.11467 15.6945 8.11467C14.8433 8.11467 14.1533 7.42466 14.1533 6.57349C14.1533 5.72232 14.8433 5.03231 15.6945 5.03231C16.5457 5.03231 17.2357 5.72232 17.2357 6.57349Z" fill="#F5F7F9"/>
<path d="M23.4004 3.49113C23.4004 4.3423 22.7104 5.03231 21.8592 5.03231C21.008 5.03231 20.318 4.3423 20.318 3.49113C20.318 2.63996 21.008 1.94995 21.8592 1.94995C22.7104 1.94995 23.4004 2.63996 23.4004 3.49113Z" fill="#F5F7F9"/>
<path d="M23.4004 9.65585C23.4004 10.507 22.7104 11.197 21.8592 11.197C21.008 11.197 20.318 10.507 20.318 9.65585C20.318 8.80468 21.008 8.11467 21.8592 8.11467C22.7104 8.11467 23.4004 8.80468 23.4004 9.65585Z" fill="#F5F7F9"/>
<path fill-rule="evenodd" clip-rule="evenodd" d="M18.2894 4.79113C18.2894 3.80392 19.0896 3.00363 20.0769 3.00363H21.8592V3.97863H20.0769C19.6281 3.97863 19.2644 4.3424 19.2644 4.79113V8.35585C19.2644 8.80458 19.6281 9.16835 20.0769 9.16835H21.8592V10.1434H20.0769C19.0897 10.1434 18.2894 9.34306 18.2894 8.35585V7.06099H15.6945V6.08599H18.2894V4.79113Z" fill="#F5F7F9"/>
</svg>
