<svg fill="none" xmlns="http://www.w3.org/2000/svg" viewBox="0 0 41 40"><g clip-path="url(#clip0)"><path d="M39.753 31.615c.903 1.6.991 3.285.24 4.617-.75 1.333-2.217 2.095-4.027 2.095h-3.408c.04-.65.066-1.303.066-1.962 0-.738-.033-1.466-.083-2.191l2.243-.004c.55 0 .997-.456.997-1.02 0-.17-.041-.336-.12-.486L21.371 7.32a.988.988 0 00-1.359-.383.992.992 0 00-.361.36l-2.268 4.023c6.896 5.304 11.533 13.522 12.166 22.85.05.725.084 1.454.084 2.194 0 .658-.029 1.311-.067 1.96H18.433a20.202 20.202 0 00-.025-4.154 20.067 20.067 0 00-6.642-12.895l-1.562 2.77a16.91 16.91 0 015.119 10.125c.093.719.145 1.45.145 2.194 0 .661-.044 1.316-.117 1.96H5.033c-1.81 0-3.277-.764-4.027-2.095-.75-1.334-.663-3.015.24-4.617l2.118-3.705a12.446 12.446 0 013.237 2.558L5.34 32.66a1.029 1.029 0 00.172 1.209c.187.191.44.3.705.3h5.005a12.74 12.74 0 00-3.112-6.405A12.505 12.505 0 004.866 25.2l5.59-9.906a23.66 23.66 0 013.368 2.33 24.23 24.23 0 018.66 16.545h2.995A27.304 27.304 0 0015.334 14.95a26.715 26.715 0 00-3.385-2.306l4.772-8.455c.9-1.602 2.282-2.522 3.783-2.522 1.502 0 2.882.92 3.785 2.523l15.464 27.425z" fill="#35495E"/></g><defs><clipPath id="clip0"><path fill="#fff" transform="translate(.5)" d="M0 0h40v40H0z"/></clipPath></defs></svg>