<svg width="26" height="24" viewBox="0 0 26 24" fill="none" xmlns="http://www.w3.org/2000/svg">
<path d="M25.5143 19.5497C26.1014 20.5897 26.1588 21.6849 25.6703 22.5505C25.1828 23.4172 24.2294 23.9123 23.0529 23.9123H20.8375C20.8635 23.4898 20.8808 23.0651 20.8808 22.6372C20.8808 22.1573 20.8592 21.6838 20.8267 21.2126L22.2848 21.2104C22.6423 21.2104 22.9327 20.9136 22.9327 20.5474C22.9327 20.4372 22.9059 20.3287 22.8547 20.2311L13.5662 3.75792C13.5111 3.6565 13.4297 3.57179 13.3306 3.5127C13.2315 3.4536 13.1183 3.4223 13.0028 3.42209C12.8905 3.42254 12.7801 3.45238 12.6829 3.50863C12.5856 3.56487 12.5047 3.64559 12.4482 3.74275L10.9738 6.35792C15.4566 9.80509 18.4704 15.147 18.8821 21.2104C18.9146 21.6817 18.9363 22.1551 18.9363 22.6361C18.9363 23.064 18.9178 23.4887 18.8929 23.9101H11.6563C11.7436 23.012 11.7382 22.1074 11.64 21.2104C11.2964 17.976 9.75672 14.9866 7.32293 12.8287L6.30785 14.6292C8.1416 16.3744 9.31675 18.699 9.63476 21.2104C9.69543 21.6773 9.72901 22.1529 9.72901 22.6361C9.72901 23.0662 9.70085 23.4919 9.65318 23.9101H2.94626C1.76976 23.9101 0.816431 23.4139 0.328931 22.5483C-0.158568 21.6817 -0.102235 20.5886 0.484931 19.5475L1.86185 17.1393C2.65076 17.5726 3.36181 18.1347 3.96568 18.8022L3.1456 20.2289C3.07789 20.3546 3.05219 20.4986 3.07227 20.64C3.09235 20.7813 3.15715 20.9125 3.25718 21.0143C3.37851 21.1389 3.54318 21.2093 3.71543 21.2093H6.96868C6.70385 19.6576 6.00225 18.2134 4.9461 17.0461C4.34068 16.3776 3.62822 15.8145 2.83793 15.3799L6.47143 8.94059C7.24276 9.38042 7.9751 9.88742 8.66085 10.4551C10.2638 11.7862 11.5867 13.4222 12.5529 15.2682C13.5192 17.1142 14.1095 19.1336 14.2898 21.2093H16.2366C16.0511 18.7866 15.3701 16.4279 14.2358 14.2791C13.1015 12.1303 11.538 10.2373 9.64235 8.71742C8.94838 8.16207 8.2128 7.66082 7.4421 7.21809L10.5437 1.72234C11.1287 0.681252 12.0268 0.083252 13.0028 0.083252C13.9789 0.083252 14.8759 0.681252 15.4631 1.72342L25.5143 19.5497Z" fill="#D7DDE1"/>
</svg>
