<svg width="26" height="26" viewBox="0 0 26 26" fill="none" xmlns="http://www.w3.org/2000/svg">
<path d="M25.237 12.2722L14.0799 1.08411L12.9988 0L4.60004 8.42214L0.759483 12.2722C0.567649 12.4656 0.459961 12.7272 0.459961 13C0.459961 13.2728 0.567649 13.5344 0.759483 13.7278L8.4325 21.4221L12.9988 26L21.3964 17.5779L21.5272 17.4479L25.237 13.7336C25.3331 13.6379 25.4094 13.524 25.4615 13.3986C25.5135 13.2732 25.5403 13.1387 25.5403 13.0029C25.5403 12.8671 25.5135 12.7326 25.4615 12.6072C25.4094 12.4818 25.3331 12.3679 25.237 12.2722ZM12.9988 16.8443L9.16519 13L12.9988 9.15571L16.8313 13L12.9988 16.8443Z" fill="#2684FF"/>
<path d="M12.9991 9.15563C11.7935 7.94688 11.1138 6.3088 11.1086 4.59918C11.1034 2.88957 11.7731 1.24736 12.9714 0.03125L4.58301 8.43946L9.14816 13.0173L12.9991 9.15563Z" fill="url(#paint0_linear)"/>
<path d="M16.8419 12.9895L12.999 16.8442C14.2093 18.0582 14.8891 19.7044 14.8891 21.4209C14.8891 23.1375 14.2093 24.7837 12.999 25.9976L21.4105 17.5674L16.8419 12.9895Z" fill="url(#paint1_linear)"/>
<defs>
<linearGradient id="paint0_linear" x1="12.3127" y1="5.26607" x2="6.94446" y2="10.6183" gradientUnits="userSpaceOnUse">
<stop offset="0.18" stop-color="#0052CC"/>
<stop offset="1" stop-color="#2684FF"/>
</linearGradient>
<linearGradient id="paint1_linear" x1="977.377" y1="1128.7" x2="1524.91" y2="1482.68" gradientUnits="userSpaceOnUse">
<stop offset="0.18" stop-color="#0052CC"/>
<stop offset="1" stop-color="#2684FF"/>
</linearGradient>
</defs>
</svg>
