<svg fill="none" xmlns="http://www.w3.org/2000/svg" viewBox="0 0 143 64">
  <path d="M28 13a10 10 0 017.5 3l-.5 1-.6.3c-.2 0-.4-.1-.7-.4a9.2 9.2 0 00-3-1.7 8 8 0 00-2.7-.4c-1.1 0-2 .1-2.9.5a6 6 0 00-2 1.2 5.8 5.8 0 00-1.7 4c0 1.1.2 2 .6 2.6.4.7 1 1.2 1.7 1.7l2.4 1.2a124.4 124.4 0 005.5 2c.9.3 1.7.8 2.4 1.3.7.6 1.2 1.3 1.7 2a9.7 9.7 0 010 6.6 8.2 8.2 0 01-4.9 4.9c-1.2.5-2.5.7-4 .7-2 0-3.7-.3-5-1a12 12 0 01-3.8-2.9l.6-1 .6-.2a96.3 96.3 0 012.2 1.7 8.3 8.3 0 003.1 1.4 9.4 9.4 0 005.5-.3c.9-.4 1.7-.9 2.3-1.5.7-.6 1.1-1.3 1.5-2.2.3-.8.5-1.8.5-2.7 0-1-.2-2-.7-2.6-.4-.7-1-1.3-1.7-1.7-.7-.5-1.4-.9-2.3-1.2a97 97 0 00-5.5-1.9c-1-.3-1.7-.8-2.4-1.4A6.4 6.4 0 0120 24a7 7 0 01-.6-3.2 7.6 7.6 0 012.2-5.3c.7-.8 1.6-1.3 2.7-1.8 1-.4 2.3-.6 3.7-.6zm50.4 0c1.7 0 3.2.4 4.6.9 1.3.5 2.5 1.3 3.5 2.3l-1 1.9c0 .2-.2.3-.3.4l-.6.2c-.2 0-.5-.1-.8-.4a13 13 0 00-2.9-1.5c-.6-.3-1.5-.4-2.4-.4-1 0-1.7.2-2.4.4a5 5 0 00-1.7 1 4 4 0 00-1 1.4c-.3.6-.4 1.2-.4 1.9 0 .8.2 1.5.6 2 .4.6 1 1 1.6 1.4l2.3 1a392.3 392.3 0 015.2 2c.8.3 1.6.8 2.3 1.4a6.6 6.6 0 012.2 5.2 10 10 0 01-.7 3.7 8.4 8.4 0 01-5 5c-1.3.5-2.7.7-4.2.7a12.8 12.8 0 01-9.3-3.9l1.1-1.9.4-.4.6-.1c.3 0 .6.1 1 .4.3.3.8.7 1.4 1 .5.4 1.2.8 2 1a8 8 0 002.9.6c1 0 1.8-.2 2.5-.4.8-.3 1.4-.7 2-1.2.4-.4.8-1 1.1-1.7.3-.6.4-1.4.4-2.2 0-.9-.2-1.6-.6-2.2a5 5 0 00-1.6-1.4c-.6-.4-1.4-.8-2.2-1a3679.6 3679.6 0 01-5.3-1.8c-.8-.4-1.6-.9-2.2-1.5a6.7 6.7 0 01-1.6-2.2 8 8 0 01-.6-3.3 7.9 7.9 0 012.3-5.7 10.5 10.5 0 016.8-2.5zM61.1 40.9v2.6H43.9v-2.6H61zM108.9 13a15.1 15.1 0 110 30.2 15.1 15.1 0 010-30.2zm0 3.9a11.2 11.2 0 100 22.4 11.2 11.2 0 000-22.4zM61.1 27.2v2.6H43.9v-2.6H61zm0-14v2.5H43.9v-2.6H61z" fill="#DFDFDF"/>
</svg>
