<svg width="143" height="63" viewBox="0 0 143 63" fill="none" xmlns="http://www.w3.org/2000/svg">
<path d="M27.9569 12.8975C29.4973 12.8975 30.8802 13.1414 32.1056 13.6294C33.331 14.1173 34.4478 14.8632 35.4561 15.867L34.9519 16.8289C34.8259 17.0659 34.6438 17.1844 34.4058 17.1844C34.2237 17.1844 33.9891 17.0555 33.7021 16.7976C33.415 16.5397 33.0264 16.2539 32.5362 15.9402C32.0461 15.6265 31.4334 15.3372 30.6982 15.0723C29.963 14.8074 29.0562 14.675 27.9779 14.675C26.8996 14.675 25.9508 14.8283 25.1316 15.1351C24.3123 15.4418 23.6261 15.86 23.073 16.3898C22.5198 16.9196 22.0997 17.533 21.8126 18.2301C21.5255 18.9271 21.382 19.659 21.382 20.4258C21.382 21.4296 21.5955 22.2591 22.0227 22.9144C22.4498 23.5696 23.0135 24.1273 23.7137 24.5873C24.4139 25.0474 25.2086 25.4343 26.0979 25.748C26.9871 26.0616 27.9009 26.3718 28.8391 26.6785C29.7774 26.9853 30.6912 27.3233 31.5804 27.6928C32.4697 28.0622 33.2644 28.5258 33.9646 29.0834C34.6648 29.6411 35.2285 30.3277 35.6556 31.1433C36.0828 31.9589 36.2963 32.9731 36.2963 34.186C36.2963 35.4268 36.0828 36.5944 35.6556 37.6888C35.2285 38.7832 34.6088 39.7347 33.7966 40.5433C32.9843 41.3519 31.9901 41.9897 30.8137 42.4567C29.6374 42.9238 28.293 43.1573 26.7806 43.1573C24.82 43.1573 23.1325 42.8123 21.7181 42.1222C20.3037 41.432 19.0643 40.4875 18 39.2886L18.5882 38.3684C18.7562 38.1593 18.9523 38.0547 19.1763 38.0547C19.3024 38.0547 19.4634 38.1384 19.6595 38.3057C19.8555 38.473 20.0936 38.6786 20.3737 38.9226C20.6538 39.1666 20.9899 39.4315 21.382 39.7173C21.7741 40.0031 22.2292 40.2679 22.7474 40.5119C23.2655 40.7559 23.8607 40.9615 24.5329 41.1288C25.2051 41.2961 25.9683 41.3798 26.8226 41.3798C27.9989 41.3798 29.0492 41.202 29.9735 40.8465C30.8978 40.491 31.6785 40.0065 32.3157 39.3931C32.9528 38.7797 33.4395 38.0513 33.7756 37.2078C34.1117 36.3643 34.2797 35.4616 34.2797 34.4997C34.2797 33.4541 34.0662 32.5932 33.639 31.917C33.2119 31.2409 32.6483 30.6763 31.9481 30.2232C31.2478 29.7701 30.4531 29.3902 29.5639 29.0834C28.6746 28.7767 27.7608 28.477 26.8226 28.1842C25.8843 27.8915 24.9705 27.5638 24.0813 27.2014C23.192 26.8389 22.3973 26.3753 21.6971 25.8107C20.9969 25.2461 20.4332 24.542 20.0061 23.6986C19.579 22.8551 19.3654 21.7991 19.3654 20.5304C19.3654 19.5405 19.5544 18.5856 19.9326 17.6654C20.3107 16.7453 20.8638 15.9332 21.592 15.2292C22.3203 14.5251 23.22 13.9605 24.2913 13.5353C25.3626 13.1101 26.5845 12.8975 27.9569 12.8975ZM78.4286 12.9872C80.0833 12.9872 81.5931 13.248 82.9582 13.7697C84.3233 14.2913 85.516 15.0463 86.5363 16.0346L85.5642 17.9289C85.4401 18.1348 85.3092 18.2892 85.1713 18.3922C85.0334 18.4952 84.8541 18.5466 84.6335 18.5466C84.3991 18.5466 84.1268 18.43 83.8165 18.1966C83.5063 17.9632 83.1133 17.7059 82.6376 17.4245C82.1619 17.143 81.5897 16.8857 80.9209 16.6523C80.2522 16.419 79.4421 16.3023 78.4907 16.3023C77.5944 16.3023 76.8016 16.4224 76.1121 16.6626C75.4227 16.9028 74.847 17.2288 74.3851 17.6407C73.9232 18.0525 73.575 18.5363 73.3406 19.0923C73.1062 19.6482 72.989 20.2488 72.989 20.8939C72.989 21.7176 73.1924 22.4005 73.5992 22.9427C74.0059 23.4849 74.5437 23.9482 75.2124 24.3325C75.8812 24.7169 76.6395 25.0498 77.4876 25.3312C78.3356 25.6126 79.2042 25.9043 80.0936 26.2063C80.983 26.5083 81.8516 26.848 82.6996 27.2255C83.5477 27.603 84.306 28.08 84.9748 28.6565C85.6435 29.233 86.1813 29.94 86.588 30.7773C86.9948 31.6147 87.1982 32.6442 87.1982 33.8659C87.1982 35.1562 86.9776 36.3676 86.5363 37.5001C86.0951 38.6326 85.4505 39.6175 84.6025 40.4548C83.7545 41.2922 82.7134 41.951 81.4794 42.4315C80.2453 42.9119 78.8423 43.1522 77.2704 43.1522C75.3538 43.1522 73.6061 42.8056 72.0273 42.1123C70.4485 41.4191 69.1006 40.4823 67.9837 39.3018L69.142 37.4074C69.2523 37.2564 69.3867 37.1295 69.5453 37.0265C69.7039 36.9236 69.8797 36.8721 70.0727 36.8721C70.3623 36.8721 70.6932 37.0265 71.0655 37.3354C71.4378 37.6442 71.9032 37.984 72.4616 38.3546C73.02 38.7252 73.6957 39.065 74.4885 39.3738C75.2814 39.6827 76.25 39.8371 77.3945 39.8371C78.3459 39.8371 79.1939 39.7067 79.9385 39.4459C80.6831 39.1851 81.3139 38.8179 81.831 38.3443C82.348 37.8707 82.7445 37.3045 83.0202 36.6456C83.296 35.9867 83.4339 35.2523 83.4339 34.4424C83.4339 33.5502 83.2305 32.8192 82.8238 32.2495C82.417 31.6799 81.8827 31.2029 81.2208 30.8185C80.559 30.4341 79.804 30.1081 78.956 29.8405C78.108 29.5728 77.2394 29.2983 76.35 29.0168C75.4606 28.7354 74.5919 28.4094 73.7439 28.0388C72.8959 27.6682 72.141 27.1877 71.4792 26.5975C70.8173 26.0072 70.283 25.2694 69.8762 24.384C69.4695 23.4986 69.2661 22.4039 69.2661 21.0998C69.2661 20.0566 69.4695 19.0477 69.8762 18.0731C70.283 17.0984 70.8725 16.2336 71.6446 15.4787C72.4168 14.7237 73.3716 14.1197 74.5092 13.6667C75.6468 13.2137 76.9532 12.9872 78.4286 12.9872ZM61.0894 40.4634V43.0372H43.8537V40.4634H61.0894ZM108.919 12.8975C117.248 12.8975 124 19.6194 124 27.9113C124 36.2032 117.248 42.9251 108.919 42.9251C100.59 42.9251 93.8374 36.2032 93.8374 27.9113C93.8374 19.6194 100.59 12.8975 108.919 12.8975ZM108.936 16.7662C102.749 16.7662 97.7326 21.7596 97.7326 27.9193C97.7326 34.079 102.749 39.0725 108.936 39.0725C115.123 39.0725 120.139 34.079 120.139 27.9193C120.139 21.7596 115.123 16.7662 108.936 16.7662ZM61.0894 26.9509V29.5247H43.8537V26.9509H61.0894ZM61.0894 13.0095V15.5833H43.8537V13.0095H61.0894Z" fill="#101113"/>
</svg>
