<svg fill="none" xmlns="http://www.w3.org/2000/svg" viewBox="0 0 143 64">
  <path fill-rule="evenodd" clip-rule="evenodd" d="M8.9 55.4h-.4l-2 .8L1.8 58l-.3.1H1a.7.7 0 01-.3-.5V57l.5-.4.5-.1c-.3 0-.5 0-.6-.2L.9 56v-.1-.3-.6l.2-.4v-.3l.3-.8.1-.6.8-2.7 1-3A484 484 0 015 42l.5-1.3.6-1.7a6.1 6.1 0 01.2-.6v-.2l.1-.2v-.1l.2-.7c0-.2.2-.3.3-.3.2 0 .3 0 .3.2a45.1 45.1 0 017.4-.8h2.5a23 23 0 013 .6l.6.2 1 .2 1.2.3 1.2.4a34.5 34.5 0 014.6 2l1 .3.7.2h.1l.6.1a12 12 0 005.4-.4 18.2 18.2 0 003.2-1.1 7.6 7.6 0 001-.7 7.9 7.9 0 01.8-.5l.5-.3.1-.1c.2-.2.5-.3.7-.2.2 0 .4.1.4.3.3.3.1.8-.2 1-.2 0-.3.2-.5.3l-.4.2v.5l-.1.3a34 34 0 01-.4 2.2l-.1.6-.2.8a38 38 0 01-.9 4.2v.7l-.2.8-.1.6-.1.7-.2 1.1-.1 1.2a77.2 77.2 0 00-.4 2.5l-.2 1.4c0 .3-.1.4-.3.5l-.6.3-.3.2-.7.2a7.6 7.6 0 01-1.6.4 14.3 14.3 0 01-2.7-.1l-.6-.1-.9-.3a12.8 12.8 0 01-2.8-1.5s-.2 0-.3-.2a8.2 8.2 0 00-1.5-.8h-.2a7 7 0 00-1-.4h-.4l-.3-.2h-.4l-.4-.1-2.6-.4H21L20 54h-3.5l-1 .1-.8.1-3.8.7-2 .5zm-6.6.5l-.2.3L5.3 55l2.2-.7 1.6-.4.6-.2 1-.2a271.7 271.7 0 004.7-.8 6 6 0 011 0h4.4l1.1.1h.2a18.4 18.4 0 001.7.3h.6l.3.1a6.4 6.4 0 011 .2l.3.1.6.2c.4 0 .8.2 1.1.4l1 .5.8.5a28.4 28.4 0 001 .6h.1l1 .5a8 8 0 001.8.5l1.5.1h1.3c.4 0 .7-.2 1-.3l.9-.3.2-1.3a82.2 82.2 0 00.3-1.8 88.2 88.2 0 001-6.1l.2-.6.2-.7a69.7 69.7 0 011.2-5l.2-1h-.2l-.1.1a13.7 13.7 0 01-5.2 2l-2.5.5h-2.3v-.1l-.7-.1h-.2l-.3-.1-1-.3-2.4-1a42.2 42.2 0 00-3.6-1.5l-.4-.1c-.7-.3-1.3-.5-2-.6l-1-.3-1.2-.3h-.5a14.7 14.7 0 01-1.2-.3h-4.4a22.2 22.2 0 00-3.7.6c-.4 0-.8 0-1.1.2h-.2l-.1.2-.3.8-.1.5-.8 2.2a570.1 570.1 0 01-2 6.3A75.1 75.1 0 002.3 55v.9z" fill="#FEDD00"/>
  <path fill-rule="evenodd" clip-rule="evenodd" d="M7.8 50v-.4-.2.1l-.2.2-.2.2v.1h.1v.2h.2V50z" fill="#FEDD00"/>
  <path fill-rule="evenodd" clip-rule="evenodd" d="M34.4 46.7l.3-.1.8-.6.6.5c.2.2.6.2.8 0l.2-.4c0-.1 0-.3-.2-.4l-.4-.5 1.1-.7.2-.3V44l-.4-.2h-.2l-1.2 1-.7-.8a.6.6 0 00-.4-.2l-.4.2c-.2.1-.2.3-.2.4a1515.4 1515.4 0 00.7 1l-.9.7v.6h.3z" fill="#DFDFDF"/>
  <path fill-rule="evenodd" clip-rule="evenodd" d="M10.5 50.5l1-.5c.1 0 .2-.3 0-.5l-.2-.1H11l-1 .5c-.2 0-.2.3-.1.5s.4.2.6.1zM13.7 49.4l1.6-.4c.1 0 .2-.2.1-.3 0-.2-.1-.2-.2-.2-.6 0-1.1.2-1.7.3l-.1.4c0 .1.1.2.3.2zM17.7 48.4l1 .4c.1 0 .2 0 .3-.2 0-.1 0-.3-.2-.3l-1-.4c-.2 0-.3 0-.3.2 0 .1 0 .3.2.3zM21 48.8l1.7.6c.2 0 .3-.1.4-.3 0-.1 0-.3-.2-.3l-1.7-.6H21c-.2 0-.3 0-.3.2v.3l.2.1zM25.7 49.6h.3l.9-.1h.4l.5-.3c.2 0 .4-.2.3-.4 0-.1 0-.2-.2-.3h-.8l-1.3.2-.3.3v.3c0 .2.1.3.2.3zM29.5 48.5l.8-.3h.4l.5-.3h.1v-.2l-.1-.1-1 .2-.7.3c-.2 0-.2 0-.2.2l.2.2zM33.1 48.2c.4 0 .6-.3.6-.6a.6.6 0 10-1.2 0c0 .3.3.6.6.6z" fill="#FEDD00"/>
  <path fill-rule="evenodd" clip-rule="evenodd" d="M14.6 21.3a20.7 20.7 0 01-.3-3.5V17a12.3 12.3 0 01.7-3.7l.5-1.3.3-.4.2-.5 1-1.4a11.2 11.2 0 011.3-1.3c.5-.3.9-.7 1.4-.9l1.5-.5.6-.1a22.4 22.4 0 012.8-.4h.4l1.7.3 1.7.7c1 .5 2 1.2 2.7 2.1l1.1 1.6.2.3.2.4a12 12 0 011.3 3.3v1c.1.5.1 1 0 1.6a19 19 0 01-2.2 6.8 35.6 35.6 0 01-3 4.3L27 31a35 35 0 01-2.3 3.2 68.8 68.8 0 01-1.8 2.3h-.1-.1c-.2 0-.5 0-.6-.2a.9.9 0 01-.2-1l.1-.2-.1-.1-1.2-1.7-.4-.5a57 57 0 01-2.5-3.9l-.2-.2a33 33 0 01-2.7-6l-.4-1.4zm1.8-6.6l-.4 1.5V19.3a26 26 0 001.2 4.4l.5 1.3.6 1.2a23.7 23.7 0 001 1.8l.8 1.6 2.4 3.6.4.5.7-1 .8-1.1.5-.7c0-.2.2-.3.3-.5l2.4-3.3a386.5 386.5 0 002.2-3.1l1-2 .2-.2.6-1.8.3-1.2.2-1c.1-.6.1-1.1 0-1.6v-.6l-.3-1.2V14l-.2-.3c-.4-.9-.8-1.8-1.4-2.6a10 10 0 00-1.5-1.5 7 7 0 00-1.2-.7 5.2 5.2 0 00-.7-.4h-.2a9 9 0 00-1.4-.4h-1.5a159.4 159.4 0 01-1.4.2l-1.7.4-1 .6a10.2 10.2 0 00-2.4 3l-.3.6-.1.3a8 8 0 00-.4 1v.4z" fill="#DFDFDF"/>
  <path fill-rule="evenodd" clip-rule="evenodd" d="M19.7 20.4a9 9 0 01-.6-1.1c-.1-.4-.3-.8-.3-1.3l-.1-1.1c0-.7 0-1.3.2-1.9.1-.5.3-1 .6-1.4l.7-.9.6-.6.2-.1a12.8 12.8 0 01.6-.4 9 9 0 011-.5 5 5 0 011-.4h1.2c.1 0 .2 0 .3.2h1.7l1 .5a4.5 4.5 0 011.4 1.1v.1l.1.1.2.5.1.2v.3a8.5 8.5 0 00.1.3l.1.5V16a8.2 8.2 0 000 .8v1l-.1.3-.1.4-.1.4-.1.2v.2l-.3.7-.1.1c-.5 1-1.2 2-2 2.6l-1.1.5-1 .2H24a7 7 0 01-1-.2l-.5-.2h-.2l-.4-.2-.9-.7a5.6 5.6 0 01-.8-1L20 21a2.4 2.4 0 01-.1-.3l-.2-.2zm.5-5.2a5.5 5.5 0 00-.3 1.9c0 .5.2 1 .3 1.4v.2l.1.3.4.6.1.2.2.2.1.3.1.1.2.1.5.6.8.5 1 .2a3 3 0 001.3-.1l.6-.2.7-.4.1-.1.2-.1.2-.2c.2 0 .2-.2.3-.3l.4-.4.5-.8.1-.5v-.1a3 3 0 00.2-.5v-2.2l-.4-1.4v-.1l-.4-.6h-.1c0-.2-.1-.2-.2-.3-.2 0-.3-.2-.5-.3l-.3-.1-1-.4-.4-.1-.3-.1-.6-.1a3.7 3.7 0 00-.8 0h-.1l-.4.1-.6.4c-.2 0-.5.2-.6.4l-.5.4-.2.2-.1.1a3.7 3.7 0 00-.6 1.2zM28.1 24.5l-1.6.6v-.3h-.3a17.7 17.7 0 01-1.2.6h-.7-1.9v-.1l-.7-.5-.7-.6-.8-.7h-.1-.2v.4l.7.6.5.4a365.2 365.2 0 00-1-.7 385.5 385.5 0 00-.4-.7h-.2-.2v.4l.3.4.4.4.4.3c0 .2.2.3.4.4h-.1-.2a20 20 0 01-1.2-.6H19l-.1.2v.3l.2.1 1.3.6h.3a5.4 5.4 0 001.2 1h.4l.5.3c.1 0 .2 0 .3-.2H23.5c.2 0 .5 0 .8.2l-.3.1v.2h.1l.5-.2.5.1.6.1h.2l.2-.1c0-.1 0-.3-.2-.4l-.6-.1 1.3-.7h.2V26l-1.3.6-.5.3v-.1h-.3l-.2-.1 1.2-.5 2.2-.9.4-.2V25v-.3s0-.2-.2-.2z" fill="#DFDFDF"/>
  <path fill-rule="evenodd" clip-rule="evenodd" d="M25 30l-1.5-.7c-.3 0-.5-.2-.8-.3l.5-.2.5-.1h.2l.4.1.2-.1v-.1l-.1-.1.5-.2h.1V28H25l-1 .2-.6-.3-.5-.2v-.2c-.4 0-.7-.2-1-.3l-1.1-.4-.8-.4H19.6V26.8l1.8.8 1.1.5 1 .4c-.4 0-.8.2-1.1.3v-.1l-.1-.1-.5-.4-1.2-1h-.2V27.6l.2.2v.3l1 .6V29l1.4.6.2.2.9.6.2-.1v-.1h.1a507.8 507.8 0 01.7.1c.1-.1 0-.2 0-.2z" fill="#DFDFDF"/>
  <path fill-rule="evenodd" clip-rule="evenodd" d="M53.5 30.5c.8.5 2.3 1 3.7 1 3.5 0 5.1-2 5.1-4.3 0-2.2-1.2-3.4-3.7-4.3-2-.8-2.9-1.5-2.9-2.9 0-1 .8-2.2 2.7-2.2 1.4 0 2.3.5 2.8.7l.5-1.5c-.6-.4-1.7-.8-3.2-.8-2.8 0-4.7 1.7-4.7 4 0 2.1 1.5 3.4 3.8 4.2 2 .8 2.8 1.6 2.8 3s-1.1 2.5-3 2.5c-1.4 0-2.6-.5-3.4-1l-.5 1.6zM65 16.5v14.7h1.8v-6.9h7v7h2V16.4h-2v6.1h-7v-6.1H65zM78.2 24c0-4.7 2.9-7.8 6.8-7.8 4 0 6.5 3.1 6.5 7.5 0 5-3 7.8-6.8 7.8s-6.5-3-6.5-7.5zm11.3-.2c0-3-1.5-6-4.6-6-3.1 0-4.7 2.9-4.7 6.1 0 3.2 1.7 6 4.7 6s4.6-2.8 4.6-6.1zM98.3 31.2l2-7.7c.6-1.9 1-3.3 1.2-4.8.2 1.5.5 3 1 4.8l1.8 7.7h2l4.1-14.7h-1.9l-2 7.4c-.4 1.9-.8 3.5-1 5.1h-.1a58 58 0 00-1-5l-1.8-7.5h-2l-2 7.4-1.1 5.1-1.2-5-1.7-7.5h-2l3.7 14.7h2zM127.4 31.2h3.2l-.8-14.6h-4.2l-1.6 4.9c-.4 1.6-1 3.5-1.3 5.2h-.1l-1.2-5.2-1.4-4.9h-4.4l-1 14.6h3.1l.3-5.5.2-6 1.4 5.6L121 31h2.6l1.7-5.7c.6-1.7 1.2-3.8 1.6-5.6l.2 6 .2 5.5zM141.7 22.4h-5.3v-3h5.7v-2.8h-9v14.6h9.3v-2.7h-6v-3.4h5.3v-2.7zM56.8 53.8l3.2.2c2.6 0 4.5-.5 5.6-1.5.8-.8 1.3-2 1.3-3.3 0-2.4-1.8-3.7-3.3-4.1 1.7-.7 2.7-2 2.7-3.6 0-1.3-.5-2.3-1.3-3-1-.7-2.3-1-4.4-1a20 20 0 00-3.8.2v16zm2-14.6l1.9-.2c2.1 0 3.5.8 3.5 2.7 0 1.6-1.3 2.7-3.5 2.7h-1.9v-5.2zm1.8 6.8h-1.8v6.2l1.8.1c2.1 0 4.1-.8 4.1-3.1S62.8 46 60.6 46zM69.8 37.5v16.3h2V37.5h-2zM74.7 53c.9.6 2.6 1 4.1 1 3.8 0 5.7-2.1 5.7-4.6 0-2.4-1.4-3.7-4.1-4.8-2.3-.9-3.2-1.6-3.2-3.2 0-1 .8-2.4 3-2.4 1.5 0 2.5.5 3 .8l.6-1.7c-.7-.4-1.9-.8-3.5-.8-3.2 0-5.3 1.9-5.3 4.4 0 2.3 1.7 3.7 4.3 4.6 2.2.9 3 1.7 3 3.3 0 1.6-1.2 2.7-3.3 2.7-1.5 0-2.8-.5-3.8-1l-.5 1.7zM87.4 37.5v16.3h2v-7.6h7.9v7.6h2V37.5h-2v6.9h-7.9v-6.9h-2zM103 53.8h2v-6.2l1.6-1.8 5.3 8h2.5l-6.3-9.4 5.8-6.9h-2.5l-5 6.1a42 42 0 00-1.3 1.8v-7.9H103v16.3zM124.4 44.4H118v-5.1h6.6v-1.8H116v16.3h9v-1.7h-7v-6h6.4v-1.7zM127.8 53.8h2v-6.2l1.6-1.8 5.3 8h2.5l-6.3-9.4 5.8-6.9h-2.5l-5 6.1-1.2 1.8h-.1v-7.9h-2.1v16.3z" fill="#47489E"/>
</svg>
