<svg width="144" height="63" viewBox="0 0 144 63" fill="none" xmlns="http://www.w3.org/2000/svg">
<path fill-rule="evenodd" clip-rule="evenodd" d="M9.22519 54.9438C9.09698 54.9761 8.96826 55.0085 8.83877 55.0408C8.12007 55.2344 7.42899 55.4556 6.76557 55.7874C5.22488 56.2755 3.75574 56.8589 2.26954 57.4492C2.15584 57.4944 2.04206 57.5396 1.92813 57.5847C1.76228 57.64 1.51349 57.5847 1.37528 57.5017C1.20942 57.4189 1.09885 57.2529 1.04357 57.087C1.01593 56.8935 1.04357 56.6999 1.1265 56.534C1.20942 56.3681 1.37528 56.2852 1.54113 56.2022C1.70699 56.1469 1.84521 56.0915 1.98342 56.0363C1.76228 56.0363 1.56878 55.981 1.43056 55.815C1.34764 55.7321 1.29235 55.6215 1.26471 55.5109C1.24884 55.4951 1.24208 55.4883 1.2392 55.4802C1.23707 55.4741 1.23707 55.4674 1.23707 55.4556C1.20942 55.3727 1.20942 55.2897 1.20942 55.2068C1.23707 54.9855 1.26471 54.7643 1.32 54.5431C1.34764 54.4325 1.38219 54.315 1.41674 54.1975C1.4513 54.0799 1.48585 53.9625 1.51349 53.8518C1.57552 53.5882 1.64623 53.3332 1.71589 53.082C1.77042 52.8854 1.8243 52.6912 1.87285 52.4969C2.09398 51.6121 2.37041 50.7273 2.64684 49.8424C2.9509 48.8194 3.25497 47.7963 3.61432 46.8008L3.61437 46.8007C4.02899 45.6394 4.44362 44.4781 4.85824 43.3444C5.06463 42.7886 5.2619 42.2237 5.46054 41.6548C5.60775 41.2332 5.7557 40.8095 5.90866 40.3858C6.12979 39.8328 6.32329 39.2521 6.51679 38.6715C6.53809 38.6075 6.56348 38.5395 6.58982 38.469C6.63186 38.3564 6.6763 38.2374 6.71029 38.1183C6.73793 38.0493 6.75867 37.9732 6.7794 37.8972C6.80013 37.8212 6.82086 37.7451 6.84851 37.676C6.83066 37.6402 6.83586 37.6161 6.84178 37.5885C6.84504 37.5734 6.84851 37.5573 6.84851 37.5378V37.5377C6.9038 37.3165 6.95908 37.0953 7.042 36.8741C7.09729 36.7358 7.20786 36.6253 7.37371 36.6253C7.48429 36.6253 7.59486 36.6806 7.65014 36.7911C7.66396 36.805 7.67087 36.8257 7.67778 36.8464C7.68469 36.8672 7.6916 36.8879 7.70543 36.9018C8.58998 36.7081 9.50217 36.5423 10.3868 36.4041C11.9347 36.1551 13.4827 36.0169 15.0584 35.9893H15.8047H16.247C16.4681 35.9893 16.6616 35.9893 16.8828 36.0169L17.5462 36.0999C18.3202 36.1829 19.1218 36.3211 19.8958 36.487C20.1397 36.5328 20.3752 36.5869 20.607 36.6402C20.7955 36.6835 20.9815 36.7263 21.1674 36.7636C21.5267 36.8464 21.8583 36.9294 22.19 37.0123L22.1902 37.0124C22.5495 37.0953 22.9365 37.2059 23.2959 37.3166L24.5398 37.7313C25.3414 38.0078 26.1153 38.3396 26.8893 38.6715C27.221 38.8097 27.5459 38.9618 27.8707 39.1138C28.1954 39.266 28.5203 39.418 28.852 39.5563C28.9527 39.5941 29.0535 39.6333 29.1546 39.6727C29.4972 39.806 29.8436 39.9409 30.2065 40.0263C30.4175 40.0966 30.6483 40.1471 30.8653 40.1945C30.9042 40.2031 30.9427 40.2115 30.9805 40.2199C31.1526 40.2691 31.3466 40.2964 31.5236 40.3213C31.5455 40.3244 31.5673 40.3274 31.5886 40.3305C32.0585 40.3858 32.5284 40.4411 32.9983 40.4411C33.4959 40.4688 33.9659 40.4411 34.4358 40.3858C35.2927 40.2475 36.1496 40.0816 36.9789 39.8881C37.7805 39.6945 38.5821 39.418 39.3561 39.1138C39.6326 39.0033 39.8813 38.8926 40.1301 38.7544C40.4066 38.6161 40.6831 38.4503 40.9318 38.2843C41.0236 38.2231 41.1156 38.158 41.2088 38.092C41.3681 37.9792 41.5315 37.8636 41.7058 37.7589C41.7663 37.7211 41.8289 37.6832 41.8924 37.6449C42.061 37.543 42.2362 37.437 42.3969 37.3166C42.4521 37.2889 42.5074 37.2336 42.5627 37.1783C42.7562 36.9847 43.005 36.9018 43.2538 36.9847C43.4196 37.0401 43.5855 37.1506 43.6684 37.3166C43.8895 37.6483 43.7513 38.0631 43.4196 38.2843C43.2814 38.3811 43.1293 38.471 42.9773 38.5608C42.8253 38.6507 42.6733 38.7406 42.5351 38.8373C42.5074 38.865 42.5074 38.9203 42.5074 38.948C42.4935 39.0586 42.4728 39.1691 42.4521 39.2798C42.4314 39.3904 42.4106 39.501 42.3969 39.6116C42.3139 40.1646 42.231 40.69 42.1204 41.243C42.0789 41.4365 42.0444 41.6231 42.0099 41.8098C41.9753 41.9965 41.9407 42.1831 41.8993 42.3767C41.844 42.6394 41.7956 42.8951 41.7472 43.1509C41.6989 43.4067 41.6505 43.6624 41.5952 43.9251C41.457 44.6441 41.2912 45.3906 41.1253 46.1096C41.0425 46.4964 40.9595 46.9108 40.8767 47.3253L40.8765 47.3262C40.835 47.5612 40.7936 47.803 40.7521 48.0449C40.7107 48.2869 40.6692 48.5289 40.6278 48.764C40.6001 48.9853 40.5655 49.1996 40.531 49.4139C40.4964 49.6282 40.4619 49.8425 40.4342 50.0637L40.2684 51.225C40.2176 51.5931 40.161 51.9671 40.104 52.3442C40.0367 52.7885 39.9688 53.2372 39.909 53.686C39.8581 54.068 39.8013 54.4558 39.744 54.8469C39.677 55.3049 39.6093 55.7674 39.5496 56.2298C39.5496 56.2437 39.5428 56.2575 39.5358 56.2713C39.5289 56.2852 39.522 56.299 39.522 56.3128C39.522 56.5064 39.4114 56.7 39.2455 56.7829C39.0429 56.8935 38.8402 56.9795 38.6374 57.0656C38.5361 57.1086 38.4347 57.1516 38.3334 57.1977L37.6699 57.4465C37.4212 57.5295 37.1724 57.6124 36.9236 57.6677C36.6472 57.723 36.3431 57.7783 36.0667 57.806C35.348 57.8612 34.6017 57.8336 33.8829 57.7783C33.717 57.7783 33.5235 57.7507 33.3577 57.723H33.3577C33.1365 57.6954 32.9154 57.6677 32.7219 57.6124C32.4455 57.5571 32.1414 57.4742 31.865 57.3912C31.5609 57.2806 31.2569 57.1423 30.9528 57.004C30.3949 56.7483 29.8761 56.4143 29.3635 56.0843C29.2666 56.0219 29.1698 55.9596 29.0731 55.898C28.9718 55.8335 28.8704 55.7659 28.7691 55.6983C28.5663 55.5631 28.3636 55.428 28.161 55.3173C27.8569 55.1515 27.5251 54.9855 27.221 54.8473C27.1534 54.8231 27.085 54.7982 27.0159 54.7729C26.6892 54.6536 26.347 54.5287 26.0048 54.4602C25.8804 54.4325 25.7629 54.4048 25.6454 54.3773C25.5279 54.3496 25.4105 54.3219 25.2861 54.2943C25.1617 54.2666 25.0304 54.2459 24.8991 54.2251C24.7678 54.2044 24.6365 54.1837 24.5121 54.156C23.6556 54.0179 22.7714 53.8797 21.8872 53.7415L21.8861 53.7413C21.7479 53.7274 21.6097 53.7119 21.4715 53.6963C21.0568 53.6497 20.6421 53.603 20.2275 53.603C19.647 53.5753 19.0665 53.5753 18.486 53.5753C17.8779 53.5753 17.2974 53.5753 16.7169 53.6306C16.4129 53.6306 16.1088 53.6583 15.8047 53.686L14.9754 53.7689C13.6762 53.9625 12.4046 54.2113 11.1331 54.4878C10.4886 54.6259 9.86329 54.7833 9.22519 54.9438ZM2.6192 55.4556C2.59155 55.5662 2.53627 55.6492 2.45334 55.7321C3.5314 55.2897 4.60946 54.9026 5.63224 54.5708C6.37858 54.3219 7.12493 54.1008 7.87128 53.8795C8.36871 53.7264 8.8794 53.5998 9.39419 53.4721C9.62309 53.4154 9.85288 53.3584 10.0827 53.2988C10.4145 53.2297 10.7531 53.1606 11.0918 53.0914C11.4304 53.0223 11.7689 52.9531 12.1006 52.8841C12.9022 52.7181 13.6762 52.5799 14.4778 52.4693C14.6852 52.4416 14.8925 52.4209 15.0998 52.4001C15.3072 52.3795 15.5144 52.3587 15.7218 52.3311C15.9429 52.2942 16.164 52.2819 16.3851 52.2696C16.4957 52.2634 16.6063 52.2573 16.7169 52.2481L16.7961 52.2453C17.5418 52.2186 18.2636 52.1928 19.0112 52.1928H19.0665C19.2462 52.1928 19.4189 52.1997 19.5917 52.2066C19.7645 52.2135 19.9373 52.2204 20.1169 52.2204C20.421 52.2204 20.7527 52.2481 21.0844 52.2758C21.4822 52.3006 21.8576 52.3479 22.251 52.3973C22.295 52.4029 22.3391 52.4085 22.3837 52.4141C22.7983 52.4969 23.1853 52.5523 23.5999 52.6076C23.7934 52.6352 23.98 52.6629 24.1666 52.6906C24.3533 52.7182 24.5398 52.7458 24.7332 52.7734C24.8379 52.791 24.9398 52.8056 25.0408 52.8202C25.2596 52.8518 25.4737 52.8827 25.7007 52.9394C25.8113 52.9671 25.9218 52.9878 26.0324 53.0085C26.143 53.0292 26.2535 53.05 26.3641 53.0776L26.9446 53.2436C27.304 53.3541 27.691 53.5201 28.0504 53.686C28.3821 53.8243 28.7138 53.9901 29.0455 54.1837C29.3268 54.3244 29.608 54.5048 29.8724 54.6744C29.9199 54.7049 29.9667 54.735 30.013 54.7643C30.2685 54.9348 30.5076 55.0724 30.7556 55.2151C30.8295 55.2576 30.9043 55.3005 30.9804 55.345C31.2845 55.511 31.5885 55.6492 31.8926 55.7874V55.7875C32.4731 56.0087 33.0813 56.1469 33.717 56.2298C34.2147 56.2852 34.7122 56.3405 35.2098 56.3681C35.6521 56.3957 36.0943 56.3957 36.5366 56.3405C36.8959 56.2852 37.2276 56.1745 37.5593 56.064H37.5594C37.8358 55.9533 38.1122 55.8427 38.4163 55.7598C38.4646 55.3246 38.5341 54.9106 38.6062 54.4808C38.6166 54.419 38.627 54.3569 38.6374 54.2943C38.7203 53.7416 38.8031 53.2165 38.886 52.6915L38.8862 52.6905C39.052 51.8057 39.1903 50.9485 39.3285 50.0637C39.4667 49.2894 39.6049 48.5152 39.7707 47.741C39.8537 47.3539 39.9366 46.9944 40.0195 46.635V46.635C40.0748 46.4275 40.1233 46.2132 40.1716 45.999C40.22 45.7846 40.2684 45.5703 40.3237 45.363C40.4204 44.9344 40.524 44.5127 40.6277 44.0911C40.7314 43.6693 40.835 43.2477 40.9318 42.8191C41.0285 42.4044 41.1184 41.9826 41.2082 41.561C41.298 41.1393 41.3879 40.7176 41.4847 40.3028C41.5676 39.971 41.6505 39.6392 41.7058 39.3074C41.6643 39.3488 41.6159 39.3834 41.5676 39.418C41.5191 39.4526 41.4708 39.4871 41.4294 39.5286C41.1253 39.7498 40.7936 39.9434 40.4619 40.1093C39.7984 40.4687 39.1073 40.7452 38.3886 40.9942C37.6976 41.2153 36.9789 41.3812 36.2602 41.5472C35.4309 41.713 34.6017 41.8789 33.7723 41.9342C32.9983 41.9895 32.252 41.9619 31.478 41.8789C31.4538 41.8759 31.4291 41.8729 31.4043 41.8698C31.2022 41.8449 30.9808 41.8176 30.7593 41.7684C30.6764 41.7407 30.5865 41.7269 30.4967 41.713C30.4069 41.6992 30.317 41.6854 30.2341 41.6577C29.8748 41.5748 29.5154 41.4918 29.1837 41.3812C28.3821 41.1047 27.6357 40.7729 26.8617 40.4135C26.2259 40.1093 25.5625 39.8051 24.8991 39.5286C24.352 39.3097 23.7875 39.1081 23.2332 38.9102C23.0874 38.8581 22.9422 38.8062 22.7983 38.7543C22.1625 38.5332 21.4991 38.3396 20.8356 38.1737C20.4762 38.0908 20.1169 38.0009 19.7575 37.911C19.3982 37.8212 19.0388 37.7313 18.6795 37.6483C18.4999 37.6068 18.3202 37.5723 18.1405 37.5378C17.9608 37.5032 17.7811 37.4686 17.6015 37.4271C17.3752 37.3768 17.1262 37.3494 16.8959 37.3241C16.8729 37.3215 16.85 37.319 16.8275 37.3165C16.6893 37.3027 16.5512 37.2958 16.413 37.2889C16.2748 37.282 16.1365 37.2751 15.9982 37.2612C15.8047 37.2336 15.5836 37.2336 15.3625 37.2336C15.217 37.2336 15.0686 37.2305 14.9182 37.2276C14.6111 37.2214 14.2957 37.215 13.9802 37.2336L12.4876 37.3165C12.0453 37.3441 11.5754 37.3995 11.1331 37.4548C10.6908 37.5101 10.2762 37.5653 9.83388 37.6483C9.48841 37.7175 9.13594 37.7866 8.78349 37.8557C8.43104 37.9248 8.0786 37.994 7.73307 38.0631H7.48429C7.47047 38.0908 7.46355 38.1253 7.45664 38.1598C7.44973 38.1944 7.44282 38.229 7.429 38.2566C7.34987 38.5258 7.26169 38.7858 7.17481 39.042C7.10994 39.2333 7.0458 39.4224 6.98672 39.6115C6.76557 40.3305 6.51679 41.0494 6.26802 41.7684C6.1548 42.095 6.04091 42.4217 5.92698 42.7484C5.31761 44.4962 4.70716 46.247 4.19482 48.0175C3.86311 49.1235 3.55904 50.2296 3.28262 51.3356C3.00619 52.3587 2.78505 53.3818 2.6192 54.4325C2.6192 54.4602 2.61228 54.4947 2.60538 54.5293C2.59846 54.5639 2.59155 54.5985 2.59155 54.6261C2.59155 54.6813 2.58464 54.7297 2.57773 54.7782C2.57082 54.8266 2.56391 54.875 2.56391 54.9302C2.64684 55.0962 2.67448 55.2897 2.6192 55.4556Z" fill="#FEDD00"/>
<path fill-rule="evenodd" clip-rule="evenodd" d="M8.10738 49.5663C8.11478 49.5504 8.12179 49.5354 8.1288 49.5219C8.1585 49.4361 8.18819 49.3504 8.18819 49.2932V49.2076C8.18819 49.1933 8.18077 49.179 8.17334 49.1647C8.16592 49.1505 8.1585 49.1362 8.1585 49.1219C8.1585 49.0932 8.1585 49.0647 8.1288 49.0361C8.1288 49.0647 8.09914 49.0932 8.06946 49.1218L8.06941 49.1219C8.02487 49.1933 7.9729 49.2647 7.92094 49.3362C7.86897 49.4076 7.817 49.479 7.77246 49.5504C7.77246 49.5647 7.77988 49.579 7.7873 49.5933C7.79473 49.6076 7.80216 49.6218 7.80216 49.6361C7.80216 49.6504 7.80958 49.6576 7.817 49.6647C7.82442 49.6719 7.83185 49.6789 7.83185 49.6932C7.86153 49.7503 7.89121 49.7789 7.92089 49.8075L7.92094 49.8075L8.01002 49.7219C8.05539 49.6781 8.08343 49.6179 8.10738 49.5663Z" fill="#FEDD00"/>
<path fill-rule="evenodd" clip-rule="evenodd" d="M34.7343 46.3215C34.8535 46.3215 34.943 46.2652 35.0324 46.2089C35.3006 46.0122 35.569 45.7872 35.8671 45.5904C36.046 45.7872 36.2248 45.9559 36.4036 46.1527C36.6123 46.3777 37.0297 46.3777 37.2384 46.1527C37.3576 46.0403 37.4172 45.8997 37.4172 45.7591C37.4172 45.5904 37.3576 45.4779 37.2384 45.3654C37.0893 45.1968 36.97 45.0561 36.8211 44.8875C37.2086 44.6344 37.5663 44.3813 37.9538 44.1283C38.0433 44.072 38.1327 43.9877 38.1625 43.8753C38.1923 43.7628 38.1625 43.6503 38.1327 43.566C38.0433 43.4535 37.8942 43.3691 37.7451 43.3691C37.6856 43.3691 37.5961 43.3972 37.5365 43.4254C37.1191 43.7065 36.7018 43.9877 36.2844 44.2689C36.0757 44.0439 35.8671 43.7909 35.6584 43.566C35.5391 43.4535 35.3901 43.3972 35.2411 43.3972C35.0622 43.3972 34.9131 43.4535 34.7939 43.566C34.6746 43.6784 34.6151 43.819 34.6151 43.9877C34.6151 44.1565 34.6746 44.2689 34.7939 44.4094C34.9727 44.6063 35.1516 44.8031 35.3305 44.9999C35.0324 45.2249 34.7641 45.4498 34.466 45.6747C34.2871 45.8153 34.3169 46.0965 34.466 46.2371C34.5256 46.2652 34.6151 46.3215 34.7343 46.3215Z" fill="#DFDFDF"/>
<path fill-rule="evenodd" clip-rule="evenodd" d="M10.8093 50.1142C11.1226 49.9438 11.4358 49.8018 11.749 49.6315C11.937 49.5464 11.9997 49.3192 11.8744 49.1489C11.8117 49.0637 11.749 49.0069 11.6551 48.9785C11.6238 48.9785 11.5925 48.9785 11.5611 48.9785C11.4984 48.9785 11.4358 49.0069 11.3419 49.0353C11.0285 49.1773 10.684 49.3192 10.3707 49.4611C10.1827 49.5464 10.1201 49.8018 10.2141 49.9722C10.3707 50.1709 10.6213 50.1993 10.8093 50.1142Z" fill="#FEDD00"/>
<path fill-rule="evenodd" clip-rule="evenodd" d="M14.0197 48.9712C14.5459 48.8541 15.0722 48.737 15.5984 48.5906C15.7368 48.5613 15.7922 48.4149 15.7645 48.2685C15.7368 48.1513 15.6261 48.0928 15.543 48.0928C15.5153 48.0928 15.5153 48.0928 15.4876 48.0928C14.9613 48.2099 14.4351 48.3271 13.8811 48.4442C13.7426 48.4735 13.6872 48.6199 13.7149 48.7663C13.7426 48.942 13.8811 49.0005 14.0197 48.9712Z" fill="#FEDD00"/>
<path fill-rule="evenodd" clip-rule="evenodd" d="M17.9873 48.0229C18.3364 48.1529 18.6854 48.2504 19.0345 48.3804C19.1419 48.4128 19.2493 48.3479 19.303 48.2179C19.3298 48.0879 19.2761 47.9579 19.1687 47.893C18.8197 47.7629 18.4706 47.633 18.1215 47.5029C18.0947 47.5029 18.0947 47.5029 18.0679 47.5029C17.9604 47.5029 17.8799 47.5679 17.853 47.698C17.7993 47.8604 17.8799 47.9904 17.9873 48.0229Z" fill="#FEDD00"/>
<path fill-rule="evenodd" clip-rule="evenodd" d="M21.3203 48.4219C21.8959 48.6118 22.4428 48.8018 23.0185 48.9646C23.1912 49.0188 23.3638 48.9104 23.4214 48.7475C23.479 48.5847 23.3638 48.4219 23.1912 48.3677C22.6154 48.2048 22.0686 48.0149 21.493 47.825C21.4642 47.825 21.4354 47.7979 21.4066 47.7979C21.2627 47.7979 21.1188 47.9063 21.09 48.042C21.0613 48.1234 21.09 48.2048 21.1188 48.2862C21.1764 48.3405 21.234 48.3948 21.3203 48.4219Z" fill="#FEDD00"/>
<path fill-rule="evenodd" clip-rule="evenodd" d="M26.031 49.2244C26.1482 49.2839 26.2362 49.2839 26.3534 49.2541C26.6464 49.2244 26.9394 49.1648 27.2324 49.1052C27.3497 49.0755 27.4961 49.0457 27.6133 49.0159C27.7892 48.9563 27.965 48.9266 28.1701 48.8373C28.3459 48.7777 28.4924 48.5693 28.4339 48.3906C28.4045 48.3012 28.3459 48.2119 28.258 48.1523C28.1994 48.1226 28.1408 48.0928 28.0822 48.0928C28.0529 48.0928 28.0236 48.0928 27.965 48.0928C27.7892 48.1226 27.5841 48.1523 27.4082 48.1821C26.9687 48.2417 26.5585 48.3012 26.119 48.3607C26.031 48.3607 25.9138 48.4799 25.8552 48.5693C25.7966 48.6585 25.7673 48.7777 25.8259 48.8968C25.8552 49.0755 25.9431 49.1648 26.031 49.2244Z" fill="#FEDD00"/>
<path fill-rule="evenodd" clip-rule="evenodd" d="M29.8729 48.0868C30.141 48.0044 30.4092 47.9495 30.6774 47.8671C30.7965 47.8397 30.9157 47.8122 31.0349 47.7573C31.2136 47.7023 31.3626 47.6474 31.5414 47.565C31.601 47.5376 31.6308 47.5376 31.6606 47.4826C31.6903 47.4277 31.6903 47.4003 31.6903 47.3453C31.6606 47.2629 31.601 47.208 31.5116 47.208C31.4818 47.208 31.4818 47.208 31.452 47.208C31.1839 47.2904 30.8859 47.3728 30.588 47.4552C30.3198 47.5376 30.0516 47.5925 29.7835 47.6749C29.6643 47.7023 29.6047 47.8122 29.6346 47.922C29.6643 48.0594 29.7835 48.1143 29.8729 48.0868Z" fill="#FEDD00"/>
<path fill-rule="evenodd" clip-rule="evenodd" d="M33.4587 47.7981C33.7862 47.7981 34.0483 47.5357 34.0483 47.2077C34.0483 46.8796 33.7862 46.6172 33.4587 46.6172C33.1312 46.6172 32.8691 46.8796 32.8691 47.2077C32.8691 47.5357 33.1639 47.7981 33.4587 47.7981Z" fill="#FEDD00"/>
<path fill-rule="evenodd" clip-rule="evenodd" d="M14.9277 21.0825C14.844 20.6648 14.7602 20.2194 14.7045 19.8018C14.6486 19.3284 14.5928 18.8552 14.6206 18.3541C14.6206 18.2427 14.6137 18.1243 14.6067 18.006C14.5997 17.8877 14.5928 17.7693 14.5928 17.658V16.9063C14.6206 16.0711 14.7882 15.2637 14.9836 14.4563C15.0673 14.0386 15.2069 13.621 15.3465 13.2312C15.4861 12.8136 15.6815 12.3682 15.8769 11.9505C15.9606 11.7974 16.0373 11.6443 16.1141 11.4912C16.1909 11.338 16.2677 11.1849 16.3514 11.0318C16.6305 10.5306 16.9935 10.0852 17.3564 9.63973V9.63972C17.7472 9.19426 18.1659 8.74881 18.6405 8.35903C18.6528 8.34922 18.6651 8.33939 18.6774 8.32954C19.0855 8.0038 19.5206 7.65646 20.0083 7.44026C20.4828 7.21753 20.9574 7.05049 21.4878 6.93912V6.93912C21.7112 6.88343 21.9345 6.82775 22.1578 6.79992C22.3951 6.75815 22.6393 6.72335 22.8836 6.68855C23.1279 6.65375 23.3721 6.61895 23.6094 6.57719C24.056 6.5215 24.5305 6.46582 24.9772 6.46582H25.2843C25.8705 6.49366 26.4567 6.60503 27.015 6.77207C27.6012 6.96696 28.1596 7.21753 28.7179 7.4681C29.7508 7.94141 30.6719 8.66528 31.4257 9.52835C31.8444 10.0295 32.2352 10.5306 32.5702 11.0875C32.64 11.1988 32.7028 11.3172 32.7656 11.4355C32.8284 11.5538 32.8913 11.6721 32.961 11.7835C33.1843 12.1733 33.3797 12.5909 33.5472 12.9807C33.8543 13.6767 34.0776 14.3727 34.1893 15.1245C34.2451 15.4307 34.273 15.737 34.301 16.0432C34.3567 16.5722 34.3567 17.1012 34.301 17.6301C34.2172 18.2149 34.1335 18.7717 33.9939 19.3563C33.6031 21.1103 32.9052 22.8086 32.0119 24.3677C31.2141 25.7795 30.2265 27.0728 29.2459 28.3569C29.1628 28.4657 29.0799 28.5744 28.997 28.6831C28.4667 29.3792 27.9363 30.0752 27.4338 30.7712C27.3082 30.9522 27.1826 31.1262 27.0569 31.3002C26.9313 31.4742 26.8057 31.6482 26.6801 31.8292C26.4567 32.1633 26.2055 32.4974 25.9543 32.8036C25.6782 33.1577 25.416 33.5256 25.1579 33.8878C25.0507 34.0383 24.9442 34.1879 24.8376 34.335C24.6753 34.5431 24.5515 34.7513 24.4181 34.9755C24.391 35.0212 24.3635 35.0674 24.3351 35.1145C24.2756 35.2079 24.2211 35.3092 24.1664 35.4111C24.0416 35.6431 23.915 35.8784 23.7211 36.0332C23.6094 36.1446 23.4698 36.2281 23.3303 36.256C23.2884 36.256 23.2535 36.2629 23.2186 36.2699C23.1837 36.2768 23.1488 36.2838 23.1069 36.2838C22.8836 36.2838 22.6602 36.2003 22.4928 36.0332C22.2136 35.7549 22.1857 35.3372 22.3532 35.0031C22.3672 34.9753 22.3811 34.9543 22.3951 34.9335C22.409 34.9126 22.423 34.8917 22.437 34.8639C22.409 34.8361 22.3881 34.8082 22.3672 34.7804C22.3462 34.7525 22.3253 34.7247 22.2974 34.6969C21.9345 34.14 21.5437 33.5832 21.1529 33.0543C21.0291 32.8795 20.905 32.7047 20.7809 32.5298C19.8958 31.2836 19.005 30.0294 18.2217 28.7109C18.1686 28.6214 18.1149 28.5315 18.0612 28.4413C17.6632 27.7736 17.254 27.0868 16.9097 26.4002C16.4631 25.5092 16.0443 24.6183 15.7093 23.6996C15.5419 23.3097 15.4023 22.92 15.2907 22.5024C15.151 22.029 15.0394 21.5558 14.9277 21.0825ZM16.6835 14.6171C16.5666 15.0923 16.4463 15.5816 16.3794 16.0711C16.2794 16.9922 16.3359 17.9356 16.3889 18.8217C16.3951 18.9265 16.4014 19.0305 16.4072 19.1336C16.5748 20.108 16.7702 21.0825 17.0493 22.029C17.0748 22.1155 17.1003 22.2039 17.1261 22.2934C17.2417 22.6939 17.3642 23.1178 17.5238 23.5047L18.0263 24.7575C18.1938 25.1752 18.3892 25.5649 18.5846 25.9547C18.6823 26.1495 18.787 26.3445 18.8917 26.5394C18.9964 26.7343 19.1011 26.9291 19.1987 27.124C19.3169 27.336 19.4328 27.5482 19.5484 27.7596C19.8424 28.2976 20.1343 28.8316 20.455 29.3513C21.2162 30.6004 22.0423 31.7849 22.8762 32.9805C22.9902 33.1441 23.1044 33.3078 23.2186 33.4718L23.8885 32.4695C24.1397 32.0798 24.419 31.69 24.6981 31.328C24.8734 31.1008 25.0377 30.8626 25.2047 30.6202C25.3037 30.4766 25.4038 30.3316 25.5077 30.1866C26.2794 29.087 27.1034 28.0048 27.9245 26.9263C28.143 26.6393 28.3613 26.3527 28.5784 26.066C29.1087 25.3422 29.6391 24.5904 30.1416 23.8109C30.5446 23.1828 30.8795 22.4866 31.2077 21.8043C31.2432 21.7305 31.2786 21.657 31.314 21.5836C31.5374 20.999 31.7606 20.4143 31.9561 19.8018V19.8017C32.0677 19.4398 32.1794 19.0779 32.2631 18.6881C32.3469 18.3262 32.4027 17.9921 32.4585 17.6301C32.5423 17.1012 32.5423 16.5722 32.4864 16.0432C32.4864 15.8483 32.4585 15.6535 32.4307 15.4586H32.4306C32.3748 15.0409 32.291 14.6512 32.1515 14.2614C32.1236 14.1779 32.0886 14.0874 32.0538 13.9969C32.0189 13.9064 31.984 13.8159 31.9561 13.7324C31.5652 12.8136 31.1186 11.9227 30.5045 11.1153C30.2811 10.8369 30.0299 10.5585 29.7786 10.3079C29.5274 10.0573 29.2762 9.83461 28.997 9.61188C28.6341 9.33347 28.2433 9.11075 27.8525 8.91585C27.6571 8.80449 27.4897 8.72097 27.2943 8.63744C27.2384 8.6096 27.1826 8.58872 27.1267 8.56783C27.0709 8.54695 27.015 8.52607 26.9592 8.49823C26.4847 8.33119 26.0101 8.19198 25.5355 8.10846C25.2843 8.08062 25.033 8.08062 24.7818 8.08062C24.5261 8.08062 24.2939 8.10397 24.0421 8.1293C24.019 8.13162 23.9957 8.13396 23.9723 8.13629C23.5257 8.19198 23.1069 8.24766 22.6602 8.33119C22.6359 8.33581 22.6115 8.34045 22.587 8.34509C22.0231 8.452 21.4367 8.56318 20.9016 8.77665C20.5666 8.91585 20.2596 9.11074 19.9525 9.33347C19.3384 9.83461 18.8079 10.3914 18.3334 11.0039C18.0263 11.4216 17.7472 11.8392 17.5238 12.3125C17.4122 12.5074 17.3284 12.7023 17.2447 12.8971C17.2065 12.9986 17.167 13.1001 17.1272 13.202C16.9925 13.547 16.8563 13.8959 16.7702 14.2614C16.7421 14.3789 16.7129 14.4975 16.6835 14.6171Z" fill="#5159F6"/>
<path fill-rule="evenodd" clip-rule="evenodd" d="M20.0379 20.1926C19.8281 19.8503 19.6246 19.5182 19.4605 19.1471C19.2933 18.7611 19.1262 18.375 19.1262 17.8788C19.0704 17.4927 19.0146 17.1067 19.0146 16.7207C19.0146 16.1141 19.0983 15.5075 19.2654 14.9285C19.3491 14.4046 19.5162 13.9083 19.8228 13.4671C20.0178 13.1639 20.2686 12.8606 20.5194 12.6124C20.7145 12.3918 20.9374 12.1988 21.1603 12.0334C21.2159 11.992 21.2787 11.9438 21.3414 11.8955C21.4041 11.8473 21.4667 11.799 21.5225 11.7576C21.634 11.7025 21.7733 11.6198 21.8847 11.5371C22.1912 11.3441 22.5534 11.1511 22.9157 10.9856C23.278 10.8202 23.6124 10.7099 24.0025 10.6272C24.1696 10.5996 24.3368 10.5996 24.504 10.5996H24.5876C24.7547 10.5996 24.9498 10.6272 25.117 10.6547C25.2563 10.6823 25.3678 10.7099 25.4792 10.765C25.73 10.765 25.9808 10.765 26.2316 10.7926C26.304 10.7991 26.375 10.8041 26.4447 10.809C26.6699 10.8248 26.8826 10.8397 27.0954 10.9029C27.4298 10.9856 27.7921 11.1235 28.0985 11.2889C28.5165 11.5095 28.9623 11.7852 29.2967 12.1437C29.3385 12.1988 29.3803 12.2471 29.4221 12.2953C29.4639 12.3436 29.5057 12.3918 29.5475 12.447C29.5615 12.4745 29.5823 12.5021 29.6032 12.5297C29.6241 12.5572 29.645 12.5848 29.6589 12.6124C29.7426 12.7778 29.8261 12.9708 29.8818 13.1363C29.8958 13.2052 29.9167 13.2741 29.9376 13.343C29.9585 13.412 29.9794 13.4809 29.9933 13.5499C30.0072 13.6187 30.0211 13.6807 30.0351 13.7427C30.049 13.8048 30.0629 13.8669 30.0769 13.9359C30.0769 14.0737 30.1048 14.2114 30.1325 14.3492L30.1326 14.3495C30.1466 14.4875 30.1605 14.6324 30.1744 14.7773C30.1884 14.9219 30.2023 15.0665 30.2163 15.2042V15.9763C30.2023 16.1141 30.1954 16.2451 30.1884 16.3762C30.1814 16.5071 30.1744 16.638 30.1605 16.7759C30.1326 17.0792 30.1048 17.3824 30.049 17.6858C30.049 17.7961 30.0211 17.9339 29.9933 18.0442C29.9655 18.182 29.9376 18.3199 29.9097 18.4302C29.9058 18.4495 29.9019 18.4693 29.898 18.4896C29.8735 18.6138 29.8462 18.7528 29.7982 18.8714C29.7704 18.9403 29.7495 19.0092 29.7286 19.0781C29.7077 19.1471 29.6868 19.2161 29.6589 19.2849C29.5932 19.5018 29.4929 19.7187 29.3989 19.9222C29.3734 19.9773 29.3483 20.0316 29.3246 20.0846C28.8509 21.0772 28.1821 21.9871 27.2626 22.5937C26.956 22.8143 26.5938 23.0072 26.2038 23.1175C25.8693 23.2278 25.535 23.2829 25.1727 23.2829C24.9068 23.3093 24.6663 23.2854 24.4027 23.2591C24.3901 23.2579 24.3774 23.2566 24.3647 23.2554C24.086 23.2278 23.8074 23.2002 23.5566 23.1451C23.5217 23.1352 23.4859 23.1253 23.4496 23.1154C23.2827 23.0694 23.1037 23.02 22.9436 22.9521C22.8785 22.9245 22.8136 22.9 22.7485 22.8755C22.6185 22.8265 22.4885 22.7774 22.3584 22.704C22.0241 22.5386 21.7175 22.3179 21.4389 22.0698C21.1603 21.8216 20.9095 21.5183 20.6866 21.215C20.654 21.1668 20.6215 21.1208 20.5896 21.0759C20.5124 20.9668 20.4392 20.8634 20.38 20.7463C20.3243 20.6636 20.2686 20.5809 20.2129 20.4705C20.1989 20.4568 20.192 20.443 20.185 20.4292C20.178 20.4154 20.171 20.4017 20.1571 20.3878C20.1173 20.3222 20.0775 20.2573 20.0379 20.1926ZM20.4915 15.1215C20.38 15.4248 20.3243 15.7557 20.2686 16.0865C20.2547 16.2382 20.2477 16.3829 20.2407 16.5277C20.2338 16.6724 20.2268 16.8172 20.2129 16.9689C20.2965 17.4376 20.4079 17.8788 20.5194 18.3199C20.5435 18.4033 20.5623 18.4816 20.5805 18.557C20.6044 18.6559 20.627 18.7499 20.6587 18.8438C20.7595 19.0434 20.875 19.2284 20.9945 19.4201C21.04 19.4932 21.0863 19.5673 21.1324 19.6434C21.1882 19.7261 21.2438 19.8019 21.2996 19.8777C21.3553 19.9536 21.4111 20.0294 21.4667 20.1121C21.5086 20.1535 21.5434 20.2018 21.5782 20.25C21.6131 20.2982 21.6478 20.3465 21.6897 20.3878C21.8569 20.5809 22.052 20.7739 22.2749 20.9393C22.5256 21.1323 22.8042 21.2702 23.0829 21.408C23.4172 21.5183 23.7238 21.6011 24.0582 21.6562C24.2811 21.6838 24.5318 21.6838 24.7547 21.6562C24.9498 21.6287 25.1449 21.5735 25.34 21.5183C25.535 21.4631 25.73 21.408 25.8972 21.3253C26.148 21.215 26.3988 21.0772 26.6217 20.9117C26.6635 20.8842 26.7123 20.8497 26.761 20.8152C26.8098 20.7807 26.8586 20.7463 26.9004 20.7188C26.9236 20.7014 26.9456 20.6854 26.9667 20.67C27.0467 20.6118 27.1129 20.5636 27.179 20.4981C27.2905 20.443 27.374 20.3603 27.4576 20.2775C27.5969 20.1397 27.7363 20.0018 27.8477 19.864C28.015 19.6159 28.1543 19.3401 28.2935 19.0644C28.3622 18.9059 28.4121 18.7288 28.4585 18.5636C28.4687 18.5277 28.4786 18.4923 28.4886 18.4577C28.5376 18.3126 28.565 18.1463 28.5898 17.996C28.5932 17.975 28.5967 17.9542 28.6001 17.9339C28.6837 17.1894 28.6837 16.445 28.6001 15.7281C28.5165 15.2594 28.405 14.8182 28.2379 14.4046C28.2121 14.3587 28.1873 14.3138 28.1629 14.2696C28.0554 14.0749 27.9561 13.8951 27.8198 13.7153C27.7816 13.6775 27.7467 13.6396 27.7128 13.6029C27.6478 13.5326 27.5866 13.4663 27.5134 13.412C27.3648 13.3017 27.1914 13.2159 27.018 13.1302C26.9313 13.0873 26.8446 13.0444 26.761 12.9984L26.7609 12.9984C26.3987 12.8605 26.0365 12.7227 25.6464 12.5848C25.535 12.5573 25.4305 12.5228 25.326 12.4883C25.2215 12.4539 25.117 12.4194 25.0055 12.3918C24.8384 12.3367 24.6433 12.3091 24.4483 12.2815C24.1975 12.254 23.9467 12.254 23.668 12.2815C23.6402 12.2815 23.6193 12.2884 23.5984 12.2953C23.5775 12.3022 23.5566 12.3091 23.5287 12.3091C23.5106 12.3136 23.4918 12.3181 23.4725 12.3226C23.3728 12.3464 23.2599 12.3732 23.1665 12.4194C22.9436 12.5297 22.7207 12.64 22.5256 12.7503C22.3027 12.8881 22.0798 13.026 21.8847 13.1639C21.7175 13.3017 21.5504 13.4396 21.4111 13.605C21.3693 13.6602 21.3205 13.7153 21.2717 13.7704C21.2229 13.8256 21.1742 13.8807 21.1324 13.9359C20.9652 14.1565 20.8259 14.377 20.6866 14.6252C20.6029 14.7906 20.5472 14.9561 20.4915 15.1215Z" fill="#5159F6"/>
<path fill-rule="evenodd" clip-rule="evenodd" d="M28.446 24.3127C28.4182 24.3127 28.3903 24.3127 28.3625 24.3127C27.834 24.4874 27.3053 24.6911 26.8046 24.8948C26.8881 24.8366 26.9159 24.7202 26.8602 24.6037C26.8046 24.4874 26.6655 24.4583 26.5542 24.5165C26.3873 24.6037 26.2204 24.6911 26.0534 24.7784C25.8309 24.8948 25.5805 25.0113 25.3302 25.1277C25.2467 25.1568 25.1632 25.215 25.052 25.2441C24.9129 25.2732 24.746 25.2732 24.6069 25.2732C24.5512 25.2732 24.4678 25.2732 24.4121 25.2732C24.3009 25.2732 24.1895 25.2732 24.1061 25.2441C23.9392 25.2441 23.7722 25.215 23.6053 25.215C23.3271 25.1859 23.049 25.1859 22.7429 25.1277C22.7151 25.1277 22.6873 25.1277 22.6594 25.0986C22.4648 24.9531 22.27 24.8075 22.0752 24.6328C21.8249 24.4292 21.5745 24.2254 21.3241 24.0216C21.0738 23.7888 20.8233 23.585 20.573 23.3521C20.5173 23.323 20.4896 23.2939 20.4061 23.2939C20.3504 23.2939 20.2948 23.323 20.2391 23.3521C20.1557 23.4395 20.1557 23.6141 20.2391 23.6724C20.4617 23.8761 20.6842 24.0798 20.9347 24.2836C21.1016 24.4292 21.2963 24.5746 21.4632 24.7202H21.4353C21.2963 24.6328 21.1572 24.5456 21.0181 24.4583C20.8512 24.3127 20.6842 24.138 20.5173 23.9634C20.4339 23.8761 20.3226 23.7597 20.2391 23.6724C20.1557 23.585 20.0722 23.4686 19.9888 23.3521C19.9609 23.2939 19.8775 23.2939 19.8219 23.2939C19.7662 23.2939 19.6828 23.323 19.6549 23.3521C19.5715 23.4395 19.5715 23.585 19.6549 23.7015C19.7662 23.8179 19.8497 23.9634 19.9609 24.0798C20.0722 24.2254 20.2113 24.3418 20.3226 24.4874C20.4339 24.6037 20.5451 24.7202 20.6842 24.8366C20.8233 24.9531 20.9625 25.0695 21.1293 25.1568C21.185 25.1859 21.2407 25.215 21.2963 25.2732C21.2685 25.2732 21.2407 25.2441 21.2129 25.2441C21.185 25.1859 21.1016 25.1859 21.0459 25.1859C21.0459 25.1859 21.0459 25.1859 21.0181 25.1859C20.9625 25.1568 20.9068 25.1277 20.8233 25.1277C20.4339 24.9822 20.0444 24.8075 19.6549 24.6328C19.6271 24.6328 19.5993 24.6328 19.5993 24.6328C19.5437 24.6328 19.488 24.662 19.4602 24.662C19.4046 24.6911 19.3489 24.7493 19.3211 24.8366C19.2932 24.924 19.3211 24.9822 19.3489 25.0695C19.3768 25.1277 19.4324 25.1859 19.5158 25.215C19.9609 25.3896 20.4061 25.5934 20.8512 25.7681C20.9347 25.7972 21.0181 25.8263 21.1016 25.8554C21.2963 26.03 21.5189 26.2047 21.7414 26.3502C21.9361 26.4666 22.1309 26.583 22.3534 26.6995C22.4926 26.7577 22.6038 26.8159 22.7429 26.8741C22.9099 26.9323 23.0768 27.0197 23.2437 27.0488C23.355 27.0779 23.4662 27.0197 23.4941 26.9032C23.4941 26.9032 23.4941 26.9032 23.4941 26.8741C23.5497 26.8741 23.6053 26.8741 23.6331 26.8741C23.6888 26.845 23.7722 26.8159 23.8279 26.8159C24.0783 26.9032 24.3287 26.9615 24.6069 27.0488C24.5234 27.107 24.4399 27.1361 24.3287 27.1942C24.273 27.2234 24.2452 27.3107 24.3008 27.3689C24.3287 27.4271 24.4121 27.4271 24.4678 27.4271C24.6347 27.3398 24.8016 27.2525 24.9407 27.1652C25.0798 27.1942 25.2467 27.2525 25.3858 27.2816C25.6083 27.3398 25.8588 27.398 26.0813 27.4271C26.1648 27.4271 26.2204 27.4271 26.276 27.398C26.3317 27.3689 26.3873 27.3107 26.3873 27.2525C26.4151 27.1361 26.3595 26.9615 26.2204 26.9323C26.0256 26.9032 25.8309 26.845 25.6362 26.7868C26.0813 26.5539 26.4985 26.3502 26.9437 26.1173C27.0272 26.0882 27.0828 26.0591 27.1663 26.0009C27.2219 25.9718 27.2219 25.8844 27.1941 25.8263C27.1663 25.7972 27.1663 25.7681 27.1384 25.7681H27.1106C27.0828 25.7681 27.0828 25.7681 27.055 25.7972C26.6377 26.0009 26.2204 26.2047 25.8309 26.4084C25.664 26.4957 25.4971 26.583 25.358 26.6703C25.3301 26.6412 25.3023 26.6121 25.2467 26.583C25.1911 26.5539 25.1354 26.5539 25.052 26.5248C24.9963 26.4957 24.9407 26.4667 24.8572 26.4667C24.8572 26.4667 24.8294 26.4667 24.8294 26.4375C25.2467 26.292 25.664 26.1173 26.0813 25.9718C26.8046 25.6808 27.5001 25.3896 28.1956 25.0986C28.3347 25.0404 28.446 24.9822 28.5851 24.924C28.6407 24.8948 28.6685 24.8657 28.6963 24.8075C28.752 24.7202 28.752 24.6328 28.7242 24.5456C28.6963 24.4292 28.5851 24.3127 28.446 24.3127Z" fill="#5159F6"/>
<path fill-rule="evenodd" clip-rule="evenodd" d="M25.3794 29.7336C24.8426 29.562 24.3341 29.3334 23.8255 29.1047C23.5713 28.9903 23.317 28.8759 23.0627 28.7616L23.0345 28.7331C23.1758 28.7045 23.317 28.6473 23.4865 28.6187C23.656 28.5615 23.8537 28.533 24.0233 28.4758C24.0798 28.4472 24.1363 28.4472 24.1928 28.4186C24.3341 28.4758 24.4753 28.533 24.6166 28.5901C24.7013 28.6187 24.8144 28.5615 24.8426 28.4758C24.8426 28.4186 24.8426 28.39 24.8144 28.3329C24.7861 28.3042 24.7578 28.2757 24.7296 28.2757C24.8991 28.2185 25.0968 28.1614 25.2664 28.0756C25.2946 28.0756 25.3229 28.0469 25.3512 28.0184C25.3794 27.9898 25.3794 27.9612 25.3512 27.9041C25.3229 27.8469 25.2664 27.7897 25.2099 27.7897H25.1817C24.8991 27.9041 24.5884 27.9898 24.3058 28.0756C24.0798 27.9898 23.8255 27.8755 23.5995 27.7897C23.4582 27.7325 23.2887 27.6468 23.1475 27.5896C23.1475 27.5896 23.1475 27.561 23.1758 27.561C23.204 27.5038 23.1475 27.418 23.091 27.418C22.7237 27.3037 22.3846 27.1894 22.0456 27.0464C21.7067 26.9036 21.3676 26.7892 21.0286 26.6463C20.746 26.5319 20.4918 26.389 20.2092 26.2747C20.181 26.2461 20.1528 26.2461 20.0962 26.2461C20.068 26.2461 20.068 26.2461 20.0397 26.2461C19.9832 26.2461 19.955 26.3032 19.9268 26.3319C19.8984 26.389 19.8984 26.4176 19.8984 26.4747C19.8984 26.5319 19.955 26.5605 19.9832 26.5891C20.5765 26.8463 21.1698 27.1322 21.7631 27.3895C22.1304 27.561 22.4977 27.704 22.865 27.8755C23.1474 27.9898 23.43 28.1327 23.7408 28.2471C23.4018 28.3614 23.0345 28.4472 22.6954 28.533C22.6954 28.533 22.6954 28.533 22.6672 28.533C22.6672 28.5043 22.6672 28.4758 22.6672 28.4472C22.6672 28.4186 22.639 28.39 22.6106 28.3614C22.4695 28.2471 22.3282 28.1327 22.1587 28.0184L22.1869 28.0469C21.7914 27.7325 21.3675 27.4181 20.972 27.0751C20.9438 27.0464 20.9155 27.0179 20.8591 27.0179C20.8308 27.0179 20.7743 27.0464 20.746 27.0751C20.7178 27.1036 20.6896 27.1322 20.6896 27.1894C20.6896 27.218 20.7178 27.2752 20.746 27.3037C20.8025 27.3609 20.8873 27.4181 20.9438 27.4752C20.9155 27.4752 20.8591 27.5038 20.8591 27.5325C20.8025 27.6182 20.8308 27.704 20.9155 27.7325C21.2828 27.9612 21.6219 28.1899 21.9891 28.4186L21.9609 28.4472C21.9327 28.5043 21.9327 28.533 21.9327 28.5901C21.9327 28.6187 21.9891 28.6758 22.0174 28.7045C22.4412 28.9046 22.865 29.0761 23.2887 29.2762C23.3453 29.3334 23.43 29.362 23.4865 29.4191C23.7973 29.6192 24.1081 29.8193 24.4189 30.0194C24.4753 30.048 24.5884 30.048 24.6166 29.9622C24.6449 29.9336 24.6449 29.8764 24.6166 29.8479C24.6449 29.8765 24.7013 29.8764 24.7296 29.9051C24.8991 29.9622 25.0686 30.0194 25.2381 30.0766C25.3229 30.1052 25.4359 30.048 25.4641 29.9622C25.5489 29.8479 25.4641 29.7621 25.3794 29.7336Z" fill="#5159F6"/>
<path fill-rule="evenodd" clip-rule="evenodd" d="M53.8232 30.2543C54.6028 30.7748 56.1401 31.1869 57.5475 31.1869C60.9903 31.1869 62.6576 29.2351 62.6576 26.9798C62.6576 24.8329 61.4017 23.6402 58.9332 22.6861C56.9196 21.9054 56.0318 21.2331 56.0318 19.8669C56.0318 18.8694 56.7897 17.6767 58.7817 17.6767C60.1025 17.6767 61.0769 18.1103 61.5532 18.3706L62.0729 16.8309C61.4233 16.4622 60.3407 16.1152 58.8466 16.1152C56.0102 16.1152 54.1263 17.8067 54.1263 20.0838C54.1263 22.1439 55.5988 23.38 57.9806 24.2257C59.951 24.9847 60.7304 25.7654 60.7304 27.1316C60.7304 28.6062 59.6045 29.6255 57.6775 29.6255C56.3782 29.6255 55.1441 29.1918 54.2996 28.6713L53.8232 30.2543Z" fill="#47489E"/>
<path fill-rule="evenodd" clip-rule="evenodd" d="M65.2588 16.3535V30.9697H67.1426V24.117H74.2014V30.9697H76.1068V16.3535H74.2014V22.4689H67.1426V16.3535H65.2588Z" fill="#47489E"/>
<path fill-rule="evenodd" clip-rule="evenodd" d="M78.5176 23.792C78.5176 19.1513 81.3974 16.1152 85.2949 16.1152C89.279 16.1152 91.8553 19.1729 91.8553 23.5101C91.8553 28.5412 88.8025 31.2085 85.0783 31.2085C81.2242 31.2085 78.5176 28.2159 78.5176 23.792ZM89.8635 23.5968C89.8635 20.691 88.3478 17.6549 85.2083 17.6549C82.0902 17.6549 80.5313 20.5392 80.5313 23.7486C80.5313 26.8714 82.2202 29.6689 85.1865 29.6689C88.1746 29.6689 89.8635 26.9148 89.8635 23.5968Z" fill="#47489E"/>
<path fill-rule="evenodd" clip-rule="evenodd" d="M98.6231 30.9697L100.701 23.3581C101.242 21.4714 101.567 20.0402 101.827 18.5872H101.87C102.065 20.0618 102.368 21.4931 102.823 23.3581L104.663 30.9697H106.634L110.77 16.3535H108.843L106.915 23.7267C106.461 25.5483 106.049 27.1748 105.747 28.7795H105.703C105.486 27.2398 105.097 25.505 104.685 23.7701L102.909 16.3535H100.939L98.9905 23.7267C98.4927 25.6133 98.0384 27.3482 97.7994 28.8011H97.7569C97.4962 27.3916 97.1071 25.57 96.6735 23.7484L94.9413 16.3535H92.9492L96.6518 30.9697H98.6231Z" fill="#47489E"/>
<path fill-rule="evenodd" clip-rule="evenodd" d="M127.763 30.9706H130.954L130.162 16.5186H125.901L124.359 21.3216C123.889 22.9298 123.396 24.8381 122.989 26.5107H122.925C122.603 24.8167 122.155 23.0156 121.705 21.343L120.292 16.5186H115.946L115.024 30.9706H118.044L118.301 25.4814C118.408 23.6803 118.472 21.4503 118.557 19.499H118.6C118.942 21.386 119.435 23.4444 119.906 25.1383L121.448 30.7348H123.995L125.751 25.0954C126.308 23.4015 126.907 21.343 127.357 19.499H127.421C127.421 21.6003 127.485 23.7017 127.55 25.4385L127.763 30.9706Z" fill="#47489E"/>
<path fill-rule="evenodd" clip-rule="evenodd" d="M142.08 22.2008H136.77V19.1988H142.4V16.5186H133.494V30.9706H142.7V28.2903H136.77V24.8596H142.08V22.2008Z" fill="#47489E"/>
<path fill-rule="evenodd" clip-rule="evenodd" d="M57.0928 53.3592C57.7876 53.4552 58.8897 53.5512 60.3273 53.5512C62.9627 53.5512 64.7836 53.0713 65.9097 52.0394C66.7243 51.2476 67.2754 50.1918 67.2754 48.8001C67.2754 46.4005 65.4785 45.1288 63.9451 44.7448V44.6968C65.6462 44.0729 66.6764 42.7052 66.6764 41.1455C66.6764 39.8737 66.1733 38.9139 65.3346 38.29C64.3284 37.4742 62.9867 37.1143 60.9023 37.1143C59.4408 37.1143 58.0033 37.2582 57.0928 37.4501V53.3592ZM59.1772 38.8659C59.5126 38.794 60.0637 38.7219 61.0221 38.7219C63.1304 38.7219 64.568 39.4658 64.568 41.3615C64.568 42.9211 63.2742 44.0729 61.07 44.0729H59.1772V38.8659ZM60.9023 45.6566H59.1772V51.8235C59.5845 51.8955 60.1835 51.9194 60.9263 51.9194C63.0826 51.9194 65.0711 51.1276 65.0711 48.7761C65.0711 46.5684 63.1783 45.6566 60.9023 45.6566Z" fill="#47489E"/>
<path fill-rule="evenodd" clip-rule="evenodd" d="M70.1025 37.2344V53.4074H72.187V37.2344H70.1025Z" fill="#47489E"/>
<path fill-rule="evenodd" clip-rule="evenodd" d="M75.043 52.6157C75.9055 53.1916 77.6066 53.6476 79.1639 53.6476C82.9733 53.6476 84.8182 51.488 84.8182 48.9924C84.8182 46.6169 83.4286 45.2971 80.6973 44.2413C78.4691 43.3774 77.4867 42.6336 77.4867 41.1219C77.4867 40.0181 78.3254 38.6984 80.5296 38.6984C81.9911 38.6984 83.0692 39.1783 83.5963 39.4662L84.1713 37.7625C83.4526 37.3546 82.2546 36.9707 80.6014 36.9707C77.4628 36.9707 75.3784 38.8423 75.3784 41.3619C75.3784 43.6415 77.0076 45.0092 79.6431 45.945C81.8234 46.7848 82.6859 47.6486 82.6859 49.1604C82.6859 50.7921 81.44 51.9198 79.3076 51.9198C77.8701 51.9198 76.5045 51.44 75.5701 50.8641L75.043 52.6157Z" fill="#47489E"/>
<path fill-rule="evenodd" clip-rule="evenodd" d="M87.6973 37.2344V53.4074H89.7816V45.8248H97.5924V53.4074H99.7003V37.2344H97.5924V44.0011H89.7816V37.2344H87.6973Z" fill="#47489E"/>
<path fill-rule="evenodd" clip-rule="evenodd" d="M103.326 53.4074H105.411V47.2405L106.944 45.4649L112.263 53.4074H114.73L108.429 44.0971L114.275 37.2344H111.688L106.752 43.3052C106.345 43.8331 105.914 44.409 105.482 45.0329H105.411V37.2344H103.326V53.4074Z" fill="#47489E"/>
<path fill-rule="evenodd" clip-rule="evenodd" d="M124.697 44.0971H118.419V38.9861H125.056V37.2344H116.335V53.4074H125.415V51.6557H118.419V45.8248H124.697V44.0971Z" fill="#47489E"/>
<path fill-rule="evenodd" clip-rule="evenodd" d="M128.127 53.4074H130.212V47.2405L131.745 45.4649L137.064 53.4074H139.532L133.231 44.0971L139.076 37.2344H136.489L131.554 43.3052C131.146 43.8331 130.715 44.409 130.284 45.0329H130.212V37.2344H128.127V53.4074Z" fill="#47489E"/>
</svg>
