<svg fill="none" xmlns="http://www.w3.org/2000/svg" viewBox="0 0 143 64">
  <path fill-rule="evenodd" clip-rule="evenodd" d="M12.2 15.6c-.3 0-.5-.2-.6-.3l-.3-.1h-.1l.3 1v.3l1.3-.5-.6-.4zM114.5 14l-.6-.7-.6-.3h-.4v.5 1c.7-.3 1.2-.5 1.6-.5zm23.2 1.4l.4-1.2c.2-.3.5-.4.9-.3.6.2 1 .5 1.3.8v1.7c-.2.8-.5 1.4-1 1.8l2.4 8.7-1 .7c-.1 0 .1 1 .7 2.5.7 1.8 1 3 .9 3.7 0 .1 0 .3-.2.4-.2.3-.6.4-1.3.2l.4 1.5 1.7.2c.1 0 0 .2-.2.3-.5.2-1.5.3-3 .2 0 0-.2 0-.2-.2L139 35c-.3.2-.6.3-1 .3-.6.1-.9-.1-.9-.6 0-.3-.1-.6-.3-.7-.2-.3-.6-.2-1 .5l.6 1c.4.7.4 1.1.2 1.2 0 0-.2 0-.4-.3a110 110 0 01-1.7-1.7c-.3-.3-.4-.6-.4-.8.1-.5.3-.8.5-1h.3l.5-.6c.5-.4 1-.6 1.6-.8-.5-2.3-.7-4-.7-5.3l-.3-4.1h-.4c-1.3.2-2.3-.1-3-.8-.6-.6-1-1.4-1.1-2.4l-.7 1.4c-.6.8-1.5 1.4-2.7 1.8-.2.3-.6.7-1.2 1-1.1.6-2.6.7-4.5.4l.2 2.3c.2 1.8.4 3 .7 4l.3.9.8 2c1 1.8 2 2.8 3 2.7.2.1.3.3.2.4 0 .3-.7.4-2 .3l-.4-.2c-.3-.3-.5-.8-.5-1.4-1-1.2-1.6-2.2-2-2.9l-.3-1.4c-.3-1.1-.6-1.9-1-2.4V27c0-.6-.2-1-.3-1l-.1-.3v-.4c0-.4-.3-.6-.7-.7-.5 0-1 0-1.2.2a7.6 7.6 0 00-1.6 3.7c-.2.9-.2 1.6-.1 2.2 0 .2 0 .5-.3 1l-.6 1.2c-.5 1.2-.3 2.2.6 3l.2.6c-.2.3-.8.4-2 .2v-.8a28.6 28.6 0 00.4-5.6l.7-1.7c.5-1.2.7-2 .6-2.5 0 0 0-.2-.2-.3-.3-.3-.7-.4-1.3-.3h-1.7a8 8 0 01-3.4-.9l-1.6.2.1.3v.9c0 .9-.3 1.5-.9 2l-.4 1.4c-.3 1.1-.3 2-.2 2.4l.2.7.7 1.4c.8 1.4 1.8 2.2 3 2.5v.2c-.3.2-1 .2-2.2.1l-.8-1.2a6.3 6.3 0 00-1.7-1.9l-.3-.4v-1.7a36.4 36.4 0 00-.3-4.5c-.2 0-.4 0-.7.2-.5.2-1 .6-1.6 1.2a117.1 117.1 0 00-2.5 4.2l-.1 1.5c-.2 1-.2 2-.2 2.6a3 3 0 01-.7.5c-.5.2-.9.1-1-.4l.9-1.7.4-4.4c0-.2.1-.5.3-.7.2-.6.5-1 .8-1.3a34.4 34.4 0 002.6-7.6l-1.8 1.6c-.8.5-1.5.8-2.2.8-.7 0-1.3 0-2-.5a4.3 4.3 0 01-1.8-2.2c-.3-.7-.5-1.6-.7-3v-.4c-.3.2-.4.4-.5.6l-.4.9-.3 1.8v.6c-.3.4-1 .7-2 .9l-.3.3a3 3 0 00-.3 1l-.7.6a4.4 4.4 0 01-3.8.9l-.8.5c-.5.4-.8.7-.9 1L86 29l.4 3.1.2.5v1l.4 2.2c.4 1.4.8 2 1.4 2l.3.2H87h-.3c-.2 0-.4-.5-.4-1.2 0-.3 0-.7-.2-1 0-.9-.2-1.4-.5-1.8l-.4-3c0-.2-.2-.2-.4.2-.3.3-.5.9-.7 1.6v.1l.1.3A34 34 0 0080 38l-.5.5c-.3.1-.6-.2-.8-1.1l.6-.5 1.2-1.2 1.3-1.2c1-.8 1.4-1.4 1.4-1.6v-2.6c0-1.8-.2-2.7-.4-2.7h-2A7 7 0 0178 27l-.6.3c-.6.3-1.2.8-1.9 1.6l-1.6 2 .7 2.6.8 1.8c.7 1.3 1.4 2 2 2.3 0 .1 0 .2-.2.3-.4.2-1 .2-1.8.1v-.4c0-.3 0-.6-.2-1-1.3-2-2.2-3.4-2.8-4a2 2 0 01-.2-.8c0-.7.1-1.2.6-1.7l1-2.3-.1-2.4h-.4c-.2 0-.3.3-.4.6l.2.9c.1.5 0 .9-.2 1l-1 1.3c-.7 1-1 1.8-1 2.5l.4 2c.3 1.5.7 2.5 1.2 3l.5.9c.3.4 0 .5-.8.3a269.7 269.7 0 00-2.8-5.2c-.2-.6-.1-1.2.2-2l1-3c-.2-.2-.2-.5-.3-.8a3 3 0 01.2-1.7l-.2-1.8a19.6 19.6 0 01-6.6 2c-2.1.2-4-.2-5.5-1-1-.5-1.8-1.3-2.4-2.3-.6-1-1-2-1-3.2-.4.2-.7.4-1 .8l-.3.4a24.6 24.6 0 00-1 2L51 23.4l-1 .9c-.5.8-1.3 1.4-2.3 1.5H46l-.8.8 1 5 .6 2.5c0 .5.3 1 .7 1.4l.6.5c.4.1.7.3 1 .6l.2.3-2.4.3c0-.4-.8-2.1-2.2-5-.3-.6-.6-1.5-.8-2.6L44 28l-1.4 3c.1.4 0 1-.5 2l-.7 1.1V37h1.1c.2.3-.2.6-1 .6h-1.2l.4-3.8c0-1.2 0-2.2.4-2.8a1.5 1.5 0 01.5-.6c.6-1.3.8-2.2.7-2.7 0-.2-.1-.3-.2-.3h-.2l-3.2.4c-1.2-.5-2.1-.8-2.8-.8l-.6.1-.2.1c0 .5 0 1-.3 1.4l-.3.4c-.4.4-.6 1-.8 1.7l-.1 1.1.2 2.7 1.4 2.4.8.6c0 .4-.3.6-.7.5l-.6-.4-2.5-3.9-.2-1.7v-1l-1.6 2 .4 2.3v1.3a3.5 3.5 0 00-.8 2c-.5.4-.8.3-.9-.4V37c.4-.3.6-.6.7-.9v-.3l-.4-5 1.4-2.2.5-3c-.6-.1-1.2-.4-1.6-.8-1-1-1.4-2.8-1.2-5.5l-.9 1.5-.4 1.2c-.6.9-1.3 1.5-2.4 1.9-.2.3-.5.7-1 1-1 .5-2.3.7-4 .4l.3 2.2c.2 1.7.4 3 .7 3.8l.3.8.7 1.9c.9 1.8 1.8 2.7 2.7 2.6l.1.2.1.2c0 .3-.6.4-1.7.3l-.4-.2c-.2-.3-.4-.7-.5-1.4a23 23 0 01-1.7-2.7l-.4-1.3c-.2-1-.6-1.8-.9-2.3v-.8c0-.6-.2-1-.3-1l-.1-.7c0-.4-.2-.6-.6-.6-.5-.1-.8 0-1 .2-.3.1-.5.6-.8 1.2-.3.6-.5 1.4-.6 2.3v2c0 .3 0 .6-.2 1a25 25 0 00-.5 1.3c-.4 1.1-.2 2 .6 2.8v.2c.1.1.2.3.1.4 0 .3-.6.3-1.6.1l-.1-.7.1-1.8v-3.6l.7-1.6c.4-1.1.5-1.9.4-2.3l-.1-.4c-.3-.2-.6-.3-1.1-.2h-1.5c-1.1 0-2.1-.3-3-.8l-1.4.1.2 1.2c0 .8-.3 1.5-.8 1.9L7 31c-.2 1-.3 1.8 0 2.3v.6l.7 1.3c.7 1.4 1.6 2.1 2.6 2.4h.1v.2c-.3.2-.9.2-2 .2a12 12 0 00-.6-1.2A6 6 0 006.3 35l-.2-.4a30 30 0 00-.5-6L5 29c-.4.2-.9.6-1.3 1.2l-1 1.6c-.6 1.2-1 2-1 2.3l-.2 1.5v2.4c-.2.3-.4.4-.7.5-.4.3-.7.2-.8-.3l.7-1.7c.2-2 .3-3.5.2-4.1l.3-.8c.2-.5.4-.9.7-1.1a34.6 34.6 0 001.6-5.5c.3-1.6.6-2.4.7-2.6l1-1A8 8 0 016.8 20l1-1v-1a20.5 20.5 0 00-.5-3.1v-1.4l.1-.2c.2-.2.3-.4.5-.4-.2-1-.2-1.7.2-2 .4-.5 1-.5 1.4 0 .6.5.6 1 .3 1.5l-.3.6c.6.1 1.2.4 1.6.8l2.5 2.4c1.5.2 2.3.6 2.5 1l.9 1 1.5 1.4 1.5 1.2c1 .8 1.8 1.1 2.3 1h.2l.5-.3c.5-.4.8-1 1-2l-.2-1c0-.6.1-1 .5-1l1.5-.5c1-.3 1.6-.2 1.6.1h1.4c1 .2 1.5.6 1.5 1.2l-.1.2c-.3.2-.8.4-1.5.5a14 14 0 000 2.8c0 1.3.4 2.2 1 2.8.4.3.9.5 1.4.6l.4-2.1c.4-.8 1-1.4 1.7-1.8l.9-.3a42.6 42.6 0 01-.2-3l1.6-.3v-1.9l.2-.7.4-1.5.1-1.4a38 38 0 01.4-1.2c0-.4.2-.6.7-.7.3 0 .7 0 1 .2.2 0 .3.2.4.4v.5c0 .3-.2.6-.4 1l-.3.3-.2.2c.7.1 1.1.4 1.3 1 0 .4.3.7.6 1l1.8.8c.3 0 .5.2.7.4.1.2-.1.3-.7.1l-2-.4-.2.4v.7c1.4-.2 2.3-.3 2.5-.2.3.1.7.5 1.2 1l.6 1c.3.5 1 1.2 2.1 2l1.6 1c1.3 0 2-.2 2.2-.7l-.1-.7c.2-.7.5-1.4.9-2l.4-.5-.4-.4c0-.2.4-.4 1.3-.5H53c.4-.2.9-.2 1.6 0 .3 0 .7.1 1 .3.3.3.4.7.2 1-.2.3-.4.5-.8.6a6 6 0 003.3 5.3c1.5.8 3.2 1.1 5.3 1 2-.3 4.2-1 6.5-2l-.1-1.3.6-1a5 5 0 011.3-1.4l1.2-1c1-.8 1.8-1.2 2.5-1.2l.3-.3.7-.4-.2-.2c-.3-.1-.6-.3-.6-.6-.2-.4-.2-1-.1-1.6a110 110 0 01.8-3.3c.2-.8.6-1.2.9-1.2h.6l-.2-1c0-.4 0-.8.2-1 .2-.3.5-.5.8-.6.3 0 .6 0 1 .2.4.4.6.8.5 1.4-.1.6-.4 1-.8 1.4l1 .6c.3.4.4.7.3 1-.1 1 .2 2 1.2 3 .4.6.9 1.1 1.4 1.5.2.5 0 .5-.8 0-.5-.2-1-.5-1.4-.9a3 3 0 01-1-1.2l-.2-.4-.2-.6c-.3.2-.3.6-.1 1.1 0 .3.2.7.5 1.2v.6l.7.3 1.3-.1.9.3c.6.4 1.2.8 1.6 1.3l1.3 1.4 2.1 1.7h1c.6-.2 1-.6 1-1a16 16 0 01.9-3v-.6c.1-.5 0-.8-.1-.9h.8c.6 0 1 0 1.3-.4h.4c.3 0 .5.1.6.4l2.7-.1.6.5c.2.4 0 .8-.4 1.3a2 2 0 00-1 .2l.2.6.6 2.8a4 4 0 001.7 2.1c1 .6 2.2.6 3.4 0 .6-.4 1.6-1.2 2.8-2.5l.5-.5c1.1-.9 2-1.5 2.6-1.8l1.6-1.2-.4-.8a37.9 37.9 0 00-.7-3.6c-.2-.7-.3-1.2-.2-1.4l.4-.8c.3-.6.7-1 1.3-1.1a4 4 0 01-.3-1.4c0-.3 0-.5.2-.8l.7-.6c.6-.3 1-.3 1.5.1.4.5.4 1 0 1.5l-.5 1.1c1 .2 1.4.6 1.5 1l.5 1c.3.4.8.9 1.4 1.3l.6.5.6.8c0 .2.2.3.4.4l.3.3c1.1.2 1.8.6 2 1l1 1 1.7 1.5 1.6 1.2c1.2.8 2 1.2 2.6 1h.3l.5-.2c.6-.4 1-1.1 1.2-2.1l-.1-1c0-.6.2-1 .5-1.1l1.8-.5c1.2-.3 1.8-.2 1.8.1h1.7c1 .2 1.6.6 1.7 1.3l-.2.2c-.3.2-.9.4-1.8.5l-1.2 1.4c.2 1.2.5 2 1.1 2.6.8.7 1.8 1 3.2.7l-.2-1.7v-.9c.2-.6.4-1.1.9-1.5l.2-.3.6-.9.2-.6v-.6z" fill="#2ECC71"/>
  <path fill-rule="evenodd" clip-rule="evenodd" d="M26 49.6l.1 1c.1.2.3.4.5.4h.7l-1.6 1.5c-.7.6-1.6.8-2.5.8-.2-1.2-.3-2.9-.2-5v-5.4c0-.2-.2-.3-.5-.3l-.7.2 1.8-1.8c.8-.5 1.6-.7 2.5-.4V48a84.2 84.2 0 002.1-2 4 4 0 013.4-1.3l.3.8.3 1c-.4-.2-.9-.3-1.5-.2-.5 0-1 0-1.5.2.4.4.8 1.3 1.3 2.5.6 1 1.3 1.5 2.3 1.6l-1.4 1.8c-.6.6-1.2 1-1.8.9-.6 0-1.2-.7-1.8-1.9a41 41 0 00-.7-1.5 4 4 0 00-.8-1.1c-.2 0-.2.3-.2.8zM15 41.6c0 .4-.3.8-.7 1.2l-1 .7c-.6-.2-1.1-.6-1.4-1.1 0-.8.5-1.4 1.3-1.6.9-.2 1.4 0 1.8.8zM51.5 48.8c0 1 .2 1.8.7 2.4.5.8 1.2 1 2 .5.5-.5.8-1.4.8-2.5s-.2-2-.6-2.7c-.9-.6-1.6-.6-2.2 0-.5.4-.7 1.2-.7 2.3zm5.7-3.6a3 3 0 011.1 2.4c0 1-.4 1.9-1.2 2.8-.8 1-1.7 1.7-2.9 2.3-1.2.6-2.3.8-3.3.6-1.1-.2-2-1-2.5-2.2l-1.6 1.4c-.6.6-1.2.9-1.7.8-.7-.1-1.4-1-2-2.7l-.9-1.9c-.3-.6-.7-1-1-1.3-.2.3-.3.8-.3 1.6v1.8c0 .1.2.2.5.2h.7l-1.6 1.5c-.7.6-1.5.8-2.5.8-.3-1-.5-2.4-.4-4.4v-5c0-.2-.1-.3-.3-.3-.4.1-.6.2-.8.1.2-.6.8-1 1.9-1.6a11.2 11.2 0 016.6-.6c1 .3 1.5.9 1.6 1.6 0 .6-.2 1-.8 1.6-.8.6-1.2 1-1.3 1.4.4.5.8 1.5 1.5 3 .6 1.1 1.2 1.8 2 1.8a9 9 0 012-4 6.3 6.3 0 014-2.4c1.3-.1 2.4.1 3.2.7zm-15-2H41v3c1 .1 1.7 0 2.1-.3l.2-1.2c0-.5 0-.9-.2-1.2l-1-.3zM9.5 44.5c0-.3-.2-.7-.5-1l-1.3-.4-1.4.1c-.4.2-.7.4-.9.7.2.6.4 1 .9 1.4.3.3.7.5 1.4.8l1.4.7c.4.4.7.8.8 1.2.2.9.1 1.7-.3 2.5-.4.7-1 1.3-1.8 1.8A6.7 6.7 0 012 53l.1-1.5.5-1.2c.1.3.4.7.8 1l1.4.4 1.3-.1c.5-.2.7-.5.8-1 0-.5-.1-.9-.6-1.3l-1.6-.8A5 5 0 013 47.3c-.4-.6-.6-1.2-.4-2A4.6 4.6 0 015.3 42c1.6-.7 3.1-.8 4.8-.2l-.3 1.4-.3 1.3zM90.4 43c-1.1.5-2.2.6-3.4.3l-.2 1.2v1.4H90a7 7 0 01-1.1 1.4c-.5.5-1.2.6-2 .5v3a7.2 7.2 0 004.1.2c.1 1-.6 1.7-2.3 2-1.5.4-3.2.3-5-.1V44c0-.2-.1-.3-.4-.4h-.8c.6-1.1 1.8-1.8 3.5-2.2 1.2-.2 3-.2 5.5-.1.2.5-.2 1-1.1 1.5zM66.7 48v3c0 .1.2.2.5.2h.7l-1.6 1.5c-.7.5-1.5.7-2.5.6l-.2-.7v-.9l-1 .8-1.7.7c-1.5.4-2.4 0-2.6-1-.1-1 .5-1.8 2-2.5a37.8 37.8 0 013.3-1.7c0-.6 0-1-.2-1.4-.3-.3-.7-.4-1.3-.3-.4 0-.5.3-.6.7v1.2h-2.8c1-1.3 2.1-2.3 3.4-3 1.6-.8 3.1-.8 4.4 0 .2.8.2 1.7.2 2.8zm-4.3 1.5c-.5.1-.8.3-1 .5V51.3c.2.2.4.2.7.2h1c.2-.2.4-.5.5-1 .1-.6 0-1-.2-1.3a4 4 0 01-1 .3zM140 46.7c-.4-.4-.8-.6-1.2-.5-.3.1-.6.4-.8.8-.2.4-.3.8-.2 1.3 0 .5.1.8.4 1 .6-.2 1-.5 1.3-.9.3-.5.5-1 .5-1.7zm2.8-1v.6c0 .5-.2 1-.9 1.8-.9 1-2.1 1.6-3.7 1.7 0 .8.5 1.3 1.6 1.5 1 .2 1.8 0 2.5-.4a3 3 0 01-1.6 1.8c-.8.4-1.7.5-2.6.5a4 4 0 01-2.4-.9c-.7-.6-1-1.4-1-2.3 0-.8.3-1.5.8-2.3.5-.7 1.2-1.4 2-1.9.9-.5 1.7-.8 2.6-1 1 0 1.7 0 2.4.5.2 0 .3.2.3.4zM20.7 45.5v5.3c0 .1.1.2.4.2h.7c-.6.7-1.2 1.2-1.6 1.5-.7.6-1.5.8-2.5.8l-.2-2.6a221.3 221.3 0 00.2-6c0-1.1-.4-1.8-1-2.1l-.1.2v-.2c.3-.6.8-1 1.4-1.5.8-.7 1.7-.9 2.5-.7l.2 5zM74.3 46.7c-.2-.3-.7-.4-1.2-.4l-1.3.4c-.3.6-.5 1.4-.5 2.2 0 1 .1 1.7.5 2.2.3.2.7.2 1 .2.5 0 .9 0 1.2-.2.2-.4.4-1 .4-2v-2.4zm3.2-1c0 2.5 0 4.2.2 5.2a20 20 0 01.7 0c-.2.5-.7 1-1.3 1.5-.9.7-1.7.9-2.4.7-.3 0-.4-.1-.4-.5v-.9c-.1.4-.5.8-1.1 1-.6.3-1.2.5-1.9.5-1.7.2-2.7-.4-3.2-1.7-.5-1.5 0-3 1.8-4.3 1.1-1 2.6-1.8 4.5-2.5v-1.6l-.5-.5c-.2-.1-.4 0-.5.2.2-.6.6-1.2 1.4-1.7.9-.7 1.7-.9 2.5-.7.2 1 .2 2.8.2 5.3zM113.5 44.7c0-1.1-.3-1.8-.9-2.1l-.2.2v-.2h.1c.3-.6.7-1 1.3-1.5.9-.7 1.7-.9 2.5-.7.2 1.2.3 2.9.2 5v5.3c0 .2.2.3.5.3h.7l-1.6 1.5c-.7.6-1.6.8-2.5.8-.2-.6-.2-1.5-.2-2.6a214.7 214.7 0 00.1-6zM14.8 44.7V48c0 1.3 0 2.3.2 3 0 .1.2.2.6.2h.8c-.8.7-1.4 1.2-2 1.5-.8.6-1.6.7-2.5.4-.2-.7-.3-1.7-.3-3v-3.3h-.8c.3-.5.8-1 1.4-1.4 1-.7 1.8-1 2.6-.7zM99.2 50c.6.7 1.3 1 1.9 1 0 .4-.2.8-1 1.3l-1.5 1.2c-.7-.4-1.3-.9-1.9-1.5l-1.5-1.8c0 .5-.2 1-.6 1.7-.3.5-.7.9-1.2 1.2-.4.2-.9.3-1.2 0-.4-.2-.7-.7-.9-1.6 1.7 0 2.8-.5 3.4-1.7L93.5 48c-.5-.6-1.1-1-1.8-1.2h-.1a3 3 0 011-1.1l1.7-1.2 1.6 1.3 1.3 1.6 1-1.8c.4-.7 1-1 1.7-1 .3 0 .6.3.8.7l.6 1-2 .5c-.8.3-1.3.7-1.5 1.2l1.4 2zM106 47.6c-.3.8-.4 2.1-.2 4 .7.4 1.3.5 1.8.3s.8-.6 1-1.3c.3-.6.4-1.3.3-2 0-.7-.2-1.3-.6-1.8-1.2-.7-2-.5-2.4.8zm6.2.2c0 1.3-.8 2.5-2.3 3.7a9.2 9.2 0 01-4.1 1.8v2.3c0 .2.2.3.5.4l.6-.1c-.3.6-.8 1.1-1.5 1.6-.9.7-1.7.9-2.5.7a38 38 0 01-.3-5.4v-5.6c.1-.2 0-.3-.4-.4l-.5.1c.2-.4.7-1 1.4-1.5.8-.6 1.6-.9 2.3-.7.3 0 .4.1.4.6v1c.3-.5.7-.9 1.5-1.2.7-.3 1.4-.4 2.2-.4a3 3 0 012 .8c.5.6.8 1.3.7 2.3zM129.2 47.8c-.2-.5-.5-.9-1-1-.2.3-.3.7-.3 1v1c-.3.8-1.2 1.7-2.5 2.8-1.4 1.2-2.6 1.8-3.6 1.9-1.1 0-2-.2-2.8-.8a3 3 0 01-1.1-2.5c0-.9.4-1.7 1.2-2.7a9 9 0 013-2.2c1.1-.6 2.2-.8 3.2-.6 1.2.2 2 1 2.5 2.1.5-.2 1.1-.7 1.9-1.5.8-.7 1.6-.9 2.4-.6.2.2.3.5.3 1v1.1l.8-1.3c.3-.6.8-1 1.3-1 .3 0 .5.4.6 1l.2 1.3h-1.7c-.6 0-1 .2-1.3.4V51c.1.2.4.2.7.3.3 0 .5 0 .6-.2-.3.6-.8 1.1-1.4 1.5-.8.6-1.8.9-2.8.8-.2-.4-.3-1-.3-1.7a195 195 0 010-3.8zm-8 1c0 1 .2 1.8.7 2.4.5.8 1.2 1 2 .5.5-.5.8-1.4.8-2.5s-.2-2-.6-2.7c-.9-.6-1.6-.6-2.2 0-.5.4-.7 1.2-.7 2.3z" fill="#101113"/>
</svg>
