<svg width="143" height="64" viewBox="0 0 143 64" fill="none" xmlns="http://www.w3.org/2000/svg">
<path d="M76.5195 24.8735C76.7433 24.9347 76.967 25.0021 77.1844 25.0786L84.8511 18.1007L85.1599 16.3096L83.3417 16.7321L76.5195 24.8735Z" fill="#85754E"/>
<path d="M76.0394 24.7514L84.9444 11.4539L84.8058 9.03809L82.6126 10.1801L75.4785 24.6381C75.6676 24.6718 75.8535 24.7116 76.0394 24.7514Z" fill="#85754E"/>
<path d="M58.0996 22.6135L59.1584 24.0771L67.2189 26.4469C67.5088 26.2449 67.8082 26.0581 68.117 25.8836L59.8926 22.2002L58.0996 22.6135Z" fill="#85754E"/>
<path d="M81.3689 27.696L92.6341 26.8571L94.3609 25.2956L92.2434 24.2852L80.3857 26.8204C80.7355 27.0929 81.0601 27.3837 81.3689 27.696Z" fill="#85754E"/>
<path d="M89.0007 22.6144L87.2077 22.2041L78.9834 25.8875C79.2922 26.062 79.5916 26.2488 79.8815 26.4509L87.942 24.081L89.0007 22.6144Z" fill="#85754E"/>
<path d="M78.4539 25.6048L90.6833 18.7984L91.6035 16.6398L89.1992 16.6367L77.6787 25.2619C77.9403 25.366 78.1986 25.4793 78.4539 25.6048Z" fill="#85754E"/>
<path d="M74.9714 24.5644L79.0301 13.6398L78.4881 11.8486L77.048 13.0825L74.4609 24.5093C74.6311 24.5246 74.8013 24.543 74.9714 24.5644Z" fill="#85754E"/>
<path d="M65.7322 27.696C66.041 27.3837 66.3687 27.0929 66.7154 26.8204L54.8578 24.2852L52.7402 25.2956L54.467 26.8571L65.7322 27.696Z" fill="#85754E"/>
<path d="M65.2922 28.165H50.7373V32.1025L64.1074 29.7939C64.4509 29.2152 64.8479 28.6702 65.2922 28.165Z" fill="#85754E"/>
<path d="M68.6505 25.6048C68.9026 25.4793 69.161 25.366 69.4257 25.2619L57.9053 16.6367L55.501 16.6398L56.4211 18.7984L68.6505 25.6048Z" fill="#85754E"/>
<path d="M81.8096 28.165C82.2539 28.6702 82.6509 29.2152 82.9944 29.797L96.3645 32.1056V28.1681H81.8096V28.165Z" fill="#85754E"/>
<path d="M69.9169 25.0756C70.1343 24.999 70.358 24.9317 70.5817 24.8704L63.7596 16.7321L61.9414 16.3096L62.2502 18.1007L69.9169 25.0756Z" fill="#85754E"/>
<path d="M72.7972 5.71536C72.8035 5.30814 73.1438 4.97746 73.5661 4.97746C73.9883 4.97746 74.3286 5.30814 74.3349 5.71536V7.38712H72.7972V5.71536ZM71.8393 14.7171L73.0997 24.4813C73.251 24.4752 73.4022 24.4691 73.5535 24.4691C73.7142 24.4691 73.8717 24.4721 74.0293 24.4813L75.2897 14.7202L75.2803 8.53837H75.8821V7.38712H75.2803V4.6774H74.8328V3.84459V3.72518L73.5692 3.0332L72.2962 3.71293V3.84459V4.6774H71.8487V7.39018H71.25V8.54143H71.8487L71.8393 14.7171Z" fill="#85754E"/>
<path d="M72.6433 24.5093L70.0563 13.0825L68.6162 11.8486L68.0742 13.6398L72.1328 24.5644C72.2998 24.543 72.47 24.5246 72.6433 24.5093Z" fill="#85754E"/>
<path d="M71.6212 24.641L64.4871 10.1831L62.2939 9.04102L62.1553 11.4568L71.0572 24.7543C71.2462 24.7084 71.4321 24.6716 71.6212 24.641Z" fill="#85754E"/>
<path d="M113.78 60.9267H115.23V60.5164H114.275V59.5641H115.025V59.16H114.275V58.5507H115.148V58.1404H113.78V60.9267ZM109.583 59.5335C109.583 60.3173 110.241 60.9665 111.133 60.9665C111.486 60.9665 111.839 60.8593 112.075 60.6572L111.993 60.1918C111.767 60.4215 111.492 60.547 111.158 60.547C110.475 60.547 110.093 60.0938 110.093 59.5366C110.093 58.9763 110.5 58.5262 111.121 58.5262C111.486 58.5262 111.732 58.5935 111.981 58.8048L112.06 58.3792C111.823 58.1955 111.483 58.1036 111.133 58.1036C110.251 58.1006 109.583 58.7466 109.583 59.5335ZM107.45 60.9267H107.862V58.1404H107.437V59.9683L106.429 58.1404H106.016V60.9267H106.441V59.0926L107.45 60.9267ZM103.908 60.9267H104.39L103.571 58.1404H103.183L102.367 60.9267H102.808L102.94 60.4398H103.772L103.908 60.9267ZM103.671 60.0632H103.044L103.35 58.9181L103.671 60.0632ZM100.46 60.9267H101.006L100.284 59.5611C100.59 59.457 100.807 59.1937 100.807 58.8752C100.807 58.468 100.438 58.1404 99.9752 58.1404H98.9857V60.9267H99.4553V59.6131H99.7987L100.46 60.9267ZM99.9689 58.566C100.158 58.566 100.306 58.7099 100.306 58.8844C100.306 59.062 100.158 59.2028 99.9657 59.2028H99.4584V58.566H99.9689ZM97.1297 59.6468V59.2426H96.3798V58.5537H97.2526V58.1435H95.885V60.9297H96.3798V59.6468H97.1297ZM91.0324 60.9267H91.5617L90.7897 59.4539L91.4987 58.1404H91.0103L90.5408 59.0314L90.0807 58.1404H89.5482L90.2603 59.4876L89.4852 60.9236H89.9767L90.5124 59.9132L91.0324 60.9267ZM86.019 60.0204C86.019 60.6205 86.4475 60.9665 86.98 60.9665C87.5126 60.9665 87.9537 60.6205 87.9537 60.0204V58.1404H87.459V60.0234C87.459 60.3541 87.2447 60.5409 86.98 60.5409C86.7248 60.5409 86.5074 60.3541 86.5074 60.0234V58.1404H86.0158V60.0204H86.019ZM82.912 60.9267H84.3615V60.5164H83.4067V59.5641H84.1567V59.16H83.4067V58.5507H84.2795V58.1404H82.912V60.9267ZM80.6621 60.9267H81.0749V58.1404H80.6495V59.9683L79.6411 58.1404H79.2283V60.9267H79.6537V59.0926L80.6621 60.9267ZM76.9879 60.9267H77.4007V58.1404H76.9753V59.9683L75.9669 58.1404H75.5541V60.9267H75.9795V59.0926L76.9879 60.9267ZM73.32 59.5335C73.32 60.0908 72.8789 60.5439 72.318 60.5439C71.7571 60.5439 71.3191 60.0908 71.3191 59.5335C71.3191 58.9732 71.7571 58.5231 72.318 58.5231C72.8789 58.5231 73.32 58.9732 73.32 59.5335ZM70.8054 59.5335C70.8054 60.3265 71.4798 60.9665 72.318 60.9665C73.1593 60.9665 73.8305 60.3265 73.8305 59.5335C73.8305 58.7374 73.1593 58.1006 72.318 58.1006C71.4829 58.1006 70.8054 58.7374 70.8054 59.5335ZM69.2078 58.5599V58.1435H67.3613V58.5599H68.0419V60.9297H68.5335V58.5599H69.2078ZM64.3425 60.9267H65.792V60.5164H64.8373V59.5641H65.5872V59.16H64.8373V58.5507H65.7101V58.1404H64.3425V60.9267ZM62.2155 60.9267H62.7607L62.0391 59.5611C62.3447 59.457 62.5622 59.1937 62.5622 58.8752C62.5622 58.468 62.1935 58.1404 61.7303 58.1404H60.7377V60.9267H61.2103V59.6131H61.5538L62.2155 60.9267ZM61.724 58.566C61.913 58.566 62.0611 58.7099 62.0611 58.8844C62.0611 59.062 61.913 59.2028 61.7208 59.2028H61.2135V58.566H61.724ZM57.2305 60.9267H58.1443C58.6737 60.9267 59.0991 60.5531 59.0991 60.0632C59.0991 59.7172 58.8785 59.4417 58.5414 59.3314C58.7084 59.2335 58.8029 59.0651 58.8029 58.8385C58.8029 58.4435 58.4311 58.1435 57.971 58.1435H57.2305V60.9267ZM58.1286 59.5948C58.3901 59.5948 58.6012 59.7968 58.6012 60.0479C58.6012 60.3143 58.3933 60.5102 58.1254 60.5102H57.7032V59.5948H58.1286ZM57.9584 58.5599C58.1506 58.5599 58.305 58.7068 58.305 58.8875C58.305 59.0742 58.1538 59.2151 57.9962 59.2151H57.7V58.5629H57.9584V58.5599ZM53.8714 59.7448H55.5226V59.3467H53.8714V59.7448ZM50.7046 60.746C50.8999 60.893 51.1048 60.9695 51.4262 60.9695C51.9177 60.9695 52.34 60.6725 52.34 60.1306C52.34 59.7478 52.1446 59.5305 51.7287 59.3069L51.4703 59.163C51.2623 59.0467 51.1835 58.9671 51.1835 58.8232C51.1835 58.6762 51.3033 58.4956 51.6058 58.4956C51.7822 58.4956 51.9587 58.5476 52.1478 58.6823L52.1887 58.272C51.9839 58.1526 51.8075 58.1006 51.5743 58.1006C51.0575 58.1006 50.7235 58.4374 50.7235 58.8813C50.7235 59.16 50.8747 59.3743 51.1804 59.5488L51.4766 59.7111C51.7539 59.8703 51.8547 59.9683 51.8547 60.1643C51.8547 60.4061 51.6562 60.5715 51.3915 60.5715C51.1205 60.5715 50.9567 60.4796 50.7613 60.3082L50.7046 60.746ZM48.7477 60.9267H49.2929L48.5713 59.5611C48.8769 59.457 49.0944 59.1937 49.0944 58.8752C49.0944 58.468 48.7257 58.1404 48.2625 58.1404H47.2699V60.9267H47.7394V59.6131H48.0829L48.7477 60.9267ZM48.2562 58.566C48.4452 58.566 48.5933 58.7099 48.5933 58.8844C48.5933 59.062 48.4452 59.2028 48.253 59.2028H47.7457V58.566H48.2562ZM44.1282 60.9267H45.5777V60.5164H44.6229V59.5641H45.3729V59.16H44.6229V58.5507H45.4958V58.1404H44.1282V60.9267ZM41.037 60.9267H42.4046V60.5102H41.5317V58.1404H41.037V60.9267ZM37.9489 60.9267H39.3165V60.5102H38.4436V58.1404H37.9489V60.9267ZM35.6234 60.9267H36.115V58.1404H35.6234V60.9267ZM33.2128 60.9267L34.0069 58.1404H33.5437L33.008 60.1367L32.4628 58.1404H31.9492L32.7464 60.9267H33.2128Z" fill="#85754E"/>
<path d="M136.515 53.4554H138.832V52.7482H137.354V48.7402H136.515V53.4554ZM133.932 53.4554H134.751L133.364 48.7402H132.706L131.326 53.4554H132.076L132.296 52.6349H133.702L133.932 53.4554ZM133.528 51.9949H132.466L132.986 50.0537L133.528 51.9949ZM128.745 53.4554H129.577V48.7402H128.745V53.4554ZM126.155 53.4554H127.078L125.858 51.1438C126.378 50.9692 126.747 50.5253 126.747 49.9864C126.747 49.3005 126.123 48.7402 125.342 48.7402H123.662V53.4554H124.459V51.2325H125.042L126.155 53.4554ZM125.323 49.4628C125.641 49.4628 125.89 49.7047 125.89 50.0017C125.89 50.3048 125.641 50.5406 125.313 50.5406H124.453V49.4628H125.323ZM120.87 51.0978C120.87 52.0409 120.123 52.8094 119.172 52.8094C118.22 52.8094 117.48 52.0409 117.48 51.0978C117.48 50.1487 118.22 49.3863 119.172 49.3863C120.123 49.3893 120.87 50.1487 120.87 51.0978ZM116.613 51.0978C116.613 52.4389 117.757 53.5228 119.172 53.5228C120.593 53.5228 121.73 52.4389 121.73 51.0978C121.73 49.7506 120.593 48.6729 119.172 48.6729C117.76 48.6729 116.613 49.7506 116.613 51.0978ZM112.857 52.2093H112.914L113.878 50.2558V53.4554H114.697V48.7402H113.935L112.942 50.7488L111.953 48.7402H111.168V53.4554H111.896V50.2497L112.857 52.2093ZM106.832 53.4554H109.287V52.7635H107.67V51.1529H108.94V50.4671H107.67V49.4353H109.145V48.7402H106.829V53.4554H106.832ZM102.881 52.2093H102.937L103.902 50.2558V53.4554H104.718V48.7402H103.955L102.963 50.7488L101.97 48.7402H101.188V53.4554H101.916V50.2497L102.881 52.2093ZM93.3076 53.4554H95.6236V52.7482H94.1458V48.7402H93.3076V53.4554ZM90.7205 53.4554H91.5398L90.1533 48.7402H89.4947L88.1145 53.4554H88.8645L89.0851 52.6349H90.4936L90.7205 53.4554ZM90.3203 51.9949H89.2584L89.7783 50.0537L90.3203 51.9949ZM85.6693 53.4554H86.3688V48.7402H85.6472V51.8327L83.9425 48.7402H83.2429V53.4554H83.9645V50.3507L85.6693 53.4554ZM80.4542 51.0978C80.4542 52.0409 79.7074 52.8094 78.7558 52.8094C77.8041 52.8094 77.0636 52.0409 77.0636 51.0978C77.0636 50.1487 77.8041 49.3863 78.7558 49.3863C79.7074 49.3893 80.4542 50.1487 80.4542 51.0978ZM76.2002 51.0978C76.2002 52.4389 77.3441 53.5228 78.7589 53.5228C80.1801 53.5228 81.3176 52.4389 81.3176 51.0978C81.3176 49.7506 80.1801 48.6729 78.7589 48.6729C77.3441 48.6729 76.2002 49.7506 76.2002 51.0978ZM73.4462 53.4554H74.2781V48.7402H73.4462V53.4554ZM71.5555 49.4475V48.7402H68.4296V49.4475H69.5798V53.4554H70.4117V49.4475H71.5555ZM66.0694 53.4554H66.8887L65.5022 48.7402H64.8437L63.4635 53.4554H64.2134L64.434 52.6349H65.8426L66.0694 53.4554ZM65.6692 51.9949H64.6073L65.1273 50.0537L65.6692 51.9949ZM61.0182 53.4554H61.7178V48.7402H60.9962V51.8327L59.2914 48.7402H58.5919V53.4554H59.3135V50.3507L61.0182 53.4554ZM52.129 53.4554H52.8285V48.7402H52.1069V51.8327L50.4022 48.7402H49.7026V53.4554H50.4242V50.3507L52.129 53.4554ZM47.1313 53.4554H47.9475L46.561 48.7402H45.9024L44.5222 53.4554H45.2722L45.4927 52.6349H46.8981L47.1313 53.4554ZM46.7311 51.9949H45.6692L46.1891 50.0537L46.7311 51.9949ZM41.9478 53.4554H42.7796V48.7402H41.9478V53.4554ZM37.7253 53.4554H40.0413V52.7482H38.5635V48.7402H37.7253V53.4554ZM35.1382 53.4554H35.9544L34.5679 48.7402H33.9093L32.5291 53.4554H33.2759L33.4996 52.6349H34.905L35.1382 53.4554ZM34.738 51.9949H33.6761L34.196 50.0537L34.738 51.9949ZM30.2918 53.4554H31.2151L29.9956 51.1438C30.5156 50.9692 30.8842 50.5253 30.8842 49.9864C30.8842 49.3005 30.2603 48.7402 29.4757 48.7402H27.7993V53.4554H28.5965V51.2325H29.1795L30.2918 53.4554ZM29.4631 49.4628C29.7813 49.4628 30.0303 49.7047 30.0303 50.0017C30.0303 50.3048 29.7813 50.5406 29.4536 50.5406H28.5934V49.4628H29.4631ZM25.9055 49.4475V48.7402H22.7796V49.4475H23.9298V53.4554H24.7616V49.4475H25.9055ZM18.4248 53.1462C18.7588 53.3973 19.1054 53.5228 19.6443 53.5228C20.4761 53.5228 21.1883 53.0176 21.1883 52.1021C21.1883 51.4561 20.8574 51.0856 20.1547 50.7059L19.7167 50.464C19.3638 50.2681 19.2315 50.1334 19.2315 49.8915C19.2315 49.6404 19.4331 49.3403 19.9468 49.3403C20.243 49.3403 20.5423 49.4261 20.8606 49.6557L20.9299 48.9637C20.5833 48.7616 20.2839 48.6729 19.89 48.6729C19.0172 48.6729 18.45 49.2454 18.45 49.9925C18.45 50.464 18.7052 50.8284 19.2252 51.1254L19.7262 51.4009C20.1957 51.6704 20.3627 51.8388 20.3627 52.1695C20.3627 52.5798 20.0318 52.8553 19.5812 52.8553C19.1243 52.8553 18.847 52.6992 18.513 52.4114L18.4248 53.1462ZM13.3862 51.9215C13.3862 52.938 14.1141 53.5259 15.0153 53.5259C15.9165 53.5259 16.6665 52.9411 16.6665 51.9215V48.7433H15.8283V51.9306C15.8283 52.491 15.4659 52.8063 15.0184 52.8063C14.5867 52.8063 14.2212 52.491 14.2212 51.9306V48.7433H13.3893V51.9215H13.3862ZM10.8747 53.4554H11.6909L10.3044 48.7402H9.64581L8.26562 53.4554H9.01559L9.23616 52.6349H10.6416L10.8747 53.4554ZM10.4745 51.9949H9.41263L9.93256 50.0537L10.4745 51.9949Z" fill="#85754E"/>
<path d="M123.66 44.1478H126.114V43.4558H124.498V41.8453H125.768V41.1595H124.498V40.1276H125.972V39.4357H123.656V44.1478H123.66ZM121.05 44.1478H121.974L120.754 41.8361C121.274 41.6616 121.643 41.2176 121.643 40.6788C121.643 39.9929 121.019 39.4326 120.237 39.4326H118.558V44.1478H119.355V41.9249H119.938L121.05 44.1478ZM120.218 40.1552C120.537 40.1552 120.786 40.3971 120.786 40.6941C120.786 40.9972 120.537 41.2329 120.209 41.2329H119.349V40.1552H120.218ZM116.664 40.1399V39.4326H113.538V40.1399H114.688V44.1478H115.52V40.1399H116.664ZM110.951 44.1478H111.651V39.4326H110.929V42.525L109.224 39.4326H108.525V44.1478H109.246V41.0431L110.951 44.1478ZM104.192 44.1478H106.647V43.4558H105.03V41.8453H106.297V41.1595H105.03V40.1276H106.508V39.4357H104.192V44.1478ZM98.0788 41.7902C98.0788 43.116 99.1944 44.2152 100.707 44.2152C101.302 44.2152 101.898 44.0345 102.301 43.6885L102.163 42.9016C101.781 43.2936 101.318 43.5018 100.748 43.5018C99.5914 43.5018 98.9454 42.7332 98.9454 41.7902C98.9454 40.841 99.6323 40.0786 100.685 40.0786C101.302 40.0786 101.718 40.1919 102.141 40.5502L102.273 39.8306C101.87 39.5214 101.296 39.3652 100.707 39.3652C99.207 39.3652 98.0788 40.4583 98.0788 41.7902ZM91.6664 44.1478H92.5046V39.4326H91.6664V41.1503H90.1822V39.4326H89.3503V44.1478H90.1822V41.8514H91.6664V44.1478ZM84.7812 43.8386C85.1152 44.0866 85.4618 44.2152 86.0007 44.2152C86.8326 44.2152 87.5479 43.71 87.5479 42.7945C87.5479 42.1484 87.2139 41.778 86.5143 41.4013L86.0763 41.1595C85.7234 40.9635 85.591 40.8288 85.591 40.5869C85.591 40.3389 85.7927 40.0358 86.3032 40.0358C86.6025 40.0358 86.8988 40.1246 87.217 40.3542L87.2863 39.6592C86.9397 39.4571 86.6404 39.3714 86.2465 39.3714C85.3736 39.3714 84.8033 39.9439 84.8033 40.691C84.8033 41.1625 85.0585 41.5269 85.5784 41.8239L86.0795 42.0994C86.5521 42.3689 86.716 42.5373 86.716 42.868C86.716 43.2783 86.382 43.5538 85.9314 43.5538C85.4744 43.5538 85.1972 43.4007 84.8631 43.1099L84.7812 43.8386ZM82.4809 44.1478H83.297L81.9106 39.4326H81.252L79.8718 44.1478H80.6186L80.8423 43.3272H82.2477L82.4809 44.1478ZM82.0776 42.6873H81.0156L81.5356 40.7461L82.0776 42.6873ZM77.4265 44.1478H78.1261V39.4326H77.4045V42.525L75.6997 39.4326H75.0002V44.1478H75.7218V41.0431L77.4265 44.1478ZM72.2146 41.7902C72.2146 42.7332 71.4678 43.5018 70.5162 43.5018C69.5677 43.5018 68.824 42.7332 68.824 41.7902C68.824 40.841 69.5645 40.0786 70.5162 40.0786C71.4647 40.0786 72.2146 40.841 72.2146 41.7902ZM67.9575 41.7902C67.9575 43.1313 69.1013 44.2152 70.5162 44.2152C71.9373 44.2152 73.0749 43.1313 73.0749 41.7902C73.0749 40.443 71.9373 39.3652 70.5162 39.3652C69.1013 39.3652 67.9575 40.443 67.9575 41.7902ZM64.1982 42.9016H64.2549L65.2192 40.9482V44.1478H66.0353V39.4326H65.2727L64.2801 41.4381L63.2875 39.4326H62.5061V44.1478H63.234V40.9421L64.1982 42.9016ZM56.0463 44.1478H56.7459V39.4326H56.0243V42.525L54.3195 39.4326H53.62V44.1478H54.3416V41.0431L56.0463 44.1478ZM50.6894 44.1478H51.5276V39.4326H50.6894V41.1503H49.2053V39.4326H48.3734V44.1478H49.2053V41.8514H50.6894V44.1478ZM45.5878 41.7902C45.5878 42.7332 44.841 43.5018 43.8894 43.5018C42.9409 43.5018 42.1972 42.7332 42.1972 41.7902C42.1972 40.841 42.9377 40.0786 43.8894 40.0786C44.8378 40.0786 45.5878 40.841 45.5878 41.7902ZM41.3307 41.7902C41.3307 43.1313 42.4745 44.2152 43.8894 44.2152C45.3105 44.2152 46.448 43.1313 46.448 41.7902C46.448 40.443 45.3105 39.3652 43.8894 39.3652C42.4745 39.3652 41.3307 40.443 41.3307 41.7902ZM37.0452 43.8386C37.272 44.0682 37.7037 44.2152 38.1544 44.2152C38.8823 44.2152 39.4558 43.762 39.4558 42.8618V39.4326H38.6239V42.8557C38.6239 43.3211 38.3812 43.5018 38.0283 43.5018C37.6817 43.5018 37.4044 43.3487 37.1775 43.1037L37.0452 43.8386ZM31.099 44.1478H32.0192L30.7997 41.8361C31.3196 41.6616 31.6883 41.2176 31.6883 40.6788C31.6883 39.9929 31.0644 39.4326 30.2797 39.4326H28.6002V44.1478H29.3974V41.9249H29.9804L31.099 44.1478ZM30.264 40.1552C30.5823 40.1552 30.8312 40.3971 30.8312 40.6941C30.8312 40.9972 30.5823 41.2329 30.2545 41.2329H29.3943V40.1552H30.264ZM25.6697 44.1478H26.5016V39.4326H25.6697V44.1478ZM21.1006 43.8386C21.4346 44.0866 21.7781 44.2152 22.3201 44.2152C23.152 44.2152 23.8673 43.71 23.8673 42.7945C23.8673 42.1484 23.5364 41.778 22.8337 41.4013L22.3957 41.1595C22.0428 40.9635 21.9104 40.8288 21.9104 40.5869C21.9104 40.3389 22.1121 40.0358 22.6257 40.0358C22.9219 40.0358 23.2213 40.1246 23.5395 40.3542L23.6089 39.6592C23.2622 39.4571 22.9629 39.3714 22.569 39.3714C21.6961 39.3714 21.1289 39.9439 21.1289 40.691C21.1289 41.1625 21.3842 41.5269 21.9041 41.8239L22.402 42.0994C22.8747 42.3689 23.0385 42.5373 23.0385 42.868C23.0385 43.2783 22.7076 43.5538 22.257 43.5538C21.8001 43.5538 21.5228 43.4007 21.1888 43.1099L21.1006 43.8386Z" fill="#85754E"/>
</svg>
