<svg fill="none" xmlns="http://www.w3.org/2000/svg" width="279" height="125" viewBox="0 0 279 125">
  <path d="M146.15 47.2c.47.14.95.28 1.41.45l16.35-14.98.66-3.84-3.88.9-14.54 17.48zM145.12 46.94l18.99-28.53-.3-5.19-4.67 2.46-15.21 31.02 1.2.24zM106.88 42.36l2.26 3.14 17.18 5.08a24 24 0 011.91-1.2l-17.53-7.9-3.82.88zM156.49 53.26l24.01-1.8 3.68-3.35-4.51-2.16-25.28 5.44c.75.58 1.44 1.2 2.1 1.87zM172.76 42.36l-3.83-.88-17.53 7.9a24 24 0 011.91 1.21l17.19-5.08 2.26-3.15zM150.27 48.78l26.07-14.61 1.97-4.63h-5.13l-24.56 18.5c.56.22 1.1.47 1.65.74zM142.85 46.54l8.65-23.44-1.16-3.84-3.07 2.64-5.51 24.52 1.09.12zM123.15 53.26c.66-.67 1.36-1.29 2.1-1.87l-25.29-5.44-4.5 2.16 3.67 3.35 24.02 1.8zM122.21 54.27H91.18v8.45l28.5-4.95a23.3 23.3 0 012.53-3.5zM129.37 48.78c.54-.27 1.09-.52 1.65-.74l-24.56-18.5h-5.12l1.96 4.63 26.07 14.6zM157.43 54.27c.94 1.08 1.79 2.25 2.52 3.5l28.5 4.96v-8.45h-31.02v-.01zM132.07 47.64c.46-.16.94-.3 1.42-.44l-14.55-17.46-3.87-.91.66 3.84 16.34 14.97zM138.21 6.1c.01-.88.74-1.59 1.64-1.59.9 0 1.63.71 1.64 1.59v3.58h-3.28V6.1zm-2.04 19.31l2.69 20.96a23.51 23.51 0 011.98 0l2.69-20.95-.03-13.27h1.29V9.68h-1.28V3.87h-.96V1.82l-2.7-1.48-2.7 1.46v2.07h-.96v5.82h-1.28v2.47h1.28l-.02 13.25zM137.88 46.42l-5.51-24.52-3.07-2.64-1.16 3.84 8.65 23.44 1.1-.12zM135.7 46.7l-15.2-31.02-4.68-2.45-.3 5.19 18.98 28.53c.4-.1.8-.18 1.2-.24zM225.59 124.58h3.09v-.89h-2.04v-2.04h1.6v-.87h-1.6v-1.3h1.86v-.89h-2.91v5.98zm-8.95-3c0 1.69 1.4 3.08 3.3 3.08.75 0 1.5-.23 2.01-.66l-.17-1a2.4 2.4 0 01-1.78.76c-1.46 0-2.28-.97-2.28-2.17s.87-2.17 2.2-2.17c.77 0 1.3.15 1.83.6l.17-.91c-.5-.4-1.23-.6-1.98-.6-1.88 0-3.3 1.39-3.3 3.07zm-4.55 3h.88v-5.98h-.9v3.92l-2.16-3.92h-.88v5.98h.9v-3.94l2.16 3.94zm-7.55 0h1.03l-1.75-5.98h-.83l-1.74 5.98h.94l.28-1.05h1.78l.29 1.05zm-.5-1.86h-1.34l.65-2.46.68 2.46zm-6.85 1.86h1.16l-1.54-2.94a1.57 1.57 0 001.12-1.47c0-.87-.79-1.58-1.78-1.58h-2.1v5.98h1v-2.81h.73l1.4 2.81zm-1.05-5.07c.4 0 .72.3.72.68 0 .38-.32.69-.73.69h-1.08v-1.37h1.09zm-6.05 2.32v-.87h-1.6v-1.48h1.86v-.88h-2.92v5.98h1.06v-2.75h1.6zm-13 2.75h1.13l-1.65-3.17 1.51-2.81h-1.04l-1 1.9-.98-1.9h-1.14l1.52 2.89-1.65 3.08h1.05l1.14-2.17 1.1 2.17zm-10.7-1.95c0 1.29.92 2.03 2.06 2.03 1.13 0 2.07-.74 2.07-2.03v-4.03h-1.05v4.04c0 .7-.46 1.1-1.02 1.1-.55 0-1-.4-1-1.1v-4.05h-1.06v4.04zm-6.61 1.95h3.09v-.89h-2.04v-2.04h1.6v-.87h-1.6v-1.3h1.86v-.89h-2.91v5.98zm-4.8 0h.88v-5.98h-.9v3.92l-2.16-3.92h-.88v5.98h.9v-3.94l2.16 3.94zm-7.83 0h.88v-5.98h-.91v3.92l-2.15-3.92h-.88v5.98h.9v-3.94l2.16 3.94zm-7.82-3c0 1.2-.95 2.17-2.14 2.17-1.2 0-2.13-.97-2.13-2.17a2.13 2.13 0 114.27 0zm-5.37 0c0 1.7 1.44 3.08 3.23 3.08 1.8 0 3.22-1.37 3.22-3.08 0-1.7-1.43-3.07-3.22-3.07a3.15 3.15 0 00-3.22 3.07zm-3.4-2.08v-.9h-3.94v.9h1.45v5.08h1.05v-5.08h1.44zm-10.37 5.08h3.09v-.89h-2.04v-2.04h1.6v-.87h-1.6v-1.3h1.86v-.89h-2.91v5.98zm-4.54 0h1.16l-1.53-2.94a1.57 1.57 0 001.11-1.47c0-.87-.78-1.58-1.77-1.58h-2.12v5.98h1v-2.81h.74l1.41 2.81zm-1.05-5.07c.4 0 .72.3.72.68 0 .38-.31.69-.72.69h-1.08v-1.37h1.08zm-9.58 5.06h1.95c1.13 0 2.04-.8 2.04-1.85 0-.74-.47-1.33-1.2-1.57.36-.2.57-.57.57-1.06 0-.84-.8-1.49-1.78-1.49h-1.58v5.98zm1.92-2.85a.98.98 0 110 1.97h-.9v-1.97h.9zm-.36-2.22c.4 0 .73.31.73.7 0 .4-.32.7-.65.7h-.63v-1.4h.55zm-8.72 2.54h3.52v-.86h-3.52v.86zm-6.75 2.15c.42.31.85.48 1.54.48 1.05 0 1.95-.64 1.95-1.8 0-.83-.42-1.3-1.3-1.77l-.56-.31c-.44-.25-.6-.42-.6-.73s.25-.7.9-.7c.37 0 .74.1 1.15.4l.08-.88a2.4 2.4 0 00-1.3-.37c-1.1 0-1.82.72-1.82 1.68 0 .6.32 1.05.98 1.43l.63.35c.59.34.8.55.8.97 0 .52-.42.87-.98.87-.58 0-.93-.2-1.35-.56l-.12.94zm-4.17.39h1.16l-1.54-2.94a1.57 1.57 0 001.12-1.47c0-.87-.79-1.58-1.78-1.58H83.8v5.98h1v-2.81h.73l1.42 2.81zm-1.05-5.07c.4 0 .72.3.72.68 0 .38-.32.69-.73.69H84.8v-1.37h1.1zm-8.8 5.06h3.09v-.88h-2.04v-2.04h1.6v-.87h-1.6v-1.3h1.87v-.89h-2.92v5.98zm-6.59 0h2.92v-.89h-1.87v-5.09H70.5v5.98zm-6.58 0h2.91v-.89h-1.86v-5.09h-1.05v5.98zm-4.96 0H60v-5.97h-1.05v5.98zm-5.14 0l1.7-5.97h-1l-1.14 4.28-1.16-4.28h-1.1l1.7 5.98h1zM274.06 108.54h4.93v-1.52h-3.15v-8.6h-1.78v10.12zm-5.51 0h1.75l-2.96-10.12h-1.4l-2.95 10.12h1.6l.47-1.76h3l.49 1.76zm-.86-3.13h-2.27l1.11-4.17 1.16 4.17zm-10.2 3.13h1.77V98.42h-1.77v10.12zm-5.52 0h1.97l-2.6-4.96a2.65 2.65 0 001.89-2.48c0-1.47-1.33-2.68-3-2.68h-3.58v10.12h1.7v-4.77h1.25l2.37 4.77zm-1.78-8.56c.68 0 1.21.51 1.21 1.15 0 .65-.53 1.16-1.23 1.16h-1.83v-2.31h1.85zm-9.49 3.5c0 2.03-1.6 3.68-3.62 3.68a3.62 3.62 0 01-3.6-3.68 3.61 3.61 0 117.22 0zm-9.07 0c0 2.88 2.43 5.2 5.45 5.2a5.32 5.32 0 005.45-5.2c0-2.89-2.42-5.2-5.45-5.2a5.32 5.32 0 00-5.46 5.2zm-8.01 2.39h.12l2.05-4.2v6.87h1.75V98.42h-1.63l-2.11 4.31-2.11-4.3h-1.67v10.11h1.55v-6.88l2.05 4.2zm-7.62 2.67v-1.48h-3.44v-3.46h2.7v-1.47h-2.7v-2.21h3.14v-1.5h-4.94v10.12h5.25zm-13.65-2.67h.12l2.06-4.2v6.87h1.73V98.42h-1.62l-2.12 4.31-2.11-4.3h-1.67v10.11h1.55v-6.88l2.06 4.2zm-20.41 2.67h4.94v-1.52h-3.16v-8.6h-1.78v10.12zm-5.52 0h1.75l-2.96-10.12h-1.4l-2.94 10.12h1.6l.47-1.76h3l.48 1.76zm-.85-3.13h-2.26l1.1-4.17 1.16 4.17zm-9.92 3.13h1.5V98.42h-1.54v6.64l-3.64-6.64h-1.49v10.12h1.54v-6.66l3.63 6.66zm-11.11-5.06a3.62 3.62 0 11-7.23 0 3.61 3.61 0 117.23 0zm-9.07 0c0 2.88 2.44 5.2 5.45 5.2a5.32 5.32 0 005.46-5.2c0-2.89-2.43-5.2-5.46-5.2a5.32 5.32 0 00-5.45 5.2zm-5.88 5.06h1.78V98.42h-1.78v10.12zm-4.03-8.6v-1.52h-6.66v1.52h2.45v8.6h1.78v-8.6h2.43zm-11.7 8.6h1.75l-2.95-10.12h-1.4l-2.95 10.12h1.6l.47-1.76h3l.49 1.76zm-.84-3.13h-2.27l1.11-4.17 1.16 4.17zm-9.92 3.13h1.5V98.42h-1.55v6.64l-3.63-6.64h-1.5v10.12h1.55v-6.66l3.63 6.66zm-18.95 0h1.49V98.42H94.1v6.64l-3.63-6.64h-1.5v10.12h1.54v-6.66l3.64 6.66zm-10.66 0h1.74l-2.95-10.12h-1.4l-2.95 10.12h1.6l.47-1.76h3l.5 1.76zm-.85-3.13h-2.26l1.1-4.17 1.16 4.17zm-10.2 3.13h1.78V98.42h-1.78v10.12zm-9 0h4.94v-1.52h-3.15v-8.6h-1.79v10.12zm-5.52 0h1.74l-2.95-10.12h-1.4l-2.95 10.12h1.6l.47-1.76h3l.5 1.76zm-.85-3.13h-2.26l1.1-4.17 1.16 4.17zm-9.48 3.13h1.97l-2.6-4.96a2.65 2.65 0 001.9-2.48c0-1.47-1.34-2.68-3-2.68h-3.58v10.12h1.7v-4.77h1.24l2.37 4.77zm-1.76-8.56c.67 0 1.2.51 1.2 1.15 0 .65-.53 1.16-1.22 1.16h-1.84v-2.31h1.86zm-7.59-.04v-1.52h-6.66v1.52h2.45v8.6h1.77v-8.6h2.44zm-15.95 7.94c.71.54 1.45.8 2.6.8 1.78 0 3.3-1.08 3.3-3.04 0-1.39-.71-2.18-2.21-3l-.93-.52c-.76-.42-1.04-.7-1.04-1.23s.43-1.18 1.53-1.18c.63 0 1.27.19 1.95.68l.14-1.49a4.06 4.06 0 00-2.21-.62c-1.86 0-3.07 1.23-3.07 2.83 0 1.01.54 1.8 1.65 2.43l1.07.6c1 .57 1.35.93 1.35 1.64 0 .88-.7 1.48-1.66 1.48-.98 0-1.57-.34-2.28-.96l-.19 1.58zm-10.74-2.63c0 2.18 1.55 3.44 3.47 3.44 1.92 0 3.52-1.25 3.52-3.44v-6.82h-1.78v6.84c0 1.2-.78 1.88-1.73 1.88-.92 0-1.7-.68-1.7-1.88v-6.84h-1.77v6.82h-.01zm-5.35 3.3h1.74L4.98 98.41h-1.4L.63 108.54h1.6l.47-1.76h3l.5 1.76zm-.86-3.14H3.08l1.1-4.17 1.16 4.17zM251.88 88.57v-1.49h-3.45v-3.45h2.71v-1.47h-2.7v-2.22h3.14v-1.48h-4.94v10.1h5.24zm-10.8 0h1.97l-2.6-4.96a2.65 2.65 0 001.9-2.49c0-1.47-1.33-2.67-3-2.67h-3.58v10.12h1.7V83.8h1.24l2.37 4.77zM239.31 80c.68 0 1.21.52 1.21 1.16 0 .65-.53 1.15-1.23 1.15h-1.83v-2.3h1.85zm-7.58-.03v-1.52h-6.66v1.52h2.45v8.6h1.77v-8.6h2.44zm-12.18 8.6h1.5V78.45h-1.54v6.64l-3.64-6.64h-1.49v10.12h1.54V81.9l3.63 6.66zm-14.4 0h5.23v-1.49h-3.45v-3.45h2.7v-1.47h-2.7v-2.22h3.15v-1.48h-4.94v10.1zM192.1 83.5c0 2.84 2.38 5.2 5.6 5.2 1.27 0 2.54-.38 3.4-1.13l-.3-1.69a4.02 4.02 0 01-3.01 1.3c-2.47 0-3.84-1.66-3.84-3.68a3.57 3.57 0 013.7-3.67c1.32 0 2.21.24 3.11 1l.28-1.54c-.86-.66-2.08-1-3.34-1-3.2 0-5.6 2.35-5.6 5.2zm-13.67 5.06h1.79V78.45h-1.8v3.69h-3.16v-3.69h-1.77v10.12h1.78v-4.93h3.16v4.93zm-14.68-.67c.71.54 1.45.81 2.6.81 1.77 0 3.3-1.08 3.3-3.05 0-1.38-.71-2.18-2.2-2.99l-.94-.51c-.75-.42-1.03-.71-1.03-1.23 0-.54.43-1.19 1.51-1.19.64 0 1.28.2 1.95.69l.15-1.5a4.05 4.05 0 00-2.22-.61c-1.86 0-3.07 1.23-3.07 2.83 0 1.01.54 1.8 1.65 2.43l1.07.6c1 .57 1.35.93 1.35 1.64 0 .88-.7 1.47-1.67 1.47s-1.56-.32-2.28-.95l-.17 1.56zm-4.9.67h1.74l-2.96-10.12h-1.4l-2.95 10.12h1.6l.47-1.76h3l.5 1.76zm-.86-3.14h-2.27l1.11-4.16 1.16 4.16zm-9.92 3.14h1.5V78.45h-1.55v6.64l-3.63-6.64h-1.5v10.12h1.55V81.9l3.63 6.66zm-11.11-5.06c0 2.02-1.6 3.67-3.62 3.67a3.63 3.63 0 01-3.61-3.67 3.61 3.61 0 117.23 0zm-9.08 0c0 2.88 2.44 5.2 5.46 5.2a5.32 5.32 0 005.45-5.2c0-2.9-2.42-5.2-5.45-5.2a5.32 5.32 0 00-5.46 5.2zm-8.01 2.38h.12l2.06-4.19v6.87h1.73V78.45h-1.62l-2.12 4.3-2.11-4.3h-1.67v10.12h1.55v-6.88l2.06 4.2zm-17.38 2.68h1.49V78.45h-1.54v6.64l-3.63-6.64h-1.5v10.12h1.54V81.9l3.64 6.66zm-11.42 0h1.79V78.45h-1.8v3.69h-3.16v-3.69h-1.77v10.12h1.77v-4.93h3.17v4.93zM80.2 83.5c0 2.02-1.59 3.67-3.62 3.67a3.62 3.62 0 01-3.6-3.67 3.61 3.61 0 117.22 0zm-9.07 0c0 2.88 2.43 5.2 5.45 5.2a5.32 5.32 0 005.46-5.2c0-2.9-2.43-5.2-5.46-5.2a5.32 5.32 0 00-5.45 5.2zm-9.14 4.4c.48.49 1.4.8 2.36.8 1.56 0 2.78-.97 2.78-2.9v-7.36h-1.78v7.35c0 1-.51 1.38-1.26 1.38a2.4 2.4 0 01-1.82-.85L62 87.9zm-12.68.66h1.96l-2.6-4.96a2.65 2.65 0 001.9-2.49c0-1.47-1.33-2.67-3-2.67h-3.58v10.12h1.7V83.8h1.24l2.38 4.77zM47.53 80c.68 0 1.21.52 1.21 1.16 0 .65-.53 1.15-1.23 1.15h-1.83v-2.3h1.85zm-9.8 8.57h1.78V78.45h-1.77v10.12zM28 87.9c.7.54 1.44.81 2.6.81 1.77 0 3.3-1.08 3.3-3.05 0-1.38-.71-2.18-2.2-2.99l-.94-.51c-.76-.42-1.04-.71-1.04-1.23 0-.54.43-1.19 1.53-1.19.63 0 1.27.2 1.95.69l.14-1.5a4.05 4.05 0 00-2.21-.61c-1.86 0-3.07 1.23-3.07 2.83 0 1.01.54 1.8 1.65 2.43l1.06.6c1 .57 1.36.93 1.36 1.64 0 .88-.7 1.47-1.67 1.47s-1.56-.32-2.28-.95L28 87.9z" fill="#fff"/>
</svg>
