<svg fill="none" xmlns="http://www.w3.org/2000/svg" viewBox="0 0 143 64">
  <path d="M76.5 24.8c.2 0 .5 0 .7.2l7.7-7.1.3-1.8-1.9.4-6.8 8.3zM76 24.6l9-13.5-.2-2.4-2.2 1.1-7.1 14.7.5.1zM58.1 22.5l1 1.5 8.1 2.4 1-.6-8.3-3.8-1.8.5zM81.4 27.6l11.2-.8 1.8-1.6-2.2-1-11.8 2.5 1 1zM89 22.5l-1.8-.5-8.2 3.8.9.6 8-2.4 1.1-1.5zM78.5 25.5l12.2-7 .9-2.1h-2.4l-11.5 8.8.8.3zM75 24.4l4-11-.5-1.9-1.5 1.3-2.5 11.6h.5zM65.7 27.6l1-.9L55 24.2l-2.2 1 1.8 1.6 11.2.8zM65.3 28.1H50.7v4l13.4-2.3c.4-.6.7-1.2 1.2-1.7zM68.7 25.5l.7-.3L58 16.4h-2.4l1 2.2 12.2 6.9zM81.8 28.1c.5.5.9 1 1.2 1.7L96.4 32v-4H81.8zM70 25l.6-.2-6.8-8.3-1.9-.4.4 1.8 7.6 7zM72.8 5.3c0-.4.3-.8.8-.8.4 0 .7.4.7.8V7h-1.5V5.3zm-1 9.1l1.3 10h.9l1.3-10V8.2h.6V7h-.6V4.2h-.5v-.9l-1.2-.7-1.3.7v.9h-.5V7h-.5v1.2h.5v6.2zM72.6 24.4l-2.5-11.6-1.5-1.3-.5 1.8 4 11.1h.5zM71.6 24.5L64.5 9.8l-2.2-1.1-.1 2.4L71 24.6h.5zM113.8 61.4h1.4V61h-1v-1h.8v-.4h-.7V59h.8v-.4h-1.3v2.8zm-4.2-1.4c0 .8.6 1.4 1.5 1.4.4 0 .7 0 1-.3l-.1-.5c-.2.3-.5.4-.8.4-.7 0-1.1-.5-1.1-1 0-.6.4-1 1-1 .4 0 .6 0 .9.2v-.4c-.2-.2-.5-.3-.9-.3-.8 0-1.5.7-1.5 1.5zm-2.2 1.4h.5v-2.8h-.5v1.8l-1-1.8h-.4v2.8h.4v-1.9l1 1.9zm-3.5 0h.5l-.8-2.8h-.4l-.8 2.8h.4l.1-.5h.9l.1.5zm-.2-.9h-.7l.3-1.2.4 1.2zm-3.2.9h.5l-.7-1.4c.3-.1.5-.4.5-.7 0-.4-.4-.7-.8-.7h-1v2.8h.5V60h.3l.7 1.3zM100 59c.2 0 .3.1.3.3 0 .2-.1.3-.3.3h-.5V59h.5zM97 60v-.3h-.7V59h.9v-.4h-1.4v2.8h.5V60h.7zm-6 1.4h.5l-.8-1.5.7-1.3H91l-.5.9-.4-1h-.6l.8 1.4-.8 1.5h.5l.5-1 .5 1zm-5-1c0 .7.3 1 .9 1 .5 0 1-.3 1-1v-1.8h-.5v1.9c0 .3-.3.5-.5.5-.3 0-.5-.2-.5-.5v-2H86v2zm-3.2 1h1.5V61h-1v-1h.8v-.4h-.8V59h.9v-.4h-1.4v2.8zm-2.2 0h.4v-2.8h-.5v1.8l-1-1.8h-.4v2.8h.5v-1.9l1 1.9zm-3.7 0h.4v-2.8H77v1.8l-1-1.8h-.4v2.8h.4v-1.9l1 1.9zM73.3 60c0 .5-.4 1-1 1a1 1 0 01-1-1c0-.6.5-1 1-1 .6 0 1 .4 1 1zm-2.5 0c0 .8.7 1.4 1.5 1.4.9 0 1.5-.6 1.5-1.4 0-.8-.6-1.5-1.5-1.5-.8 0-1.5.7-1.5 1.5zm-1.6-1v-.4h-1.8v.4h.6v2.4h.5V59h.7zm-4.9 2.4h1.5V61h-1v-1h.8v-.4h-.8V59h1v-.4h-1.5v2.8zm-2 0h.5L62 60c.3-.1.6-.4.6-.7 0-.4-.4-.7-.9-.7h-1v2.8h.5V60h.4l.6 1.3zm-.6-2.4c.2 0 .4.1.4.3 0 .2-.2.3-.4.3h-.5V59h.5zm-4.5 2.4h1c.5 0 .9-.4.9-.9 0-.3-.2-.6-.6-.7.2-.1.3-.3.3-.5 0-.4-.4-.7-.8-.7h-.8v2.8zm1-1.4a.5.5 0 110 1h-.5v-1h.4zm-.2-1c.2 0 .3.1.3.3 0 .2-.1.3-.3.3h-.3V59h.3zm-4.1 1.2h1.6v-.4H54v.4zm-3.2 1c.2.2.4.2.7.2.5 0 1-.3 1-.8 0-.4-.3-.6-.7-.9l-.2-.1c-.2-.1-.3-.2-.3-.4 0-.1.1-.3.4-.3.2 0 .4 0 .5.2v-.4l-.5-.2c-.5 0-.9.4-.9.8 0 .3.2.5.5.7l.3.2c.3.1.4.2.4.4 0 .3-.2.4-.5.4s-.4 0-.6-.2l-.1.4zm-2 .2h.6l-.7-1.4c.3-.1.5-.4.5-.7 0-.4-.4-.7-.8-.7h-1v2.8h.4V60h.4l.6 1.3zm-.4-2.4c.1 0 .3.1.3.3 0 .2-.2.3-.3.3h-.6V59h.6zM44 61.4h1.5V61h-1v-1h.8v-.4h-.8V59h.9v-.4h-1.4v2.8zm-3 0h1.3V61h-.9v-2.4H41v2.8zm-3.2 0h1.4V61h-.9v-2.4H38v2.8zm-2.3 0h.5v-2.8h-.5v2.8zm-2.4 0l.8-2.8h-.5l-.5 2-.5-2h-.6l.8 2.8h.5zM136.5 53.8h2.3v-.7h-1.4v-4h-.9v4.7zm-2.6 0h.8l-1.3-4.8h-.7l-1.4 4.8h.8l.2-.8h1.4l.2.8zm-.4-1.5h-1l.5-2 .5 2zm-4.8 1.5h.9V49h-.9v4.8zm-2.5 0h.9l-1.2-2.4c.5-.1.8-.6.8-1.1 0-.7-.6-1.3-1.4-1.3h-1.6v4.8h.8v-2.3h.5l1.2 2.3zm-.9-4c.3 0 .6.2.6.5s-.3.5-.6.5h-.8v-1h.8zm-4.4 1.6c0 1-.8 1.7-1.7 1.7-1 0-1.7-.7-1.7-1.7s.7-1.7 1.7-1.7 1.7.7 1.7 1.7zm-4.3 0c0 1.4 1.2 2.5 2.6 2.5 1.4 0 2.5-1.1 2.5-2.5s-1.1-2.5-2.5-2.5-2.6 1.1-2.6 2.5zm-3.7 1.1l1-2v3.3h.8V49h-.8l-1 2-1-2h-.7v4.8h.7v-3.3l1 2zm-6 1.3h2.4v-.7h-1.6v-1.6h1.2v-.7h-1.2v-1h1.4V49h-2.3v4.8zm-4-1.3l1-2v3.3h.8V49h-.7l-1 2-1-2h-.8v4.8h.7v-3.3l1 2zm-9.6 1.3h2.3v-.7h-1.5v-4h-.8v4.7zm-2.6 0h.8L90.2 49h-.7L88 53.8h.8l.2-.8h1.4l.2.8zm-.4-1.5h-1l.5-2 .5 2zm-4.6 1.5h.7V49h-.8v3.1l-1.7-3h-.7v4.7h.8v-3.2l1.7 3.2zm-5.2-2.4c0 1-.8 1.7-1.7 1.7-1 0-1.7-.7-1.7-1.7s.7-1.7 1.7-1.7 1.7.7 1.7 1.7zm-4.3 0c0 1.4 1.1 2.5 2.6 2.5 1.4 0 2.5-1.1 2.5-2.5s-1.1-2.5-2.5-2.5c-1.5 0-2.6 1.1-2.6 2.5zm-2.8 2.4h.9V49h-.9v4.8zm-1.8-4V49h-3.2v.7h1.2v4.1h.8v-4h1.2zm-5.5 4h.8L65.5 49h-.7l-1.3 4.8h.7l.2-.8h1.4l.3.8zm-.4-1.5h-1l.4-2 .6 2zM61 53.8h.7V49H61v3.1l-1.7-3h-.7v4.7h.7v-3.2l1.7 3.2zm-8.9 0h.7V49h-.7v3.1l-1.7-3h-.7v4.7h.7v-3.2l1.7 3.2zm-5 0h.8L46.6 49h-.7l-1.4 4.8h.8l.2-.8h1.4l.2.8zm-.4-1.5h-1l.5-2 .5 2zM42 53.8h.9V49h-.9v4.8zm-4.2 0H40v-.7h-1.4v-4h-.9v4.7zm-2.6 0h.9L34.6 49h-.7l-1.4 4.8h.8l.2-.8h1.4l.2.8zm-.4-1.5h-1l.5-2 .5 2zm-4.4 1.5h1L30 51.4c.5-.1.9-.6.9-1.1 0-.7-.6-1.3-1.4-1.3h-1.7v4.8h.8v-2.3h.6l1 2.3zm-.8-4c.3 0 .5.2.5.5s-.2.5-.5.5h-1v-1h1zm-3.6 0V49h-3.1v.7h1.1v4.1h.9v-4h1.1zm-7.5 3.7c.4.2.7.4 1.2.4.9 0 1.6-.5 1.6-1.5 0-.6-.3-1-1-1.4l-.5-.2c-.3-.2-.5-.4-.5-.6 0-.3.2-.6.7-.6l1 .3v-.7c-.3-.2-.6-.3-1-.3-.9 0-1.5.6-1.5 1.4 0 .5.3.8.8 1.1l.5.3c.5.3.7.5.7.8 0 .4-.4.7-.8.7-.5 0-.8-.2-1-.5l-.2.8zm-5-1.3c0 1 .7 1.7 1.6 1.7 1 0 1.7-.6 1.7-1.7V49h-.9v3.2c0 .6-.3 1-.8 1-.4 0-.8-.4-.8-1V49h-.8v3.2zm-2.5 1.6h.8L10.3 49h-.7l-1.3 4.8H9l.2-.8h1.4l.3.8zm-.4-1.5h-1l.4-2 .6 2zM123.7 44.3h2.4v-.7h-1.6V42h1.3v-.7h-1.3v-1h1.5v-.7h-2.3v4.7zm-2.7 0h1l-1.2-2.3c.5-.2.8-.6.8-1.2 0-.7-.6-1.2-1.4-1.2h-1.6v4.7h.8v-2.2h.5l1.1 2.2zm-.8-4c.3 0 .6.2.6.5s-.3.6-.6.6h-.9v-1.1h1zm-3.5 0v-.7h-3.2v.7h1.2v4h.8v-4h1.2zm-5.8 4h.8v-4.7h-.8v3l-1.7-3h-.7v4.7h.7v-3.1l1.8 3.1zm-6.7 0h2.4v-.7H105V42h1.3v-.7H105v-1h1.5v-.7h-2.3v4.7zM98 42c0 1.4 1 2.5 2.6 2.5.6 0 1.2-.2 1.6-.5l-.1-.8c-.4.4-.9.6-1.5.6-1.1 0-1.8-.8-1.8-1.8s.7-1.7 1.8-1.7c.6 0 1 .1 1.4.5l.2-.7c-.4-.4-1-.5-1.6-.5-1.5 0-2.6 1-2.6 2.4zm-6.4 2.4h.8v-4.7h-.8v1.7h-1.5v-1.7h-.9v4.7h.9V42h1.5v2.3zm-7-.3c.4.3.8.4 1.3.4.8 0 1.5-.5 1.5-1.4 0-.7-.3-1-1-1.4l-.4-.3c-.4-.2-.5-.3-.5-.6 0-.2.2-.5.7-.5.3 0 .6 0 1 .3v-.7l-1-.3c-1 0-1.5.6-1.5 1.3 0 .5.3.9.8 1.2l.5.3c.5.2.6.4.6.7 0 .5-.3.7-.8.7-.4 0-.7-.1-1-.4l-.1.7zm-2.2.3h.8l-1.4-4.7h-.6l-1.4 4.7h.7l.2-.8h1.4l.3.8zM82 43h-1l.4-2 .6 2zm-4.7 1.4h.7v-4.7h-.7v3l-1.7-3H75v4.7h.7v-3.1l1.7 3.1zM72.2 42c0 1-.7 1.8-1.7 1.8s-1.7-.8-1.7-1.8.8-1.7 1.7-1.7c1 0 1.7.8 1.7 1.7zM68 42c0 1.4 1.1 2.5 2.5 2.5s2.6-1 2.6-2.5c0-1.3-1.2-2.4-2.6-2.4-1.4 0-2.5 1-2.5 2.4zm-3.8 1.2l1-2v3.2h.8v-4.7h-.7l-1 2-1-2h-.8v4.7h.7v-3.2l1 2zM56 44.3h.7v-4.7H56v3l-1.7-3h-.7v4.7h.7v-3.1l1.7 3.1zm-5.3 0h.8v-4.7h-.8v1.7h-1.5v-1.7h-.8v4.7h.8V42h1.5v2.3zM45.6 42c0 1-.8 1.8-1.7 1.8-1 0-1.7-.8-1.7-1.8s.7-1.7 1.7-1.7 1.7.8 1.7 1.7zm-4.3 0c0 1.4 1.2 2.5 2.6 2.5 1.4 0 2.5-1 2.5-2.5 0-1.3-1-2.4-2.5-2.4-1.4 0-2.6 1-2.6 2.4zM37 44c.3.3.7.4 1.2.4.7 0 1.3-.5 1.3-1.4v-3.4h-.9V43c0 .5-.2.7-.6.7-.3 0-.6-.2-.8-.4l-.2.7zm-5.9.3h1L30.7 42c.5-.2.9-.6.9-1.2 0-.7-.6-1.2-1.4-1.2h-1.7v4.7h.8v-2.2h.6l1.1 2.2zm-.8-4c.3 0 .5.2.5.5s-.2.6-.5.6h-1v-1.1h1zm-4.6 4h.8v-4.7h-.8v4.7zM21 44c.3.3.7.4 1.2.4.9 0 1.6-.5 1.6-1.4 0-.7-.4-1-1-1.4l-.5-.3c-.4-.2-.5-.3-.5-.6 0-.2.2-.5.7-.5.3 0 .6 0 1 .3v-.7c-.3-.2-.6-.3-1-.3-.9 0-1.5.6-1.5 1.3 0 .5.3.9.8 1.2l.5.3c.5.2.6.4.6.7 0 .5-.3.7-.7.7-.5 0-.8-.1-1.1-.4l-.1.7z" fill="#85754E"/>
</svg>
