<svg fill="none" xmlns="http://www.w3.org/2000/svg" viewBox="0 0 255 114"><path d="M133.23 43.37a19 19 0 011.3.4l14.87-13.61.6-3.5-3.53.83-13.24 15.88zM132.3 43.13l17.28-25.94-.27-4.71-4.25 2.22-13.84 28.21a31 31 0 011.08.22zM97.5 38.96l2.05 2.86 15.64 4.62c.56-.4 1.14-.76 1.74-1.1l-15.95-7.18-3.48.8zM142.64 48.88l21.86-1.64 3.35-3.05-4.11-1.97-23 4.95c.67.53 1.3 1.1 1.9 1.7zM157.45 38.96l-3.48-.8-15.96 7.19c.6.34 1.18.7 1.75 1.1l15.63-4.63 2.06-2.86zM136.99 44.8l23.72-13.28 1.79-4.21h-4.67l-22.35 16.82c.51.2 1.01.42 1.5.67zM130.23 42.77l7.87-21.32-1.05-3.49-2.8 2.4-5.01 22.3.99.1zM112.3 48.88c.6-.61 1.24-1.18 1.91-1.71l-23-4.95-4.11 1.97 3.35 3.05 21.86 1.64zM111.45 49.8H83.21v7.67l25.94-4.5c.67-1.13 1.44-2.2 2.3-3.18zM117.97 44.8c.49-.25.99-.47 1.5-.67L97.12 27.3h-4.66l1.78 4.22 23.73 13.28zM143.5 49.8a20.9 20.9 0 012.3 3.17l25.94 4.5V49.8H143.5zM120.42 43.76c.43-.14.86-.28 1.3-.4L108.47 27.5l-3.53-.83.6 3.5 14.87 13.6zM126.01 6c.02-.8.67-1.44 1.5-1.44.81 0 1.47.64 1.49 1.44v3.26H126V6zm-1.86 17.56l2.45 19.05a21.18 21.18 0 011.8 0l2.45-19.05-.02-12.06H132V9.26h-1.17V3.97h-.87V2.11L127.51.76l-2.47 1.33v1.88h-.87v5.3h-1.16v2.24h1.16l-.02 12.05zM125.71 42.66l-5.02-22.3-2.79-2.4-1.05 3.5 7.87 21.3 1-.1zM123.73 42.92l-13.84-28.2-4.25-2.24-.27 4.72 17.27 25.94c.36-.1.72-.16 1.1-.22zM205.52 113.7h2.81v-.8h-1.85v-1.85h1.46v-.8h-1.46v-1.18h1.7v-.8h-2.66v5.43zm-8.14-2.71c0 1.53 1.28 2.8 3 2.8.7 0 1.38-.22 1.84-.61l-.16-.9c-.44.44-.98.68-1.62.68-1.33 0-2.07-.88-2.07-1.97 0-1.09.79-1.97 2-1.97.7 0 1.18.13 1.66.55l.16-.83a2.96 2.96 0 00-1.8-.54c-1.71 0-3.01 1.25-3.01 2.79zm-4.14 2.71h.8v-5.43h-.82v3.56l-1.96-3.56h-.8v5.43h.82v-3.57l1.96 3.57zm-6.87 0h.94l-1.6-5.43h-.75l-1.58 5.43h.86l.25-.95h1.62l.26.95zm-.46-1.68h-1.22l.6-2.23.62 2.23zm-6.23 1.68h1.06l-1.4-2.66c.6-.2 1.01-.72 1.01-1.34 0-.8-.71-1.43-1.61-1.43h-1.92v5.43h.91v-2.56h.67l1.28 2.56zm-.95-4.6c.36 0 .65.28.65.62 0 .35-.29.62-.66.62h-.98v-1.24h.99zm-5.51 2.1v-.78h-1.46v-1.34h1.7v-.8h-2.66v5.43h.96v-2.5h1.46zm-11.83 2.5h1.03l-1.5-2.87 1.38-2.56h-.95l-.91 1.74-.9-1.74h-1.03l1.38 2.63-1.5 2.8h.95l1.04-1.97 1.01 1.97zm-9.73-1.76c0 1.17.84 1.84 1.87 1.84 1.03 0 1.89-.67 1.89-1.84v-3.67h-.96v3.67c0 .65-.42 1.01-.93 1.01-.5 0-.92-.36-.92-1v-3.68h-.95v3.67zm-6.02 1.76h2.8v-.8h-1.84v-1.85h1.45v-.8h-1.45v-1.18h1.69v-.8h-2.65v5.43zm-4.37 0h.8v-5.43h-.82v3.56l-1.96-3.56h-.8v5.43h.82v-3.57l1.96 3.57zm-7.13 0h.8v-5.43h-.82v3.56l-1.96-3.56h-.8v5.43h.83v-3.57l1.95 3.57zm-7.11-2.71a1.94 1.94 0 11-3.88 0 1.94 1.94 0 113.88 0zm-4.88 0c0 1.54 1.3 2.8 2.93 2.8a2.86 2.86 0 002.94-2.8c0-1.56-1.3-2.8-2.94-2.8a2.86 2.86 0 00-2.93 2.8zm-3.1-1.9v-.81h-3.58v.8h1.32v4.63h.95v-4.62h1.3zm-9.44 4.61h2.81v-.8h-1.85v-1.85h1.46v-.8h-1.46v-1.18h1.7v-.8h-2.66v5.43zm-4.13 0h1.06l-1.4-2.66c.6-.2 1.02-.72 1.02-1.34 0-.8-.72-1.43-1.62-1.43h-1.92v5.43h.91v-2.56h.67l1.28 2.56zm-.95-4.6c.37 0 .65.28.65.62 0 .35-.28.62-.66.62h-.98v-1.24h.99zm-8.72 4.6h1.77c1.03 0 1.86-.72 1.86-1.68 0-.67-.43-1.21-1.08-1.43.32-.19.5-.52.5-.96 0-.77-.72-1.35-1.61-1.35H95.8v5.42zm1.74-2.6c.51 0 .92.4.92.89 0 .52-.4.9-.92.9h-.82v-1.78h.82zm-.33-2.01c.38 0 .68.28.68.64s-.3.63-.6.63h-.58v-1.27h.5zm-7.92 2.3h3.2v-.77h-3.2v.78zm-6.15 1.96c.38.29.78.44 1.4.44.95 0 1.77-.58 1.77-1.64 0-.75-.38-1.17-1.18-1.6l-.5-.29c-.4-.22-.56-.38-.56-.66 0-.29.23-.64.82-.64.34 0 .68.1 1.05.37l.08-.8c-.4-.24-.74-.34-1.2-.34-1 0-1.64.66-1.64 1.52 0 .55.3.97.88 1.3l.58.32c.54.31.73.5.73.89 0 .47-.38.8-.9.8s-.84-.19-1.22-.52l-.1.85zm-3.8.35h1.06l-1.4-2.66c.6-.2 1.02-.72 1.02-1.34 0-.8-.72-1.43-1.62-1.43H76.5v5.43h.9v-2.56h.67l1.3 2.56zm-.95-4.6c.37 0 .66.28.66.62 0 .35-.3.62-.66.62h-.99v-1.24h1zm-8 4.6h2.8v-.8h-1.85v-1.85h1.46v-.8h-1.46v-1.18h1.7v-.8h-2.66v5.43zm-6 0h2.65v-.8h-1.7v-4.63h-.95v5.43zm-6 0h2.66v-.8h-1.7v-4.63h-.96v5.43zm-4.5 0h.95v-5.43h-.96v5.43zm-4.68 0l1.54-5.43h-.9l-1.04 3.9-1.06-3.9h-1l1.55 5.43h.9zM249.63 99.13h4.5v-1.38h-2.87v-7.82h-1.63v9.2zm-5.01 0h1.59l-2.7-9.2h-1.27l-2.68 9.2h1.46l.42-1.6h2.73l.45 1.6zm-.78-2.85h-2.06l1-3.79 1.06 3.8zm-9.28 2.85h1.6v-9.2h-1.6v9.2zm-5.03 0h1.8l-2.37-4.5c1-.35 1.72-1.22 1.72-2.27 0-1.34-1.21-2.43-2.73-2.43h-3.25v9.2h1.54v-4.34h1.13l2.16 4.34zm-1.61-7.79c.61 0 1.1.47 1.1 1.05 0 .6-.49 1.05-1.12 1.05h-1.67v-2.1h1.69zm-8.64 3.2a3.3 3.3 0 11-6.58 0 3.29 3.29 0 116.58 0zm-8.26 0a4.85 4.85 0 004.96 4.72 4.84 4.84 0 004.97-4.73c0-2.63-2.21-4.73-4.97-4.73a4.84 4.84 0 00-4.96 4.73zm-7.29 2.16h.11l1.87-3.81v6.24h1.6v-9.2h-1.49l-1.92 3.92-1.92-3.92h-1.52v9.2h1.4v-6.25l1.87 3.82zm-6.92 2.43v-1.35h-3.14v-3.14h2.46V93.3h-2.46v-2.01h2.86v-1.36h-4.5v9.2h4.78zm-12.43-2.43h.1l1.88-3.81v6.24h1.58v-9.2h-1.48l-1.92 3.92-1.93-3.92h-1.52v9.2h1.42v-6.25l1.87 3.82zm-18.58 2.43h4.5v-1.38h-2.87v-7.82h-1.63v9.2zm-5.01 0h1.59l-2.7-9.2h-1.27l-2.68 9.2h1.46l.42-1.6h2.73l.45 1.6zm-.78-2.85h-2.06l1-3.79 1.06 3.8zm-9.02 2.85h1.35v-9.2h-1.4v6.03l-3.3-6.03h-1.36v9.2h1.4v-6.06l3.3 6.06zm-10.12-4.6a3.3 3.3 0 11-6.58 0 3.29 3.29 0 116.58 0zm-8.25 0a4.85 4.85 0 004.96 4.73 4.84 4.84 0 004.96-4.73c0-2.63-2.2-4.73-4.96-4.73a4.84 4.84 0 00-4.97 4.73zm-5.35 4.6h1.62v-9.2h-1.62v9.2zm-3.67-7.82v-1.38h-6.06v1.38h2.23v7.82h1.62v-7.82h2.21zm-10.64 7.82h1.59l-2.69-9.2h-1.28l-2.67 9.2h1.45l.43-1.6h2.73l.44 1.6zm-.78-2.85h-2.06l1.01-3.79 1.05 3.8zm-9.02 2.85h1.36v-9.2h-1.4v6.03l-3.3-6.03h-1.37v9.2h1.4v-6.06l3.31 6.06zm-17.25 0h1.36v-9.2h-1.4v6.03l-3.3-6.03H81.2v9.2h1.4v-6.06l3.3 6.06zm-9.7 0h1.6l-2.7-9.2h-1.28l-2.67 9.2h1.45l.43-1.6h2.73l.45 1.6zm-.77-2.85h-2.06l1.01-3.79 1.05 3.8zm-9.28 2.85h1.62v-9.2h-1.62v9.2zm-8.19 0h4.5v-1.38H59.6v-7.82h-1.63v9.2zm-5.02 0h1.59l-2.7-9.2h-1.27l-2.68 9.2h1.45l.43-1.6h2.73l.45 1.6zm-.77-2.85h-2.06l1-3.79 1.06 3.8zm-8.63 2.85h1.79l-2.37-4.5c1.01-.35 1.73-1.22 1.73-2.27 0-1.34-1.21-2.43-2.73-2.43H38.7v9.2h1.55v-4.34h1.13l2.16 4.34zm-1.6-7.79c.6 0 1.1.47 1.1 1.05 0 .6-.5 1.05-1.13 1.05h-1.67v-2.1h1.7zm-6.91-.03v-1.38h-6.06v1.38h2.23v7.82h1.61v-7.82h2.22zm-14.51 7.22c.64.49 1.32.73 2.36.73 1.62 0 3-.98 3-2.77 0-1.26-.64-1.98-2-2.72l-.86-.48c-.68-.38-.94-.64-.94-1.11 0-.5.4-1.08 1.39-1.08.57 0 1.15.17 1.77.62l.14-1.35a3.7 3.7 0 00-2.02-.57c-1.7 0-2.8 1.12-2.8 2.57 0 .92.5 1.64 1.5 2.21l.98.54c.91.53 1.24.86 1.24 1.5 0 .8-.65 1.34-1.52 1.34-.89 0-1.42-.3-2.07-.87l-.17 1.44zm-9.78-2.4c0 2 1.41 3.14 3.16 3.14 1.75 0 3.2-1.14 3.2-3.13v-6.2H15.5v6.22c0 1.09-.7 1.7-1.57 1.7-.84 0-1.55-.61-1.55-1.7v-6.22h-1.61v6.2zm-4.87 3h1.58l-2.69-9.2H3.5l-2.67 9.2h1.45l.43-1.6h2.73l.45 1.6zm-.78-2.85H3.04l1.01-3.79 1.05 3.8zM229.45 80.97v-1.35h-3.13v-3.14h2.46v-1.34h-2.47v-2.01h2.87v-1.35h-4.5v9.2h4.77zm-9.82 0h1.79l-2.37-4.5c1.01-.35 1.73-1.22 1.73-2.27 0-1.33-1.21-2.43-2.73-2.43h-3.26v9.2h1.55v-4.34h1.13l2.16 4.34zM218 73.18c.62 0 1.1.47 1.1 1.05 0 .6-.48 1.05-1.12 1.05h-1.66v-2.1H218zm-6.9-.03v-1.38h-6.06v1.38h2.23v7.82h1.62v-7.82h2.22zm-11.08 7.82h1.36v-9.2H200v6.04l-3.3-6.04h-1.36v9.2h1.4v-6.06l3.3 6.06zm-13.1 0h4.75v-1.35h-3.13v-3.14H191v-1.34h-2.45v-2.01h2.86v-1.35h-4.49v9.2zm-11.87-4.6c0 2.59 2.16 4.73 5.1 4.73 1.16 0 2.31-.35 3.1-1.02l-.28-1.54a3.66 3.66 0 01-2.74 1.17c-2.25 0-3.5-1.5-3.5-3.34a3.24 3.24 0 013.38-3.34c1.2 0 2 .22 2.82.92l.26-1.4c-.78-.6-1.9-.9-3.04-.9-2.91 0-5.1 2.12-5.1 4.72zm-12.44 4.6h1.63v-9.2h-1.63v3.35h-2.88v-3.35h-1.61v9.2h1.61V76.5h2.88v4.48zm-13.36-.6c.65.48 1.32.73 2.37.73 1.61 0 3-.98 3-2.77 0-1.26-.65-1.98-2-2.72l-.85-.47c-.69-.38-.95-.64-.95-1.12 0-.48.4-1.07 1.38-1.07.59 0 1.16.17 1.78.62l.13-1.36a3.69 3.69 0 00-2.02-.56c-1.69 0-2.8 1.12-2.8 2.58 0 .92.5 1.63 1.5 2.2l.98.55c.92.52 1.24.85 1.24 1.5 0 .8-.65 1.33-1.53 1.33s-1.42-.3-2.07-.86l-.16 1.42zm-4.46.6h1.58l-2.69-9.2h-1.28l-2.67 9.2h1.45l.43-1.6h2.73l.45 1.6zm-.78-2.85h-2.06l1-3.78 1.06 3.78zm-9.03 2.85h1.36v-9.2h-1.4v6.04l-3.3-6.04h-1.36v9.2h1.4v-6.06l3.3 6.06zm-10.1-4.6a3.3 3.3 0 01-3.3 3.34 3.3 3.3 0 01-3.29-3.34 3.29 3.29 0 116.58 0zm-8.27 0a4.85 4.85 0 004.97 4.73 4.84 4.84 0 004.96-4.73c0-2.63-2.2-4.73-4.96-4.73a4.84 4.84 0 00-4.97 4.73zm-7.29 2.17h.11l1.87-3.81v6.24h1.58v-9.2h-1.48l-1.92 3.92-1.93-3.92h-1.51v9.2h1.4v-6.25l1.88 3.82zm-15.82 2.43h1.36v-9.2h-1.4v6.04l-3.3-6.04H88.8v9.2h1.4v-6.06l3.3 6.06zm-10.39 0h1.63v-9.2h-1.63v3.35h-2.88v-3.35h-1.61v9.2h1.61V76.5h2.88v4.48zm-9.9-4.6a3.3 3.3 0 01-3.3 3.34 3.3 3.3 0 01-3.27-3.34 3.29 3.29 0 116.57 0zm-8.25 0a4.85 4.85 0 004.96 4.73 4.84 4.84 0 004.96-4.73c0-2.63-2.2-4.73-4.96-4.73a4.84 4.84 0 00-4.97 4.73zm-8.32 4c.44.45 1.28.73 2.15.73 1.41 0 2.53-.88 2.53-2.64v-6.69H59.7v6.68c0 .9-.47 1.26-1.15 1.26-.67 0-1.21-.3-1.65-.78l-.26 1.44zm-11.54.6h1.79l-2.37-4.5c1.01-.35 1.73-1.22 1.73-2.27 0-1.33-1.21-2.43-2.73-2.43h-3.26v9.2h1.54v-4.34h1.13l2.17 4.34zm-1.62-7.79c.62 0 1.1.47 1.1 1.05 0 .6-.48 1.05-1.11 1.05H41.8v-2.1h1.68zm-8.9 7.8h1.6v-9.2h-1.6v9.2zm-8.87-.61a3.6 3.6 0 002.36.73c1.62 0 3-.98 3-2.77 0-1.26-.64-1.98-2-2.72l-.85-.47c-.68-.38-.94-.64-.94-1.12 0-.48.39-1.07 1.39-1.07.57 0 1.15.17 1.77.62l.13-1.36a3.7 3.7 0 00-2.01-.56c-1.7 0-2.8 1.12-2.8 2.58 0 .92.5 1.63 1.5 2.2l.97.55c.92.52 1.24.85 1.24 1.5 0 .8-.65 1.33-1.52 1.33-.89 0-1.42-.3-2.07-.86l-.17 1.42z" fill="#94732C"/></svg>