<svg width="26" height="26" viewBox="0 0 26 26" fill="none" xmlns="http://www.w3.org/2000/svg">
<g clip-path="url(#clip0)">
<path d="M5.48113 16.4232C5.48113 17.9331 4.26077 19.1535 2.75082 19.1535C1.24087 19.1535 0.0205078 17.9331 0.0205078 16.4232C0.0205078 14.9132 1.24087 13.6929 2.75082 13.6929H5.48113V16.4232ZM6.84629 16.4232C6.84629 14.9132 8.06666 13.6929 9.5766 13.6929C11.0865 13.6929 12.3069 14.9132 12.3069 16.4232V23.249C12.3069 24.7589 11.0865 25.9793 9.5766 25.9793C8.06666 25.9793 6.84629 24.7589 6.84629 23.249V16.4232Z" fill="#E01E5A"/>
<path d="M9.57678 5.46062C8.06683 5.46062 6.84647 4.24026 6.84647 2.73031C6.84647 1.22037 8.06683 0 9.57678 0C11.0867 0 12.3071 1.22037 12.3071 2.73031V5.46062H9.57678ZM9.57678 6.84647C11.0867 6.84647 12.3071 8.06683 12.3071 9.57678C12.3071 11.0867 11.0867 12.3071 9.57678 12.3071H2.73031C1.22037 12.3071 0 11.0867 0 9.57678C0 8.06683 1.22037 6.84647 2.73031 6.84647H9.57678Z" fill="#36C5F0"/>
<path d="M20.5191 9.57678C20.5191 8.06683 21.7395 6.84647 23.2495 6.84647C24.7594 6.84647 25.9798 8.06683 25.9798 9.57678C25.9798 11.0867 24.7594 12.3071 23.2495 12.3071H20.5191V9.57678ZM19.154 9.57678C19.154 11.0867 17.9336 12.3071 16.4237 12.3071C14.9137 12.3071 13.6934 11.0867 13.6934 9.57678V2.73031C13.6934 1.22037 14.9137 0 16.4237 0C17.9336 0 19.154 1.22037 19.154 2.73031V9.57678Z" fill="#2EB67D"/>
<path d="M16.4237 20.5187C17.9336 20.5187 19.154 21.739 19.154 23.249C19.154 24.7589 17.9336 25.9793 16.4237 25.9793C14.9137 25.9793 13.6934 24.7589 13.6934 23.249V20.5187H16.4237ZM16.4237 19.1535C14.9137 19.1535 13.6934 17.9331 13.6934 16.4232C13.6934 14.9132 14.9137 13.6929 16.4237 13.6929H23.2701C24.7801 13.6929 26.0005 14.9132 26.0005 16.4232C26.0005 17.9331 24.7801 19.1535 23.2701 19.1535H16.4237Z" fill="#ECB22E"/>
</g>
<defs>
<clipPath id="clip0">
<rect width="26" height="26" fill="white"/>
</clipPath>
</defs>
</svg>
