<svg width="38" height="40" viewBox="0 0 38 40" fill="none" xmlns="http://www.w3.org/2000/svg">
<path fill-rule="evenodd" clip-rule="evenodd" d="M18.6072 0.0216017C22.0385 -0.1412 26.0987 0.59276 26.855 3.02396C28.0949 7.00877 21.8109 12.8191 16.3349 15.6711C14.9928 16.3703 14.1791 16.5622 13.8402 16.5144C13.5165 16.4693 13.4667 16.1453 13.5717 15.922C13.7669 15.5033 14.6495 14.6494 15.832 13.7217C21.9961 8.8873 24.0002 5.34084 22.8366 3.90314C22.0901 2.98292 18.9652 2.34322 15.7205 2.34322C14.8395 2.34322 12.5248 2.54841 12.2871 1.72967C12.0933 1.05862 15.2004 0.183276 18.6072 0.0216017Z" fill="#005386"/>
<path fill-rule="evenodd" clip-rule="evenodd" d="M11.3492 18.2935C14.2913 18.121 17.8653 18.6367 19.8727 20.1792C20.8707 20.945 21.5726 22.3553 21.1662 23.9718C20.0076 28.56 15.6832 34.1106 6.0742 38.376C3.01881 39.7323 0.616343 40.2513 0.11202 39.8874C-0.429996 39.4961 1.14579 36.4687 1.62001 35.4635C3.1542 32.2091 5.07054 29.0401 6.93879 26.1391C7.62725 25.0713 8.68919 23.2198 9.65125 23.3679C10.5124 23.5007 9.50373 25.4687 8.84018 26.7202C7.72538 28.8197 4.65482 34.6528 5.6678 35.0011C7.90714 35.7725 18.4136 27.7464 16.8645 23.2764C16.1464 21.2018 11.5845 21.0043 8.7115 21.0043C7.40477 21.0043 4.55062 21.3142 4.3927 20.3096C4.22221 19.3824 8.72883 18.4491 11.3492 18.2935Z" fill="#005386"/>
<path fill-rule="evenodd" clip-rule="evenodd" d="M34.0729 13.3777C35.8389 13.698 37.2782 13.9461 37.6089 14.6947C37.9798 15.5431 36.0565 15.5944 35.0873 15.6145C30.4415 15.7049 27.6401 15.7966 27.5 17.3817C27.3176 19.4222 29.4853 21.4761 31.6258 24.3567C33.5815 26.9859 35.8047 29.5801 35.1638 31.9999C34.3651 35.0137 30.6854 35.6513 27.1818 35.6518C23.8256 35.6549 20.6461 35.1142 19.3107 34.8478C17.647 34.5179 17.8941 33.6927 18.3382 33.4272C18.8326 33.1307 21.6615 33.1236 23.6273 33.0063C25.245 32.9106 29.9434 32.9132 30.6757 31.7046C31.5742 30.2255 29.3747 27.693 27.3554 25.0411C24.8353 21.732 22.0674 18.3162 23.5321 15.8214C25.4279 12.5935 30.9733 12.8148 34.0729 13.3777Z" fill="#005386"/>
</svg>
