<svg width="1200" height="40" viewBox="0 0 720 24" fill="none" xmlns="http://www.w3.org/2000/svg"><g clip-path="url(#clip0)" fill="#000"><path d="M22.137 18.578l-9.803 5.527v-4.303l6.109-3.35 3.694 2.126zm.671-.605V6.417l-3.585 2.066v7.429l3.585 2.06zm-21.137.605l9.803 5.527v-4.303l-6.111-3.35-3.691 2.126H1.67zM1 17.973V6.417l3.586 2.066v7.429L1 17.972zm.421-12.306L11.474 0v4.16L5.032 7.691l-.052.03-3.56-2.054zm20.966 0L12.335 0v4.16l6.44 3.528.052.029 3.56-2.05zM11.474 18.821l-6.028-3.304V8.976l6.028 3.468v6.377zm.86 0l6.028-3.3V8.974l-6.027 3.469v6.377zm-6.48-10.6l6.05-3.314 6.05 3.313-6.05 3.482-6.05-3.482z"/></g><path fill-rule="evenodd" clip-rule="evenodd" d="M42.853 2H38.76L36 6.865 33.18 2h-4.033L36 13.992 42.853 2z" fill="#000"/><path fill-rule="evenodd" clip-rule="evenodd" d="M27.995 2H24l12 20.981L48 2h-3.996L36 16.008 27.995 2z" fill="#000"/><g clip-path="url(#clip1)" fill="#000"><path fill-rule="evenodd" clip-rule="evenodd" d="M66.963 7.882c.259.077.516.16.771.25 2.593.92 4.268 2.361 4.268 3.85 0 1.555-1.79 3.072-4.542 4.012-.145.05-.294.098-.447.143.054.22.103.44.146.662.542 2.828.124 5.152-1.163 5.92-1.247.743-3.261.013-5.301-1.796-.222-.198-.438-.4-.65-.61-.166.167-.334.326-.5.476-2.106 1.896-4.268 2.684-5.557 1.917-1.247-.74-1.639-2.904-1.137-5.628.054-.297.117-.591.189-.884a11.749 11.749 0 01-.65-.208c-2.647-.934-4.388-2.47-4.388-4.003 0-1.484 1.623-2.916 4.163-3.828.285-.102.58-.198.888-.288a17.002 17.002 0 01-.176-.82c-.527-2.772-.158-4.988 1.094-5.735 1.305-.778 3.477.059 5.644 2.041.135.124.267.25.398.38.194-.194.394-.383.598-.566 2.068-1.856 4.116-2.63 5.367-1.887 1.306.776 1.689 3.134 1.103 6.06a13.6 13.6 0 01-.118.542zm-.195 7.239c.137-.042.271-.085.403-.13 2.38-.81 3.845-2.053 3.845-3.008 0-.898-1.356-2.063-3.581-2.85-.23-.083-.469-.16-.715-.233-.296.985-.691 2.025-1.17 3.087a25.23 25.23 0 011.218 3.134zm-.469 5.148c.16-.884.125-2.014-.116-3.265h.001a13.664 13.664 0 00-.13-.598c-1.072.249-2.16.422-3.256.517a24.74 24.74 0 01-2.016 2.632c.202.2.404.39.605.567 1.747 1.547 3.368 2.134 4.125 1.682.356-.212.644-.741.787-1.535zm-11.786 1.524c.356.211.946.204 1.686-.066.824-.3 1.759-.894 2.692-1.733.156-.14.308-.285.458-.434a25.608 25.608 0 01-2.064-2.624 23.496 23.496 0 01-3.24-.482 15.78 15.78 0 00-.176.822c-.43 2.329-.115 4.066.644 4.517zm-4.586-8.339c.664.585 1.632 1.12 2.804 1.532.197.07.395.133.594.191.327-1.08.723-2.138 1.186-3.168a25.742 25.742 0 01-1.171-3.123c-.28.08-.555.17-.828.267-2.177.78-3.483 1.93-3.483 2.83 0 .424.302.946.898 1.471zm4.569-11.226c-.755.45-1.055 2.242-.604 4.618.05.255.104.509.166.761a24.513 24.513 0 013.208-.512 25.195 25.195 0 012.049-2.608 17.788 17.788 0 00-.361-.343C57.078 2.433 55.3 1.75 54.495 2.228zm9.037 6.014a33.844 33.844 0 011.422 2.524 22.71 22.71 0 00.77-2.13 22.032 22.032 0 00-2.192-.394zM61.45 7c-.467-.64-.941-1.23-1.415-1.757a23.3 23.3 0 00-1.427 1.756 29.4 29.4 0 012.842 0zm-6.35 3.767a31.87 31.87 0 011.416-2.526c-.763.098-1.493.227-2.18.385.22.725.476 1.44.764 2.141zm-.778 4.668c.731.161 1.471.284 2.216.367a31.327 31.327 0 01-1.436-2.55 24.099 24.099 0 00-.78 2.183zm4.295 1.585c.453.616.936 1.21 1.447 1.779.47-.532.943-1.13 1.411-1.786-.952.041-1.905.044-2.858.007zm7.156-1.63a22.687 22.687 0 00-.807-2.177c-.441.877-.92 1.734-1.436 2.57.793-.098 1.546-.23 2.243-.394zm-3.547.52c.403-.624.788-1.264 1.152-1.914h.001c.367-.654.71-1.322 1.033-2.002a34.86 34.86 0 00-2.195-3.888 28.288 28.288 0 00-4.383 0 29.836 29.836 0 00-2.188 3.903 30.107 30.107 0 002.2 3.91c.702.047 1.429.07 2.178.07.751 0 1.488-.026 2.201-.078zm3.884-8.783c.506-2.527.193-4.452-.613-4.93-.756-.448-2.414.178-4.19 1.768-.189.169-.373.343-.553.521a24.718 24.718 0 012.033 2.61c1.134.11 2.217.286 3.215.523.038-.163.075-.328.108-.492z"/><path d="M60.023 9.773c1.186 0 2.146.989 2.146 2.21 0 1.22-.961 2.208-2.146 2.208-1.186 0-2.147-.989-2.147-2.209 0-1.22.961-2.209 2.147-2.209z"/></g><path fill-rule="evenodd" clip-rule="evenodd" d="M96 0H72v24h24V0zM80.147 18.945l-1.837 1.111c.532 1.128 1.579 2.062 3.384 2.062 1.997 0 3.367-1.063 3.367-3.4v-7.7h-2.256v7.669c0 1.128-.467 1.418-1.208 1.418-.773 0-1.096-.532-1.45-1.16zm7.975-.194l-1.836 1.063v.001c.66 1.305 2.013 2.303 4.108 2.303 2.142 0 3.737-1.111 3.737-3.141 0-1.885-1.079-2.723-2.996-3.545l-.564-.24c-.966-.42-1.386-.694-1.386-1.37 0-.548.42-.967 1.08-.967.644 0 1.063.274 1.45.967l1.756-1.128c-.741-1.305-1.772-1.805-3.206-1.805-2.013 0-3.303 1.29-3.303 2.98 0 1.837 1.08 2.707 2.707 3.4l.564.242c1.031.451 1.642.725 1.642 1.498 0 .644-.595 1.112-1.53 1.112-1.111 0-1.739-.58-2.223-1.37z" fill="#000"/><path d="M107.953 9.078c-.203.141-.434.285-.692.426l.004.042c.016 0 .039-.012.071-.03.031-.005.046.01.05.037l.043-.023h.02v.02c.004.022-.16.144-.481.364l.024.046h-.02l-.051-.02c0 .016-.019.027-.066.03v.02l.051.06a.18.18 0 01-.075-.018c-.105.007-.207.083-.309.22l.024.042c.09-.08.141-.122.156-.122l.004.065c-.015 0-.039.011-.07.03l.058.08c.106-.114.223-.209.348-.289.063.02.098.038.098.057l.047-.004c.352-.25.696-.429 1.036-.539l.004.042c-.063.091-.106.137-.129.14.004.03.011.057.027.084.004.057-.148.437-.461 1.14-.715 1.628-1.314 2.836-1.798 3.618 0 .015.012.038.031.065a.59.59 0 00.227-.084h.019l.004.042.051-.004.043-.023c0 .012.016.02.047.016l.004.045c.004.042-.024.106-.074.198-.051.053-.106.167-.161.338l.004.022.047-.003c.196-.213.34-.418.442-.623.567-.164.997-.32 1.298-.475.304-.026.531-.102.688-.228l-.004-.022-.118.034-.023.004-.004-.023c.223-.03.375-.08.457-.145.43-.322.755-.55.978-.683.68-.486 1-.95.961-1.398-.004-.045-.152-.227-.449-.546-.004-.061.097-.149.304-.262l.595-.502c.132-.163.211-.429.234-.797l-.008-.084c-.023-.254-.215-.46-.574-.619-.215-.14-.598-.216-1.149-.231-.446.03-1.044.19-1.783.47zm3.182.03l-.024.046-.656-.27c.441.02.668.092.68.225zm-2.666 1.778c.047-.24.098-.372.153-.402l.496-1.079c-.004-.064.098-.118.313-.156l.07-.007.004.064a6.2 6.2 0 01.395-.057c.391-.034.594.046.609.228l.047-.004-.007-.102.046-.004c.114.06.172.133.18.22.004.061-.027.137-.094.228-.031.004-.046-.019-.05-.06l-.047.003-.016.13c-.199.292-.34.44-.43.447-.078.107-.129.16-.152.16-.063.072-.231.197-.508.368-.094.008-.434.137-1.025.388-.027-.012-.062-.016-.093-.012l-.004-.042c-.008-.08.031-.182.113-.31zm2.728-1.329l.004.046c-.023 0-.066-.069-.137-.206l-.003-.041c.043-.004.089.064.136.201zm-4.325.516l.005.047c-.017 0-.042.023-.075.053h-.021l-.004-.084.095-.016zm1.439-.034l.004.065c-.026 0-.057.034-.096.09l-.004-.04c.043-.05.065-.088.065-.115h.031zm-.196.448l.02.096-.06.004-.02-.095.06-.005zm-.074.156c-.004.072-.028.11-.071.114l-.029.004c.034-.05.048-.088.043-.114l.057-.004zm-.11.224l.005.024-.044.072-.052.004-.004-.024c.052-.004.078-.028.074-.076h.021zm-.05.201l-.036.11h-.046l-.018-.11h.1zm2.351.08l.098.057c.004.027-.012.046-.043.046-.043-.027-.075-.038-.098-.034v-.065l.043-.004zm-1.882.243l.004.085-.096.015-.004-.085.096-.015zm1.518.156c.067.03.098.057.102.08v.02c-.063.003-.121-.027-.176-.096l.074-.004zm-1.958.467c.266-.023.684-.144 1.259-.365l.144-.011c.29-.023.505.03.649.163l.008.084c-.106.296-.223.47-.352.524l-.59.463c-.442.281-.68.422-.719.425-.704.376-1.142.57-1.314.585l-.023.004c.016-.08.328-.702.938-1.872zm.639-.247l.004.06-.096.02-.004-.06.096-.02zm2.134-.095l.016.175c-.025.042-.045.064-.07.068l-.03-.296c.055.015.084.034.084.053zm-3.61 1.489c-.032.144-.065.22-.097.22v-.019c-.012-.068.02-.137.097-.201zm.587.812c.172-.03.645-.27 1.419-.721l.004.042c0 .019-.063.076-.2.167-.39.19-.625.315-.695.38-.426.144-.638.235-.634.27-.379.143-.625.25-.746.318a.224.224 0 01-.121-.034c-.008-.076.027-.133.101-.178a.444.444 0 01.188.026 2.22 2.22 0 01.367-.118l-.004-.041-.144.01c.015-.026.152-.086.406-.185l.071-.008v.02c-.122.01-.188.045-.204.106.004.026.02.041.051.038.098-.046.141-.08.141-.092zm-.679-.52v.028c.008.044-.025.072-.091.072l-.008-.033c0-.028.033-.056.099-.067zm1.058.296c-.055.004-.16.05-.317.133l-.023.004-.004-.042a.48.48 0 00.293-.129c.032-.004.047.008.051.034zm-1.149.319l.07-.015.004.043c-.015 0-.039.021-.07.05l-.047.007c-.004-.043.012-.071.043-.085zm-.473.247l.047.02c-.016.132-.059.2-.121.204a.314.314 0 00-.145-.03l-.004-.065c-.004-.023.012-.038.043-.045.031-.004.047.019.051.06a.898.898 0 01.129-.144zM98.752 8.89c-.266.19-.57.376-.911.558l.004.057c.023 0 .05-.015.09-.034.039-.004.062.011.062.049l.063-.034.031-.004.004.027c.004.026-.211.19-.637.482l.035.053-.031.004-.067-.023c0 .019-.027.03-.09.034l.004.03.07.077a.256.256 0 01-.093-.02c-.137.012-.274.11-.407.293l.036.053c.117-.102.183-.156.203-.156l.008.084c-.02 0-.051.015-.09.034l.074.107c.14-.149.293-.274.465-.377.086.023.13.046.13.076l.062-.003c.457-.33.91-.566 1.36-.714l.004.057c-.082.121-.14.182-.172.186.004.042.02.076.043.11.008.076-.195.573-.61 1.5-.946 2.15-1.735 3.737-2.373 4.77 0 .018.016.049.036.083.156-.038.258-.072.3-.11l.036-.004.004.057.058-.004.063-.034c0 .02.023.027.063.023l.003.057c.004.057-.027.144-.101.262-.067.072-.133.22-.207.444l.004.027.058-.004c.254-.277.45-.55.583-.816.746-.213 1.313-.422 1.708-.627.395-.034.7-.133.903-.3l-.004-.03-.149.041-.035.004-.004-.03c.29-.042.493-.107.602-.19.567-.425.993-.725 1.282-.904.895-.638 1.317-1.253 1.267-1.838-.004-.06-.204-.3-.591-.718-.007-.08.129-.193.403-.345l.778-.665c.172-.216.277-.566.313-1.048l-.012-.114c-.031-.338-.282-.611-.758-.82-.282-.186-.786-.285-1.513-.296-.598.053-1.388.258-2.357.623zm4.19.049l-.023.057-.868-.353c.578.023.875.121.891.296zm-3.51 2.34c.059-.312.125-.49.2-.532l.648-1.417c-.008-.087.129-.156.414-.201l.094-.008.008.08c.282-.042.454-.065.52-.072.516-.042.782.057.805.304l.059-.004-.012-.144.063-.004c.152.08.234.178.242.296.008.08-.035.178-.133.296-.039.004-.062-.023-.066-.08l-.063.004-.016.171c-.261.38-.449.573-.566.585-.106.14-.172.213-.2.216-.082.095-.305.259-.672.486-.121.012-.571.179-1.349.51-.039-.02-.078-.023-.125-.02l-.004-.053c-.007-.11.04-.247.153-.414zm3.592-1.748l.004.054c-.031.003-.09-.088-.176-.27l-.004-.053c.055-.008.114.083.176.27zm-5.707.676l.004.042c-.02 0-.05.023-.09.052l-.031.006-.004-.082.121-.018zm1.888-.045l.008.083c-.027.004-.066.042-.113.122l-.004-.057c.054-.065.082-.114.082-.148h.027zm-.248.592l.028.114-.073.004-.027-.114.072-.004zm-.115.205c-.008.095-.032.144-.082.148l-.032.004c.035-.064.055-.11.051-.144l.063-.008zm-.13.296l.005.027-.055.091-.059.004-.004-.027c.059-.003.086-.034.082-.09l.032-.005zm-.09.266l-.028.14-.053.005-.02-.14.1-.005zm3.128.103l.129.076c.004.038-.016.06-.055.064a.267.267 0 00-.129-.05l-.008-.083.063-.007zm-2.482.323l.004.082-.122.018-.003-.083.12-.017zm2.001.197c.086.038.129.076.133.106l.004.027c-.082.008-.156-.034-.227-.125l.09-.008zm-2.58.615c.352-.03.907-.19 1.661-.478l.184-.015c.383-.03.669.037.856.212l.012.114c-.141.395-.297.623-.465.695l-.782.604c-.582.372-.895.558-.942.562-.926.497-1.505.752-1.728.77l-.035.005c.031-.107.442-.927 1.24-2.469zm.845-.323l.003.07-.125.03-.004-.07.126-.03zm2.806-.121l.02.224c-.028.06-.055.091-.086.091l-.036-.395c.067.027.098.053.102.08zm-4.757 1.96c-.039.193-.082.292-.125.296l-.004-.027c-.008-.099.035-.186.13-.27zm.782 1.07c.227-.041.848-.36 1.868-.95l.004.054c.004.023-.086.095-.262.22-.52.247-.825.418-.914.505-.563.19-.84.308-.837.354-.5.193-.829.334-.985.421a.369.369 0 01-.16-.042c-.008-.098.035-.178.137-.243a.51.51 0 01.25.038c.094-.045.254-.099.485-.152l-.004-.057-.184.016c.023-.03.2-.11.535-.243l.094-.008.004.027c-.156.01-.246.06-.266.14.004.034.024.053.063.05.113-.076.172-.118.172-.13zm-.924-.687l.006.03c.007.04-.026.066-.092.07l-.006-.03c-.007-.037.026-.062.092-.07zm1.424.387c-.074.008-.21.065-.418.179l-.031.004-.004-.057a.6.6 0 00.383-.171c.043-.008.066.011.07.045zm-1.516.414l.093-.011.004.044c-.023 0-.05.023-.09.05l-.058.006c-.004-.04.011-.072.05-.09zm-.622.334l.066.027c-.023.17-.074.258-.164.266a.41.41 0 00-.191-.038l-.008-.084c-.004-.034.016-.053.059-.064.039-.004.062.023.066.08.106-.126.164-.187.172-.187zm17.339-7.462l-.05-.019-.833.126a.215.215 0 00-.113-.02 1.55 1.55 0 00-.223.046l-.403.164.032.049a.209.209 0 00.082-.03l.14.011-.019.13c-.129.056-.207.14-.227.25-.195.083-.293.144-.293.182l.004.023.031-.004.055-.027.062.073.008.098c.004.03-.328.71-.993 2.036-.574 1.276-.875 1.974-.906 2.1-.196.053-.313.133-.344.235.003.034.062.053.175.065l.004.05-.05.083.007.098c.004.053.149.091.43.122 0-.02.008-.027.028-.03.004.06-.012.182-.055.364l.031-.004c.118-.155.172-.262.168-.322l.024-.004c.027-.004.058.03.094.098-.036.016-.161.289-.372.825l.032.049.031-.004c.262-.642.426-.999.492-1.067.344-.03.935-.087 1.779-.175l.051-.03c0 .019.011.027.031.023l.055-.004.05-.03c0 .019.012.026.032.022l.637-.053c.168-.015.25-.064.242-.148-.004-.023.098-.05.301-.076.02 0 .047.004.086.015 0-.015.098-.03.301-.05.004-.102.039-.159.102-.162l-.004-.05a.925.925 0 00-.196.042 1.067 1.067 0 01-.254-.03.198.198 0 01-.082.03l-.445.015-.055.027c0-.015-.012-.023-.031-.02l-.024.005-.058.026c0-.015-.047-.026-.141-.038l-.055.03-.109.008-.004-.026c.57-.061.856-.137.848-.228.035-.004.055.015.059.05l.168-.043-.004-.049-1.368.038c0 .019-.008.027-.028.03l-.168-.015a.182.182 0 00-.105.038l-.063-.023a2.03 2.03 0 00-.387.061 2.717 2.717 0 00-.391.004l-.308.027-.141-.016c-.008-.087.168-.52.531-1.299.106-.261.204-.425.294-.486.019 0 .046.004.086.02l.218-.073.114.02c.187-.016.406-.07.657-.156a.366.366 0 01.14.011l.168-.038.497-.042c.211-.019.441-.064.688-.136l-.004-.05c-.094.008-.141-.007-.145-.042-.008-.068-.074-.095-.203-.083l-.004-.05.137-.037.359-.03-.004-.05c-.015 0-.086 0-.222-.004l-.004-.053.14-.012c.036-.003.055-.022.051-.053-.187.004-.281-.004-.281-.026-1.302.06-1.951.072-1.955.034-.019 0-.046.011-.082.034l-.035-.053c.344-.71.547-1.071.606-1.075.004.027-.012.072-.043.133l.004.023.055-.004c.137-.319.25-.482.348-.49.406-.034-.059-.06.817-.193.035.015.062.022.078.018.344-.068.821-.136 1.434-.208l-.004-.05-.328.03-.004-.049a.174.174 0 00.098-.038l.004.027c.019 0 .043-.012.074-.034a.26.26 0 01.129.015c.113-.03.203-.046.274-.053l.203-.02c.051-.03.074-.056.07-.083v-.023a.777.777 0 01-.18-.011c-.004-.027.012-.046.047-.053l.379-.034.176-.042c0 .019.012.027.024.027.019 0 .043-.012.074-.035.09.012.145.016.156.012a.77.77 0 01.243-.152c-.039-.038-.059-.069-.063-.095l-.254.023c0-.02-.012-.042-.027-.076 0-.023.054-.046.172-.069l.051.02.046-.027c0 .015.012.023.028.019l.047-.027c0 .015.011.023.027.02l.024-.005-.004-.049a3.076 3.076 0 01-.278 0l-.047.03-.004-.026c-1.192.095-1.868.148-2.028.163-.02 0-.106 0-.251-.004 0 .02-.015.03-.05.03l-.051-.022-.176.042c-.039.003-.109 0-.207-.008a.206.206 0 01-.098.038c-.039.004.946-.053.915-.068l-.153.041-.023.004a1.289 1.289 0 01-.235-.007.238.238 0 01-.125.038.172.172 0 01-.101-.02 5.153 5.153 0 01-.38.08zm.063.152c0 .02.02.028.051.024l.004.052-.051.004a.17.17 0 01-.102-.02.174.174 0 01-.097.04h.015l-.141-.016-.003-.024c.172-.012.226-.032.324-.06zm.142-.008l.035-.007.005.087-.1.013c0-.047.015-.08.06-.093zm.288-.033l.004.035a.841.841 0 00-.223.06l-.027.005.023-.07.223-.03zm-2.22.29l.096-.014-.004-.087-.096.014.004.086zm.613-.096l.032-.005.058.028c.004.04-.015.063-.05.063l-.086.01-.004-.032c-.004-.032.015-.05.05-.064zm1.967.11v.06l-.176.04v-.06l.176-.04zm-.505.071l.004.07-.101.02-.004-.07.101-.02zm.485.038l.352-.057.18.008.004.027a.876.876 0 00-.223.045c0-.019-.035-.034-.106-.042l-.277.076c-.055-.03-.082-.053-.082-.068l.152.011zm-.348.077c.035-.006.051.018.055.074l-.149.025-.004-.08.098-.02zm-.309.004l.004.038.915-.06-.004-.04-.915.062zm.055.049v.054l-.199.046v-.055l.199-.045zm-1.309 1.006l.004.027.072-.004c0-.02.005-.046.024-.08l-.005-.05c-.038.004-.072.039-.095.107zm-1.976 2.84l.007.029c.006.043-.027.067-.092.071l-.007-.028c-.006-.038.026-.057.092-.072zm-.088.107c.004.05-.031.17-.102.368l-.086.008c-.004-.035.043-.156.133-.369l.055-.007zm.942.793c.004.03-.043.066-.133.1l-.172-.013-.055.005-.004-.057.364-.035zm.168.016l.004.06-.141.03-.004-.06.141-.03zm5.238-5.469c-.063.277-.165.482-.301.62l-.098-.062c.106-.262.156-.413.152-.451l-.027-.042c-.035.004-.082.095-.141.277l-.05.004a.206.206 0 00-.028-.088l-.023.004c-.462 1.25-.669 1.83-1.095 2.791-.078.247-.144.384-.203.41.004.027.02.042.051.038a.6.6 0 01-.086.357c-.2.551-.329.855-.395.908l.043.262c.004.027-.012.046-.043.046l-.047.003c-.008-.072-.035-.106-.082-.102l-.023.004a1.07 1.07 0 00-.137.319l.047-.004c.062-.038.09-.084.086-.14l.093-.008.051.019c-.043.064-.062.117-.058.155l.023.042-.059.137.004.023a.296.296 0 01.176.05.345.345 0 00.141-.054c.055-.004.25-.008.594-.008l.172-.057c.211-.003.242.004.426-.011l.074-.008.04-.026.003.023c.188-.016.204-.004.352.015l.004.023-.105.007.004.042a.157.157 0 00.082-.03c.027-.004.043.011.047.041a.839.839 0 00-.145.03l-.047-.014c-.074.019-.059.022-.106.026l-.074-.015c0 .011-.004.019-.015.023.003.026.015.042.043.038l.089-.008-.039-.015c0 .011.008.019.024.019l.387-.034.148-.03c0 .01.008.018.02.018l.07-.026.133-.012c.106-.007.102-.015.325-.049 0-.011.003-.019.015-.019v.019c.426-.068.387-.065.477-.095l-.019-.046c-.122.027-.118.012-.18.02l-.325.015-.004-.023.18-.023.067-.004.035-.026.004.023c.254-.023.344.041 1.528-.202.063-.004.059-.057.098-.163a.119.119 0 01-.063-.015c-.098.038-.148.019-.336.05-.016 0-.027-.012-.035-.043v-.019l.18.008c.031-.004.101-.008.195-.06.02.01-.016.022.004.018l.031-.004c.02 0 .028-.015.028-.045l-.02-.042c-.121.011-.18.015-.277.068l-.004-.022-.149.015c-.004-.046-.015-.065-.035-.065l-.078.008c-.09.007-.133.004-.176.038 0-.015-.008-.023-.016-.023l-.086.008-.051.026c0-.015-.007-.023-.015-.023l-.031.027-.004-.023-.118-.007-.027.003.004.042.062.015.055-.003c.02.011.043.015.067.015l.05-.023v.019c-.277.068-.277.053-.469.087a.095.095 0 00-.047-.019c-.019.02.024.004.012.004-.031.004-.047-.011-.051-.038l.098-.011c.008 0 .012.007.067.019.078-.038.082-.053.125-.057l-.004-.042c-.274.053-.164.019-.508.046h-.016l-.004-.042c.442-.053.293-.023.442-.065 0 .015.008.023.015.023a.094.094 0 01.063-.027l.031-.003c.153-.012.207.019.512-.065v.02l.051-.024.047-.003c-.004-.046.066-.05.086-.054l-.004-.045c-.535.106-.676.076-.825.117v-.018c-.14.026-.144.01-.179.015-.012 0-.028.011-.043.026 0-.015-.008-.022-.02-.022-.023 0-.012.007-.031.026l.031-.026-.465.072c0-.012-.008-.02-.02-.02-.234.05-.172.058-.488.084a.114.114 0 00-.059.023c0-.011-.008-.019-.023-.019l-.196.015-.129.03c0-.01-.008-.018-.023-.018a1.14 1.14 0 01-.188.034h-.004c-.031.004.016-.008-.008-.02l-.039.024c-.058.003-.027-.004-.223 0-.344.041-.304.045-.344.049l-.128-.008c0 .012-.004.02-.02.023-.145-.019-.219-.042-.223-.068.02-.133.051-.201.102-.21l.023-.003-.023.046.023-.004c.047-.023.067-.046.067-.069l-.004-.045-.047.004-.004-.042a.157.157 0 01.012-.087l.105-.164.004.042.051-.004-.004-.042-.027-.041c.035-.03.066-.05.09-.05l-.004-.022-.067.003-.004-.064c.133-.274.2-.433.196-.475l.047.02c.031-.005.047-.02.043-.05l-.047.004v-.02a.18.18 0 01.015-.09c.075-.073.106-.149.098-.228.016 0 .024.007.024.022.062-.034.109-.125.144-.277.11-.194.266-.58.469-1.158.391-1.022.375-1.132.43-1.371l-.047.004a.141.141 0 01-.019.087.273.273 0 00-.075-.019v-.019c-.007-.087.032-.193.118-.319h.019l.039.148.047-.003c0-.012.012-.069.035-.179-.003-.023-.019-.034-.054-.038l-.043.027c-.004-.03 0-.11.004-.243l-.043.007zm-.559.657l.025-.004c-.037.062-.066.097-.095.1l-.005-.065a.195.195 0 00.075-.03zm-.2.456c.047-.186.094-.293.137-.32l.004.024c-.023.174-.062.262-.117.27l.008.11c-.043.056-.063.102-.059.136l-.023.004-.012-.152c.023-.004.047-.027.062-.072zm-.053.247c.005.026-.02.087-.064.178l-.03.004-.005-.065c.035-.076.069-.113.099-.117zm-1.307 2.773l.033.06c.05-.005.072-.027.066-.066l-.005-.033-.033.005-.061.034zm.618.485v.019c.035-.004.07-.065.101-.182l-.047-.015a.767.767 0 00-.054.178zm3.964.135v.021l-.048.05.091-.029h.009l-.004-.046h-.02l-.033.025c0-.012.1-.037.024-.05-.014.021.024.025-.019.03zm.144.193l.105-.018c-.004-.064-.07-.082-.093-.082h-.016l.004.1zm-1.869-.02l.032.062c0-.019.004-.031.015-.031l.024.069-.098-.02c-.008-.05.004-.074.027-.08zm-.32.034c.035-.008.059.038.059.1h-.11v-.039a.149.149 0 00.051-.06zm.256-.012l.004.06-.096.02-.004-.06.096-.02zm-.913.093c0 .013.008.02.024.02.144-.028.129-.032.199-.04.023-.005.035.012.039.04l-.402.038.039.02-.004-.024-.153.012-.004-.024.137-.013.125-.029zm.415-.036v.046c-.012 0 .039.009.015.054-.086-.018-.09-.036-.152-.027v-.045l.137-.028zm.127-.011v.05l-.1.02v-.05l.1-.02zm-2.482.387l.008.1a.088.088 0 01-.1-.065v-.029l.092-.006zm3.3-.057l.004.042.079-.008-.032-.018.004.022.078-.03c.536-.057.598-.034.591-.095v-.02c-.54.119-.61.096-.724.107zm.838-.04l.095.026-.005-.073-.095-.027.005.074zm-2.315.12c.023.02-.027.04.004.032l.273-.04.004.04c-.078.014-.129.034-.144.06 0-.026-.008-.04-.024-.04l-.117.02-.004-.04c.031-.006-.015-.006.008-.033zm1.266-.022l.024.065c.09-.03.039-.024.062-.053 0 .024.008.035.016.035l.063-.005-.004-.071-.164-.006.003.035zm-1.517.21h-.04l-.01-.1h.04l.01.1zm-1.254.086l.004.024.719-.058-.004-.042-.574.046-.121-.016-.024.046zm.807.016h.02l-.01-.1h-.02l.01.1zm-10.95-3.727c-.508.589-.77.912-.79.976-.207.21-.309.334-.297.376-.055.034-.078.069-.07.107-.016.003-.028-.004-.032-.02a.606.606 0 01-.394.27l-.184.042c-.023.004-.035.023-.035.053l.004.023.07-.015.004.019-.156.057-.278.06-.145.008c-.019.019.114-.004.063.011l-.18.042c-.109.027-.172.015-.18-.026l-.019.003c.012.042 0 .069-.031.076l.035-.007-.016-.065-.328.076.035.015c-.004-.015-.02-.019-.051-.011l-.043.034-.051-.011a.385.385 0 01-.086.042l-.05-.012c-.137.076-.036.076-.043.076l.011.042.078-.02.122-.007-.012.05c-.446.114-.121.049-.242.076l-.024.003.012.042.07-.015.004.023c-.09.019-.141.038-.156.057l-.004-.023c-.117.027-.235.114-.352.258.02.084-.234.186.962-.083.082-.004.129-.004.14-.008-.004-.015.004-.023.02-.027.133-.015.07.008.152-.011l.258-.057-.054.03c-.004-.011.003-.019.015-.022a.216.216 0 00.098-.004l.016.064-1.021 1.572-.226.274-.11.36.02-.003.109-.046-.035.14.012.043.031.038c-.016.003-.02.011-.016.026l.004.023.047-.011c.067-.057.094-.11.086-.156a.587.587 0 00.145.011l.004.023c-.043.011-.067.046-.071.103l.004.022.024-.003c.371-.392 1.274-1.732 2.001-2.643-.023-.1.356-.236 1.137-.41l.024-.004c.027.117-.031.406-.18.865-.098.278-.141.43-.137.452-.125.369-.183.566-.176.597l-.277.88c-.18.452-.317.927-.411 1.428a.191.191 0 01.075.008l.039-.034c.004.015.012.019.031.019l-.016-.065.122-.003c.035-.008.066-.054.09-.134-.004-.117.019-.182.074-.197.074-.28.121-.425.137-.429.07-.281.121-.44.156-.482.106-.365.18-.555.231-.566l.011.045-.074.194a9.356 9.356 0 01-.406 1.363l.039.168.023-.004c.332-.691.805-2.058 1.427-4.102a.533.533 0 01.266-.417l-.036-.034-.004-.02c.071-.015.122-.041.149-.08-.004-.014-.066-.037-.188-.068l.368-1.526c.109-.456.184-.855.223-1.204l-.004-.023a.82.82 0 01-.215-.193v-.092l-.004-.019-.02.004c-.226.334-.68.915-1.348 1.743zm.52.346c.019.08-.012.228-.09.444-.024.274-.125.43-.301.471l-.004-.023-.157.057-.07.015a.171.171 0 01-.098-.003l-.015-.061c-.004-.023.219-.327.68-.908l.055.008zm-.36.95l.051-.012.012.042c-.247.072-.384.11-.411.117a.172.172 0 00-.066.038c-.004-.015-.035-.015-.098-.003-.012-.042.16-.103.512-.183zm-2.421.68l.082-.02-.018-.08-.082.02.018.08zm.709-.225l.012.085-.118.015-.003-.046.109-.054zm-1.347.437l.005.06-.095.04-.005-.06.095-.04zm-.158.282l.004.046-.09.045-.012-.1.098.01zm.215-.05l.004.033-.164.066-.004-.033.164-.067zm.285-.046l.004.022-.43.095-.011-.041c.25-.042.222-.027.437-.076zm2.154-.486l.035.038a.242.242 0 00-.109.045l-.051-.007c-.078.03-.148.053-.203.064l-.047.011c-.027.008-.047-.003-.059-.03l.325-.072.109-.05zm.231-.05l.23-.053.004.023a1.32 1.32 0 00-.293.091l-.004-.023c.02-.003.039-.019.063-.038zm-2.424.638l.11-.023.011.042c-.046.012-.011.012-.07.038-.113.012-.09-.004-.27.038l-.003-.023.222-.072zm.297-.047c.032-.014.051.007.055.063l-.066.028c-.028.014-.047-.007-.059-.063l.07-.028zm-1.222 2.415l.009.03c.074-.01.102-.03.084-.07l-.01-.03c-.065.01-.092.03-.083.07zm.093.375c.008.034.025.049.059.04.034-.01.047-.03.038-.069l-.004-.029-.051.015-.042.043zm2.497.642c.035-.01.052.005.061.04l.004.031-.1.026a.233.233 0 00.005-.092l.03-.005zM131.012.305a2.04 2.04 0 011.975 0c3.008 1.683 6.016 3.363 9.023 5.047.566.315.944.939.938 1.584V17.06c.004.672-.411 1.31-1.008 1.618-2.998 1.674-5.993 3.35-8.99 5.023a1.982 1.982 0 01-1.998-.055c-.898-.516-1.799-1.029-2.697-1.544-.184-.109-.39-.195-.52-.371.114-.153.319-.172.486-.24.375-.117.72-.307 1.064-.491.087-.059.193-.036.277.016.768.437 1.53.886 2.301 1.318.165.094.331-.03.472-.108 2.941-1.647 5.886-3.287 8.827-4.934a.287.287 0 00.16-.285c.003-3.34.001-6.68.002-10.02a.314.314 0 00-.189-.313c-2.987-1.665-5.973-3.334-8.96-5a.315.315 0 00-.35 0c-2.988 1.666-5.974 3.336-8.961 5.002a.312.312 0 00-.189.31V17.01c-.01.118.055.23.163.281.797.448 1.595.892 2.392 1.338.45.24 1.001.382 1.496.198.437-.155.743-.596.735-1.056.004-3.32-.002-6.641.003-9.961-.01-.147.13-.27.275-.255.383-.003.766-.005 1.15 0 .16-.003.27.156.25.304-.002 3.342.004 6.683-.003 10.025 0 .89-.369 1.86-1.2 2.295-1.025.526-2.292.415-3.304-.09-.876-.433-1.713-.944-2.573-1.408-.599-.307-1.012-.947-1.008-1.62V6.937c-.006-.659.387-1.293.97-1.604l8.99-5.027.001-.001z" fill="#000"/><path d="M133.627 7.318c1.307-.083 2.706-.05 3.882.589.911.488 1.416 1.514 1.432 2.516-.026.135-.168.21-.298.2-.38 0-.759.005-1.138-.002-.161.006-.255-.141-.275-.282-.109-.48-.373-.954-.828-1.185-.7-.347-1.51-.33-2.274-.322-.556.029-1.155.077-1.627.4-.362.246-.472.742-.343 1.142.122.286.456.379.73.464 1.575.408 3.244.368 4.79.904.64.22 1.265.645 1.484 1.308.286.89.16 1.952-.478 2.666-.518.587-1.272.907-2.025 1.08-1 .221-2.04.227-3.056.129-.955-.108-1.95-.357-2.688-1.002-.63-.542-.94-1.388-.908-2.204.007-.137.145-.234.279-.222.382-.003.763-.004 1.145 0 .153-.01.266.12.274.262.07.457.244.937.646 1.207.776.496 1.75.462 2.639.476.736-.032 1.563-.042 2.163-.524.317-.275.411-.735.326-1.13-.093-.334-.446-.49-.749-.592-1.555-.487-3.243-.31-4.783-.861-.625-.219-1.23-.633-1.47-1.269-.335-.9-.181-2.013.524-2.703.688-.686 1.681-.95 2.626-1.045zM144 17.662l1.8-8.467h4.164c1.8.104 2.7.94 2.7 2.404 0 2.509-2.138 3.972-4.05 3.867h-2.027l-.45 2.196H144zm3.038-3.763h1.35c1.013-.105 1.913-.418 2.026-2.195 0-.628-.563-.941-1.35-.941H147.6l-.563 3.136h.001zm5.208 1.567l1.8-8.466h2.138l-.45 2.195h2.025c1.8.104 2.476.94 2.25 1.986l-.787 4.285h-2.25l.787-3.867c.113-.523.113-.836-.675-.836h-1.688l-1.012 4.703h-2.138zm6.832 2.196l1.8-8.467h4.164c1.8.104 2.7.94 2.7 2.404 0 2.509-2.138 3.972-4.05 3.867h-2.026l-.45 2.196h-2.138zm3.038-3.763h1.35c1.013-.105 1.913-.418 2.026-2.195 0-.628-.563-.941-1.35-.941h-1.463l-.563 3.136zM179.898.007c-6.078 0-5.698 2.646-5.698 2.646l.007 2.741h5.8v.823h-8.104s-3.89-.442-3.89 5.714c0 6.157 3.395 5.939 3.395 5.939h2.026v-2.857s-.109-3.408 3.34-3.408h5.753s3.232.052 3.232-3.136V3.197s.491-3.19-5.859-3.19h-.002zM176.7 1.85a1.038 1.038 0 011.044 1.048 1.05 1.05 0 01-1.445.968 1.039 1.039 0 01-.642-.968A1.05 1.05 0 01176.7 1.85z" fill="#000"/><path d="M180.071 23.918c6.078 0 5.698-2.646 5.698-2.646l-.006-2.742h-5.8v-.823h8.103s3.89.443 3.89-5.714-3.395-5.938-3.395-5.938h-2.026v2.857s.11 3.408-3.34 3.408h-5.753s-3.232-.053-3.232 3.136v5.271s-.491 3.19 5.86 3.19h.001v.001zm3.198-1.844a1.043 1.043 0 01-1.043-1.047 1.05 1.05 0 011.444-.97 1.04 1.04 0 01.643.97 1.05 1.05 0 01-1.044 1.047zM198.856 1.543c-.857 0-1.551.697-1.551 1.56 0 .862.694 1.56 1.551 1.56s1.551-.698 1.551-1.56c0-.863-.694-1.56-1.551-1.56zm10.188 0c-.857 0-1.55.697-1.55 1.56 0 .862.693 1.56 1.55 1.56.855 0 1.551-.698 1.551-1.56 0-.863-.696-1.559-1.551-1.56zM203.95.12c-.857 0-1.551.697-1.551 1.56 0 .862.694 1.561 1.551 1.561.858 0 1.551-.699 1.551-1.56 0-.864-.694-1.56-1.551-1.56zm8.761 5.772a.488.488 0 00-.469-.068c-1.05.404-2.116.71-3.09.938a.61.61 0 00-.425.373c-.709 1.952-2.52 3.812-4.419 5.759-.077.073-.183.169-.357.169s-.28-.093-.357-.169c-1.9-1.947-3.71-3.8-4.42-5.753a.609.609 0 00-.425-.373 23.907 23.907 0 01-3.092-.947.482.482 0 00-.655.498c.161 1.624.799 3.211 1.951 4.875 1.083 1.564 2.495 3.011 3.861 4.41 2.515 2.58 4.892 5.017 5.1 7.842a.488.488 0 00.485.452h2.956a.486.486 0 00.485-.513c-.093-1.888-.8-3.78-2.161-5.782-.286-.42-.591-.828-.911-1.227a.356.356 0 01.024-.467l.296-.304c1.365-1.4 2.778-2.847 3.86-4.411 1.152-1.664 1.79-3.242 1.951-4.865a.502.502 0 00-.188-.437zM200.779 17.8a.45.45 0 00-.345-.148.485.485 0 00-.401.229c-1.243 1.902-1.886 3.697-1.974 5.5a.499.499 0 00.133.363.494.494 0 00.354.152h2.951a.49.49 0 00.486-.454c.064-.87.334-1.74.824-2.657a.69.69 0 00-.06-.741c-.486-.636-1.082-1.314-1.968-2.244z" fill="#000"/><path d="M203.953 7.346c.927 0 1.464-.056 1.653-.056a.453.453 0 01.411.633c-.123.33-.683 1.518-1.725 2.537a.475.475 0 01-.341.136h-.001a.472.472 0 01-.34-.136c-1.043-1.02-1.603-2.207-1.725-2.537a.453.453 0 01.411-.632c.189 0 .725.055 1.651.055h.007" fill="#000"/><path fill-rule="evenodd" clip-rule="evenodd" d="M239.551 12.1c0 .813-.088 1.623-.265 2.417a6.42 6.42 0 01.69 2.9c0 3.608-2.969 6.532-6.631 6.532a6.678 6.678 0 01-3.135-.775c-.679.123-1.379.189-2.094.189-6.316 0-11.436-5.043-11.436-11.263 0-.76.077-1.52.232-2.265A6.42 6.42 0 01216 6.531C216 2.924 218.969 0 222.632 0c1.297 0 2.506.368 3.528 1.002a11.666 11.666 0 011.956-.165c6.315 0 11.435 5.043 11.435 11.263zm-17.086-5.886c.511-.657 1.258-1.167 2.219-1.518.949-.345 2.078-.52 3.356-.52 1.021 0 1.919.115 2.669.345.753.231 1.389.543 1.888.928.503.386.877.8 1.112 1.23.237.435.358.867.358 1.285 0 .403-.158.769-.469 1.087-.314.321-.709.484-1.175.484-.424 0-.755-.102-.985-.303-.214-.186-.436-.477-.682-.895-.286-.533-.631-.954-1.027-1.25-.384-.288-1.026-.434-1.909-.434-.82 0-1.486.162-1.981.481-.477.308-.709.662-.709 1.08 0 .257.075.471.228.656.163.195.392.367.682.51.3.148.61.267.92.351.318.087.851.216 1.582.382.926.196 1.776.415 2.529.652.761.24 1.419.536 1.956.88.548.35.981.802 1.289 1.34.309.541.465 1.209.465 1.984 0 .928-.269 1.773-.8 2.513-.529.738-1.311 1.322-2.323 1.737-1.003.41-2.206.618-3.574.618-1.643 0-3.02-.284-4.094-.846a5.335 5.335 0 01-1.883-1.645c-.486-.69-.732-1.375-.732-2.035 0-.413.16-.77.477-1.064.313-.29.714-.437 1.193-.437.393 0 .732.116 1.007.346.264.22.489.544.671.964.202.457.424.843.657 1.147.224.293.547.538.959.73.414.194.973.292 1.661.292.945 0 1.72-.2 2.303-.591.57-.383.847-.843.847-1.405 0-.445-.145-.795-.442-1.069-.311-.287-.722-.51-1.22-.663-.52-.16-1.226-.331-2.098-.511-1.187-.25-2.195-.548-2.997-.884-.82-.343-1.481-.82-1.965-1.416-.491-.605-.74-1.364-.74-2.257 0-.85.261-1.617.777-2.279z" fill="#000"/><path d="M263.818 8.422a10.089 10.089 0 00-2.641-5.174 10.17 10.17 0 00-1.971-1.62 10.437 10.437 0 00-4.424-1.563c-.195-.023-.393-.02-.585-.065h-1.379c-.014.034-.046.022-.072.024-.355.03-.708.07-1.058.136-2.561.476-4.664 1.711-6.291 3.706-1.339 1.64-2.076 3.522-2.236 5.62a10.078 10.078 0 00.225 3.019 9.578 9.578 0 00.848 2.31 10.287 10.287 0 002.167 2.862 10.42 10.42 0 007.004 2.784c.122.002.155.031.154.153-.006 1.043-.003 2.086-.003 3.129 0 .04.003.08.006.131.034-.014.056-.021.076-.031 1.994-.92 3.825-2.083 5.457-3.54.325-.29.636-.594.935-.91.128-.136.255-.274.383-.409.198-.208.369-.44.556-.66.216-.252.409-.52.6-.791.423-.598.8-1.221 1.117-1.88.16-.332.313-.668.448-1.011.004-.007.01-.012.013-.02.369-.94.605-1.913.73-2.911.044-.348.072-.698.09-1.047a9.523 9.523 0 00-.149-2.242zm-13.426 6.276a4.671 4.671 0 01-.544.102c-.141.02-.233-.057-.285-.182l.001-1.156c.007-.113-.039-.235.053-.335a.325.325 0 01.168-.1c.205-.051.413-.092.6-.201.345-.202.559-.494.654-.874l.043-.18-2.481-.004a.797.797 0 01-.211-.021.495.495 0 01-.373-.46c-.001-1.229.001-2.457.002-3.685-.017-.197 0-.38.168-.52a.476.476 0 01.312-.123h3.648c.321 0 .588.318.485.63.025.059.02.12.02.182 0 1.339.008 2.678-.002 4.016-.007.888-.359 1.635-1.021 2.241l-.102.097a3.284 3.284 0 01-1.135.573zm6.728-.085l-.047.013-.026.014c-.235.066-.473.12-.716.155-.185.027-.325-.076-.327-.26l-.004-.384.007-.69-.003-.15c0-.177.069-.252.293-.302.283-.063.549-.153.77-.354.264-.241.398-.543.459-.883l-2.292-.004h-.25c-.312-.006-.525-.218-.525-.526l.003-3.64-.002-.034c-.025-.227.042-.413.247-.54.08-.049.167-.069.259-.069h3.624c.321-.001.588.318.485.63.024.058.02.12.02.182 0 1.34.001 2.681-.001 4.022-.001 1.198-.765 2.319-1.891 2.779-.029.012-.056.027-.083.041z" fill="#000"/><path fill-rule="evenodd" clip-rule="evenodd" d="M276 24c6.627 0 12-5.373 12-12s-5.373-12-12-12-12 5.373-12 12 5.373 12 12 12zm-6-16a1 1 0 00-1 1v4a3 3 0 003 3h6a1 1 0 001-1v-5a2 2 0 00-2-2h-7zm9.5 2.5l3-2v7l-3-2v-3z" fill="#000"/><g clip-path="url(#clip2)" fill="#000"><path d="M293.06 15.16a2.518 2.518 0 01-2.521 2.52 2.518 2.518 0 01-2.52-2.52 2.518 2.518 0 012.52-2.52h2.521v2.52zm1.26 0a2.518 2.518 0 012.52-2.52 2.518 2.518 0 012.52 2.52v6.3a2.517 2.517 0 01-2.52 2.52 2.517 2.517 0 01-2.52-2.52v-6.3zM296.84 5.04a2.518 2.518 0 01-2.52-2.52A2.518 2.518 0 01296.84 0a2.518 2.518 0 012.52 2.52v2.52h-2.52zm0 1.28a2.518 2.518 0 012.52 2.52 2.518 2.518 0 01-2.52 2.52h-6.32A2.518 2.518 0 01288 8.84a2.518 2.518 0 012.52-2.52h6.32zM306.94 8.84a2.518 2.518 0 012.521-2.52 2.518 2.518 0 012.52 2.52 2.518 2.518 0 01-2.52 2.52h-2.521V8.84zm-1.26 0a2.518 2.518 0 01-2.52 2.52 2.518 2.518 0 01-2.52-2.52V2.52A2.518 2.518 0 01303.16 0a2.518 2.518 0 012.52 2.52v6.32zM303.16 18.94a2.518 2.518 0 012.52 2.52 2.517 2.517 0 01-2.52 2.52 2.517 2.517 0 01-2.52-2.52v-2.52h2.52zm0-1.26a2.518 2.518 0 01-2.52-2.52 2.518 2.518 0 012.52-2.52h6.32a2.518 2.518 0 012.52 2.52 2.518 2.518 0 01-2.52 2.52h-6.32z"/></g><g clip-path="url(#clip3)" fill="#000"><path d="M323.995 24v-4.608c4.93 0 8.742-4.84 6.86-9.98a6.925 6.925 0 00-4.148-4.112c-5.182-1.866-10.06 1.914-10.061 6.802 0 0 0 .002-.002.002H312c0-7.79 7.588-13.856 15.818-11.308 3.597 1.114 6.455 3.949 7.578 7.516C337.965 16.475 331.85 24 323.996 24"/><path d="M324.006 19.404h-4.632v-4.592h4.632v4.592zm-4.633 3.53h-3.557l-.001-.001v-3.529h3.559v3.529l-.001.001zm-3.556-3.53h-2.984v-2.957s0-.002.002-.002h2.982v2.96-.001z"/></g><path d="M349.288 1l-7.885 15.98H336l5.969-10.133L349.288 1zm.597 1.286l-2.89 8.02 5.654 6.674L341.686 19h18.283L349.885 2.286z" fill="#000"/><g clip-path="url(#clip4)"><path d="M367.002 15.113l-2.198.95 2.036.875 2.36-.875-2.198-.95zm-3.305 1.187l-.074 4.275L366.84 22v-4.438l-3.143-1.262zm6.61 0l-2.906 1.113V21.6l2.907-1.187V16.3h-.001zm3.47-13.3l-2.214.95 2.051.876 2.361-.876-2.199-.95h.001zm-3.07 1.262v4.275l2.745.802.089-3.89-2.834-1.187zm6.14.238l-2.598 1.113v4.2l2.597-1.187V4.5h.001zm-13.469 4.517l-2.198.95 2.036.876 2.36-.876-2.198-.95zm-3.304 1.187L360 14.48l3.217 1.425v-4.438l-3.143-1.263zm6.61 0l-2.906 1.114v4.185l2.907-1.187v-4.112h-.001zm3.779-1.345l-2.199.95 2.036.876 2.361-.876-2.198-.95zm-3.306 1.188l-.074 4.275 3.217 1.425v-4.438l-3.143-1.262zm6.611 0l-2.907 1.113v4.186l2.907-1.188v-4.111zM380.694 3l-2.198.95 2.036.876 2.361-.876-2.199-.95zm-3.304 1.187l-.074 4.275 3.217 1.425V5.45l-3.143-1.263zm6.611 0l-2.907 1.114v4.186L384 8.299V4.187h.001z" fill="#000"/></g><path d="M394.112 4.237l6.415 3.788V15.6l-6.415-3.787M401.224 8.025V15.6l6.415-3.787V4.237M387 0v7.575l6.415 3.788V3.788L387 0zm7.112 20.212L400.527 24v-7.575l-6.415-3.788M417.66 1.764c-3.768.804-6.948 3.936-7.86 7.74-.3 1.248-.324 3.312-.048 4.632.768 3.744 3.744 6.828 7.608 7.896 1.116.312 3.936.312 5.1 0 4.896-1.296 8.136-5.748 7.824-10.74-.096-1.452-.348-2.436-.936-3.708-1.392-3-4.092-5.172-7.308-5.844-1.08-.228-3.264-.216-4.38.024zm2.988 4.14c.168.276 4.176 9.876 4.332 10.38.096.324-.396.876-.78.876-.132 0-1.416-.936-2.976-2.196-1.5-1.212-2.784-2.232-2.868-2.28-.084-.06-.42.648-1.02 2.136l-.876 2.22h-1.62l.192-.444c.096-.252 1.128-2.736 2.292-5.532s2.184-5.16 2.28-5.256c.276-.264.84-.216 1.044.096z" fill="#000"/><path d="M419.424 9.6c-.348.864-.624 1.608-.624 1.668 0 .12 3.72 3.06 3.792 2.988.048-.06-2.316-5.976-2.46-6.132-.048-.048-.372.612-.708 1.476zM433.235 11.278c.412.25 1.286.517 2.502.517.591 0 1.16-.064 1.643-.187a.124.124 0 00.068-.042.127.127 0 00.031-.074c.075-.918.33-1.812.75-2.633a.127.127 0 00-.021-.147.13.13 0 00-.042-.03 8.708 8.708 0 01-1.428-.843c-.702-.507-1.296-1.082-1.72-1.66a.131.131 0 00-.134-.05.13.13 0 00-.065.035.13.13 0 00-.036.066 20.927 20.927 0 01-.647 2.463c-.28.856-.6 1.67-.952 2.418a.13.13 0 00.05.167h.001zm5.247 4.585a.122.122 0 00.03-.075.127.127 0 00-.019-.078 7.001 7.001 0 01-.95-2.568.132.132 0 00-.102-.108.133.133 0 00-.053 0 8.702 8.702 0 01-1.651.155c-.868 0-1.688-.117-2.372-.338a.13.13 0 00-.143-.074.134.134 0 00-.075.042.135.135 0 00-.01.16c.017.024.04.042.068.051.344.735.657 1.533.93 2.372.28.856.501 1.702.658 2.513a.13.13 0 00.14.106c.482-.04 1.347-.335 2.329-1.045.478-.346.9-.731 1.22-1.113zm7.156-14.234a.311.311 0 00-.22-.176l-6.27-1.296a.308.308 0 00-.551.156.299.299 0 00.022.145.309.309 0 00.217.183l.942 1.277a21.96 21.96 0 01-3.878 2.745.133.133 0 00-.061.071.127.127 0 00.003.094c.186.443.735 1.17 1.719 1.883.478.346.976.626 1.44.81a.133.133 0 00.149-.036 7.01 7.01 0 012.325-1.77l.317 1.59a.308.308 0 00.57.096l3.26-5.49a.305.305 0 00.016-.282zm-3.8 16.912a7.165 7.165 0 01-2.318-1.531.132.132 0 00-.147-.027.124.124 0 00-.043.031c-.357.382-.788.76-1.245 1.091-.702.508-1.435.893-2.119 1.114a.126.126 0 00-.063.042.123.123 0 00-.029.07.121.121 0 00.015.075.127.127 0 00.054.053c.71.392 1.435.855 2.153 1.374.743.538 1.43 1.1 2.04 1.672.05.046.126.047.177.003.373-.325.904-1.08 1.276-2.22a6.746 6.746 0 00.328-1.615.132.132 0 00-.08-.13l.001-.002zm14.007-5.759c-.412-.25-1.287-.517-2.503-.517-.591 0-1.159.065-1.642.187a.13.13 0 00-.1.116 7.066 7.066 0 01-.749 2.632.127.127 0 00-.007.102.132.132 0 00.069.076c.478.22.972.512 1.429.842.701.508 1.296 1.082 1.719 1.661a.13.13 0 00.134.05.129.129 0 00.101-.102 20.95 20.95 0 01.647-2.462c.28-.856.6-1.67.952-2.418a.13.13 0 00-.05-.167zm-5.248-4.585a.13.13 0 00-.01.153 7 7 0 01.949 2.568.142.142 0 00.018.05.136.136 0 00.085.058.13.13 0 00.052 0 8.696 8.696 0 011.652-.155c.867 0 1.687.117 2.371.339a.14.14 0 00.041.006h.002a.133.133 0 00.051-.009.138.138 0 00.043-.028.125.125 0 00.039-.093.129.129 0 00-.027-.08 21.028 21.028 0 01-.919-2.349c-.279-.855-.5-1.701-.657-2.513a.132.132 0 00-.14-.106c-.482.04-1.347.335-2.33 1.046-.478.346-.9.731-1.22 1.113zm-3.354-2.64c.86.352 1.661.883 2.316 1.533a.132.132 0 00.093.038h.002c.036 0 .07-.016.094-.042a8.67 8.67 0 011.246-1.091c.702-.508 1.434-.894 2.119-1.115a.135.135 0 00.061-.043.133.133 0 00-.038-.196 21.197 21.197 0 01-2.154-1.374 21.221 21.221 0 01-2.04-1.672.131.131 0 00-.177-.003c-.372.325-.903 1.08-1.275 2.22a6.797 6.797 0 00-.329 1.615.13.13 0 00.082.13zm4.275 11.792a6.825 6.825 0 00-1.44-.811.13.13 0 00-.149.036 7.026 7.026 0 01-2.324 1.77l-.318-1.589a.311.311 0 00-.251-.247.308.308 0 00-.319.15l-3.259 5.491a.31.31 0 00-.017.282.312.312 0 00.221.176l6.27 1.296a.311.311 0 00.37-.34.303.303 0 00-.08-.174l-.92-1.248a21.62 21.62 0 011.68-1.345c.732-.53 1.471-1 2.198-1.399a.13.13 0 00.057-.165c-.186-.443-.735-1.171-1.719-1.883z" fill="#000"/><path fill-rule="evenodd" clip-rule="evenodd" d="M461.246 23.944h14.5c1.24 0 2.246-1.023 2.246-2.284V2.283c0-1.261-1.006-2.283-2.246-2.283h-14.5C460.005 0 459 1.023 459 2.283V21.66c0 1.26 1.006 2.284 2.246 2.284zm9.656-12.804v9.509h2.55v-9.477c0-5.218-7.41-2.25-7.41-2.25v-5.66l-2.647.016s0 8.833.015 8.793c8.1-3.206 7.492-.931 7.492-.931zm-1.299-4.454h2.807c1.524-2.007 2.021-3.409 2.021-3.409h-2.903s-.915 2.153-1.925 3.409zm-6.16 8.532v5.415l2.663-2.708-2.663-2.707z" fill="#000"/><path d="M487.514.173c.356.083.702.208 1.029.372l2.698 1.479.012-.015s.706-.818.726-.837a3.054 3.054 0 013.181-1.06 2.659 2.659 0 011.657 1.172c.597.868.723 1.978.335 2.958a5.25 5.25 0 00-.086.212h-12.601v14.884h11.208l-7.152 3.795a5.842 5.842 0 01-2.759.686 6.747 6.747 0 01-2.006-.314 4.691 4.691 0 01-2.418-1.712c-1.991-2.716-1.6-5.841.13-7.813l1.558-1.862c-.966-2.114-1.883-4.121-1.893-4.131-1.953-4.26 1.6-8.949 6.381-7.814zM499.35 17.383c1.082-.576 1.794-.957 1.803-.966 2.454-1.284 3.592-4.558 1.767-7.405a4.53 4.53 0 00-1.6-1.488c-.009 0-.952-.516-1.97-1.074v10.933z" fill="#000"/><path d="M487.96 7.747h-2.006V6.445h5.452v1.302h-1.994v5.133h-1.451l-.001-5.133zm3.443 1.927c0-1.86 1.377-3.367 3.367-3.367 1.21 0 1.954.41 2.55 1.005l-.913 1.041c-.502-.446-1.004-.725-1.655-.725-1.08 0-1.88.912-1.88 2.01v.018c0 1.116.763 2.028 1.88 2.028.744 0 1.19-.298 1.693-.763l.911.912c-.67.707-1.395 1.153-2.642 1.153a3.241 3.241 0 01-3.311-3.163v-.149zm-5.45 6.687h5.452v.986h-5.452v-.986z" fill="#000"/><g clip-path="url(#clip5)"><path d="M527.552 18.969c.542.96.595 1.971.144 2.77-.45.8-1.33 1.257-2.416 1.257h-2.045c.024-.39.04-.782.04-1.177 0-.443-.02-.88-.05-1.315l1.346-.002c.33 0 .598-.274.598-.612a.632.632 0 00-.072-.292l-8.574-15.206a.597.597 0 00-.52-.31.59.59 0 00-.512.296l-1.361 2.414c4.138 3.182 6.92 8.113 7.3 13.71.03.435.05.872.05 1.316 0 .395-.017.787-.04 1.176h-6.68c.081-.829.076-1.664-.015-2.492a12.037 12.037 0 00-3.985-7.737l-.937 1.662a10.147 10.147 0 013.071 6.075c.056.431.087.87.087 1.316 0 .397-.026.79-.07 1.176h-6.191c-1.086 0-1.966-.458-2.416-1.257-.45-.8-.398-1.809.144-2.77l1.271-2.223c.728.4 1.385.919 1.942 1.535l-.757 1.317a.617.617 0 00.103.725.59.59 0 00.423.18h3.003a7.64 7.64 0 00-1.867-3.843 7.514 7.514 0 00-1.946-1.538l3.354-5.944c.712.406 1.388.874 2.021 1.398a14.535 14.535 0 015.196 9.927h1.797a16.38 16.38 0 00-6.087-11.531 16.09 16.09 0 00-2.031-1.384l2.863-5.073c.54-.961 1.369-1.513 2.27-1.513s1.729.552 2.271 1.514l9.278 16.455z" fill="#000"/></g><path d="M540 0c-6.627 0-12 5.372-12 12 0 6.627 5.373 12 12 12s12-5.373 12-12c0-6.628-5.373-12-12-12zm0 22.459c-1.885 0-3.414-1.26-3.414-2.813h6.828c0 1.553-1.528 2.813-3.414 2.813zm5.64-3.745h-11.28V16.67h11.28v2.045-.001zm-.041-3.098h-11.207c-.037-.043-.075-.085-.111-.129-1.155-1.401-1.426-2.133-1.69-2.88-.005-.024 1.4.288 2.395.512 0 0 .513.118 1.262.255-.72-.843-1.146-1.915-1.146-3.01 0-2.406 1.844-4.508 1.179-6.207.648.052 1.34 1.367 1.387 3.422.689-.952.977-2.69.977-3.755 0-1.103.727-2.385 1.454-2.429-.648 1.068.168 1.984.894 4.256.272.854.237 2.29.447 3.2.07-1.89.395-4.651 1.595-5.604-.53 1.2.079 2.702.494 3.424.671 1.164 1.078 2.047 1.078 3.716a4.642 4.642 0 01-1.11 2.996c.792-.149 1.34-.283 1.34-.283l2.573-.502s-.374 1.538-1.811 3.018z" fill="#000"/><path fill-rule="evenodd" clip-rule="evenodd" d="M563.783.047C570.491.047 575.93 5.4 575.93 12c0 6.601-5.438 11.953-12.146 11.953-5.659 0-10.414-3.81-11.763-8.965a.525.525 0 01-.02-.142c0-.314.259-.569.579-.569h4.897a.575.575 0 01.534.353 6.368 6.368 0 005.773 3.631c3.514 0 6.362-2.803 6.362-6.261s-2.849-6.261-6.363-6.261a6.366 6.366 0 00-5.773 3.632l-.01.019a.578.578 0 01-.524.332h-4.898a.576.576 0 01-.578-.569.6.6 0 01.02-.141c1.35-5.155 6.104-8.965 11.763-8.965zm0 14.8c-1.597 0-2.892-1.275-2.892-2.847s1.295-2.846 2.892-2.846 2.892 1.274 2.892 2.846-1.295 2.846-2.892 2.846v.001zM596.841 8.125a4.731 4.731 0 013.118 4.465 4.787 4.787 0 01-3.149 4.474c.142.397.223.824.223 1.261 0 1.994-1.61 3.61-3.595 3.61-.8 0-1.57-.274-2.197-.772a6.726 6.726 0 01-5.479 2.827c-3.727 0-6.754-3.04-6.754-6.783 0-.438.04-.875.121-1.292A4.745 4.745 0 01576 11.441a4.778 4.778 0 013.139-4.475 3.748 3.748 0 01-.223-1.26 3.604 3.604 0 013.595-3.611c.8 0 1.57.264 2.198.752a6.747 6.747 0 015.488-2.816c3.727 0 6.765 3.05 6.765 6.803 0 .437-.04.864-.121 1.291zm-6.178 4.627l-5.245-2.4-1.023-2.196.881-4.587a5.888 5.888 0 014.871-2.583c3.261 0 5.914 2.665 5.914 5.94 0 .406-.031.782-.112 1.169l-5.286 4.657zm-10.785 4.363c0-.406.031-.803.112-1.19l5.164-4.678 5.266 2.41 1.165 2.238-.871 4.566a5.923 5.923 0 01-4.901 2.603c-3.271 0-5.935-2.664-5.935-5.949zm.081-10.301l3.595.854.79-4.099a2.81 2.81 0 00-1.721-.58 2.843 2.843 0 00-2.664 3.825zm-3.037 4.637a4.014 4.014 0 012.724-3.773l3.949.936.921 1.983-5.043 4.576a3.99 3.99 0 01-2.551-3.722zm14.703 9.01a2.84 2.84 0 001.712.59 2.843 2.843 0 002.835-2.848c0-.345-.061-.681-.172-.986l-3.585-.844-.79 4.088zm4.679-4.108l-3.95-.926-1.043-2.024 5.165-4.545a3.976 3.976 0 012.552 3.711c0 1.709-1.114 3.255-2.724 3.783z" fill="#000"/><path d="M612.632 5.746c-.824 0-2.1-.898-3.444-.865-1.773.021-3.399.985-4.313 2.51-1.841 3.063-.475 7.587 1.321 10.076.881 1.212 1.919 2.575 3.297 2.532 1.321-.054 1.818-.822 3.422-.822 1.592 0 2.044.822 3.444.79 1.423-.022 2.326-1.234 3.196-2.457A10.68 10.68 0 00621 14.664c-.034-.011-2.767-1.018-2.8-4.048-.023-2.532 2.156-3.744 2.258-3.798-1.242-1.742-3.151-1.937-3.817-1.98-1.739-.13-3.196.908-4.009.908zm2.936-2.554c.734-.844 1.22-2.023 1.084-3.192-1.05.043-2.314.671-3.071 1.515-.678.747-1.265 1.948-1.107 3.095 1.163.087 2.36-.573 3.094-1.418zM641.855 7.218l1.991-3.587a.431.431 0 00-.146-.574.391.391 0 00-.549.152l-2.017 3.634A11.9 11.9 0 00636 5.704a11.9 11.9 0 00-5.134 1.14l-2.017-3.635a.394.394 0 00-.551-.152.427.427 0 00-.146.574l1.99 3.587c-3.433 1.935-5.758 5.55-6.142 9.782h24c-.384-4.232-2.709-7.847-6.145-9.782zm-11.365 6.276c-.557 0-1.006-.47-1.006-1.046 0-.58.452-1.047 1.006-1.047.556 0 1.006.47 1.006 1.046.002.577-.45 1.047-1.006 1.047zm11.018 0c-.557 0-1.006-.47-1.006-1.046 0-.58.452-1.047 1.006-1.047.556 0 1.005.47 1.005 1.046.003.577-.449 1.047-1.005 1.047zM659.805 18.537s-.928.532.66.712c1.924.216 2.908.185 5.029-.21 0 0 .557.344 1.336.643-4.754 2.008-10.76-.117-7.025-1.145zm-.581-2.62s-1.041.759.548.92c2.056.21 3.68.227 6.489-.306 0 0 .388.388 1 .6-5.749 1.657-12.15.131-8.037-1.215M664.12 11.47c1.172 1.33-.307 2.526-.307 2.526s2.974-1.513 1.608-3.408c-1.275-1.768-2.254-2.646 3.043-5.673 0 0-8.314 2.046-4.343 6.556" fill="#000"/><path d="M670.408 20.475s.687.558-.756.99c-2.744.819-11.421 1.066-13.831.032-.867-.371.758-.887 1.27-.995.532-.114.837-.093.837-.093-.964-.669-6.229 1.314-2.674 1.882 9.692 1.55 17.669-.698 15.154-1.816zm-10.157-7.274s-4.414 1.033-1.563 1.409c1.203.158 3.603.123 5.838-.062a46.444 46.444 0 003.66-.475s-.643.272-1.11.586c-4.481 1.162-13.14.621-10.647-.567 2.108-1.005 3.822-.89 3.822-.89v-.001zm7.917 4.362c4.557-2.333 2.45-4.576.98-4.274-.36.074-.521.138-.521.138s.133-.206.389-.296c2.909-1.008 5.146 2.973-.94 4.55 0 0 .071-.062.092-.118zM665.421.026s2.524 2.488-2.393 6.313c-3.942 3.07-.899 4.82-.001 6.818-2.302-2.046-3.99-3.848-2.857-5.525 1.662-2.461 6.27-3.654 5.251-7.606z" fill="#000"/><path d="M660.699 23.887c4.373.276 11.089-.153 11.248-2.193 0 0-.306.773-3.615 1.387-3.732.693-8.336.612-11.067.168 0 0 .56.456 3.434.638z" fill="#000"/><g clip-path="url(#clip6)"><path fill-rule="evenodd" clip-rule="evenodd" d="M690.556 0h-13.242c-.104 0-.206 0-.299.018-.96.05-1.888.366-2.68.91a5.322 5.322 0 00-1.803 2.11 4.995 4.995 0 00-.495 2.296v13.332c-.002.808.18 1.607.533 2.334a5.407 5.407 0 001.819 2.1c.8.535 1.729.842 2.69.89.196.01 13.214.01 13.466.01a5.597 5.597 0 001.672-.243 5.323 5.323 0 003.595-4.013 6.1 6.1 0 00.103-1.238V5.54c0-.346-.009-.693-.065-1.04a5.266 5.266 0 00-1.148-2.569 5.273 5.273 0 00-2.269-1.612A5.555 5.555 0 00690.556 0zm.289 14.878s2.55-5.935-5.332-11.315h-.001s3.222 4.078 1.578 8.653c0 0-5.79-4.136-8.702-7.097 0 0 3.642 5.268 4.94 6.347 0 0-2.176-1.135-7.21-5.438 0 0 5.782 7.576 8.498 9.159 0 0-4.118 2.822-10.15-1.162 0 0 3.165 5.616 9.86 5.616 1.764 0 2.796-.536 3.649-.979.601-.312 1.113-.578 1.731-.578 1.55 0 2.475 1.557 2.475 1.557.905-2.223-1.336-4.763-1.336-4.763z" fill="#000"/></g><path d="M696 12.707v10.586L719.293 0h-10.586L696 12.707zM707.293 0H696v11.293L707.293 0zM708.395 12.312L696.707 24H720l-11.605-11.688z" fill="#000"/><defs><clipPath id="clip0"><path fill="#fff" d="M0 0h24v24H0z"/></clipPath><clipPath id="clip1"><path fill="#fff" transform="translate(48)" d="M0 0h24v24H0z"/></clipPath><clipPath id="clip2"><path fill="#fff" transform="translate(288)" d="M0 0h24v24H0z"/></clipPath><clipPath id="clip3"><path fill="#fff" transform="translate(312)" d="M0 0h24v24H0z"/></clipPath><clipPath id="clip4"><path fill="#fff" transform="translate(360)" d="M0 0h24v24H0z"/></clipPath><clipPath id="clip5"><path fill="#fff" transform="translate(504)" d="M0 0h24v24H0z"/></clipPath><clipPath id="clip6"><path fill="#fff" transform="translate(672)" d="M0 0h24v24H0z"/></clipPath></defs></svg>