<?xml version="1.0" encoding="utf-8"?>
<!-- Generator: Adobe Illustrator 24.0.1, SVG Export Plug-In . SVG Version: 6.00 Build 0)  -->
<svg version="1.1" id="Layer_1" xmlns="http://www.w3.org/2000/svg" xmlns:xlink="http://www.w3.org/1999/xlink" x="0px" y="0px"
	 viewBox="0 0 192 220" style="enable-background:new 0 0 192 220;" xml:space="preserve">
<style type="text/css">
	.st0{fill:#03234B;}
	.st1{fill:#465E7B;}
	.st2{fill:#354F6F;}
	.st3{fill:#5C708A;}
</style>
<g>
	<path class="st0" d="M172.2,71.8c-0.4,0.4-0.5,0.9-0.7,1.4c-1,2.3-1.9,4.5-2.8,6.8c-0.2,0.6-0.7,0.9-1.3,0.8c-0.2,0-0.4,0-0.6,0
		c-32.1,0-64.3,0-96.4,0c-1.2,0-2.5,0-3.7,0.2c-0.6,0.2-1.3,0.2-1.9,0.3c-7.1,1.3-12.6,6.7-14,13.6c-0.2,0.5-0.2,1.1-0.3,1.7
		c-0.3,2.7-0.2,5.5,0.6,8.1c1,3.2,2.7,5.9,5.2,8.1c3.1,2.8,6.1,5.7,9.2,8.5c2.6,2.4,5.2,4.8,7.8,7.3c0.6,0.5,1.1,1.1,1.4,1.8
		c1.1,2.3-0.5,4.4-2.8,4.6c-0.3,0-0.6,0-0.9,0c-16.4,0-32.8,0-49.3,0c-0.5,0-1,0-1.4-0.5c-0.2-0.4-0.3-0.7-0.1-1.1
		c1.8-4.2,3.5-8.3,5.3-12.5c1.6-3.8,3.2-7.6,4.7-11.4c0.4-1,0.8-2,1.2-3c0.2-0.3,0.2-0.6,0.4-0.9c0.2-0.5,0.4-1,0.6-1.5
		c0.1-0.3,0.3-0.6,0.4-0.9c0.9-2,1.7-4.1,2.6-6.1c0.2-0.3,0.2-0.6,0.4-0.9c0.1-0.1,0.1-0.2,0.2-0.4c0.1-0.3,0.2-0.5,0.3-0.8
		c1.9-4.5,3.7-9.1,5.7-13.6c2.1-4.9,5.6-8.4,10.5-10.6c1.8-0.8,3.7-1.3,5.7-1.6c0.1,0,0.2,0,0.2-0.1c0.3,0,0.6,0,0.9,0
		c0.3,0.1,0.5,0.1,0.8,0c37.3,0,74.5,0,111.8,0c0.5,0,0.6,0.1,0.6,0.6C172.2,70.5,172.2,71.1,172.2,71.8z"/>
	<path class="st0" d="M78.7,149.7c-0.1-0.3,0-0.5,0.3-0.6c6-3.1,9.6-8,10.8-14.5c1.2-6.5-1.1-11.9-5.7-16.3
		c-4.4-4.3-9.1-8.4-13.6-12.6c-1.3-1.2-2.6-2.4-3.9-3.6c-1.1-1-1.6-2.2-1.1-3.7c0.5-1.4,1.6-2.2,3.1-2.4c0.3,0,0.7-0.1,1-0.1
		c17.3,0,34.7,0,52,0c0.2,0,0.3,0,0.5,0c1.1,0.1,1.5,0.8,1.1,1.8c-2.5,6-5.1,12.1-7.6,18.1c-2.3,5.6-4.7,11.3-7,16.9
		c-2.1,4.9-4.1,9.8-6.2,14.8c-0.5,1.1-1.2,2-2.3,2.4C93,149.7,85.8,149.7,78.7,149.7z"/>
	<path class="st0" d="M118.3,149.7c-0.8-0.7-0.9-0.9-0.4-2c1.2-3,2.5-5.9,3.7-8.9c1-2.5,2.1-5,3.1-7.5c1.4-3.3,2.7-6.5,4.1-9.8
		c1.1-2.6,2.1-5.2,3.2-7.7c1.2-2.8,2.4-5.7,3.6-8.5c1.1-2.6,2.2-5.2,3.3-7.9c0.1-0.2,0.3-0.3,0.4-0.5c0.1-0.1,0.3-0.2,0.4-0.4
		c0.2-0.1,0.3-0.3,0.5-0.4c0.6-0.3,1.2-0.4,1.8-0.4c6,0,12.1,0,18.1,0c1.3,0,1.8,0.6,1.3,1.8c-1,2.4-2,4.9-3,7.3
		c-1.6,3.9-3.3,7.9-4.9,11.8c-1.2,3-2.5,5.9-3.7,8.9c-1.2,2.9-2.4,5.8-3.6,8.7c-1,2.4-1.9,4.8-3.4,6.9c-2.2,3-5,5.3-8.4,6.8
		c-2,0.9-4,1.4-6.2,1.6c-0.1,0-0.2,0-0.2,0.1c-0.3,0-0.6,0-0.9,0c-0.2-0.1-0.5,0-0.8-0.1c-2.3,0-4.6,0-7,0c-0.2,0-0.5-0.1-0.7,0.1
		C118.4,149.7,118.3,149.7,118.3,149.7z"/>
	<path class="st1" d="M118.4,149.7c0.1-0.2,0.2-0.1,0.4-0.1c2.5,0,4.9,0,7.4,0c0,0,0.1,0.1,0,0.1c0,0,0,0,0,0
		C123.6,149.7,121,149.7,118.4,149.7z"/>
	<path class="st2" d="M59.9,69.2c-0.3,0.2-0.5,0.2-0.8,0C59.4,69.2,59.7,69.2,59.9,69.2z"/>
	<path class="st3" d="M126.2,149.7c0,0,0-0.1,0-0.1c0.2,0,0.5-0.1,0.6,0.1C126.6,149.7,126.4,149.7,126.2,149.7z"/>
</g>
</svg>
