<svg width="54" height="54" viewBox="0 0 54 54" fill="none" xmlns="http://www.w3.org/2000/svg">
<path d="M14.2852 45.668C15.1055 46.2734 16.1016 46.0781 17.2734 45.2188L27 38.0703L36.7266 45.2188C37.8984 46.0781 38.8945 46.2734 39.7148 45.668C40.4961 45.0625 40.6719 44.0859 40.2031 42.6992L36.3555 31.2734L46.1602 24.2227C47.3516 23.4023 47.8398 22.4844 47.5078 21.5469C47.1953 20.6094 46.2969 20.1406 44.832 20.1602L32.8008 20.2383L29.1484 8.75391C28.6992 7.34766 27.9961 6.625 27 6.625C26.0039 6.625 25.3203 7.34766 24.8516 8.75391L21.1992 20.2383L9.16797 20.1602C7.70312 20.1406 6.80469 20.6094 6.49219 21.5469C6.17969 22.4844 6.66797 23.4023 7.83984 24.2227L17.6445 31.2734L13.8164 42.6992C13.3477 44.0859 13.5039 45.0625 14.2852 45.668ZM27 34.6914V11.4492C27.0586 11.4492 27.0781 11.4883 27.1172 11.6055L30.2422 22.0938C30.4766 22.9141 30.9648 23.2266 31.7852 23.1875L42.7422 22.9922C42.8594 22.9922 42.8984 22.9922 42.918 23.0312C42.9375 23.0898 42.8984 23.1289 42.8203 23.1875L33.7969 29.3984C33.0938 29.8867 32.957 30.4531 33.2305 31.2344L36.8438 41.5859C36.8633 41.6836 36.8828 41.7031 36.8438 41.7617C36.8242 41.8008 36.7656 41.7617 36.6875 41.7227L27.9766 35.043C27.6641 34.8086 27.332 34.6719 27 34.6914Z" fill="#F7C744"/>
</svg>
