<svg fill="none" xmlns="http://www.w3.org/2000/svg" viewBox="0 0 41 40"><path d="M20.5 40c11.046 0 20-8.954 20-20s-8.954-20-20-20S.5 8.954.5 20s8.954 20 20 20z" fill="#000"/><path d="M29.244 7.4c-2.03.072-3.806 1.192-5.124 2.74-1.463 1.7-2.435 3.715-3.136 5.771-1.253-1.027-2.22-2.357-4.23-2.937-1.556-.446-3.187-.263-4.688.856-.712.531-1.202 1.334-1.434 2.089-.605 1.962.633 3.708 1.196 4.336l1.229 1.315c.253.259.862.933.565 1.898-.322 1.05-1.588 1.73-2.886 1.33-.58-.18-1.414-.61-1.227-1.217.077-.25.255-.437.352-.65.087-.185.129-.324.155-.405.237-.775-.087-1.782-.916-2.038-.775-.237-1.566-.049-1.873.947-.349 1.133.193 3.186 3.095 4.081 3.4 1.046 6.276-.807 6.684-3.22.257-1.512-.427-2.637-1.677-4.082l-1.02-1.127c-.617-.617-.828-1.668-.19-2.476.54-.681 1.307-.972 2.566-.63 1.835.497 2.654 1.771 4.02 2.8-.564 1.848-.933 3.704-1.266 5.37l-.205 1.24c-.976 5.119-1.721 7.93-3.657 9.543-.39.279-.949.694-1.789.723-.44.014-.582-.29-.59-.422-.01-.31.252-.45.425-.59.259-.142.65-.375.623-1.124-.029-.888-.763-1.656-1.823-1.62-.796.027-2.006.774-1.96 2.145.047 1.413 1.365 2.474 3.352 2.406 1.063-.035 3.436-.468 5.773-3.247 2.721-3.187 3.483-6.84 4.056-9.512l.638-3.53c.356.043.735.072 1.148.081 3.389.073 5.084-1.683 5.11-2.96.017-.773-.507-1.533-1.24-1.516-.525.015-1.185.364-1.343 1.09-.155.712 1.079 1.354.115 1.98-.685.443-1.913.755-3.641.502l.315-1.738c.64-3.295 1.433-7.347 4.434-7.445.219-.011 1.02.01 1.038.539.005.177-.038.222-.245.627-.211.315-.29.583-.281.893.03.84.669 1.393 1.594 1.36 1.238-.04 1.594-1.245 1.574-1.865-.051-1.457-1.586-2.376-3.616-2.31z" fill="#fff"/></svg>