<svg fill="none" xmlns="http://www.w3.org/2000/svg" viewBox="0 0 143 64">
  <path d="M24.6 11.5c1.7.2 3.5.3 5.2.6 1 .1 1.8.6 2.5 1.3.6.7.8 1.8.4 2.4-.3.6-.8.7-1.4.7-.6 0-.8-.4-1-1-.1-.2-.4-.5-.7-.5-1.2-.2-2.3-.5-3.5-.5-5.2 0-10.4.5-15.3 2.2-2.1.7-4.1 1.7-5.8 3.2-1.4 1.3-2.4 2.8-2 4.7.1.7.7 1.3 1 1.9.2.4.6.8.6 1.2 0 1.1-1.2 1.6-2.2 1C.9 27.8.3 26.5.1 24.9c-.5-3.3 1-5.8 3.5-7.7a26 26 0 019.6-4.3c3.8-1 7.5-1.3 11.4-1.4" fill="#56448E"/>
  <path d="M6.8 41.8c.2-.7.4-1.7.8-2.6 2-5.6 4.2-11 7.2-16.2 1.3-2 2.5-4.2 4.3-6 .3-.3.8-.5 1.2-.7.5-.3 1-.2 1.3.3.3.3.4.8.3 1.3 0 .3-.2.6-.5.8-2.2 2.4-3.9 5.2-5.4 8.2-2.5 4.8-4.6 9.9-6.2 15.2l-.1.5c-.3.8-.9 1.2-1.6 1.1-.8-.1-1.3-.7-1.3-2zm38.7-12.5l-.5 1a40.8 40.8 0 01-5.5 7.4c-.3.4-.7.7-1.2.9-1.1.6-2 0-1.9-1.4.2-2 1.1-4 2.4-5.7a8.7 8.7 0 014.5-3.3l1-.2c1 0 1.4.4 1.2 1.3zm-20.6 2.5c.9-1.5 2-2.7 3.4-3.5.4-.3.8-.4 1.2-.5.2-.1.6 0 .7.1.2.2.1.6 0 .7l-1.6 2c-.8.7-1.8 1.2-2.7 1.8l-1.2.3-.1-.2c0-.2.1-.5.3-.7zm48-9.2a35.3 35.3 0 014.9-7.6c.2-.3.5-.7 1-.4v.2l-.1.9a63.7 63.7 0 01-3.1 5l-2 2.2-.3.3-.3.2-.2-.1c0-.3 0-.5.2-.7zm13.9 9.6V32a12.1 12.1 0 012.8-3.1l1.2-.8h.2c.2-.2.5-.2.7-.3h.5l.1.2v.7l-.6 1a13.4 13.4 0 01-1.7 1.6 8.3 8.3 0 01-2.2 1.3l-1 .2-.1-.2v-.3zm24.6 4c.2-1.5.7-2.3.7-4 0-.3 1.5-1.7 1.5-2 0 .2-1.4.8-1.5 1-1 2.2-3.7 4.7-5.5 6.2-.5.4-1.1.8-1.7 1-.3.2-.8.2-1 0-.2-.2-.2-.7-.1-1 0-.5.2-1 .5-1.3l2.7-4c1-1.7.8-3-.7-4.2l-2.2-1.4c-.5-.3-.7-.7-.6-1.3.2-.5.3-1 .3-1.6 0-1.3-.8-1.9-2-1.4a3 3 0 00-2 3.5 3 3 0 010 2.2c-1.4 3-3 5.6-5.5 7.9a12.2 12.2 0 01-4.3 2.6 6 6 0 01-3.7.4c-.9-.3-1.3-1-1.3-2 0-.7.3-1 1.3-1.3l.5-.2c1.8-.4 3.5-1.2 5-2.3a8.4 8.4 0 003.2-4.2c.6-2-.7-3.8-2.8-3.8a6 6 0 00-3.1 1 16.5 16.5 0 00-5.6 6.3 10.7 10.7 0 01-5 4.8c-.5.4-1.1 0-1-.8.1-.6.4-1.3.7-1.9l1.8-3.7c.4-1 .7-1.9.6-3a2.6 2.6 0 00-2.8-2.4 6 6 0 00-3.5 1.4c-1.6 1.2-3 2.8-4.2 4.4-.1.2-.3.6-.6.5-.2 0 0-.3 0-.4.5-2 1.3-3.6 3-4.9 3.2-2.2 5.8-5 7.7-8.4a7 7 0 001-3.7c0-1.8-1.5-2.8-3.2-2.2a6 6 0 00-2.6 2c-2.2 2.7-4 5.7-5.2 9-.6 1.3-1 2.6-2.2 3.6-.4.3-.5.7-.4 1.2v1c-.4 1.7-1.4 3-2.4 4.2-1.5 1.8-3 3.5-5 4.6a8 8 0 01-4.4 1.4c-1.4 0-2.3-.9-2.3-2.3l.3-1.8c.5-1.9 1.6-3.5 2.9-5 .9-1 2-2 3.4-2.4.3 0 .8 0 1 .2.2.1.1.7 0 1l-1.2 1.5c-.5.6-.5 1.3 0 1.8s1.4.5 1.9 0c.6-.8 1.3-1.5 1.7-2.4 1-2.3-.2-4.4-2.8-4.7-1.4-.1-2.5.5-3.6 1.2-2.6 1.6-4.1 4-5.4 6.6-.5 1-1.1 2-1.9 3-.5.5-1.2 1-1.9 1.4-.8.5-1.5.1-1.5-.8 0-.8 0-1.6.2-2.3.4-2 1.3-3.8 2.1-5.6l.6-1.5c.2-1.2-.5-1.7-1.7-1.4h-1.4a8.6 8.6 0 00-3.8.3c-2.6.9-4.6 2.6-6.1 4.9a27.3 27.3 0 01-4.1 5 11.8 11.8 0 01-4.3 2.7 6 6 0 01-3.7.3c-.9-.2-1.4-1-1.3-1.9 0-.7.3-1 1.3-1.3l.5-.2c1.8-.4 3.5-1.2 5-2.3a8.4 8.4 0 003.2-4.2c.5-1.7-.3-3.4-2-3.7-.8 0-1.8 0-2.6.3-2 .7-3.5 2.1-4.8 3.8-1.6 2-3 4.3-3.3 7-.4 3 1.6 5.3 4.7 5.3 2.9 0 5.3-1 7.6-2.6l1.3-1v.6c.2 1.4 1 2.5 2.1 2.9 1 .3 2 .2 2.9-.2 1.5-.7 2.8-1.8 3.9-3 .8-1 .9-1 1.5 0 1 1.7 2.4 2.3 4.2 1.6 1-.4 1.8-1 2.7-1.6v.2c.9 2.2 2.6 3.1 4.9 3.3 2.3.1 4.2-.9 6-2l2.2-1.8-.2 1-.3 1c0 .6 0 1.1.7 1.4.5.2 1 0 1.4-.6l1.3-2a50.4 50.4 0 019.2-10.5c1.4-.9 1.5.4 1.3 1v.2l-1.8 3.5a8 8 0 00-1 4c.2 1.9 1.8 3.2 3.4 3 .5-.1 1-.2 1.5-.5l2.5-1.4c.4.7.8 1.6 1.4 2.2 1.4 1.4 3.2 1.5 5 1.2 3.3-.4 6-2.1 8.3-4.5 2-2 3.4-4.4 4.6-7 .8-1.6 1-1.7 2.6-.6.9.5 1 1 .4 1.8-.8 1.1-1.6 2.2-2.2 3.4-.5.8-.9 1.6-1.2 2.5-.7 2.5.9 4.4 3.5 4.1 1 0 2-.5 3-1.2l3.1-3 .7-.6z" fill="#56448E"/>
  <path d="M129 45a29.2 29.2 0 01-6.3 8.7c-.8.7-1.8 1.2-2.9 1.2-1.1 0-1.8-.7-1.5-1.8.3-.7.7-1.5 1.2-2.1 1.2-1.7 2.8-2.7 4.4-3.9a150.2 150.2 0 015.2-3.2c.2 0 .2 0 .2.2l-.3 1zm-14.8-16a41.3 41.3 0 017.8-14.2c.2-.2.5-.2.7-.2 0 0 .3.3.3.6l-1 3a40 40 0 01-6.3 10l-.9 1.1-1.1 1.1.5-1.4zm26 2.2l-.2.2c-1.3 2.2-2.8 4.1-4.7 5.7l-1 .7v-1l.3-1.5 1.5-6.4c.2-.7-.1-1.4-.7-1.6-.6-.2-1.3 0-1.7.7a27.4 27.4 0 01-6 9.2l-2.4 1.7c-.7.4-1.4 0-1.5-.8v-1.7a24 24 0 013.7-8.4l.7-1.3c.1-.5-.1-1-.5-1.3a1 1 0 00-1.3 0l-1.1 1-2.5 4.2a25 25 0 01-4.3 6.5c-.8.7-1.6 1.5-2.8 1.8-.9.2-1.6 0-2-.7a4.8 4.8 0 01.3-5.7c1-1.2 2.1-1 3.1-2.2a40 40 0 007.5-11.9c.6-1.4 1-2.8 1-4.3 0-1.6-1.4-2.8-3-2.6-1.3.2-2.3 1-3 2-3.8 4.3-6.1 9.4-7.8 14.9l-1 3.7c-.3 2-.1 3.5 0 5.6.5 2 1.9 3.5 3.6 3.7 1.5.2 2.8-.2 4-1l2.7-2.2.2.7c.4 1.3 1 2.3 2.5 2.6 1.1.2 2.2 0 3.1-.6 1.5-.8 2.6-2 3.7-3.3l.6-.6c.2 1.7-.5 3.2-1.7 4l-4.9 2.8a31.9 31.9 0 00-6.8 5.2c-1 1-1.7 2-2 3.4-.5 1.9.1 3.5 1.7 4.3.6.4 1.2.5 1.9.7h1.1c3.1-.8 5.2-2.8 7-5.3 2-3 3.7-6 4.8-9.4.1-.4.6-.9 1-1.1a23 23 0 009.3-10c.2-.3 0-.6 0-.6-.8-1.2-1.7-1.2-2.5.2z" fill="#71C3BB"/>
</svg>
