<svg width="91" height="29" viewBox="0 0 91 29" fill="none" xmlns="http://www.w3.org/2000/svg">
<g clip-path="url(#clip0)">
<path d="M18.1532 0C19.2198 0.113802 20.2908 0.198793 21.3514 0.352929C21.9479 0.43936 22.4753 0.736829 22.8955 1.18051C23.2826 1.59106 23.3839 2.22345 23.1423 2.62968C22.9483 2.95596 22.6619 3.064 22.2902 3.03303C21.931 3.0035 21.8054 2.77229 21.6798 2.48275C21.61 2.32429 21.419 2.1399 21.2567 2.11181C20.5324 1.98432 19.7986 1.83163 19.0678 1.82731C15.8622 1.80858 12.7022 2.15647 9.64943 3.17564C8.34194 3.61212 7.1013 4.19769 6.06486 5.11747C5.2025 5.88383 4.59577 6.80144 4.85433 8.00788C4.93954 8.40619 5.25612 8.75551 5.45665 9.13221C5.59108 9.38286 5.81658 9.64432 5.81144 9.89641C5.79528 10.5569 5.10334 10.8277 4.48191 10.4741C3.56741 9.95475 3.18545 9.12429 3.04955 8.14689C2.77043 6.128 3.69302 4.65146 5.24878 3.46879C7.00654 2.13414 9.05372 1.4182 11.167 0.878C13.4514 0.295308 15.7858 0.0835505 18.1525 0" fill="#56448E"/>
<path d="M7.20801 18.4618C7.32553 18.0455 7.45628 17.4462 7.66563 16.8743C8.90774 13.4826 10.3004 10.1543 12.1397 7.02617C12.8985 5.73618 13.6749 4.44835 14.7532 3.37948C14.9641 3.17061 15.2564 3.02799 15.5341 2.90267C15.8308 2.76798 16.1716 2.81984 16.3399 3.08561C16.4816 3.3089 16.5323 3.62293 16.522 3.89231C16.5154 4.07021 16.3582 4.26757 16.2201 4.41018C14.8054 5.86511 13.8027 7.5887 12.878 9.36198C11.3207 12.3453 10.0235 15.4331 9.06126 18.6534C9.03188 18.7506 9.0047 18.8493 8.96944 18.9444C8.76818 19.4867 8.42735 19.7266 7.96826 19.6538C7.5077 19.5803 7.21388 19.1907 7.20801 18.4618ZM31.0249 10.8536C30.9697 11.0888 30.8781 11.3142 30.7531 11.522C29.7614 13.1124 28.6949 14.6487 27.3639 15.9884C27.1458 16.2065 26.8936 16.3891 26.6169 16.5293C25.9058 16.888 25.421 16.5668 25.4431 15.701C25.5437 14.4348 26.1255 13.2824 26.9195 12.2193C27.6357 11.2613 28.5208 10.518 29.6997 10.1644C29.9076 10.1017 30.1258 10.0484 30.3425 10.0383C30.9176 10.0095 31.1615 10.2998 31.0249 10.8536ZM18.3224 12.3504C18.8733 11.4896 19.5638 10.755 20.4511 10.2205C20.6788 10.0837 20.9359 9.97925 21.1945 9.91442C21.3333 9.87913 21.5713 9.9101 21.6389 10.0016C21.7108 10.1003 21.6947 10.3451 21.6146 10.4532C21.3135 10.8637 21.0196 11.2995 20.6325 11.62C20.1154 12.0493 19.5256 12.3986 18.9423 12.7422C18.7403 12.8617 18.4664 12.8625 18.2254 12.9172L18.1446 12.8178C18.2019 12.6608 18.2328 12.4879 18.3224 12.3496V12.3504ZM47.9833 6.75175C48.4637 5.73042 48.9947 4.73934 49.6257 3.8102C49.8784 3.43757 50.1485 3.07657 50.4352 2.72836C50.5792 2.55334 50.7283 2.38264 50.8825 2.2141C50.9031 2.19105 50.9237 2.16584 50.945 2.13919C51.0933 1.95408 51.2564 1.71207 51.5186 1.87197C51.5451 1.88782 51.562 1.92959 51.5708 1.98505C51.5972 2.14351 51.5605 2.41577 51.4826 2.55622C51.1198 3.20446 50.754 3.85558 50.3537 4.48292C50.22 4.6918 50.0826 4.8978 49.9401 5.10019C49.8248 5.26441 49.7028 5.42431 49.575 5.5806C49.1938 6.04877 48.77 6.48958 48.3682 6.94334C48.3122 7.00357 48.2491 7.05701 48.1801 7.10252C48.1111 7.15078 48.0391 7.19615 47.9723 7.24657C47.9404 7.22215 47.9085 7.19766 47.8768 7.1731C47.9113 7.03193 47.9223 6.88068 47.9825 6.75175H47.9833ZM56.4746 12.637C56.4855 12.5781 56.5058 12.5212 56.5348 12.4685C56.6862 12.2178 56.8492 11.9787 57.0255 11.7518C57.3735 11.2993 57.7825 10.8952 58.2412 10.5504C58.4749 10.3759 58.7214 10.2185 58.9787 10.0794C59.0205 10.057 59.0675 10.0419 59.1116 10.0232C59.2453 9.967 59.3856 9.92235 59.5266 9.90074C59.634 9.8851 59.7436 9.89625 59.8454 9.93315C59.8733 9.94612 59.8954 9.96196 59.9086 9.98141C59.9762 10.0873 59.9784 10.2854 59.9233 10.4056C59.8227 10.6217 59.6735 10.8212 59.5178 11.0049C59.4407 11.0964 59.3614 11.185 59.2806 11.2728C59.0382 11.535 58.7811 11.7785 58.5034 11.9967C58.1313 12.293 57.7183 12.5362 57.2767 12.7191C57.2167 12.7438 57.1554 12.7655 57.0931 12.784C56.9072 12.8401 56.7111 12.8754 56.5224 12.9258C56.4746 12.933 56.4269 12.9208 56.4357 12.8178C56.4518 12.7227 56.4614 12.6975 56.4739 12.637H56.4746ZM71.6929 15.1212C71.8104 14.1654 72.1123 13.654 72.0712 12.6601C72.0624 12.4562 73.0231 11.5703 73.0173 11.3708C72.9659 11.5177 72.1828 11.9211 72.1138 12.0601C71.474 13.3335 69.8338 14.8979 68.7055 15.8127C68.3896 16.0691 68.0297 16.288 67.658 16.4558C67.4935 16.53 67.1666 16.5099 67.0638 16.3982C66.9404 16.265 66.9184 15.9762 66.9587 15.7759C67.0124 15.5073 67.135 15.2386 67.2864 15.0052C67.8226 14.1791 68.3926 13.3731 68.9347 12.5499C69.5936 11.5487 69.4621 10.7355 68.5042 10.0167C68.0841 9.70123 67.6191 9.44121 67.1674 9.16679C66.8559 8.97808 66.7105 8.7476 66.817 8.3709C66.9129 8.05438 66.9715 7.72814 66.9918 7.39855C67.0249 6.59401 66.4901 6.23172 65.7174 6.50686C64.8638 6.80937 64.3313 7.79613 64.5722 8.67269C64.6978 9.1279 64.7345 9.55213 64.5127 9.99942C63.6313 11.7749 62.6103 13.4437 61.1081 14.8C60.3207 15.5109 59.4671 16.0856 58.4586 16.4242C57.7285 16.669 56.9792 16.8347 56.2094 16.6215C55.6673 16.4724 55.3706 16.0359 55.375 15.4669C55.3779 15.006 55.5829 14.7971 56.2102 14.6192C56.3095 14.5898 56.4097 14.5634 56.5106 14.54C57.6411 14.2907 58.6547 13.8089 59.5722 13.1117C60.4742 12.4274 61.2308 11.6459 61.5628 10.5418C61.9396 9.29356 61.1272 8.24413 59.8058 8.25134C59.105 8.25494 58.4873 8.49983 57.907 8.84916C56.3644 9.77901 55.3574 11.1648 54.4781 12.6817C54.0786 13.3636 53.5921 13.9929 53.0303 14.5544C52.5874 14.998 52.0137 15.3358 51.4511 15.6369C51.0507 15.8523 50.6996 15.5807 50.7797 15.1363C50.8502 14.7431 51.0096 14.3563 51.1808 13.9897C51.5377 13.2276 51.9395 12.485 52.3009 11.7244C52.572 11.1526 52.7152 10.5475 52.6579 9.9065C52.5756 8.97736 51.8852 8.37666 50.9413 8.40475C50.1259 8.42852 49.4413 8.76921 48.8148 9.24242C47.7974 10.0131 46.9836 10.9725 46.2196 11.9787C46.1278 12.1004 46.0169 12.305 45.8693 12.287C45.74 12.2056 45.7877 12.0673 45.8068 11.9974C46.1352 10.8198 46.6677 9.81647 47.724 9.04507C49.6316 7.65136 51.263 5.97387 52.428 3.90455C52.8225 3.20302 53.0884 2.46547 53.0597 1.64869C53.023 0.566136 52.1254 -0.0396043 51.0911 0.323408C50.4345 0.553892 49.9269 0.990371 49.4928 1.50392C48.0971 3.15548 47.0688 5.0188 46.2564 7.00384C45.9273 7.80766 45.6305 8.62371 44.8975 9.19056C44.6653 9.37063 44.5948 9.64 44.6573 9.9526C44.6977 10.1564 44.672 10.3848 44.6242 10.5908C44.3936 11.5746 43.8162 12.3698 43.1757 13.1326C42.2795 14.1985 41.357 15.2328 40.1237 15.9452C39.2855 16.4292 38.4151 16.8081 37.4169 16.772C36.5207 16.7389 35.986 16.2333 35.9918 15.3877C36.0006 15.0057 36.0604 14.6265 36.1696 14.2598C36.495 13.1088 37.1275 12.1206 37.9237 11.2289C38.504 10.5785 39.1688 10.0275 40.0274 9.77685C40.2302 9.71779 40.5482 9.75669 40.6907 9.88345C40.7862 9.96844 40.7253 10.3228 40.6246 10.4957C40.4395 10.8126 40.1751 11.0849 39.9415 11.3744C39.6227 11.7705 39.6036 12.1919 39.896 12.4814C40.2008 12.784 40.7554 12.8092 41.0874 12.4461C41.4826 12.0162 41.8895 11.5581 42.1312 11.0402C42.7923 9.62632 41.999 8.34065 40.4241 8.18075C39.5764 8.09432 38.861 8.45517 38.1786 8.88445C36.625 9.86329 35.6591 11.3053 34.8629 12.8992C34.5458 13.5378 34.1609 14.1418 33.7148 14.7013C33.4114 15.0787 32.9839 15.3884 32.5549 15.6326C32.0238 15.9351 31.6316 15.7046 31.611 15.0967C31.5977 14.626 31.6384 14.1554 31.7322 13.6936C31.9688 12.4958 32.5167 11.4097 33.0471 10.3178C33.1918 10.0225 33.324 9.70771 33.3791 9.38791C33.5039 8.66765 33.0779 8.34353 32.3603 8.5308C32.0631 8.60448 31.7549 8.62546 31.4502 8.59274C30.6715 8.51279 29.9003 8.44941 29.1415 8.70726C27.5211 9.25754 26.2731 10.289 25.3564 11.6827C24.6196 12.8034 23.8307 13.8629 22.8428 14.7856C22.0664 15.5094 21.2069 16.077 20.1984 16.417C19.4551 16.6683 18.6941 16.839 17.9118 16.6172C17.3792 16.4659 17.0832 16.0122 17.0964 15.4475C17.106 15.0038 17.3117 14.7956 17.914 14.6242C18.0132 14.5954 18.1123 14.5673 18.2137 14.545C19.3434 14.297 20.402 13.8035 21.3113 13.1009C22.1986 12.4231 22.9456 11.6488 23.2798 10.5598C23.6016 9.50964 23.0852 8.48398 22.0465 8.31688C21.5338 8.23405 20.9462 8.30392 20.4511 8.47102C19.1987 8.89453 18.2622 9.77181 17.4659 10.7831C16.4743 12.0435 15.6531 13.3947 15.4349 15.0146C15.1822 16.8945 16.417 18.2724 18.351 18.3141C20.1191 18.3523 21.633 17.6933 23.0374 16.7151C23.3077 16.5279 23.5641 16.3212 23.8623 16.0957C23.8711 16.2664 23.8741 16.3795 23.8822 16.4919C23.9468 17.3447 24.4052 17.9828 25.139 18.2104C25.7129 18.3942 26.3358 18.3642 26.8886 18.1261C27.8634 17.7134 28.6288 17.0357 29.3075 16.2448C29.8231 15.6448 29.8635 15.66 30.2624 16.3183C30.8721 17.3252 31.73 17.6681 32.8362 17.233C33.4136 17.0054 33.9248 16.615 34.4706 16.2952C34.4721 16.2988 34.5029 16.3521 34.5242 16.4076C35.0384 17.7646 36.1094 18.3163 37.5043 18.3998C38.9175 18.4834 40.0972 17.882 41.2225 17.1495C41.6846 16.8484 42.1113 16.4947 42.5983 16.1317C42.53 16.355 42.4698 16.5329 42.4228 16.713C42.3714 16.9103 42.3133 17.1091 42.2942 17.3101C42.2597 17.6594 42.2487 18.0159 42.6681 18.1802C43.0163 18.3163 43.2962 18.2018 43.5812 17.7955C43.8537 17.4073 44.11 17.0083 44.3767 16.6165C45.7495 14.5983 47.1841 12.6269 49.0102 10.9696C49.3326 10.6772 49.697 10.4236 50.0598 10.1874C50.8891 9.64721 50.9383 10.4215 50.8069 10.8443C50.7995 10.8666 50.7863 10.8904 50.7745 10.9134C50.4256 11.6243 50.0753 12.3345 49.7271 13.0461C49.34 13.8363 49.0755 14.6581 49.1409 15.5476C49.2203 16.6251 50.206 17.4477 51.2329 17.2906C51.537 17.2438 51.8521 17.1718 52.1239 17.0371C52.6748 16.7663 53.1993 16.4443 53.665 16.1821C53.939 16.6143 54.1571 17.1379 54.5303 17.5146C55.3676 18.3602 56.4731 18.4157 57.5801 18.2659C59.6471 17.9842 61.3167 16.9449 62.7337 15.4929C63.9398 14.2583 64.7977 12.7883 65.5543 11.257C66.0575 10.2371 66.1941 10.2069 67.1725 10.8292C67.7028 11.167 67.7528 11.4579 67.3995 11.9657C66.9308 12.6377 66.4446 13.3025 66.0303 14.0062C65.7365 14.5002 65.5054 15.0275 65.342 15.5764C64.9072 17.0774 65.8753 18.2097 67.4494 18.0808C68.1428 18.0246 68.7569 17.7257 69.277 17.3014C69.9711 16.7353 70.6109 16.1044 71.2632 15.5116C71.6672 15.1212 71.6914 15.1154 71.6929 15.1212Z" fill="#56448E"/>
<path d="M82.4939 20.4714C81.4641 22.4089 80.3072 24.2592 78.6229 25.7307C78.1183 26.1715 77.5431 26.4726 76.8453 26.4834C76.1651 26.4935 75.7413 26.0361 75.9455 25.398C76.0968 24.9262 76.3671 24.4753 76.6602 24.0677C77.3698 23.0831 78.3922 22.4312 79.3736 21.7448C80.2169 21.1549 81.077 20.5873 81.9401 20.0255C82.1318 19.9009 82.4888 19.7626 82.5828 19.7504C82.6768 19.7382 82.6959 19.7936 82.6908 19.8685C82.6262 20.0702 82.5916 20.2863 82.4939 20.4714ZM73.3878 10.665C74.3229 7.93738 75.4915 5.32354 77.3088 3.03455C77.5953 2.67442 77.9038 2.32797 78.2255 1.99737C78.3063 1.91454 78.4929 1.86916 78.6053 1.89941C78.689 1.92174 78.8462 2.05499 78.83 2.26387C78.6376 2.84296 78.4775 3.4595 78.2314 4.04148C77.2765 6.2959 75.9007 8.29679 74.3265 10.1731C74.137 10.3992 73.9725 10.6484 73.769 10.8609C73.6779 10.956 73.3687 11.203 73.0822 11.5488C73.08 11.4206 73.3489 10.7795 73.3878 10.665ZM89.3759 11.9838C89.3443 12.0393 89.3171 12.0976 89.2848 12.1524C88.5099 13.4647 87.5645 14.6409 86.398 15.6384C86.2394 15.7753 86.0418 15.8675 85.7722 16.036C85.7597 15.776 85.723 15.6139 85.7502 15.4627C85.8053 15.1508 85.8949 14.8433 85.9698 14.5335C86.2857 13.2349 86.6111 11.9384 86.9122 10.6362C87.0158 10.1875 86.802 9.77189 86.4605 9.63504C86.0932 9.48738 85.6591 9.65304 85.3991 10.06C85.2617 10.2753 85.1376 10.5001 85.0318 10.732C84.2018 12.5665 83.0911 14.2217 81.6676 15.6586C81.2577 16.0706 80.7421 16.3976 80.2345 16.6965C79.7754 16.9673 79.3699 16.7534 79.306 16.2305C79.2649 15.8956 79.2627 15.5347 79.3427 15.2091C79.7967 13.3797 80.4681 11.6381 81.5882 10.0859C81.7645 9.84103 81.9107 9.56085 81.9996 9.27563C82.0995 8.95871 81.9636 8.66988 81.6918 8.47037C81.4369 8.2831 81.1446 8.28742 80.8992 8.46605C80.6532 8.64612 80.3924 8.84563 80.2345 9.09556C79.7027 9.93827 79.162 10.7824 78.7191 11.6719C78.0051 13.1031 77.1545 14.4327 76.03 15.583C75.5518 16.0706 75.0354 16.5193 74.3361 16.6922C73.7852 16.829 73.3077 16.685 73.0286 16.2622C72.4924 15.4526 72.2089 13.9811 73.2446 12.7891C73.852 12.0904 74.5689 12.1495 75.1926 11.4652C77.156 9.31164 78.7206 6.90452 79.818 4.21722C80.161 3.37811 80.4394 2.51308 80.4071 1.5861C80.3718 0.577733 79.5477 -0.117321 78.5377 0.0159281C77.74 0.122527 77.1567 0.600781 76.6697 1.16835C74.3684 3.84052 72.9471 6.96502 71.9136 10.279C71.7211 10.8948 71.5808 11.6186 71.3406 12.5622C71.132 13.8327 71.2246 14.7028 71.2995 15.9928C71.6065 17.2144 72.4623 18.0931 73.5244 18.2386C74.425 18.361 75.2638 18.1421 75.9947 17.6343C76.5823 17.2266 77.1141 16.739 77.6658 16.291C77.6915 16.4019 77.7157 16.5517 77.7598 16.6951C78.0059 17.4953 78.4326 18.1442 79.3339 18.3128C80.0097 18.4395 80.6451 18.2652 81.2349 17.9281C82.1384 17.4139 82.8296 16.6713 83.4944 15.8992C83.5891 15.789 83.7177 15.7076 83.8741 15.5772C84.0122 16.6036 83.5855 17.4902 82.7995 17.9461C81.8064 18.5224 80.8089 19.0914 79.8224 19.6777C78.2968 20.5852 76.8409 21.5806 75.6076 22.8634C75.0273 23.467 74.5689 24.1325 74.3552 24.9449C74.0577 26.0772 74.4411 27.0834 75.4203 27.6013C75.778 27.7907 76.1952 27.8699 76.5853 27.9996H77.2868C79.1966 27.535 80.5107 26.3134 81.5875 24.7685C82.8289 22.9865 83.8977 21.1239 84.5529 19.046C84.6381 18.7737 84.8893 18.4835 85.1434 18.3416C87.4969 17.0321 89.2929 15.1933 90.6136 12.8892C90.7267 12.6918 90.809 12.5276 90.9294 12.2856C91.0514 12.0443 90.9294 11.9024 90.9294 11.9024C90.3969 11.1368 89.8431 11.1656 89.3759 11.9838Z" fill="#71C3BB"/>
</g>
<defs>
<clipPath id="clip0">
<rect width="91" height="29" fill="white"/>
</clipPath>
</defs>
</svg>
