<svg width="144" height="63" viewBox="0 0 144 63" fill="none" xmlns="http://www.w3.org/2000/svg">
<g clip-path="url(#clip0)">
<path d="M25.2505 11.4092C26.9808 11.5941 28.7182 11.7322 30.439 11.9826C31.4066 12.123 32.2622 12.6063 32.9439 13.3271C33.5719 13.9942 33.7363 15.0216 33.3443 15.6816C33.0297 16.2117 32.5649 16.3872 31.9619 16.3369C31.3791 16.2889 31.1754 15.9133 30.9716 15.4429C30.8584 15.1854 30.5486 14.8858 30.2852 14.8402C29.1103 14.6331 27.9197 14.385 26.7341 14.378C21.5336 14.3476 16.407 14.9128 11.4545 16.5686C9.33335 17.2777 7.32062 18.2291 5.63917 19.7234C4.24016 20.9685 3.25585 22.4594 3.67531 24.4194C3.81355 25.0666 4.32715 25.6341 4.65247 26.2461C4.87055 26.6534 5.2364 27.0782 5.22805 27.4877C5.20184 28.5608 4.07929 29.0009 3.07114 28.4262C1.58751 27.5825 0.967844 26.2333 0.747386 24.6453C0.294553 21.3652 1.79129 18.9663 4.31523 17.0449C7.1669 14.8765 10.4881 13.7133 13.9165 12.8357C17.6225 11.889 21.4097 11.5449 25.2493 11.4092" fill="#56448E"/>
<path d="M7.49316 41.4032C7.68383 40.7269 7.89595 39.7533 8.23558 38.8242C10.2507 33.3137 12.5101 27.9062 15.494 22.824C16.725 20.7282 17.9846 18.6359 19.734 16.8993C20.076 16.5599 20.5503 16.3282 21.0007 16.1246C21.4822 15.9058 22.0351 15.99 22.308 16.4218C22.538 16.7846 22.6201 17.2948 22.6035 17.7325C22.5928 18.0215 22.3378 18.3421 22.1137 18.5738C19.8186 20.9376 18.192 23.7379 16.6917 26.619C14.1653 31.4659 12.0608 36.4826 10.4997 41.7145C10.4521 41.8725 10.408 42.0329 10.3508 42.1873C10.0243 43.0685 9.47133 43.4581 8.72654 43.3399C7.97936 43.2205 7.5027 42.5875 7.49316 41.4032ZM46.1318 29.0424C46.0423 29.4245 45.8936 29.7907 45.6909 30.1284C44.0821 32.7122 42.3518 35.2082 40.1925 37.3848C39.8388 37.7392 39.4297 38.0359 38.9806 38.2636C37.8271 38.8464 37.0406 38.3244 37.0763 36.9178C37.2396 34.8607 38.1834 32.9883 39.4716 31.2612C40.6334 29.7048 42.0694 28.4971 43.982 27.9225C44.3193 27.8208 44.6732 27.7342 45.0247 27.7177C45.9577 27.6709 46.3534 28.1425 46.1318 29.0424ZM25.5243 31.4741C26.418 30.0758 27.5382 28.8821 28.9777 28.0138C29.3472 27.7915 29.7642 27.6218 30.1838 27.5165C30.4089 27.4592 30.795 27.5095 30.9047 27.6581C31.0214 27.8184 30.9952 28.2163 30.8653 28.3919C30.3768 29.0588 29.9001 29.7668 29.2721 30.2875C28.4331 30.9849 27.4762 31.5525 26.5301 32.1107C26.2023 32.3049 25.7579 32.3061 25.367 32.395L25.236 32.2336C25.3289 31.9785 25.379 31.6976 25.5243 31.4729V31.4741ZM73.6438 22.3781C74.4231 20.7188 75.2847 19.1086 76.3084 17.5991C76.7184 16.9936 77.1566 16.4071 77.6216 15.8414C77.8551 15.5571 78.097 15.2797 78.3472 15.0059C78.3807 14.9684 78.414 14.9275 78.4485 14.8842C78.6893 14.5835 78.9539 14.1903 79.3793 14.45C79.4222 14.4758 79.4495 14.5437 79.4638 14.6338C79.5067 14.8912 79.4473 15.3335 79.3208 15.5617C78.7322 16.6149 78.1388 17.6728 77.4894 18.692C77.2724 19.0314 77.0496 19.3661 76.8183 19.6949C76.6314 19.9617 76.4335 20.2215 76.2261 20.4754C75.6077 21.236 74.9201 21.9522 74.2682 22.6894C74.1775 22.7873 74.0751 22.8741 73.9632 22.948C73.8511 23.0264 73.7344 23.1002 73.6259 23.1821C73.5742 23.1424 73.5226 23.1026 73.4711 23.0627C73.527 22.8334 73.5449 22.5876 73.6425 22.3781H73.6438ZM87.4195 31.9398C87.4371 31.8441 87.47 31.7516 87.5172 31.666C87.7627 31.2588 88.0272 30.8702 88.3132 30.5017C88.8779 29.7665 89.5412 29.1099 90.2854 28.5498C90.6646 28.2662 91.0645 28.0105 91.4819 27.7845C91.5498 27.7483 91.626 27.7236 91.6975 27.6932C91.9144 27.602 92.142 27.5293 92.3708 27.4942C92.545 27.4689 92.7229 27.4869 92.888 27.547C92.9334 27.568 92.9691 27.5937 92.9906 27.6253C93.1001 27.7974 93.1037 28.1191 93.0143 28.3145C92.8511 28.6657 92.6092 28.9897 92.3565 29.2882C92.2314 29.4368 92.1027 29.5807 91.9716 29.7235C91.5784 30.1494 91.1612 30.545 90.7108 30.8995C90.107 31.3809 89.4371 31.776 88.7208 32.0733C88.6234 32.1134 88.524 32.1486 88.4228 32.1786C88.1213 32.2699 87.8032 32.3272 87.4969 32.4091C87.4195 32.4208 87.3421 32.4009 87.3564 32.2336C87.3825 32.0792 87.398 32.0382 87.4183 31.9398H87.4195ZM112.108 35.9759C112.299 34.423 112.789 33.5922 112.722 31.9773C112.708 31.6461 114.267 30.2068 114.257 29.8827C114.174 30.1214 112.903 30.7767 112.791 31.0025C111.753 33.0714 109.092 35.6131 107.262 37.0993C106.749 37.5158 106.166 37.8716 105.563 38.1443C105.296 38.2648 104.765 38.232 104.599 38.0506C104.398 37.8342 104.363 37.3649 104.428 37.0396C104.515 36.6031 104.714 36.1666 104.96 35.7875C105.83 34.4452 106.754 33.1358 107.634 31.7982C108.703 30.1717 108.489 28.8505 106.935 27.6827C106.254 27.1701 105.499 26.7477 104.767 26.3018C104.261 25.9953 104.025 25.6208 104.198 25.0088C104.354 24.4945 104.449 23.9645 104.482 23.429C104.535 22.1219 103.668 21.5333 102.414 21.9803C101.029 22.4718 100.166 24.0749 100.556 25.499C100.76 26.2386 100.82 26.9279 100.46 27.6546C99.0299 30.5391 97.3735 33.2505 94.9364 35.454C93.659 36.6089 92.2743 37.5427 90.6382 38.0928C89.4536 38.4907 88.2381 38.7598 86.9893 38.4134C86.1098 38.1712 85.6284 37.462 85.6355 36.5376C85.6404 35.7887 85.9728 35.4493 86.9905 35.1602C87.1516 35.1125 87.3141 35.0695 87.4779 35.0316C89.3118 34.6266 90.9563 33.8438 92.4447 32.711C93.9081 31.5994 95.1356 30.3297 95.6741 28.5357C96.2855 26.5077 94.9675 24.8028 92.8237 24.8145C91.6868 24.8203 90.6846 25.2182 89.7432 25.7858C87.2407 27.2966 85.6069 29.5479 84.1805 32.0124C83.5323 33.1204 82.743 34.1428 81.8317 35.055C81.1132 35.7758 80.1825 36.3246 79.2697 36.8137C78.6202 37.1636 78.0506 36.7224 78.1805 36.0004C78.2949 35.3615 78.5535 34.7331 78.8311 34.1375C79.4103 32.8994 80.0621 31.6929 80.6484 30.4572C81.0881 29.5281 81.3205 28.5451 81.2276 27.5036C81.094 25.9941 79.9739 25.0182 78.4426 25.0638C77.1199 25.1023 76.0093 25.6559 74.9928 26.4248C73.3424 27.6768 72.0219 29.2356 70.7827 30.8702C70.6336 31.068 70.4538 31.4004 70.2142 31.3712C70.0044 31.2389 70.082 31.0142 70.1129 30.9007C70.6456 28.9874 71.5095 27.3573 73.2231 26.1041C76.3178 23.8397 78.9646 21.1143 80.8546 17.7524C81.4944 16.6126 81.9259 15.4143 81.8795 14.0873C81.8198 12.3285 80.3637 11.3443 78.6857 11.9341C77.6204 12.3086 76.7969 13.0177 76.0927 13.8521C73.8284 16.5353 72.1602 19.5626 70.8422 22.7877C70.3083 24.0936 69.8269 25.4195 68.6377 26.3404C68.261 26.633 68.1466 27.0707 68.2479 27.5786C68.3135 27.9097 68.2718 28.2807 68.1942 28.6154C67.8201 30.2138 66.8835 31.5057 65.8443 32.745C64.3904 34.4768 62.8938 36.1573 60.893 37.3145C59.5333 38.1009 58.1211 38.7165 56.5017 38.658C55.0478 38.6042 54.1802 37.7827 54.1898 36.4089C54.204 35.7883 54.3009 35.1722 54.4782 34.5763C55.0061 32.7063 56.0321 31.1008 57.3239 29.6521C58.2653 28.5954 59.3438 27.7002 60.7368 27.293C61.0657 27.197 61.5817 27.2602 61.8129 27.4661C61.9678 27.6043 61.8689 28.18 61.7057 28.4608C61.4054 28.9758 60.9764 29.4181 60.5974 29.8885C60.0802 30.5322 60.0493 31.2167 60.5235 31.687C61.0181 32.1786 61.9177 32.2196 62.4564 31.6297C63.0975 30.9311 63.7577 30.1869 64.1498 29.3456C65.2223 27.0484 63.9353 24.9597 61.3803 24.6998C60.0052 24.5594 58.8445 25.1457 57.7374 25.8431C55.217 27.4335 53.65 29.7761 52.3582 32.3658C51.8438 33.4033 51.2195 34.3846 50.4957 35.2936C50.0035 35.9068 49.31 36.4101 48.614 36.8068C47.7524 37.2982 47.116 36.9237 47.0827 35.936C47.0611 35.1714 47.1271 34.4068 47.2794 33.6565C47.6631 31.7105 48.5521 29.9458 49.4124 28.1718C49.6471 27.692 49.8616 27.1807 49.9511 26.6611C50.1537 25.4909 49.4624 24.9643 48.2982 25.2686C47.8161 25.3883 47.3161 25.4223 46.8218 25.3692C45.5585 25.2393 44.3073 25.1363 43.0763 25.5552C40.4475 26.4493 38.4229 28.125 36.9357 30.3894C35.7404 32.2102 34.4605 33.9316 32.8579 35.4305C31.5982 36.6067 30.204 37.5287 28.5679 38.081C27.3618 38.4895 26.1273 38.7668 24.8581 38.4064C23.9942 38.1606 23.5139 37.4235 23.5353 36.506C23.5508 35.7852 23.8846 35.447 24.8617 35.1685C25.0225 35.1216 25.1835 35.076 25.3479 35.0397C27.1807 34.6368 28.898 33.835 30.3732 32.6935C31.8127 31.5923 33.0246 30.3344 33.5668 28.565C34.0887 26.8588 33.2511 25.1925 31.566 24.921C30.7343 24.7865 29.7809 24.9 28.9777 25.1714C26.9459 25.8594 25.4266 27.2848 24.1348 28.9277C22.5261 30.9756 21.1938 33.1709 20.8398 35.8027C20.4299 38.8568 22.4332 41.0955 25.5708 41.1634C28.4391 41.2253 30.8951 40.1546 33.1735 38.5655C33.6121 38.2613 34.028 37.9255 34.5118 37.5592C34.5261 37.8365 34.531 38.0202 34.544 38.2028C34.6489 39.5883 35.3925 40.6251 36.583 40.9949C37.5141 41.2934 38.5246 41.2447 39.4215 40.8579C41.0028 40.1874 42.2446 39.0862 43.3457 37.8014C44.1822 36.8266 44.2478 36.8512 44.8948 37.9208C45.8839 39.5567 47.2758 40.1137 49.0704 39.4069C50.0071 39.0371 50.8365 38.4029 51.7218 37.8833C51.7243 37.8891 51.7743 37.9758 51.8089 38.0659C52.643 40.2705 54.3804 41.1668 56.6435 41.3027C58.9362 41.4384 60.8501 40.4613 62.6756 39.2712C63.4252 38.782 64.1176 38.2075 64.9077 37.6177C64.7969 37.9804 64.6991 38.2694 64.6229 38.562C64.5395 38.8827 64.4453 39.2056 64.4143 39.5321C64.3583 40.0996 64.3405 40.6789 65.0208 40.9457C65.5857 41.1668 66.0398 40.9808 66.5021 40.3209C66.9442 39.6901 67.3601 39.0418 67.7927 38.4052C70.0199 35.1263 72.3473 31.9235 75.3097 29.2309C75.8329 28.7558 76.424 28.3438 77.0126 27.96C78.358 27.0823 78.4379 28.3403 78.2246 29.0272C78.2126 29.0635 78.1911 29.1021 78.1721 29.1396C77.6061 30.2946 77.0377 31.4484 76.4728 32.6045C75.8449 33.8882 75.4159 35.2235 75.5219 36.6686C75.6506 38.4192 77.2498 39.7557 78.9157 39.5005C79.4091 39.4244 79.9204 39.3075 80.3612 39.0886C81.255 38.6486 82.1058 38.1256 82.8613 37.6996C83.3058 38.4017 83.6598 39.2525 84.2651 39.8645C85.6236 41.2383 87.4171 41.3284 89.2129 41.0849C92.5663 40.6274 95.2749 38.9388 97.5737 36.5796C99.5304 34.574 100.922 32.1856 102.15 29.6977C102.966 28.0407 103.188 27.9916 104.775 29.0027C105.635 29.5514 105.716 30.0243 105.143 30.8492C104.383 31.941 103.594 33.0211 102.922 34.1644C102.445 34.9669 102.07 35.8236 101.805 36.7155C101.1 39.1541 102.67 40.9937 105.224 40.7842C106.349 40.6929 107.345 40.2074 108.189 39.5181C109.315 38.5983 110.353 37.5732 111.411 36.6101C112.067 35.9759 112.106 35.9665 112.108 35.9759Z" fill="#56448E"/>
<path d="M129.631 44.6684C127.961 47.8163 126.084 50.8225 123.351 53.2132C122.533 53.9294 121.6 54.4186 120.468 54.4361C119.364 54.4525 118.677 53.7094 119.008 52.6727C119.253 51.9062 119.692 51.1736 120.167 50.5112C121.319 48.9116 122.977 47.8526 124.569 46.7374C125.938 45.779 127.332 44.8568 128.733 43.9441C129.044 43.7417 129.623 43.517 129.776 43.4971C129.928 43.4771 129.96 43.5673 129.951 43.689C129.846 44.0166 129.79 44.3677 129.631 44.6684ZM114.858 28.7361C116.375 24.3046 118.271 20.058 121.22 16.3391C121.684 15.754 122.184 15.1911 122.707 14.654C122.838 14.5194 123.141 14.4457 123.322 14.4949C123.459 14.5311 123.714 14.7476 123.687 15.087C123.376 16.0278 123.115 17.0295 122.716 17.975C121.167 21.6377 118.935 24.8886 116.381 27.937C116.074 28.3044 115.807 28.7092 115.477 29.0545C115.329 29.209 114.828 29.6103 114.363 30.172C114.359 29.9637 114.795 28.9223 114.858 28.7361ZM140.796 30.8788C140.745 30.9689 140.701 31.0637 140.648 31.1526C139.392 33.2848 137.857 35.1957 135.966 36.8164C135.708 37.0387 135.388 37.1885 134.95 37.4623C134.93 37.0399 134.87 36.7767 134.914 36.5309C135.004 36.0242 135.149 35.5245 135.27 35.0213C135.783 32.9115 136.311 30.8051 136.8 28.6894C136.968 27.9603 136.62 27.2851 136.066 27.0628C135.471 26.8229 134.766 27.0921 134.344 27.7532C134.121 28.1031 133.92 28.4682 133.749 28.8451C132.402 31.8256 130.601 34.5146 128.291 36.8492C127.626 37.5185 126.79 38.0498 125.965 38.5354C125.221 38.9754 124.563 38.6279 124.46 37.7783C124.392 37.2341 124.39 36.6479 124.52 36.119C125.255 33.1467 126.345 30.3171 128.163 27.7954C128.449 27.3975 128.685 26.9423 128.829 26.4789C128.991 25.964 128.771 25.4948 128.33 25.1706C127.917 24.8663 127.443 24.8734 127.044 25.1635C126.645 25.4561 126.222 25.7802 125.965 26.1863C125.104 27.5554 124.226 28.927 123.508 30.3721C122.349 32.6974 120.969 34.8575 119.145 36.7263C118.369 37.5185 117.531 38.2475 116.397 38.5284C115.503 38.7507 114.729 38.5167 114.276 37.8298C113.406 36.5145 112.946 34.1238 114.626 32.1871C115.612 31.052 116.775 31.148 117.786 30.0363C120.972 26.5373 123.51 22.6266 125.29 18.2605C125.847 16.8973 126.299 15.4919 126.247 13.9858C126.188 12.3475 124.852 11.2183 123.213 11.4348C121.919 11.608 120.973 12.385 120.183 13.3071C116.449 17.6485 114.143 22.7249 112.467 28.109C112.155 29.1095 111.927 30.2855 111.537 31.8185C111.199 33.8827 111.349 35.2963 111.471 37.3922C111.969 39.3768 113.357 40.8044 115.08 41.0408C116.541 41.2398 117.902 40.8841 119.088 40.059C120.041 39.3968 120.904 38.6045 121.799 37.8767C121.841 38.0568 121.88 38.3002 121.952 38.5331C122.35 39.8332 123.042 40.8875 124.505 41.1614C125.602 41.3673 126.632 41.0842 127.589 40.5365C129.054 39.701 130.177 38.4944 131.255 37.24C131.408 37.0609 131.616 36.9287 131.871 36.717C132.095 38.3844 131.402 39.825 130.127 40.5657C128.516 41.5019 126.897 42.4264 125.298 43.3789C122.822 44.8534 120.461 46.4706 118.46 48.5547C117.518 49.5353 116.775 50.6166 116.428 51.9366C115.945 53.7761 116.567 55.4109 118.156 56.2522C118.736 56.56 119.413 56.6888 120.046 56.8993H121.184C124.282 56.1446 126.414 54.16 128.161 51.6499C130.175 48.7548 131.908 45.7286 132.972 42.3526C133.111 41.9103 133.518 41.4387 133.93 41.2082C137.748 39.0808 140.662 36.0932 142.804 32.3498C142.987 32.0291 143.122 31.7623 143.317 31.3692C143.514 30.9771 143.317 30.7466 143.317 30.7466C142.453 29.5027 141.554 29.5494 140.796 30.8788Z" fill="#71C3BB"/>
</g>
<defs>
<clipPath id="clip0">
<rect width="143" height="63" fill="white" transform="translate(0.666992)"/>
</clipPath>
</defs>
</svg>
