<svg width="28" height="36" viewBox="0 0 28 36" fill="none" xmlns="http://www.w3.org/2000/svg">
<path fill-rule="evenodd" clip-rule="evenodd" d="M20.7636 34.8939L19.9166 25.1485L24.6513 25.3671L23.7512 35.0376L20.7636 34.8939ZM25.6996 17.7485L25.5448 23.57L16.5505 22.4524L18.9419 17.559C17.9585 16.9159 16.4808 15.6736 16.8609 14.1927C17.3675 12.2221 18.1515 9.46638 18.1515 9.46638L19.7668 8.60007C21.1854 9.65421 23.7764 9.64385 24.9768 8.65689L26.3672 9.44365C26.3672 9.44365 27.2603 12.2852 27.8379 14.1756C28.2702 15.5931 26.5851 17.082 25.6996 17.7485ZM22.1697 0.895515C24.9889 0.895515 24.9384 3.9276 24.9384 6.80127L19.3531 6.7889C19.3534 4.20702 19.3502 0.895515 22.1697 0.895515ZM10.668 20.1927L11.259 35.0794C11.259 35.0794 8.63276 35.9601 8.45516 33.6973C8.2974 31.6887 7.08652 23.2588 7.08652 23.2588L6.15212 23.202C6.15212 23.202 5.26572 30.9597 4.89004 33.5082C4.51884 36.0252 1.92652 34.9835 1.92652 34.9835L2.78796 20.1188C2.78796 20.1188 -0.332683 17.5847 0.142197 15.3738C0.559797 13.4306 1.13228 10.0523 1.13228 10.0523C1.91276 9.23877 3.2382 8.70502 4.73324 8.45802L6.7614 11.4838L8.78412 8.47774C10.2059 8.72707 11.4904 9.24011 12.322 10.0289C12.322 10.0289 12.8008 13.5011 13.1921 15.4346C13.5828 17.3678 10.668 20.1927 10.668 20.1927ZM4.01484 3.6883C4.01484 -0.531961 9.84236 0.216035 9.39148 3.97239C8.95724 7.5867 4.01484 7.9627 4.01484 3.6883Z" fill="#111111"/>
</svg>
