<svg viewBox="0 0 28 35" fill="none" xmlns="http://www.w3.org/2000/svg">
  <path fill-rule="evenodd" clip-rule="evenodd" d="M20.7634 34.203L19.9164 24.4576L24.6511 24.6762L23.7509 34.3467L20.7634 34.203ZM25.6994 17.0576L25.5445 22.8791L16.5503 21.7614L18.9416 16.868C17.9583 16.225 16.4805 14.9827 16.8607 13.5017C17.3672 11.5311 18.1512 8.77546 18.1512 8.77546L19.7666 7.90915C21.1852 8.96329 23.7762 8.95293 24.9765 7.96597L26.3669 8.75273C26.3669 8.75273 27.26 11.5943 27.8376 13.4847C28.27 14.9021 26.5848 16.3911 25.6994 17.0576ZM22.1695 0.204597C24.9887 0.204597 24.9381 3.23669 24.9381 6.11035L19.3528 6.09798C19.3532 3.5161 19.35 0.204597 22.1695 0.204597ZM10.6677 19.5017L11.2588 34.3885C11.2588 34.3885 8.63251 35.2691 8.45491 33.0064C8.29715 30.9977 7.08627 22.5679 7.08627 22.5679L6.15187 22.5111C6.15187 22.5111 5.26547 30.2688 4.88979 32.8173C4.51859 35.3343 1.92627 34.2925 1.92627 34.2925L2.78771 19.4279C2.78771 19.4279 -0.332928 16.8938 0.141952 14.6829C0.559552 12.7397 1.13203 9.36136 1.13203 9.36136C1.91251 8.54785 3.23795 8.0141 4.73299 7.76711L6.76115 10.7928L8.78387 7.78682C10.2056 8.03616 11.4901 8.54919 12.3218 9.33796C12.3218 9.33796 12.8005 12.8102 13.1919 14.7437C13.5826 16.6769 10.6677 19.5017 10.6677 19.5017ZM4.01459 2.99738C4.01459 -1.22288 9.84211 -0.474883 9.39123 3.28147C8.95699 6.89578 4.01459 7.27178 4.01459 2.99738Z" fill="#96969C"/>
</svg>
