<svg width="144" height="63" viewBox="0 0 144 63" fill="none" xmlns="http://www.w3.org/2000/svg">
<g clip-path="url(#clip0)">
<path fill-rule="evenodd" clip-rule="evenodd" d="M95.2325 21.9284H91.4057V32.7294L80.5518 21.5859H80.4518V41.2911H84.2783V30.4902L95.1327 41.6335H95.2325V21.9284ZM44.5215 21.9284H60.2525V25.4585H54.2752V41.2911H50.4737V25.4585H44.5215V21.9284ZM64.0622 21.9284H75.9417V25.5902H67.8887V29.7789H74.8664V33.1772H67.8887V37.6293H76.1418V41.2911H64.0622V21.9284ZM108.821 21.5859C111.647 21.5859 113.648 22.508 115.474 24.4838L113.072 27.4079C111.897 25.959 110.497 25.2477 108.821 25.2477C107.146 25.2477 105.795 25.8536 104.769 27.0391C103.744 28.2246 103.244 29.7262 103.244 31.5965C103.244 33.4669 103.769 34.9949 104.844 36.1804C105.92 37.3659 107.32 37.9718 109.071 37.9718C110.147 37.9718 111.172 37.6556 112.122 36.997V33.8621H108.146V30.4111H115.923V38.9728C114.148 40.7378 111.848 41.6335 109.071 41.6335C106.245 41.6335 103.944 40.6852 102.118 38.7884C100.292 36.8653 99.3921 34.4681 99.3921 31.5965C99.3921 28.7251 100.268 26.3278 102.043 24.4311C103.819 22.5343 106.07 21.5859 108.821 21.5859ZM127.987 21.9284H120.784V41.2911H124.585V34.4681H127.112L130.963 41.2911H135.415L131.138 33.7831C133.214 32.8084 134.514 30.8326 134.514 28.1982C134.514 26.2751 133.889 24.7472 132.613 23.6144C131.363 22.4816 129.812 21.9284 127.987 21.9284ZM127.637 25.4058H124.585V30.9906H127.637C129.463 30.9906 130.637 29.9896 130.637 28.1982C130.637 26.4332 129.463 25.4058 127.637 25.4058ZM142.8 21.9284H138.974V41.2911H142.8V21.9284Z" fill="#7C006F"/>
<path d="M10.0656 29.6962L0.333008 38.0633L10.0656 33.2101L16.1429 30.1796V24.4717L10.0656 29.6962Z" fill="#7C006F"/>
<path d="M23.9228 31.6746L20.3756 28.5006L20.3396 28.4688L16.1426 30.6468V35.7108L20.3756 38.8611L23.9228 38.8624H31.951L23.9228 31.6746Z" fill="#00BAE8"/>
<path d="M16.1423 34.9962V30.0674L9.81836 33.1342V38.0624L16.1423 34.9962Z" fill="#9FA29F"/>
</g>
<defs>
<clipPath id="clip0">
<rect width="143" height="63" fill="white" transform="translate(0.333008)"/>
</clipPath>
</defs>
</svg>
