<svg width="143" height="63" viewBox="0 0 143 63" fill="none" xmlns="http://www.w3.org/2000/svg">
<path fill-rule="evenodd" clip-rule="evenodd" d="M8.01024 18.386L8 18.3871V16.6035H29.6043V22.5522H24.2068V45.7738H18.9609C18.9609 45.7666 18.9629 45.7603 18.9649 45.7537C18.967 45.7469 18.9691 45.7401 18.9691 45.7322C18.9691 45.3373 18.7582 45.0071 18.457 44.807V20.4311C18.7582 20.2311 18.9691 19.9008 18.9691 19.5049C18.9691 18.8861 18.4806 18.386 17.8763 18.386C17.5035 18.386 17.1901 18.5892 16.9934 18.8809H8.89412C8.69748 18.5892 8.38407 18.386 8.01024 18.386ZM62.7451 28.1748H57.3354V22.4449H62.7451V28.1748ZM65.5341 16.6035C67.14 16.6035 68.4408 17.9381 68.4408 19.5841V28.2446C68.4437 28.998 68.1524 29.7218 67.6306 30.2568C67.109 30.7917 66.3998 31.094 65.6591 31.097H65.5781C67.1716 31.1266 68.4466 32.4522 68.4408 34.0734V45.5853H62.7442V34.0151H57.3334V45.5853H51.6368V16.6035H65.5341ZM90.2632 16.6389V45.6217H95.9598V16.6389H90.2632ZM76.6107 39.7835H82.0215V34.0161H76.6107V39.7835ZM82.0215 28.1758H76.6107V22.4459H82.0215V28.1758ZM84.8125 16.6035C86.4184 16.6035 87.7201 17.9381 87.7201 19.5841V28.2446C87.7232 28.998 87.4317 29.7218 86.9101 30.2568C86.3884 30.7917 85.6792 31.094 84.9384 31.097H83.7791V31.1491H84.8135C86.4184 31.1491 87.7201 32.4847 87.7201 34.1307V42.7901C87.7232 43.5435 87.4317 44.2674 86.9101 44.8023C86.3884 45.3373 85.6792 45.6395 84.9384 45.6426H82.0226V45.6217H70.9142V16.6389H73.0209V16.6035H84.8125ZM115.239 19.5841C115.239 17.9381 113.937 16.6035 112.333 16.6035H100.54V16.64H98.4332V45.6228H104.131V22.4438H109.542V45.6676H115.239V19.5841ZM33.6437 16.6035H49.2003V22.4438H37.9136V28.2112H46.2351V34.0515H37.9136V39.7449H49.2003V45.5853H32.2171V16.6035H33.6437ZM123.713 22.4438H135V16.6035H118.016V45.5853H135V39.7449H123.713V34.0515H132.033V28.2112H123.713V22.4438Z" fill="#101113"/>
<path d="M8.91865 20.0938C8.72406 20.4064 8.39939 20.6251 8.01122 20.6251L8.00098 20.623V22.5535H15.0024V45.7741H16.7916C16.7916 45.7595 16.7845 45.748 16.7845 45.7324C16.7845 45.347 16.9852 45.024 17.274 44.8229V20.4157C17.1514 20.3308 17.0474 20.2208 16.9688 20.0928H8.91865V20.0938Z" fill="#F7941D"/>
</svg>
