<svg width="74" height="25" viewBox="0 0 74 25" fill="none" xmlns="http://www.w3.org/2000/svg">
<path fill-rule="evenodd" clip-rule="evenodd" d="M12.4707 3.05836C13.7163 3.05836 15.1999 3.18462 15.6477 3.40909C15.6477 3.74579 15.6477 4.88215 15.6477 4.99439C15.6477 6.59371 16.5575 6.81818 16.5575 6.81818C16.5575 6.81818 16.5575 7.50561 16.5575 8.29125C16.5575 9.31538 16.3336 10.0028 16.3336 10.0028C15.8717 10.115 14.738 10.4517 13.4923 11.3636C12.5826 12.0511 11.7849 13.0752 11.7849 14.0993C11.7849 14.7727 11.8968 15.2357 12.1348 15.6846C12.1348 15.6846 11.6729 15.9091 10.8751 15.9091C9.86743 15.7969 8.73376 14.9972 8.04795 13.7486C7.13822 12.1633 6.69036 10.2273 5.66864 10.2273C4.64696 10.2273 4.64696 11.2514 3.84917 11.2514C2.93944 11.2514 2.37958 9.77834 2.15565 9.09091C1.58183 8.06678 0.224239 7.73008 0.112259 6.13075H4.42299C4.42299 3.74579 4.42299 2.38496 4.42299 0C6.00455 0 6.91429 0 8.49583 0V2.60943C8.62178 2.72166 8.9577 2.83389 9.40556 2.94613L8.95769 4.99439H7.71204L7.25016 6.81818H8.49583L8.04795 9.09091C8.04795 9.42761 7.93597 10.2273 8.04795 10.564C8.27189 11.4759 8.84571 11.8126 9.62949 11.8126C10.7632 11.8126 11.7849 11.2514 11.7849 11.2514L12.2467 9.77834C12.0228 9.77834 11.6729 9.77834 11.449 9.77834C11.225 9.77834 11.0011 9.77834 11.113 9.20314L11.6729 6.81818H12.9185L13.3804 4.99439H12.1348L12.4707 3.05836Z" fill="#BE372F"/>
<path fill-rule="evenodd" clip-rule="evenodd" d="M9.97945 3.74585H11.561L10.3154 9.66617H8.73384L9.97945 3.74585Z" fill="#BE372F"/>
<path fill-rule="evenodd" clip-rule="evenodd" d="M11.1126 1.58521C11.5605 1.58521 12.0223 1.92191 12.0223 2.4971C12.0223 2.94604 11.5605 3.29677 11.1126 3.29677C10.6507 3.29677 10.2028 2.94604 10.2028 2.4971C10.2028 1.92191 10.6507 1.58521 11.1126 1.58521Z" fill="#BE372F"/>
<path fill-rule="evenodd" clip-rule="evenodd" d="M50.5814 8.86646C51.4912 8.86646 52.051 8.97869 52.1629 9.09092C52.3869 9.09092 52.2749 8.97869 52.3869 8.86646H52.5128L53.0727 10.4518L52.8488 10.564C52.5128 10.1151 51.827 9.66612 50.6934 9.66612C50.2455 9.66612 49.3358 9.77836 49.3358 10.4518C49.3358 11.8126 53.5346 11.0269 53.5346 13.7486C53.5346 14.9972 52.5128 15.9091 50.5814 15.9091C49.8956 15.9091 49.3358 15.7969 48.7619 15.5724C48.65 15.5724 48.538 15.6846 48.538 15.7969L48.314 15.9091L47.6282 13.8608L47.8522 13.7486C48.426 14.436 49.2238 14.9972 50.5814 14.9972C51.7151 14.9972 52.051 14.5483 52.051 14.0993C52.051 12.5 47.9641 13.5242 47.9641 10.7885C47.9641 9.53986 49.2238 8.86646 50.5814 8.86646Z" fill="#0F0E0C"/>
<path fill-rule="evenodd" clip-rule="evenodd" d="M26.9841 15.7969V15.5724C27.446 15.4602 27.6699 15.3479 27.6699 14.6605V10.0028C27.6699 9.31539 27.446 9.20315 26.9841 9.09092V8.86646H32.3166L32.8904 10.3395L32.6665 10.4518C32.2046 9.89059 31.7567 9.77835 30.959 9.77835C30.847 9.77835 29.7133 9.77835 29.7133 9.77835C29.2515 9.77835 29.1395 9.89059 29.1395 10.2273V11.7004H30.959C31.6448 11.7004 31.7567 11.5881 31.8687 11.2514H32.0926V13.0752H31.8687C31.7567 12.7245 31.6448 12.6122 30.959 12.6122H29.1395V14.436C29.1395 14.885 29.2515 14.885 29.7133 14.885C29.7133 14.885 31.1829 14.885 31.2949 14.885C31.9807 14.885 32.5405 14.885 33.1143 14.2116L33.2263 14.3238L32.7785 15.7969H26.9841Z" fill="#0F0E0C"/>
<path fill-rule="evenodd" clip-rule="evenodd" d="M25.2908 14.6606C25.2908 15.348 25.5147 15.4603 25.8506 15.5725V15.797H22.9114V15.5725C23.2474 15.4603 23.5833 15.348 23.5833 14.6606V8.06689C23.5833 7.73019 23.3593 7.73019 22.9114 7.73019C21.4279 7.73019 20.8681 7.73019 20.2942 8.29136H20.1822L20.7561 6.70605H28.118L28.6918 8.29136H28.4678C28.006 7.73019 27.3342 7.73019 25.8506 7.73019C25.4028 7.73019 25.2908 7.73019 25.2908 8.06689V14.6606Z" fill="#0F0E0C"/>
<path fill-rule="evenodd" clip-rule="evenodd" d="M36.1789 12.3878L34.2475 9.89059C33.9116 9.31539 33.6737 9.20315 33.2258 9.09092V8.86646H36.4029V9.09092C36.0669 9.09092 35.829 9.42762 36.1789 9.89059L37.0746 11.2514L38.2223 9.77835C38.4462 9.42763 38.4463 9.09092 37.9844 9.09092V8.86646H40.6017V9.09092C40.1398 9.20315 39.8038 9.31539 39.356 9.77835L37.7605 12.0511L39.6919 14.7727C39.9158 15.1094 40.1398 15.3479 40.1398 15.3479C40.1398 15.3479 40.4897 15.2357 40.9375 14.0993L43.0929 8.86646H44.4505L46.9558 14.7727C47.0678 15.1094 47.4036 15.4602 47.7396 15.5724V15.7969H44.8004V15.5724C45.0244 15.5724 45.4722 15.4602 45.1363 14.7727L44.8004 13.8608H41.9592L41.6233 14.7727C41.2734 15.4602 41.8472 15.5724 41.9592 15.5724V15.7969H37.5365V15.5724C37.7605 15.5724 38.3343 15.3479 37.8724 14.7727L36.7388 13.2997L35.6051 14.885C35.2692 15.3479 35.6051 15.5724 35.829 15.5724V15.7969H33.2258V15.5724C33.6737 15.4602 34.1355 15.2357 34.4714 14.6605L36.1789 12.3878ZM43.4288 10.2273L42.2952 12.963H44.4505L43.4288 10.2273Z" fill="#0F0E0C"/>
<path fill-rule="evenodd" clip-rule="evenodd" d="M0.671802 16.821C0.671802 16.1336 0.335877 16.0213 0 15.9091V15.7969H2.93914V15.9091C2.71521 16.0213 2.37928 16.1336 2.37928 16.821V23.7514C2.37928 24.4389 2.71521 24.5511 2.93914 24.6633V24.8878H0V24.6633C0.335877 24.5511 0.671802 24.4389 0.671802 23.7514V16.821Z" fill="#0F0E0C"/>
<path fill-rule="evenodd" clip-rule="evenodd" d="M10.0908 24.8877H9.86691L5.20624 20.0055V23.7513C5.20624 24.4388 5.55617 24.551 5.7801 24.6632V24.8877H3.73666V24.6632C4.07258 24.551 4.29651 24.4388 4.29651 23.7513V19.0936C4.29651 18.4062 4.07258 18.294 3.73666 18.1817V17.9573H5.66811L9.1811 21.8293V19.0936C9.1811 18.4062 8.95718 18.294 8.62126 18.1817V17.9573H10.7626V18.1817C10.4267 18.294 10.0908 18.4062 10.0908 19.0936V24.8877Z" fill="#0F0E0C"/>
<path fill-rule="evenodd" clip-rule="evenodd" d="M36.9629 22.5027C36.9629 24.551 35.1574 24.9999 34.0237 24.9999C32.7781 24.9999 30.9586 24.551 30.9586 22.615V19.0936C30.9586 18.4062 30.6227 18.1817 30.2728 18.1817V17.9573H33.114V18.1817C32.7781 18.1817 32.4282 18.4062 32.4282 19.0936V22.5027C32.4282 23.6391 33.114 24.1021 34.2476 24.1021C35.2694 24.1021 36.0671 23.6391 36.0671 22.5027V19.0936C36.0671 18.4062 35.7172 18.294 35.3813 18.1817V17.9573H37.5367V18.1817C37.2008 18.294 36.9629 18.4062 36.9629 19.0936V22.5027Z" fill="#0F0E0C"/>
<path fill-rule="evenodd" clip-rule="evenodd" d="M19.2725 19.3181C19.2725 18.8692 19.2725 18.8692 18.9367 18.8692C17.803 18.8692 17.579 18.8692 16.8933 19.6688L16.7813 19.5566L17.2291 17.9573H22.9115L23.4713 19.5566L23.2474 19.6688C22.6736 18.8692 22.4496 18.8692 21.3159 18.8692C20.9801 18.8692 20.8681 18.8692 20.8681 19.3181V23.7513C20.8681 24.4388 21.092 24.551 21.5399 24.6632V24.8877H18.7127V24.6632C19.1606 24.551 19.2725 24.4388 19.2725 23.7513V19.3181Z" fill="#0F0E0C"/>
<path fill-rule="evenodd" clip-rule="evenodd" d="M14.0655 17.845C14.8493 17.845 15.4231 18.0694 15.5351 18.0694C15.759 18.1817 15.759 17.9572 15.759 17.9572L15.983 17.845L16.4448 19.5565H16.2069C15.871 19.2058 15.3112 18.7569 14.1775 18.7569C13.6037 18.7569 12.6939 18.8691 12.6939 19.5565C12.6939 20.8051 17.0047 20.1177 17.0047 22.8394C17.0047 24.102 15.983 24.8876 14.0655 24.8876C13.2678 24.8876 12.6939 24.7754 12.1341 24.6632C12.0221 24.6632 12.0221 24.7754 11.8961 24.7754C11.8961 24.8876 11.6722 24.8876 11.6722 24.8876L11.0004 22.9656L11.2244 22.8394C11.7842 23.5268 12.582 24.102 13.9395 24.102C15.0733 24.102 15.4231 23.639 15.4231 23.1901C15.4231 21.5908 11.3363 22.6149 11.3363 19.8932C11.3363 18.6446 12.6939 17.845 14.0655 17.845Z" fill="#0F0E0C"/>
<path fill-rule="evenodd" clip-rule="evenodd" d="M46.1582 23.7513C46.1582 24.4388 46.4941 24.551 46.83 24.6632V24.8877H44.0028V24.6632C44.3387 24.551 44.6746 24.4388 44.6746 23.7513V20.4545L42.1833 24.9999H41.9594L39.4681 20.3422V23.7513C39.4681 24.4388 39.804 24.551 40.1399 24.6632V24.8877H37.9846V24.6632C38.2225 24.551 38.5584 24.4388 38.5584 23.7513V19.0936C38.5584 18.4062 38.2225 18.294 37.9846 18.1817V17.9573H40.1399L42.4073 22.5027L44.9125 17.9573H46.83V18.1817C46.4941 18.294 46.1582 18.4062 46.1582 19.0936V23.7513Z" fill="#0F0E0C"/>
<path fill-rule="evenodd" clip-rule="evenodd" d="M60.4483 24.8877H60.2243L55.5637 20.0055V23.7513C55.5637 24.4388 55.9136 24.551 56.1375 24.6632V24.8877H53.9821V24.6632C54.3181 24.551 54.668 24.4388 54.668 23.7513V19.0936C54.668 18.4062 54.43 18.294 53.9821 18.1817V17.9573H56.0255L59.5385 21.8293V19.0936C59.5385 18.4062 59.2026 18.294 58.8527 18.1817V17.9573H61.0221V18.1817C60.7842 18.294 60.4483 18.4062 60.4483 19.0936V24.8877Z" fill="#0F0E0C"/>
<path fill-rule="evenodd" clip-rule="evenodd" d="M47.6282 24.8877V24.6632C47.9642 24.551 48.2021 24.3265 48.2021 23.7513V19.0936C48.2021 18.4062 47.9642 18.294 47.6282 18.1817V17.9573H52.9607L53.4226 19.4303L53.2966 19.5566C52.8487 18.9814 52.2749 18.8692 51.6031 18.8692C51.4912 18.8692 50.2455 18.8692 50.2455 18.8692C49.8956 18.8692 49.7836 18.9814 49.7836 19.3181V20.8052H51.4912C52.163 20.8052 52.3869 20.5667 52.3869 20.3422H52.6248V22.166H52.3869C52.3869 21.8293 52.163 21.7171 51.4912 21.7171H49.7836V23.5269C49.7836 23.8776 49.8956 23.9898 50.2455 23.9898C50.2455 23.9898 51.7151 23.9898 51.827 23.9898C52.5128 23.9898 53.1846 23.9898 53.6465 23.3024L53.8704 23.4146L53.2966 24.8877H47.6282Z" fill="#0F0E0C"/>
<path fill-rule="evenodd" clip-rule="evenodd" d="M63.6261 19.3181C63.6261 18.8692 63.5142 18.8692 63.2762 18.8692C62.0306 18.8692 61.9186 18.8692 61.2468 19.6688L61.1208 19.5566L61.5827 17.9573H67.2511L67.8249 19.5566L67.601 19.6688C67.0271 18.8692 66.8032 18.8692 65.6695 18.8692C65.3196 18.8692 65.2076 18.8692 65.2076 19.3181V23.7513C65.2076 24.4388 65.4316 24.551 65.8934 24.6632V24.8877H63.0523V24.6632C63.4022 24.551 63.6261 24.4388 63.6261 23.7513V19.3181Z" fill="#0F0E0C"/>
<path fill-rule="evenodd" clip-rule="evenodd" d="M70.7632 17.845C71.561 17.845 72.1348 18.0694 72.3588 18.0694C72.4707 18.1817 72.4707 17.9572 72.4707 17.9572C72.5827 17.9572 72.6947 17.845 72.6947 17.845L73.1425 19.5565H73.0306C72.6947 19.2058 72.0089 18.7569 70.8892 18.7569C70.3153 18.7569 69.5176 18.8691 69.5176 19.5565C69.5176 20.8051 73.7163 20.1177 73.7163 22.8394C73.7163 24.102 72.6947 24.8876 70.7632 24.8876C69.9795 24.8876 69.4056 24.7754 68.8458 24.6632C68.7338 24.6632 68.7338 24.7754 68.7338 24.7754C68.6079 24.8876 68.4959 24.8876 68.4959 24.8876L67.7121 22.9656L67.936 22.8394C68.4959 23.5268 69.4056 24.102 70.6513 24.102C71.7849 24.102 72.1348 23.639 72.1348 23.1901C72.1348 21.5908 68.048 22.6149 68.048 19.8932C68.048 18.6446 69.4056 17.845 70.7632 17.845Z" fill="#0F0E0C"/>
<path fill-rule="evenodd" clip-rule="evenodd" d="M27.2078 17.9573C28.6914 17.9573 29.8251 18.5325 29.8251 19.7811C29.8251 21.1419 28.5794 21.3664 27.8936 21.4786C29.7131 22.166 29.8251 24.551 30.9587 24.551V24.6632C30.7348 24.7755 30.5108 24.8877 29.937 24.8877C27.4458 24.8877 28.0056 21.8293 26.424 21.8293H25.6263V23.7513C25.6263 24.4388 25.8502 24.551 26.2001 24.6632V24.8877H23.4709V24.6632C23.8068 24.551 24.0447 24.4388 24.0447 23.7513V19.0936C24.0447 18.4062 23.8068 18.294 23.4709 18.1817V17.9573H27.2078ZM25.6263 21.0297H26.536C27.3338 21.0297 28.2296 20.693 28.2296 19.8933C28.2296 19.4303 27.8936 18.7569 26.8719 18.7569H26.0882C25.7382 18.7569 25.6263 18.8692 25.6263 19.3181V21.0297Z" fill="#0F0E0C"/>
</svg>
