<svg width="144" height="64" viewBox="0 0 144 64" fill="none" xmlns="http://www.w3.org/2000/svg">
<g clip-path="url(#clip0)">
<path d="M128.33 38.338L130.897 32.0038L133.432 38.338H128.33ZM118.257 47.2011H124.854L126.478 43.1708H135.284L136.909 47.2011H143.667L133.984 24.6437H127.908L118.257 47.2011ZM105.846 47.6494C110.849 47.6494 113.742 45.505 115.885 42.5948L111.142 39.2666C109.777 40.8987 108.381 41.9868 106.008 41.9868C102.824 41.9868 100.582 39.3623 100.582 36.0037V35.9384C100.582 32.6755 102.824 29.9871 106.008 29.9871C108.185 29.9871 109.68 31.0432 110.979 32.6116L115.723 28.9961C113.709 26.2759 110.72 24.3564 106.068 24.3564C99.1798 24.3564 94.1116 29.4764 94.1116 36.0037V36.0675C94.1116 42.7544 99.3432 47.6494 105.841 47.6494H105.846ZM80.9843 47.2011H87.2883V24.8048H80.989L80.9843 47.2011ZM61.2001 35.9384V30.0205H64.1896C66.4317 30.0205 67.8292 31.0128 67.8292 32.9323V32.9976C67.8292 34.756 66.4317 35.9398 64.2235 35.9398L61.2001 35.9384ZM54.8976 47.2011H61.2001V40.8106H64.3529C69.9742 40.8106 74.1009 38.0265 74.1009 32.715V32.6512C74.1009 27.7241 70.4026 24.8124 64.678 24.8124H54.8976V47.2011ZM36.1812 42.0507C32.7049 42.0507 30.3334 39.2346 30.3334 36.0037V35.9384C30.3334 32.7073 32.6447 29.9551 36.1166 29.9551C39.5884 29.9551 41.9321 32.7393 41.9321 36.0037V36.0675C41.9321 39.2984 39.6207 42.0507 36.1812 42.0507ZM36.1166 47.6494C43.1355 47.6494 48.3994 42.4337 48.3994 36.0037V35.9384C48.3994 29.5084 43.2003 24.3564 36.1812 24.3564C29.1622 24.3564 23.8984 29.5721 23.8984 36.0037V36.0675C23.8984 42.499 29.0976 47.6494 36.1166 47.6494Z" fill="#101113"/>
<path d="M0.666992 24.8047V30.2438H7.45796V47.2025H13.762V30.2438H20.5853V24.8047H0.666992Z" fill="#FEDA6A"/>
<path d="M20.6191 21.6228C21.651 21.621 22.6591 21.3176 23.5161 20.7509C24.3732 20.1842 25.0407 19.3796 25.4344 18.4389C25.8279 17.4982 25.93 16.4636 25.7277 15.4657C25.5251 14.4678 25.0274 13.5515 24.297 12.8325C23.5668 12.1136 22.6368 11.6242 21.6247 11.4264C20.6124 11.2285 19.5635 11.331 18.6104 11.7208C17.6573 12.1107 16.8427 12.7704 16.2696 13.6167C15.6965 14.463 15.3906 15.4578 15.3906 16.4755C15.3912 17.152 15.5269 17.8218 15.79 18.4467C16.0531 19.0715 16.4384 19.6391 16.9239 20.1171C17.4094 20.595 17.9857 20.974 18.6196 21.2324C19.2537 21.4907 19.9331 21.6234 20.6191 21.6228Z" fill="#FEDA6A"/>
</g>
<defs>
<clipPath id="clip0">
<rect width="143" height="63" fill="white" transform="translate(0.666992 0.5)"/>
</clipPath>
</defs>
</svg>
