<svg width="20" height="20" viewBox="0 0 20 20" fill="none" xmlns="http://www.w3.org/2000/svg">
<path d="M11.3306 0H0V1.81543C0.843897 1.93646 2.80315 2.37216 3.8654 3.14675C4.92765 3.92133 6.62724 4.33888 7.34721 4.44781V6.38427C6.50332 6.24508 4.51455 5.70651 3.51132 4.90166C2.50808 4.09682 0.973727 3.94554 0 3.69138V6.68684C0.843897 6.80787 2.80315 7.24357 3.8654 8.01815C4.92765 8.79274 6.62724 9.21029 7.34721 9.31921V11.2557C6.50332 11.1165 4.51455 10.5779 3.51132 9.77307C2.50808 8.96823 0.973727 8.81694 0 8.56278V11.5582C0.843897 11.6793 2.80315 12.115 3.8654 12.8896C4.92765 13.6641 6.62724 14.0817 7.34721 14.1906V16.1271C6.50332 15.9879 4.51455 15.4493 3.51132 14.6445C2.50808 13.8396 0.973727 13.6884 0 13.4342V20H11.3306C22.25 16.9743 21.25 2.5 11.3306 0ZM9.94382 16.9743C9.04681 16.9743 8.32094 16.23 8.32094 15.3101C8.32094 14.3903 9.04681 13.646 9.94382 13.646C10.8408 13.646 11.5667 14.3903 11.5667 15.3101C11.5667 16.23 10.8408 16.9743 9.94382 16.9743ZM9.94382 12.0121C9.04681 12.0121 8.32094 11.2678 8.32094 10.348C8.32094 9.42814 9.04681 8.68381 9.94382 8.68381C10.8408 8.68381 11.5667 9.42814 11.5667 10.348C11.5667 11.2678 10.8408 12.0121 9.94382 12.0121ZM9.94382 7.04992C9.04681 7.04992 8.32094 6.3056 8.32094 5.38578C8.32094 4.46596 9.04681 3.72163 9.94382 3.72163C10.8408 3.72163 11.5667 4.46596 11.5667 5.38578C11.5667 6.3056 10.8408 7.04992 9.94382 7.04992Z" fill="#D51C29"/>
</svg>
