<svg width="26" height="26" viewBox="0 0 26 26" fill="none" xmlns="http://www.w3.org/2000/svg">
<path d="M25.8624 9.15306C25.8506 9.05787 25.8351 8.96318 25.8158 8.86922C25.7986 8.77141 25.7766 8.67451 25.7497 8.57889L25.6772 8.46297C25.3843 8.23868 25.0675 8.04756 24.7325 7.89314C24.465 7.76705 24.1921 7.65282 23.9146 7.5508C23.1443 5.39497 21.8194 3.48505 20.0785 2.15364C18.2791 0.777805 16.1622 0.0498047 13.9577 0.0498047C11.7531 0.0498047 9.63517 0.777805 7.83683 2.15364C6.09375 3.48505 4.76992 5.39605 3.99967 7.5508C3.72215 7.6529 3.44925 7.76712 3.18175 7.89314C2.85458 8.05022 2.53392 8.22897 2.23708 8.46297L2.1645 8.57889C2.11287 8.7673 2.07486 8.95919 2.05075 9.15306C2.02475 9.34155 2.00633 9.53114 1.99658 9.72072C1.95827 10.4839 2.04016 11.2483 2.23925 11.986C2.29233 12.1723 2.353 12.3543 2.42233 12.5352C2.457 12.6251 2.49492 12.7161 2.53717 12.8061L2.60433 12.9393C2.65633 13.0314 2.66608 13.0487 2.68775 13.0812L2.78525 13.1722L2.95858 13.2578L3.12758 13.3336L3.21967 13.3726C2.33243 14.1957 1.55538 15.1301 0.907833 16.1525L0 17.5966L1.274 16.4688C1.29567 16.4493 2.36492 15.5176 4.147 14.4614L4.17192 14.6672C4.05492 14.729 3.49483 15.0247 3.328 15.1656C3.05175 15.3963 3.03875 15.7549 3.11242 16.4244C3.15033 16.7667 3.27817 17.4319 3.45042 18.0429C3.74617 19.0937 3.96392 19.2779 4.15458 19.3212C4.24125 19.3429 4.35175 19.3526 4.47633 19.3526C4.81758 19.3526 5.25525 19.2855 5.54017 19.1988C5.85856 20.2053 6.32597 21.1584 6.92683 22.0263C6.89867 22.0328 6.87158 22.0426 6.84342 22.0501C6.49675 21.8876 5.28017 21.32 4.87175 21.1347L4.01808 20.748L4.52292 21.5421C4.55975 21.5995 5.43183 22.9688 6.1425 23.8929C6.80875 24.7531 7.71983 25.6349 9.43908 25.6349C9.646 25.6349 9.86267 25.6208 10.0858 25.5959C10.5982 25.5363 10.9839 25.4897 11.2775 25.4518C13.1095 26.1429 15.1313 26.1391 16.9607 25.441C17.4556 25.2511 17.9312 25.0142 18.3809 24.7336C19.1089 24.557 19.9062 24.3652 20.2984 24.2547C20.3623 24.2374 20.4414 24.219 20.5237 24.1984C21.0719 24.0716 21.9884 23.8571 22.477 22.8724C22.9688 21.879 23.7716 20.3558 23.7802 20.3406L24.1562 19.63L23.4238 19.9506C23.3848 19.968 22.4586 20.3753 21.9765 20.6299C22.3112 19.8531 22.5084 19.2107 22.5767 18.9637C22.8475 19.0287 23.2462 19.0211 23.5408 19.0211C23.6849 19.0211 23.8333 18.9951 23.9308 18.9702C24.1215 18.9215 24.2688 18.7936 24.5462 17.7103C24.7087 17.0798 24.8235 16.3941 24.856 16.042C24.9167 15.3562 24.8972 14.9879 24.6198 14.7561C24.4812 14.6412 24.0749 14.4202 23.868 14.3119C23.9839 14.2621 24.0413 14.2772 24.0446 14.2783L24.232 13.5611C24.2981 13.533 24.3685 13.5037 24.4476 13.4734C24.5613 13.4279 24.6751 13.3824 24.7877 13.3326L24.9546 13.2567C25.0131 13.2296 25.0651 13.2047 25.129 13.1722L25.2265 13.0812C25.2812 12.9922 25.3311 12.9004 25.376 12.8061C25.4193 12.7151 25.4562 12.6251 25.4919 12.5352C25.5612 12.3554 25.6219 12.1723 25.6739 11.9871C25.9223 11.0639 25.9864 10.1009 25.8624 9.15306Z" fill="#0E0F0D"/>
<path d="M15.1395 23.9146C15.0008 23.9363 14.8632 23.9526 14.7267 23.9634C14.6379 23.9688 14.5447 23.9775 14.4592 23.9775H14.4277C14.535 23.7391 14.6152 23.5517 14.6769 23.4109C14.8015 23.5517 14.9607 23.7261 15.1395 23.9146Z" fill="#E1C5A2"/>
<path d="M14.9713 13.2059C14.7546 13.3814 14.5271 13.5461 14.2909 13.6912L13.5001 14.1712C13.005 14.2318 12.5749 14.3553 12.55 14.3629C12.5211 14.3717 12.4949 14.3875 12.4735 14.4088C12.4522 14.4302 12.4364 14.4565 12.4276 14.4853L11.6227 17.1579L7.32185 18.1221L5.96552 17.1655L5.57227 13.948C6.34143 13.805 7.3706 13.6403 8.6056 13.5006C8.47127 13.6631 8.34343 13.831 8.22318 14.0043L7.4876 15.0682L8.5601 14.3488C8.57527 14.338 9.25777 13.8852 10.3736 13.3348C11.9032 13.2191 13.4375 13.1757 14.9713 13.2048V13.2059ZM8.27627 16.8307C8.58177 16.6639 8.92627 16.6888 9.46793 16.6899C9.52427 16.691 9.58493 16.6899 9.64668 16.6888L9.80918 16.6867C10.3671 16.6802 10.8297 16.7333 10.8221 15.8525C10.8134 14.9718 10.4245 14.26 9.86877 14.2643C9.31193 14.2697 8.77243 14.9912 8.80602 15.872C8.81468 16.1017 8.84935 16.2674 8.90243 16.3866C8.4171 16.509 8.28277 16.8123 8.27518 16.8307H8.27627ZM22.4278 13.9372L22.04 16.6737L20.6739 17.6378L16.3774 17.1449L15.5758 14.4853C15.5672 14.4563 15.5515 14.4299 15.5302 14.4085C15.5088 14.3871 15.4824 14.3715 15.4534 14.3629C15.0861 14.2601 14.7106 14.1897 14.331 14.1527L14.4339 14.1462C14.5228 14.1387 16.0048 13.9567 17.7749 13.3413C19.3352 13.4594 20.8882 13.6583 22.4278 13.9372ZM19.6827 16.47C19.6773 16.4483 19.5592 16.0941 19.0424 16.1558C19.1009 16.0258 19.1291 15.8492 19.1096 15.6066C19.0413 14.7269 18.5333 14.0282 17.9764 14.0477C17.4207 14.0672 17.0643 14.7952 17.0946 15.6781C17.126 16.5588 17.5929 16.5523 18.1487 16.5328C18.8962 16.5177 19.3078 16.2869 19.6827 16.47Z" fill="#A89983"/>
<path d="M18.2131 14.886C18.2138 14.9234 18.2071 14.9605 18.1935 14.9953C18.1799 15.03 18.1595 15.0618 18.1336 15.0887C18.1077 15.1156 18.0768 15.1371 18.0425 15.1521C18.0083 15.167 17.9715 15.1751 17.9341 15.1758C17.8968 15.1765 17.8597 15.1699 17.8249 15.1562C17.7901 15.1426 17.7584 15.1223 17.7315 15.0963C17.7045 15.0704 17.683 15.0395 17.6681 15.0053C17.6531 14.971 17.645 14.9342 17.6443 14.8969C17.6429 14.8211 17.6714 14.7478 17.7238 14.693C17.7762 14.6382 17.8481 14.6063 17.9238 14.6044C17.9615 14.6033 17.9989 14.6099 18.034 14.6236C18.069 14.6373 18.101 14.6579 18.1279 14.6841C18.1549 14.7104 18.1763 14.7418 18.1909 14.7764C18.2056 14.8111 18.2131 14.8484 18.2131 14.886ZM10.2398 15.0973C10.241 15.1535 10.2257 15.2089 10.1956 15.2565C10.1656 15.304 10.1221 15.3417 10.0708 15.3647C10.0195 15.3877 9.96246 15.3951 9.90696 15.3858C9.85145 15.3766 9.7999 15.3512 9.75875 15.3129C9.71821 15.2736 9.69006 15.2234 9.67779 15.1684C9.66553 15.1133 9.66969 15.0559 9.68976 15.0032C9.70983 14.9504 9.74492 14.9048 9.79069 14.8718C9.83646 14.8389 9.8909 14.8201 9.94725 14.8178C9.98481 14.8169 10.0222 14.8234 10.0572 14.837C10.0922 14.8506 10.1242 14.871 10.1514 14.8969C10.1786 14.9229 10.2004 14.9539 10.2155 14.9883C10.2307 15.0227 10.2389 15.0597 10.2398 15.0973Z" fill="white"/>
<path d="M24.3032 15.1406C24.1395 15.0288 23.9691 14.9271 23.7929 14.8362L23.4332 17.3798C23.4294 17.4043 23.4206 17.4277 23.4076 17.4487C23.3946 17.4697 23.3775 17.4879 23.3574 17.5023L22.8417 17.8663L22.8114 18.0266C23.3173 18.1523 23.8081 17.7839 24.0854 17.5185C24.2132 17.018 24.3237 16.4222 24.3627 15.9964C24.4212 15.3367 24.3692 15.1948 24.3032 15.1406ZM16.3461 24.8039C16.0046 24.6798 15.6949 24.4815 15.4393 24.2233L15.3732 24.1561C15.1647 24.1988 14.9538 24.2292 14.7417 24.2471C14.6507 24.2514 14.564 24.259 14.4697 24.259L14.33 24.2601H14.2758C13.9562 24.7368 13.42 25 12.9986 25.1398C14.2487 25.3564 15.6246 25.026 16.3461 24.8039ZM5.3394 18.5748L5.30691 18.4599L4.63741 17.9876C4.6167 17.9728 4.59928 17.954 4.58623 17.9322C4.57317 17.9103 4.56478 17.8861 4.56157 17.8608L4.23549 15.1883C3.99391 15.3183 3.71549 15.4786 3.63965 15.5414C3.57574 15.5956 3.52699 15.7321 3.59632 16.368C3.6494 16.8468 3.81624 17.5813 3.98632 18.1338C4.32541 18.3938 4.82482 18.6701 5.34049 18.5737L5.3394 18.5748ZM15.3462 18.4513C15.3112 18.447 15.2782 18.4327 15.2512 18.41C15.2243 18.3873 15.2046 18.3572 15.1945 18.3234L14.3679 15.5804C14.247 15.5629 14.125 15.5532 14.0028 15.5512C13.8988 15.5512 13.7753 15.562 13.6377 15.5804L12.835 18.2443C12.8256 18.2749 12.8084 18.3023 12.785 18.324C12.7616 18.3457 12.7329 18.3608 12.7017 18.3678L12.3182 18.4545C12.2857 18.591 12.1752 18.7914 11.8188 18.9019C11.2447 19.0785 7.6079 20.1705 7.19299 20.1109C6.95141 20.0773 6.48991 19.8206 6.14974 19.6137C6.48468 20.4137 6.90608 21.1748 7.4064 21.8833C8.43991 21.5767 9.33257 21.2896 9.61857 21.1986C10.1992 20.2951 11.0269 19.3992 11.6162 19.3678C11.9934 19.3483 12.3716 19.3628 12.7462 19.4111C12.5295 19.2128 12.4851 18.981 12.4537 18.877C12.4537 18.877 13.2044 19.4696 14.1599 19.345C15.1176 19.2215 15.7112 18.6658 15.7112 18.6658L15.7297 18.4957L15.3462 18.4523" fill="#E1C5A2"/>
<path d="M16.123 18.8C15.9705 18.7673 15.8309 18.6909 15.7211 18.5801L15.7103 18.6667C15.7103 18.6667 15.7081 19.0719 15.291 19.3861C16.0927 19.1412 16.4242 19.0578 16.6517 19.0578C16.9008 19.0578 17.0243 19.1629 17.1327 19.2561C17.1543 19.2723 17.1738 19.2907 17.1977 19.3102C17.7242 19.7273 18.2485 20.1466 18.7728 20.5669C19.0231 20.5962 19.8193 20.6882 20.3209 20.7348C20.6091 20.7619 20.8713 20.7836 21.1269 20.7836C21.2093 20.7836 21.2862 20.7803 21.3598 20.776C21.6242 20.2657 21.8679 19.7013 22.0835 19.0784C21.7878 19.2886 21.1128 19.7468 20.7954 19.8064C20.3838 19.8833 16.7037 18.9506 16.123 18.7989" fill="#E1C5A2"/>
<path d="M25.3854 9.20625C25.3729 9.05613 25.3548 8.90653 25.3312 8.75775C25.09 8.55824 24.8315 8.3806 24.5588 8.22692C24.2579 8.0512 23.948 7.89137 23.6304 7.74808C23.3125 7.59892 22.9902 7.45911 22.6641 7.32883C22.5016 7.26167 22.3369 7.19775 22.1712 7.136C22.0065 7.071 21.8407 7.01033 21.675 6.94967C22.0238 7.00817 22.3694 7.08833 22.7139 7.17717C22.9371 7.23458 23.1592 7.30067 23.3802 7.37C21.8093 3.23383 18.0556 0.541748 13.9573 0.541748C9.85799 0.541748 6.10424 3.23383 4.53449 7.37C4.75549 7.30067 4.97866 7.23458 5.20074 7.17717C5.54416 7.08833 5.89082 7.00817 6.24074 6.94967C6.07282 7.01033 5.90707 7.071 5.74241 7.136C5.57666 7.19775 5.41307 7.26167 5.24949 7.32883C4.92449 7.461 4.59949 7.5975 4.28207 7.74808C3.96466 7.89325 3.65374 8.05033 3.35474 8.22692C3.08247 8.38075 2.82435 8.55839 2.58341 8.75775C2.55898 8.90645 2.54054 9.05607 2.52816 9.20625C2.46116 10.0905 2.54542 10.9796 2.77732 11.8355C2.85234 12.128 2.95763 12.412 3.09149 12.6827L3.11316 12.726L3.19116 12.765L3.34716 12.8408L3.65482 12.9838L3.66999 12.9687L3.38074 11.8561C3.89691 11.7252 4.41718 11.611 4.94074 11.5138C4.64457 11.4579 4.35464 11.373 4.07516 11.2603C3.97278 11.2172 3.87295 11.1684 3.77616 11.114C3.67806 11.0611 3.58916 10.9927 3.51291 10.9114C4.55399 11.2548 6.70657 11.0999 8.61974 10.9006C10.3692 10.7105 12.1272 10.6092 13.8869 10.5972C15.6463 10.6092 17.4039 10.7105 19.153 10.9006C21.0672 11.0999 23.2198 11.2548 24.2609 10.9114C24.1851 10.9927 24.0965 11.0611 23.9987 11.114C23.9012 11.1682 23.8005 11.2169 23.6987 11.2603C23.4928 11.3437 23.2794 11.4097 23.0638 11.465L22.9663 11.4867C24.0063 11.6806 24.613 11.8387 24.6758 11.855L24.3996 12.9156C24.4559 12.8907 24.5122 12.8658 24.5664 12.8398L24.7224 12.765L24.8015 12.726L24.8232 12.6827C24.8798 12.5686 24.9308 12.4518 24.9759 12.3327C25.0366 12.1702 25.0907 12.0034 25.1373 11.8355C25.2316 11.4975 25.2955 11.1487 25.3432 10.7955C25.4121 10.2686 25.4267 9.73608 25.3865 9.20625" fill="#E0D896"/>
<path d="M18.2698 7.14997C18.2861 7.6223 18.2752 8.48139 18.0564 9.28414C18.0482 9.31429 18.0482 9.34607 18.0564 9.37622C17.7779 9.34716 17.4991 9.32152 17.2201 9.2993C17.5331 8.63847 17.6014 7.93539 17.6166 7.6873C17.856 7.51614 18.0954 7.30922 18.2698 7.14889V7.14997ZM10.3008 7.6873C10.3149 7.93647 10.3831 8.63739 10.6951 9.29714C10.4167 9.3188 10.1383 9.3448 9.86098 9.37514C9.86888 9.34532 9.86888 9.31395 9.86098 9.28414C9.64214 8.48247 9.63023 7.62339 9.64539 7.14997C9.82089 7.30922 10.0592 7.51614 10.3008 7.6873ZM21.6921 10.0316C21.6905 10.0397 21.6883 10.0477 21.6856 10.0555L21.7766 10.0836C22.0344 10.1681 22.2922 10.257 22.5381 10.3718C22.1265 10.1031 21.8665 9.32639 21.7213 8.73272C21.7614 9.50947 21.6953 10.0024 21.6921 10.0327V10.0316ZM9.30306 6.9983L6.64348 7.76097C6.53198 8.46005 6.50326 9.16983 6.55789 9.87564L6.57198 9.86805C6.57198 9.86805 6.65864 8.73272 6.83523 8.29722C6.92623 8.07297 7.48306 7.92889 7.90773 7.82814C8.33239 7.7263 9.01056 7.52155 9.14273 8.12389C9.22289 8.49547 9.33556 8.80422 9.44281 9.0328C9.31348 8.36286 9.26618 7.67967 9.30198 6.9983H9.30306ZM18.6132 6.9983C18.652 7.7126 18.5977 8.42891 18.4518 9.12922C18.5731 8.8963 18.7064 8.55072 18.8006 8.12389C18.9317 7.52155 19.6099 7.7263 20.0356 7.82814C20.4603 7.92997 21.0161 8.07297 21.1081 8.29614C21.2576 8.66447 21.3421 9.53547 21.3638 9.7933C21.3898 9.46072 21.418 8.71322 21.2728 7.76097L18.6121 6.9983H18.6132ZM10.2781 7.23122C10.3723 7.30705 10.4687 7.37855 10.5673 7.4468C10.6139 7.4793 10.6431 7.53239 10.6431 7.5898C10.6431 7.59847 10.6648 8.48139 11.0516 9.23322C11.057 9.24405 11.0613 9.25705 11.0646 9.26897C12.0276 9.20289 12.9929 9.1758 13.9571 9.17472C14.9212 9.1758 15.8854 9.20397 16.8496 9.27114C16.8528 9.25814 16.8561 9.24514 16.8626 9.23322C17.2493 8.48139 17.271 7.59739 17.271 7.5898C17.2715 7.56168 17.2786 7.53408 17.2918 7.50923C17.305 7.48438 17.3238 7.46299 17.3468 7.4468C17.4421 7.3818 17.5353 7.31139 17.6252 7.23772L17.6371 7.20414C17.8386 5.22814 17.4692 3.40814 17.2352 2.50897C17.2222 3.1243 17.0781 8.39364 15.7803 8.39364H12.1999C10.8219 8.39364 10.7114 2.45264 10.7114 2.45264L10.6399 2.6628C10.4048 3.61072 10.0831 5.35164 10.2781 7.23122ZM6.22964 10.0555C6.22964 10.0479 6.22639 10.0403 6.22531 10.0316C6.17692 9.60005 6.16641 9.16506 6.19389 8.73164C6.04873 9.3253 5.78764 10.1031 5.37598 10.3729C5.62189 10.257 5.88081 10.1681 6.13864 10.0826L6.22964 10.0555Z" fill="#D7C184"/>
<path d="M22.8114 18.0266C22.7897 18.1436 22.7637 18.2596 22.7356 18.3755C23.0302 18.4448 23.5134 18.499 23.7442 18.4535C23.8427 18.3451 23.9717 17.9692 24.0854 17.5186C23.8092 17.784 23.3173 18.1523 22.8114 18.0266ZM12.2272 25.3121C12.9213 25.5087 13.6435 25.5871 14.3636 25.5439C15.263 25.4825 16.1469 25.2781 16.982 24.9383C16.7649 24.9224 16.551 24.8773 16.3461 24.804C15.6246 25.0261 14.2487 25.3565 12.9986 25.1398C12.7983 25.2074 12.5924 25.2567 12.3832 25.2871C12.3313 25.2934 12.2796 25.3018 12.2283 25.3121H12.2272ZM5.38708 18.7341L5.34049 18.5748C4.82483 18.6712 4.32541 18.395 3.98633 18.1339C4.09683 18.4881 4.20733 18.7655 4.28966 18.85C4.54533 18.8955 5.10974 18.8164 5.38708 18.7341ZM6.14974 19.6148C6.48991 19.8217 6.95141 20.0785 7.19299 20.1131C7.60791 20.1716 11.2447 19.0796 11.8188 18.9031C12.1742 18.7926 12.2847 18.5921 12.3172 18.4556L7.07166 19.6332C7.0588 19.6357 7.04576 19.6372 7.03266 19.6376H7.03049C6.99368 19.6374 6.95778 19.6261 6.92758 19.6051L6.72283 19.461L6.10966 19.0276L5.86266 18.8532L5.87674 18.8955L5.92008 19.0179V19.019C5.93633 19.071 6.01216 19.2909 6.14758 19.6148H6.14974ZM22.2416 18.5997C22.2741 18.4741 22.3077 18.3484 22.338 18.2206L22.156 18.3495L21.6652 18.6961L21.1344 19.0699C21.0987 19.0949 21.0554 19.1064 21.012 19.1024L15.7286 18.4957L15.7199 18.5791C15.8292 18.6902 15.9685 18.767 16.1207 18.8001C16.7025 18.9518 20.3837 19.8835 20.7942 19.8055C21.1117 19.747 21.7866 19.2887 22.0834 19.0796L22.0899 19.058C22.143 18.9063 22.1928 18.7525 22.2416 18.5986" fill="#9F8F78"/>
<path d="M16.6534 11.4258L16.518 11.6013C16.2062 11.9987 15.8686 12.375 15.5072 12.7279C14.2134 12.6862 12.9185 12.6981 11.6257 12.7637C12.8404 12.2494 14.1053 11.8628 15.4 11.6099C15.8149 11.5298 16.2342 11.4691 16.6534 11.4258ZM10.3484 11.9111C9.90624 12.2228 9.49128 12.5715 9.10799 12.9533C8.17199 13.0475 7.24032 13.1699 6.31299 13.3194C7.50466 12.7669 8.86749 12.2578 10.3484 11.9111ZM23.5261 14.1558L23.0873 17.2487L20.9857 18.7329L15.504 18.1045L14.6796 15.3659C14.6699 15.3334 14.6512 15.3042 14.6257 15.2818C14.6002 15.2594 14.569 15.2446 14.5355 15.2391C14.3597 15.2089 14.1819 15.1926 14.0036 15.1904C13.853 15.1904 13.6742 15.2066 13.4695 15.2391C13.4363 15.2451 13.4055 15.2601 13.3803 15.2825C13.3551 15.3048 13.3365 15.3337 13.3265 15.3659L12.5216 18.0384L7.07132 19.2604L4.91116 17.7362L4.48541 14.2641L4.76708 14.107C4.90141 14.0778 5.05199 14.0464 5.21774 14.0149L5.61857 17.2909C5.62153 17.3161 5.62983 17.3403 5.64291 17.362C5.65599 17.3837 5.67355 17.4023 5.69441 17.4166L7.18182 18.4653C7.2023 18.4794 7.22545 18.4892 7.24986 18.4941C7.27427 18.4989 7.29942 18.4987 7.32374 18.4934L11.8055 17.4892C11.8365 17.4819 11.8651 17.4666 11.8883 17.4447C11.9116 17.4228 11.9286 17.3952 11.9377 17.3646L12.7447 14.6866C12.9614 14.6303 13.5161 14.5003 14.0036 14.5003C14.49 14.5003 15.0436 14.6303 15.2602 14.6866L16.0684 17.3646C16.089 17.4339 16.1486 17.4838 16.2201 17.4924L20.7018 18.0059C20.7452 18.0103 20.7885 17.9984 20.8253 17.9734L22.3117 16.9259C22.3317 16.9113 22.3486 16.8929 22.3615 16.8716C22.3743 16.8504 22.3828 16.8269 22.3864 16.8024L22.7829 14.003C23.0808 14.0604 23.33 14.1135 23.5261 14.1558ZM24.0797 12.2166L23.694 13.691C22.0834 13.3447 20.4537 13.0936 18.8136 12.9392C19.6149 12.602 20.3767 12.1776 21.0853 11.6739C22.4893 11.8732 23.5196 12.0877 24.0797 12.2155V12.2166ZM3.97949 12.2155L4.08674 12.6239C4.34783 12.4138 4.61758 12.2144 4.89383 12.0238C4.51466 12.0974 4.20699 12.1646 3.97949 12.2155Z" fill="#6E6A67"/>
<path d="M19.1125 11.3936C18.5221 11.36 17.9317 11.3307 17.3401 11.3069C17.2741 11.4049 17.2062 11.5017 17.1365 11.5972C16.8201 12.0295 16.1961 12.816 15.3956 13.492C15.9979 13.2991 18.3856 12.4921 19.5956 11.4228C19.4353 11.412 19.2739 11.4033 19.1125 11.3936ZM14.7846 11.2365H14.7867C14.487 11.2322 14.1873 11.2293 13.8876 11.2278C13.4466 11.2278 13.0079 11.2343 12.5659 11.2419L11.7534 11.6297C11.1406 12.1465 10.4966 12.6252 9.82507 13.063C10.3754 12.6914 11.8401 11.8106 14.1183 11.23C14.3404 11.2311 14.5625 11.2321 14.7846 11.2365ZM9.79148 11.3351C9.41557 11.3524 9.03857 11.3719 8.66265 11.3936C8.22715 11.4185 7.79273 11.4477 7.35831 11.4802C7.08053 11.5016 6.80315 11.528 6.52632 11.5593C5.95865 11.9016 3.78765 13.2753 2.2959 15.0726L2.3739 14.9805C5.1364 12.6058 8.16432 11.6806 9.79148 11.3351ZM22.2856 21.1013L22.2357 21.1273C21.9595 21.2736 21.5966 21.3451 21.1275 21.3451C20.848 21.3451 20.575 21.3223 20.2717 21.2941C19.7232 21.2401 19.1754 21.1802 18.6282 21.1143L18.5502 21.1067L18.4885 21.0558C18.4787 21.0493 17.5806 20.3278 16.8548 19.7526L16.7736 19.6854C16.6977 19.6204 16.6977 19.6204 16.6511 19.6204C16.4182 19.6204 15.7411 19.8316 14.2581 20.2942L14.1671 20.3246L14.0771 20.2899C14.0663 20.2866 13.0946 19.9237 11.9278 19.9237C11.8325 19.9237 11.7371 19.9259 11.6451 19.9302C11.5281 19.9367 10.8726 20.2498 10.0341 21.5866L9.97998 21.6733L9.88357 21.7036C9.86948 21.708 8.42757 22.1781 6.89682 22.6191L6.79823 22.6472L6.70398 22.6039C6.69315 22.5996 6.09623 22.319 5.5264 22.0568L5.65315 22.1153C6.2154 22.6039 7.29223 23.5453 7.4114 23.6753C7.42765 23.6937 7.45148 23.7165 7.47857 23.7425L7.39732 23.645C7.64432 23.8811 7.92165 24.087 8.2239 24.23C8.37557 24.3026 8.53265 24.3578 8.69407 24.3849C8.77531 24.3979 8.85332 24.4044 8.93565 24.4044C9.01907 24.4044 9.10357 24.4022 9.18915 24.3979C9.86725 24.358 10.5439 24.2969 11.2182 24.2148C11.5551 24.178 11.8931 24.1357 12.2279 24.0837C12.3943 24.0602 12.5598 24.0306 12.7241 23.9949C12.8042 23.9754 12.8876 23.9548 12.9516 23.9256C13.0196 23.8876 13.0828 23.8418 13.1401 23.7891C13.2657 23.6796 13.3881 23.5583 13.5084 23.4381C13.6286 23.3156 13.7467 23.1921 13.8637 23.0665C14.062 22.8574 14.2321 22.6353 14.4238 22.4197L14.4996 22.3374L14.5018 22.3406C14.5419 22.3688 14.582 22.3991 14.621 22.4295C14.8517 22.6028 15.0901 22.7913 15.3197 22.9527C15.6166 23.1629 15.9156 23.3731 16.2265 23.5486C16.309 23.5959 16.3961 23.6347 16.4865 23.6645C16.4959 23.668 16.5057 23.6702 16.5157 23.671L16.5699 23.6764C16.6121 23.6764 16.6555 23.6742 16.6988 23.6721C16.8766 23.658 17.0537 23.6363 17.2296 23.6071C17.5839 23.5507 17.9403 23.4868 18.2935 23.4153C18.6488 23.346 19.0031 23.2734 19.3551 23.1943C19.7083 23.1185 20.0593 23.0361 20.4103 22.9473C20.5837 22.8996 20.7581 22.8563 20.913 22.7816C21.0711 22.7057 21.2185 22.605 21.3539 22.488C21.6269 22.2529 21.8566 21.9626 22.0472 21.6462C22.1404 21.4718 22.2206 21.2887 22.2856 21.1013ZM15.6664 4.27931H16.2904V3.00098H11.7241V4.27931H12.3481V3.62931H13.6395V7.57914H13.1087V8.31148H14.9059V7.57914H14.374V3.63148H15.6653V4.28148" fill="#93232C"/>
<path d="M20.3897 11.48C20.1298 11.4601 19.8698 11.4417 19.6097 11.4247L19.5956 11.4237C18.3856 12.4918 15.9979 13.2989 15.3956 13.4917L15.3609 13.5221C16.1355 13.3812 17.2936 13.1017 18.495 12.5655C19.1141 12.2927 19.7055 11.9607 20.2608 11.5742L20.3908 11.48H20.3897ZM14.1183 11.2297C11.8401 11.8093 10.3754 12.6901 9.82615 13.0627C10.3943 12.7715 10.9744 12.504 11.5649 12.2611L11.6245 12.2362L11.7837 12.1712C11.8619 12.14 11.9403 12.1093 12.0188 12.0791L12.1293 12.0379L12.2647 11.987L12.3936 11.9393L12.5204 11.8938L12.6666 11.8418L12.7836 11.8017L12.957 11.7432L13.0523 11.7118C13.3482 11.6148 13.6466 11.5256 13.9471 11.4442C14.2245 11.3684 14.504 11.2991 14.7846 11.2362C14.5625 11.2319 14.3404 11.2308 14.1183 11.2297ZM9.79148 11.3348C8.16431 11.6815 5.1364 12.6056 2.3739 14.9802L2.2959 15.0723C3.6999 14.0887 6.11248 12.6272 9.09598 11.7378C9.69459 11.5587 10.3016 11.409 10.9149 11.2893C10.5411 11.3023 10.1663 11.3175 9.79148 11.3348ZM22.824 20.8389C22.795 20.8521 22.7661 20.8654 22.7373 20.879L22.6918 20.9007L22.655 20.918L22.5986 20.9451L22.5748 20.957L22.5109 20.9873L22.4979 20.9949L22.4307 21.0274L22.4231 21.0307L22.2856 21.1011C22.2206 21.2885 22.1404 21.4716 22.0472 21.6471V21.646L22.0461 21.6482C21.8608 21.9629 21.6268 22.2462 21.3528 22.4877C21.2185 22.6037 21.0711 22.7066 20.913 22.7802C20.7581 22.8561 20.5836 22.8994 20.4103 22.946C20.0604 23.0348 19.7083 23.1182 19.3541 23.1941C19.002 23.2721 18.6488 23.3457 18.2935 23.414C17.94 23.4858 17.5849 23.5497 17.2286 23.6057C17.0527 23.6354 16.8755 23.6575 16.6977 23.6718C16.6555 23.674 16.6132 23.6751 16.5699 23.6751C16.5419 23.6732 16.514 23.6696 16.4865 23.6642C16.3961 23.6346 16.309 23.5957 16.2265 23.5483C15.9144 23.3651 15.6117 23.1663 15.3197 22.9525C15.0901 22.79 14.8506 22.6026 14.6199 22.4292L14.6004 22.4574L14.6015 22.4596L14.6448 22.4975L14.6437 22.4964L14.6134 22.4737L14.8062 22.7055L14.8279 22.7326C14.9276 22.8496 15.3403 23.3327 15.8311 23.8224C16.2048 24.1962 16.6544 24.3847 17.1722 24.3847C17.3488 24.3847 17.5341 24.3608 17.7215 24.3164L18.2761 24.181C18.8204 24.0522 19.3636 23.9186 19.9055 23.7802L19.9867 23.7585L20.1492 23.7152C20.2316 23.6913 20.3139 23.6718 20.3984 23.6523C20.9076 23.5332 21.6074 23.3707 21.9768 22.6232L22.3126 21.9547C22.499 21.5929 22.6853 21.23 22.8738 20.8692L22.9106 20.7977L22.824 20.8389ZM14.4574 22.4509L14.4238 22.4195C14.2321 22.6351 14.062 22.8572 13.8637 23.0662C13.7478 23.1919 13.6286 23.3154 13.5084 23.4367C13.39 23.5582 13.2671 23.6753 13.1401 23.7877C13.0826 23.841 13.0189 23.8872 12.9505 23.9253C12.8772 23.9548 12.8014 23.9776 12.7241 23.9936C12.5616 24.0304 12.3947 24.0586 12.2279 24.0835C11.8931 24.1355 11.5562 24.1777 11.2182 24.2146C10.8802 24.2557 10.5411 24.2904 10.2031 24.3207C9.86576 24.3536 9.52767 24.3789 9.18915 24.3966C9.10472 24.401 9.0202 24.4036 8.93565 24.4042C8.85469 24.4041 8.77387 24.3972 8.69406 24.3836C8.53101 24.3542 8.3728 24.3024 8.2239 24.2297C7.91886 24.0796 7.63952 23.8822 7.39623 23.6447H7.39732C7.42981 23.687 7.46773 23.726 7.50348 23.765L7.47856 23.7422C7.45527 23.7208 7.43286 23.6984 7.4114 23.6751C7.29223 23.544 6.21431 22.6026 5.65315 22.1151L5.5264 22.0555C5.86289 22.5636 6.21515 23.0611 6.58265 23.5472C7.19365 24.3392 7.96281 25.0726 9.4394 25.0726C9.68079 25.0724 9.92188 25.0554 10.1609 25.0217L10.2876 25.0076C11.5714 24.8581 11.9235 24.7952 12.1185 24.7606L12.2593 24.7378L12.3156 24.7292C12.3232 24.7292 12.7566 24.6728 13.1823 24.4648C13.4748 24.3207 13.7619 24.1062 13.9016 23.7877C14.257 22.9861 14.3296 22.7954 14.3328 22.7889L14.4574 22.4509Z" fill="#731B2A"/>
<path d="M17.9344 15.1774C18.0097 15.1754 18.0811 15.1438 18.1333 15.0895C18.1854 15.0351 18.214 14.9624 18.2128 14.8871C18.2114 14.8115 18.1802 14.7395 18.1261 14.6868C18.0719 14.6341 17.9991 14.6048 17.9236 14.6054C17.8859 14.6058 17.8486 14.6138 17.8141 14.6288C17.7795 14.6438 17.7483 14.6655 17.7222 14.6928C17.6962 14.72 17.6758 14.7522 17.6624 14.7875C17.649 14.8227 17.6428 14.8602 17.6441 14.8979C17.6446 14.9354 17.6526 14.9724 17.6675 15.0069C17.6824 15.0413 17.704 15.0724 17.7309 15.0985C17.7579 15.1246 17.7898 15.1451 17.8247 15.1588C17.8596 15.1725 17.8969 15.1792 17.9344 15.1785V15.1774ZM19.6829 16.4698C19.307 16.2857 18.8964 16.5186 18.1489 16.5327C17.5921 16.5522 17.1262 16.5587 17.0948 15.6779C17.0645 14.7961 17.4198 14.067 17.9766 14.0475C18.5335 14.028 19.0416 14.7267 19.1098 15.6064C19.1282 15.8491 19.1022 16.0257 19.0426 16.1567C19.5594 16.0939 19.6775 16.4482 19.6829 16.4698ZM9.96214 15.3908C10.0374 15.3883 10.1087 15.3561 10.1604 15.3014C10.2121 15.2466 10.2401 15.1736 10.2384 15.0983C10.2588 15.0601 10.2702 15.0178 10.2718 14.9745C10.2733 14.9312 10.2649 14.8881 10.2472 14.8486C10.2296 14.8091 10.2031 14.7741 10.1698 14.7464C10.1365 14.7186 10.0973 14.6989 10.0552 14.6887C10.0132 14.6784 9.96929 14.6779 9.92699 14.6873C9.8847 14.6966 9.8451 14.7155 9.81123 14.7425C9.77735 14.7695 9.75011 14.8039 9.73158 14.843C9.71304 14.8821 9.70372 14.925 9.70431 14.9683C9.68056 15.0125 9.66877 15.0622 9.6701 15.1123C9.67143 15.1625 9.68584 15.2114 9.71189 15.2543C9.76606 15.341 9.86031 15.3941 9.96214 15.3908ZM10.8223 15.8523C10.8299 16.7331 10.3673 16.68 9.81048 16.6865C9.75596 16.6881 9.70143 16.6888 9.64689 16.6887C9.58696 16.6904 9.527 16.6908 9.46706 16.6897C8.92648 16.6887 8.58089 16.6637 8.27539 16.8306C8.28298 16.8111 8.41623 16.5088 8.90264 16.3864C8.84848 16.2672 8.81598 16.1015 8.80623 15.8718C8.77373 14.9911 9.31214 14.2685 9.86789 14.2642C10.4247 14.2587 10.8136 14.9716 10.8212 15.8523H10.8223ZM21.3631 9.79432C21.3599 9.84849 21.3545 9.90265 21.3491 9.95682C21.1284 9.89685 20.9066 9.84087 20.6839 9.7889C19.9483 9.62789 19.2048 9.50495 18.4566 9.42057C18.4306 9.41624 18.4046 9.41407 18.3775 9.41082C18.3825 9.40027 18.3868 9.38942 18.3905 9.37832C18.4121 9.2949 18.4327 9.21257 18.4511 9.13024C18.597 8.42993 18.6513 7.71362 18.6126 6.99932L21.2721 7.76199C21.4173 8.71532 21.3891 9.46282 21.3642 9.79432H21.3631ZM18.0557 9.28515C18.0476 9.31495 18.0476 9.34636 18.0557 9.37615C17.7773 9.3471 17.4985 9.32145 17.2194 9.29924C17.5325 8.6384 17.6007 7.93532 17.6159 7.68724C17.8553 7.51607 18.0947 7.30915 18.2691 7.14882C18.2854 7.62224 18.2746 8.48132 18.0557 9.28407V9.28515ZM9.85814 9.37399C9.86604 9.34417 9.86604 9.31281 9.85814 9.28299C9.64148 8.4824 9.63064 7.62332 9.64473 7.1499C9.82023 7.30915 10.0586 7.51607 10.3001 7.68724C10.3142 7.9364 10.3825 8.63732 10.6945 9.29707C10.4161 9.31874 10.1376 9.34474 9.86031 9.37507L9.85814 9.37399ZM9.45731 9.41732C9.08356 9.4639 8.70981 9.51157 8.33823 9.57332C7.96773 9.63832 7.59723 9.70549 7.22889 9.78782C7.00681 9.83982 6.78473 9.89507 6.56481 9.95574C6.50087 9.22373 6.5267 8.48664 6.64173 7.7609L9.30131 6.99824C9.2651 7.67956 9.31202 8.36276 9.44106 9.03274C9.46489 9.14757 9.49198 9.2624 9.52231 9.37615L9.53531 9.40865L9.45623 9.4184L9.45731 9.41732ZM22.7888 10.5007L22.7216 10.4682L22.6111 10.4129C22.5854 10.4004 22.5604 10.3863 22.5364 10.3707C22.2594 10.2468 21.9746 10.1412 21.6838 10.0543C21.6865 10.0465 21.6886 10.0386 21.6903 10.0305C21.6936 10.0012 21.7596 9.50832 21.7196 8.73049C21.6998 8.34971 21.659 7.97032 21.5971 7.59407C21.592 7.56133 21.5776 7.53072 21.5557 7.5058C21.5339 7.48088 21.5054 7.46265 21.4736 7.45324L21.0945 7.3449C21.0132 4.38849 19.8053 2.99965 19.7674 2.95632C20.8464 4.70699 20.8366 6.78265 20.8182 7.26582L18.4674 6.59307L18.462 6.59199C18.452 6.58984 18.4418 6.58839 18.4316 6.58765H18.423C18.41 6.58657 18.397 6.58765 18.3851 6.58982L18.3786 6.59199C18.368 6.59433 18.3578 6.59797 18.3482 6.60282L18.3374 6.60715L18.3146 6.6234L18.3081 6.62665L18.3038 6.63207L18.2973 6.63749C18.2951 6.63965 18.2323 6.70249 18.1337 6.79565C18.143 6.47057 18.1375 6.14524 18.1175 5.82065L18.1099 5.70149C18.0351 4.66149 17.7914 3.19899 17.0623 1.92065C17.0688 1.93907 17.1414 2.1514 17.2346 2.5089C17.4686 3.40807 17.838 5.22807 17.6365 7.20407L17.6343 7.23115L17.6246 7.23765C17.5344 7.31086 17.4416 7.3806 17.3461 7.44674C17.3231 7.46293 17.3043 7.48431 17.2911 7.50916C17.2779 7.53401 17.2708 7.56162 17.2703 7.58974C17.2703 7.5984 17.2486 8.48132 16.8619 9.23315C16.8554 9.24507 16.8511 9.25807 16.8478 9.27107C15.885 9.20602 14.9203 9.17386 13.9553 9.17465C12.9922 9.17574 12.027 9.20282 11.0639 9.2689C11.0596 9.25699 11.0563 9.24399 11.0509 9.23315C10.6631 8.48132 10.6436 7.59732 10.6425 7.58865C10.6419 7.5607 10.6347 7.53328 10.6215 7.50862C10.6084 7.48396 10.5896 7.46276 10.5666 7.44674C10.4674 7.37837 10.3709 7.30609 10.2774 7.23007C10.0824 5.35157 10.4041 3.61065 10.6392 2.66274C10.7508 2.21315 10.8429 1.94124 10.8505 1.92065C9.79206 3.7764 9.75631 6.01565 9.77906 6.79565C9.72327 6.74425 9.66873 6.69151 9.61548 6.63749L9.60789 6.63099L9.60464 6.62665L9.59814 6.6234C9.59053 6.61784 9.58257 6.61277 9.57431 6.60824L9.56348 6.60282C9.55481 6.59755 9.54527 6.59388 9.53531 6.59199L9.52773 6.58982C9.51491 6.5871 9.50181 6.58601 9.48873 6.58657H9.47898C9.46948 6.58778 9.46007 6.58959 9.45081 6.59199H9.44431L7.09456 7.26582C7.07614 6.78265 7.06639 4.70699 8.14539 2.95632C8.10748 2.99965 6.89956 4.38957 6.81723 7.34599L6.44023 7.45432C6.40791 7.46314 6.37884 7.48114 6.35654 7.50613C6.33424 7.53113 6.31966 7.56205 6.31456 7.59515C6.25295 7.97107 6.21209 8.35008 6.19214 8.73049C6.16478 9.16391 6.17529 9.59889 6.22356 10.0305L6.22789 10.0543L6.13689 10.0825C5.87721 10.1638 5.62255 10.2604 5.37423 10.3717C5.3519 10.3861 5.32875 10.3991 5.30489 10.4107L5.30056 10.4129L5.18898 10.4671L5.13156 10.4963L5.09473 10.5169C5.26914 10.4476 5.45006 10.3977 5.62989 10.3533C5.80973 10.3078 5.99173 10.2667 6.17481 10.232C6.90641 10.0992 7.64391 10.0012 8.38481 9.9384C8.75423 9.90699 9.12473 9.87557 9.49523 9.8539C10.9808 9.77086 12.4685 9.73184 13.9564 9.7369C15.4449 9.73799 16.9334 9.76182 18.4165 9.8539C18.7881 9.87557 19.1575 9.9059 19.5291 9.9384C20.2695 10.0021 21.0066 10.1001 21.738 10.232C21.92 10.2667 22.102 10.3078 22.2818 10.3533C22.4638 10.3967 22.6426 10.4476 22.8181 10.5169L22.7888 10.5007Z" fill="#0E0F0D"/>
<path d="M14.3738 3.6314V7.58015H14.9046V8.31248H13.1085V7.58015H13.6404V3.6314H12.349V4.2814H11.725V3.00306H16.2913V4.2814H15.6662V3.6314H14.3749H14.3738ZM16.7604 4.75373V2.52856H11.2549V4.75373H12.8181V4.10373H13.1691V7.10673H12.6383V8.78481H15.3748V7.10565H14.8429V4.10373H15.195V4.75373H16.7604Z" fill="#0E0F0D"/>
</svg>
