<svg width="26" height="26" viewBox="0 0 26 26" fill="none" xmlns="http://www.w3.org/2000/svg">
<path fill-rule="evenodd" clip-rule="evenodd" d="M3.27711 0C1.48718 0 0.0361328 1.456 0.0361328 3.25V22.75C0.0361328 24.5448 1.48809 26 3.27711 26H22.723C24.5128 26 25.964 24.544 25.964 22.75V3.25C25.964 1.45509 24.512 0 22.723 0H3.27711ZM16.2406 3.38C15.3815 3.38 14.6854 4.07836 14.6854 4.94078V13.2592C14.6854 14.1211 15.3819 14.82 16.2406 14.82H21.0381C21.8971 14.82 22.5933 14.1216 22.5933 13.2592V4.94078C22.5933 4.07888 21.8968 3.38 21.0381 3.38H16.2406ZM4.96203 3.38C4.10291 3.38 3.40675 4.07771 3.40675 4.94065V19.7593C3.40675 20.6212 4.1033 21.32 4.96203 21.32H9.75946C10.6184 21.32 11.3147 20.6223 11.3147 19.7593V4.94065C11.3147 4.07875 10.6182 3.38 9.75946 3.38H4.96203Z" fill="url(#paint0_linear)"/>
<defs>
<linearGradient id="paint0_linear" x1="13" y1="0" x2="13" y2="26" gradientUnits="userSpaceOnUse">
<stop stop-color="#0254CE"/>
<stop offset="1" stop-color="#2684FF"/>
</linearGradient>
</defs>
</svg>
