<svg width="143" height="63" viewBox="0 0 143 63" fill="none" xmlns="http://www.w3.org/2000/svg">
<path d="M19.3215 60.0237H21.1785V50.8857H24.5V49.1104H16V50.8857H19.3215V60.0237Z" fill="#101113"/>
<path fill-rule="evenodd" clip-rule="evenodd" d="M27.861 60.0237H26V49.111H30.7166C31.3192 49.1014 31.9188 49.1986 32.4894 49.3982C32.968 49.5659 33.4052 49.8394 33.7704 50.1993C34.0476 50.4977 34.2625 50.8513 34.4018 51.2384C34.5578 51.6567 34.6363 52.1015 34.6329 52.5496V52.5798C34.6464 53.1117 34.5396 53.6394 34.321 54.1215C34.1152 54.5541 33.8119 54.9298 33.4364 55.2173C33.0406 55.5148 32.5953 55.7352 32.1224 55.8673L35 60.0237H32.7977L30.188 56.2451H27.861V60.0237ZM27.861 50.8719V54.5296H30.5807C30.9771 54.5351 31.3704 54.458 31.737 54.3029C32.0347 54.1682 32.2892 53.9494 32.471 53.6718C32.6509 53.385 32.7442 53.0497 32.739 52.7083V52.6781C32.7491 52.3288 32.6584 51.9843 32.4784 51.6881C32.2961 51.4163 32.0411 51.205 31.7443 51.0797C31.3681 50.9334 30.9681 50.8628 30.5661 50.8719H27.861Z" fill="#101113"/>
<path d="M36.5 60.0237H38V49.1104H36.5V60.0237Z" fill="#101113"/>
<path d="M45.5349 60.0236C46.1318 60.0238 46.7262 59.9441 47.3031 59.7864C47.8197 59.6385 48.3182 59.4306 48.789 59.1666C49.2202 58.9305 49.6261 58.6484 50 58.3249V53.6727H45.4421V55.3598H48.1798V57.4258C47.8276 57.6903 47.4363 57.8944 47.0208 58.0303C46.5598 58.1826 46.0786 58.26 45.5944 58.2599C45.0848 58.2628 44.5797 58.1613 44.1085 57.9614C43.6729 57.7752 43.2805 57.4962 42.957 57.1427C42.6332 56.7805 42.3809 56.3569 42.2141 55.8955C42.0393 55.3896 41.9514 54.8562 41.954 54.3192V54.2886C41.9547 53.7765 42.044 53.2687 42.2178 52.7888C42.3898 52.3324 42.6416 51.9122 42.9607 51.5493C43.2741 51.1953 43.653 50.9091 44.075 50.7076C44.5053 50.5008 44.9747 50.3949 45.4495 50.3978C45.8536 50.3934 46.2567 50.4409 46.6493 50.5393C46.9815 50.6329 47.3001 50.7719 47.5966 50.9525C47.8943 51.135 48.1753 51.345 48.4361 51.5799L49.6285 50.1147C49.2782 49.8001 48.8958 49.5256 48.4881 49.2959C48.0714 49.0669 47.6266 48.897 47.1657 48.7909C46.6244 48.6665 46.0709 48.6074 45.5164 48.6149C44.8992 48.6132 44.2859 48.714 43.6999 48.9133C42.612 49.288 41.6685 50.0104 41.0068 50.9754C40.6826 51.4546 40.432 51.9824 40.2638 52.5402C40.0872 53.1156 39.9983 53.7158 40.0001 54.3192V54.3536C39.9972 54.9714 40.0824 55.5863 40.2527 56.1786C40.4188 56.7348 40.6696 57.2604 40.9956 57.7357C41.315 58.2049 41.7079 58.616 42.1583 58.9523C42.6259 59.3003 43.1453 59.5677 43.6962 59.7443C44.2981 59.9334 44.9243 60.0275 45.5535 60.0236H45.5349Z" fill="#101113"/>
<path d="M56.5279 60.0236C57.1253 60.0238 57.7201 59.9441 58.2974 59.7864C58.8144 59.6385 59.3132 59.4306 59.7844 59.1666C60.2165 58.9295 60.6239 58.6475 61 58.3249V53.6727H56.435V55.3598H59.1747V57.4258C58.8223 57.6903 58.4306 57.8944 58.0149 58.0303C57.5536 58.1826 57.0719 58.26 56.5874 58.2599C56.0774 58.2628 55.572 58.1613 55.1004 57.9614C54.6645 57.7752 54.2717 57.4962 53.948 57.1427C53.624 56.7805 53.3714 56.3569 53.2045 55.8955C53.0297 55.3896 52.9416 54.8562 52.9443 54.3192V54.2886C52.9451 53.7765 53.0344 53.2687 53.2082 52.7888C53.3803 52.3324 53.6323 51.9122 53.9517 51.5493C54.2654 51.1953 54.6446 50.9091 55.067 50.7076C55.4975 50.5008 55.9673 50.3949 56.4424 50.3978C56.8468 50.393 57.2503 50.4406 57.6432 50.5393C57.9797 50.6313 58.3024 50.7703 58.6023 50.9525C58.9008 51.134 59.1821 51.3441 59.4424 51.5799L60.6395 50.1147C60.287 49.8009 59.9032 49.5265 59.4945 49.2959C59.0775 49.0669 58.6323 48.897 58.171 48.7909C57.6293 48.6665 57.0755 48.6074 56.5205 48.6149C55.9041 48.6132 55.2915 48.714 54.7064 48.9133C53.6159 49.2865 52.6702 50.0092 52.0075 50.9754C51.683 51.4546 51.4323 51.9824 51.264 52.5402C51.0872 53.1156 50.9982 53.7158 51.0001 54.3192V54.3536C50.9972 54.9714 51.0824 55.5863 51.2528 56.1786C51.4191 56.7348 51.67 57.2604 51.9963 57.7357C52.3169 58.204 52.71 58.615 53.1599 58.9523C53.6279 59.3003 54.1477 59.5677 54.699 59.7443C55.3013 59.9334 55.9279 60.0275 56.5576 60.0236H56.5279Z" fill="#101113"/>
<path d="M63 60.0237H71V58.3089H64.8786V55.3791H70.2367V53.6604H64.8786V50.8252H70.9222V49.1104H63V60.0237Z" fill="#101113"/>
<path fill-rule="evenodd" clip-rule="evenodd" d="M74.3632 60.0237H72.5V49.111H77.2223C77.8256 49.1014 78.4261 49.1985 78.9973 49.3979C79.4765 49.5655 79.9142 49.8386 80.2799 50.1982C80.5626 50.4957 80.7838 50.8488 80.9304 51.2362C81.0836 51.6548 81.1609 52.0988 81.1582 52.546V52.5762C81.1688 53.1125 81.0567 53.6439 80.8312 54.1277C80.625 54.5598 80.3214 54.9351 79.9455 55.2223C79.5493 55.5195 79.1033 55.7396 78.6299 55.8716L81.5 60.0237H79.295L76.6931 56.249H74.3632V60.0237ZM74.3632 50.8814V54.5353H77.1047C77.5016 54.5419 77.8956 54.4648 78.2623 54.3088C78.5604 54.1743 78.8152 53.9557 78.9973 53.6784C79.1774 53.3919 79.2708 53.057 79.2656 52.7159V52.6857C79.2756 52.3368 79.1849 51.9927 79.0047 51.6967C78.8173 51.4224 78.5552 51.211 78.2513 51.089C77.8749 50.942 77.4742 50.8715 77.0716 50.8814H74.3632Z" fill="#101113"/>
<path d="M83.5 60.0237H86.435V53.7853L89.1862 58.0288H89.25L92.0162 53.755V60.0237H95V49.1104H91.8322L89.25 53.3349L86.6678 49.1104H83.5V60.0237Z" fill="#101113"/>
<path d="M96.5 60.0237H105.5V57.4497H99.5434V55.7197H104.869V53.3349H99.5434V51.6807H105.423V49.1104H96.5V60.0237Z" fill="#101113"/>
<path d="M111.324 60.0122C111.903 60.0184 112.48 59.936 113.037 59.7674C113.515 59.6245 113.962 59.3856 114.356 59.0634C114.719 58.7568 115.008 58.3637 115.202 57.9156C115.408 57.4359 115.51 56.9128 115.499 56.3852V56.4005C115.51 55.9418 115.419 55.4868 115.234 55.0729C115.053 54.6919 114.789 54.3636 114.463 54.1164C114.093 53.83 113.684 53.6032 113.252 53.4431C112.729 53.2407 112.191 53.0783 111.647 52.9571C111.288 52.8692 110.998 52.7888 110.765 52.7123C110.576 52.6558 110.393 52.5776 110.22 52.4789C110.105 52.4213 110.008 52.3297 109.94 52.2149C109.884 52.1159 109.857 52.0015 109.861 51.8859V51.8553C109.86 51.7248 109.9 51.5976 109.977 51.4956C110.07 51.3753 110.195 51.2875 110.335 51.2431C110.518 51.1716 110.713 51.1379 110.908 51.1436C111.228 51.1452 111.547 51.1876 111.858 51.2699C112.195 51.3617 112.523 51.4899 112.836 51.6524C113.176 51.819 113.499 52.0188 113.804 52.2493L115.238 50.0877C114.676 49.6057 114.037 49.2363 113.352 48.9972C112.589 48.7352 111.79 48.606 110.987 48.6147C110.421 48.6093 109.858 48.6984 109.317 48.8786C108.856 49.0322 108.427 49.2804 108.056 49.6094C107.718 49.9163 107.447 50.2991 107.263 50.7304C107.077 51.1754 106.983 51.6584 106.987 52.146V52.1766C106.975 52.67 107.077 53.159 107.285 53.5999C107.482 53.9868 107.765 54.3165 108.109 54.5602C108.494 54.8291 108.909 55.0427 109.345 55.1953C109.85 55.3747 110.363 55.5241 110.883 55.643C111.241 55.7309 111.521 55.8113 111.747 55.8917C111.932 55.9496 112.112 56.0291 112.281 56.1288C112.389 56.1921 112.482 56.2811 112.553 56.389C112.604 56.4831 112.629 56.5905 112.625 56.6989V56.7295C112.629 56.9609 112.514 57.176 112.324 57.2881C112.052 57.4348 111.75 57.5034 111.446 57.4871C110.851 57.4884 110.261 57.3743 109.704 57.1504C109.122 56.9151 108.579 56.5818 108.095 56.1633L106.5 58.1987C106.927 58.6021 107.401 58.9431 107.912 59.2126C108.435 59.4829 108.986 59.687 109.554 59.821C110.143 59.9566 110.743 60.0246 111.346 60.0237L111.324 60.0122Z" fill="#101113"/>
<path d="M117 60.0237H120.046V55.8749H123.954V60.0237H127V49.1104H123.954V53.1948H120.046V49.1104H117V60.0237Z" fill="#101113"/>
<path fill-rule="evenodd" clip-rule="evenodd" d="M93.0946 16.867C92.3006 1.91985 71.319 -4.41215 62.2394 10.4551C56.358 7.82946 49.3028 11.8326 49.2012 18.4805C37.5364 19.6905 36.306 37.7009 53.5209 37.7009H54.0966C53.6287 36.3252 53.6634 34.8254 54.1944 33.4733H52.392C44.1138 33.4162 41.9239 21.2735 52.9828 22.3999C50.9772 15.7026 57.9573 10.1203 63.8235 15.1698C69.0801 2.74559 88.5265 2.36506 89.4221 20.1091C100.248 20.8702 99.9089 32.5068 91.9845 33.6065H80.9368C81.7438 34.8154 81.8978 36.3529 81.347 37.7009H91.9845C104.011 37.4536 106.189 19.4203 93.0946 16.867Z" fill="#0097E1"/>
<path fill-rule="evenodd" clip-rule="evenodd" d="M71.8344 25.3118L71.9437 25.1238C73.048 23.1137 77.4425 22.9833 79.1649 24.583C79.634 25.2733 80.2649 25.8336 81.0004 26.2133C83.1442 27.1445 85.6269 26.1713 86.6031 24.0169C87.5793 21.8626 86.6949 19.3086 84.6071 18.2535C82.4476 17.2408 80.0393 18.2535 78.8936 20.394C77.6159 22.7686 72.6636 22.0435 71.7025 20.9847C71.0832 20.2038 70.2603 19.6163 69.3281 19.2893C67.964 18.7442 66.4175 18.9853 65.2763 19.921C64.135 20.8566 63.5741 22.3431 63.8066 23.8157C63.867 24.1994 63.8368 24.1994 64.2891 25.3195C64.7413 26.4396 62.5479 31.3805 60.2526 31.8101C59.4362 31.776 58.6242 31.9486 57.8896 32.3126C56.486 33.0231 55.5723 34.4535 55.5041 36.0475C55.4358 37.6416 56.2237 39.1475 57.5611 39.9796C58.8986 40.8117 60.5747 40.8387 61.9373 40.0499C64.0366 38.8992 64.6849 36.3328 63.7162 34.1232C62.6308 31.6528 65.8608 27.7554 67.6924 27.6327C69.524 27.5099 72.7126 31.9291 71.612 33.9813C70.4814 36.1065 70.9224 38.7303 72.9274 40.0346C74.9299 41.2787 77.5423 40.6632 78.8038 38.6499C80.0654 36.6366 79.5122 33.966 77.5593 32.6426C76.8482 32.2166 76.0435 31.9793 75.2189 31.9521C72.9575 31.3421 70.6548 27.5789 71.7214 25.5459L71.8344 25.3118ZM82.9941 20.348C84.0348 20.348 84.8785 21.2067 84.8785 22.266C84.8785 23.3253 84.0348 24.1841 82.9941 24.1841C81.9533 24.1841 81.1096 23.3253 81.1096 22.266C81.1096 21.2067 81.9533 20.348 82.9941 20.348ZM59.8532 38.2854C58.8124 38.2854 57.9687 37.4266 57.9687 36.3673C57.9687 35.308 58.8124 34.4493 59.8532 34.4493C60.8938 34.4493 61.7375 35.308 61.7375 36.3673C61.7375 36.876 61.539 37.3639 61.1856 37.7236C60.8322 38.0833 60.3529 38.2854 59.8532 38.2854ZM67.8394 24.4448C67.065 24.4448 66.4374 23.806 66.4374 23.0178C66.4374 22.2298 67.065 21.5909 67.8394 21.5909C68.6137 21.5909 69.2414 22.2298 69.2414 23.0178C69.2414 23.806 68.6137 24.4448 67.8394 24.4448ZM75.3244 34.4723C76.3652 34.4723 77.2089 35.331 77.2089 36.3903C77.2089 37.4496 76.3652 38.3084 75.3244 38.3084C74.2836 38.3084 73.4399 37.4496 73.4399 36.3903C73.4399 35.331 74.2836 34.4723 75.3244 34.4723Z" fill="#0097E1"/>
</svg>
