<svg fill="none" xmlns="http://www.w3.org/2000/svg" viewBox="0 0 143 64">
  <path d="M19.3 60.6h1.9v-9.2h3.3v-1.8H16v1.8h3.3v9.2z" fill="#DFDFDF"/>
  <path fill-rule="evenodd" clip-rule="evenodd" d="M27.9 60.6H26v-11h4.7a5 5 0 011.8.3c.5.2 1 .4 1.3.8l.6 1c.2.5.2 1 .2 1.4 0 .6 0 1-.3 1.6a3 3 0 01-.9 1 4 4 0 01-1.3.7l2.9 4.2h-2.2l-2.6-3.8h-2.3v3.8zm0-9.2V55h2.7c.4 0 .8 0 1.1-.2a1.7 1.7 0 001-1.7c0-.3 0-.7-.2-1-.2-.3-.5-.5-.8-.6a3 3 0 00-1.1-.2h-2.7z" fill="#DFDFDF"/>
  <path d="M36.5 60.6H38v-11h-1.5v11zM45.5 60.6A6.6 6.6 0 0050 59v-4.7h-4.6V56h2.8V58a4.5 4.5 0 01-2.6.8c-.5 0-1 0-1.5-.3-.4-.1-.8-.4-1.1-.8-.4-.3-.6-.8-.8-1.2-.2-.5-.2-1-.2-1.6 0-.6 0-1 .2-1.6.2-.4.4-.9.8-1.2l1-.9 1.4-.3c.5 0 .9 0 1.2.2.4 0 .7.2 1 .4l.8.6 1.2-1.5-1.1-.8-1.3-.5a6.9 6.9 0 00-3.5.1 5.4 5.4 0 00-3.4 3.7l-.3 1.8c0 .6 0 1.2.3 1.8a5.7 5.7 0 001.9 2.8c.4.4 1 .7 1.5.8a6 6 0 001.9.3zM56.5 60.6A6.6 6.6 0 0061 59v-4.7h-4.6V56h2.8V58a4.5 4.5 0 01-2.6.8c-.5 0-1 0-1.5-.3-.4-.1-.8-.4-1.2-.8-.3-.3-.5-.8-.7-1.2a4.5 4.5 0 010-3.1c.2-.5.4-1 .8-1.3.3-.4.6-.7 1-.9l1.4-.3c.4 0 .9 0 1.2.2.4 0 .7.2 1 .4l.8.6 1.2-1.5-1.1-.8-1.3-.5a6.9 6.9 0 00-3.5.1 5.4 5.4 0 00-3.4 3.7l-.3 1.8c0 .6 0 1.2.3 1.8a5.7 5.7 0 001.9 2.8c.4.4 1 .7 1.5.8a6 6 0 001.9.3zM63 60.6h8V59h-6.1v-3h5.3v-1.7H65v-2.9h6v-1.7H63v11z" fill="#DFDFDF"/>
  <path fill-rule="evenodd" clip-rule="evenodd" d="M74.4 60.6h-1.9v-11h4.7a5 5 0 011.8.3c.5.2 1 .4 1.3.8.3.3.5.7.6 1l.3 1.4c0 .6-.1 1-.4 1.6a3 3 0 01-.9 1 4 4 0 01-1.3.7l2.9 4.2h-2.2l-2.6-3.8h-2.3v3.8zm0-9.2v3.7H77c.4 0 .8 0 1.2-.2l.7-.7c.2-.3.3-.6.3-1 0-.3-.1-.7-.3-1-.2-.3-.4-.5-.7-.6a3 3 0 00-1.2-.2h-2.7z" fill="#DFDFDF"/>
  <path d="M83.5 60.6h3v-6.3l2.7 4.3 2.8-4.3v6.3h3v-11h-3.2L89.3 54l-2.6-4.3h-3.2v11zM96.5 60.6h9V58h-6v-1.7h5.4v-2.4h-5.4v-1.7h6v-2.6h-9v11zM111.3 60.6c.6 0 1.2 0 1.7-.2l1.4-.7a3.8 3.8 0 001.1-2.7c0-.5 0-1-.3-1.4-.1-.4-.4-.7-.7-1l-1.2-.6-1.7-.5a12 12 0 01-1.4-.5.6.6 0 01-.4-.6l.2-.4.3-.2.6-.1h1l1 .5.9.6 1.4-2.2c-.5-.5-1.2-.9-1.8-1.1a7 7 0 00-2.4-.4 5 5 0 00-1.7.3 3.3 3.3 0 00-2 1.9c-.2.4-.3.9-.3 1.4 0 .5 0 1 .3 1.4.2.4.5.8.8 1l1.2.7 1.6.4a9 9 0 011.4.5l.3.3v.3c0 .2 0 .5-.3.6l-.9.2a5.8 5.8 0 01-3.4-1.3l-1.5 2a6.4 6.4 0 003 1.6c.6.2 1.2.2 1.8.2zM117 60.6h3v-4.2h4v4.2h3v-11h-3v4.1h-4v-4h-3v11z" fill="#DFDFDF"/>
  <path fill-rule="evenodd" clip-rule="evenodd" d="M93 17c-.7-15-21.7-21.5-30.8-6.4a9.2 9.2 0 00-13 8C37.5 20 36.3 38.2 53.5 38.2h.6c-.5-1.4-.4-3 0-4.3h-1.7c-8.3 0-10.5-12.3.6-11.2-2-6.7 5-12.4 10.8-7.3 5.3-12.5 24.7-13 25.6 5 10.8.8 10.5 12.5 2.6 13.6H81c.7 1.3.9 2.8.3 4.2H92c12-.3 14.2-18.5 1-21z" fill="#0097E1"/>
  <path fill-rule="evenodd" clip-rule="evenodd" d="M71.8 25.6l.1-.2c1.1-2 5.5-2.2 7.3-.6a5 5 0 001.8 1.7c2.1 1 4.6 0 5.6-2.2s0-4.8-2-5.9c-2.2-1-4.6 0-5.7 2.2-1.3 2.4-6.2 1.7-7.2.6a5.3 5.3 0 00-2.4-1.7 4 4 0 00-4 .6 4.3 4.3 0 00-1.5 4l.5 1.5c.4 1.1-1.8 6.1-4 6.5-.9 0-1.7.2-2.4.5a4.4 4.4 0 00-2.4 3.8c0 1.6.7 3.1 2 4 1.4.8 3 .9 4.4 0 2.1-1.1 2.8-3.7 1.8-6-1-2.4 2.2-6.4 4-6.5 1.8-.1 5 4.4 4 6.4-1.2 2.2-.8 4.8 1.2 6.1 2 1.3 4.6.7 5.9-1.4 1.3-2 .7-4.7-1.2-6-.8-.5-1.6-.7-2.4-.7-2.2-.6-4.5-4.4-3.5-6.5l.1-.2zm11.2-5c1 0 1.9.8 1.9 1.9 0 1-.9 2-2 2a2 2 0 01-1.8-2c0-1 .9-2 1.9-2zm-23.1 18a2 2 0 01-2-1.9c0-1 1-1.9 2-1.9s1.8.9 1.8 2c0 .4-.2 1-.5 1.3-.4.4-.8.6-1.3.6zm8-14c-.8 0-1.5-.6-1.5-1.3 0-.8.7-1.5 1.4-1.5.8 0 1.4.7 1.4 1.5 0 .7-.6 1.4-1.4 1.4zm7.4 10.2c1 0 2 .9 2 2 0 1-1 1.9-2 1.9a2 2 0 01-1.9-2c0-1 .9-1.9 2-1.9z" fill="#0097E1"/>
</svg>
