<svg width="53" height="53" viewBox="0 0 53 53" fill="none" xmlns="http://www.w3.org/2000/svg">
<path d="M0.0839844 23.564C0.0839844 12.6814 0.0839844 7.2401 3.46478 3.85931C6.84557 0.478516 12.2869 0.478516 23.1695 0.478516H28.9409C39.8235 0.478516 45.2648 0.478516 48.6456 3.85931C52.0264 7.2401 52.0264 12.6814 52.0264 23.564V29.3354C52.0264 40.218 52.0264 45.6593 48.6456 49.0401C45.2648 52.4209 39.8235 52.4209 28.9409 52.4209H23.1695C12.2869 52.4209 6.84557 52.4209 3.46478 49.0401C0.0839844 45.6593 0.0839844 40.218 0.0839844 29.3354V23.564Z" fill="#84E500"/>
<path d="M14.6018 25.1088C13.9324 25.1088 13.7518 25.5657 14.1237 26.097L16.3549 29.2632C16.663 29.6988 17.1093 29.6882 17.4068 29.2632L19.638 26.0863C19.9993 25.5657 19.8187 25.1088 19.1599 25.1088H17.6299C18.4799 21.252 21.9224 18.3938 26.0555 18.3938C28.988 18.4045 31.5593 19.8495 33.1105 22.0701C33.3868 22.442 33.8224 22.5588 34.1943 22.3357C34.5662 22.1126 34.6724 21.6132 34.3643 21.2095C32.4624 18.6063 29.4662 16.832 26.0555 16.832C21.1255 16.832 16.9605 20.4338 16.0574 25.1088H14.6018ZM25.673 21.1776C25.2587 21.1776 24.9399 21.4963 24.9399 21.9001V27.4782C24.9399 27.6907 25.0037 27.882 25.163 28.0838L27.6599 31.3882C27.9574 31.7813 28.393 31.8345 28.7543 31.5795C29.0943 31.3457 29.1262 30.9101 28.8499 30.5488L26.3849 27.2445V21.9001C26.3849 21.4963 26.0662 21.1776 25.673 21.1776ZM26.0555 37.1895C30.9749 37.1895 35.1505 33.5982 36.0537 28.9126H37.4987C38.168 28.9126 38.3487 28.4557 37.9768 27.9351L35.7562 24.7688C35.448 24.3332 34.9912 24.3438 34.6937 24.7688L32.473 27.9457C32.1012 28.4557 32.2818 28.9126 32.9405 28.9126H34.4812C33.6205 32.7801 30.1887 35.6488 26.0555 35.6488C23.1124 35.6382 20.5412 34.1826 18.9899 31.9513C18.7137 31.5795 18.2887 31.4626 17.9062 31.6963C17.5343 31.9195 17.4387 32.4188 17.7468 32.8226C19.638 35.4151 22.6449 37.1895 26.0555 37.1895Z" fill="white"/>
</svg>
