<svg width="26" height="26" viewBox="0 0 26 26" fill="none" xmlns="http://www.w3.org/2000/svg">
<path fill-rule="evenodd" clip-rule="evenodd" d="M0.975 0H25.025C25.5635 0 26 0.436522 26 0.975V25.025C26 25.5635 25.5635 26 25.025 26H0.975C0.436522 26 0 25.5635 0 25.025V0.975C0 0.436522 0.436522 0 0.975 0V0ZM14.4532 13.8324V11.7H5.2V13.8324H8.50357V23.327H11.1334V13.8324H14.4532ZM15.5017 23.0763C15.9258 23.2925 16.4274 23.4547 17.0065 23.5628C17.5855 23.6709 18.1958 23.725 18.8374 23.725C19.4627 23.725 20.0567 23.6655 20.6194 23.5466C21.1822 23.4277 21.6756 23.2317 22.0997 22.9587C22.5238 22.6857 22.8595 22.329 23.1069 21.8884C23.3543 21.4478 23.478 20.9032 23.478 20.2545C23.478 19.7842 23.4073 19.3721 23.266 19.018C23.1246 18.6639 22.9207 18.349 22.6543 18.0733C22.3879 17.7976 22.0684 17.5503 21.696 17.3314C21.3235 17.1125 20.9035 16.9057 20.4359 16.7111C20.0934 16.5705 19.7862 16.434 19.5143 16.3016C19.2425 16.1692 19.0114 16.034 18.8211 15.8962C18.6308 15.7583 18.484 15.6124 18.3807 15.4583C18.2774 15.3043 18.2257 15.1299 18.2257 14.9353C18.2257 14.7569 18.272 14.5961 18.3644 14.4529C18.4568 14.3096 18.5873 14.1866 18.7559 14.0839C18.9244 13.9812 19.131 13.9015 19.3757 13.8447C19.6204 13.788 19.8922 13.7596 20.1913 13.7596C20.4087 13.7596 20.6385 13.7758 20.8804 13.8082C21.1224 13.8407 21.3657 13.8907 21.6103 13.9582C21.855 14.0258 22.0929 14.1109 22.324 14.2137C22.5551 14.3164 22.7685 14.4353 22.9642 14.5704V12.146C22.5673 11.9946 22.1337 11.8824 21.6634 11.8095C21.193 11.7365 20.6534 11.7 20.0445 11.7C19.4246 11.7 18.8374 11.7662 18.2828 11.8987C17.7282 12.0311 17.2403 12.2379 16.8189 12.519C16.3975 12.8001 16.0645 13.1582 15.8198 13.5933C15.5751 14.0285 15.4528 14.5488 15.4528 15.1542C15.4528 15.9273 15.6771 16.5868 16.1257 17.1327C16.5742 17.6787 17.2552 18.1409 18.1687 18.5193C18.5275 18.6653 18.8619 18.8085 19.1718 18.9491C19.4817 19.0896 19.7495 19.2356 19.9751 19.3869C20.2008 19.5383 20.3788 19.7031 20.5093 19.8815C20.6398 20.0599 20.7051 20.2626 20.7051 20.4897C20.7051 20.6573 20.6643 20.8127 20.5827 20.9559C20.5012 21.0992 20.3775 21.2235 20.2117 21.3289C20.0458 21.4343 19.8392 21.5168 19.5918 21.5762C19.3444 21.6357 19.0549 21.6654 18.7232 21.6654C18.1578 21.6654 17.5978 21.5668 17.0432 21.3695C16.4886 21.1722 15.9748 20.8762 15.5017 20.4816V23.0763Z" fill="#4078C0"/>
</svg>
