<svg viewBox="0 0 91 14" fill="none" xmlns="http://www.w3.org/2000/svg"><g clip-path="url(#clip0)"><path d="M15.873 1.397v6.292c0 .707-.147 1.331-.46 1.857-.312.526-.739.92-1.314 1.2-.575.278-1.249.41-2.02.41-1.167 0-2.104-.312-2.777-.92-.674-.608-1.019-1.446-1.035-2.497V1.397H10.6v6.39c.032 1.052.509 1.578 1.462 1.578.476 0 .838-.131 1.084-.394.247-.263.378-.69.378-1.282V1.397h2.35zm8.199 6.112c0 1.117-.247 2.004-.756 2.661-.493.657-1.183 1.002-2.02 1.002-.658 0-1.2-.246-1.627-.723v3.336h-2.235V3.878h2.087l.065.657c.428-.526.986-.789 1.693-.789.887 0 1.56.329 2.053.97.493.64.74 1.544.74 2.678v.115zm-2.235-.148c0-1.265-.378-1.906-1.117-1.906-.526 0-.887.197-1.051.575v2.81c.197.394.558.59 1.067.59.707 0 1.068-.607 1.101-1.84v-.23zm6.013-5.274V3.86h1.183v1.545H27.85v3.269c0 .263.05.46.148.559.099.098.296.164.575.164.214 0 .411-.016.559-.033v1.594a3.97 3.97 0 01-1.249.197c-.772 0-1.33-.18-1.692-.542-.361-.362-.542-.904-.542-1.643V5.422h-.92V3.878h.92V2.087h2.201zm2.235-.066c0-.312.115-.575.345-.788.23-.198.526-.313.887-.313s.657.099.887.313c.23.197.345.46.345.788 0 .312-.115.575-.345.789-.23.197-.526.312-.887.312s-.657-.099-.887-.312a1.034 1.034 0 01-.345-.789zm2.366 9.003h-2.235V3.878h2.235v7.146zm3.68-7.146l.066.838c.509-.641 1.182-.97 2.037-.97.903 0 1.511.362 1.823 1.085.493-.723 1.183-1.085 2.103-1.085 1.446 0 2.202.871 2.235 2.629v4.65H42.16V6.505c0-.361-.065-.624-.18-.805-.132-.164-.345-.246-.674-.246-.444 0-.772.197-.986.591v4.978h-2.234V6.523c0-.378-.066-.641-.18-.805-.116-.165-.346-.247-.674-.247-.428 0-.756.197-.986.592v4.978H34.01V3.878h2.12zm13.357 7.278c-1.1 0-1.988-.329-2.662-.986-.673-.657-1.018-1.511-1.018-2.563v-.164c0-.74.131-1.38.41-1.939a3.018 3.018 0 011.183-1.298c.526-.312 1.134-.46 1.857-.46 1.002 0 1.79.312 2.382.937.575.624.87 1.495.87 2.612v.87h-4.435c.082.395.246.724.526.954.263.23.624.345 1.051.345.707 0 1.249-.247 1.66-.74l1.018 1.2c-.28.378-.673.69-1.183.92a4.652 4.652 0 01-1.66.312zm-.247-5.701c-.657 0-1.035.427-1.166 1.298h2.25v-.164c.017-.362-.081-.641-.279-.822-.18-.214-.46-.312-.805-.312zm8.182 2.169h-1.248v3.4h-2.317V1.397h3.795c1.134 0 2.038.246 2.678.756.641.509.97 1.215.97 2.152 0 .673-.132 1.216-.411 1.66-.28.443-.69.804-1.265 1.067l2.004 3.894v.098h-2.48l-1.726-3.4zm-1.265-1.791h1.462c.444 0 .773-.115 1.003-.345.23-.23.328-.559.328-.97 0-.41-.115-.739-.345-.969-.23-.23-.559-.361-.986-.361h-1.462v2.645zm6.325 1.544c0-.706.132-1.347.411-1.906.28-.558.674-.985 1.2-1.281.525-.296 1.133-.444 1.823-.444 1.068 0 1.922.329 2.53 1.002.625.658.92 1.561.92 2.711v.082c0 1.118-.312 2.005-.936 2.662-.624.657-1.462.986-2.514.986-1.018 0-1.84-.312-2.448-.92-.624-.608-.953-1.446-1.002-2.481l.017-.41zm2.235.148c0 .657.098 1.15.312 1.462.214.312.51.46.92.46.789 0 1.2-.608 1.216-1.823v-.23c0-1.282-.41-1.923-1.232-1.923-.74 0-1.15.559-1.216 1.66v.394zm12.503-.016c0 1.166-.247 2.07-.723 2.71-.493.625-1.167.953-2.054.953-.723 0-1.314-.295-1.758-.87l-.099.739h-2.004V.87h2.234v3.582c.411-.477.953-.707 1.61-.707.888 0 1.578.312 2.07.953.494.64.724 1.544.724 2.695v.115zm-2.235-.148c0-.69-.098-1.183-.28-1.463-.18-.295-.46-.443-.837-.443-.51 0-.854.197-1.052.575v2.842c.198.378.543.575 1.052.575.526 0 .854-.263 1.002-.772.082-.246.115-.69.115-1.314zm3.138.016c0-.706.132-1.347.41-1.906.28-.558.674-.985 1.2-1.281.526-.296 1.134-.444 1.824-.444 1.068 0 1.922.329 2.53 1.002.624.658.92 1.561.92 2.711v.082c0 1.118-.312 2.005-.936 2.662-.625.657-1.463.986-2.514.986-1.019 0-1.84-.312-2.448-.92-.624-.608-.953-1.446-1.002-2.481l.016-.41zm2.218.148c0 .657.099 1.15.312 1.462.214.312.51.46.92.46.789 0 1.2-.608 1.216-1.823v-.23c0-1.282-.41-1.923-1.232-1.923-.74 0-1.15.559-1.216 1.66v.394zm8.461-5.438V3.86h1.183v1.545h-1.183v3.269c0 .263.05.46.148.559.099.098.296.164.575.164.214 0 .41-.016.559-.033v1.594a3.97 3.97 0 01-1.249.197c-.772 0-1.33-.18-1.692-.542-.362-.362-.542-.904-.542-1.643V5.422h-.92V3.878h.92V2.087h2.201z" fill="#101113"/><path d="M2.5 10.991a2.415 2.415 0 100-4.83 2.415 2.415 0 000 4.83z" fill="#3BD771"/></g><defs><clipPath id="clip0"><path fill="#fff" transform="translate(.084 .871)" d="M0 0h90v12.897H0z"/></clipPath></defs></svg>