<svg width="76" height="28" viewBox="0 0 76 28" fill="none" xmlns="http://www.w3.org/2000/svg">
<g clip-path="url(#clip0)">
<path d="M69.865 22.7945C74.4932 18.137 74.3831 10.6302 69.6997 6.08221C65.0163 1.53426 57.5228 1.58906 52.8945 6.24659C51.2967 7.89043 50.1947 9.91783 49.7539 12.1096C50.3049 4.93152 56.5861 -0.438339 63.749 0.109606C70.9669 0.657551 76.3666 6.90413 75.8156 14.0274C75.3748 20.1644 70.6363 25.1507 64.5204 25.9178C66.559 25.4247 68.3773 24.3288 69.865 22.7945Z" fill="#009AED"/>
<path d="M54.7127 22.2466C59.3961 24.8767 65.4019 23.2329 68.0466 18.5206C70.6913 13.8082 69.0384 7.89042 64.2999 5.26028C62.702 4.38357 60.8838 3.94521 59.0104 4C64.8509 2.90411 70.4709 6.73973 71.5729 12.5479C72.6749 18.3562 68.818 23.9452 62.9775 25.0411C57.9635 25.9726 53.0046 23.2877 51.0762 18.6301C51.9578 20.1644 53.1699 21.4247 54.7127 22.2466Z" fill="#EF7E6E"/>
<path d="M65.7871 10.6851C65.181 9.69877 64.3545 8.82206 63.3627 8.27411C62.3709 7.67137 61.2139 7.3974 60.0017 7.3974C58.4038 7.3974 56.806 8.00014 55.6489 9.09603C54.2714 10.3563 53.4449 12.1645 53.5 14.0275C53.4449 15.781 54.1612 17.4796 55.4285 18.7399C56.6407 20.0001 58.2936 20.7125 60.0568 20.6577C61.2139 20.6577 62.3709 20.3837 63.4178 19.781C64.4096 19.1782 65.2361 18.3563 65.7871 17.3152C66.3931 16.2741 66.6686 15.1234 66.6686 13.9727C66.6686 12.8769 66.338 11.7262 65.7871 10.6851ZM60.0568 17.4248C59.2303 17.4248 58.4038 17.096 57.7977 16.4933C57.1916 15.8358 56.8611 14.9043 56.9162 14.0275C56.8611 13.096 57.1916 12.2193 57.7977 11.5618C58.3487 10.959 59.1752 10.5755 60.0568 10.6303C60.9384 10.5755 61.7097 10.959 62.3158 11.5618C62.9219 12.2193 63.2525 13.096 63.1974 14.0275C63.2525 14.959 62.9219 15.8358 62.3158 16.4933C61.7097 17.1508 60.8833 17.4796 60.0568 17.4248Z" fill="#2D3235"/>
<path d="M0.165039 7.78082H4.24235L7.21768 13.863L10.0828 7.78082H13.7193L7.05238 20.6027H6.88709L0.165039 7.78082Z" fill="#2D3235"/>
<path d="M19.2298 17.5343C20.4419 17.5891 21.599 17.1507 22.4806 16.3288L24.6845 18.5206C23.5826 19.7261 21.9296 20.6028 19.34 20.6028C15.0423 20.6028 12.2322 17.8083 12.2322 14.0274C12.1771 10.4658 15.0423 7.50688 18.6788 7.45209H18.9543C23.3071 7.45209 25.7865 10.9041 25.511 15.2877H15.9789C16.3646 16.6576 17.4115 17.5343 19.2298 17.5343ZM21.6541 12.7124C21.4337 11.3973 20.2766 10.411 18.8992 10.5206C17.5217 10.411 16.2544 11.3425 15.9789 12.7124H21.6541Z" fill="#2D3235"/>
<path d="M32.8938 17.5343C34.106 17.5891 35.2631 17.1507 36.1447 16.3288L38.3486 18.5206C37.2466 19.7261 35.5937 20.6028 33.004 20.6028C28.7063 20.6028 25.8963 17.8083 25.8963 14.0274C25.8412 10.4658 28.7063 7.50688 32.3428 7.45209H32.6183C36.9711 7.45209 39.4506 10.9041 39.1751 15.2877H29.643C30.0287 16.6576 31.0756 17.5343 32.8938 17.5343ZM35.3182 12.7124C35.0978 11.3973 33.9407 10.411 32.5632 10.5206C31.1858 10.411 29.9185 11.3425 29.643 12.7124H35.3182Z" fill="#2D3235"/>
<path d="M49.2579 18.8493C48.5967 19.9452 47.2744 20.6028 45.401 20.6028C42.1502 20.6028 39.5605 17.8083 39.5605 14.0274C39.5605 10.2466 42.2053 7.45209 45.401 7.45209C47.2744 7.45209 48.5416 8.10962 49.2579 9.20551V7.78085H52.8944V28H49.2579V18.8493ZM49.313 14.0274C49.313 12 48.211 10.685 46.3377 10.685C44.4643 10.685 43.3073 12 43.3073 14.0274C43.3073 16.0548 44.5194 17.3699 46.3377 17.3699C48.1559 17.3699 49.313 16.0548 49.313 14.0274Z" fill="#2D3235"/>
</g>
<defs>
<clipPath id="clip0">
<rect width="75.871" height="28" fill="white"/>
</clipPath>
</defs>
</svg>
