<svg fill="none" xmlns="http://www.w3.org/2000/svg" viewBox="0 0 143 64">
  <path d="M119 44.8c7-7 6.8-18.4-.3-25.2-7.1-6.9-18.4-6.8-25.4.2-2.5 2.5-4.1 5.6-4.8 8.9.8-10.9 10.3-19 21.2-18.1a19.6 19.6 0 011.2 39c3-.8 5.8-2.5 8-4.8z" fill="#009AED"/>
  <path d="M96 44a15 15 0 0020.3-5.7c4-7.1 1.6-16.1-5.7-20.1-2.4-1.3-5.2-2-8-2a16.3 16.3 0 116 32 16.4 16.4 0 01-18.1-9.7A14 14 0 0096 44z" fill="#EF7E6E"/>
  <path d="M112.7 26.5c-.9-1.5-2.1-2.9-3.6-3.7a9.4 9.4 0 00-5-1.3 9.9 9.9 0 00-9.6 10c0 2.6 1 5.2 2.9 7.1a9 9 0 006.8 2.9c1.7 0 3.4-.4 5-1.3 1.5-1 2.7-2.2 3.5-3.7a10.1 10.1 0 000-10zm-8.5 10.1c-1.2 0-2.4-.5-3.3-1.4-1-1-1.4-2.4-1.3-3.7a5 5 0 011.3-3.7c.8-1 2-1.5 3.3-1.4 1.3-.1 2.5.5 3.4 1.4a5 5 0 011.3 3.7 5 5 0 01-1.3 3.7c-1 1-2.2 1.5-3.4 1.4zM14 22h6.2l4.5 9.3L29 22h5.5l-10 19.5h-.3L14 22zM42.5 36.8c1.8.1 3.6-.5 5-1.8l3.2 3.3c-1.6 1.9-4.1 3.2-8 3.2-6.5 0-10.7-4.3-10.7-10 0-5.4 4.2-10 9.7-10h.4c6.6 0 10.3 5.2 9.9 12H37.6c.6 2 2.2 3.3 5 3.3zm3.7-7.3a4 4 0 00-4.2-3.3c-2-.2-4 1.2-4.4 3.3h8.6zM63 36.8c1.8.1 3.6-.5 5-1.8l3.2 3.3c-1.6 1.9-4.1 3.2-8 3.2-6.5 0-10.7-4.3-10.7-10 0-5.4 4.2-10 9.7-10h.4c6.6 0 10.3 5.2 9.9 12H58c.6 2 2.2 3.3 5 3.3zm3.7-7.3a4 4 0 00-4.2-3.3c-2-.2-4 1.2-4.4 3.3h8.6zM88 38.7c-1.1 1.6-3.1 2.6-6 2.6-5 0-9-4.2-9-9.9s4-9.9 9-9.9c2.9 0 4.8 1 6 2.6V22h5.5v30.5h-5.6V38.7zm0-7.3c0-3-1.7-5-4.6-5-2.9 0-4.6 2-4.6 5s1.8 5 4.6 5 4.6-2 4.6-5z" fill="#DFDFDF"/>
</svg>
