<svg width="143" height="64" viewBox="0 0 143 64" fill="none" xmlns="http://www.w3.org/2000/svg">
<path d="M118.936 44.9342C125.94 37.9619 125.773 26.724 118.686 19.9157C111.598 13.1073 100.257 13.1893 93.253 20.1618C90.8349 22.6226 89.1671 25.6577 88.5 28.9388C89.3339 18.1931 98.8398 10.1543 109.68 10.9746C120.603 11.7949 128.775 21.1461 127.941 31.8097C127.274 40.9969 120.103 48.4615 110.847 49.6099C113.933 48.8716 116.684 47.2311 118.936 44.9342Z" fill="#009AED"/>
<path d="M96.038 44.1333C103.17 48.0941 112.316 45.6186 116.344 38.5223C120.371 31.4258 117.854 22.5141 110.638 18.5534C108.205 17.2331 105.436 16.573 102.583 16.6555C111.477 15.0052 120.036 20.7813 121.714 29.528C123.392 38.2747 117.518 46.6913 108.624 48.3416C100.989 49.7444 93.4368 45.7011 90.5 38.6873C91.8425 40.9978 93.6885 42.8956 96.038 44.1333Z" fill="#EF7E6E"/>
<path d="M112.695 26.7495C111.798 25.274 110.574 23.9624 109.106 23.1427C107.637 22.2409 105.924 21.8311 104.13 21.8311C101.764 21.8311 99.3987 22.7328 97.6857 24.3724C95.6464 26.2577 94.4228 28.9629 94.5044 31.7501C94.4228 34.3733 95.4832 36.9145 97.3594 38.8001C99.154 40.6854 101.601 41.7511 104.211 41.6692C105.924 41.6692 107.637 41.2593 109.187 40.3576C110.656 39.4558 111.879 38.2262 112.695 36.6686C113.592 35.1111 114 33.3896 114 31.6681C114 30.0286 113.511 28.3072 112.695 26.7495ZM104.211 36.8326C102.988 36.8326 101.764 36.3408 100.867 35.439C99.9697 34.4553 99.4803 33.0617 99.5619 31.7501C99.4803 30.3565 99.9697 29.0449 100.867 28.0612C101.683 27.1595 102.906 26.5856 104.211 26.6676C105.517 26.5856 106.659 27.1595 107.556 28.0612C108.453 29.0449 108.943 30.3565 108.861 31.7501C108.943 33.1437 108.453 34.4553 107.556 35.439C106.659 36.4227 105.435 36.9145 104.211 36.8326Z" fill="#101113"/>
<path d="M14 22.3271H20.1667L24.6667 31.5043L29.0001 22.3271H34.5L24.4167 41.6736H24.1667L14 22.3271Z" fill="#101113"/>
<path d="M42.5236 37.0436C44.3464 37.1263 46.0863 36.4649 47.4119 35.2248L50.726 38.5318C49.0689 40.3507 46.5833 41.6736 42.6892 41.6736C36.2268 41.6736 32.0012 37.457 32.0012 31.7523C31.9184 26.3783 36.2268 21.9137 41.695 21.8311H42.1093C48.6547 21.8311 52.383 27.0396 51.9688 33.6539H37.6353C38.2152 35.7208 39.7895 37.0436 42.5236 37.0436ZM46.1691 29.7681C45.8376 27.7838 44.0977 26.2956 42.0264 26.461C39.9551 26.2956 38.0494 27.7011 37.6353 29.7681H46.1691Z" fill="#101113"/>
<path d="M63.0236 37.0436C64.8464 37.1263 66.5863 36.4649 67.9119 35.2248L71.226 38.5318C69.5689 40.3507 67.0833 41.6736 63.1892 41.6736C56.7267 41.6736 52.5012 37.457 52.5012 31.7523C52.4184 26.3783 56.7267 21.9137 62.195 21.8311H62.6093C69.1546 21.8311 72.883 27.0396 72.4688 33.6539H58.1352C58.7152 35.7208 60.2893 37.0436 63.0236 37.0436ZM66.669 29.7681C66.3376 27.7838 64.5977 26.2956 62.5264 26.461C60.4551 26.2956 58.5494 27.7011 58.1352 29.7681H66.669Z" fill="#101113"/>
<path d="M87.9091 38.8904C86.8926 40.5307 84.8596 41.5149 81.9793 41.5149C76.9814 41.5149 73 37.332 73 31.6729C73 26.0139 77.0661 21.8311 81.9793 21.8311C84.8596 21.8311 86.8078 22.8153 87.9091 24.4556V22.3232H93.5V52.587H87.9091V38.8904ZM87.9938 31.6729C87.9938 28.6384 86.2996 26.67 83.4194 26.67C80.5392 26.67 78.7603 28.6384 78.7603 31.6729C78.7603 34.7075 80.6239 36.6759 83.4194 36.6759C86.2149 36.6759 87.9938 34.7075 87.9938 31.6729Z" fill="#101113"/>
</svg>
