<?xml version="1.0" encoding="utf-8"?>
<!-- Generator: Adobe Illustrator 22.0.1, SVG Export Plug-In . SVG Version: 6.00 Build 0)  -->
<svg version="1.1" id="Layer_1" xmlns="http://www.w3.org/2000/svg" xmlns:xlink="http://www.w3.org/1999/xlink" x="0px" y="0px"
	 viewBox="0 0 137.7 51.1" style="enable-background:new 0 0 137.7 51.1;" xml:space="preserve">
<style type="text/css">
	.st0{fill:#009AED;}
	.st1{fill:#EF7E6E;}
	.st2{fill:#2C3235;}
</style>
<title>veeqo-logo-xmas</title>
<g id="Layer_2_1_">
	<g id="Layer_1-2">
		<path class="st0" d="M126.8,41.6c8.4-8.5,8.2-22.2-0.3-30.5S104.4,2.9,96,11.4c-2.9,3-4.9,6.7-5.7,10.7
			c1-13.1,12.4-22.9,25.4-21.9c13.1,1,22.9,12.4,21.9,25.4c-0.8,11.2-9.4,20.3-20.5,21.7C120.8,46.4,124.1,44.4,126.8,41.6z"/>
		<path class="st1" d="M99.3,40.6c8.5,4.8,19.4,1.8,24.2-6.8s1.8-19.4-6.8-24.2c-2.9-1.6-6.2-2.4-9.6-2.3c10.6-2,20.8,5,22.8,15.6
			c2,10.6-5,20.8-15.6,22.8c-9.1,1.7-18.1-3.2-21.6-11.7C94.3,36.8,96.5,39.1,99.3,40.6z"/>
		<path class="st2" d="M119.4,19.5c-1.1-1.8-2.6-3.4-4.4-4.4c-1.8-1.1-3.9-1.6-6.1-1.6c-2.9,0-5.8,1.1-7.9,3.1c-2.5,2.3-4,5.6-3.9,9
			c-0.1,3.2,1.2,6.3,3.5,8.6c2.2,2.3,5.2,3.6,8.4,3.5c2.1,0,4.2-0.5,6.1-1.6c1.8-1.1,3.3-2.6,4.3-4.5c1.1-1.9,1.6-4,1.6-6.1
			C121,23.5,120.4,21.4,119.4,19.5z M109,31.8c-1.5,0-3-0.6-4.1-1.7c-1.1-1.2-1.7-2.9-1.6-4.5c-0.1-1.7,0.5-3.3,1.6-4.5
			c1-1.1,2.5-1.8,4.1-1.7c1.6-0.1,3,0.6,4.1,1.7c1.1,1.2,1.7,2.8,1.6,4.5c0.1,1.7-0.5,3.3-1.6,4.5C112,31.3,110.5,31.9,109,31.8z"/>
		<path class="st2" d="M0.3,14.2h7.4l5.4,11.1l5.2-11.1h6.6L12.8,37.6h-0.3L0.3,14.2z"/>
		<path class="st2" d="M34.9,32c2.2,0.1,4.3-0.7,5.9-2.2l4,4c-2,2.2-5,3.8-9.7,3.8c-7.8,0-12.9-5.1-12.9-12
			c-0.1-6.5,5.1-11.9,11.7-12h0.5c7.9,0,12.4,6.3,11.9,14.3H29C29.7,30.4,31.6,32,34.9,32z M39.3,23.2c-0.4-2.4-2.5-4.2-5-4
			c-2.5-0.2-4.8,1.5-5.3,4H39.3z"/>
		<path class="st2" d="M59.7,32c2.2,0.1,4.3-0.7,5.9-2.2l4,4c-2,2.2-5,3.8-9.7,3.8c-7.8,0-12.9-5.1-12.9-12
			c-0.1-6.5,5.1-11.9,11.7-12h0.5c7.9,0,12.4,6.3,11.9,14.3H53.8C54.5,30.4,56.4,32,59.7,32z M64.1,23.2c-0.4-2.4-2.5-4.2-5-4
			c-2.5-0.2-4.8,1.5-5.3,4H64.1z"/>
		<path class="st2" d="M89.4,34.4c-1.2,2-3.6,3.2-7,3.2c-5.9,0-10.6-5.1-10.6-12s4.8-12,10.6-12c3.4,0,5.7,1.2,7,3.2v-2.6H96v36.9
			h-6.6V34.4z M89.5,25.6c0-3.7-2-6.1-5.4-6.1c-3.4,0-5.5,2.4-5.5,6.1s2.2,6.1,5.5,6.1S89.5,29.3,89.5,25.6z"/>
	</g>
</g>
</svg>
