<svg fill="none" xmlns="http://www.w3.org/2000/svg" viewBox="0 0 94 21"><path d="M22.2 0H8.6L0 10.4 8.7 21h13.5l-8.6-10.6L22.2 0z" fill="#2B2B2B"/><path d="M28.1 0h-4l-5 5.9 3.8 4.5-3.8 4.5 5 6.1h4l8.7-10.6L28 0zM68 8.3c-1 0-2 1-2 2 0 1.2.9 2.1 2 2.1a2 2 0 002.2-2c0-1.2-1-2.1-2.1-2.1zM54.3 8.4H53v3.9h1.3c1.1 0 2.1-.9 2.1-2 0-1-1-1.9-2.1-1.9z" fill="#2B2B2B"/><path d="M87 2H31.8l6.9 8.4-6.9 8.6h55.4l6.9-8.6L87 2zM45.7 13.7H44L41.4 7H43l1.8 4.8L46.6 7H48l-2.5 6.7zm4.6 0h-1.4V7h1.4v6.7zm4.1 0h-2.7V7h2.7c2 0 3.5 1.5 3.5 3.4 0 1.8-1.6 3.3-3.5 3.3zm9.3 0h-4.7V7h4.5v1.4h-3.2v1.2h3V11h-3v1.3h3.3v1.4zm4.5.1c-2 0-3.5-1.5-3.5-3.4 0-2 1.6-3.6 3.5-3.6s3.5 1.6 3.5 3.6-1.6 3.4-3.5 3.4zm9.7-2c0 1.2-1 2.1-2 2.1a2 2 0 01-2.1-1.6l1.4-.4c0 .4.3.6.6.6.4 0 .7-.3.7-.7V7h1.4v4.8zm3.1 2c-.9 0-1.6-.4-2.1-.9l1.1-.9c.2.2.6.4 1 .4.5 0 1-.3 1-.7 0-.2-.2-.5-.5-.5l-1.2-.4c-.8-.2-1.3-1-1.3-1.9 0-1.2 1-2 2.2-2 .8 0 1.5.2 1.9.7l-1 1c-.2-.2-.5-.3-.8-.3-.5 0-.8.3-.8.6s.2.5.4.6l1.2.3c.9.3 1.3 1 1.3 2 0 1.2-1 2-2.4 2z" fill="#2B2B2B"/></svg>