<svg width="144" height="63" viewBox="0 0 144 63" fill="none" xmlns="http://www.w3.org/2000/svg">
<g clip-path="url(#clip0)">
<path d="M25.456 54.1766C25.2487 54.1766 25.1895 54.1037 25.1895 53.9579V53.9045C25.1895 53.7636 25.2487 53.6858 25.456 53.6858H25.8362V52.9811C25.8362 52.777 25.9399 52.7139 26.088 52.7139H26.1472C26.2953 52.7139 26.3891 52.777 26.3891 52.9811V53.6858H27.4851C27.6924 53.6858 27.7517 53.7636 27.7517 53.9045V53.9579C27.7517 54.1037 27.6924 54.1766 27.4851 54.1766H26.3891V56.485C26.3891 57.0779 26.5421 57.3597 27.0013 57.3597C27.1242 57.3622 27.246 57.3367 27.3574 57.2853C27.4687 57.2339 27.5664 57.1579 27.6431 57.0633C27.6431 57.0633 27.8307 57.1216 27.8307 57.3354C27.8307 57.5493 27.5295 57.8214 26.9865 57.8214C26.1818 57.8214 25.8362 57.3694 25.8362 56.5287V54.1621L25.456 54.1766Z" fill="#101113"/>
<path d="M30.5164 53.584C31.6075 53.584 32.1505 54.2983 32.1505 55.3675V57.5057C32.1505 57.7098 32.0469 57.7682 31.8988 57.7682H31.8395C31.6914 57.7682 31.5877 57.7098 31.5877 57.5057V55.4015C31.5877 54.5851 31.173 54.104 30.4819 54.104C30.2973 54.0957 30.1131 54.1263 29.9415 54.1937C29.77 54.2612 29.615 54.3638 29.4869 54.4949C29.3589 54.626 29.2608 54.7825 29.1991 54.9539C29.1374 55.1254 29.1136 55.3078 29.1292 55.489V57.5057C29.1292 57.7098 29.0255 57.7682 28.8774 57.7682H28.8182C28.6701 57.7682 28.5664 57.7098 28.5664 57.5057V51.9997C28.5922 51.9783 28.6221 51.9622 28.6543 51.9522C28.6865 51.9422 28.7204 51.9385 28.754 51.9414C28.9465 51.9414 29.1292 52.0337 29.1292 52.476V54.3324C29.2732 54.0986 29.4773 53.9063 29.7208 53.7749C29.9644 53.6435 30.2388 53.5777 30.5164 53.584Z" fill="#101113"/>
<path d="M35.123 57.3406C35.4027 57.3642 35.6834 57.3092 35.9325 57.1819C36.1816 57.0545 36.3888 56.8601 36.53 56.6213C36.6156 56.62 36.6983 56.6519 36.7602 56.7101C36.8221 56.7683 36.8582 56.8481 36.8608 56.9323C36.8608 57.2142 36.2388 57.8362 35.123 57.8362C34.8394 57.8481 34.5563 57.8016 34.2919 57.6995C34.0276 57.5974 33.7878 57.4422 33.588 57.2436C33.3881 57.0451 33.2326 56.8076 33.1314 56.5465C33.0302 56.2853 32.9855 56.0063 33.0002 55.7271C32.9847 55.4503 33.0269 55.1733 33.1243 54.9131C33.2217 54.653 33.3721 54.4152 33.5663 54.2144C33.7606 54.0136 33.9945 53.8541 34.2538 53.7457C34.513 53.6373 34.792 53.5823 35.0737 53.584C36.2289 53.584 36.9892 54.3907 36.9892 55.6251V55.6737C36.9892 55.8292 36.9299 55.8632 36.7571 55.8632H33.5581C33.5613 56.0617 33.6044 56.2575 33.685 56.4395C33.7655 56.6214 33.882 56.7859 34.0275 56.9232C34.173 57.0606 34.3448 57.1682 34.5328 57.2399C34.7209 57.3115 34.9215 57.3457 35.123 57.3406ZM36.3918 55.3967C36.3986 55.2236 36.3693 55.051 36.3057 54.8894C36.2421 54.7279 36.1456 54.5809 36.0221 54.4575C35.8986 54.3342 35.7507 54.237 35.5876 54.172C35.4245 54.107 35.2496 54.0756 35.0737 54.0797C34.7045 54.078 34.3479 54.2121 34.0739 54.4557C33.8 54.6994 33.6283 55.0349 33.5926 55.3967H36.3918Z" fill="#101113"/>
<path d="M40.815 57.2337L42.0393 54.0603C42.1726 53.7298 42.2763 53.6521 42.449 53.6521C42.5066 53.6456 42.5647 53.6578 42.6145 53.6867C42.6644 53.7157 42.7034 53.7598 42.7255 53.8124L41.2099 57.5641C41.1507 57.7099 41.0914 57.7828 40.8051 57.7828C40.5187 57.7828 40.4842 57.7245 40.4249 57.5787L38.8945 53.8124C38.8945 53.7784 38.9735 53.6521 39.171 53.6521C39.3685 53.6521 39.4672 53.7298 39.5956 54.0603L40.815 57.2337Z" fill="#101113"/>
<path d="M45.1787 57.3406C45.4584 57.3642 45.7391 57.3092 45.9882 57.1819C46.2373 57.0545 46.4445 56.8601 46.5857 56.6213C46.6713 56.62 46.7539 56.6519 46.8158 56.7101C46.8777 56.7683 46.9139 56.8481 46.9165 56.9323C46.9165 57.2142 46.2944 57.8362 45.1787 57.8362C44.895 57.8481 44.6119 57.8016 44.3476 57.6995C44.0833 57.5974 43.8435 57.4422 43.6437 57.2436C43.4438 57.0451 43.2883 56.8076 43.1871 56.5465C43.0859 56.2853 43.0412 56.0063 43.0559 55.7271C43.0404 55.4503 43.0826 55.1733 43.18 54.9131C43.2773 54.653 43.4278 54.4152 43.622 54.2144C43.8162 54.0136 44.0502 53.8541 44.3094 53.7457C44.5686 53.6373 44.8477 53.5823 45.1293 53.584C46.2845 53.584 47.0448 54.3907 47.0448 55.6251V55.6737C47.0448 55.8292 46.9856 55.8632 46.8128 55.8632H43.6137C43.6169 56.0617 43.66 56.2575 43.7406 56.4395C43.8212 56.6214 43.9376 56.7859 44.0831 56.9232C44.2287 57.0606 44.4004 57.1682 44.5885 57.2399C44.7765 57.3115 44.9771 57.3457 45.1787 57.3406ZM46.4475 55.3967C46.4543 55.2236 46.425 55.051 46.3614 54.8894C46.2978 54.7279 46.2013 54.5809 46.0778 54.4575C45.9543 54.3342 45.8064 54.237 45.6433 54.172C45.4802 54.107 45.3053 54.0756 45.1293 54.0797C44.7601 54.078 44.4036 54.2121 44.1296 54.4557C43.8556 54.6994 43.684 55.0349 43.6483 55.3967H46.4475Z" fill="#101113"/>
<path d="M49.869 53.584C50.96 53.584 51.5031 54.2983 51.5031 55.3675V57.5057C51.5031 57.7098 51.3994 57.7682 51.2513 57.7682H51.1822C51.0341 57.7682 50.9304 57.7098 50.9304 57.5057V55.4015C50.9304 54.5851 50.5157 54.104 49.8246 54.104C49.64 54.0957 49.4558 54.1263 49.2842 54.1937C49.1126 54.2612 48.9576 54.3638 48.8296 54.4949C48.7016 54.626 48.6034 54.7825 48.5417 54.9539C48.48 55.1254 48.4562 55.3078 48.4719 55.489V57.5057C48.4719 57.7098 48.3682 57.7682 48.2201 57.7682H48.1707C48.0226 57.7682 47.9189 57.7098 47.9189 57.5057V51.9997C47.9448 51.9783 47.9747 51.9622 48.0068 51.9522C48.039 51.9422 48.0729 51.9385 48.1065 51.9414C48.2991 51.9414 48.4817 52.0337 48.4817 52.476V54.3324C48.6257 54.0986 48.8298 53.9063 49.0733 53.7749C49.3169 53.6435 49.5913 53.5777 49.869 53.584Z" fill="#101113"/>
<path d="M52.5839 52.3061C52.5771 52.2558 52.5824 52.2046 52.5992 52.1566C52.6161 52.1087 52.6441 52.0653 52.681 52.0299C52.718 51.9945 52.7628 51.968 52.8119 51.9527C52.8611 51.9374 52.9132 51.9336 52.9641 51.9416C53.0139 51.9348 53.0646 51.9397 53.1122 51.9558C53.1597 51.9719 53.2028 51.9987 53.2378 52.0342C53.2729 52.0697 53.299 52.1127 53.3141 52.16C53.3291 52.2072 53.3327 52.2572 53.3245 52.3061C53.3245 52.4027 53.2855 52.4954 53.216 52.5638C53.1466 52.6321 53.0524 52.6705 52.9542 52.6705C52.856 52.6705 52.7618 52.6321 52.6924 52.5638C52.623 52.4954 52.5839 52.4027 52.5839 52.3061ZM52.6679 57.5059V53.9146C52.6679 53.7105 52.7715 53.6522 52.9196 53.6522H52.9789C53.127 53.6522 53.2307 53.7105 53.2307 53.9146V57.5059C53.2307 57.71 53.127 57.7684 52.9789 57.7684H52.9196C52.7715 57.7684 52.6629 57.71 52.6629 57.5059H52.6679Z" fill="#101113"/>
<path d="M54.1441 55.7032C54.134 55.4251 54.1816 55.148 54.284 54.8887C54.3864 54.6293 54.5414 54.3933 54.7397 54.195C54.9379 53.9967 55.1751 53.8402 55.4369 53.7352C55.6986 53.6302 55.9794 53.5789 56.262 53.5844C57.4616 53.5844 58.0343 54.3425 58.0343 54.707C58.0343 54.9548 57.6788 55.0034 57.664 54.9694C57.5594 54.6915 57.3664 54.4544 57.1137 54.2933C56.8611 54.1322 56.5624 54.0557 56.262 54.0752C55.8442 54.107 55.4539 54.2928 55.1692 54.5955C54.8845 54.8982 54.7263 55.2955 54.7263 55.7081C54.7263 56.1206 54.8845 56.5179 55.1692 56.8206C55.4539 57.1234 55.8442 57.3092 56.262 57.3409C56.5619 57.3616 56.8605 57.2861 57.1133 57.1258C57.366 56.9655 57.5592 56.729 57.664 56.4516C57.664 56.4176 58.0343 56.4516 58.0343 56.714C58.0343 57.0785 57.4616 57.8366 56.262 57.8366C55.9785 57.8408 55.6971 57.7881 55.435 57.6817C55.1728 57.5753 54.9355 57.4175 54.7373 57.2179C54.5391 57.0183 54.3844 56.7811 54.2824 56.5206C54.1804 56.2602 54.1333 55.9821 54.1441 55.7032Z" fill="#101113"/>
<path d="M58.9531 57.5057V51.9997C58.979 51.9783 59.0088 51.9622 59.041 51.9522C59.0732 51.9422 59.1071 51.9385 59.1407 51.9414C59.3333 51.9414 59.511 52.0337 59.511 52.476V57.5057C59.511 57.7098 59.4073 57.7682 59.2592 57.7682H59.2C59.0519 57.7682 58.9531 57.7098 58.9531 57.5057Z" fill="#101113"/>
<path d="M62.5623 57.3405C62.8419 57.3642 63.1227 57.3092 63.3718 57.1818C63.6209 57.0545 63.8281 56.8601 63.9693 56.6213C64.0548 56.62 64.1375 56.6519 64.1994 56.7101C64.2613 56.7683 64.2974 56.8481 64.3 56.9323C64.3 57.2142 63.678 57.8362 62.5623 57.8362C62.2784 57.848 61.9951 57.8015 61.7305 57.6995C61.4659 57.5975 61.2259 57.4423 61.0256 57.2438C60.8254 57.0453 60.6694 56.8079 60.5677 56.5468C60.4659 56.2857 60.4205 56.0065 60.4345 55.7271C60.4197 55.4505 60.4624 55.1737 60.5601 54.9139C60.6577 54.654 60.8082 54.4165 61.0023 54.2159C61.1964 54.0153 61.43 53.8558 61.6889 53.7471C61.9478 53.6385 62.2265 53.583 62.508 53.584C63.6681 53.584 64.4284 54.3907 64.4284 55.6251V55.6737C64.4284 55.8292 64.3691 55.8632 64.1963 55.8632H60.9973C61.0005 56.0616 61.0436 56.2575 61.1242 56.4395C61.2048 56.6214 61.3212 56.7858 61.4667 56.9232C61.6122 57.0606 61.784 57.1682 61.972 57.2398C62.1601 57.3115 62.3607 57.3457 62.5623 57.3405ZM63.831 55.3967C63.8378 55.2231 63.8084 55.0501 63.7445 54.8882C63.6806 54.7264 63.5837 54.5792 63.4596 54.4557C63.3356 54.3322 63.1871 54.2352 63.0234 54.1705C62.8597 54.1058 62.6843 54.0749 62.508 54.0797C62.1388 54.078 61.7822 54.2121 61.5082 54.4557C61.2343 54.6993 61.0626 55.0349 61.0269 55.3967H63.831Z" fill="#101113"/>
<path d="M68.6197 53.5841C68.9111 53.5648 69.201 53.6385 69.4465 53.7944C69.692 53.9502 69.8798 54.1798 69.9822 54.4491C70.125 54.1853 70.3386 53.9651 70.5998 53.8126C70.8609 53.66 71.1596 53.581 71.4633 53.5841C72.5 53.5841 73.0529 54.1721 73.0529 55.2947V57.5058C73.0529 57.7099 72.9492 57.7683 72.8011 57.7683H72.7419C72.5938 57.7683 72.4901 57.7099 72.4901 57.5058V55.3287C72.4901 54.5171 72.1396 54.1041 71.4287 54.1041C71.1679 54.1154 70.9154 54.1977 70.6993 54.3419C70.4831 54.486 70.3118 54.6863 70.2044 54.9205V57.5058C70.2044 57.7099 70.1007 57.7683 69.9526 57.7683H69.8933C69.7452 57.7683 69.6416 57.7099 69.6416 57.5058V55.3676C69.6416 54.5171 69.2861 54.1041 68.5752 54.1041C68.3144 54.1154 68.0619 54.1977 67.8458 54.3419C67.6297 54.486 67.4583 54.6863 67.3509 54.9205V57.5058C67.3509 57.7099 67.2472 57.7683 67.0991 57.7683H67.0399C66.8918 57.7683 66.7881 57.7099 66.7881 57.5058V53.7104C66.8425 53.6678 66.9113 53.647 66.9806 53.6521C67.1682 53.6521 67.341 53.7444 67.341 54.1867V54.2887C67.4789 54.0769 67.6677 53.9017 67.8907 53.7788C68.1138 53.6559 68.3641 53.589 68.6197 53.5841Z" fill="#101113"/>
<path d="M76.8535 55.1729C76.8661 55.0225 76.8442 54.8713 76.7894 54.7304C76.7346 54.5896 76.6482 54.4626 76.5368 54.359C76.4254 54.2554 76.2918 54.1778 76.1458 54.132C75.9998 54.0861 75.8452 54.0731 75.6934 54.094C75.4247 54.0822 75.1582 54.1464 74.9255 54.279C74.6928 54.4117 74.5035 54.6072 74.3802 54.8424C74.2942 54.8399 74.2126 54.8045 74.1527 54.7437C74.0927 54.6829 74.0593 54.6015 74.0593 54.5168C74.0593 54.2301 74.6468 53.5838 75.7378 53.5838C75.9578 53.5552 76.1815 53.5757 76.3924 53.6438C76.6033 53.7118 76.7959 53.8256 76.9561 53.9767C77.1163 54.1279 77.24 54.3126 77.3179 54.5171C77.3959 54.7216 77.4261 54.9407 77.4065 55.1583V57.7096C77.352 57.7522 77.2833 57.7731 77.2139 57.768C77.0263 57.768 76.8634 57.6756 76.8634 57.2334V57.0779C76.689 57.3177 76.4572 57.5115 76.1885 57.642C75.9198 57.7726 75.6226 57.8358 75.3231 57.8263C74.4246 57.8263 73.9062 57.3743 73.9062 56.694C73.9062 55.7512 74.864 55.3624 76.7647 55.3187H76.8535V55.1729ZM76.8535 56.1448V55.7706H76.6116C75.1997 55.8192 74.474 56.0671 74.474 56.7037C74.474 57.1119 74.8146 57.3792 75.3774 57.3792C75.559 57.3972 75.7423 57.3786 75.9163 57.3246C76.0903 57.2705 76.2513 57.1821 76.3894 57.0648C76.5276 56.9475 76.64 56.8037 76.7197 56.6421C76.7995 56.4806 76.8451 56.3048 76.8535 56.1254V56.1448Z" fill="#101113"/>
<path d="M80.4726 53.5843C81.5587 53.5843 82.1017 54.2987 82.1017 55.3678V57.5061C82.1017 57.7102 81.9981 57.7685 81.8549 57.7685H81.7907C81.6475 57.7685 81.5439 57.7102 81.5439 57.5061V55.4018C81.5439 54.5951 81.1341 54.1043 80.438 54.1043C80.1512 54.0988 79.8691 54.1772 79.6275 54.3294C79.3859 54.4816 79.1955 54.7009 79.0804 54.9596V57.5061C79.0804 57.7102 78.9767 57.7685 78.8286 57.7685H78.7694C78.6213 57.7685 78.5176 57.7102 78.5176 57.5061V53.7107C78.572 53.6681 78.6408 53.6473 78.7101 53.6524C78.8977 53.6524 79.0705 53.7447 79.0705 54.1869V54.3133C79.2221 54.0846 79.4304 53.8977 79.6757 53.7702C79.921 53.6427 80.1952 53.5787 80.4726 53.5843Z" fill="#101113"/>
<path d="M85.9131 55.1729C85.9265 55.0228 85.9053 54.8716 85.8511 54.7307C85.7968 54.5898 85.711 54.4628 85.6 54.3591C85.4889 54.2553 85.3555 54.1776 85.2097 54.1318C85.0639 54.0859 84.9095 54.073 84.7579 54.094C84.4891 54.0816 84.2224 54.1455 83.9895 54.2783C83.7567 54.411 83.5676 54.6068 83.4447 54.8424C83.3587 54.8399 83.2771 54.8045 83.2172 54.7437C83.1572 54.6829 83.1238 54.6015 83.1238 54.5168C83.1238 54.2301 83.7113 53.5838 84.7974 53.5838C85.0174 53.5552 85.2411 53.5757 85.452 53.6438C85.6628 53.7118 85.8555 53.8256 86.0157 53.9767C86.1759 54.1279 86.2995 54.3126 86.3775 54.5171C86.4554 54.7216 86.4857 54.9407 86.466 55.1583V57.7096C86.4402 57.731 86.4103 57.7472 86.3781 57.7572C86.3459 57.7672 86.312 57.7709 86.2784 57.768C86.0859 57.768 85.923 57.6756 85.923 57.2334V57.0779C85.7485 57.3177 85.5167 57.5115 85.2481 57.642C84.9794 57.7726 84.6821 57.8358 84.3827 57.8263C83.4842 57.8263 82.9658 57.3743 82.9658 56.694C82.9658 55.7512 83.9532 55.3624 85.8292 55.3187H85.9131V55.1729ZM85.9131 56.1448V55.7706H85.6712C84.2642 55.8192 83.5385 56.0671 83.5385 56.7037C83.5385 57.1119 83.8742 57.3792 84.437 57.3792C84.6185 57.3972 84.8019 57.3786 84.9759 57.3246C85.1499 57.2705 85.3108 57.1821 85.449 57.0648C85.5871 56.9475 85.6995 56.8037 85.7793 56.6421C85.8591 56.4806 85.9046 56.3048 85.9131 56.1254V56.1448Z" fill="#101113"/>
<path d="M90.3114 53.448C90.4299 53.2779 90.5286 53.1904 90.7064 53.1904C90.7805 53.1896 90.8527 53.2138 90.9111 53.2588C90.9694 53.3039 91.0104 53.3672 91.0273 53.4383L90.346 54.1867C90.5607 54.4369 90.6795 54.7533 90.6817 55.0809C90.6723 55.2888 90.6207 55.4929 90.53 55.6809C90.4393 55.8689 90.3113 56.0372 90.1535 56.1758C89.9957 56.3144 89.8113 56.4205 89.6112 56.4878C89.4111 56.5552 89.1993 56.5824 88.9883 56.5679C88.9144 56.5729 88.8402 56.5729 88.7662 56.5679C88.7206 56.6262 88.6978 56.6986 88.702 56.772C88.702 57.0539 89.092 57.0782 89.8424 57.258C90.4299 57.4038 91.0519 57.6759 91.0519 58.3223C91.0519 59.0755 90.2769 59.5275 88.9538 59.5275C87.6307 59.5275 87.0186 59.1727 87.0186 58.4243C87.0186 57.812 87.5962 57.3941 88.3515 57.258C88.2922 57.2107 88.2449 57.1506 88.2132 57.0823C88.1815 57.014 88.1663 56.9394 88.1688 56.8644C88.1767 56.7127 88.244 56.5699 88.3564 56.4659C88.0623 56.3749 87.8043 56.1959 87.6184 55.9537C87.4326 55.7115 87.3281 55.4183 87.3197 55.1149C87.3247 54.9058 87.3722 54.6997 87.4592 54.5089C87.5463 54.3181 87.6712 54.1464 87.8267 54.0037C87.9821 53.8611 88.165 53.7505 88.3645 53.6785C88.564 53.6064 88.7761 53.5743 88.9883 53.5841C89.3588 53.5814 89.721 53.6917 90.0251 53.9L90.3114 53.448ZM87.5616 58.4243C87.5616 58.8471 88.0553 59.0755 88.9735 59.0755C89.8918 59.0755 90.4941 58.8131 90.4941 58.3369C90.4941 57.8606 89.7141 57.7488 89.0575 57.5787C88.2725 57.6128 87.5616 57.9189 87.5616 58.4243ZM90.1041 55.0954C90.1072 54.9515 90.0798 54.8086 90.0236 54.6757C89.9674 54.5428 89.8836 54.4229 89.7777 54.3236C89.6718 54.2244 89.546 54.148 89.4084 54.0993C89.2708 54.0506 89.1243 54.0307 88.9785 54.0409C88.7707 54.0523 88.5708 54.1233 88.4035 54.2451C88.2362 54.3669 88.1088 54.5343 88.037 54.7265C87.9651 54.9188 87.952 55.1275 87.9992 55.327C88.0464 55.5265 88.1518 55.7081 88.3026 55.8493C88.4533 55.9906 88.6427 56.0853 88.8475 56.1218C89.0523 56.1584 89.2634 56.1351 89.4549 56.055C89.6464 55.9748 89.8099 55.8413 89.9253 55.6708C90.0406 55.5003 90.1028 55.3003 90.1041 55.0954Z" fill="#101113"/>
<path d="M93.5058 57.3406C93.7863 57.3652 94.0681 57.3106 94.3181 57.1832C94.5682 57.0558 94.7762 56.8609 94.9178 56.6213C95.0025 56.6213 95.0839 56.6537 95.1447 56.7118C95.2056 56.7699 95.241 56.849 95.2436 56.9323C95.2436 57.2142 94.6216 57.8362 93.5058 57.8362C93.2224 57.8474 92.9396 57.8003 92.6756 57.698C92.4116 57.5957 92.1722 57.4404 91.9725 57.242C91.7728 57.0436 91.6173 56.8064 91.5158 56.5456C91.4143 56.2848 91.3691 56.0061 91.383 55.7271C91.3675 55.4503 91.4097 55.1733 91.5071 54.9131C91.6045 54.653 91.7549 54.4152 91.9492 54.2144C92.1434 54.0136 92.3773 53.8541 92.6366 53.7457C92.8958 53.6373 93.1748 53.5823 93.4565 53.584C94.6117 53.584 95.3719 54.3907 95.3719 55.6251V55.6737C95.3719 55.8292 95.3127 55.8632 95.1399 55.8632H91.9458C91.9484 56.0614 91.9909 56.2572 92.0709 56.4391C92.151 56.621 92.2669 56.7855 92.4121 56.923C92.5572 57.0604 92.7286 57.1681 92.9164 57.2398C93.1041 57.3115 93.3045 57.3457 93.5058 57.3406ZM94.7795 55.3967C94.7856 55.2234 94.7557 55.0506 94.6916 54.8891C94.6274 54.7276 94.5304 54.5806 94.4065 54.4573C94.2827 54.334 94.1345 54.2369 93.9711 54.172C93.8077 54.107 93.6326 54.0756 93.4565 54.0797C93.0873 54.078 92.7307 54.2121 92.4568 54.4557C92.1828 54.6994 92.0111 55.0349 91.9754 55.3967H94.7795Z" fill="#101113"/>
<path d="M98.0825 53.5841C98.374 53.5648 98.6639 53.6385 98.9094 53.7944C99.1549 53.9502 99.3427 54.1798 99.4451 54.4491C99.5879 54.1853 99.8015 53.9651 100.063 53.8126C100.324 53.66 100.622 53.581 100.926 53.5841C101.963 53.5841 102.516 54.1721 102.516 55.2947V57.5058C102.516 57.7099 102.412 57.7683 102.264 57.7683H102.205C102.057 57.7683 101.953 57.7099 101.953 57.5058V55.3287C101.953 54.5171 101.598 54.1041 100.892 54.1041C100.63 54.1151 100.377 54.1972 100.16 54.3413C99.9428 54.4854 99.7706 54.6859 99.6623 54.9205V57.5058C99.6623 57.7099 99.5587 57.7683 99.4155 57.7683H99.3513C99.2081 57.7683 99.1045 57.7099 99.1045 57.5058V55.3676C99.1045 54.5171 98.749 54.1041 98.0381 54.1041C97.7773 54.1154 97.5248 54.1977 97.3087 54.3419C97.0925 54.486 96.9212 54.6863 96.8138 54.9205V57.5058C96.8138 57.7099 96.7101 57.7683 96.562 57.7683H96.5028C96.3547 57.7683 96.251 57.7099 96.251 57.5058V53.7104C96.3054 53.6678 96.3742 53.647 96.4435 53.6521C96.6311 53.6521 96.8039 53.7444 96.8039 54.1867V54.2887C96.9418 54.0769 97.1306 53.9017 97.3536 53.7788C97.5766 53.6559 97.827 53.589 98.0825 53.5841Z" fill="#101113"/>
<path d="M105.487 57.3405C105.767 57.3642 106.047 57.3092 106.297 57.1818C106.546 57.0545 106.753 56.8601 106.894 56.6213C106.98 56.62 107.062 56.6519 107.124 56.7101C107.186 56.7683 107.222 56.8481 107.225 56.9323C107.225 57.2142 106.603 57.8362 105.487 57.8362C105.203 57.848 104.92 57.8015 104.655 57.6995C104.391 57.5975 104.151 57.4423 103.95 57.2438C103.75 57.0453 103.594 56.8079 103.492 56.5468C103.391 56.2857 103.345 56.0065 103.359 55.7271C103.345 55.4505 103.387 55.1737 103.485 54.9139C103.583 54.654 103.733 54.4165 103.927 54.2159C104.121 54.0153 104.355 53.8558 104.614 53.7471C104.873 53.6385 105.151 53.583 105.433 53.584C106.593 53.584 107.353 54.3907 107.353 55.6251V55.6737C107.353 55.8292 107.294 55.8632 107.121 55.8632H103.922C103.925 56.0616 103.968 56.2575 104.049 56.4395C104.13 56.6214 104.246 56.7858 104.392 56.9232C104.537 57.0606 104.709 57.1682 104.897 57.2398C105.085 57.3115 105.286 57.3457 105.487 57.3405ZM106.756 55.3967C106.763 55.2231 106.733 55.0501 106.669 54.8882C106.605 54.7264 106.508 54.5792 106.384 54.4557C106.26 54.3322 106.112 54.2352 105.948 54.1705C105.785 54.1058 105.609 54.0749 105.433 54.0797C105.064 54.078 104.707 54.2121 104.433 54.4557C104.159 54.6993 103.987 55.0349 103.952 55.3967H106.756Z" fill="#101113"/>
<path d="M110.172 53.5839C111.263 53.5839 111.806 54.2983 111.806 55.3674V57.5056C111.806 57.7098 111.702 57.7681 111.554 57.7681H111.495C111.347 57.7681 111.243 57.7098 111.243 57.5056V55.4014C111.243 54.5947 110.838 54.1039 110.137 54.1039C109.851 54.1022 109.571 54.182 109.33 54.3338C109.089 54.4856 108.898 54.7028 108.78 54.9592V57.5056C108.78 57.7098 108.676 57.7681 108.533 57.7681H108.449C108.306 57.7681 108.202 57.7098 108.202 57.5056V53.7102C108.228 53.6888 108.258 53.6727 108.29 53.6627C108.322 53.6527 108.356 53.649 108.39 53.6519C108.582 53.6519 108.755 53.7442 108.755 54.1865V54.3128C108.907 54.0814 109.118 53.8926 109.366 53.7649C109.614 53.6371 109.892 53.5748 110.172 53.5839Z" fill="#101113"/>
<path d="M112.72 54.1766C112.512 54.1766 112.453 54.1037 112.453 53.9579V53.9045C112.453 53.7636 112.512 53.6858 112.72 53.6858H113.1V52.9811C113.1 52.777 113.204 52.7139 113.352 52.7139H113.411C113.559 52.7139 113.653 52.777 113.653 52.9811V53.6858H114.754C114.961 53.6858 115.02 53.7636 115.02 53.9045V53.9579C115.02 54.1037 114.961 54.1766 114.754 54.1766H113.653V56.485C113.653 57.0779 113.811 57.3597 114.27 57.3597C114.392 57.3615 114.513 57.3356 114.623 57.2842C114.734 57.2329 114.831 57.1573 114.907 57.0633C114.907 57.0633 115.099 57.1216 115.099 57.3354C115.099 57.5493 114.793 57.8214 114.25 57.8214C113.445 57.8214 113.1 57.3694 113.1 56.5287V54.1621L112.72 54.1766Z" fill="#101113"/>
<path d="M116.99 57.0101C116.998 56.934 117.032 56.8629 117.087 56.8088C117.142 56.7548 117.214 56.7211 117.291 56.7136C117.453 56.9286 117.666 57.1009 117.911 57.2154C118.157 57.3299 118.427 57.3828 118.698 57.3697C119.385 57.3697 119.765 57.0975 119.765 56.6893C119.765 56.2034 119.33 56.1013 118.555 55.9409C117.913 55.8049 117.109 55.6251 117.109 54.8086C117.109 54.0845 117.731 53.584 118.684 53.584C119.636 53.584 120.204 54.07 120.204 54.3567C120.204 54.5705 119.908 54.6726 119.893 54.6483C119.76 54.4556 119.579 54.2996 119.367 54.195C119.155 54.0904 118.92 54.0407 118.684 54.0505C118.007 54.0505 117.647 54.3324 117.647 54.7309C117.647 55.1294 118.037 55.2849 118.797 55.4452C119.459 55.591 120.308 55.7708 120.308 56.6018C120.308 57.3502 119.686 57.8362 118.684 57.8362C117.588 57.8362 116.99 57.3162 116.99 57.0101Z" fill="#101113"/>
<path d="M121.932 59.2653L122.624 57.5304C122.549 57.5428 122.473 57.5279 122.409 57.4884C122.345 57.449 122.299 57.3878 122.278 57.3165L120.797 53.8127C120.797 53.7787 120.876 53.6523 121.073 53.6523C121.271 53.6523 121.379 53.735 121.498 54.0363L122.801 57.2048L123.937 54.0508C124.04 53.7544 124.169 53.6523 124.351 53.6523C124.534 53.6523 124.643 53.769 124.633 53.7981L122.658 59.0466C122.545 59.343 122.406 59.4111 122.258 59.4111C122.11 59.4111 121.922 59.2896 121.932 59.2653Z" fill="#101113"/>
<path d="M124.987 57.0102C124.995 56.9334 125.03 56.8616 125.086 56.8075C125.142 56.7533 125.215 56.7202 125.293 56.7137C125.454 56.9353 125.668 57.1137 125.916 57.2326C126.164 57.3515 126.439 57.407 126.715 57.3941C127.396 57.3941 127.777 57.122 127.777 56.7137C127.777 56.2278 127.347 56.1257 126.567 55.9653C125.93 55.8293 125.126 55.6495 125.126 54.833C125.126 54.1089 125.748 53.6084 126.695 53.6084C127.643 53.6084 128.216 54.0944 128.216 54.3811C128.216 54.5949 127.925 54.697 127.905 54.6727C127.772 54.48 127.591 54.324 127.379 54.2194C127.167 54.1148 126.932 54.0651 126.695 54.0749C126.024 54.0749 125.659 54.3568 125.659 54.7553C125.659 55.1538 126.049 55.3093 126.809 55.4697C127.475 55.6155 128.32 55.7953 128.32 56.6263C128.32 57.3747 127.698 57.8606 126.695 57.8606C125.585 57.8363 124.987 57.3163 124.987 57.0102Z" fill="#101113"/>
<path d="M129.101 54.1766C128.893 54.1766 128.834 54.1037 128.834 53.9579V53.9045C128.834 53.7636 128.893 53.6858 129.101 53.6858H129.481V52.9811C129.481 52.777 129.584 52.7139 129.732 52.7139H129.792C129.94 52.7139 130.034 52.777 130.034 52.9811V53.6858H131.159C131.367 53.6858 131.426 53.7636 131.426 53.9045V53.9579C131.426 54.1037 131.367 54.1766 131.159 54.1766H130.058V56.485C130.058 57.0779 130.216 57.3597 130.675 57.3597C130.797 57.3615 130.918 57.3356 131.029 57.2842C131.139 57.2329 131.236 57.1573 131.312 57.0633C131.312 57.0633 131.505 57.1216 131.505 57.3354C131.505 57.5493 131.199 57.8214 130.656 57.8214C129.851 57.8214 129.505 57.3694 129.505 56.5287V54.1621L129.101 54.1766Z" fill="#101113"/>
<path d="M134.017 57.3405C134.297 57.3642 134.578 57.3092 134.827 57.1818C135.076 57.0545 135.283 56.8601 135.424 56.6213C135.51 56.62 135.593 56.6519 135.654 56.7101C135.716 56.7683 135.753 56.8481 135.755 56.9323C135.755 57.2142 135.133 57.8362 134.017 57.8362C133.733 57.848 133.45 57.8015 133.186 57.6995C132.921 57.5975 132.681 57.4423 132.481 57.2438C132.28 57.0453 132.125 56.8079 132.023 56.5468C131.921 56.2857 131.876 56.0065 131.89 55.7271C131.875 55.4505 131.918 55.1737 132.015 54.9139C132.113 54.654 132.263 54.4165 132.457 54.2159C132.651 54.0153 132.885 53.8558 133.144 53.7471C133.403 53.6385 133.682 53.583 133.963 53.584C135.123 53.584 135.883 54.3907 135.883 55.6251V55.6737C135.883 55.8292 135.824 55.8632 135.651 55.8632H132.452C132.456 56.0616 132.499 56.2575 132.579 56.4395C132.66 56.6214 132.776 56.7858 132.922 56.9232C133.067 57.0606 133.239 57.1682 133.427 57.2398C133.615 57.3115 133.816 57.3457 134.017 57.3405ZM135.286 55.3967C135.293 55.2231 135.263 55.0501 135.2 54.8882C135.136 54.7264 135.039 54.5792 134.915 54.4557C134.791 54.3322 134.642 54.2352 134.479 54.1705C134.315 54.1058 134.139 54.0749 133.963 54.0797C133.594 54.078 133.237 54.2121 132.963 54.4557C132.689 54.6993 132.518 55.0349 132.482 55.3967H135.286Z" fill="#101113"/>
<path d="M138.603 53.5839C138.895 53.5651 139.186 53.639 139.432 53.7947C139.678 53.9504 139.867 54.1797 139.971 54.4489C140.111 54.1884 140.321 53.9704 140.577 53.818C140.834 53.6657 141.127 53.5847 141.427 53.5839C142.464 53.5839 143.017 54.1719 143.017 55.2945V57.5057C143.017 57.7098 142.913 57.7681 142.77 57.7681H142.706C142.563 57.7681 142.459 57.7098 142.459 57.5057V55.3285C142.459 54.517 142.103 54.1039 141.393 54.1039C141.132 54.1153 140.879 54.1976 140.663 54.3417C140.447 54.4858 140.276 54.6861 140.168 54.9203V57.5057C140.168 57.7098 140.065 57.7681 139.916 57.7681H139.857C139.709 57.7681 139.605 57.7098 139.605 57.5057V55.3674C139.605 54.517 139.25 54.1039 138.544 54.1039C138.282 54.1149 138.029 54.1971 137.812 54.3412C137.595 54.4853 137.423 54.6858 137.315 54.9203V57.5057C137.315 57.7098 137.211 57.7681 137.068 57.7681H137.004C136.861 57.7681 136.757 57.7098 136.757 57.5057V53.7103C136.783 53.6889 136.813 53.6727 136.845 53.6627C136.877 53.6527 136.911 53.6491 136.944 53.652C137.137 53.652 137.31 53.7443 137.31 54.1865V54.2886C137.448 54.0738 137.639 53.8967 137.865 53.7735C138.091 53.6504 138.345 53.5852 138.603 53.5839Z" fill="#101113"/>
<path fill-rule="evenodd" clip-rule="evenodd" d="M44.4729 9.68132C43.0758 9.51609 42.0835 8.6705 42.2266 7.88323C42.3698 7.09597 43.525 6.65373 44.8481 6.80924C46.1711 6.96475 47.1881 7.72772 47.1091 8.49555C47.0302 9.26338 45.8651 9.86598 44.4729 9.68132Z" fill="#00ABC8"/>
<path fill-rule="evenodd" clip-rule="evenodd" d="M32.4227 29.3631C32.0618 29.34 31.7097 29.2428 31.3892 29.0777C31.0687 28.9126 30.7868 28.6833 30.5618 28.4046C30.3367 28.1258 30.1734 27.8038 30.0824 27.4591C29.9914 27.1145 29.9747 26.7549 30.0333 26.4036C30.1833 25.6801 30.5993 25.0366 31.2014 24.5963C31.8036 24.156 32.5496 23.9499 33.2965 24.0175C33.6557 24.039 34.0064 24.1332 34.3269 24.2942C34.6474 24.4552 34.9307 24.6796 35.1591 24.9532C35.3875 25.2268 35.5561 25.5439 35.6544 25.8846C35.7527 26.2253 35.7786 26.5823 35.7304 26.9333C35.5927 27.6746 35.1751 28.3372 34.5616 28.7879C33.948 29.2387 33.1839 29.4442 32.4227 29.3631Z" fill="#00ABC8"/>
<path fill-rule="evenodd" clip-rule="evenodd" d="M34.0265 19.7998C32.5455 19.6832 31.4939 18.5412 31.7655 17.2971C32.037 16.053 33.4341 15.1734 34.9201 15.2609C36.4061 15.3483 37.4379 16.4369 37.2058 17.6907C36.9738 18.9445 35.5668 19.931 34.0265 19.8095V19.7998Z" fill="#00ABC8"/>
<path fill-rule="evenodd" clip-rule="evenodd" d="M35.6463 11.8544C34.2097 11.7912 33.2668 10.9067 33.5334 9.97368C33.7999 9.04062 35.1082 8.3797 36.456 8.4283C37.8037 8.47689 38.7861 9.2836 38.6133 10.2167C38.4406 11.1497 37.0632 11.9467 35.6513 11.8544H35.6463Z" fill="#00ABC8"/>
<path fill-rule="evenodd" clip-rule="evenodd" d="M37.1071 6.06118C35.8334 6.03202 34.9991 5.46344 35.2311 4.88514C35.4631 4.30684 36.6233 3.9375 37.8526 3.9375C39.0818 3.9375 39.9902 4.42347 39.7927 4.99691C39.5953 5.57035 38.4203 6.10978 37.117 6.05632L37.1071 6.06118Z" fill="#00ABC8"/>
<path fill-rule="evenodd" clip-rule="evenodd" d="M21.3238 43.8163C20.7419 43.7789 20.1848 43.5705 19.7246 43.218C19.2644 42.8655 18.9222 42.3851 18.7425 41.8391C18.5627 41.293 18.5536 40.7064 18.7162 40.1552C18.8789 39.6039 19.206 39.1135 19.655 38.7472C20.104 38.381 20.6544 38.1559 21.2349 38.101C21.8153 38.0461 22.3992 38.164 22.9108 38.4395C23.4224 38.7149 23.8383 39.1351 24.1046 39.6458C24.3709 40.1564 24.4753 40.734 24.4044 41.3038C24.371 41.6684 24.2646 42.0228 24.0915 42.3467C23.9183 42.6707 23.6817 42.9577 23.3954 43.1912C23.109 43.4247 22.7786 43.6002 22.423 43.7075C22.0675 43.8147 21.6939 43.8517 21.3238 43.8163Z" fill="#00ABC8"/>
<path fill-rule="evenodd" clip-rule="evenodd" d="M22.6967 33.6306C22.3506 33.5955 22.016 33.4887 21.7148 33.3174C21.4136 33.146 21.1526 32.9139 20.9489 32.6363C20.7451 32.3587 20.6034 32.0418 20.5328 31.7065C20.4622 31.3712 20.4644 31.0249 20.5393 30.6905C20.6652 29.9842 21.0465 29.3466 21.6127 28.8955C22.179 28.4444 22.8919 28.2103 23.6199 28.2363C23.9694 28.263 24.3092 28.3626 24.6166 28.5286C24.9239 28.6946 25.1919 28.9231 25.4025 29.199C25.6132 29.4748 25.7617 29.7917 25.8382 30.1285C25.9148 30.4653 25.9176 30.8142 25.8464 31.1521C25.7309 31.8779 25.3435 32.5348 24.7606 32.9935C24.1776 33.4523 23.4414 33.6795 22.6967 33.6306Z" fill="#00ABC8"/>
<path fill-rule="evenodd" clip-rule="evenodd" d="M24.4892 23.8283C24.1756 23.8301 23.8659 23.7605 23.5842 23.625C23.3024 23.4894 23.0564 23.2916 22.8652 23.0469C22.674 22.8022 22.5428 22.5173 22.482 22.2145C22.4212 21.9117 22.4323 21.5991 22.5145 21.3013C22.708 20.6426 23.1124 20.0631 23.6674 19.6489C24.2225 19.2348 24.8986 19.0081 25.5951 19.0026C25.9091 18.9901 26.2218 19.0495 26.5086 19.1762C26.7953 19.3029 27.0482 19.4935 27.2473 19.7329C27.4464 19.9722 27.5864 20.2539 27.656 20.5556C27.7257 20.8573 27.7232 21.1708 27.6488 21.4713C27.4761 22.161 27.0681 22.7715 26.493 23.2005C25.9178 23.6295 25.2105 23.8512 24.4892 23.8283Z" fill="#00ABC8"/>
<path fill-rule="evenodd" clip-rule="evenodd" d="M26.5472 15.2992C25.1945 15.2992 24.3898 14.405 24.7255 13.3554C25.0612 12.3057 26.3942 11.4844 27.7321 11.4115C29.0699 11.3386 29.8895 12.2133 29.613 13.2679C29.3365 14.3224 27.9295 15.3089 26.5472 15.2992Z" fill="#00ABC8"/>
<path fill-rule="evenodd" clip-rule="evenodd" d="M28.7099 8.67114C27.4708 8.73431 26.7598 8.14143 27.1252 7.4222C27.4905 6.70297 28.6852 6.12466 29.8898 6.01775C31.0944 5.91084 31.8645 6.43568 31.5683 7.15978C31.2721 7.88387 30.0083 8.61768 28.7099 8.67114Z" fill="#00ABC8"/>
<path fill-rule="evenodd" clip-rule="evenodd" d="M12.7595 47.9417C11.5253 47.7327 10.6416 46.3623 10.7847 44.8898C10.9279 43.4173 12.0436 42.3628 13.2926 42.5523C14.5417 42.7418 15.5241 44.1123 15.3661 45.6431C15.2081 47.1739 14.048 48.1847 12.7693 47.9417H12.7595Z" fill="#00ABC8"/>
<path fill-rule="evenodd" clip-rule="evenodd" d="M13.8794 37.9559C12.6255 37.8198 11.8109 36.498 12.0578 35.0401C12.3046 33.5822 13.4993 32.4936 14.7533 32.5811C16.0072 32.6686 16.9255 33.9418 16.6737 35.4483C16.4219 36.9548 15.1926 38.0725 13.8794 37.9413V37.9559Z" fill="#00ABC8"/>
<path fill-rule="evenodd" clip-rule="evenodd" d="M15.6369 28.1876C14.3878 28.1876 13.6621 27.0116 13.988 25.6849C14.1387 25.0484 14.4894 24.4749 14.9901 24.0457C15.4908 23.6165 16.1161 23.3535 16.7773 23.2939C18.0411 23.2939 18.8359 24.3825 18.52 25.7529C18.3856 26.4174 18.0283 27.0182 17.5054 27.4588C16.9826 27.8995 16.3245 28.1544 15.6369 28.1828V28.1876Z" fill="#00ABC8"/>
<path fill-rule="evenodd" clip-rule="evenodd" d="M17.8289 19.435C16.6441 19.4836 16.0072 18.57 16.4022 17.4571C16.6323 16.8862 17.0122 16.3856 17.5031 16.0065C17.994 15.6275 18.5783 15.3834 19.1964 15.2994C20.4109 15.1974 21.107 16.0381 20.7367 17.185C20.5242 17.7962 20.1366 18.3338 19.6206 18.733C19.1047 19.1323 18.4824 19.376 17.8289 19.435Z" fill="#00ABC8"/>
<path fill-rule="evenodd" clip-rule="evenodd" d="M20.4411 12.199C19.2957 12.3545 18.7477 11.7519 19.1921 10.9209C19.5017 10.4599 19.9026 10.0652 20.3709 9.76044C20.8391 9.45566 21.3651 9.24703 21.9172 9.14708C23.0526 8.96241 23.65 9.49211 23.26 10.3328C22.87 11.1736 21.6111 12.0775 20.4411 12.199Z" fill="#00ABC8"/>
<path fill-rule="evenodd" clip-rule="evenodd" d="M6.05936 51.2467C5.11642 50.9551 4.39565 49.6624 4.43514 48.3309C4.47464 46.9993 5.29415 46.0808 6.25683 46.2801C7.21951 46.4793 8.05383 47.8206 7.97484 49.1959C7.89585 50.5712 7.04672 51.4897 6.05936 51.2321V51.2467Z" fill="#00ABC8"/>
<path fill-rule="evenodd" clip-rule="evenodd" d="M6.62769 41.9792C5.64033 41.8286 5.00841 40.5845 5.18614 39.2189C5.36387 37.8533 6.30186 36.7891 7.28923 36.8717C8.27659 36.9543 9.02699 38.213 8.83445 39.6514C8.64192 41.0899 7.65455 42.125 6.62769 41.9792Z" fill="#00ABC8"/>
<path fill-rule="evenodd" clip-rule="evenodd" d="M8.03492 32.6095C7.04756 32.6095 6.50451 31.4771 6.80565 30.1796C7.1068 28.8821 8.12378 27.8372 9.11115 27.7886C10.0985 27.74 10.7452 28.8529 10.449 30.2185C10.1528 31.5841 9.06672 32.6823 8.03492 32.6483V32.6095Z" fill="#00ABC8"/>
<path fill-rule="evenodd" clip-rule="evenodd" d="M10.1669 23.9108C9.21409 23.9789 8.78459 23.0701 9.17954 21.967C9.57448 20.8638 10.631 19.8627 11.569 19.7218C12.507 19.5808 13.0895 20.4021 12.7044 21.5928C12.3194 22.7834 11.1938 23.8331 10.1669 23.9108Z" fill="#00ABC8"/>
<path fill-rule="evenodd" clip-rule="evenodd" d="M12.8777 16.4562C11.9693 16.6458 11.6188 16.0383 12.0878 15.1538C12.64 14.209 13.5146 13.4875 14.5562 13.1176C15.5189 12.8552 15.9089 13.4141 15.4695 14.3374C15.2135 14.8486 14.8514 15.3013 14.4067 15.6662C13.962 16.0312 13.4445 16.3003 12.8875 16.4562H12.8777Z" fill="#00ABC8"/>
<path fill-rule="evenodd" clip-rule="evenodd" d="M1.55247 53.7396C0.945242 53.4043 0.412065 52.238 0.333075 51.0765C0.254086 49.915 0.713211 49.1035 1.32044 49.3659C1.92767 49.6283 2.60401 50.8238 2.63857 52.097C2.67313 53.3703 2.17945 54.0409 1.52779 53.7542L1.55247 53.7396Z" fill="#00ABC8"/>
<path fill-rule="evenodd" clip-rule="evenodd" d="M1.4046 45.4736C0.762812 45.2695 0.313561 44.1178 0.417234 42.8737C0.520908 41.6296 1.10345 40.7014 1.76499 40.7889C2.42652 40.8764 2.99919 42.0864 2.88565 43.4326C2.7721 44.7787 2.12044 45.6632 1.4046 45.4736Z" fill="#00ABC8"/>
<path fill-rule="evenodd" clip-rule="evenodd" d="M2.26875 36.8275C1.60227 36.7886 1.28138 35.7389 1.49366 34.5143C1.70595 33.2896 2.48103 32.2448 3.12775 32.2497C3.86334 32.2011 4.28297 33.2556 4.02625 34.5531C3.76954 35.8507 2.99446 36.8858 2.26875 36.8275Z" fill="#00ABC8"/>
<path fill-rule="evenodd" clip-rule="evenodd" d="M4.06507 28.4787C3.39367 28.5759 3.15176 27.7303 3.52202 26.6077C3.89228 25.4851 4.72661 24.4548 5.39308 24.2799C6.05955 24.1049 6.41994 24.9457 6.05461 26.1217C5.68929 27.2978 4.80066 28.3766 4.07988 28.4787H4.06507Z" fill="#00ABC8"/>
<path fill-rule="evenodd" clip-rule="evenodd" d="M12.8038 56.5679C11.6042 56.4659 10.6465 55.1975 10.6563 53.7493C10.6662 52.3011 11.6437 51.1834 12.868 51.266C14.0924 51.3486 15.1291 52.6073 15.1044 54.1138C15.0797 55.6203 14.0479 56.6991 12.8038 56.5436V56.5679Z" fill="#00ABC8"/>
<path fill-rule="evenodd" clip-rule="evenodd" d="M43.4859 16.9616C41.8864 16.7721 40.7559 15.5912 40.9237 14.3812C41.0916 13.1711 42.4887 12.3741 44.0537 12.5588C45.6186 12.7434 46.7393 13.8757 46.6159 15.081C46.4925 16.2862 45.0707 17.1609 43.4859 16.9616Z" fill="#00ABC8"/>
<path fill-rule="evenodd" clip-rule="evenodd" d="M7.0814 59.163C6.16315 59.0513 5.27946 57.987 5.10667 56.7332C4.93388 55.4794 5.51149 54.5221 6.42974 54.5464C7.34799 54.5706 8.35016 55.6689 8.51308 56.9762C8.67599 58.2834 8.04902 59.2408 7.09621 59.163H7.0814Z" fill="#00ABC8"/>
<path fill-rule="evenodd" clip-rule="evenodd" d="M51.9523 14.1035C50.5502 13.9335 49.5579 12.9032 49.706 11.8389C49.8541 10.7747 51.0735 10.0797 52.4509 10.245C53.8283 10.4102 54.8058 11.3967 54.6972 12.4513C54.5886 13.5058 53.3395 14.2785 51.9523 14.1035Z" fill="#00ABC8"/>
<path fill-rule="evenodd" clip-rule="evenodd" d="M52.757 8.08764C51.429 7.93213 50.4811 7.18859 50.6046 6.50338C50.728 5.81816 51.8289 5.44397 53.073 5.59462C54.317 5.74527 55.3044 6.41104 55.2353 7.07682C55.1662 7.7426 54.0653 8.25772 52.7373 8.08764H52.757Z" fill="#00ABC8"/>
<path fill-rule="evenodd" clip-rule="evenodd" d="M45.7518 5.483C44.4188 5.33235 43.4413 4.84152 43.5401 4.42845C43.6388 4.01537 44.7298 3.84529 45.9887 3.98622C47.2476 4.12715 48.2449 4.5791 48.2103 4.95815C48.1757 5.33721 47.0995 5.62393 45.7715 5.44412L45.7518 5.483Z" fill="#00ABC8"/>
<path fill-rule="evenodd" clip-rule="evenodd" d="M59.1646 11.2273C57.881 10.8532 57.0763 9.96383 57.3182 9.30777C57.5601 8.65171 58.7055 8.47191 59.9199 8.8218C61.1344 9.1717 61.9786 9.99785 61.8009 10.6442C61.6232 11.2905 60.4433 11.6161 59.1646 11.2225V11.2273Z" fill="#00ABC8"/>
<path fill-rule="evenodd" clip-rule="evenodd" d="M64.6996 14.7166C63.6135 14.323 62.9569 13.5405 63.2186 13.0157C63.4802 12.4909 64.4429 12.418 65.4697 12.7922C66.4966 13.1663 67.1878 13.8953 67.01 14.4104C66.8323 14.9256 65.8054 15.1199 64.7243 14.7166H64.6996Z" fill="#00ABC8"/>
<path d="M54.5246 48.6471H53.6853L37.0137 23.7412H40.4694L54.4407 45.1773L68.6094 23.7412H72.1145L55.2207 48.6471H54.5246Z" fill="#101113"/>
<path d="M107.057 48.6471V28.3822C107.058 28.1038 106.983 27.8301 106.84 27.5901C106.695 27.3558 106.51 27.1485 106.292 26.9778C106.081 26.8179 105.846 26.6916 105.596 26.6036C105.386 26.5241 105.164 26.4813 104.939 26.4772H104.608C104.208 26.4868 103.815 26.5848 103.458 26.7639C103.016 27.006 102.682 27.4034 102.525 27.8768C102.433 28.0971 102.067 28.8649 101.429 30.1803C101.162 30.7537 100.817 31.4827 100.387 32.3574L98.8173 35.594L96.6254 40.1038C95.7861 41.8338 94.8185 43.836 93.7225 46.1103C93.4066 46.7555 92.9939 47.3502 92.4982 47.8744C92.2867 48.1141 92.026 48.3069 91.7332 48.44C91.4405 48.5732 91.1224 48.6438 90.7999 48.6471H90.2174C89.5471 48.663 88.8952 48.4306 88.3907 47.9959C87.8545 47.4542 87.4214 46.8221 87.1121 46.1298L78.3048 27.9497C78.1693 27.6691 78.0038 27.4036 77.8111 27.1576C77.6358 26.9749 77.4404 26.8119 77.2286 26.6716C76.9293 26.5402 76.6032 26.4787 76.2758 26.4918H75.866C75.6062 26.4895 75.3499 26.5513 75.1206 26.6716C74.8838 26.8021 74.6677 26.9658 74.4788 27.1576C74.2891 27.3462 74.1234 27.5567 73.9851 27.7845C73.8652 27.9779 73.7847 28.1925 73.7481 28.4162V48.6471H70.9736V28.2364C70.9727 27.6708 71.1027 27.1124 71.3538 26.6036C71.6214 26.0792 71.9788 25.6041 72.4103 25.1991C72.8415 24.7824 73.3425 24.4421 73.8913 24.1932C74.4642 23.9406 75.0772 23.7877 75.7031 23.7412L76.2857 23.7072C76.5989 23.7046 76.9116 23.7339 77.2187 23.7947C77.4967 23.857 77.7704 23.9365 78.0382 24.0328C78.3339 24.1165 78.6128 24.2497 78.8627 24.4264C79.4217 24.8014 79.911 25.2682 80.3092 25.8066C80.4656 26.0116 80.5949 26.2353 80.6942 26.4724C80.7947 26.6213 80.8698 26.7855 80.9164 26.9583L89.6891 45.0704C89.7592 45.239 89.8434 45.4015 89.9409 45.5563C90.0643 45.7459 90.1976 45.8431 90.3457 45.8431H90.5629C90.7101 45.7731 90.8311 45.6591 90.9085 45.5175C90.982 45.4143 91.0496 45.3072 91.1109 45.1967L91.1504 45.0898L99.9528 26.9632C100.221 26.441 100.533 25.9419 100.886 25.4713C101.25 24.9647 101.733 24.5515 102.293 24.2661C102.621 24.0938 102.969 23.9616 103.33 23.8724C103.718 23.7741 104.118 23.7251 104.519 23.7266L105.102 23.7607C105.699 23.7647 106.288 23.9062 106.82 24.1737C107.365 24.446 107.864 24.7984 108.301 25.2186C108.733 25.6334 109.096 26.1122 109.377 26.6376C109.642 27.1153 109.797 27.6446 109.831 28.1878V48.6471H107.057Z" fill="#101113"/>
<path d="M136.318 48.647H112.172V45.9304H136.318C136.882 45.9349 137.441 45.8258 137.961 45.6097C138.981 45.1826 139.794 44.3831 140.227 43.3791C140.448 42.8672 140.56 42.3167 140.558 41.7608C140.56 41.1987 140.447 40.6419 140.227 40.1231C140.018 39.6231 139.715 39.1665 139.334 38.777C138.95 38.3894 138.49 38.0834 137.981 37.8779C137.455 37.6593 136.889 37.5485 136.318 37.5523H117.795C116.866 37.5566 115.947 37.373 115.094 37.0129C114.259 36.6699 113.497 36.1754 112.848 35.555C112.189 34.9172 111.668 34.156 111.313 33.3163C110.959 32.4766 110.779 31.5755 110.784 30.6662C110.777 28.8222 111.512 27.0504 112.828 25.7384C113.471 25.1113 114.226 24.6057 115.055 24.2465C115.919 23.8752 116.852 23.6865 117.795 23.6925H141.946V26.4237H117.795C117.223 26.4154 116.657 26.5315 116.136 26.7638C115.646 26.9852 115.2 27.2895 114.818 27.6629C114.438 28.0407 114.135 28.486 113.924 28.975C113.704 29.4883 113.58 30.0366 113.559 30.5933C113.633 31.7079 114.095 32.7634 114.867 33.582C115.237 33.9792 115.69 34.294 116.194 34.5052C116.698 34.7164 117.242 34.8192 117.79 34.8066H136.313C137.256 34.8049 138.191 34.9934 139.057 35.3606C140.74 36.0534 142.079 37.3694 142.785 39.0248C143.147 39.8794 143.333 40.7961 143.333 41.722C143.333 42.6478 143.147 43.5645 142.785 44.4191C142.436 45.2411 141.934 45.9911 141.304 46.6302C140.652 47.2781 139.875 47.7904 139.019 48.1369C138.162 48.4833 137.244 48.6568 136.318 48.647Z" fill="#101113"/>
</g>
<defs>
<clipPath id="clip0">
<rect width="143" height="63" fill="white" transform="translate(0.333008)"/>
</clipPath>
</defs>
</svg>
