<svg fill="none" xmlns="http://www.w3.org/2000/svg" viewBox="0 0 143 64">
  <g clip-path="url(#clip0)">
    <path d="M25.1 55c-.2 0-.2 0-.2-.2s0-.3.2-.3h.4v-.7c0-.2.1-.2.3-.2.2 0 .3 0 .3.2v.7h1c.3 0 .3.1.3.3 0 .2 0 .2-.2.2H26v2.4c0 .6.1.9.6.9a.8.8 0 00.6-.3s.2 0 .2.2c0 .3-.3.5-.8.5-.9 0-1.2-.4-1.2-1.3V55h-.4zM30.2 54.4c1 0 1.6.8 1.6 1.8v2.2c0 .2 0 .3-.2.3s-.3 0-.3-.3v-2.1c0-.8-.5-1.3-1.2-1.3a1.3 1.3 0 00-1.3 1.4v2c0 .2-.1.3-.3.3-.2 0-.3 0-.3-.3v-5.6a.3.3 0 01.2 0c.2 0 .4 0 .4.5v1.9a1.6 1.6 0 011.4-.8zM34.8 58.3a1.5 1.5 0 001.4-.8.3.3 0 01.3.3c0 .3-.6 1-1.7 1a2 2 0 01-2.1-2.2 2 2 0 012-2.2c1.2 0 2 .9 2 2.1 0 .2-.1.3-.3.3h-3.2a1.5 1.5 0 001.6 1.5zm1.3-2a1.3 1.3 0 00-1.4-1.4 1.5 1.5 0 00-1.4 1.4H36zM40.5 58.1l1.2-3.2c.1-.3.2-.4.4-.4a.3.3 0 01.3.2l-1.5 3.8c0 .1-.1.2-.4.2-.3 0-.3 0-.4-.2l-1.5-3.8s0-.2.2-.2.3 0 .5.4l1.2 3.2zM44.8 58.3a1.5 1.5 0 001.5-.8.3.3 0 01.3.3c0 .3-.6 1-1.8 1a2 2 0 01-2-2.2 2 2 0 012-2.2c1.2 0 2 .9 2 2.1 0 .2-.1.3-.3.3h-3.2a1.5 1.5 0 001.5 1.5zm1.3-2a1.3 1.3 0 00-1.3-1.4 1.5 1.5 0 00-1.5 1.4h2.8zM49.5 54.4c1.1 0 1.7.8 1.7 1.8v2.2c0 .2-.1.3-.3.3-.2 0-.3 0-.3-.3v-2.1c0-.8-.4-1.3-1.1-1.3a1.3 1.3 0 00-1.4 1.4v2c0 .2 0 .3-.2.3s-.3 0-.3-.3v-5.6a.3.3 0 01.2 0c.2 0 .3 0 .3.5v1.9a1.6 1.6 0 011.4-.8zM52.3 53.1a.3.3 0 01.3-.3.3.3 0 01.4.3.4.4 0 11-.7 0zm0 5.3v-3.6c0-.2.1-.3.3-.3.2 0 .3 0 .3.3v3.6c0 .2-.1.3-.3.3-.2 0-.3 0-.3-.3zM53.8 56.6a2 2 0 012.1-2.2c1.2 0 1.8.8 1.8 1.2 0 .2-.4.3-.4.2A1.4 1.4 0 0056 55a1.7 1.7 0 000 3.4 1.4 1.4 0 001.4-1s.4 0 .4.3c0 .4-.6 1.2-1.8 1.2a2 2 0 01-2-2.2zM58.6 58.4v-5.6a.3.3 0 01.2 0c.2 0 .4 0 .4.5v5.1c0 .2-.1.3-.3.3-.2 0-.3 0-.3-.3zM62.2 58.3a1.5 1.5 0 001.4-.8.3.3 0 01.4.3c0 .3-.7 1-1.8 1a2 2 0 01-2.1-2.2 2 2 0 012-2.2c1.2 0 2 .9 2 2.1 0 .2 0 .3-.2.3h-3.2a1.5 1.5 0 001.5 1.5zm1.3-2a1.3 1.3 0 00-1.3-1.4 1.5 1.5 0 00-1.5 1.4h2.8zM68.3 54.4a1.4 1.4 0 011.3 1 1.7 1.7 0 011.5-1c1 0 1.6.6 1.6 1.8v2.2c0 .2 0 .3-.2.3s-.3 0-.3-.3v-2.2c0-.8-.4-1.2-1.1-1.2a1.4 1.4 0 00-1.2.8v2.6c0 .2-.1.3-.3.3-.2 0-.3 0-.3-.3v-2.2c0-.8-.3-1.2-1-1.2a1.4 1.4 0 00-1.3.8v2.6c0 .2 0 .3-.2.3s-.3 0-.3-.3v-3.8l.1-.1c.2 0 .4.1.4.5v.2a1.6 1.6 0 011.3-.8zM76.5 56a1 1 0 00-1.1-1 1.4 1.4 0 00-1.4.7.3.3 0 01-.3-.3c0-.3.6-1 1.7-1a1.5 1.5 0 011.7 1.6v2.6h-.2c-.2 0-.4 0-.4-.5V58a1.8 1.8 0 01-1.5.7c-1 0-1.4-.4-1.4-1.1 0-1 1-1.4 2.8-1.4h.1V56zm0 1v-.3h-.2c-1.4 0-2.2.3-2.2.9 0 .4.4.7 1 .7a1.3 1.3 0 001.4-1.3zM80.1 54.4c1.1 0 1.7.8 1.7 1.8v2.2c0 .2-.1.3-.3.3-.2 0-.3 0-.3-.3v-2.1c0-.8-.4-1.3-1-1.3a1.5 1.5 0 00-1.5.8v2.6c0 .2 0 .3-.2.3s-.3 0-.3-.3v-3.8l.2-.1c.2 0 .3.1.3.5v.2a1.6 1.6 0 011.4-.8zM85.6 56a1 1 0 00-1.2-1 1.4 1.4 0 00-1.3.7.3.3 0 01-.3-.3c0-.3.6-1 1.7-1A1.5 1.5 0 0186 56v2.6a.3.3 0 01-.2 0c-.1 0-.3 0-.3-.5V58a1.8 1.8 0 01-1.6.7c-.8 0-1.4-.4-1.4-1.1 0-1 1-1.4 2.9-1.4V56zm0 1v-.3h-.3c-1.4 0-2 .3-2 .9 0 .4.2.7.8.7a1.3 1.3 0 001.5-1.3zM90 54.3c.1-.2.2-.3.4-.3a.3.3 0 01.3.3l-.7.7a1.6 1.6 0 01-1.4 2.4h-.2v.3c0 .3.4.3 1.1.5.6.1 1.2.4 1.2 1 0 .8-.8 1.3-2 1.3-1.4 0-2-.4-2-1.1 0-.7.6-1 1.3-1.2a.5.5 0 01-.2-.4l.2-.4a1.5 1.5 0 01-1-1.4 1.6 1.6 0 011.7-1.6c.3 0 .7.1 1 .4l.3-.5zm-2.8 5c0 .5.5.7 1.4.7 1 0 1.6-.3 1.6-.7 0-.5-.8-.6-1.5-.8-.8 0-1.5.3-1.5.9zm2.6-3.3a1 1 0 00-1.2-1.1 1 1 0 101.2 1zM93.2 58.3a1.5 1.5 0 001.4-.8.3.3 0 01.3.3c0 .3-.6 1-1.7 1a2 2 0 01-2.2-2.2 2 2 0 012.1-2.2c1.2 0 2 .9 2 2.1 0 .2-.1.3-.3.3h-3.2a1.5 1.5 0 001.6 1.5zm1.2-2a1.3 1.3 0 00-1.3-1.4 1.5 1.5 0 00-1.5 1.4h2.8zM97.7 54.4a1.4 1.4 0 011.4 1 1.7 1.7 0 011.5-1c1 0 1.6.6 1.6 1.8v2.2c0 .2-.1.3-.3.3-.2 0-.3 0-.3-.3v-2.2c0-.8-.3-1.2-1-1.2a1.4 1.4 0 00-1.3.8v2.6c0 .2 0 .3-.2.3s-.3 0-.3-.3v-2.2c0-.8-.4-1.2-1.1-1.2a1.4 1.4 0 00-1.2.8v2.6c0 .2-.1.3-.3.3-.2 0-.3 0-.3-.3v-3.8l.2-.1c.2 0 .4.1.4.5v.2a1.6 1.6 0 011.2-.8zM105.2 58.3a1.5 1.5 0 001.4-.8.3.3 0 01.3.3c0 .3-.6 1-1.7 1a2 2 0 01-2.2-2.2 2 2 0 012.1-2.2c1.2 0 2 .9 2 2.1 0 .2-.1.3-.3.3h-3.2a1.5 1.5 0 001.6 1.5zm1.2-2a1.3 1.3 0 00-1.3-1.4 1.5 1.5 0 00-1.5 1.4h2.8zM109.8 54.4c1.1 0 1.7.8 1.7 1.8v2.2c0 .2-.1.3-.3.3-.2 0-.3 0-.3-.3v-2.1c0-.8-.4-1.3-1-1.3a1.5 1.5 0 00-1.5.8v2.6c0 .2 0 .3-.2.3s-.3 0-.3-.3v-3.8l.2-.1c.2 0 .3.1.3.5v.2a1.6 1.6 0 011.4-.8zM112.4 55c-.2 0-.3 0-.3-.2s0-.3.3-.3h.4v-.7c0-.2 0-.2.2-.2s.3 0 .3.2v.7h1.1c.2 0 .3.1.3.3 0 .2 0 .2-.3.2h-1v2.4c0 .6 0 .9.5.9a.8.8 0 00.7-.3s.2 0 .2.2c0 .3-.3.5-.9.5-.8 0-1.1-.4-1.1-1.3V55h-.4zM116.7 58a.3.3 0 01.3-.4 1.7 1.7 0 001.4.7c.7 0 1-.3 1-.7 0-.5-.4-.6-1.2-.8-.6-.1-1.4-.3-1.4-1.1s.6-1.3 1.6-1.3c.9 0 1.5.5 1.5.8 0 .2-.3.3-.3.3a1.4 1.4 0 00-1.2-.6c-.7 0-1 .3-1 .7 0 .4.3.6 1 .7.7.2 1.6.4 1.6 1.2 0 .8-.6 1.3-1.6 1.3-1.1 0-1.7-.6-1.7-.9zM121.6 60.2l.7-1.8a.3.3 0 01-.4-.2l-1.4-3.5s0-.2.2-.2.3 0 .5.4l1.3 3.2 1.1-3.2c.1-.3.2-.4.4-.4s.3.1.3.2l-2 5.3c0 .3-.2.4-.4.4l-.3-.2zM124.7 58a.3.3 0 01.3-.4 1.6 1.6 0 001.4.7c.7 0 1-.3 1-.7 0-.5-.4-.6-1.2-.7-.6-.2-1.4-.4-1.4-1.2 0-.7.6-1.2 1.6-1.2s1.5.5 1.5.7c0 .3-.3.4-.3.3a1.4 1.4 0 00-1.2-.6c-.7 0-1 .3-1 .7 0 .4.3.6 1 .8.7.1 1.6.3 1.6 1.1s-.6 1.3-1.6 1.3c-1.1 0-1.7-.6-1.7-.9zM128.8 55c-.2 0-.3 0-.3-.2s0-.3.3-.3h.3v-.7c0-.2.2-.2.3-.2.2 0 .3 0 .3.2v.7h1.1c.2 0 .3.1.3.3 0 .2 0 .2-.3.2h-1v2.4c0 .6 0 .9.5.9a.8.8 0 00.7-.3s.2 0 .2.2c0 .3-.3.5-.9.5-.8 0-1.1-.4-1.1-1.3V55h-.4zM133.7 58.3a1.5 1.5 0 001.4-.8l.2.1.1.2c0 .3-.6 1-1.7 1a2 2 0 01-2.1-2.2 2 2 0 012-2.2c1.2 0 2 .9 2 2.1 0 .2-.1.3-.3.3h-3.2a1.6 1.6 0 00.5 1 1.5 1.5 0 001 .5zm1.3-2a1.3 1.3 0 00-.4-1 1.3 1.3 0 00-1-.4 1.5 1.5 0 00-1.5 1.4h2.9zM138.3 54.4a1.4 1.4 0 011.3 1 1.7 1.7 0 011.5-1c1 0 1.6.6 1.6 1.8v2.2c0 .2-.1.3-.3.3-.2 0-.3 0-.3-.3v-2.2c0-.8-.3-1.2-1-1.2a1.4 1.4 0 00-1.3.8v2.6c0 .2 0 .3-.2.3s-.3 0-.3-.3v-2.2c0-.8-.4-1.2-1-1.2a1.4 1.4 0 00-1.3.8v2.6c0 .2-.1.3-.3.3-.2 0-.3 0-.3-.3v-3.8a.3.3 0 01.2-.1c.2 0 .4.1.4.5v.2a1.5 1.5 0 011.3-.8z" fill="#DFDFDF"/>
    <path fill-rule="evenodd" clip-rule="evenodd" d="M44.1 9.8c-1.4-.1-2.3-1-2.2-1.8.1-.8 1.3-1.2 2.6-1 1.3 0 2.4.9 2.3 1.6-.1.8-1.3 1.4-2.7 1.2zM32 29.8a2.6 2.6 0 01-2.3-3 3 3 0 014.3-2.1 2.6 2.6 0 011.4 2.7 3 3 0 01-3.3 2.4zM33.7 20.1c-1.5-.1-2.5-1.3-2.3-2.5.3-1.3 1.7-2.2 3.2-2.1 1.5 0 2.5 1.2 2.3 2.5-.3 1.2-1.7 2.2-3.2 2.1zM35.3 12c-1.4 0-2.4-1-2.1-1.9.3-1 1.6-1.6 3-1.5 1.3 0 2.3.8 2 1.8 0 1-1.5 1.7-2.9 1.6zM36.8 6.2c-1.3 0-2.1-.6-1.9-1.2.2-.6 1.4-1 2.6-1 1.2 0 2.2.5 2 1-.2.7-1.4 1.2-2.7 1.2zM21 44.5a3 3 0 113-2.5 2.8 2.8 0 01-3 2.5zM22.4 34.2a2.5 2.5 0 01-2.2-3 3 3 0 013-2.5 2.5 2.5 0 012.3 3 3 3 0 01-3.1 2.5zM24.2 24.2a2 2 0 01-2-2.6 3.2 3.2 0 013-2.3 2 2 0 012.1 2.5 3.1 3.1 0 01-3.1 2.4zM26.2 15.5c-1.3 0-2.1-.9-1.8-2 .3-1 1.7-1.8 3-2 1.3 0 2.2 1 1.9 2-.3 1-1.7 2-3 2zM28.4 8.8c-1.3 0-2-.5-1.6-1.3.4-.7 1.6-1.3 2.8-1.4 1.2-.1 2 .4 1.6 1.2-.3.7-1.5 1.5-2.8 1.5zM12.4 48.7c-1.2-.2-2-1.6-2-3.1.2-1.5 1.3-2.6 2.6-2.4 1.2.2 2.2 1.6 2 3.2-.1 1.5-1.3 2.6-2.6 2.3zM13.5 38.6c-1.2-.2-2-1.5-1.8-3 .3-1.5 1.5-2.6 2.7-2.5 1.3 0 2.2 1.4 2 3-.3 1.4-1.5 2.6-2.9 2.4zM15.3 28.6c-1.2 0-2-1.2-1.6-2.5a3.2 3.2 0 012.7-2.4c1.3 0 2.1 1 1.8 2.5a3 3 0 01-2.9 2.4zM17.5 19.7c-1.2 0-1.8-.8-1.4-2a3.5 3.5 0 012.8-2.2c1.2 0 1.9.8 1.5 2a3.4 3.4 0 01-2.9 2.2zM20.1 12.4c-1.1.2-1.7-.5-1.2-1.3a4.2 4.2 0 012.7-1.8c1.1-.2 1.7.3 1.3 1.2-.4.9-1.6 1.8-2.8 1.9zM5.7 52c-1-.2-1.6-1.5-1.6-2.9s.9-2.3 1.8-2c1 .1 1.8 1.5 1.7 2.9 0 1.4-.9 2.3-1.9 2zM6.3 42.6c-1-.1-1.6-1.4-1.4-2.8.1-1.3 1-2.4 2-2.3 1 0 1.8 1.3 1.6 2.8-.2 1.4-1.2 2.5-2.2 2.3zM7.7 33.1c-1 0-1.5-1.1-1.2-2.4.3-1.4 1.3-2.4 2.3-2.5 1 0 1.6 1.1 1.3 2.5-.3 1.4-1.4 2.5-2.4 2.5zM9.8 24.3c-1 0-1.3-.9-1-2 .4-1.1 1.5-2.1 2.4-2.3 1-.1 1.6.7 1.2 2-.4 1.1-1.5 2.2-2.6 2.3zM12.5 16.7c-.9.2-1.2-.4-.7-1.3.5-1 1.4-1.7 2.4-2 1-.3 1.4.2 1 1.2a4.1 4.1 0 01-2.6 2.1zM1.2 54.6C.6 54.3.1 53 0 51.9c0-1.2.4-2 1-1.8.6.3 1.3 1.5 1.3 2.8 0 1.3-.5 2-1.1 1.7zM1 46.2c-.6-.2-1-1.4-1-2.6.2-1.3.8-2.3 1.4-2.2.7.1 1.3 1.4 1.2 2.7-.2 1.4-.8 2.3-1.5 2.1zM2 37.4c-.7 0-1-1-.8-2.3.2-1.3 1-2.3 1.6-2.3.7 0 1.1 1 .9 2.3-.3 1.3-1 2.4-1.8 2.3zM3.7 29c-.6 0-.9-.8-.5-2 .4-1.1 1.2-2.2 1.9-2.3.6-.2 1 .6.6 1.8-.3 1.2-1.2 2.3-2 2.4zM12.5 57.5c-1.2-.1-2.2-1.4-2.2-2.9s1-2.6 2.2-2.5c1.3 0 2.3 1.3 2.3 2.9 0 1.5-1 2.6-2.3 2.4zM43.2 17.2c-1.6-.2-2.8-1.4-2.6-2.6.2-1.2 1.6-2 3.1-1.8 1.6.1 2.7 1.3 2.6 2.5-.1 1.2-1.6 2.1-3.1 2zM6.7 60.1c-.9-.1-1.8-1.2-2-2.5-.1-1.2.5-2.2 1.4-2.2 1 0 2 1.2 2 2.5.2 1.3-.4 2.3-1.3 2.2zM51.6 14.3c-1.4-.1-2.4-1.2-2.2-2.3.1-1 1.3-1.8 2.7-1.6 1.4.2 2.4 1.2 2.3 2.2-.1 1.1-1.4 2-2.8 1.7zM52.4 8.2c-1.3-.1-2.3-.9-2.1-1.6.1-.7 1.2-1 2.4-1 1.3.2 2.3 1 2.2 1.6 0 .7-1.2 1.2-2.5 1zM45.4 5.6c-1.3-.2-2.3-.7-2.2-1.1.1-.4 1.2-.6 2.5-.5 1.2.2 2.2.7 2.2 1 0 .4-1.1.7-2.5.5zM58.8 11.4c-1.3-.4-2-1.3-1.8-2 .2-.6 1.4-.8 2.6-.4 1.2.3 2 1.2 1.9 1.8-.2.7-1.4 1-2.7.6zM64.4 15c-1.1-.4-1.8-1.2-1.5-1.8.2-.5 1.2-.6 2.2-.2 1 .4 1.8 1.1 1.6 1.6-.2.6-1.2.8-2.3.4z" fill="#00ABC8"/>
    <path d="M54.2 49.4h-.8L36.7 24.1H40l14 21.8L68.3 24h3.5l-17 25.3h-.6zM106.7 49.4V28.8c0-.3 0-.5-.2-.8a2.4 2.4 0 00-1.9-1.1h-.3l-1.2.3a2 2 0 00-1 1.1 82.4 82.4 0 01-2 4.6l-1.6 3.3-2.2 4.5-3 6.1c-.2.7-.6 1.3-1.1 1.8a2.3 2.3 0 01-1.7.8h-.6c-.7 0-1.3-.2-1.8-.6-.6-.6-1-1.2-1.3-2L78 28.5l-.5-.8-.6-.5-1-.2h-.4c-.2 0-.5 0-.7.2l-.7.5-.4.6c-.2.2-.2.4-.3.7v20.5h-2.8V28.7c0-.6.2-1.2.4-1.7l1-1.4a5.3 5.3 0 013.4-1.5h.6a4.5 4.5 0 011.7.3l.8.4c.6.4 1 .9 1.5 1.4l.4.7.2.5 8.8 18.4.2.5c.1.2.3.3.4.3h.2l.4-.4.2-.3 8.8-18.5 1-1.5c.3-.5.8-1 1.4-1.2a4.6 4.6 0 012.2-.6h.6c.6 0 1.2.2 1.7.5A6 6 0 01109 27c.3.4.5 1 .5 1.5v20.8h-2.8zM136 49.4h-24.2v-2.7H136c.5 0 1.1-.1 1.6-.4a4.3 4.3 0 001.4-7 4.2 4.2 0 00-3-1.2h-18.5c-1 0-1.9-.1-2.7-.5-.9-.3-1.6-.9-2.3-1.5a7 7 0 01-2-5 7 7 0 017-7h24.1v2.7h-24.1a4.6 4.6 0 00-3 1.3l-1 1.3c-.1.6-.3 1.1-.3 1.7a5 5 0 001.3 3 3.8 3.8 0 003 1.3H136c1 0 1.9.1 2.7.5a7 7 0 014.3 6.5 7.1 7.1 0 01-4.3 6.5 7 7 0 01-2.7.5z" fill="#DFDFDF"/>
  </g>
  <defs>
    <clipPath id="clip0">
      <path fill="#fff" d="M0 0h143v64H0z"/>
    </clipPath>
  </defs>
</svg>
