<svg fill="none" xmlns="http://www.w3.org/2000/svg" viewBox="0 0 215 120"><path d="M11.608 116h3.67v-.625h-2.704v-.045l1.307-1.398c1-1.071 1.295-1.571 1.295-2.216 0-.898-.727-1.614-1.75-1.614-1.02 0-1.795.693-1.795 1.716h.67c0-.662.43-1.102 1.102-1.102.631 0 1.114.386 1.114 1 0 .537-.315.935-.989 1.67l-1.92 2.103V116zm6.581.08c1.285 0 2.023-1.089 2.023-2.989 0-1.886-.75-2.989-2.023-2.989-1.272 0-2.022 1.103-2.022 2.989 0 1.9.738 2.989 2.022 2.989zm0-.625c-.846 0-1.34-.85-1.34-2.364 0-1.511.5-2.375 1.34-2.375.841 0 1.341.864 1.341 2.375 0 1.514-.494 2.364-1.34 2.364zm4.806-5.273h-.625c-.037.059-.454.863-1.352.863v.591c.668 0 1.145-.272 1.227-.431h.046V116h.704v-5.818zm3.474 5.898c1.128 0 1.966-.708 1.966-1.66 0-.738-.438-1.275-1.17-1.397v-.046c.587-.179.954-.662.954-1.318 0-.824-.65-1.557-1.728-1.557-1.005 0-1.84.62-1.875 1.534h.682c.026-.579.577-.92 1.182-.92.642 0 1.057.389 1.057.977 0 .614-.48 1.012-1.17 1.012H25.9v.625h.465c.884 0 1.375.448 1.375 1.09 0 .617-.536 1.035-1.284 1.035-.673 0-1.207-.347-1.25-.91h-.716c.043.915.85 1.535 1.978 1.535z" fill="#A4A8B4"/><path d="M47.51 12.364h.955v-2.25h2.25v-.955h-2.25V6.91h-.955v2.25h-2.25v.955h2.25v2.25zm7.715 1.755c1.662 0 2.881-1.227 2.881-2.897 0-1.692-1.176-2.932-2.778-2.932-.589 0-1.16.209-1.518.494h-.05l.306-2.574h3.648v-.937H53.18l-.529 4.295.99.12c.361-.26.98-.448 1.516-.444 1.112.009 1.926.853 1.926 1.995 0 1.12-.784 1.943-1.858 1.943-.895 0-1.606-.575-1.687-1.364h-1.023c.064 1.33 1.21 2.301 2.71 2.301zm4.13-1.909h4.107V14h1.006v-1.79h1.193v-.937h-1.193v-6h-1.279l-3.835 6.068v.87zm4.107-.937h-2.966v-.069l2.898-4.585h.068v4.654zm8.005 1.09c0 .955.597 1.756 1.704 1.756 1.091 0 1.688-.8 1.688-1.755v-.46c0-.955-.58-1.756-1.688-1.756-1.09 0-1.704.8-1.704 1.755v.46zM67.12 7.37c0 .955.597 1.756 1.705 1.756 1.09 0 1.687-.801 1.687-1.756v-.46c0-.954-.58-1.756-1.687-1.756-1.091 0-1.705.802-1.705 1.756v.46zM67.444 14h.972l6-8.727h-.972l-6 8.727zm4.892-2.097c0-.528.239-1.022.835-1.022.614 0 .819.494.819 1.022v.46c0 .529-.222 1.023-.819 1.023-.613 0-.835-.494-.835-1.022v-.46zM67.99 6.91c0-.528.238-1.023.835-1.023.614 0 .818.495.818 1.023v.46c0 .529-.222 1.023-.818 1.023-.614 0-.835-.494-.835-1.023v-.46z" fill="#111213"/><path d="M51.588 116h3.67v-.625h-2.704v-.045l1.307-1.398c1-1.071 1.296-1.571 1.296-2.216 0-.898-.728-1.614-1.75-1.614-1.02 0-1.796.693-1.796 1.716h.67c0-.662.43-1.102 1.103-1.102.63 0 1.114.386 1.114 1 0 .537-.316.935-.99 1.67l-1.92 2.103V116zm6.582.08c1.284 0 2.023-1.089 2.023-2.989 0-1.886-.75-2.989-2.023-2.989-1.273 0-2.023 1.103-2.023 2.989 0 1.9.739 2.989 2.023 2.989zm0-.625c-.847 0-1.341-.85-1.341-2.364 0-1.511.5-2.375 1.34-2.375.842 0 1.342.864 1.342 2.375 0 1.514-.495 2.364-1.341 2.364zm4.806-5.273h-.625c-.037.059-.455.863-1.352.863v.591c.667 0 1.144-.272 1.227-.431h.045V116h.705v-5.818zm1.371 4.625h2.739V116h.67v-1.193h.796v-.625h-.796v-4h-.852l-2.557 4.045v.58zm2.739-.625h-1.978v-.046l1.932-3.056h.046v3.102z" fill="#A4A8B4"/><path opacity=".3" fill="#E42C64" d="M52 80h17v21H52zM11 100h17v1H11z"/><path d="M92.51 12.364h.955v-2.25h2.25v-.955h-2.25V6.91h-.955v2.25h-2.25v.955h2.25v2.25zm7.715 1.755c1.662 0 2.881-1.227 2.881-2.897 0-1.692-1.176-2.932-2.778-2.932-.588 0-1.16.209-1.517.494h-.052l.307-2.574h3.648v-.937H98.18l-.529 4.295.99.12c.361-.26.98-.448 1.516-.444 1.112.009 1.926.853 1.926 1.995 0 1.12-.784 1.943-1.858 1.943-.895 0-1.606-.575-1.687-1.364h-1.023c.064 1.33 1.21 2.301 2.71 2.301zm4.129-1.909h4.108V14h1.006v-1.79h1.193v-.937h-1.193v-6h-1.279l-3.835 6.068v.87zm4.108-.937h-2.966v-.069l2.898-4.585h.068v4.654zm8.005 1.09c0 .955.596 1.756 1.704 1.756 1.091 0 1.688-.8 1.688-1.755v-.46c0-.955-.58-1.756-1.688-1.756-1.09 0-1.704.8-1.704 1.755v.46zM112.12 7.37c0 .955.597 1.756 1.705 1.756 1.091 0 1.687-.801 1.687-1.756v-.46c0-.954-.579-1.756-1.687-1.756-1.091 0-1.705.802-1.705 1.756v.46zm.324 6.631h.972l6-8.727h-.972l-6 8.727zm4.892-2.097c0-.528.239-1.022.835-1.022.614 0 .819.494.819 1.022v.46c0 .529-.222 1.023-.819 1.023-.613 0-.835-.494-.835-1.022v-.46zM112.99 6.91c0-.528.238-1.023.835-1.023.613 0 .818.495.818 1.023v.46c0 .529-.222 1.023-.818 1.023-.614 0-.835-.494-.835-1.023v-.46z" fill="#111213"/><path d="M96.721 116h3.671v-.625h-2.705v-.045l1.307-1.398c1-1.071 1.295-1.571 1.295-2.216 0-.898-.727-1.614-1.75-1.614-1.02 0-1.795.693-1.795 1.716h.67c0-.662.43-1.102 1.103-1.102.63 0 1.113.386 1.113 1 0 .537-.315.935-.988 1.67l-1.92 2.103V116zm6.582.08c1.284 0 2.022-1.089 2.022-2.989 0-1.886-.75-2.989-2.022-2.989-1.273 0-2.023 1.103-2.023 2.989 0 1.9.739 2.989 2.023 2.989zm0-.625c-.847 0-1.341-.85-1.341-2.364 0-1.511.5-2.375 1.341-2.375s1.341.864 1.341 2.375c0 1.514-.495 2.364-1.341 2.364zm4.806-5.273h-.625c-.037.059-.455.863-1.353.863v.591c.668 0 1.145-.272 1.228-.431h.045V116h.705v-5.818zm3.325 5.898c1.108 0 1.921-.819 1.921-1.932 0-1.128-.784-1.955-1.852-1.955-.393 0-.773.139-1.012.33h-.034l.205-1.716h2.431v-.625h-3.022l-.353 2.863.66.08c.241-.173.653-.298 1.011-.295.741.005 1.284.568 1.284 1.329 0 .747-.523 1.296-1.239 1.296-.596 0-1.071-.384-1.125-.91h-.681c.042.887.806 1.535 1.806 1.535z" fill="#A4A8B4"/><path opacity=".5" fill="#E42C64" d="M97 58h17v43H97z"/><path d="M137.733 12.364h.955v-2.25h2.25v-.955h-2.25V6.91h-.955v2.25h-2.25v.955h2.25v2.25zm4.783-.154h4.108V14h1.006v-1.79h1.193v-.937h-1.193v-6h-1.279l-3.835 6.068v.87zm4.108-.937h-2.966v-.069l2.898-4.585h.068v4.654zM150.453 14h1.108l3.886-7.739v-.988h-5.591v.937h4.5v.068L150.453 14zm10.791-1.636c0 .954.597 1.755 1.705 1.755 1.091 0 1.687-.8 1.687-1.755v-.46c0-.955-.579-1.756-1.687-1.756-1.091 0-1.705.8-1.705 1.755v.46zm-4.346-4.995c0 .955.596 1.756 1.704 1.756 1.091 0 1.688-.801 1.688-1.756v-.46c0-.954-.58-1.756-1.688-1.756-1.091 0-1.704.802-1.704 1.756v.46zm.323 6.631h.972l6-8.727h-.972l-6 8.727zm4.893-2.097c0-.528.238-1.022.835-1.022.613 0 .818.494.818 1.022v.46c0 .529-.222 1.023-.818 1.023-.614 0-.835-.494-.835-1.022v-.46zm-4.347-4.994c0-.528.239-1.023.835-1.023.614 0 .818.495.818 1.023v.46c0 .529-.221 1.023-.818 1.023-.613 0-.835-.494-.835-1.023v-.46z" fill="#111213"/><path d="M141.659 116h3.67v-.625h-2.704v-.045l1.306-1.398c1-1.071 1.296-1.571 1.296-2.216 0-.898-.727-1.614-1.75-1.614-1.02 0-1.796.693-1.796 1.716h.671c0-.662.429-1.102 1.102-1.102.631 0 1.114.386 1.114 1 0 .537-.316.935-.989 1.67l-1.92 2.103V116zm6.581.08c1.284 0 2.023-1.089 2.023-2.989 0-1.886-.75-2.989-2.023-2.989-1.273 0-2.023 1.103-2.023 2.989 0 1.9.739 2.989 2.023 2.989zm0-.625c-.846 0-1.341-.85-1.341-2.364 0-1.511.5-2.375 1.341-2.375s1.341.864 1.341 2.375c0 1.514-.494 2.364-1.341 2.364zm4.806-5.273h-.625c-.037.059-.454.863-1.352.863v.591c.667 0 1.145-.272 1.227-.431h.046V116h.704v-5.818zm3.439 5.898c1.177.014 1.944-.873 1.944-1.955 0-1.125-.833-1.932-1.83-1.932-.599 0-1.114.293-1.432.773h-.045c.003-1.429.554-2.25 1.454-2.25.614 0 .983.386 1.114.92h.693c-.142-.914-.829-1.545-1.807-1.545-1.309 0-2.113 1.159-2.113 3.227 0 2.151 1.068 2.75 2.022 2.762zm0-.625c-.73 0-1.264-.623-1.261-1.319.003-.696.563-1.318 1.284-1.318.713 0 1.239.585 1.239 1.307 0 .739-.548 1.33-1.262 1.33z" fill="#A4A8B4"/><path opacity=".8" fill="#E42C64" d="M142 42h17v59h-17z"/><path d="M182.762 12.364h.955v-2.25h2.25v-.955h-2.25V6.91h-.955v2.25h-2.25v.955h2.25v2.25zm7.937 1.755c1.692 0 2.949-1.06 2.949-2.488 0-1.108-.657-1.914-1.756-2.097v-.068c.882-.269 1.432-.993 1.432-1.977 0-1.236-.976-2.336-2.591-2.336-1.509 0-2.761.93-2.813 2.302h1.023c.039-.87.865-1.381 1.773-1.381.963 0 1.585.584 1.585 1.466 0 .92-.72 1.517-1.756 1.517h-.698v.937h.698c1.326 0 2.063.674 2.063 1.637 0 .924-.805 1.55-1.926 1.55-1.01 0-1.811-.52-1.875-1.363h-1.074c.064 1.372 1.274 2.301 2.966 2.301zm4.724-.119h1.108l3.887-7.739v-.988h-5.591v.937h4.5v.068L195.423 14zm10.792-1.636c0 .954.597 1.755 1.704 1.755 1.091 0 1.688-.8 1.688-1.755v-.46c0-.955-.58-1.756-1.688-1.756-1.09 0-1.704.8-1.704 1.755v.46zm-4.347-4.995c0 .955.597 1.756 1.705 1.756 1.091 0 1.687-.801 1.687-1.756v-.46c0-.954-.579-1.756-1.687-1.756-1.091 0-1.705.802-1.705 1.756v.46zm.324 6.631h.972l6-8.727h-.972l-6 8.727zm4.892-2.097c0-.528.239-1.022.835-1.022.614 0 .819.494.819 1.022v.46c0 .529-.222 1.023-.819 1.023-.613 0-.835-.494-.835-1.022v-.46zm-4.346-4.994c0-.528.238-1.023.835-1.023.614 0 .818.495.818 1.023v.46c0 .529-.222 1.023-.818 1.023-.614 0-.835-.494-.835-1.023v-.46z" fill="#111213"/><path d="M186.87 116h3.67v-.625h-2.704v-.045l1.306-1.398c1-1.071 1.296-1.571 1.296-2.216 0-.898-.727-1.614-1.75-1.614-1.02 0-1.796.693-1.796 1.716h.671c0-.662.429-1.102 1.102-1.102.631 0 1.114.386 1.114 1 0 .537-.316.935-.989 1.67l-1.92 2.103V116zm6.581.08c1.284 0 2.023-1.089 2.023-2.989 0-1.886-.75-2.989-2.023-2.989-1.273 0-2.023 1.103-2.023 2.989 0 1.9.739 2.989 2.023 2.989zm0-.625c-.846 0-1.341-.85-1.341-2.364 0-1.511.5-2.375 1.341-2.375s1.341.864 1.341 2.375c0 1.514-.494 2.364-1.341 2.364zm4.806-5.273h-.625c-.037.059-.455.863-1.352.863v.591c.667 0 1.145-.272 1.227-.431h.045V116h.705v-5.818zm1.689 5.818h.739l2.591-5.159v-.659h-3.727v.625h3v.045L199.946 116z" fill="#A4A8B4"/><path fill="#E42C64" d="M187 28h17v73h-17z"/><path fill="#D7DDE1" d="M2 101h209v-.5H2z"/></svg>