<svg fill="none" xmlns="http://www.w3.org/2000/svg" viewBox="0 0 287 120"><path d="M18.306 116h3.67v-.625h-2.704v-.045l1.306-1.398c1-1.071 1.296-1.571 1.296-2.216 0-.898-.727-1.614-1.75-1.614-1.02 0-1.796.693-1.796 1.716h.67c0-.662.43-1.102 1.103-1.102.63 0 1.114.386 1.114 1 0 .537-.316.935-.989 1.67l-1.92 2.103V116zm6.581.08c1.284 0 2.023-1.089 2.023-2.989 0-1.886-.75-2.989-2.023-2.989-1.273 0-2.023 1.103-2.023 2.989 0 1.9.739 2.989 2.023 2.989zm0-.625c-.846 0-1.34-.85-1.34-2.364 0-1.511.5-2.375 1.34-2.375.841 0 1.341.864 1.341 2.375 0 1.514-.494 2.364-1.34 2.364zm4.806-5.273h-.625c-.037.059-.455.863-1.352.863v.591c.667 0 1.145-.272 1.227-.431h.045V116h.705v-5.818zm3.473 5.898c1.128 0 1.966-.708 1.966-1.66 0-.738-.437-1.275-1.17-1.397v-.046c.588-.179.954-.662.954-1.318 0-.824-.65-1.557-1.727-1.557-1.005 0-1.84.62-1.875 1.534h.682c.026-.579.577-.92 1.182-.92.642 0 1.057.389 1.057.977 0 .614-.48 1.012-1.17 1.012h-.467v.625h.466c.884 0 1.375.448 1.375 1.09 0 .617-.537 1.035-1.284 1.035-.673 0-1.207-.347-1.25-.91h-.716c.043.915.85 1.535 1.977 1.535z" fill="#A4A8B4"/><path d="M68.644 11.5h.875V9.437h2.063v-.874h-2.063V6.5h-.875v2.063h-2.062v.874h2.062V11.5zm7.072 1.61c1.524 0 2.64-1.126 2.64-2.657 0-1.55-1.077-2.687-2.546-2.687-.54 0-1.063.191-1.39.453h-.048l.282-2.36h3.343V5h-4.156l-.484 3.938.906.109c.332-.238.898-.41 1.39-.406 1.02.007 1.766.78 1.766 1.828 0 1.027-.718 1.781-1.703 1.781-.82 0-1.472-.527-1.547-1.25h-.937c.058 1.219 1.11 2.11 2.484 2.11zm3.785-1.75h3.766V13h.922v-1.64h1.093v-.86H84.19V5h-1.172L79.5 10.563v.796zm3.766-.86h-2.72v-.063l2.657-4.203h.063V10.5zm7.337 1c0 .875.547 1.61 1.563 1.61 1 0 1.547-.735 1.547-1.61v-.422c0-.875-.532-1.61-1.547-1.61-1 0-1.563.735-1.563 1.61v.422zM86.62 6.922c0 .875.547 1.61 1.562 1.61 1 0 1.547-.735 1.547-1.61V6.5c0-.875-.531-1.61-1.547-1.61-1 0-1.562.735-1.562 1.61v.422zM86.917 13h.89l5.5-8h-.89l-5.5 8zm4.484-1.922c0-.484.219-.937.766-.937.562 0 .75.453.75.937v.422c0 .484-.203.938-.75.938-.563 0-.766-.454-.766-.938v-.422zM87.417 6.5c0-.484.218-.938.765-.938.563 0 .75.454.75.938v.422c0 .484-.203.937-.75.937-.562 0-.765-.453-.765-.937V6.5z" fill="#111213"/><path d="M71.681 116h3.67v-.625h-2.704v-.045l1.307-1.398c1-1.071 1.296-1.571 1.296-2.216 0-.898-.728-1.614-1.75-1.614-1.02 0-1.796.693-1.796 1.716h.67c0-.662.43-1.102 1.103-1.102.63 0 1.113.386 1.113 1 0 .537-.315.935-.988 1.67l-1.92 2.103V116zm6.582.08c1.284 0 2.022-1.089 2.022-2.989 0-1.886-.75-2.989-2.022-2.989-1.273 0-2.023 1.103-2.023 2.989 0 1.9.739 2.989 2.023 2.989zm0-.625c-.847 0-1.341-.85-1.341-2.364 0-1.511.5-2.375 1.34-2.375.842 0 1.342.864 1.342 2.375 0 1.514-.495 2.364-1.341 2.364zm4.806-5.273h-.625c-.037.059-.455.863-1.353.863v.591c.668 0 1.145-.272 1.228-.431h.045V116h.705v-5.818zm1.37 4.625h2.74V116h.67v-1.193h.795v-.625h-.795v-4h-.852l-2.557 4.045v.58zm2.74-.625H85.2v-.046l1.932-3.056h.046v3.102z" fill="#A4A8B4"/><path opacity=".3" fill="#E42C64" d="M69.414 80h22.693v21H69.414zM14.684 100h22.693v1H14.684z"/><path d="M128.714 11.5h.875V9.437h2.062v-.874h-2.062V6.5h-.875v2.063h-2.063v.874h2.063V11.5zm7.072 1.61c1.523 0 2.641-1.126 2.641-2.657 0-1.55-1.079-2.687-2.547-2.687-.539 0-1.063.191-1.391.453h-.047l.281-2.36h3.344V5h-4.156l-.484 3.938.906.109c.332-.238.898-.41 1.39-.406 1.02.007 1.766.78 1.766 1.828 0 1.027-.719 1.781-1.703 1.781-.82 0-1.473-.527-1.547-1.25h-.937c.058 1.219 1.109 2.11 2.484 2.11zm3.785-1.75h3.765V13h.922v-1.64h1.094v-.86h-1.094V5h-1.172l-3.515 5.563v.796zm3.765-.86h-2.718v-.063l2.656-4.203h.062V10.5zm7.338 1c0 .875.547 1.61 1.563 1.61 1 0 1.546-.735 1.546-1.61v-.422c0-.875-.531-1.61-1.546-1.61-1 0-1.563.735-1.563 1.61v.422zm-3.984-4.578c0 .875.547 1.61 1.562 1.61 1 0 1.547-.735 1.547-1.61V6.5c0-.875-.531-1.61-1.547-1.61-1 0-1.562.735-1.562 1.61v.422zm.297 6.078h.89l5.5-8h-.89l-5.5 8zm4.484-1.922c0-.484.219-.937.766-.937.562 0 .75.453.75.937v.422c0 .484-.204.938-.75.938-.563 0-.766-.454-.766-.938v-.422zM147.487 6.5c0-.484.218-.938.765-.938.563 0 .75.454.75.938v.422c0 .484-.203.937-.75.937-.562 0-.765-.453-.765-.937V6.5z" fill="#111213"/><path d="M131.884 116h3.67v-.625h-2.704v-.045l1.307-1.398c1-1.071 1.295-1.571 1.295-2.216 0-.898-.727-1.614-1.75-1.614-1.02 0-1.795.693-1.795 1.716h.67c0-.662.429-1.102 1.102-1.102.631 0 1.114.386 1.114 1 0 .537-.315.935-.989 1.67l-1.92 2.103V116zm6.581.08c1.285 0 2.023-1.089 2.023-2.989 0-1.886-.75-2.989-2.023-2.989-1.272 0-2.022 1.103-2.022 2.989 0 1.9.738 2.989 2.022 2.989zm0-.625c-.846 0-1.34-.85-1.34-2.364 0-1.511.5-2.375 1.34-2.375.841 0 1.341.864 1.341 2.375 0 1.514-.494 2.364-1.341 2.364zm4.806-5.273h-.625c-.037.059-.454.863-1.352.863v.591c.668 0 1.145-.272 1.227-.431h.046V116h.704v-5.818zm3.326 5.898c1.108 0 1.921-.819 1.921-1.932 0-1.128-.785-1.955-1.853-1.955-.392 0-.772.139-1.011.33h-.034l.204-1.716h2.432v-.625h-3.023l-.352 2.863.659.08c.242-.173.654-.298 1.012-.295.741.005 1.284.568 1.284 1.329 0 .747-.523 1.296-1.239 1.296-.596 0-1.071-.384-1.125-.91h-.682c.043.887.807 1.535 1.807 1.535z" fill="#A4A8B4"/><path opacity=".5" fill="#E42C64" d="M129.484 58h22.693v43h-22.693z"/><path d="M188.988 11.5h.875V9.437h2.062v-.874h-2.062V6.5h-.875v2.063h-2.063v.874h2.063V11.5zm4.384-.14h3.766V13h.922v-1.64h1.094v-.86h-1.094V5h-1.172l-3.516 5.563v.796zm3.766-.86h-2.719v-.063l2.656-4.203h.063V10.5zm3.509 2.5h1.016l3.563-7.094V5h-5.125v.86h4.125v.062L200.647 13zm9.893-1.5c0 .875.547 1.61 1.562 1.61 1 0 1.547-.735 1.547-1.61v-.422c0-.875-.531-1.61-1.547-1.61-1 0-1.562.735-1.562 1.61v.422zm-3.985-4.578c0 .875.547 1.61 1.563 1.61 1 0 1.547-.735 1.547-1.61V6.5c0-.875-.531-1.61-1.547-1.61-1 0-1.563.735-1.563 1.61v.422zm.297 6.078h.891l5.5-8h-.891l-5.5 8zm4.485-1.922c0-.484.218-.937.765-.937.563 0 .75.453.75.937v.422c0 .484-.203.938-.75.938-.562 0-.765-.454-.765-.938v-.422zM207.352 6.5c0-.484.219-.938.766-.938.562 0 .75.454.75.938v.422c0 .484-.203.937-.75.937-.563 0-.766-.453-.766-.937V6.5z" fill="#111213"/><path d="M191.891 116h3.671v-.625h-2.705v-.045l1.307-1.398c1-1.071 1.295-1.571 1.295-2.216 0-.898-.727-1.614-1.75-1.614-1.019 0-1.795.693-1.795 1.716h.67c0-.662.429-1.102 1.103-1.102.63 0 1.113.386 1.113 1 0 .537-.315.935-.988 1.67l-1.921 2.103V116zm6.582.08c1.284 0 2.022-1.089 2.022-2.989 0-1.886-.75-2.989-2.022-2.989-1.273 0-2.023 1.103-2.023 2.989 0 1.9.739 2.989 2.023 2.989zm0-.625c-.847 0-1.341-.85-1.341-2.364 0-1.511.5-2.375 1.341-2.375s1.341.864 1.341 2.375c0 1.514-.495 2.364-1.341 2.364zm4.806-5.273h-.625c-.037.059-.455.863-1.353.863v.591c.668 0 1.145-.272 1.228-.431h.045V116h.705v-5.818zm3.439 5.898c1.176.014 1.943-.873 1.943-1.955 0-1.125-.832-1.932-1.829-1.932-.6 0-1.114.293-1.432.773h-.046c.003-1.429.554-2.25 1.455-2.25.614 0 .983.386 1.114.92h.693c-.142-.914-.83-1.545-1.807-1.545-1.31 0-2.114 1.159-2.114 3.227 0 2.151 1.069 2.75 2.023 2.762zm0-.625c-.73 0-1.264-.623-1.261-1.319.003-.696.562-1.318 1.284-1.318.713 0 1.238.585 1.238 1.307 0 .739-.548 1.33-1.261 1.33z" fill="#A4A8B4"/><path opacity=".8" fill="#E42C64" d="M189.553 42h22.693v59h-22.693z"/><path d="M249.085 11.5h.875V9.437h2.062v-.874h-2.062V6.5h-.875v2.063h-2.063v.874h2.063V11.5zm7.275 1.61c1.55 0 2.703-.973 2.703-2.282 0-1.015-.602-1.754-1.61-1.922v-.062c.809-.246 1.313-.91 1.313-1.813 0-1.133-.895-2.14-2.375-2.14-1.383 0-2.531.851-2.578 2.109h.937c.035-.797.793-1.266 1.625-1.266.883 0 1.453.536 1.453 1.344 0 .844-.66 1.39-1.609 1.39h-.641v.86h.641c1.215 0 1.891.617 1.891 1.5 0 .848-.739 1.422-1.766 1.422-.926 0-1.66-.477-1.719-1.25h-.984c.059 1.258 1.168 2.11 2.719 2.11zm4.33-.11h1.016l3.563-7.094V5h-5.125v.86h4.125v.062L260.69 13zm9.893-1.5c0 .875.547 1.61 1.562 1.61 1 0 1.547-.735 1.547-1.61v-.422c0-.875-.531-1.61-1.547-1.61-1 0-1.562.735-1.562 1.61v.422zm-3.985-4.578c0 .875.547 1.61 1.563 1.61 1 0 1.547-.735 1.547-1.61V6.5c0-.875-.531-1.61-1.547-1.61-1 0-1.563.735-1.563 1.61v.422zm.297 6.078h.891l5.5-8h-.891l-5.5 8zm4.485-1.922c0-.484.218-.937.765-.937.563 0 .75.453.75.937v.422c0 .484-.203.938-.75.938-.562 0-.765-.454-.765-.938v-.422zM267.395 6.5c0-.484.219-.938.766-.938.562 0 .75.454.75.938v.422c0 .484-.203.937-.75.937-.563 0-.766-.453-.766-.937V6.5z" fill="#111213"/><path d="M252.172 116h3.67v-.625h-2.704v-.045l1.307-1.398c1-1.071 1.295-1.571 1.295-2.216 0-.898-.727-1.614-1.75-1.614-1.02 0-1.795.693-1.795 1.716h.67c0-.662.429-1.102 1.102-1.102.631 0 1.114.386 1.114 1 0 .537-.315.935-.989 1.67l-1.92 2.103V116zm6.582.08c1.284 0 2.022-1.089 2.022-2.989 0-1.886-.75-2.989-2.022-2.989-1.273 0-2.023 1.103-2.023 2.989 0 1.9.738 2.989 2.023 2.989zm0-.625c-.847 0-1.341-.85-1.341-2.364 0-1.511.5-2.375 1.341-2.375.84 0 1.34.864 1.34 2.375 0 1.514-.494 2.364-1.34 2.364zm4.805-5.273h-.625c-.037.059-.454.863-1.352.863v.591c.668 0 1.145-.272 1.227-.431h.046V116h.704v-5.818zm1.69 5.818h.738l2.591-5.159v-.659h-3.727v.625h3v.045L265.249 116z" fill="#A4A8B4"/><path fill="#E42C64" d="M249.624 28h22.693v73h-22.693z"/><path fill="#D7DDE1" d="M2.67 101h278.99v-.5H2.67z"/></svg>