<svg width="158" height="34" viewBox="0 0 158 34" fill="none" xmlns="http://www.w3.org/2000/svg">
<g clip-path="url(#clip0)">
<path d="M129.288 10.4487V1.9744C129.288 0.456841 130.904 -0.491974 132.148 0.267261L151.046 11.3334L147.751 18.6693H147.626L144.083 10.6374C144.021 10.5119 143.897 10.3855 143.71 10.3855H129.288V10.4487ZM141.658 13.6734H137.121V25.4357C137.121 25.6261 136.935 25.8789 136.685 25.8789H134.074C133.889 25.8789 133.64 25.6893 133.64 25.4357V13.6734H129.288V31.1908C129.288 32.7084 130.904 33.6572 132.148 32.898L146.507 24.4877L141.658 13.6734ZM157.014 14.875L153.968 13.1047L149.616 22.6533L157.075 18.2902C158.319 17.531 158.319 15.6343 157.014 14.875ZM60.1611 14.6855C60.1611 12.4086 58.2958 10.5119 55.9964 10.5119H50.3391C50.1532 10.5119 49.9664 10.7015 49.9664 10.891V23.7285C49.9664 23.9181 50.09 24.1076 50.3382 24.1076H52.5771C52.763 24.1076 52.9498 23.9181 52.9498 23.7285V18.7957H54.2557L56.8041 23.9181C56.8664 23.9822 56.9286 24.1076 57.1145 24.1076H59.6639C59.9743 24.1076 60.0988 23.7917 59.9743 23.5389L57.3636 18.6062C58.9799 17.8478 60.1611 16.4558 60.1611 14.6855ZM55.7473 16.2662H52.9498V13.231H55.7473C56.5559 13.231 57.1768 13.863 57.1768 14.6855C57.1768 15.5078 56.555 16.2662 55.7473 16.2662ZM121.331 10.8279V12.9783C121.331 13.1679 121.145 13.3574 120.958 13.3574H118.16V24.0454C118.16 24.2349 117.975 24.4245 117.788 24.4245H115.425C115.239 24.4245 115.053 24.2349 115.053 24.0445V13.4207H112.256C112.068 13.4207 111.882 13.231 111.882 13.0415V10.891C111.882 10.7015 112.068 10.5119 112.255 10.5119H120.958C121.207 10.4478 121.331 10.6383 121.331 10.8279ZM68.615 17.5941C68.615 19.8078 70.2322 21.6422 72.4693 21.6422C73.4025 21.6422 74.3969 21.3253 75.081 20.6933C75.149 20.6323 75.2376 20.5985 75.3296 20.5985C75.4216 20.5985 75.5102 20.6323 75.5782 20.6933L77.1319 22.3373C77.192 22.4082 77.2252 22.4976 77.2252 22.5901C77.2252 22.6826 77.192 22.772 77.1319 22.8429C75.8264 24.1709 74.1488 24.8037 72.407 24.8037C68.4915 24.8037 65.3203 21.6422 65.3203 17.6574C65.3203 13.6734 68.4915 10.4487 72.407 10.4487C74.3346 10.4487 75.8273 11.0807 77.1319 12.2822C77.3184 12.4718 77.3184 12.6614 77.1319 12.8519L75.5782 14.4326C75.5102 14.494 75.4213 14.528 75.3291 14.528C75.2369 14.528 75.148 14.494 75.0801 14.4326C74.3346 13.8007 73.4025 13.4207 72.4693 13.4207C70.2313 13.4847 68.615 15.3805 68.615 17.5941ZM11.486 11.0183L7.19671 17.4678V23.6653C7.19671 23.8549 7.01083 24.0445 6.82402 24.0445H4.586C4.40011 24.0445 4.2133 23.8549 4.2133 23.6653V17.531L0.0467481 11.0175C-0.0777932 10.7647 0.0467481 10.4487 0.358101 10.4487H2.84428C2.96882 10.4487 3.09336 10.5751 3.15563 10.6383L5.82862 14.6222L8.50163 10.6383C8.56391 10.5742 8.62618 10.4487 8.81201 10.4487H11.2992C11.4851 10.4487 11.6709 10.7647 11.4851 11.0175L11.486 11.0183ZM87.6994 10.7015C87.6717 10.6441 87.6277 10.5958 87.5722 10.5622C87.5175 10.5286 87.4535 10.5111 87.3888 10.5119H87.2031C87.0774 10.5119 86.9541 10.6383 86.8917 10.7015L80.7998 24.1076C80.7713 24.1603 80.7574 24.2193 80.759 24.2788C80.7613 24.3383 80.7782 24.3964 80.8098 24.4473C80.8407 24.4983 80.8846 24.5404 80.9378 24.5697C80.9902 24.5989 81.0495 24.6142 81.1104 24.6141H83.2862C83.4411 24.6174 83.5929 24.5693 83.717 24.4774C83.8411 24.3856 83.9298 24.2554 83.9698 24.1076L84.6542 22.5269H90L90.6837 24.1076C90.8702 24.4877 90.9943 24.6141 91.3681 24.6141H93.5431C93.8545 24.6141 93.9786 24.3613 93.8545 24.1076L87.6994 10.7015ZM85.835 19.8078L87.3271 16.5199L88.8185 19.8078H85.835ZM22.2411 10.4478C18.4491 10.4478 15.4025 13.547 15.4025 17.4678C15.4025 21.3253 18.4482 24.4245 22.2411 24.4245C26.0331 24.4245 29.0788 21.3253 29.0788 17.4678C29.0788 13.6102 26.0331 10.4497 22.2411 10.4497V10.4478ZM22.2411 21.3253C20.1889 21.3253 18.4491 19.555 18.4491 17.4678C18.4491 15.3183 20.1889 13.548 22.2411 13.548C24.3546 13.548 26.0331 15.3183 26.0331 17.4678C26.0331 19.555 24.2923 21.3253 22.2411 21.3253ZM43.9986 10.8279V18.7957C44.0001 19.5034 43.8595 20.2043 43.585 20.8582C43.3103 21.512 42.9072 22.1059 42.3987 22.6056C41.8903 23.1053 41.2865 23.5009 40.6222 23.7697C39.9579 24.0385 39.2462 24.1752 38.5281 24.1718C35.5447 24.1718 33.119 21.7054 33.119 18.7957V10.8279C33.119 10.6383 33.3058 10.4487 33.4925 10.4487H35.8551C36.041 10.4487 36.2269 10.6383 36.2269 10.8279V18.6693C36.2269 19.9974 37.2223 21.1357 38.5895 21.1357C39.9576 21.1357 40.9521 20.0605 40.9521 18.6693V10.8279C40.9521 10.6383 41.0765 10.4487 41.3247 10.4487H43.6873C43.8732 10.4487 43.9986 10.6383 43.9986 10.8279ZM106.971 20.6933C106.971 22.7174 105.23 24.8037 102.37 24.8037C99.8223 24.8037 98.3925 23.7285 97.9563 23.2861C97.7706 23.0966 97.7081 23.0334 97.833 22.7165L98.7648 21.0726C98.9513 20.8197 99.3243 20.883 99.4492 20.9462C99.5116 21.0093 100.941 22.0214 102.247 22.0214C103.055 22.0214 103.614 21.5149 103.614 20.8197C103.614 19.9973 102.93 19.3654 101.625 18.7957C99.9463 18.0997 97.833 16.7717 97.833 14.3695C97.833 12.4095 99.3244 10.3855 102.37 10.3855C104.423 10.3855 105.977 11.4598 106.536 11.9031C106.784 12.0295 106.722 12.4086 106.659 12.535L105.665 14.0535C105.542 14.2431 105.168 14.4326 104.982 14.3062C104.795 14.1799 103.365 13.1047 102.185 13.1047C101.5 13.1047 100.941 13.6102 100.941 14.1167C100.941 14.875 101.5 15.3805 103.055 16.0766C104.546 16.7726 106.971 17.9742 106.971 20.6924V20.6933Z" fill="white"/>
</g>
<defs>
<clipPath id="clip0">
<rect width="158" height="33.8863" fill="white"/>
</clipPath>
</defs>
</svg>
