<svg width="205" height="44" viewBox="0 0 205 44" fill="none" xmlns="http://www.w3.org/2000/svg">
<g clip-path="url(#clip0)">
<path d="M167.747 13.5674V2.5638C167.747 0.593312 169.844 -0.638687 171.457 0.34715L195.977 14.7161L191.702 24.2415H191.54L186.943 13.8123C186.863 13.6494 186.702 13.4853 186.459 13.4853H167.747V13.5674ZM183.797 17.7545H177.91V33.0273C177.91 33.2746 177.668 33.6028 177.344 33.6028H173.957C173.716 33.6028 173.393 33.3567 173.393 33.0273V17.7545H167.747V40.5001C167.747 42.4706 169.844 43.7026 171.457 42.7168L190.088 31.7964L183.797 17.7545ZM203.72 19.3147L199.768 17.016L194.122 29.4145L203.8 23.7492C205.414 22.7634 205.414 20.3006 203.72 19.3147ZM78.0569 19.0686C78.0569 16.1122 75.6367 13.6494 72.6534 13.6494H65.3132C65.072 13.6494 64.8296 13.8956 64.8296 14.1417V30.8106C64.8296 31.0568 64.99 31.3029 65.312 31.3029H68.2169C68.4581 31.3029 68.7005 31.0568 68.7005 30.8106V24.4056H70.3948L73.7013 31.0568C73.7821 31.14 73.8629 31.3029 74.1041 31.3029H77.4118C77.8146 31.3029 77.9761 30.8927 77.8146 30.5644L74.4272 24.1595C76.5243 23.1748 78.0569 21.3673 78.0569 19.0686ZM72.3302 21.1211H68.7005V17.1801H72.3302C73.3793 17.1801 74.1849 18.0007 74.1849 19.0686C74.1849 20.1364 73.3781 21.1211 72.3302 21.1211ZM157.423 14.0597V16.8519C157.423 17.0981 157.181 17.3442 156.939 17.3442H153.309V31.2221C153.309 31.4682 153.068 31.7144 152.826 31.7144H149.76C149.519 31.7144 149.278 31.4682 149.278 31.2209V17.4263H145.648C145.405 17.4263 145.163 17.1801 145.163 16.934V14.1417C145.163 13.8956 145.404 13.6494 145.647 13.6494H156.939C157.262 13.5662 157.423 13.8135 157.423 14.0597ZM89.0256 22.8454C89.0256 25.7197 91.1239 28.1016 94.0264 28.1016C95.2372 28.1016 96.5274 27.6902 97.415 26.8696C97.5032 26.7903 97.6182 26.7464 97.7375 26.7464C97.8569 26.7464 97.9719 26.7903 98.0601 26.8696L100.076 29.0042C100.154 29.0963 100.197 29.2124 100.197 29.3324C100.197 29.4525 100.154 29.5686 100.076 29.6607C98.3821 31.385 96.2055 32.2067 93.9456 32.2067C88.8653 32.2067 84.7508 28.1016 84.7508 22.9275C84.7508 17.7545 88.8653 13.5674 93.9456 13.5674C96.4466 13.5674 98.3833 14.3879 100.076 15.9481C100.318 16.1943 100.318 16.4404 100.076 16.6878L98.0601 18.7403C97.9719 18.82 97.8566 18.8641 97.7369 18.8641C97.6173 18.8641 97.502 18.82 97.4138 18.7403C96.4466 17.9198 95.2372 17.4263 94.0264 17.4263C91.1227 17.5095 89.0256 19.9711 89.0256 22.8454ZM14.9025 14.307L9.33731 22.6813V30.7286C9.33731 30.9747 9.09613 31.2209 8.85375 31.2209H5.94999C5.70881 31.2209 5.46643 30.9747 5.46643 30.7286V22.7634L0.0604563 14.3059C-0.101132 13.9776 0.0604563 13.5674 0.464427 13.5674H3.69016C3.85175 13.5674 4.01334 13.7315 4.09413 13.8135L7.56225 18.9865L11.0304 13.8135C11.1112 13.7303 11.192 13.5674 11.4331 13.5674H14.6601C14.9013 13.5674 15.1424 13.9776 14.9013 14.3059L14.9025 14.307ZM113.787 13.8956C113.751 13.821 113.694 13.7583 113.622 13.7147C113.551 13.6711 113.468 13.6484 113.384 13.6494H113.143C112.98 13.6494 112.82 13.8135 112.739 13.8956L104.835 31.3029C104.798 31.3713 104.78 31.4479 104.782 31.5251C104.785 31.6024 104.807 31.6778 104.848 31.744C104.888 31.8102 104.945 31.8649 105.014 31.9029C105.082 31.9408 105.159 31.9607 105.238 31.9606H108.061C108.262 31.9648 108.459 31.9024 108.62 31.7831C108.781 31.6639 108.896 31.4948 108.948 31.3029L109.836 29.2504H116.772L117.659 31.3029C117.901 31.7964 118.062 31.9606 118.547 31.9606H121.369C121.773 31.9606 121.934 31.6323 121.773 31.3029L113.787 13.8956ZM111.368 25.7197L113.304 21.4505L115.239 25.7197H111.368ZM28.8569 13.5662C23.9369 13.5662 19.984 17.5904 19.984 22.6813C19.984 27.6902 23.9357 31.7144 28.8569 31.7144C33.7769 31.7144 37.7286 27.6902 37.7286 22.6813C37.7286 17.6724 33.7769 13.5686 28.8569 13.5686V13.5662ZM28.8569 27.6902C26.1943 27.6902 23.9369 25.3915 23.9369 22.6813C23.9369 19.8903 26.1943 17.5916 28.8569 17.5916C31.5991 17.5916 33.7769 19.8903 33.7769 22.6813C33.7769 25.3915 31.5183 27.6902 28.8569 27.6902ZM57.0866 14.0597V24.4056C57.0886 25.3245 56.9061 26.2346 56.5499 27.0836C56.1936 27.9326 55.6706 28.7038 55.0108 29.3526C54.3511 30.0014 53.5677 30.5151 52.7058 30.8641C51.8439 31.2132 50.9205 31.3906 49.9888 31.3862C46.1179 31.3862 42.9706 28.1837 42.9706 24.4056V14.0597C42.9706 13.8135 43.213 13.5674 43.4553 13.5674H46.5207C46.7619 13.5674 47.0031 13.8135 47.0031 14.0597V24.2415C47.0031 25.9659 48.2946 27.444 50.0684 27.444C51.8435 27.444 53.1338 26.0479 53.1338 24.2415V14.0597C53.1338 13.8135 53.2953 13.5674 53.6173 13.5674H56.6827C56.9239 13.5674 57.0866 13.8135 57.0866 14.0597ZM138.791 26.8696C138.791 29.4977 136.533 32.2067 132.822 32.2067C129.516 32.2067 127.661 30.8106 127.095 30.2362C126.854 29.9901 126.773 29.908 126.935 29.4966L128.144 27.362C128.386 27.0337 128.87 27.1158 129.032 27.1979C129.113 27.2799 130.967 28.594 132.662 28.594C133.711 28.594 134.436 27.9363 134.436 27.0337C134.436 25.9658 133.548 25.1453 131.855 24.4056C129.677 23.5019 126.935 21.7775 126.935 18.6583C126.935 16.1134 128.87 13.4853 132.822 13.4853C135.485 13.4853 137.501 14.8802 138.227 15.4558C138.549 15.6199 138.468 16.1122 138.387 16.2763L137.097 18.248C136.937 18.4942 136.452 18.7403 136.211 18.5762C135.968 18.4121 134.112 17.016 132.581 17.016C131.693 17.016 130.967 17.6724 130.967 18.3301C130.967 19.3147 131.693 19.9711 133.71 20.8749C135.645 21.7787 138.791 23.3389 138.791 26.8684V26.8696Z" fill="url(#paint0_linear)"/>
</g>
<defs>
<linearGradient id="paint0_linear" x1="205" y1="21.4882" x2="83.5375" y2="21.4882" gradientUnits="userSpaceOnUse">
<stop stop-color="#FF005B"/>
<stop offset="1" stop-color="#2B2527"/>
</linearGradient>
<clipPath id="clip0">
<rect width="205" height="44" fill="white"/>
</clipPath>
</defs>
</svg>
