<svg width="26" height="26" viewBox="0 0 26 26" fill="none" xmlns="http://www.w3.org/2000/svg">
<path fill-rule="evenodd" clip-rule="evenodd" d="M25.8199 10.833H18.2317L23.5969 5.46756C22.7532 4.28274 21.7174 3.24727 20.5324 2.40393L15.1664 7.76936V0.180958C14.4529 0.0609401 13.7307 0.000412401 13.0071 0H12.9933C12.2572 0 11.5362 0.0629065 10.8336 0.180958V7.76936L5.46641 2.40352C4.87534 2.82421 4.32058 3.2937 3.80794 3.80707L3.8055 3.80952C3.29289 4.32251 2.82382 4.87724 2.40315 5.46797L7.77031 10.833H0.180547C0.180547 10.833 0 12.2586 0 12.9955V13.0045C0 13.7414 0.0624962 14.4636 0.180958 15.1666H7.7707L2.40274 20.5312C3.24702 21.7159 4.28285 22.7516 5.46765 23.5957L10.834 18.2306V25.8195C11.5358 25.9371 12.2555 25.9992 12.9908 26H13.0092C13.7319 25.9993 14.4533 25.9389 15.166 25.8195V18.2306L20.5328 23.5969C21.1239 23.1758 21.6791 22.7064 22.1925 22.1933H22.1937C22.7061 21.6798 23.175 21.1247 23.5956 20.5337L18.2305 15.167H25.8203C25.9379 14.4644 26 13.7447 26 13.0094V12.9906C26 12.2676 25.9395 11.5466 25.8203 10.8338L25.8199 10.833ZM15.751 15.7503C16.0814 14.8731 16.2506 13.9435 16.2506 13.0061L16.2497 13.0057H16.2485V12.9935C16.249 12.0558 16.0797 11.1258 15.7489 10.2485C14.8952 9.92616 13.9704 9.74888 13.0039 9.74888H12.9933C12.0553 9.74828 11.125 9.91753 10.2474 10.2485C9.92632 11.1022 9.74903 12.0274 9.74903 12.9935V13.0057C9.74895 13.9434 9.91848 14.8734 10.2494 15.7507C11.1269 16.0812 12.0569 16.2504 12.9945 16.2503H13.0059C13.9436 16.2501 14.8735 16.0807 15.751 15.7503Z" fill="#EE5829"/>
</svg>
