<svg width="27" height="26" viewBox="0 0 27 26" fill="none" xmlns="http://www.w3.org/2000/svg">
<path fill-rule="evenodd" clip-rule="evenodd" d="M4.99275 16.9402L3.6326 17.4371L3.55957 21.4834L8.26795 19.7634C6.65303 19.2209 5.47372 18.2665 4.99275 16.9402Z" fill="#FDBD39"/>
<path fill-rule="evenodd" clip-rule="evenodd" d="M5.70463 12.6604L0.985352 14.3844L3.63267 17.437L4.99282 16.9401C4.51326 15.6177 4.809 14.1228 5.70463 12.6604Z" fill="#F69833"/>
<path fill-rule="evenodd" clip-rule="evenodd" d="M13.6461 6.82199C7.63651 9.01734 3.76219 13.5475 4.99255 16.9403L26.7551 8.99022C25.5247 5.59735 19.6556 4.62661 13.6461 6.82199Z" fill="#FECF33"/>
<path fill-rule="evenodd" clip-rule="evenodd" d="M18.1022 19.1084C24.1117 16.913 27.9933 12.4029 26.7557 8.98999L4.99316 16.9401C6.23079 20.3531 12.0926 21.3037 18.1022 19.1084Z" fill="#EE6723"/>
<path fill-rule="evenodd" clip-rule="evenodd" d="M26.7557 8.98999L4.99316 16.9401C5.4193 18.1152 7.04435 18.6942 9.32447 18.6942C11.5474 18.6942 14.393 18.1443 17.3596 17.0606C23.3692 14.8652 27.5973 11.3108 26.7557 8.98999Z" fill="#F69833"/>
<path fill-rule="evenodd" clip-rule="evenodd" d="M22.4237 7.23584C20.2008 7.23584 17.3552 7.78571 14.3886 8.86946C8.37902 11.0648 4.15088 14.6193 4.99249 16.9401L26.755 8.98993C26.3289 7.81479 24.7038 7.23584 22.4237 7.23584Z" fill="#FDBD39"/>
<path fill-rule="evenodd" clip-rule="evenodd" d="M21.2219 21.6977H21.2218C20.5815 21.6977 19.6368 21.1193 18.4141 19.9787C16.9675 18.6292 15.3105 16.6526 13.7481 14.4131C12.1858 12.1737 10.9021 9.93487 10.1333 8.10891C9.29578 6.11906 9.17636 4.89558 9.77839 4.47241C9.91039 4.37972 10.0695 4.33276 10.2513 4.33276C10.741 4.33276 11.6952 4.69735 13.4596 6.43436L13.4982 6.47232L13.493 6.52631C13.4809 6.6511 13.4698 6.777 13.4599 6.90057L13.4402 7.14595L13.2671 6.97155C11.366 5.05628 10.5291 4.84951 10.2575 4.84951C10.1801 4.84951 10.1184 4.86526 10.0742 4.89634C9.81306 5.07983 9.79625 5.97851 10.6083 7.90745C11.3633 9.70087 12.6284 11.9059 14.1705 14.1163C15.7127 16.3269 17.3444 18.2742 18.7651 19.5996C20.2971 21.0287 20.9875 21.1831 21.2132 21.1831C21.2911 21.1831 21.3545 21.1663 21.4014 21.1333C21.6769 20.9397 21.6772 19.977 20.7717 17.9008L20.7301 17.8055L20.8211 17.7557C20.9121 17.7059 21.0002 17.6568 21.0827 17.6099L21.1917 17.5479L21.242 17.6631C21.8841 19.1342 22.4842 21.004 21.6972 21.5572C21.5645 21.6504 21.4046 21.6977 21.2219 21.6977ZM21.2218 21.4707H21.2219L21.2218 21.5842L21.2218 21.4707Z" fill="#EE6723"/>
<path fill-rule="evenodd" clip-rule="evenodd" d="M18.2475 19.0464L18.2383 19.1594C18.0864 21.0394 17.6864 23.2995 16.6433 23.391C16.6224 23.3928 16.6006 23.3938 16.5788 23.3938C15.8703 23.3938 15.1999 22.3786 14.5864 20.3763C14.006 18.4821 13.5555 15.9387 13.3181 13.2148C13.0807 10.4915 13.0842 7.90833 13.3281 5.94117C13.594 3.79758 14.1001 2.67812 14.8323 2.61386C14.854 2.61187 14.8764 2.61084 14.8986 2.61084C15.4126 2.61084 16.1873 3.19287 16.9803 5.90387L16.4625 6.00382C16.1977 5.09787 15.9091 4.36105 15.6227 3.85474C15.3577 3.38643 15.1 3.12852 14.8971 3.12852C14.8904 3.12852 14.8837 3.1288 14.8771 3.12937C14.5597 3.15724 14.0975 3.92712 13.8398 6.00509C13.6002 7.93696 13.5973 10.4814 13.8317 13.1698C14.0661 15.8586 14.5092 18.3639 15.0792 20.2242C15.3345 21.0574 15.6145 21.7441 15.889 22.21C16.1421 22.6397 16.387 22.8763 16.5787 22.8763C16.5853 22.8763 16.5918 22.876 16.5984 22.8755C16.9021 22.8489 17.4743 22.0477 17.7152 19.229L18.2475 19.0464Z" fill="#EE6723"/>
</svg>
