<svg xmlns="http://www.w3.org/2000/svg" viewBox="0 0 256 446">
    <g fill="none" fill-rule="evenodd">
        <path fill="#fff" fill-rule="nonzero" d="M205.78 270.83h-22.2a5.4 5.4 0 0 0-5.4 5.4v79.19a5.4 5.4 0 0 0 5.4 5.4h22.2c33.11 0 49.79-18 49.79-44.81 0-26.81-16.68-45.18-49.79-45.18zm7 62.6H207a3.6 3.6 0 0 1-3.6-3.6v-28.4a3.6 3.6 0 0 1 3.6-3.6h5.4c7.59 0 12.6 6.35 12.6 18.18s-4.58 17.43-12.17 17.43l-.05-.01zM5.4 360.82h16.2a5.4 5.4 0 0 0 5.4-5.4v-25.2L35.12 347a5.4 5.4 0 0 0 4.88 3h.22a5.4 5.4 0 0 0 4.78-2.83l9-16.94v25.2a5.4 5.4 0 0 0 5.4 5.4h16.2a5.4 5.4 0 0 0 5.4-5.4v-79.2a5.4 5.4 0 0 0-5.4-5.4H58.09a5.4 5.4 0 0 0-4.77 2.87L39.6 299.63l-13.73-25.92a5.4 5.4 0 0 0-4.77-2.87H5.4a5.4 5.4 0 0 0-5.4 5.4v79.19a5.4 5.4 0 0 0 5.4 5.39zM144 352.14l1.36 4.77a5.4 5.4 0 0 0 5.19 3.92h15a5.39 5.39 0 0 0 5.17-6.94c-5.39-17.9-19.62-65.18-23.76-79a5.38 5.38 0 0 0-5.16-3.83h-24.4a5.4 5.4 0 0 0-5.17 3.84l-23.75 79a5.4 5.4 0 0 0 5.17 7h15.66a5.4 5.4 0 0 0 5.19-3.92l1.36-4.77a5.4 5.4 0 0 1 5.19-3.92h17.76a5.4 5.4 0 0 1 5.19 3.85zm-21.62-24.76l7.2-25.2 7.2 25.2h-14.4zM27 377H5.4a5.4 5.4 0 0 0-5.4 5.4V440a5.4 5.4 0 0 0 5.4 5.4h23.4c24.78 0 36-14.17 36-34.2S51.77 377 27 377zm1.8 46.79h-3.6a1.8 1.8 0 0 1-1.8-1.8v-21.6a1.8 1.8 0 0 1 1.8-1.8h3.6c7 0 10.8 3.75 10.8 12.6s-3.82 12.63-10.8 12.63v-.03zM244.48 407.33c-2.32-1.553-7.293-3.3-14.92-5.24l-3.77-.93c-.267-.06-.653-.163-1.16-.31-5.74-1.447-8.61-3.253-8.61-5.42a3.79 3.79 0 0 1 1.64-3.37 9.06 9.06 0 0 1 5-1.11 10.32 10.32 0 0 1 5.88 1.42c1.38.95 3.83 2.53 4.15 4.46h13.75a3.59 3.59 0 0 0 3.51-4.41 18.63 18.63 0 0 0-7.09-10.94 33.18 33.18 0 0 0-19.86-6.26 32.71 32.71 0 0 0-20.12 6.49c-4.89 3.7-8 8.09-8 14.57a22.39 22.39 0 0 0 2.52 9.32 17.69 17.69 0 0 0 5.66 6.48 29.14 29.14 0 0 0 6.24 2.86c2.86 1.02 6.7 2.153 11.52 3.4l2.71.67c5.887 1.48 8.833 3.403 8.84 5.77a3.89 3.89 0 0 1-2.11 3.49 11.25 11.25 0 0 1-5.79 1.27c-2.933 0-5.14-.517-6.62-1.55-1.48-1-2.61-3.59-3.17-6h-15.6a3.61 3.61 0 0 0-3.54 4.33c1.09 5.26 3.39 9.84 7.4 12.9 5.08 3.88 11.38 6.16 20.05 6.16 9.41 0 17.21-2.28 22.26-6.16 5.05-3.88 7.25-10 7.25-17.24 0-3.35-.35-5.66-1.68-8.12a18.8 18.8 0 0 0-6.34-6.53zM185.94 377h-15.31a5.4 5.4 0 0 0-5.31 4.43l-6.39 35.16-6.39-35.16a5.4 5.4 0 0 0-5.31-4.43h-15.32a5.4 5.4 0 0 0-5.19 6.9l16.67 57.59a5.4 5.4 0 0 0 5.19 3.9h20.68a5.4 5.4 0 0 0 5.19-3.9l16.67-57.59a5.4 5.4 0 0 0-5.18-6.9zM115.19 377h-39.6a5.4 5.4 0 0 0-5.4 5.4V440a5.4 5.4 0 0 0 5.4 5.4h39.6a5.4 5.4 0 0 0 5.4-5.4v-9a3.6 3.6 0 0 0-3.6-3.6h-23.4a1.8 1.8 0 0 1-1.8-1.8V422a1.8 1.8 0 0 1 1.8-1.8h18a3.6 3.6 0 0 0 3.6-3.6v-10.8a3.6 3.6 0 0 0-3.6-3.6h-18a1.8 1.8 0 0 1-1.8-1.8v-3.6a1.8 1.8 0 0 1 1.8-1.8H117a3.6 3.6 0 0 0 3.6-3.6v-9a5.4 5.4 0 0 0-5.41-5.4z"/>
        <path fill="#CA2228" d="M237.23 1.34l-109.48 50-109.48-50C10.59-2.83 0 3.16 0 13.87v208.77c0 8 4.79 14.52 11.29 14.72a3.6 3.6 0 0 0 .9 0h.65l71.75-7.45L71 210.54c-5.94-8.29 1.26-15.49 8.88-12.69 1.53.56 3.19-.18 4.68.21l-18-60.72c-.07-.21-.13-.42-.19-.63l-.14-.46v-.14a10.39 10.39 0 0 1 19.47-6.7v.09c.17.34 20.65 50.87 20.65 50.87a10.95 10.95 0 0 1 21.62.57 11 11 0 0 1 11.03-9.52c5.35 0 9.5 4.73 10.43 9.83l12.17-34.3a10.44 10.44 0 0 1 20.24 3.52v.32L171 229.84l71.67 7.45h.65a3.6 3.6 0 0 0 .9 0c6.5-.2 10.93-6.68 10.93-14.69V13.82c-.01-10.7-10.24-16.65-17.92-12.48z"/>
    </g>
</svg>
