<?xml version="1.0" standalone="no"?>
<!DOCTYPE svg PUBLIC "-//W3C//DTD SVG 20010904//EN"
 "http://www.w3.org/TR/2001/REC-SVG-20010904/DTD/svg10.dtd">
<svg version="1.0" xmlns="http://www.w3.org/2000/svg"
 width="64.000000pt" height="64.000000pt" viewBox="0 0 64.000000 64.000000"
 preserveAspectRatio="xMidYMid meet">
<metadata>
Created by potrace 1.11, written by Peter Selinger 2001-2013
</metadata>
<g transform="translate(0.000000,64.000000) scale(0.100000,-0.100000)"
fill="#000000" stroke="none">
<path d="M12 608 c-16 -16 -17 -559 -1 -575 9 -9 45 -9 119 2 14 2 38 4 53 4
l29 1 -21 33 c-14 22 -17 37 -11 47 6 8 10 11 10 6 0 -6 4 -6 10 0 7 7 2 34
-13 81 -24 72 -22 103 8 103 7 0 26 -31 42 -70 23 -54 32 -67 41 -58 10 10 17
10 32 1 14 -10 20 -10 23 0 3 9 9 9 25 0 20 -12 22 -10 33 27 15 50 33 67 53
51 8 -7 13 -22 11 -34 -5 -31 -13 -84 -20 -139 -6 -45 -5 -48 17 -49 13 0 56
-4 96 -8 44 -4 76 -3 82 3 6 6 10 119 10 292 0 264 -1 283 -18 288 -11 4 -75
-20 -160 -59 l-142 -65 -63 29 c-34 16 -97 45 -140 65 -88 40 -88 41 -105 24z"/>
</g>
</svg>
